M48
; DRILL file {KiCad 5.1.5-52549c5~84~ubuntu19.04.1} date Wed 26 Feb 2020 01:58:29 PM CST
; FORMAT={-:-/ absolute / inch / decimal}
; #@! TF.CreationDate,2020-02-26T13:58:29-06:00
; #@! TF.GenerationSoftware,Kicad,Pcbnew,5.1.5-52549c5~84~ubuntu19.04.1
FMAT,2
INCH
T1C0.0079
T2C0.0157
T3C0.0236
T4C0.0394
T5C0.0866
T6C0.0236
T7C0.0390
T8C0.0866
%
G90
G05
T1
X5.1693Y-2.7126
X5.1693Y-4.0118
X5.1693Y-5.311
X5.1703Y-2.688
X5.1703Y-3.9872
X5.1703Y-5.2864
X5.1724Y-2.0315
X5.1724Y-2.189
X5.1724Y-2.2382
X5.1724Y-2.2874
X5.1724Y-2.3465
X5.1724Y-2.4055
X5.1724Y-2.7795
X5.1724Y-2.8287
X5.1724Y-2.8976
X5.1724Y-2.9567
X5.1724Y-3.0157
X5.1724Y-3.1732
X5.1724Y-3.3307
X5.1724Y-3.4882
X5.1724Y-3.5374
X5.1724Y-3.5866
X5.1724Y-3.6457
X5.1724Y-3.7047
X5.1724Y-4.0787
X5.1724Y-4.128
X5.1724Y-4.1969
X5.1724Y-4.2559
X5.1724Y-4.315
X5.1724Y-4.4724
X5.1724Y-4.6299
X5.1724Y-4.7874
X5.1724Y-4.8366
X5.1724Y-4.8858
X5.1724Y-4.9449
X5.1724Y-5.0039
X5.1724Y-5.378
X5.1724Y-5.4272
X5.1724Y-5.4961
X5.1724Y-5.5551
X5.1724Y-5.6142
X5.1724Y-5.7717
X5.1764Y-2.7362
X5.1764Y-4.0354
X5.1764Y-5.3346
X5.2039Y-2.7362
X5.2039Y-4.0354
X5.2039Y-5.3346
X5.2077Y-2.686
X5.2077Y-3.9852
X5.2077Y-5.2844
X5.2094Y-2.8476
X5.2094Y-4.1469
X5.2094Y-5.4461
X5.2138Y-2.8177
X5.2138Y-4.1169
X5.2138Y-5.4161
X5.2197Y-2.7598
X5.2197Y-2.7874
X5.2197Y-4.0591
X5.2197Y-4.0866
X5.2197Y-5.3583
X5.2197Y-5.3858
X5.2236Y-2.4055
X5.2236Y-2.8846
X5.2236Y-3.7047
X5.2236Y-4.1839
X5.2236Y-5.0039
X5.2236Y-5.4831
X5.2333Y-2.685
X5.2333Y-3.9843
X5.2333Y-5.2835
X5.2354Y-2.7362
X5.2354Y-4.0354
X5.2354Y-5.3346
X5.2433Y-2.4185
X5.2433Y-3.7177
X5.2433Y-5.0169
X5.2476Y-2.8878
X5.2476Y-4.187
X5.2476Y-5.4862
X5.2579Y-2.4331
X5.2579Y-3.7323
X5.2579Y-5.0315
X5.2685Y-2.8827
X5.2685Y-4.1819
X5.2685Y-5.4811
X5.2709Y-2.4724
X5.2709Y-2.5079
X5.2709Y-2.5433
X5.2709Y-2.6654
X5.2709Y-3.7717
X5.2709Y-3.8071
X5.2709Y-3.8425
X5.2709Y-3.9646
X5.2709Y-5.0709
X5.2709Y-5.1063
X5.2709Y-5.1417
X5.2709Y-5.2638
X5.2717Y-2.5945
X5.2717Y-3.8937
X5.2717Y-5.1929
X5.2746Y-2.6358
X5.2746Y-3.935
X5.2746Y-5.2343
X5.278Y-2.7909
X5.278Y-4.0902
X5.278Y-5.3894
X5.2791Y-2.7669
X5.2791Y-4.0661
X5.2791Y-5.3654
X5.2823Y-2.8213
X5.2823Y-4.1205
X5.2823Y-5.4197
X5.2846Y-2.8476
X5.2846Y-4.1469
X5.2846Y-5.4461
X5.2906Y-2.3858
X5.2906Y-3.685
X5.2906Y-4.9843
X5.2913Y-2.5827
X5.2913Y-3.8819
X5.2913Y-5.1811
X5.2945Y-2.4843
X5.2945Y-3.7835
X5.2945Y-5.0827
X5.298Y-2.7874
X5.298Y-4.0866
X5.298Y-5.3858
X5.2992Y-2.563
X5.2992Y-3.8622
X5.2992Y-5.1614
X5.3024Y-2.4055
X5.3024Y-3.7047
X5.3024Y-5.0039
X5.3031Y-2.6339
X5.3031Y-3.9331
X5.3031Y-5.2323
X5.3142Y-2.5039
X5.3142Y-2.5433
X5.3142Y-3.8031
X5.3142Y-3.8425
X5.3142Y-5.1024
X5.3142Y-5.1417
X5.3173Y-2.8051
X5.3173Y-4.1043
X5.3173Y-5.4035
X5.3209Y-2.2075
X5.3209Y-3.5067
X5.3209Y-4.8059
X5.322Y-2.4213
X5.322Y-3.7205
X5.322Y-5.0197
X5.3299Y-2.0315
X5.3299Y-3.1732
X5.3299Y-3.3307
X5.3299Y-4.4724
X5.3299Y-4.6299
X5.3299Y-5.7717
X5.3339Y-2.5236
X5.3339Y-3.8228
X5.3339Y-5.122
X5.3362Y-2.7173
X5.3362Y-4.0165
X5.3362Y-5.3157
X5.337Y-2.8472
X5.337Y-4.1465
X5.337Y-5.4457
X5.3378Y-2.437
X5.3378Y-3.7362
X5.3378Y-5.0354
X5.3382Y-2.9094
X5.3382Y-4.2087
X5.3382Y-5.5079
X5.339Y-2.8776
X5.339Y-4.1768
X5.339Y-5.476
X5.3402Y-2.7449
X5.3402Y-2.8185
X5.3402Y-2.9406
X5.3402Y-4.0441
X5.3402Y-4.1177
X5.3402Y-4.2398
X5.3402Y-5.3433
X5.3402Y-5.4169
X5.3402Y-5.539
X5.3461Y-2.2469
X5.3461Y-3.5461
X5.3461Y-4.8453
X5.3535Y-2.4528
X5.3535Y-3.752
X5.3535Y-5.0512
X5.3559Y-2.1697
X5.3559Y-3.4689
X5.3559Y-4.7681
X5.3575Y-2.5866
X5.3575Y-2.6961
X5.3575Y-3.8858
X5.3575Y-3.9953
X5.3575Y-5.185
X5.3575Y-5.2945
X5.3598Y-2.7618
X5.3598Y-4.061
X5.3598Y-5.3602
X5.3606Y-2.8358
X5.3606Y-4.135
X5.3606Y-5.4343
X5.3654Y-2.6142
X5.3654Y-3.9134
X5.3654Y-5.2126
X5.3681Y-2.1138
X5.3681Y-2.9484
X5.3681Y-3.413
X5.3681Y-4.2476
X5.3681Y-4.7122
X5.3681Y-5.5469
X5.3697Y-2.0303
X5.3697Y-3.3295
X5.3697Y-4.6287
X5.3724Y-2.7803
X5.3724Y-4.0795
X5.3724Y-5.3787
X5.3768Y-2.2839
X5.3768Y-3.5831
X5.3768Y-4.8823
X5.3772Y-2.5709
X5.3772Y-3.8701
X5.3772Y-5.1693
X5.3787Y-2.4094
X5.3787Y-3.7087
X5.3787Y-5.0079
X5.3791Y-3.1732
X5.3791Y-4.4724
X5.3791Y-5.7717
X5.3807Y-2.3217
X5.3807Y-3.6209
X5.3807Y-4.9201
X5.3815Y-2.6685
X5.3815Y-3.9677
X5.3815Y-5.2669
X5.3882Y-2.8024
X5.3882Y-4.1016
X5.3882Y-5.4008
X5.3913Y-2.1866
X5.3913Y-3.4858
X5.3913Y-4.785
X5.3929Y-2.5866
X5.3929Y-2.6142
X5.3929Y-3.8858
X5.3929Y-3.9134
X5.3929Y-5.185
X5.3929Y-5.2126
X5.3957Y-2.9496
X5.3957Y-4.2488
X5.3957Y-5.548
X5.4008Y-2.5
X5.4008Y-3.7992
X5.4008Y-5.0984
X5.4031Y-2.365
X5.4031Y-3.6642
X5.4031Y-4.9634
X5.4098Y-2.8248
X5.4098Y-4.124
X5.4098Y-5.4232
X5.4126Y-2.5984
X5.4126Y-3.8976
X5.4126Y-5.1969
X5.4165Y-2.5157
X5.4165Y-3.815
X5.4165Y-5.1142
X5.4205Y-2.2957
X5.4205Y-2.9504
X5.4205Y-3.5949
X5.4205Y-4.2496
X5.4205Y-4.8941
X5.4205Y-5.5488
X5.4274Y-2.6142
X5.4274Y-3.9134
X5.4274Y-5.2126
X5.428Y-2.1661
X5.428Y-3.4654
X5.428Y-4.7646
X5.4287Y-2.424
X5.4287Y-3.7232
X5.4287Y-5.0224
X5.4295Y-2.8461
X5.4295Y-4.1453
X5.4295Y-5.4445
X5.4323Y-2.5315
X5.4323Y-3.8307
X5.4323Y-5.1299
X5.436Y-2.6732
X5.436Y-3.9724
X5.436Y-5.2717
X5.4382Y-2.0315
X5.4382Y-3.1732
X5.4382Y-3.3307
X5.4382Y-4.4724
X5.4382Y-4.6299
X5.4382Y-5.7717
X5.4433Y-2.9299
X5.4433Y-4.2291
X5.4433Y-5.5283
X5.4445Y-2.8701
X5.4445Y-4.1693
X5.4445Y-5.4685
X5.4453Y-2.8984
X5.4453Y-4.1976
X5.4453Y-5.4969
X5.4469Y-2.3201
X5.4469Y-3.6193
X5.4469Y-4.9185
X5.4512Y-2.3752
X5.4512Y-3.6744
X5.4512Y-4.9736
X5.452Y-2.6142
X5.452Y-3.9134
X5.452Y-5.2126
X5.4535Y-2.4791
X5.4535Y-3.7783
X5.4535Y-5.0776
X5.4596Y-2.0965
X5.4596Y-3.3957
X5.4596Y-4.6949
X5.4603Y-2.0406
X5.4603Y-3.3398
X5.4603Y-4.639
X5.4614Y-2.4311
X5.4614Y-3.7303
X5.4614Y-5.0295
X5.4728Y-2.985
X5.4728Y-4.2843
X5.4728Y-5.5835
X5.475Y-2.0585
X5.475Y-3.3577
X5.475Y-4.6569
X5.4772Y-3.0677
X5.4772Y-4.3669
X5.4772Y-5.6661
X5.4795Y-2.5669
X5.4795Y-3.8661
X5.4795Y-5.1654
X5.4813Y-3.1703
X5.4813Y-4.4695
X5.4813Y-5.7687
X5.4913Y-2.4331
X5.4913Y-3.7323
X5.4913Y-5.0315
X5.4931Y-2.8917
X5.4931Y-4.1909
X5.4931Y-5.4902
X5.4933Y-2.6663
X5.4933Y-3.9656
X5.4933Y-5.2648
X5.4969Y-2.915
X5.4969Y-4.2142
X5.4969Y-5.5134
X5.5008Y-2.4854
X5.5008Y-3.7846
X5.5008Y-5.0839
X5.5039Y-2.4132
X5.5039Y-3.7125
X5.5039Y-5.0117
X5.5066Y-2.4552
X5.5066Y-3.7545
X5.5066Y-5.0537
X5.5079Y-2.5197
X5.5079Y-3.8189
X5.5079Y-5.1181
X5.5185Y-2.2894
X5.5185Y-3.5886
X5.5185Y-4.8878
X5.5228Y-2.3818
X5.5228Y-3.681
X5.5228Y-4.9802
X5.5307Y-3.0551
X5.5307Y-4.3543
X5.5307Y-5.6535
X5.5346Y-2.5551
X5.5346Y-3.8543
X5.5346Y-5.1535
X5.5362Y-2.0272
X5.5362Y-3.3264
X5.5362Y-4.6256
X5.5386Y-2.4882
X5.5386Y-3.7874
X5.5386Y-5.0866
X5.5425Y-2.685
X5.5425Y-3.9843
X5.5425Y-5.2835
X5.5547Y-2.148
X5.5547Y-3.4472
X5.5547Y-4.7465
X5.5622Y-2.2555
X5.5622Y-3.5547
X5.5622Y-4.8539
X5.5654Y-2.0492
X5.5654Y-3.3484
X5.5654Y-4.6476
X5.5661Y-2.0984
X5.5661Y-3.3976
X5.5661Y-4.6969
X5.5696Y-3.0768
X5.5696Y-4.376
X5.5696Y-5.6752
X5.571Y-2.2881
X5.571Y-3.5873
X5.571Y-4.8865
X5.576Y-3.1634
X5.576Y-4.4626
X5.576Y-5.7618
X5.577Y-2.5669
X5.577Y-3.8661
X5.577Y-5.1654
X5.578Y-2.7318
X5.578Y-4.031
X5.578Y-5.3303
X5.5804Y-2.7556
X5.5804Y-4.0548
X5.5804Y-5.354
X5.5835Y-2.239
X5.5835Y-3.5382
X5.5835Y-4.8374
X5.5902Y-2.3595
X5.5902Y-3.6587
X5.5902Y-4.9579
X5.5969Y-2.1661
X5.5969Y-3.4654
X5.5969Y-4.7646
X5.6043Y-2.3407
X5.6043Y-3.6399
X5.6043Y-4.9391
X5.6161Y-2.9203
X5.6161Y-4.2195
X5.6161Y-5.5187
X5.6202Y-2.8171
X5.6202Y-4.1164
X5.6202Y-5.4156
X5.628Y-2.9596
X5.628Y-4.2589
X5.628Y-5.5581
X5.6378Y-2.9113
X5.6378Y-4.2105
X5.6378Y-5.5097
X5.6389Y-2.5311
X5.6389Y-3.8304
X5.6389Y-5.1296
X5.6421Y-2.3346
X5.6421Y-3.6339
X5.6421Y-4.9331
X5.6528Y-2.2598
X5.6528Y-3.5591
X5.6528Y-4.8583
X5.6594Y-2.9203
X5.6594Y-4.2195
X5.6594Y-5.5187
X5.6606Y-2.2323
X5.6606Y-3.5315
X5.6606Y-4.8307
X5.6622Y-2.461
X5.6622Y-3.7602
X5.6622Y-5.0594
X5.6685Y-3.0551
X5.6685Y-4.3543
X5.6685Y-5.6535
X5.6701Y-2.2929
X5.6701Y-3.5921
X5.6701Y-4.8913
X5.6719Y-2.8627
X5.6719Y-4.1619
X5.6719Y-5.4611
X5.672Y-2.0495
X5.672Y-3.3488
X5.672Y-4.648
X5.6744Y-3.1634
X5.6744Y-4.4626
X5.6744Y-5.7618
X5.6783Y-2.0272
X5.6783Y-3.3264
X5.6783Y-4.6256
X5.6803Y-2.6181
X5.6803Y-3.9173
X5.6803Y-5.2165
X5.683Y-3.0909
X5.683Y-4.3901
X5.683Y-5.6893
X5.6845Y-2.764
X5.6845Y-4.0633
X5.6845Y-5.3625
X5.6846Y-2.0949
X5.6846Y-3.3941
X5.6846Y-4.6933
X5.686Y-2.2441
X5.686Y-3.5433
X5.686Y-4.8425
X5.6907Y-2.3643
X5.6907Y-3.6635
X5.6907Y-4.9627
X5.6921Y-2.3976
X5.6921Y-3.6969
X5.6921Y-4.9961
X5.6934Y-2.8873
X5.6934Y-4.1865
X5.6934Y-5.4857
X5.7Y-3.0648
X5.7Y-4.364
X5.7Y-5.6633
X5.705Y-2.9062
X5.705Y-4.2055
X5.705Y-5.5047
X5.7072Y-2.5275
X5.7072Y-3.8268
X5.7072Y-5.126
X5.7148Y-2.0335
X5.7148Y-3.3327
X5.7148Y-4.6319
X5.7216Y-2.9615
X5.7216Y-4.2607
X5.7216Y-5.5599
X5.7244Y-2.811
X5.7244Y-4.1102
X5.7244Y-5.4094
X5.7267Y-2.4685
X5.7267Y-3.7678
X5.7267Y-5.067
X5.7285Y-2.5184
X5.7285Y-3.8176
X5.7285Y-5.1168
X5.7308Y-2.3658
X5.7308Y-3.665
X5.7308Y-4.9642
X5.7325Y-2.3965
X5.7325Y-3.6957
X5.7325Y-4.9949
X5.7539Y-3.1378
X5.7539Y-4.437
X5.7539Y-5.7362
X5.7547Y-2.9843
X5.7547Y-4.2835
X5.7547Y-5.5827
X5.7562Y-2.9577
X5.7562Y-4.2569
X5.7562Y-5.5561
X5.7571Y-2.8665
X5.7571Y-4.1657
X5.7571Y-5.465
X5.7579Y-2.0561
X5.7579Y-3.3553
X5.7579Y-4.6545
X5.7587Y-2.1634
X5.7587Y-3.4626
X5.7587Y-4.7618
X5.7615Y-2.2881
X5.7615Y-3.5873
X5.7615Y-4.8865
X5.763Y-3.0866
X5.763Y-4.3858
X5.763Y-5.685
X5.7697Y-2.3917
X5.7697Y-3.6909
X5.7697Y-4.9902
X5.771Y-3.0477
X5.771Y-4.3469
X5.771Y-5.6461
X5.7728Y-3.1634
X5.7728Y-4.4626
X5.7728Y-5.7618
X5.7732Y-2.3559
X5.7732Y-3.6551
X5.7732Y-4.9543
X5.775Y-2.3278
X5.775Y-3.627
X5.775Y-4.9262
X5.7771Y-2.4838
X5.7771Y-3.7831
X5.7771Y-5.0823
X5.7783Y-2.0854
X5.7783Y-3.3846
X5.7783Y-4.6839
X5.7803Y-2.2051
X5.7803Y-3.5043
X5.7803Y-4.8035
X5.7819Y-2.1394
X5.7819Y-2.8657
X5.7819Y-3.4386
X5.7819Y-4.165
X5.7819Y-4.7378
X5.7819Y-5.4642
X5.7886Y-2.248
X5.7886Y-3.5472
X5.7886Y-4.8465
X5.7906Y-2.9291
X5.7906Y-4.2283
X5.7906Y-5.5276
X5.7943Y-2.1083
X5.7943Y-3.4075
X5.7943Y-4.7067
X5.7945Y-3.0079
X5.7945Y-4.3071
X5.7945Y-5.6063
X5.8051Y-2.0283
X5.8051Y-3.3276
X5.8051Y-4.6268
X5.8078Y-2.8601
X5.8078Y-4.1594
X5.8078Y-5.4586
X5.8089Y-2.492
X5.8089Y-3.7912
X5.8089Y-5.0904
X5.8189Y-2.185
X5.8189Y-3.4843
X5.8189Y-4.7835
X5.822Y-2.815
X5.822Y-4.1142
X5.822Y-5.4134
X5.824Y-3.0657
X5.824Y-4.365
X5.824Y-5.6642
X5.826Y-2.0425
X5.826Y-2.7638
X5.826Y-3.3417
X5.826Y-4.063
X5.826Y-4.6409
X5.826Y-5.3622
X5.8412Y-2.3858
X5.8412Y-3.685
X5.8412Y-4.9842
X5.8417Y-2.5079
X5.8417Y-3.8071
X5.8417Y-5.1063
X5.8571Y-3.0811
X5.8571Y-4.3803
X5.8571Y-5.6795
X5.8676Y-3.0509
X5.8676Y-4.3501
X5.8676Y-5.6493
X5.8681Y-3.1506
X5.8681Y-4.4498
X5.8681Y-5.749
X5.8693Y-2.2531
X5.8693Y-3.5524
X5.8693Y-4.8516
X5.8697Y-2.2031
X5.8697Y-3.5024
X5.8697Y-4.8016
X5.87Y-2.742
X5.87Y-4.0412
X5.87Y-5.3404
X5.8709Y-2.3976
X5.8709Y-3.6969
X5.8709Y-4.9961
X5.8711Y-2.686
X5.8711Y-3.9852
X5.8711Y-5.2844
X5.8724Y-2.3362
X5.8724Y-3.6354
X5.8724Y-4.9346
X5.874Y-2.5325
X5.874Y-3.8317
X5.874Y-5.1309
X5.8783Y-2.1449
X5.8783Y-3.4441
X5.8783Y-4.7433
X5.8789Y-2.8297
X5.8789Y-4.1289
X5.8789Y-5.4281
X5.8858Y-2.4157
X5.8858Y-3.715
X5.8858Y-5.0142
X5.8878Y-2.561
X5.8878Y-3.8602
X5.8878Y-5.1594
X5.8894Y-2.6453
X5.8894Y-3.9446
X5.8894Y-5.2438
X5.8902Y-2.265
X5.8902Y-3.5642
X5.8902Y-4.8634
X5.8965Y-2.5118
X5.8965Y-3.811
X5.8965Y-5.1102
X5.9Y-2.4543
X5.9Y-3.7535
X5.9Y-5.0527
X5.9026Y-2.8189
X5.9026Y-4.1181
X5.9026Y-5.4173
X5.9102Y-3.1187
X5.9102Y-4.4179
X5.9102Y-5.7171
X5.912Y-2.7639
X5.912Y-4.0631
X5.912Y-5.3623
X5.9121Y-2.6623
X5.9121Y-3.9616
X5.9121Y-5.2608
X5.9142Y-2.7026
X5.9142Y-4.0018
X5.9142Y-5.301
X5.9173Y-2.7864
X5.9173Y-4.0856
X5.9173Y-5.3848
X5.9177Y-2.0473
X5.9177Y-3.3465
X5.9177Y-4.6457
X5.9183Y-2.7254
X5.9183Y-4.0246
X5.9183Y-5.3238
X5.9185Y-2.9362
X5.9185Y-4.2354
X5.9185Y-5.5346
X5.9229Y-2.6221
X5.9229Y-3.9213
X5.9229Y-5.2205
X5.9272Y-2.188
X5.9272Y-3.4872
X5.9272Y-4.7864
X5.9306Y-2.5981
X5.9306Y-3.8973
X5.9306Y-5.1965
X5.935Y-2.3925
X5.935Y-3.6917
X5.935Y-4.9909
X5.9366Y-2.0303
X5.9366Y-3.3295
X5.9366Y-4.6287
X5.9372Y-2.4605
X5.9372Y-3.7597
X5.9372Y-5.0589
X5.938Y-2.7441
X5.938Y-4.0433
X5.938Y-5.3425
X5.9389Y-2.679
X5.9389Y-3.9783
X5.9389Y-5.2775
X5.9577Y-2.8642
X5.9577Y-4.1634
X5.9577Y-5.4626
X5.9678Y-2.1053
X5.9678Y-3.4045
X5.9678Y-4.7037
X5.9691Y-2.6787
X5.9691Y-3.9779
X5.9691Y-5.2771
X5.9701Y-3.0146
X5.9701Y-4.3138
X5.9701Y-5.613
X5.9734Y-3.1516
X5.9734Y-4.4508
X5.9734Y-5.75
X5.9754Y-2.9124
X5.9754Y-4.2116
X5.9754Y-5.5108
X5.9884Y-2.2874
X5.9884Y-3.5866
X5.9884Y-4.8858
X5.989Y-2.3523
X5.989Y-3.6515
X5.989Y-4.9507
X5.9894Y-2.4224
X5.9894Y-3.7217
X5.9894Y-5.0209
X5.9921Y-2.6817
X5.9921Y-3.981
X5.9921Y-5.2802
X5.9948Y-2.5616
X5.9948Y-3.8608
X5.9948Y-5.16
X5.9957Y-2.7913
X5.9957Y-4.0906
X5.9957Y-5.3898
X5.9957Y-2.6058
X5.9957Y-3.905
X5.9957Y-5.2042
X6.0071Y-2.9606
X6.0071Y-4.2598
X6.0071Y-5.5591
X6.0115Y-2.7012
X6.0115Y-4.0004
X6.0115Y-5.2997
X6.0226Y-2.1683
X6.0226Y-3.4675
X6.0226Y-4.7667
X6.0228Y-2.8622
X6.0228Y-4.1614
X6.0228Y-5.4606
X6.0254Y-2.8236
X6.0254Y-4.1228
X6.0254Y-5.422
X6.0272Y-2.7437
X6.0272Y-4.0429
X6.0272Y-5.3421
X6.0277Y-2.6557
X6.0277Y-3.9549
X6.0277Y-5.2542
X6.0283Y-2.435
X6.0283Y-3.7343
X6.0283Y-5.0335
X6.0398Y-2.5832
X6.0398Y-3.8824
X6.0398Y-5.1816
X6.0401Y-2.0317
X6.0401Y-3.3309
X6.0401Y-4.6301
X6.048Y-2.3591
X6.048Y-3.6583
X6.048Y-4.9575
X6.0549Y-2.2118
X6.0549Y-3.511
X6.0549Y-4.8102
X6.0578Y-2.9923
X6.0578Y-4.2915
X6.0578Y-5.5907
X6.0633Y-2.0315
X6.0633Y-3.3307
X6.0633Y-4.6299
X6.064Y-2.1053
X6.064Y-3.4045
X6.064Y-4.7037
X6.0648Y-2.9701
X6.0648Y-4.2694
X6.0648Y-5.5686
X6.0693Y-3.148
X6.0693Y-4.4472
X6.0693Y-5.7465
X6.0735Y-2.8419
X6.0735Y-4.1411
X6.0735Y-5.4404
X6.0736Y-2.4567
X6.0736Y-3.7559
X6.0736Y-5.0551
X6.0858Y-2.6929
X6.0858Y-3.9921
X6.0858Y-5.2913
X6.0869Y-2.0605
X6.0869Y-3.3597
X6.0869Y-4.6589
X6.0872Y-2.7427
X6.0872Y-4.0419
X6.0872Y-5.3411
X6.0874Y-3.1786
X6.0874Y-4.4778
X6.0874Y-5.777
X6.0876Y-2.9442
X6.0876Y-4.2434
X6.0876Y-5.5426
X6.0878Y-2.5694
X6.0878Y-3.8687
X6.0878Y-5.1679
X6.0886Y-2.513
X6.0886Y-3.8122
X6.0886Y-5.1114
X6.0886Y-3.0041
X6.0886Y-4.3034
X6.0886Y-5.6026
X6.0976Y-2.1693
X6.0976Y-3.4685
X6.0976Y-4.7677
X6.114Y-2.5762
X6.114Y-3.8754
X6.114Y-5.1746
X6.1181Y-2.7931
X6.1181Y-4.0923
X6.1181Y-5.3915
X6.1213Y-2.5477
X6.1213Y-3.8469
X6.1213Y-5.1461
X6.126Y-2.8461
X6.126Y-4.1453
X6.126Y-5.4445
X6.1343Y-2.4323
X6.1343Y-3.7315
X6.1343Y-5.0307
X6.1528Y-2.2874
X6.1528Y-3.5866
X6.1528Y-4.8858
X6.1533Y-2.6821
X6.1533Y-3.9813
X6.1533Y-5.2805
X6.161Y-2.0311
X6.161Y-3.3303
X6.161Y-4.6295
X6.1617Y-3.035
X6.1617Y-4.3343
X6.1617Y-5.6335
X6.1663Y-2.9931
X6.1663Y-4.2923
X6.1663Y-5.5915
X6.1685Y-2.0945
X6.1685Y-2.2441
X6.1685Y-3.3937
X6.1685Y-3.5433
X6.1685Y-4.6929
X6.1685Y-4.8425
X6.1736Y-2.6949
X6.1736Y-3.9941
X6.1736Y-5.2933
X6.1795Y-3.1099
X6.1795Y-4.4091
X6.1795Y-5.7083
X6.1811Y-2.5842
X6.1811Y-3.8834
X6.1811Y-5.1826
X6.1874Y-2.2827
X6.1874Y-3.5819
X6.1874Y-4.8811
X6.198Y-2.9291
X6.198Y-4.2283
X6.198Y-5.5276
X6.2Y-2.1972
X6.2Y-3.4965
X6.2Y-4.7957
X6.202Y-2.0364
X6.202Y-3.3356
X6.202Y-4.6348
X6.2087Y-2.2835
X6.2087Y-3.5827
X6.2087Y-4.8819
X6.2118Y-2.248
X6.2118Y-3.5472
X6.2118Y-4.8465
X6.215Y-3.1284
X6.215Y-4.4276
X6.215Y-5.7268
X6.2203Y-3.0203
X6.2203Y-4.3196
X6.2203Y-5.6188
X6.2209Y-2.3882
X6.2209Y-3.6874
X6.2209Y-4.9866
X6.2234Y-2.3012
X6.2234Y-3.6004
X6.2234Y-4.8996
X6.2366Y-2.1244
X6.2366Y-3.4236
X6.2366Y-4.7228
X6.2388Y-2.6216
X6.2388Y-3.9208
X6.2388Y-5.22
X6.2433Y-2.0768
X6.2433Y-3.376
X6.2433Y-4.6752
X6.2492Y-3.1622
X6.2492Y-4.4614
X6.2492Y-5.7606
X6.2524Y-3.0622
X6.2524Y-4.3614
X6.2524Y-5.6606
X6.2551Y-2.7992
X6.2551Y-2.8878
X6.2551Y-4.0984
X6.2551Y-4.187
X6.2551Y-5.3976
X6.2551Y-5.4862
X6.2709Y-2.9173
X6.2709Y-4.2165
X6.2709Y-5.5157
X6.2724Y-2.6862
X6.2724Y-3.9854
X6.2724Y-5.2846
X6.2782Y-2.5016
X6.2782Y-3.8008
X6.2782Y-5.1
X6.2787Y-3.1339
X6.2787Y-4.4331
X6.2787Y-5.7323
X6.2827Y-3.0276
X6.2827Y-4.3268
X6.2827Y-5.626
X6.3079Y-2.3268
X6.3079Y-3.626
X6.3079Y-4.9252
X6.3181Y-2.8898
X6.3181Y-4.189
X6.3181Y-5.4882
X6.319Y-2.6862
X6.319Y-3.9854
X6.319Y-5.2846
X6.3272Y-2.2756
X6.3272Y-3.5748
X6.3272Y-4.874
X6.3278Y-2.6136
X6.3278Y-3.9128
X6.3278Y-5.212
X6.3306Y-2.4731
X6.3306Y-3.7723
X6.3306Y-5.0715
X6.3347Y-2.9741
X6.3347Y-4.2733
X6.3347Y-5.5725
X6.3381Y-2.6359
X6.3381Y-3.9351
X6.3381Y-5.2344
X6.3398Y-2.7146
X6.3398Y-4.0138
X6.3398Y-5.313
X6.3512Y-3.0039
X6.3512Y-4.3031
X6.3512Y-5.6024
X6.3535Y-3.1732
X6.3535Y-4.4724
X6.3535Y-5.7717
X6.3554Y-2.4744
X6.3554Y-3.7736
X6.3554Y-5.0728
X6.3555Y-2.572
X6.3555Y-3.8713
X6.3555Y-5.1705
X6.3575Y-2.3018
X6.3575Y-3.6011
X6.3575Y-4.9003
X6.3634Y-2.8819
X6.3634Y-4.1811
X6.3634Y-5.4803
X6.3686Y-2.9173
X6.3686Y-4.2165
X6.3686Y-5.5157
X6.3705Y-2.6193
X6.3705Y-3.9185
X6.3705Y-5.2177
X6.3736Y-2.2819
X6.3736Y-3.5811
X6.3736Y-4.8803
X6.3913Y-2.59
X6.3913Y-3.8892
X6.3913Y-5.1884
X6.4126Y-2.7205
X6.4126Y-2.7992
X6.4126Y-2.8878
X6.4126Y-4.0197
X6.4126Y-4.0984
X6.4126Y-4.187
X6.4126Y-5.3189
X6.4126Y-5.3976
X6.4126Y-5.4862
X6.4364Y-2.6209
X6.4364Y-3.9201
X6.4364Y-5.2193
X6.4378Y-2.311
X6.4378Y-3.6102
X6.4378Y-4.9094
X6.4496Y-2.5098
X6.4496Y-3.8091
X6.4496Y-5.1083
X6.4843Y-2.628
X6.4843Y-3.9272
X6.4843Y-5.2264
X6.5028Y-2.872
X6.5028Y-2.872
X6.5028Y-4.1713
X6.5028Y-4.1713
X6.5028Y-5.4705
X6.5028Y-5.4705
X6.5047Y-3.0016
X6.5047Y-4.3008
X6.5047Y-5.6
X6.511Y-2.7579
X6.511Y-3.1732
X6.511Y-4.0571
X6.511Y-4.4724
X6.511Y-5.3563
X6.511Y-5.7717
X6.5164Y-3.022
X6.5164Y-4.3213
X6.5164Y-5.6205
X6.6654Y-2.7126
X6.6654Y-4.0118
X6.6654Y-5.311
X6.6663Y-2.688
X6.6663Y-3.9872
X6.6663Y-5.2864
X6.6685Y-2.0315
X6.6685Y-2.189
X6.6685Y-2.2382
X6.6685Y-2.2874
X6.6685Y-2.3465
X6.6685Y-2.4055
X6.6685Y-2.7795
X6.6685Y-2.8287
X6.6685Y-2.8976
X6.6685Y-2.9567
X6.6685Y-3.0157
X6.6685Y-3.1732
X6.6685Y-3.3307
X6.6685Y-3.4882
X6.6685Y-3.5374
X6.6685Y-3.5866
X6.6685Y-3.6457
X6.6685Y-3.7047
X6.6685Y-4.0787
X6.6685Y-4.128
X6.6685Y-4.1969
X6.6685Y-4.2559
X6.6685Y-4.315
X6.6685Y-4.4724
X6.6685Y-4.6299
X6.6685Y-4.7874
X6.6685Y-4.8366
X6.6685Y-4.8858
X6.6685Y-4.9449
X6.6685Y-5.0039
X6.6685Y-5.378
X6.6685Y-5.4272
X6.6685Y-5.4961
X6.6685Y-5.5551
X6.6685Y-5.6142
X6.6685Y-5.7717
X6.6724Y-2.7362
X6.6724Y-4.0354
X6.6724Y-5.3346
X6.7Y-2.7362
X6.7Y-4.0354
X6.7Y-5.3346
X6.7037Y-2.686
X6.7037Y-3.9852
X6.7037Y-5.2844
X6.7055Y-2.8476
X6.7055Y-4.1469
X6.7055Y-5.4461
X6.7098Y-2.8177
X6.7098Y-4.1169
X6.7098Y-5.4161
X6.7157Y-2.7598
X6.7157Y-2.7874
X6.7157Y-4.0591
X6.7157Y-4.0866
X6.7157Y-5.3583
X6.7157Y-5.3858
X6.7197Y-2.4055
X6.7197Y-2.8846
X6.7197Y-3.7047
X6.7197Y-4.1839
X6.7197Y-5.0039
X6.7197Y-5.4831
X6.7293Y-2.685
X6.7293Y-3.9843
X6.7293Y-5.2835
X6.7315Y-2.7362
X6.7315Y-4.0354
X6.7315Y-5.3346
X6.7394Y-2.4185
X6.7394Y-3.7177
X6.7394Y-5.0169
X6.7437Y-2.8878
X6.7437Y-4.187
X6.7437Y-5.4862
X6.7539Y-2.4331
X6.7539Y-3.7323
X6.7539Y-5.0315
X6.7646Y-2.8827
X6.7646Y-4.1819
X6.7646Y-5.4811
X6.7669Y-2.4724
X6.7669Y-2.5079
X6.7669Y-2.5433
X6.7669Y-2.6654
X6.7669Y-3.7717
X6.7669Y-3.8071
X6.7669Y-3.8425
X6.7669Y-3.9646
X6.7669Y-5.0709
X6.7669Y-5.1063
X6.7669Y-5.1417
X6.7669Y-5.2638
X6.7677Y-2.5945
X6.7677Y-3.8937
X6.7677Y-5.1929
X6.7707Y-2.6358
X6.7707Y-3.935
X6.7707Y-5.2343
X6.774Y-2.7909
X6.774Y-4.0902
X6.774Y-5.3894
X6.7752Y-2.7669
X6.7752Y-4.0661
X6.7752Y-5.3654
X6.7783Y-2.8213
X6.7783Y-4.1205
X6.7783Y-5.4197
X6.7807Y-2.8476
X6.7807Y-4.1469
X6.7807Y-5.4461
X6.7866Y-2.3858
X6.7866Y-3.685
X6.7866Y-4.9843
X6.7874Y-2.5827
X6.7874Y-3.8819
X6.7874Y-5.1811
X6.7906Y-2.4843
X6.7906Y-3.7835
X6.7906Y-5.0827
X6.7941Y-2.7874
X6.7941Y-4.0866
X6.7941Y-5.3858
X6.7953Y-2.563
X6.7953Y-3.8622
X6.7953Y-5.1614
X6.7984Y-2.4055
X6.7984Y-3.7047
X6.7984Y-5.0039
X6.7992Y-2.6339
X6.7992Y-3.9331
X6.7992Y-5.2323
X6.8102Y-2.5039
X6.8102Y-2.5433
X6.8102Y-3.8031
X6.8102Y-3.8425
X6.8102Y-5.1024
X6.8102Y-5.1417
X6.8134Y-2.8051
X6.8134Y-4.1043
X6.8134Y-5.4035
X6.8169Y-2.2075
X6.8169Y-3.5067
X6.8169Y-4.8059
X6.8181Y-2.4213
X6.8181Y-3.7205
X6.8181Y-5.0197
X6.826Y-2.0315
X6.826Y-3.1732
X6.826Y-3.3307
X6.826Y-4.4724
X6.826Y-4.6299
X6.826Y-5.7717
X6.8299Y-2.5236
X6.8299Y-3.8228
X6.8299Y-5.122
X6.8323Y-2.7173
X6.8323Y-4.0165
X6.8323Y-5.3157
X6.8331Y-2.8472
X6.8331Y-4.1465
X6.8331Y-5.4457
X6.8339Y-2.437
X6.8339Y-3.7362
X6.8339Y-5.0354
X6.8343Y-2.9094
X6.8343Y-4.2087
X6.8343Y-5.5079
X6.835Y-2.8776
X6.835Y-4.1768
X6.835Y-5.476
X6.8362Y-2.7449
X6.8362Y-2.8185
X6.8362Y-2.9406
X6.8362Y-4.0441
X6.8362Y-4.1177
X6.8362Y-4.2398
X6.8362Y-5.3433
X6.8362Y-5.4169
X6.8362Y-5.539
X6.8421Y-2.2469
X6.8421Y-3.5461
X6.8421Y-4.8453
X6.8496Y-2.4528
X6.8496Y-3.752
X6.8496Y-5.0512
X6.852Y-2.1697
X6.852Y-3.4689
X6.852Y-4.7681
X6.8535Y-2.5866
X6.8535Y-2.6961
X6.8535Y-3.8858
X6.8535Y-3.9953
X6.8535Y-5.185
X6.8535Y-5.2945
X6.8559Y-2.7618
X6.8559Y-4.061
X6.8559Y-5.3602
X6.8567Y-2.8358
X6.8567Y-4.135
X6.8567Y-5.4343
X6.8614Y-2.6142
X6.8614Y-3.9134
X6.8614Y-5.2126
X6.8642Y-2.1138
X6.8642Y-2.9484
X6.8642Y-3.413
X6.8642Y-4.2476
X6.8642Y-4.7122
X6.8642Y-5.5469
X6.8657Y-2.0303
X6.8657Y-3.3295
X6.8657Y-4.6287
X6.8685Y-2.7803
X6.8685Y-4.0795
X6.8685Y-5.3787
X6.8728Y-2.2839
X6.8728Y-3.5831
X6.8728Y-4.8823
X6.8732Y-2.5709
X6.8732Y-3.8701
X6.8732Y-5.1693
X6.8748Y-2.4094
X6.8748Y-3.7087
X6.8748Y-5.0079
X6.8752Y-3.1732
X6.8752Y-4.4724
X6.8752Y-5.7717
X6.8768Y-2.3217
X6.8768Y-3.6209
X6.8768Y-4.9201
X6.8776Y-2.6685
X6.8776Y-3.9677
X6.8776Y-5.2669
X6.8843Y-2.8024
X6.8843Y-4.1016
X6.8843Y-5.4008
X6.8874Y-2.1866
X6.8874Y-3.4858
X6.8874Y-4.785
X6.889Y-2.5866
X6.889Y-2.6142
X6.889Y-3.8858
X6.889Y-3.9134
X6.889Y-5.185
X6.889Y-5.2126
X6.8917Y-2.9496
X6.8917Y-4.2488
X6.8917Y-5.548
X6.8969Y-2.5
X6.8969Y-3.7992
X6.8969Y-5.0984
X6.8992Y-2.365
X6.8992Y-3.6642
X6.8992Y-4.9634
X6.9059Y-2.8248
X6.9059Y-4.124
X6.9059Y-5.4232
X6.9087Y-2.5984
X6.9087Y-3.8976
X6.9087Y-5.1969
X6.9126Y-2.5157
X6.9126Y-3.815
X6.9126Y-5.1142
X6.9165Y-2.2957
X6.9165Y-2.9504
X6.9165Y-3.5949
X6.9165Y-4.2496
X6.9165Y-4.8941
X6.9165Y-5.5488
X6.9234Y-2.6142
X6.9234Y-3.9134
X6.9234Y-5.2126
X6.924Y-2.1661
X6.924Y-3.4654
X6.924Y-4.7646
X6.9248Y-2.424
X6.9248Y-3.7232
X6.9248Y-5.0224
X6.9256Y-2.8461
X6.9256Y-4.1453
X6.9256Y-5.4445
X6.9283Y-2.5315
X6.9283Y-3.8307
X6.9283Y-5.1299
X6.9321Y-2.6732
X6.9321Y-3.9724
X6.9321Y-5.2717
X6.9343Y-2.0315
X6.9343Y-3.1732
X6.9343Y-3.3307
X6.9343Y-4.4724
X6.9343Y-4.6299
X6.9343Y-5.7717
X6.9394Y-2.9299
X6.9394Y-4.2291
X6.9394Y-5.5283
X6.9406Y-2.8701
X6.9406Y-4.1693
X6.9406Y-5.4685
X6.9413Y-2.8984
X6.9413Y-4.1976
X6.9413Y-5.4969
X6.9429Y-2.3201
X6.9429Y-3.6193
X6.9429Y-4.9185
X6.9472Y-2.3752
X6.9472Y-3.6744
X6.9472Y-4.9736
X6.948Y-2.6142
X6.948Y-3.9134
X6.948Y-5.2126
X6.9496Y-2.4791
X6.9496Y-3.7783
X6.9496Y-5.0776
X6.9557Y-2.0965
X6.9557Y-3.3957
X6.9557Y-4.6949
X6.9564Y-2.0406
X6.9564Y-3.3398
X6.9564Y-4.639
X6.9575Y-2.4311
X6.9575Y-3.7303
X6.9575Y-5.0295
X6.9689Y-2.985
X6.9689Y-4.2843
X6.9689Y-5.5835
X6.9711Y-2.0585
X6.9711Y-3.3577
X6.9711Y-4.6569
X6.9732Y-3.0677
X6.9732Y-4.3669
X6.9732Y-5.6661
X6.9756Y-2.5669
X6.9756Y-3.8661
X6.9756Y-5.1654
X6.9774Y-3.1703
X6.9774Y-4.4695
X6.9774Y-5.7687
X6.9874Y-2.4331
X6.9874Y-3.7323
X6.9874Y-5.0315
X6.9892Y-2.8917
X6.9892Y-4.1909
X6.9892Y-5.4902
X6.9894Y-2.6663
X6.9894Y-3.9656
X6.9894Y-5.2648
X6.9929Y-2.915
X6.9929Y-4.2142
X6.9929Y-5.5134
X6.9969Y-2.4854
X6.9969Y-3.7846
X6.9969Y-5.0839
X7.0Y-2.4132
X7.0Y-3.7125
X7.0Y-5.0117
X7.0026Y-2.4552
X7.0026Y-3.7545
X7.0026Y-5.0537
X7.0039Y-2.5197
X7.0039Y-3.8189
X7.0039Y-5.1181
X7.0146Y-2.2894
X7.0146Y-3.5886
X7.0146Y-4.8878
X7.0188Y-2.3818
X7.0188Y-3.681
X7.0188Y-4.9802
X7.0268Y-3.0551
X7.0268Y-4.3543
X7.0268Y-5.6535
X7.0307Y-2.5551
X7.0307Y-3.8543
X7.0307Y-5.1535
X7.0323Y-2.0272
X7.0323Y-3.3264
X7.0323Y-4.6256
X7.0346Y-2.4882
X7.0346Y-3.7874
X7.0346Y-5.0866
X7.0386Y-2.685
X7.0386Y-3.9843
X7.0386Y-5.2835
X7.0508Y-2.148
X7.0508Y-3.4472
X7.0508Y-4.7465
X7.0583Y-2.2555
X7.0583Y-3.5547
X7.0583Y-4.8539
X7.0614Y-2.0492
X7.0614Y-3.3484
X7.0614Y-4.6476
X7.0622Y-2.0984
X7.0622Y-3.3976
X7.0622Y-4.6969
X7.0656Y-3.0768
X7.0656Y-4.376
X7.0656Y-5.6752
X7.0671Y-2.2881
X7.0671Y-3.5873
X7.0671Y-4.8865
X7.072Y-3.1634
X7.072Y-4.4626
X7.072Y-5.7618
X7.073Y-2.5669
X7.073Y-3.8661
X7.073Y-5.1654
X7.074Y-2.7318
X7.074Y-4.031
X7.074Y-5.3303
X7.0765Y-2.7556
X7.0765Y-4.0548
X7.0765Y-5.354
X7.0795Y-2.239
X7.0795Y-3.5382
X7.0795Y-4.8374
X7.0863Y-2.3595
X7.0863Y-3.6587
X7.0863Y-4.9579
X7.0929Y-2.1661
X7.0929Y-3.4654
X7.0929Y-4.7646
X7.1004Y-2.3407
X7.1004Y-3.6399
X7.1004Y-4.9391
X7.1122Y-2.9203
X7.1122Y-4.2195
X7.1122Y-5.5187
X7.1163Y-2.8171
X7.1163Y-4.1164
X7.1163Y-5.4156
X7.124Y-2.9596
X7.124Y-4.2589
X7.124Y-5.5581
X7.1339Y-2.9113
X7.1339Y-4.2105
X7.1339Y-5.5097
X7.135Y-2.5311
X7.135Y-3.8304
X7.135Y-5.1296
X7.1382Y-2.3346
X7.1382Y-3.6339
X7.1382Y-4.9331
X7.1488Y-2.2598
X7.1488Y-3.5591
X7.1488Y-4.8583
X7.1555Y-2.9203
X7.1555Y-4.2195
X7.1555Y-5.5187
X7.1567Y-2.2323
X7.1567Y-3.5315
X7.1567Y-4.8307
X7.1583Y-2.461
X7.1583Y-3.7602
X7.1583Y-5.0594
X7.1646Y-3.0551
X7.1646Y-4.3543
X7.1646Y-5.6535
X7.1661Y-2.2929
X7.1661Y-3.5921
X7.1661Y-4.8913
X7.1679Y-2.8627
X7.1679Y-4.1619
X7.1679Y-5.4611
X7.1681Y-2.0495
X7.1681Y-3.3488
X7.1681Y-4.648
X7.1705Y-3.1634
X7.1705Y-4.4626
X7.1705Y-5.7618
X7.1744Y-2.0272
X7.1744Y-3.3264
X7.1744Y-4.6256
X7.1764Y-2.6181
X7.1764Y-3.9173
X7.1764Y-5.2165
X7.1791Y-3.0909
X7.1791Y-4.3901
X7.1791Y-5.6893
X7.1806Y-2.764
X7.1806Y-4.0633
X7.1806Y-5.3625
X7.1807Y-2.0949
X7.1807Y-3.3941
X7.1807Y-4.6933
X7.1821Y-2.2441
X7.1821Y-3.5433
X7.1821Y-4.8425
X7.1867Y-2.3643
X7.1867Y-3.6635
X7.1867Y-4.9627
X7.1882Y-2.3976
X7.1882Y-3.6969
X7.1882Y-4.9961
X7.1895Y-2.8873
X7.1895Y-4.1865
X7.1895Y-5.4857
X7.1961Y-3.0648
X7.1961Y-4.364
X7.1961Y-5.6633
X7.2011Y-2.9062
X7.2011Y-4.2055
X7.2011Y-5.5047
X7.2033Y-2.5275
X7.2033Y-3.8268
X7.2033Y-5.126
X7.2108Y-2.0335
X7.2108Y-3.3327
X7.2108Y-4.6319
X7.2176Y-2.9615
X7.2176Y-4.2607
X7.2176Y-5.5599
X7.2205Y-2.811
X7.2205Y-4.1102
X7.2205Y-5.4094
X7.2227Y-2.4685
X7.2227Y-3.7678
X7.2227Y-5.067
X7.2246Y-2.5184
X7.2246Y-3.8176
X7.2246Y-5.1168
X7.2268Y-2.3658
X7.2268Y-3.665
X7.2268Y-4.9642
X7.2286Y-2.3965
X7.2286Y-3.6957
X7.2286Y-4.9949
X7.25Y-3.1378
X7.25Y-4.437
X7.25Y-5.7362
X7.2507Y-2.9843
X7.2507Y-4.2835
X7.2507Y-5.5827
X7.2522Y-2.9577
X7.2522Y-4.2569
X7.2522Y-5.5561
X7.2531Y-2.8665
X7.2531Y-4.1657
X7.2531Y-5.465
X7.2539Y-2.0561
X7.2539Y-3.3553
X7.2539Y-4.6545
X7.2547Y-2.1634
X7.2547Y-3.4626
X7.2547Y-4.7618
X7.2576Y-2.2881
X7.2576Y-3.5873
X7.2576Y-4.8865
X7.2591Y-3.0866
X7.2591Y-4.3858
X7.2591Y-5.685
X7.2657Y-2.3917
X7.2657Y-3.6909
X7.2657Y-4.9902
X7.2671Y-3.0477
X7.2671Y-4.3469
X7.2671Y-5.6461
X7.2689Y-3.1634
X7.2689Y-4.4626
X7.2689Y-5.7618
X7.2693Y-2.3559
X7.2693Y-3.6551
X7.2693Y-4.9543
X7.271Y-2.3278
X7.271Y-3.627
X7.271Y-4.9262
X7.2731Y-2.4838
X7.2731Y-3.7831
X7.2731Y-5.0823
X7.2744Y-2.0854
X7.2744Y-3.3846
X7.2744Y-4.6839
X7.2764Y-2.2051
X7.2764Y-3.5043
X7.2764Y-4.8035
X7.278Y-2.1394
X7.278Y-2.8657
X7.278Y-3.4386
X7.278Y-4.165
X7.278Y-4.7378
X7.278Y-5.4642
X7.2847Y-2.248
X7.2847Y-3.5472
X7.2847Y-4.8465
X7.2866Y-2.9291
X7.2866Y-4.2283
X7.2866Y-5.5276
X7.2904Y-2.1083
X7.2904Y-3.4075
X7.2904Y-4.7067
X7.2906Y-3.0079
X7.2906Y-4.3071
X7.2906Y-5.6063
X7.3012Y-2.0283
X7.3012Y-3.3276
X7.3012Y-4.6268
X7.3039Y-2.8601
X7.3039Y-4.1594
X7.3039Y-5.4586
X7.305Y-2.492
X7.305Y-3.7912
X7.305Y-5.0904
X7.315Y-2.185
X7.315Y-3.4843
X7.315Y-4.7835
X7.3181Y-2.815
X7.3181Y-4.1142
X7.3181Y-5.4134
X7.3201Y-3.0657
X7.3201Y-4.365
X7.3201Y-5.6642
X7.322Y-2.0425
X7.322Y-2.7638
X7.322Y-3.3417
X7.322Y-4.063
X7.322Y-4.6409
X7.322Y-5.3622
X7.3373Y-2.3858
X7.3373Y-3.685
X7.3373Y-4.9842
X7.3378Y-2.5079
X7.3378Y-3.8071
X7.3378Y-5.1063
X7.3531Y-3.0811
X7.3531Y-4.3803
X7.3531Y-5.6795
X7.3637Y-3.0509
X7.3637Y-4.3501
X7.3637Y-5.6493
X7.3642Y-3.1506
X7.3642Y-4.4498
X7.3642Y-5.749
X7.3654Y-2.2531
X7.3654Y-3.5524
X7.3654Y-4.8516
X7.3657Y-2.2031
X7.3657Y-3.5024
X7.3657Y-4.8016
X7.366Y-2.742
X7.366Y-4.0412
X7.366Y-5.3404
X7.3669Y-2.3976
X7.3669Y-3.6969
X7.3669Y-4.9961
X7.3671Y-2.686
X7.3671Y-3.9852
X7.3671Y-5.2844
X7.3685Y-2.3362
X7.3685Y-3.6354
X7.3685Y-4.9346
X7.3701Y-2.5325
X7.3701Y-3.8317
X7.3701Y-5.1309
X7.3744Y-2.1449
X7.3744Y-3.4441
X7.3744Y-4.7433
X7.375Y-2.8297
X7.375Y-4.1289
X7.375Y-5.4281
X7.3819Y-2.4157
X7.3819Y-3.715
X7.3819Y-5.0142
X7.3839Y-2.561
X7.3839Y-3.8602
X7.3839Y-5.1594
X7.3855Y-2.6453
X7.3855Y-3.9446
X7.3855Y-5.2438
X7.3862Y-2.265
X7.3862Y-3.5642
X7.3862Y-4.8634
X7.3925Y-2.5118
X7.3925Y-3.811
X7.3925Y-5.1102
X7.3961Y-2.4543
X7.3961Y-3.7535
X7.3961Y-5.0527
X7.3986Y-2.8189
X7.3986Y-4.1181
X7.3986Y-5.4173
X7.4063Y-3.1187
X7.4063Y-4.4179
X7.4063Y-5.7171
X7.408Y-2.7639
X7.408Y-4.0631
X7.408Y-5.3623
X7.4081Y-2.6623
X7.4081Y-3.9616
X7.4081Y-5.2608
X7.4102Y-2.7026
X7.4102Y-4.0018
X7.4102Y-5.301
X7.4134Y-2.7864
X7.4134Y-4.0856
X7.4134Y-5.3848
X7.4137Y-2.0473
X7.4137Y-3.3465
X7.4137Y-4.6457
X7.4144Y-2.7254
X7.4144Y-4.0246
X7.4144Y-5.3238
X7.4145Y-2.9362
X7.4145Y-4.2354
X7.4145Y-5.5346
X7.419Y-2.6221
X7.419Y-3.9213
X7.419Y-5.2205
X7.4232Y-2.188
X7.4232Y-3.4872
X7.4232Y-4.7864
X7.4267Y-2.5981
X7.4267Y-3.8973
X7.4267Y-5.1965
X7.4311Y-2.3925
X7.4311Y-3.6917
X7.4311Y-4.9909
X7.4327Y-2.0303
X7.4327Y-3.3295
X7.4327Y-4.6287
X7.4333Y-2.4605
X7.4333Y-3.7597
X7.4333Y-5.0589
X7.4341Y-2.7441
X7.4341Y-4.0433
X7.4341Y-5.3425
X7.435Y-2.679
X7.435Y-3.9783
X7.435Y-5.2775
X7.4537Y-2.8642
X7.4537Y-4.1634
X7.4537Y-5.4626
X7.4639Y-2.1053
X7.4639Y-3.4045
X7.4639Y-4.7037
X7.4652Y-2.6787
X7.4652Y-3.9779
X7.4652Y-5.2771
X7.4661Y-3.0146
X7.4661Y-4.3138
X7.4661Y-5.613
X7.4695Y-3.1516
X7.4695Y-4.4508
X7.4695Y-5.75
X7.4715Y-2.9124
X7.4715Y-4.2116
X7.4715Y-5.5108
X7.4844Y-2.2874
X7.4844Y-3.5866
X7.4844Y-4.8858
X7.485Y-2.3523
X7.485Y-3.6515
X7.485Y-4.9507
X7.4854Y-2.4224
X7.4854Y-3.7217
X7.4854Y-5.0209
X7.4882Y-2.6817
X7.4882Y-3.981
X7.4882Y-5.2802
X7.4909Y-2.5616
X7.4909Y-3.8608
X7.4909Y-5.16
X7.4917Y-2.7913
X7.4917Y-4.0906
X7.4917Y-5.3898
X7.4918Y-2.6058
X7.4918Y-3.905
X7.4918Y-5.2042
X7.5031Y-2.9606
X7.5031Y-4.2598
X7.5031Y-5.5591
X7.5075Y-2.7012
X7.5075Y-4.0004
X7.5075Y-5.2997
X7.5187Y-2.1683
X7.5187Y-3.4675
X7.5187Y-4.7667
X7.5189Y-2.8622
X7.5189Y-4.1614
X7.5189Y-5.4606
X7.5215Y-2.8236
X7.5215Y-4.1228
X7.5215Y-5.422
X7.5232Y-2.7437
X7.5232Y-4.0429
X7.5232Y-5.3421
X7.5238Y-2.6557
X7.5238Y-3.9549
X7.5238Y-5.2542
X7.5244Y-2.435
X7.5244Y-3.7343
X7.5244Y-5.0335
X7.5358Y-2.5832
X7.5358Y-3.8824
X7.5358Y-5.1816
X7.5362Y-2.0317
X7.5362Y-3.3309
X7.5362Y-4.6301
X7.5441Y-2.3591
X7.5441Y-3.6583
X7.5441Y-4.9575
X7.5509Y-2.2118
X7.5509Y-3.511
X7.5509Y-4.8102
X7.5539Y-2.9923
X7.5539Y-4.2915
X7.5539Y-5.5907
X7.5594Y-2.0315
X7.5594Y-3.3307
X7.5594Y-4.6299
X7.56Y-2.1053
X7.56Y-3.4045
X7.56Y-4.7037
X7.5609Y-2.9701
X7.5609Y-4.2694
X7.5609Y-5.5686
X7.5654Y-3.148
X7.5654Y-4.4472
X7.5654Y-5.7465
X7.5696Y-2.8419
X7.5696Y-4.1411
X7.5696Y-5.4404
X7.5697Y-2.4567
X7.5697Y-3.7559
X7.5697Y-5.0551
X7.5819Y-2.6929
X7.5819Y-3.9921
X7.5819Y-5.2913
X7.5829Y-2.0605
X7.5829Y-3.3597
X7.5829Y-4.6589
X7.5832Y-2.7427
X7.5832Y-4.0419
X7.5832Y-5.3411
X7.5835Y-3.1786
X7.5835Y-4.4778
X7.5835Y-5.777
X7.5837Y-2.9442
X7.5837Y-4.2434
X7.5837Y-5.5426
X7.5838Y-2.5694
X7.5838Y-3.8687
X7.5838Y-5.1679
X7.5846Y-2.513
X7.5846Y-3.8122
X7.5846Y-5.1114
X7.5847Y-3.0041
X7.5847Y-4.3034
X7.5847Y-5.6026
X7.5937Y-2.1693
X7.5937Y-3.4685
X7.5937Y-4.7677
X7.6101Y-2.5762
X7.6101Y-3.8754
X7.6101Y-5.1746
X7.6142Y-2.7931
X7.6142Y-4.0923
X7.6142Y-5.3915
X7.6174Y-2.5477
X7.6174Y-3.8469
X7.6174Y-5.1461
X7.622Y-2.8461
X7.622Y-4.1453
X7.622Y-5.4445
X7.6303Y-2.4323
X7.6303Y-3.7315
X7.6303Y-5.0307
X7.6488Y-2.2874
X7.6488Y-3.5866
X7.6488Y-4.8858
X7.6493Y-2.6821
X7.6493Y-3.9813
X7.6493Y-5.2805
X7.657Y-2.0311
X7.657Y-3.3303
X7.657Y-4.6295
X7.6577Y-3.035
X7.6577Y-4.3343
X7.6577Y-5.6335
X7.6624Y-2.9931
X7.6624Y-4.2923
X7.6624Y-5.5915
X7.6646Y-2.0945
X7.6646Y-2.2441
X7.6646Y-3.3937
X7.6646Y-3.5433
X7.6646Y-4.6929
X7.6646Y-4.8425
X7.6697Y-2.6949
X7.6697Y-3.9941
X7.6697Y-5.2933
X7.6756Y-3.1099
X7.6756Y-4.4091
X7.6756Y-5.7083
X7.6772Y-2.5842
X7.6772Y-3.8834
X7.6772Y-5.1826
X7.6835Y-2.2827
X7.6835Y-3.5819
X7.6835Y-4.8811
X7.6941Y-2.9291
X7.6941Y-4.2283
X7.6941Y-5.5276
X7.6961Y-2.1972
X7.6961Y-3.4965
X7.6961Y-4.7957
X7.698Y-2.0364
X7.698Y-3.3356
X7.698Y-4.6348
X7.7047Y-2.2835
X7.7047Y-3.5827
X7.7047Y-4.8819
X7.7079Y-2.248
X7.7079Y-3.5472
X7.7079Y-4.8465
X7.711Y-3.1284
X7.711Y-4.4276
X7.711Y-5.7268
X7.7164Y-3.0203
X7.7164Y-4.3196
X7.7164Y-5.6188
X7.7169Y-2.3882
X7.7169Y-3.6874
X7.7169Y-4.9866
X7.7195Y-2.3012
X7.7195Y-3.6004
X7.7195Y-4.8996
X7.7327Y-2.1244
X7.7327Y-3.4236
X7.7327Y-4.7228
X7.7349Y-2.6216
X7.7349Y-3.9208
X7.7349Y-5.22
X7.7394Y-2.0768
X7.7394Y-3.376
X7.7394Y-4.6752
X7.7453Y-3.1622
X7.7453Y-4.4614
X7.7453Y-5.7606
X7.7484Y-3.0622
X7.7484Y-4.3614
X7.7484Y-5.6606
X7.7512Y-2.7992
X7.7512Y-2.8878
X7.7512Y-4.0984
X7.7512Y-4.187
X7.7512Y-5.3976
X7.7512Y-5.4862
X7.7669Y-2.9173
X7.7669Y-4.2165
X7.7669Y-5.5157
X7.7685Y-2.6862
X7.7685Y-3.9854
X7.7685Y-5.2846
X7.7743Y-2.5016
X7.7743Y-3.8008
X7.7743Y-5.1
X7.7748Y-3.1339
X7.7748Y-4.4331
X7.7748Y-5.7323
X7.7787Y-3.0276
X7.7787Y-4.3268
X7.7787Y-5.626
X7.8039Y-2.3268
X7.8039Y-3.626
X7.8039Y-4.9252
X7.8142Y-2.8898
X7.8142Y-4.189
X7.8142Y-5.4882
X7.8151Y-2.6862
X7.8151Y-3.9854
X7.8151Y-5.2846
X7.8232Y-2.2756
X7.8232Y-3.5748
X7.8232Y-4.874
X7.8239Y-2.6136
X7.8239Y-3.9128
X7.8239Y-5.212
X7.8266Y-2.4731
X7.8266Y-3.7723
X7.8266Y-5.0715
X7.8308Y-2.9741
X7.8308Y-4.2733
X7.8308Y-5.5725
X7.8341Y-2.6359
X7.8341Y-3.9351
X7.8341Y-5.2344
X7.8358Y-2.7146
X7.8358Y-4.0138
X7.8358Y-5.313
X7.8472Y-3.0039
X7.8472Y-4.3031
X7.8472Y-5.6024
X7.8496Y-3.1732
X7.8496Y-4.4724
X7.8496Y-5.7717
X7.8514Y-2.4744
X7.8514Y-3.7736
X7.8514Y-5.0728
X7.8516Y-2.572
X7.8516Y-3.8713
X7.8516Y-5.1705
X7.8536Y-2.3018
X7.8536Y-3.6011
X7.8536Y-4.9003
X7.8594Y-2.8819
X7.8594Y-4.1811
X7.8594Y-5.4803
X7.8647Y-2.9173
X7.8647Y-4.2165
X7.8647Y-5.5157
X7.8665Y-2.6193
X7.8665Y-3.9185
X7.8665Y-5.2177
X7.8697Y-2.2819
X7.8697Y-3.5811
X7.8697Y-4.8803
X7.8873Y-2.59
X7.8873Y-3.8892
X7.8873Y-5.1884
X7.9087Y-2.7205
X7.9087Y-2.7992
X7.9087Y-2.8878
X7.9087Y-4.0197
X7.9087Y-4.0984
X7.9087Y-4.187
X7.9087Y-5.3189
X7.9087Y-5.3976
X7.9087Y-5.4862
X7.9325Y-2.6209
X7.9325Y-3.9201
X7.9325Y-5.2193
X7.9339Y-2.311
X7.9339Y-3.6102
X7.9339Y-4.9094
X7.9457Y-2.5098
X7.9457Y-3.8091
X7.9457Y-5.1083
X7.9803Y-2.628
X7.9803Y-3.9272
X7.9803Y-5.2264
X7.9989Y-2.872
X7.9989Y-2.872
X7.9989Y-4.1713
X7.9989Y-4.1713
X7.9989Y-5.4705
X7.9989Y-5.4705
X8.0008Y-3.0016
X8.0008Y-4.3008
X8.0008Y-5.6
X8.0071Y-2.7579
X8.0071Y-3.1732
X8.0071Y-4.0571
X8.0071Y-4.4724
X8.0071Y-5.3563
X8.0071Y-5.7717
X8.0124Y-3.022
X8.0124Y-4.3213
X8.0124Y-5.6205
X8.1614Y-2.7126
X8.1614Y-4.0118
X8.1614Y-5.311
X8.1624Y-2.688
X8.1624Y-3.9872
X8.1624Y-5.2864
X8.1646Y-2.0315
X8.1646Y-2.189
X8.1646Y-2.2382
X8.1646Y-2.2874
X8.1646Y-2.3465
X8.1646Y-2.4055
X8.1646Y-2.7795
X8.1646Y-2.8287
X8.1646Y-2.8976
X8.1646Y-2.9567
X8.1646Y-3.0157
X8.1646Y-3.1732
X8.1646Y-3.3307
X8.1646Y-3.4882
X8.1646Y-3.5374
X8.1646Y-3.5866
X8.1646Y-3.6457
X8.1646Y-3.7047
X8.1646Y-4.0787
X8.1646Y-4.128
X8.1646Y-4.1969
X8.1646Y-4.2559
X8.1646Y-4.315
X8.1646Y-4.4724
X8.1646Y-4.6299
X8.1646Y-4.7874
X8.1646Y-4.8366
X8.1646Y-4.8858
X8.1646Y-4.9449
X8.1646Y-5.0039
X8.1646Y-5.378
X8.1646Y-5.4272
X8.1646Y-5.4961
X8.1646Y-5.5551
X8.1646Y-5.6142
X8.1646Y-5.7717
X8.1685Y-2.7362
X8.1685Y-4.0354
X8.1685Y-5.3346
X8.1961Y-2.7362
X8.1961Y-4.0354
X8.1961Y-5.3346
X8.1998Y-2.686
X8.1998Y-3.9852
X8.1998Y-5.2844
X8.2016Y-2.8476
X8.2016Y-4.1469
X8.2016Y-5.4461
X8.2059Y-2.8177
X8.2059Y-4.1169
X8.2059Y-5.4161
X8.2118Y-2.7598
X8.2118Y-2.7874
X8.2118Y-4.0591
X8.2118Y-4.0866
X8.2118Y-5.3583
X8.2118Y-5.3858
X8.2157Y-2.4055
X8.2157Y-2.8846
X8.2157Y-3.7047
X8.2157Y-4.1839
X8.2157Y-5.0039
X8.2157Y-5.4831
X8.2254Y-2.685
X8.2254Y-3.9843
X8.2254Y-5.2835
X8.2276Y-2.7362
X8.2276Y-4.0354
X8.2276Y-5.3346
X8.2354Y-2.4185
X8.2354Y-3.7177
X8.2354Y-5.0169
X8.2398Y-2.8878
X8.2398Y-4.187
X8.2398Y-5.4862
X8.25Y-2.4331
X8.25Y-3.7323
X8.25Y-5.0315
X8.2606Y-2.8827
X8.2606Y-4.1819
X8.2606Y-5.4811
X8.263Y-2.4724
X8.263Y-2.5079
X8.263Y-2.5433
X8.263Y-2.6654
X8.263Y-3.7717
X8.263Y-3.8071
X8.263Y-3.8425
X8.263Y-3.9646
X8.263Y-5.0709
X8.263Y-5.1063
X8.263Y-5.1417
X8.263Y-5.2638
X8.2638Y-2.5945
X8.2638Y-3.8937
X8.2638Y-5.1929
X8.2667Y-2.6358
X8.2667Y-3.935
X8.2667Y-5.2343
X8.2701Y-2.7909
X8.2701Y-4.0902
X8.2701Y-5.3894
X8.2713Y-2.7669
X8.2713Y-4.0661
X8.2713Y-5.3654
X8.2744Y-2.8213
X8.2744Y-4.1205
X8.2744Y-5.4197
X8.2768Y-2.8476
X8.2768Y-4.1469
X8.2768Y-5.4461
X8.2827Y-2.3858
X8.2827Y-3.685
X8.2827Y-4.9843
X8.2835Y-2.5827
X8.2835Y-3.8819
X8.2835Y-5.1811
X8.2866Y-2.4843
X8.2866Y-3.7835
X8.2866Y-5.0827
X8.2902Y-2.7874
X8.2902Y-4.0866
X8.2902Y-5.3858
X8.2913Y-2.563
X8.2913Y-3.8622
X8.2913Y-5.1614
X8.2945Y-2.4055
X8.2945Y-3.7047
X8.2945Y-5.0039
X8.2953Y-2.6339
X8.2953Y-3.9331
X8.2953Y-5.2323
X8.3063Y-2.5039
X8.3063Y-2.5433
X8.3063Y-3.8031
X8.3063Y-3.8425
X8.3063Y-5.1024
X8.3063Y-5.1417
X8.3094Y-2.8051
X8.3094Y-4.1043
X8.3094Y-5.4035
X8.313Y-2.2075
X8.313Y-3.5067
X8.313Y-4.8059
X8.3142Y-2.4213
X8.3142Y-3.7205
X8.3142Y-5.0197
X8.322Y-2.0315
X8.322Y-3.1732
X8.322Y-3.3307
X8.322Y-4.4724
X8.322Y-4.6299
X8.322Y-5.7717
X8.326Y-2.5236
X8.326Y-3.8228
X8.326Y-5.122
X8.3283Y-2.7173
X8.3283Y-4.0165
X8.3283Y-5.3157
X8.3291Y-2.8472
X8.3291Y-4.1465
X8.3291Y-5.4457
X8.3299Y-2.437
X8.3299Y-3.7362
X8.3299Y-5.0354
X8.3303Y-2.9094
X8.3303Y-4.2087
X8.3303Y-5.5079
X8.3311Y-2.8776
X8.3311Y-4.1768
X8.3311Y-5.476
X8.3323Y-2.7449
X8.3323Y-2.8185
X8.3323Y-2.9406
X8.3323Y-4.0441
X8.3323Y-4.1177
X8.3323Y-4.2398
X8.3323Y-5.3433
X8.3323Y-5.4169
X8.3323Y-5.539
X8.3382Y-2.2469
X8.3382Y-3.5461
X8.3382Y-4.8453
X8.3457Y-2.4528
X8.3457Y-3.752
X8.3457Y-5.0512
X8.348Y-2.1697
X8.348Y-3.4689
X8.348Y-4.7681
X8.3496Y-2.5866
X8.3496Y-2.6961
X8.3496Y-3.8858
X8.3496Y-3.9953
X8.3496Y-5.185
X8.3496Y-5.2945
X8.352Y-2.7618
X8.352Y-4.061
X8.352Y-5.3602
X8.3528Y-2.8358
X8.3528Y-4.135
X8.3528Y-5.4343
X8.3575Y-2.6142
X8.3575Y-3.9134
X8.3575Y-5.2126
X8.3602Y-2.1138
X8.3602Y-2.9484
X8.3602Y-3.413
X8.3602Y-4.2476
X8.3602Y-4.7122
X8.3602Y-5.5469
X8.3618Y-2.0303
X8.3618Y-3.3295
X8.3618Y-4.6287
X8.3646Y-2.7803
X8.3646Y-4.0795
X8.3646Y-5.3787
X8.3689Y-2.2839
X8.3689Y-3.5831
X8.3689Y-4.8823
X8.3693Y-2.5709
X8.3693Y-3.8701
X8.3693Y-5.1693
X8.3709Y-2.4094
X8.3709Y-3.7087
X8.3709Y-5.0079
X8.3713Y-3.1732
X8.3713Y-4.4724
X8.3713Y-5.7717
X8.3728Y-2.3217
X8.3728Y-3.6209
X8.3728Y-4.9201
X8.3736Y-2.6685
X8.3736Y-3.9677
X8.3736Y-5.2669
X8.3803Y-2.8024
X8.3803Y-4.1016
X8.3803Y-5.4008
X8.3835Y-2.1866
X8.3835Y-3.4858
X8.3835Y-4.785
X8.385Y-2.5866
X8.385Y-2.6142
X8.385Y-3.8858
X8.385Y-3.9134
X8.385Y-5.185
X8.385Y-5.2126
X8.3878Y-2.9496
X8.3878Y-4.2488
X8.3878Y-5.548
X8.3929Y-2.5
X8.3929Y-3.7992
X8.3929Y-5.0984
X8.3953Y-2.365
X8.3953Y-3.6642
X8.3953Y-4.9634
X8.402Y-2.8248
X8.402Y-4.124
X8.402Y-5.4232
X8.4047Y-2.5984
X8.4047Y-3.8976
X8.4047Y-5.1969
X8.4087Y-2.5157
X8.4087Y-3.815
X8.4087Y-5.1142
X8.4126Y-2.2957
X8.4126Y-2.9504
X8.4126Y-3.5949
X8.4126Y-4.2496
X8.4126Y-4.8941
X8.4126Y-5.5488
X8.4195Y-2.6142
X8.4195Y-3.9134
X8.4195Y-5.2126
X8.4201Y-2.1661
X8.4201Y-3.4654
X8.4201Y-4.7646
X8.4209Y-2.424
X8.4209Y-3.7232
X8.4209Y-5.0224
X8.4217Y-2.8461
X8.4217Y-4.1453
X8.4217Y-5.4445
X8.4244Y-2.5315
X8.4244Y-3.8307
X8.4244Y-5.1299
X8.4281Y-2.6732
X8.4281Y-3.9724
X8.4281Y-5.2717
X8.4303Y-2.0315
X8.4303Y-3.1732
X8.4303Y-3.3307
X8.4303Y-4.4724
X8.4303Y-4.6299
X8.4303Y-5.7717
X8.4354Y-2.9299
X8.4354Y-4.2291
X8.4354Y-5.5283
X8.4366Y-2.8701
X8.4366Y-4.1693
X8.4366Y-5.4685
X8.4374Y-2.8984
X8.4374Y-4.1976
X8.4374Y-5.4969
X8.439Y-2.3201
X8.439Y-3.6193
X8.439Y-4.9185
X8.4433Y-2.3752
X8.4433Y-3.6744
X8.4433Y-4.9736
X8.4441Y-2.6142
X8.4441Y-3.9134
X8.4441Y-5.2126
X8.4457Y-2.4791
X8.4457Y-3.7783
X8.4457Y-5.0776
X8.4518Y-2.0965
X8.4518Y-3.3957
X8.4518Y-4.6949
X8.4525Y-2.0406
X8.4525Y-3.3398
X8.4525Y-4.639
X8.4535Y-2.4311
X8.4535Y-3.7303
X8.4535Y-5.0295
X8.465Y-2.985
X8.465Y-4.2843
X8.465Y-5.5835
X8.4672Y-2.0585
X8.4672Y-3.3577
X8.4672Y-4.6569
X8.4693Y-3.0677
X8.4693Y-4.3669
X8.4693Y-5.6661
X8.4717Y-2.5669
X8.4717Y-3.8661
X8.4717Y-5.1654
X8.4734Y-3.1703
X8.4734Y-4.4695
X8.4734Y-5.7687
X8.4835Y-2.4331
X8.4835Y-3.7323
X8.4835Y-5.0315
X8.4852Y-2.8917
X8.4852Y-4.1909
X8.4852Y-5.4902
X8.4854Y-2.6663
X8.4854Y-3.9656
X8.4854Y-5.2648
X8.489Y-2.915
X8.489Y-4.2142
X8.489Y-5.5134
X8.4929Y-2.4854
X8.4929Y-3.7846
X8.4929Y-5.0839
X8.496Y-2.4132
X8.496Y-3.7125
X8.496Y-5.0117
X8.4987Y-2.4552
X8.4987Y-3.7545
X8.4987Y-5.0537
X8.5Y-2.5197
X8.5Y-3.8189
X8.5Y-5.1181
X8.5106Y-2.2894
X8.5106Y-3.5886
X8.5106Y-4.8878
X8.5149Y-2.3818
X8.5149Y-3.681
X8.5149Y-4.9802
X8.5228Y-3.0551
X8.5228Y-4.3543
X8.5228Y-5.6535
X8.5268Y-2.5551
X8.5268Y-3.8543
X8.5268Y-5.1535
X8.5283Y-2.0272
X8.5283Y-3.3264
X8.5283Y-4.6256
X8.5307Y-2.4882
X8.5307Y-3.7874
X8.5307Y-5.0866
X8.5346Y-2.685
X8.5346Y-3.9843
X8.5346Y-5.2835
X8.5469Y-2.148
X8.5469Y-3.4472
X8.5469Y-4.7465
X8.5543Y-2.2555
X8.5543Y-3.5547
X8.5543Y-4.8539
X8.5575Y-2.0492
X8.5575Y-3.3484
X8.5575Y-4.6476
X8.5583Y-2.0984
X8.5583Y-3.3976
X8.5583Y-4.6969
X8.5617Y-3.0768
X8.5617Y-4.376
X8.5617Y-5.6752
X8.5632Y-2.2881
X8.5632Y-3.5873
X8.5632Y-4.8865
X8.5681Y-3.1634
X8.5681Y-4.4626
X8.5681Y-5.7618
X8.5691Y-2.5669
X8.5691Y-3.8661
X8.5691Y-5.1654
X8.5701Y-2.7318
X8.5701Y-4.031
X8.5701Y-5.3303
X8.5725Y-2.7556
X8.5725Y-4.0548
X8.5725Y-5.354
X8.5756Y-2.239
X8.5756Y-3.5382
X8.5756Y-4.8374
X8.5824Y-2.3595
X8.5824Y-3.6587
X8.5824Y-4.9579
X8.589Y-2.1661
X8.589Y-3.4654
X8.589Y-4.7646
X8.5965Y-2.3407
X8.5965Y-3.6399
X8.5965Y-4.9391
X8.6083Y-2.9203
X8.6083Y-4.2195
X8.6083Y-5.5187
X8.6123Y-2.8171
X8.6123Y-4.1164
X8.6123Y-5.4156
X8.6201Y-2.9596
X8.6201Y-4.2589
X8.6201Y-5.5581
X8.6299Y-2.9113
X8.6299Y-4.2105
X8.6299Y-5.5097
X8.6311Y-2.5311
X8.6311Y-3.8304
X8.6311Y-5.1296
X8.6343Y-2.3346
X8.6343Y-3.6339
X8.6343Y-4.9331
X8.6449Y-2.2598
X8.6449Y-3.5591
X8.6449Y-4.8583
X8.6516Y-2.9203
X8.6516Y-4.2195
X8.6516Y-5.5187
X8.6528Y-2.2323
X8.6528Y-3.5315
X8.6528Y-4.8307
X8.6543Y-2.461
X8.6543Y-3.7602
X8.6543Y-5.0594
X8.6606Y-3.0551
X8.6606Y-4.3543
X8.6606Y-5.6535
X8.6622Y-2.2929
X8.6622Y-3.5921
X8.6622Y-4.8913
X8.664Y-2.8627
X8.664Y-4.1619
X8.664Y-5.4611
X8.6642Y-2.0495
X8.6642Y-3.3488
X8.6642Y-4.648
X8.6665Y-3.1634
X8.6665Y-4.4626
X8.6665Y-5.7618
X8.6705Y-2.0272
X8.6705Y-3.3264
X8.6705Y-4.6256
X8.6724Y-2.6181
X8.6724Y-3.9173
X8.6724Y-5.2165
X8.6751Y-3.0909
X8.6751Y-4.3901
X8.6751Y-5.6893
X8.6766Y-2.764
X8.6766Y-4.0633
X8.6766Y-5.3625
X8.6768Y-2.0949
X8.6768Y-3.3941
X8.6768Y-4.6933
X8.6781Y-2.2441
X8.6781Y-3.5433
X8.6781Y-4.8425
X8.6828Y-2.3643
X8.6828Y-3.6635
X8.6828Y-4.9627
X8.6843Y-2.3976
X8.6843Y-3.6969
X8.6843Y-4.9961
X8.6856Y-2.8873
X8.6856Y-4.1865
X8.6856Y-5.4857
X8.6921Y-3.0648
X8.6921Y-4.364
X8.6921Y-5.6633
X8.6971Y-2.9062
X8.6971Y-4.2055
X8.6971Y-5.5047
X8.6993Y-2.5275
X8.6993Y-3.8268
X8.6993Y-5.126
X8.7069Y-2.0335
X8.7069Y-3.3327
X8.7069Y-4.6319
X8.7137Y-2.9615
X8.7137Y-4.2607
X8.7137Y-5.5599
X8.7165Y-2.811
X8.7165Y-4.1102
X8.7165Y-5.4094
X8.7188Y-2.4685
X8.7188Y-3.7678
X8.7188Y-5.067
X8.7207Y-2.5184
X8.7207Y-3.8176
X8.7207Y-5.1168
X8.7229Y-2.3658
X8.7229Y-3.665
X8.7229Y-4.9642
X8.7246Y-2.3965
X8.7246Y-3.6957
X8.7246Y-4.9949
X8.7461Y-3.1378
X8.7461Y-4.437
X8.7461Y-5.7362
X8.7468Y-2.9843
X8.7468Y-4.2835
X8.7468Y-5.5827
X8.7483Y-2.9577
X8.7483Y-4.2569
X8.7483Y-5.5561
X8.7492Y-2.8665
X8.7492Y-4.1657
X8.7492Y-5.465
X8.75Y-2.0561
X8.75Y-3.3553
X8.75Y-4.6545
X8.7508Y-2.1634
X8.7508Y-3.4626
X8.7508Y-4.7618
X8.7536Y-2.2881
X8.7536Y-3.5873
X8.7536Y-4.8865
X8.7551Y-3.0866
X8.7551Y-4.3858
X8.7551Y-5.685
X8.7618Y-2.3917
X8.7618Y-3.6909
X8.7618Y-4.9902
X8.7632Y-3.0477
X8.7632Y-4.3469
X8.7632Y-5.6461
X8.765Y-3.1634
X8.765Y-4.4626
X8.765Y-5.7618
X8.7654Y-2.3559
X8.7654Y-3.6551
X8.7654Y-4.9543
X8.7671Y-2.3278
X8.7671Y-3.627
X8.7671Y-4.9262
X8.7692Y-2.4838
X8.7692Y-3.7831
X8.7692Y-5.0823
X8.7705Y-2.0854
X8.7705Y-3.3846
X8.7705Y-4.6839
X8.7724Y-2.2051
X8.7724Y-3.5043
X8.7724Y-4.8035
X8.774Y-2.1394
X8.774Y-2.8657
X8.774Y-3.4386
X8.774Y-4.165
X8.774Y-4.7378
X8.774Y-5.4642
X8.7808Y-2.248
X8.7808Y-3.5472
X8.7808Y-4.8465
X8.7827Y-2.9291
X8.7827Y-4.2283
X8.7827Y-5.5276
X8.7864Y-2.1083
X8.7864Y-3.4075
X8.7864Y-4.7067
X8.7866Y-3.0079
X8.7866Y-4.3071
X8.7866Y-5.6063
X8.7972Y-2.0283
X8.7972Y-3.3276
X8.7972Y-4.6268
X8.8Y-2.8601
X8.8Y-4.1594
X8.8Y-5.4586
X8.801Y-2.492
X8.801Y-3.7912
X8.801Y-5.0904
X8.811Y-2.185
X8.811Y-3.4843
X8.811Y-4.7835
X8.8142Y-2.815
X8.8142Y-4.1142
X8.8142Y-5.4134
X8.8161Y-3.0657
X8.8161Y-4.365
X8.8161Y-5.6642
X8.8181Y-2.0425
X8.8181Y-2.7638
X8.8181Y-3.3417
X8.8181Y-4.063
X8.8181Y-4.6409
X8.8181Y-5.3622
X8.8334Y-2.3858
X8.8334Y-3.685
X8.8334Y-4.9842
X8.8339Y-2.5079
X8.8339Y-3.8071
X8.8339Y-5.1063
X8.8492Y-3.0811
X8.8492Y-4.3803
X8.8492Y-5.6795
X8.8598Y-3.0509
X8.8598Y-4.3501
X8.8598Y-5.6493
X8.8602Y-3.1506
X8.8602Y-4.4498
X8.8602Y-5.749
X8.8614Y-2.2531
X8.8614Y-3.5524
X8.8614Y-4.8516
X8.8618Y-2.2031
X8.8618Y-3.5024
X8.8618Y-4.8016
X8.8621Y-2.742
X8.8621Y-4.0412
X8.8621Y-5.3404
X8.863Y-2.3976
X8.863Y-3.6969
X8.863Y-4.9961
X8.8632Y-2.686
X8.8632Y-3.9852
X8.8632Y-5.2844
X8.8646Y-2.3362
X8.8646Y-3.6354
X8.8646Y-4.9346
X8.8661Y-2.5325
X8.8661Y-3.8317
X8.8661Y-5.1309
X8.8705Y-2.1449
X8.8705Y-3.4441
X8.8705Y-4.7433
X8.8711Y-2.8297
X8.8711Y-4.1289
X8.8711Y-5.4281
X8.878Y-2.4157
X8.878Y-3.715
X8.878Y-5.0142
X8.8799Y-2.561
X8.8799Y-3.8602
X8.8799Y-5.1594
X8.8816Y-2.6453
X8.8816Y-3.9446
X8.8816Y-5.2438
X8.8823Y-2.265
X8.8823Y-3.5642
X8.8823Y-4.8634
X8.8886Y-2.5118
X8.8886Y-3.811
X8.8886Y-5.1102
X8.8921Y-2.4543
X8.8921Y-3.7535
X8.8921Y-5.0527
X8.8947Y-2.8189
X8.8947Y-4.1181
X8.8947Y-5.4173
X8.9023Y-3.1187
X8.9023Y-4.4179
X8.9023Y-5.7171
X8.9041Y-2.7639
X8.9041Y-4.0631
X8.9041Y-5.3623
X8.9042Y-2.6623
X8.9042Y-3.9616
X8.9042Y-5.2608
X8.9063Y-2.7026
X8.9063Y-4.0018
X8.9063Y-5.301
X8.9094Y-2.7864
X8.9094Y-4.0856
X8.9094Y-5.3848
X8.9098Y-2.0473
X8.9098Y-3.3465
X8.9098Y-4.6457
X8.9104Y-2.7254
X8.9104Y-4.0246
X8.9104Y-5.3238
X8.9106Y-2.9362
X8.9106Y-4.2354
X8.9106Y-5.5346
X8.915Y-2.6221
X8.915Y-3.9213
X8.915Y-5.2205
X8.9193Y-2.188
X8.9193Y-3.4872
X8.9193Y-4.7864
X8.9228Y-2.5981
X8.9228Y-3.8973
X8.9228Y-5.1965
X8.9272Y-2.3925
X8.9272Y-3.6917
X8.9272Y-4.9909
X8.9287Y-2.0303
X8.9287Y-3.3295
X8.9287Y-4.6287
X8.9293Y-2.4605
X8.9293Y-3.7597
X8.9293Y-5.0589
X8.9301Y-2.7441
X8.9301Y-4.0433
X8.9301Y-5.3425
X8.9311Y-2.679
X8.9311Y-3.9783
X8.9311Y-5.2775
X8.9498Y-2.8642
X8.9498Y-4.1634
X8.9498Y-5.4626
X8.96Y-2.1053
X8.96Y-3.4045
X8.96Y-4.7037
X8.9613Y-2.6787
X8.9613Y-3.9779
X8.9613Y-5.2771
X8.9622Y-3.0146
X8.9622Y-4.3138
X8.9622Y-5.613
X8.9656Y-3.1516
X8.9656Y-4.4508
X8.9656Y-5.75
X8.9675Y-2.9124
X8.9675Y-4.2116
X8.9675Y-5.5108
X8.9805Y-2.2874
X8.9805Y-3.5866
X8.9805Y-4.8858
X8.9811Y-2.3523
X8.9811Y-3.6515
X8.9811Y-4.9507
X8.9815Y-2.4224
X8.9815Y-3.7217
X8.9815Y-5.0209
X8.9842Y-2.6817
X8.9842Y-3.981
X8.9842Y-5.2802
X8.987Y-2.5616
X8.987Y-3.8608
X8.987Y-5.16
X8.9878Y-2.7913
X8.9878Y-4.0906
X8.9878Y-5.3898
X8.9878Y-2.6058
X8.9878Y-3.905
X8.9878Y-5.2042
X8.9992Y-2.9606
X8.9992Y-4.2598
X8.9992Y-5.5591
X9.0036Y-2.7012
X9.0036Y-4.0004
X9.0036Y-5.2997
X9.0148Y-2.1683
X9.0148Y-3.4675
X9.0148Y-4.7667
X9.015Y-2.8622
X9.015Y-4.1614
X9.015Y-5.4606
X9.0176Y-2.8236
X9.0176Y-4.1228
X9.0176Y-5.422
X9.0193Y-2.7437
X9.0193Y-4.0429
X9.0193Y-5.3421
X9.0198Y-2.6557
X9.0198Y-3.9549
X9.0198Y-5.2542
X9.0205Y-2.435
X9.0205Y-3.7343
X9.0205Y-5.0335
X9.0319Y-2.5832
X9.0319Y-3.8824
X9.0319Y-5.1816
X9.0322Y-2.0317
X9.0322Y-3.3309
X9.0322Y-4.6301
X9.0402Y-2.3591
X9.0402Y-3.6583
X9.0402Y-4.9575
X9.047Y-2.2118
X9.047Y-3.511
X9.047Y-4.8102
X9.05Y-2.9923
X9.05Y-4.2915
X9.05Y-5.5907
X9.0554Y-2.0315
X9.0554Y-3.3307
X9.0554Y-4.6299
X9.0561Y-2.1053
X9.0561Y-3.4045
X9.0561Y-4.7037
X9.057Y-2.9701
X9.057Y-4.2694
X9.057Y-5.5686
X9.0614Y-3.148
X9.0614Y-4.4472
X9.0614Y-5.7465
X9.0657Y-2.8419
X9.0657Y-4.1411
X9.0657Y-5.4404
X9.0657Y-2.4567
X9.0657Y-3.7559
X9.0657Y-5.0551
X9.078Y-2.6929
X9.078Y-3.9921
X9.078Y-5.2913
X9.079Y-2.0605
X9.079Y-3.3597
X9.079Y-4.6589
X9.0793Y-2.7427
X9.0793Y-4.0419
X9.0793Y-5.3411
X9.0795Y-3.1786
X9.0795Y-4.4778
X9.0795Y-5.777
X9.0797Y-2.9442
X9.0797Y-4.2434
X9.0797Y-5.5426
X9.0799Y-2.5694
X9.0799Y-3.8687
X9.0799Y-5.1679
X9.0807Y-2.513
X9.0807Y-3.8122
X9.0807Y-5.1114
X9.0808Y-3.0041
X9.0808Y-4.3034
X9.0808Y-5.6026
X9.0898Y-2.1693
X9.0898Y-3.4685
X9.0898Y-4.7677
X9.1061Y-2.5762
X9.1061Y-3.8754
X9.1061Y-5.1746
X9.1103Y-2.7931
X9.1103Y-4.0923
X9.1103Y-5.3915
X9.1134Y-2.5477
X9.1134Y-3.8469
X9.1134Y-5.1461
X9.1181Y-2.8461
X9.1181Y-4.1453
X9.1181Y-5.4445
X9.1264Y-2.4323
X9.1264Y-3.7315
X9.1264Y-5.0307
X9.1449Y-2.2874
X9.1449Y-3.5866
X9.1449Y-4.8858
X9.1454Y-2.6821
X9.1454Y-3.9813
X9.1454Y-5.2805
X9.1531Y-2.0311
X9.1531Y-3.3303
X9.1531Y-4.6295
X9.1538Y-3.035
X9.1538Y-4.3343
X9.1538Y-5.6335
X9.1585Y-2.9931
X9.1585Y-4.2923
X9.1585Y-5.5915
X9.1606Y-2.0945
X9.1606Y-2.2441
X9.1606Y-3.3937
X9.1606Y-3.5433
X9.1606Y-4.6929
X9.1606Y-4.8425
X9.1657Y-2.6949
X9.1657Y-3.9941
X9.1657Y-5.2933
X9.1717Y-3.1099
X9.1717Y-4.4091
X9.1717Y-5.7083
X9.1732Y-2.5842
X9.1732Y-3.8834
X9.1732Y-5.1826
X9.1795Y-2.2827
X9.1795Y-3.5819
X9.1795Y-4.8811
X9.1902Y-2.9291
X9.1902Y-4.2283
X9.1902Y-5.5276
X9.1921Y-2.1972
X9.1921Y-3.4965
X9.1921Y-4.7957
X9.1941Y-2.0364
X9.1941Y-3.3356
X9.1941Y-4.6348
X9.2008Y-2.2835
X9.2008Y-3.5827
X9.2008Y-4.8819
X9.2039Y-2.248
X9.2039Y-3.5472
X9.2039Y-4.8465
X9.2071Y-3.1284
X9.2071Y-4.4276
X9.2071Y-5.7268
X9.2125Y-3.0203
X9.2125Y-4.3196
X9.2125Y-5.6188
X9.213Y-2.3882
X9.213Y-3.6874
X9.213Y-4.9866
X9.2155Y-2.3012
X9.2155Y-3.6004
X9.2155Y-4.8996
X9.2287Y-2.1244
X9.2287Y-3.4236
X9.2287Y-4.7228
X9.231Y-2.6216
X9.231Y-3.9208
X9.231Y-5.22
X9.2354Y-2.0768
X9.2354Y-3.376
X9.2354Y-4.6752
X9.2413Y-3.1622
X9.2413Y-4.4614
X9.2413Y-5.7606
X9.2445Y-3.0622
X9.2445Y-4.3614
X9.2445Y-5.6606
X9.2472Y-2.7992
X9.2472Y-2.8878
X9.2472Y-4.0984
X9.2472Y-4.187
X9.2472Y-5.3976
X9.2472Y-5.4862
X9.263Y-2.9173
X9.263Y-4.2165
X9.263Y-5.5157
X9.2646Y-2.6862
X9.2646Y-3.9854
X9.2646Y-5.2846
X9.2703Y-2.5016
X9.2703Y-3.8008
X9.2703Y-5.1
X9.2709Y-3.1339
X9.2709Y-4.4331
X9.2709Y-5.7323
X9.2748Y-3.0276
X9.2748Y-4.3268
X9.2748Y-5.626
X9.3Y-2.3268
X9.3Y-3.626
X9.3Y-4.9252
X9.3102Y-2.8898
X9.3102Y-4.189
X9.3102Y-5.4882
X9.3112Y-2.6862
X9.3112Y-3.9854
X9.3112Y-5.2846
X9.3193Y-2.2756
X9.3193Y-3.5748
X9.3193Y-4.874
X9.32Y-2.6136
X9.32Y-3.9128
X9.32Y-5.212
X9.3227Y-2.4731
X9.3227Y-3.7723
X9.3227Y-5.0715
X9.3268Y-2.9741
X9.3268Y-4.2733
X9.3268Y-5.5725
X9.3302Y-2.6359
X9.3302Y-3.9351
X9.3302Y-5.2344
X9.3319Y-2.7146
X9.3319Y-4.0138
X9.3319Y-5.313
X9.3433Y-3.0039
X9.3433Y-4.3031
X9.3433Y-5.6024
X9.3457Y-3.1732
X9.3457Y-4.4724
X9.3457Y-5.7717
X9.3475Y-2.4744
X9.3475Y-3.7736
X9.3475Y-5.0728
X9.3476Y-2.572
X9.3476Y-3.8713
X9.3476Y-5.1705
X9.3496Y-2.3018
X9.3496Y-3.6011
X9.3496Y-4.9003
X9.3555Y-2.8819
X9.3555Y-4.1811
X9.3555Y-5.4803
X9.3608Y-2.9173
X9.3608Y-4.2165
X9.3608Y-5.5157
X9.3626Y-2.6193
X9.3626Y-3.9185
X9.3626Y-5.2177
X9.3658Y-2.2819
X9.3658Y-3.5811
X9.3658Y-4.8803
X9.3834Y-2.59
X9.3834Y-3.8892
X9.3834Y-5.1884
X9.4047Y-2.7205
X9.4047Y-2.7992
X9.4047Y-2.8878
X9.4047Y-4.0197
X9.4047Y-4.0984
X9.4047Y-4.187
X9.4047Y-5.3189
X9.4047Y-5.3976
X9.4047Y-5.4862
X9.4285Y-2.6209
X9.4285Y-3.9201
X9.4285Y-5.2193
X9.4299Y-2.311
X9.4299Y-3.6102
X9.4299Y-4.9094
X9.4417Y-2.5098
X9.4417Y-3.8091
X9.4417Y-5.1083
X9.4764Y-2.628
X9.4764Y-3.9272
X9.4764Y-5.2264
X9.4949Y-2.872
X9.4949Y-2.872
X9.4949Y-4.1713
X9.4949Y-4.1713
X9.4949Y-5.4705
X9.4949Y-5.4705
X9.4969Y-3.0016
X9.4969Y-4.3008
X9.4969Y-5.6
X9.5031Y-2.7579
X9.5031Y-3.1732
X9.5031Y-4.0571
X9.5031Y-4.4724
X9.5031Y-5.3563
X9.5031Y-5.7717
X9.5085Y-3.022
X9.5085Y-4.3213
X9.5085Y-5.6205
X9.6575Y-2.7126
X9.6575Y-4.0118
X9.6575Y-5.311
X9.6585Y-2.688
X9.6585Y-3.9872
X9.6585Y-5.2864
X9.6606Y-2.0315
X9.6606Y-2.189
X9.6606Y-2.2382
X9.6606Y-2.2874
X9.6606Y-2.3465
X9.6606Y-2.4055
X9.6606Y-2.7795
X9.6606Y-2.8287
X9.6606Y-2.8976
X9.6606Y-2.9567
X9.6606Y-3.0157
X9.6606Y-3.1732
X9.6606Y-3.3307
X9.6606Y-3.4882
X9.6606Y-3.5374
X9.6606Y-3.5866
X9.6606Y-3.6457
X9.6606Y-3.7047
X9.6606Y-4.0787
X9.6606Y-4.128
X9.6606Y-4.1969
X9.6606Y-4.2559
X9.6606Y-4.315
X9.6606Y-4.4724
X9.6606Y-4.6299
X9.6606Y-4.7874
X9.6606Y-4.8366
X9.6606Y-4.8858
X9.6606Y-4.9449
X9.6606Y-5.0039
X9.6606Y-5.378
X9.6606Y-5.4272
X9.6606Y-5.4961
X9.6606Y-5.5551
X9.6606Y-5.6142
X9.6606Y-5.7717
X9.6646Y-2.7362
X9.6646Y-4.0354
X9.6646Y-5.3346
X9.6921Y-2.7362
X9.6921Y-4.0354
X9.6921Y-5.3346
X9.6959Y-2.686
X9.6959Y-3.9852
X9.6959Y-5.2844
X9.6976Y-2.8476
X9.6976Y-4.1469
X9.6976Y-5.4461
X9.702Y-2.8177
X9.702Y-4.1169
X9.702Y-5.4161
X9.7079Y-2.7598
X9.7079Y-2.7874
X9.7079Y-4.0591
X9.7079Y-4.0866
X9.7079Y-5.3583
X9.7079Y-5.3858
X9.7118Y-2.4055
X9.7118Y-2.8846
X9.7118Y-3.7047
X9.7118Y-4.1839
X9.7118Y-5.0039
X9.7118Y-5.4831
X9.7215Y-2.685
X9.7215Y-3.9843
X9.7215Y-5.2835
X9.7236Y-2.7362
X9.7236Y-4.0354
X9.7236Y-5.3346
X9.7315Y-2.4185
X9.7315Y-3.7177
X9.7315Y-5.0169
X9.7358Y-2.8878
X9.7358Y-4.187
X9.7358Y-5.4862
X9.7461Y-2.4331
X9.7461Y-3.7323
X9.7461Y-5.0315
X9.7567Y-2.8827
X9.7567Y-4.1819
X9.7567Y-5.4811
X9.7591Y-2.4724
X9.7591Y-2.5079
X9.7591Y-2.5433
X9.7591Y-2.6654
X9.7591Y-3.7717
X9.7591Y-3.8071
X9.7591Y-3.8425
X9.7591Y-3.9646
X9.7591Y-5.0709
X9.7591Y-5.1063
X9.7591Y-5.1417
X9.7591Y-5.2638
X9.7598Y-2.5945
X9.7598Y-3.8937
X9.7598Y-5.1929
X9.7628Y-2.6358
X9.7628Y-3.935
X9.7628Y-5.2343
X9.7661Y-2.7909
X9.7661Y-4.0902
X9.7661Y-5.3894
X9.7673Y-2.7669
X9.7673Y-4.0661
X9.7673Y-5.3654
X9.7705Y-2.8213
X9.7705Y-4.1205
X9.7705Y-5.4197
X9.7728Y-2.8476
X9.7728Y-4.1469
X9.7728Y-5.4461
X9.7787Y-2.3858
X9.7787Y-3.685
X9.7787Y-4.9843
X9.7795Y-2.5827
X9.7795Y-3.8819
X9.7795Y-5.1811
X9.7827Y-2.4843
X9.7827Y-3.7835
X9.7827Y-5.0827
X9.7862Y-2.7874
X9.7862Y-4.0866
X9.7862Y-5.3858
X9.7874Y-2.563
X9.7874Y-3.8622
X9.7874Y-5.1614
X9.7906Y-2.4055
X9.7906Y-3.7047
X9.7906Y-5.0039
X9.7913Y-2.6339
X9.7913Y-3.9331
X9.7913Y-5.2323
X9.8024Y-2.5039
X9.8024Y-2.5433
X9.8024Y-3.8031
X9.8024Y-3.8425
X9.8024Y-5.1024
X9.8024Y-5.1417
X9.8055Y-2.8051
X9.8055Y-4.1043
X9.8055Y-5.4035
X9.8091Y-2.2075
X9.8091Y-3.5067
X9.8091Y-4.8059
X9.8102Y-2.4213
X9.8102Y-3.7205
X9.8102Y-5.0197
X9.8181Y-2.0315
X9.8181Y-3.1732
X9.8181Y-3.3307
X9.8181Y-4.4724
X9.8181Y-4.6299
X9.8181Y-5.7717
X9.822Y-2.5236
X9.822Y-3.8228
X9.822Y-5.122
X9.8244Y-2.7173
X9.8244Y-4.0165
X9.8244Y-5.3157
X9.8252Y-2.8472
X9.8252Y-4.1465
X9.8252Y-5.4457
X9.826Y-2.437
X9.826Y-3.7362
X9.826Y-5.0354
X9.8264Y-2.9094
X9.8264Y-4.2087
X9.8264Y-5.5079
X9.8272Y-2.8776
X9.8272Y-4.1768
X9.8272Y-5.476
X9.8283Y-2.7449
X9.8283Y-2.8185
X9.8283Y-2.9406
X9.8283Y-4.0441
X9.8283Y-4.1177
X9.8283Y-4.2398
X9.8283Y-5.3433
X9.8283Y-5.4169
X9.8283Y-5.539
X9.8343Y-2.2469
X9.8343Y-3.5461
X9.8343Y-4.8453
X9.8417Y-2.4528
X9.8417Y-3.752
X9.8417Y-5.0512
X9.8441Y-2.1697
X9.8441Y-3.4689
X9.8441Y-4.7681
X9.8457Y-2.5866
X9.8457Y-2.6961
X9.8457Y-3.8858
X9.8457Y-3.9953
X9.8457Y-5.185
X9.8457Y-5.2945
X9.848Y-2.7618
X9.848Y-4.061
X9.848Y-5.3602
X9.8488Y-2.8358
X9.8488Y-4.135
X9.8488Y-5.4343
X9.8535Y-2.6142
X9.8535Y-3.9134
X9.8535Y-5.2126
X9.8563Y-2.1138
X9.8563Y-2.9484
X9.8563Y-3.413
X9.8563Y-4.2476
X9.8563Y-4.7122
X9.8563Y-5.5469
X9.8579Y-2.0303
X9.8579Y-3.3295
X9.8579Y-4.6287
X9.8606Y-2.7803
X9.8606Y-4.0795
X9.8606Y-5.3787
X9.865Y-2.2839
X9.865Y-3.5831
X9.865Y-4.8823
X9.8654Y-2.5709
X9.8654Y-3.8701
X9.8654Y-5.1693
X9.8669Y-2.4094
X9.8669Y-3.7087
X9.8669Y-5.0079
X9.8673Y-3.1732
X9.8673Y-4.4724
X9.8673Y-5.7717
X9.8689Y-2.3217
X9.8689Y-3.6209
X9.8689Y-4.9201
X9.8697Y-2.6685
X9.8697Y-3.9677
X9.8697Y-5.2669
X9.8764Y-2.8024
X9.8764Y-4.1016
X9.8764Y-5.4008
X9.8795Y-2.1866
X9.8795Y-3.4858
X9.8795Y-4.785
X9.8811Y-2.5866
X9.8811Y-2.6142
X9.8811Y-3.8858
X9.8811Y-3.9134
X9.8811Y-5.185
X9.8811Y-5.2126
X9.8839Y-2.9496
X9.8839Y-4.2488
X9.8839Y-5.548
X9.889Y-2.5
X9.889Y-3.7992
X9.889Y-5.0984
X9.8913Y-2.365
X9.8913Y-3.6642
X9.8913Y-4.9634
X9.898Y-2.8248
X9.898Y-4.124
X9.898Y-5.4232
X9.9008Y-2.5984
X9.9008Y-3.8976
X9.9008Y-5.1969
X9.9047Y-2.5157
X9.9047Y-3.815
X9.9047Y-5.1142
X9.9087Y-2.2957
X9.9087Y-2.9504
X9.9087Y-3.5949
X9.9087Y-4.2496
X9.9087Y-4.8941
X9.9087Y-5.5488
X9.9156Y-2.6142
X9.9156Y-3.9134
X9.9156Y-5.2126
X9.9161Y-2.1661
X9.9161Y-3.4654
X9.9161Y-4.7646
X9.9169Y-2.424
X9.9169Y-3.7232
X9.9169Y-5.0224
X9.9177Y-2.8461
X9.9177Y-4.1453
X9.9177Y-5.4445
X9.9205Y-2.5315
X9.9205Y-3.8307
X9.9205Y-5.1299
X9.9242Y-2.6732
X9.9242Y-3.9724
X9.9242Y-5.2717
X9.9264Y-2.0315
X9.9264Y-3.1732
X9.9264Y-3.3307
X9.9264Y-4.4724
X9.9264Y-4.6299
X9.9264Y-5.7717
X9.9315Y-2.9299
X9.9315Y-4.2291
X9.9315Y-5.5283
X9.9327Y-2.8701
X9.9327Y-4.1693
X9.9327Y-5.4685
X9.9335Y-2.8984
X9.9335Y-4.1976
X9.9335Y-5.4969
X9.935Y-2.3201
X9.935Y-3.6193
X9.935Y-4.9185
X9.9394Y-2.3752
X9.9394Y-3.6744
X9.9394Y-4.9736
X9.9402Y-2.6142
X9.9402Y-3.9134
X9.9402Y-5.2126
X9.9417Y-2.4791
X9.9417Y-3.7783
X9.9417Y-5.0776
X9.9478Y-2.0965
X9.9478Y-3.3957
X9.9478Y-4.6949
X9.9485Y-2.0406
X9.9485Y-3.3398
X9.9485Y-4.639
X9.9496Y-2.4311
X9.9496Y-3.7303
X9.9496Y-5.0295
X9.961Y-2.985
X9.961Y-4.2843
X9.961Y-5.5835
X9.9632Y-2.0585
X9.9632Y-3.3577
X9.9632Y-4.6569
X9.9654Y-3.0677
X9.9654Y-4.3669
X9.9654Y-5.6661
X9.9677Y-2.5669
X9.9677Y-3.8661
X9.9677Y-5.1654
X9.9695Y-3.1703
X9.9695Y-4.4695
X9.9695Y-5.7687
X9.9795Y-2.4331
X9.9795Y-3.7323
X9.9795Y-5.0315
X9.9813Y-2.8917
X9.9813Y-4.1909
X9.9813Y-5.4902
X9.9815Y-2.6663
X9.9815Y-3.9656
X9.9815Y-5.2648
X9.985Y-2.915
X9.985Y-4.2142
X9.985Y-5.5134
X9.989Y-2.4854
X9.989Y-3.7846
X9.989Y-5.0839
X9.9921Y-2.4132
X9.9921Y-3.7125
X9.9921Y-5.0117
X9.9948Y-2.4552
X9.9948Y-3.7545
X9.9948Y-5.0537
X9.9961Y-2.5197
X9.9961Y-3.8189
X9.9961Y-5.1181
X10.0067Y-2.2894
X10.0067Y-3.5886
X10.0067Y-4.8878
X10.0109Y-2.3818
X10.0109Y-3.681
X10.0109Y-4.9802
X10.0189Y-3.0551
X10.0189Y-4.3543
X10.0189Y-5.6535
X10.0228Y-2.5551
X10.0228Y-3.8543
X10.0228Y-5.1535
X10.0244Y-2.0272
X10.0244Y-3.3264
X10.0244Y-4.6256
X10.0268Y-2.4882
X10.0268Y-3.7874
X10.0268Y-5.0866
X10.0307Y-2.685
X10.0307Y-3.9843
X10.0307Y-5.2835
X10.0429Y-2.148
X10.0429Y-3.4472
X10.0429Y-4.7465
X10.0504Y-2.2555
X10.0504Y-3.5547
X10.0504Y-4.8539
X10.0535Y-2.0492
X10.0535Y-3.3484
X10.0535Y-4.6476
X10.0543Y-2.0984
X10.0543Y-3.3976
X10.0543Y-4.6969
X10.0577Y-3.0768
X10.0577Y-4.376
X10.0577Y-5.6752
X10.0592Y-2.2881
X10.0592Y-3.5873
X10.0592Y-4.8865
X10.0642Y-3.1634
X10.0642Y-4.4626
X10.0642Y-5.7618
X10.0652Y-2.5669
X10.0652Y-3.8661
X10.0652Y-5.1654
X10.0662Y-2.7318
X10.0662Y-4.031
X10.0662Y-5.3303
X10.0686Y-2.7556
X10.0686Y-4.0548
X10.0686Y-5.354
X10.0717Y-2.239
X10.0717Y-3.5382
X10.0717Y-4.8374
X10.0784Y-2.3595
X10.0784Y-3.6587
X10.0784Y-4.9579
X10.085Y-2.1661
X10.085Y-3.4654
X10.085Y-4.7646
X10.0925Y-2.3407
X10.0925Y-3.6399
X10.0925Y-4.9391
X10.1043Y-2.9203
X10.1043Y-4.2195
X10.1043Y-5.5187
X10.1084Y-2.8171
X10.1084Y-4.1164
X10.1084Y-5.4156
X10.1161Y-2.9596
X10.1161Y-4.2589
X10.1161Y-5.5581
X10.126Y-2.9113
X10.126Y-4.2105
X10.126Y-5.5097
X10.1271Y-2.5311
X10.1271Y-3.8304
X10.1271Y-5.1296
X10.1303Y-2.3346
X10.1303Y-3.6339
X10.1303Y-4.9331
X10.1409Y-2.2598
X10.1409Y-3.5591
X10.1409Y-4.8583
X10.1476Y-2.9203
X10.1476Y-4.2195
X10.1476Y-5.5187
X10.1488Y-2.2323
X10.1488Y-3.5315
X10.1488Y-4.8307
X10.1504Y-2.461
X10.1504Y-3.7602
X10.1504Y-5.0594
X10.1567Y-3.0551
X10.1567Y-4.3543
X10.1567Y-5.6535
X10.1583Y-2.2929
X10.1583Y-3.5921
X10.1583Y-4.8913
X10.1601Y-2.8627
X10.1601Y-4.1619
X10.1601Y-5.4611
X10.1602Y-2.0495
X10.1602Y-3.3488
X10.1602Y-4.648
X10.1626Y-3.1634
X10.1626Y-4.4626
X10.1626Y-5.7618
X10.1665Y-2.0272
X10.1665Y-3.3264
X10.1665Y-4.6256
X10.1685Y-2.6181
X10.1685Y-3.9173
X10.1685Y-5.2165
X10.1712Y-3.0909
X10.1712Y-4.3901
X10.1712Y-5.6893
X10.1727Y-2.764
X10.1727Y-4.0633
X10.1727Y-5.3625
X10.1728Y-2.0949
X10.1728Y-3.3941
X10.1728Y-4.6933
X10.1742Y-2.2441
X10.1742Y-3.5433
X10.1742Y-4.8425
X10.1789Y-2.3643
X10.1789Y-3.6635
X10.1789Y-4.9627
X10.1803Y-2.3976
X10.1803Y-3.6969
X10.1803Y-4.9961
X10.1816Y-2.8873
X10.1816Y-4.1865
X10.1816Y-5.4857
X10.1882Y-3.0648
X10.1882Y-4.364
X10.1882Y-5.6633
X10.1932Y-2.9062
X10.1932Y-4.2055
X10.1932Y-5.5047
X10.1954Y-2.5275
X10.1954Y-3.8268
X10.1954Y-5.126
X10.203Y-2.0335
X10.203Y-3.3327
X10.203Y-4.6319
X10.2098Y-2.9615
X10.2098Y-4.2607
X10.2098Y-5.5599
X10.2126Y-2.811
X10.2126Y-4.1102
X10.2126Y-5.4094
X10.2149Y-2.4685
X10.2149Y-3.7678
X10.2149Y-5.067
X10.2167Y-2.5184
X10.2167Y-3.8176
X10.2167Y-5.1168
X10.2189Y-2.3658
X10.2189Y-3.665
X10.2189Y-4.9642
X10.2207Y-2.3965
X10.2207Y-3.6957
X10.2207Y-4.9949
X10.2421Y-3.1378
X10.2421Y-4.437
X10.2421Y-5.7362
X10.2429Y-2.9843
X10.2429Y-4.2835
X10.2429Y-5.5827
X10.2444Y-2.9577
X10.2444Y-4.2569
X10.2444Y-5.5561
X10.2453Y-2.8665
X10.2453Y-4.1657
X10.2453Y-5.465
X10.2461Y-2.0561
X10.2461Y-3.3553
X10.2461Y-4.6545
X10.2469Y-2.1634
X10.2469Y-3.4626
X10.2469Y-4.7618
X10.2497Y-2.2881
X10.2497Y-3.5873
X10.2497Y-4.8865
X10.2512Y-3.0866
X10.2512Y-4.3858
X10.2512Y-5.685
X10.2579Y-2.3917
X10.2579Y-3.6909
X10.2579Y-4.9902
X10.2592Y-3.0477
X10.2592Y-4.3469
X10.2592Y-5.6461
X10.261Y-3.1634
X10.261Y-4.4626
X10.261Y-5.7618
X10.2614Y-2.3559
X10.2614Y-3.6551
X10.2614Y-4.9543
X10.2631Y-2.3278
X10.2631Y-3.627
X10.2631Y-4.9262
X10.2652Y-2.4838
X10.2652Y-3.7831
X10.2652Y-5.0823
X10.2665Y-2.0854
X10.2665Y-3.3846
X10.2665Y-4.6839
X10.2685Y-2.2051
X10.2685Y-3.5043
X10.2685Y-4.8035
X10.2701Y-2.1394
X10.2701Y-2.8657
X10.2701Y-3.4386
X10.2701Y-4.165
X10.2701Y-4.7378
X10.2701Y-5.4642
X10.2768Y-2.248
X10.2768Y-3.5472
X10.2768Y-4.8465
X10.2787Y-2.9291
X10.2787Y-4.2283
X10.2787Y-5.5276
X10.2825Y-2.1083
X10.2825Y-3.4075
X10.2825Y-4.7067
X10.2827Y-3.0079
X10.2827Y-4.3071
X10.2827Y-5.6063
X10.2933Y-2.0283
X10.2933Y-3.3276
X10.2933Y-4.6268
X10.296Y-2.8601
X10.296Y-4.1594
X10.296Y-5.4586
X10.2971Y-2.492
X10.2971Y-3.7912
X10.2971Y-5.0904
X10.3071Y-2.185
X10.3071Y-3.4843
X10.3071Y-4.7835
X10.3102Y-2.815
X10.3102Y-4.1142
X10.3102Y-5.4134
X10.3122Y-3.0657
X10.3122Y-4.365
X10.3122Y-5.6642
X10.3142Y-2.0425
X10.3142Y-2.7638
X10.3142Y-3.3417
X10.3142Y-4.063
X10.3142Y-4.6409
X10.3142Y-5.3622
X10.3294Y-2.3858
X10.3294Y-3.685
X10.3294Y-4.9842
X10.3299Y-2.5079
X10.3299Y-3.8071
X10.3299Y-5.1063
X10.3453Y-3.0811
X10.3453Y-4.3803
X10.3453Y-5.6795
X10.3558Y-3.0509
X10.3558Y-4.3501
X10.3558Y-5.6493
X10.3563Y-3.1506
X10.3563Y-4.4498
X10.3563Y-5.749
X10.3575Y-2.2531
X10.3575Y-3.5524
X10.3575Y-4.8516
X10.3579Y-2.2031
X10.3579Y-3.5024
X10.3579Y-4.8016
X10.3582Y-2.742
X10.3582Y-4.0412
X10.3582Y-5.3404
X10.3591Y-2.3976
X10.3591Y-3.6969
X10.3591Y-4.9961
X10.3593Y-2.686
X10.3593Y-3.9852
X10.3593Y-5.2844
X10.3606Y-2.3362
X10.3606Y-3.6354
X10.3606Y-4.9346
X10.3622Y-2.5325
X10.3622Y-3.8317
X10.3622Y-5.1309
X10.3665Y-2.1449
X10.3665Y-3.4441
X10.3665Y-4.7433
X10.3671Y-2.8297
X10.3671Y-4.1289
X10.3671Y-5.4281
X10.374Y-2.4157
X10.374Y-3.715
X10.374Y-5.0142
X10.376Y-2.561
X10.376Y-3.8602
X10.376Y-5.1594
X10.3776Y-2.6453
X10.3776Y-3.9446
X10.3776Y-5.2438
X10.3783Y-2.265
X10.3783Y-3.5642
X10.3783Y-4.8634
X10.3846Y-2.5118
X10.3846Y-3.811
X10.3846Y-5.1102
X10.3882Y-2.4543
X10.3882Y-3.7535
X10.3882Y-5.0527
X10.3907Y-2.8189
X10.3907Y-4.1181
X10.3907Y-5.4173
X10.3984Y-3.1187
X10.3984Y-4.4179
X10.3984Y-5.7171
X10.4001Y-2.7639
X10.4001Y-4.0631
X10.4001Y-5.3623
X10.4003Y-2.6623
X10.4003Y-3.9616
X10.4003Y-5.2608
X10.4023Y-2.7026
X10.4023Y-4.0018
X10.4023Y-5.301
X10.4055Y-2.7864
X10.4055Y-4.0856
X10.4055Y-5.3848
X10.4059Y-2.0473
X10.4059Y-3.3465
X10.4059Y-4.6457
X10.4065Y-2.7254
X10.4065Y-4.0246
X10.4065Y-5.3238
X10.4067Y-2.9362
X10.4067Y-4.2354
X10.4067Y-5.5346
X10.4111Y-2.6221
X10.4111Y-3.9213
X10.4111Y-5.2205
X10.4154Y-2.188
X10.4154Y-3.4872
X10.4154Y-4.7864
X10.4188Y-2.5981
X10.4188Y-3.8973
X10.4188Y-5.1965
X10.4232Y-2.3925
X10.4232Y-3.6917
X10.4232Y-4.9909
X10.4248Y-2.0303
X10.4248Y-3.3295
X10.4248Y-4.6287
X10.4254Y-2.4605
X10.4254Y-3.7597
X10.4254Y-5.0589
X10.4262Y-2.7441
X10.4262Y-4.0433
X10.4262Y-5.3425
X10.4271Y-2.679
X10.4271Y-3.9783
X10.4271Y-5.2775
X10.4459Y-2.8642
X10.4459Y-4.1634
X10.4459Y-5.4626
X10.456Y-2.1053
X10.456Y-3.4045
X10.456Y-4.7037
X10.4573Y-2.6787
X10.4573Y-3.9779
X10.4573Y-5.2771
X10.4583Y-3.0146
X10.4583Y-4.3138
X10.4583Y-5.613
X10.4616Y-3.1516
X10.4616Y-4.4508
X10.4616Y-5.75
X10.4636Y-2.9124
X10.4636Y-4.2116
X10.4636Y-5.5108
X10.4766Y-2.2874
X10.4766Y-3.5866
X10.4766Y-4.8858
X10.4772Y-2.3523
X10.4772Y-3.6515
X10.4772Y-4.9507
X10.4776Y-2.4224
X10.4776Y-3.7217
X10.4776Y-5.0209
X10.4803Y-2.6817
X10.4803Y-3.981
X10.4803Y-5.2802
X10.483Y-2.5616
X10.483Y-3.8608
X10.483Y-5.16
X10.4839Y-2.7913
X10.4839Y-4.0906
X10.4839Y-5.3898
X10.4839Y-2.6058
X10.4839Y-3.905
X10.4839Y-5.2042
X10.4953Y-2.9606
X10.4953Y-4.2598
X10.4953Y-5.5591
X10.4997Y-2.7012
X10.4997Y-4.0004
X10.4997Y-5.2997
X10.5108Y-2.1683
X10.5108Y-3.4675
X10.5108Y-4.7667
X10.511Y-2.8622
X10.511Y-4.1614
X10.511Y-5.4606
X10.5136Y-2.8236
X10.5136Y-4.1228
X10.5136Y-5.422
X10.5154Y-2.7437
X10.5154Y-4.0429
X10.5154Y-5.3421
X10.5159Y-2.6557
X10.5159Y-3.9549
X10.5159Y-5.2542
X10.5165Y-2.435
X10.5165Y-3.7343
X10.5165Y-5.0335
X10.528Y-2.5832
X10.528Y-3.8824
X10.528Y-5.1816
X10.5283Y-2.0317
X10.5283Y-3.3309
X10.5283Y-4.6301
X10.5362Y-2.3591
X10.5362Y-3.6583
X10.5362Y-4.9575
X10.543Y-2.2118
X10.543Y-3.511
X10.543Y-4.8102
X10.546Y-2.9923
X10.546Y-4.2915
X10.546Y-5.5907
X10.5515Y-2.0315
X10.5515Y-3.3307
X10.5515Y-4.6299
X10.5522Y-2.1053
X10.5522Y-3.4045
X10.5522Y-4.7037
X10.553Y-2.9701
X10.553Y-4.2694
X10.553Y-5.5686
X10.5575Y-3.148
X10.5575Y-4.4472
X10.5575Y-5.7465
X10.5617Y-2.8419
X10.5617Y-4.1411
X10.5617Y-5.4404
X10.5618Y-2.4567
X10.5618Y-3.7559
X10.5618Y-5.0551
X10.574Y-2.6929
X10.574Y-3.9921
X10.574Y-5.2913
X10.5751Y-2.0605
X10.5751Y-3.3597
X10.5751Y-4.6589
X10.5754Y-2.7427
X10.5754Y-4.0419
X10.5754Y-5.3411
X10.5756Y-3.1786
X10.5756Y-4.4778
X10.5756Y-5.777
X10.5758Y-2.9442
X10.5758Y-4.2434
X10.5758Y-5.5426
X10.5759Y-2.5694
X10.5759Y-3.8687
X10.5759Y-5.1679
X10.5768Y-2.513
X10.5768Y-3.8122
X10.5768Y-5.1114
X10.5768Y-3.0041
X10.5768Y-4.3034
X10.5768Y-5.6026
X10.5858Y-2.1693
X10.5858Y-3.4685
X10.5858Y-4.7677
X10.6022Y-2.5762
X10.6022Y-3.8754
X10.6022Y-5.1746
X10.6063Y-2.7931
X10.6063Y-4.0923
X10.6063Y-5.3915
X10.6095Y-2.5477
X10.6095Y-3.8469
X10.6095Y-5.1461
X10.6142Y-2.8461
X10.6142Y-4.1453
X10.6142Y-5.4445
X10.6224Y-2.4323
X10.6224Y-3.7315
X10.6224Y-5.0307
X10.6409Y-2.2874
X10.6409Y-3.5866
X10.6409Y-4.8858
X10.6414Y-2.6821
X10.6414Y-3.9813
X10.6414Y-5.2805
X10.6492Y-2.0311
X10.6492Y-3.3303
X10.6492Y-4.6295
X10.6499Y-3.035
X10.6499Y-4.3343
X10.6499Y-5.6335
X10.6545Y-2.9931
X10.6545Y-4.2923
X10.6545Y-5.5915
X10.6567Y-2.0945
X10.6567Y-2.2441
X10.6567Y-3.3937
X10.6567Y-3.5433
X10.6567Y-4.6929
X10.6567Y-4.8425
X10.6618Y-2.6949
X10.6618Y-3.9941
X10.6618Y-5.2933
X10.6677Y-3.1099
X10.6677Y-4.4091
X10.6677Y-5.7083
X10.6693Y-2.5842
X10.6693Y-3.8834
X10.6693Y-5.1826
X10.6756Y-2.2827
X10.6756Y-3.5819
X10.6756Y-4.8811
X10.6862Y-2.9291
X10.6862Y-4.2283
X10.6862Y-5.5276
X10.6882Y-2.1972
X10.6882Y-3.4965
X10.6882Y-4.7957
X10.6902Y-2.0364
X10.6902Y-3.3356
X10.6902Y-4.6348
X10.6969Y-2.2835
X10.6969Y-3.5827
X10.6969Y-4.8819
X10.7Y-2.248
X10.7Y-3.5472
X10.7Y-4.8465
X10.7031Y-3.1284
X10.7031Y-4.4276
X10.7031Y-5.7268
X10.7085Y-3.0203
X10.7085Y-4.3196
X10.7085Y-5.6188
X10.7091Y-2.3882
X10.7091Y-3.6874
X10.7091Y-4.9866
X10.7116Y-2.3012
X10.7116Y-3.6004
X10.7116Y-4.8996
X10.7248Y-2.1244
X10.7248Y-3.4236
X10.7248Y-4.7228
X10.727Y-2.6216
X10.727Y-3.9208
X10.727Y-5.22
X10.7315Y-2.0768
X10.7315Y-3.376
X10.7315Y-4.6752
X10.7374Y-3.1622
X10.7374Y-4.4614
X10.7374Y-5.7606
X10.7406Y-3.0622
X10.7406Y-4.3614
X10.7406Y-5.6606
X10.7433Y-2.7992
X10.7433Y-2.8878
X10.7433Y-4.0984
X10.7433Y-4.187
X10.7433Y-5.3976
X10.7433Y-5.4862
X10.7591Y-2.9173
X10.7591Y-4.2165
X10.7591Y-5.5157
X10.7606Y-2.6862
X10.7606Y-3.9854
X10.7606Y-5.2846
X10.7664Y-2.5016
X10.7664Y-3.8008
X10.7664Y-5.1
X10.7669Y-3.1339
X10.7669Y-4.4331
X10.7669Y-5.7323
X10.7709Y-3.0276
X10.7709Y-4.3268
X10.7709Y-5.626
X10.7961Y-2.3268
X10.7961Y-3.626
X10.7961Y-4.9252
X10.8063Y-2.8898
X10.8063Y-4.189
X10.8063Y-5.4882
X10.8072Y-2.6862
X10.8072Y-3.9854
X10.8072Y-5.2846
X10.8154Y-2.2756
X10.8154Y-3.5748
X10.8154Y-4.874
X10.816Y-2.6136
X10.816Y-3.9128
X10.816Y-5.212
X10.8188Y-2.4731
X10.8188Y-3.7723
X10.8188Y-5.0715
X10.8229Y-2.9741
X10.8229Y-4.2733
X10.8229Y-5.5725
X10.8263Y-2.6359
X10.8263Y-3.9351
X10.8263Y-5.2344
X10.828Y-2.7146
X10.828Y-4.0138
X10.828Y-5.313
X10.8394Y-3.0039
X10.8394Y-4.3031
X10.8394Y-5.6024
X10.8417Y-3.1732
X10.8417Y-4.4724
X10.8417Y-5.7717
X10.8436Y-2.4744
X10.8436Y-3.7736
X10.8436Y-5.0728
X10.8437Y-2.572
X10.8437Y-3.8713
X10.8437Y-5.1705
X10.8457Y-2.3018
X10.8457Y-3.6011
X10.8457Y-4.9003
X10.8516Y-2.8819
X10.8516Y-4.1811
X10.8516Y-5.4803
X10.8568Y-2.9173
X10.8568Y-4.2165
X10.8568Y-5.5157
X10.8587Y-2.6193
X10.8587Y-3.9185
X10.8587Y-5.2177
X10.8618Y-2.2819
X10.8618Y-3.5811
X10.8618Y-4.8803
X10.8794Y-2.59
X10.8794Y-3.8892
X10.8794Y-5.1884
X10.9008Y-2.7205
X10.9008Y-2.7992
X10.9008Y-2.8878
X10.9008Y-4.0197
X10.9008Y-4.0984
X10.9008Y-4.187
X10.9008Y-5.3189
X10.9008Y-5.3976
X10.9008Y-5.4862
X10.9246Y-2.6209
X10.9246Y-3.9201
X10.9246Y-5.2193
X10.926Y-2.311
X10.926Y-3.6102
X10.926Y-4.9094
X10.9378Y-2.5098
X10.9378Y-3.8091
X10.9378Y-5.1083
X10.9724Y-2.628
X10.9724Y-3.9272
X10.9724Y-5.2264
X10.991Y-2.872
X10.991Y-2.872
X10.991Y-4.1713
X10.991Y-4.1713
X10.991Y-5.4705
X10.991Y-5.4705
X10.9929Y-3.0016
X10.9929Y-4.3008
X10.9929Y-5.6
X10.9992Y-2.7579
X10.9992Y-3.1732
X10.9992Y-4.0571
X10.9992Y-4.4724
X10.9992Y-5.3563
X10.9992Y-5.7717
X11.0046Y-3.022
X11.0046Y-4.3213
X11.0046Y-5.6205
X5.7937Y-2.4287
X5.7937Y-2.4602
X5.7937Y-3.728
X5.7937Y-3.7594
X7.2898Y-3.728
X7.2898Y-3.7594
X7.2898Y-5.0272
X7.2898Y-5.0587
X10.2819Y-2.4287
X10.2819Y-2.4602
X8.7858Y-5.0272
X8.7858Y-5.0587
X8.7858Y-2.4287
X8.7858Y-2.4602
X5.7937Y-5.0272
X5.7937Y-5.0587
X10.2819Y-5.0272
X10.2819Y-5.0587
X8.7858Y-3.728
X8.7858Y-3.7594
X10.2819Y-3.728
X10.2819Y-3.7594
X7.2898Y-2.4287
X7.2898Y-2.4602
T2
X8.1783Y-4.3937
X8.1974Y-4.3478
X8.1974Y-4.4396
X8.2433Y-4.3287
X8.2433Y-4.4587
X8.2892Y-4.3478
X8.2892Y-4.4396
X8.3083Y-4.3937
X6.3673Y-2.1087
X6.3863Y-2.0627
X6.3863Y-2.1546
X6.4323Y-2.0437
X6.4323Y-2.1736
X6.4782Y-2.0627
X6.4782Y-2.1546
X6.4972Y-2.1087
X5.1862Y-3.0945
X5.2052Y-3.0486
X5.2052Y-3.1404
X5.2512Y-3.0295
X5.2512Y-3.1594
X5.2971Y-3.0486
X5.2971Y-3.1404
X5.3161Y-3.0945
X6.3673Y-4.7071
X6.3863Y-4.6612
X6.3863Y-4.753
X6.4323Y-4.6421
X6.4323Y-4.772
X6.4782Y-4.6612
X6.4782Y-4.753
X6.4972Y-4.7071
X10.8555Y-5.6929
X10.8745Y-5.647
X10.8745Y-5.7388
X10.9205Y-5.628
X10.9205Y-5.7579
X10.9664Y-5.647
X10.9664Y-5.7388
X10.9854Y-5.6929
X10.8555Y-4.7071
X10.8745Y-4.6612
X10.8745Y-4.753
X10.9205Y-4.6421
X10.9205Y-4.772
X10.9664Y-4.6612
X10.9664Y-4.753
X10.9854Y-4.7071
X7.8634Y-5.6929
X7.8824Y-5.647
X7.8824Y-5.7388
X7.9283Y-5.628
X7.9283Y-5.7579
X7.9743Y-5.647
X7.9743Y-5.7388
X7.9933Y-5.6929
X6.6823Y-5.6929
X6.7013Y-5.647
X6.7013Y-5.7388
X6.7472Y-5.628
X6.7472Y-5.7579
X6.7932Y-5.647
X6.7932Y-5.7388
X6.8122Y-5.6929
X6.3673Y-3.0945
X6.3863Y-3.0486
X6.3863Y-3.1404
X6.4323Y-3.0295
X6.4323Y-3.1594
X6.4782Y-3.0486
X6.4782Y-3.1404
X6.4972Y-3.0945
X6.3673Y-5.6929
X6.3863Y-5.647
X6.3863Y-5.7388
X6.4323Y-5.628
X6.4323Y-5.7579
X6.4782Y-5.647
X6.4782Y-5.7388
X6.4972Y-5.6929
X5.1862Y-2.1102
X5.2052Y-2.0643
X5.2052Y-2.1562
X5.2512Y-2.0453
X5.2512Y-2.1752
X5.2971Y-2.0643
X5.2971Y-2.1562
X5.3161Y-2.1102
X9.6744Y-3.0945
X9.6934Y-3.0486
X9.6934Y-3.1404
X9.7394Y-3.0295
X9.7394Y-3.1594
X9.7853Y-3.0486
X9.7853Y-3.1404
X9.8043Y-3.0945
X9.6744Y-4.7087
X9.6934Y-4.6627
X9.6934Y-4.7546
X9.7394Y-4.6437
X9.7394Y-4.7736
X9.7853Y-4.6627
X9.7853Y-4.7546
X9.8043Y-4.7087
X10.8555Y-3.4079
X10.8745Y-3.3619
X10.8745Y-3.4538
X10.9205Y-3.3429
X10.9205Y-3.4728
X10.9664Y-3.3619
X10.9664Y-3.4538
X10.9854Y-3.4079
X7.8634Y-3.0945
X7.8824Y-3.0486
X7.8824Y-3.1404
X7.9283Y-3.0295
X7.9283Y-3.1594
X7.9743Y-3.0486
X7.9743Y-3.1404
X7.9933Y-3.0945
X8.1783Y-3.4094
X8.1974Y-3.3635
X8.1974Y-3.4554
X8.2433Y-3.3445
X8.2433Y-3.4744
X8.2892Y-3.3635
X8.2892Y-3.4554
X8.3083Y-3.4094
X5.1862Y-3.4094
X5.2052Y-3.3635
X5.2052Y-3.4554
X5.2512Y-3.3445
X5.2512Y-3.4744
X5.2971Y-3.3635
X5.2971Y-3.4554
X5.3161Y-3.4094
X9.3594Y-3.0945
X9.3785Y-3.0486
X9.3785Y-3.1404
X9.4244Y-3.0295
X9.4244Y-3.1594
X9.4703Y-3.0486
X9.4703Y-3.1404
X9.4894Y-3.0945
X7.8634Y-2.1087
X7.8824Y-2.0627
X7.8824Y-2.1546
X7.9283Y-2.0437
X7.9283Y-2.1736
X7.9743Y-2.0627
X7.9743Y-2.1546
X7.9933Y-2.1087
X5.1862Y-4.7087
X5.2052Y-4.6627
X5.2052Y-4.7546
X5.2512Y-4.6437
X5.2512Y-4.7736
X5.2971Y-4.6627
X5.2971Y-4.7546
X5.3161Y-4.7087
X8.1783Y-2.1102
X8.1974Y-2.0643
X8.1974Y-2.1562
X8.2433Y-2.0453
X8.2433Y-2.1752
X8.2892Y-2.0643
X8.2892Y-2.1562
X8.3083Y-2.1102
X6.3673Y-3.4079
X6.3863Y-3.3619
X6.3863Y-3.4538
X6.4323Y-3.3429
X6.4323Y-3.4728
X6.4782Y-3.3619
X6.4782Y-3.4538
X6.4972Y-3.4079
X9.6744Y-2.1102
X9.6934Y-2.0643
X9.6934Y-2.1562
X9.7394Y-2.0453
X9.7394Y-2.1752
X9.7853Y-2.0643
X9.7853Y-2.1562
X9.8043Y-2.1102
X9.3594Y-5.6929
X9.3785Y-5.647
X9.3785Y-5.7388
X9.4244Y-5.628
X9.4244Y-5.7579
X9.4703Y-5.647
X9.4703Y-5.7388
X9.4894Y-5.6929
X5.1862Y-4.3937
X5.2052Y-4.3478
X5.2052Y-4.4396
X5.2512Y-4.3287
X5.2512Y-4.4587
X5.2971Y-4.3478
X5.2971Y-4.4396
X5.3161Y-4.3937
X8.1783Y-4.7087
X8.1974Y-4.6627
X8.1974Y-4.7546
X8.2433Y-4.6437
X8.2433Y-4.7736
X8.2892Y-4.6627
X8.2892Y-4.7546
X8.3083Y-4.7087
X7.8634Y-4.3937
X7.8824Y-4.3478
X7.8824Y-4.4396
X7.9283Y-4.3287
X7.9283Y-4.4587
X7.9743Y-4.3478
X7.9743Y-4.4396
X7.9933Y-4.3937
X9.3594Y-4.3937
X9.3785Y-4.3478
X9.3785Y-4.4396
X9.4244Y-4.3287
X9.4244Y-4.4587
X9.4703Y-4.3478
X9.4703Y-4.4396
X9.4894Y-4.3937
X9.3594Y-3.4079
X9.3785Y-3.3619
X9.3785Y-3.4538
X9.4244Y-3.3429
X9.4244Y-3.4728
X9.4703Y-3.3619
X9.4703Y-3.4538
X9.4894Y-3.4079
X10.8555Y-3.0945
X10.8745Y-3.0486
X10.8745Y-3.1404
X10.9205Y-3.0295
X10.9205Y-3.1594
X10.9664Y-3.0486
X10.9664Y-3.1404
X10.9854Y-3.0945
X6.3673Y-4.3937
X6.3863Y-4.3478
X6.3863Y-4.4396
X6.4323Y-4.3287
X6.4323Y-4.4587
X6.4782Y-4.3478
X6.4782Y-4.4396
X6.4972Y-4.3937
X6.6823Y-4.3937
X6.7013Y-4.3478
X6.7013Y-4.4396
X6.7472Y-4.3287
X6.7472Y-4.4587
X6.7932Y-4.3478
X6.7932Y-4.4396
X6.8122Y-4.3937
X9.6744Y-4.3937
X9.6934Y-4.3478
X9.6934Y-4.4396
X9.7394Y-4.3287
X9.7394Y-4.4587
X9.7853Y-4.3478
X9.7853Y-4.4396
X9.8043Y-4.3937
X7.8634Y-4.7071
X7.8824Y-4.6612
X7.8824Y-4.753
X7.9283Y-4.6421
X7.9283Y-4.772
X7.9743Y-4.6612
X7.9743Y-4.753
X7.9933Y-4.7071
X5.1862Y-5.6929
X5.2052Y-5.647
X5.2052Y-5.7388
X5.2512Y-5.628
X5.2512Y-5.7579
X5.2971Y-5.647
X5.2971Y-5.7388
X5.3161Y-5.6929
X10.8555Y-2.1087
X10.8745Y-2.0627
X10.8745Y-2.1546
X10.9205Y-2.0437
X10.9205Y-2.1736
X10.9664Y-2.0627
X10.9664Y-2.1546
X10.9854Y-2.1087
X8.1783Y-3.0945
X8.1974Y-3.0486
X8.1974Y-3.1404
X8.2433Y-3.0295
X8.2433Y-3.1594
X8.2892Y-3.0486
X8.2892Y-3.1404
X8.3083Y-3.0945
X9.6744Y-5.6929
X9.6934Y-5.647
X9.6934Y-5.7388
X9.7394Y-5.628
X9.7394Y-5.7579
X9.7853Y-5.647
X9.7853Y-5.7388
X9.8043Y-5.6929
X9.3594Y-2.1087
X9.3785Y-2.0627
X9.3785Y-2.1546
X9.4244Y-2.0437
X9.4244Y-2.1736
X9.4703Y-2.0627
X9.4703Y-2.1546
X9.4894Y-2.1087
X10.8555Y-4.3937
X10.8745Y-4.3478
X10.8745Y-4.4396
X10.9205Y-4.3287
X10.9205Y-4.4587
X10.9664Y-4.3478
X10.9664Y-4.4396
X10.9854Y-4.3937
X6.6823Y-3.0945
X6.7013Y-3.0486
X6.7013Y-3.1404
X6.7472Y-3.0295
X6.7472Y-3.1594
X6.7932Y-3.0486
X6.7932Y-3.1404
X6.8122Y-3.0945
X9.3594Y-4.7071
X9.3785Y-4.6612
X9.3785Y-4.753
X9.4244Y-4.6421
X9.4244Y-4.772
X9.4703Y-4.6612
X9.4703Y-4.753
X9.4894Y-4.7071
X7.8634Y-3.4079
X7.8824Y-3.3619
X7.8824Y-3.4538
X7.9283Y-3.3429
X7.9283Y-3.4728
X7.9743Y-3.3619
X7.9743Y-3.4538
X7.9933Y-3.4079
X9.6744Y-3.4094
X9.6934Y-3.3635
X9.6934Y-3.4554
X9.7394Y-3.3445
X9.7394Y-3.4744
X9.7853Y-3.3635
X9.7853Y-3.4554
X9.8043Y-3.4094
X6.6823Y-3.4094
X6.7013Y-3.3635
X6.7013Y-3.4554
X6.7472Y-3.3445
X6.7472Y-3.4744
X6.7932Y-3.3635
X6.7932Y-3.4554
X6.8122Y-3.4094
X8.1783Y-5.6929
X8.1974Y-5.647
X8.1974Y-5.7388
X8.2433Y-5.628
X8.2433Y-5.7579
X8.2892Y-5.647
X8.2892Y-5.7388
X8.3083Y-5.6929
X6.6823Y-4.7087
X6.7013Y-4.6627
X6.7013Y-4.7546
X6.7472Y-4.6437
X6.7472Y-4.7736
X6.7932Y-4.6627
X6.7932Y-4.7546
X6.8122Y-4.7087
X6.6823Y-2.1102
X6.7013Y-2.0643
X6.7013Y-2.1562
X6.7472Y-2.0453
X6.7472Y-2.1752
X6.7932Y-2.0643
X6.7932Y-2.1562
X6.8122Y-2.1102
T4
X9.878Y-5.4921
X6.8858Y-2.8937
X6.8858Y-4.1929
X8.3819Y-4.1929
X8.3819Y-5.4921
X9.878Y-4.1929
X6.8858Y-5.4921
X5.3898Y-5.4921
X5.3898Y-2.8937
X8.3819Y-2.8937
X5.3898Y-4.1929
X9.878Y-2.8937
T5
X9.7394Y-4.3937
X7.9283Y-4.7071
X5.2512Y-5.6929
X10.9205Y-2.1087
X8.2433Y-3.0945
X9.7394Y-5.6929
X9.4244Y-2.1087
X10.9205Y-4.3937
X6.7472Y-3.0945
X9.4244Y-4.7071
X7.9283Y-3.4079
X9.7394Y-3.4094
X6.7472Y-3.4094
X8.2433Y-5.6929
X6.7472Y-4.7087
X6.7472Y-2.1102
X8.2433Y-4.3937
X6.4323Y-2.1087
X5.2512Y-3.0945
X6.4323Y-4.7071
X10.9205Y-5.6929
X10.9205Y-4.7071
X7.9283Y-5.6929
X6.7472Y-5.6929
X6.4323Y-3.0945
X6.4323Y-5.6929
X5.2512Y-2.1102
X9.7394Y-3.0945
X9.7394Y-4.7087
X10.9205Y-3.4079
X7.9283Y-3.0945
X8.2433Y-3.4094
X5.2512Y-3.4094
X9.4244Y-3.0945
X7.9283Y-2.1087
X5.2512Y-4.7087
X8.2433Y-2.1102
X6.4323Y-3.4079
X9.7394Y-2.1102
X9.4244Y-5.6929
X5.2512Y-4.3937
X8.2433Y-4.7087
X7.9283Y-4.3937
X9.4244Y-4.3937
X9.4244Y-3.4079
X10.9205Y-3.0945
X6.4323Y-4.3937
X6.7472Y-4.3937
T6
X9.2933Y-3.5988
X9.2933Y-3.8264
X7.7972Y-3.5988
X7.7972Y-3.8264
X9.2933Y-4.898
X9.2933Y-5.1256
X7.7972Y-2.2996
X7.7972Y-2.5272
X6.3012Y-2.2996
X6.3012Y-2.5272
X10.7894Y-4.898
X10.7894Y-5.1256
X7.7972Y-4.898
X7.7972Y-5.1256
X6.3012Y-3.5988
X6.3012Y-3.8264
X10.7894Y-2.2996
X10.7894Y-2.5272
X10.7894Y-3.5988
X10.7894Y-3.8264
X6.3012Y-4.898
X6.3012Y-5.1256
X9.2933Y-2.2996
X9.2933Y-2.5272
T7
X7.5348Y-2.9181
X7.5748Y-2.6181
X7.6148Y-2.9181
X6.0387Y-5.5165
X6.0787Y-5.2165
X6.1187Y-5.5165
X10.5269Y-2.9181
X10.5669Y-2.6181
X10.6069Y-2.9181
X10.5269Y-5.5165
X10.5669Y-5.2165
X10.6069Y-5.5165
X6.0387Y-2.9181
X6.0787Y-2.6181
X6.1187Y-2.9181
X6.0387Y-4.2173
X6.0787Y-3.9173
X6.1187Y-4.2173
X9.0309Y-2.9181
X9.0709Y-2.6181
X9.1109Y-2.9181
X9.0309Y-5.5165
X9.0709Y-5.2165
X9.1109Y-5.5165
X9.0309Y-4.2173
X9.0709Y-3.9173
X9.1109Y-4.2173
X7.5348Y-4.2173
X7.5748Y-3.9173
X7.6148Y-4.2173
X7.5348Y-5.5165
X7.5748Y-5.2165
X7.6148Y-5.5165
X10.5269Y-4.2173
X10.5669Y-3.9173
X10.6069Y-4.2173
T8
X5.0642Y-5.8799
X5.074Y-1.9331
X11.1075Y-5.8799
X11.0976Y-1.9331
T3
G00X7.8Y-3.5425
M15
G01X7.7567Y-3.5425
M16
G05
G00X7.8Y-3.8827
M15
G01X7.7567Y-3.8827
M16
G05
G00X7.9583Y-3.5425
M15
G01X7.9268Y-3.5425
M16
G05
G00X7.9583Y-3.8827
M15
G01X7.9268Y-3.8827
M16
G05
G00X9.2961Y-4.8417
M15
G01X9.2528Y-4.8417
M16
G05
G00X9.2961Y-5.1819
M15
G01X9.2528Y-5.1819
M16
G05
G00X9.4543Y-4.8417
M15
G01X9.4228Y-4.8417
M16
G05
G00X9.4543Y-5.1819
M15
G01X9.4228Y-5.1819
M16
G05
G00X7.8Y-2.2433
M15
G01X7.7567Y-2.2433
M16
G05
G00X7.8Y-2.5835
M15
G01X7.7567Y-2.5835
M16
G05
G00X7.9583Y-2.2433
M15
G01X7.9268Y-2.2433
M16
G05
G00X7.9583Y-2.5835
M15
G01X7.9268Y-2.5835
M16
G05
G00X6.3039Y-2.2433
M15
G01X6.2606Y-2.2433
M16
G05
G00X6.3039Y-2.5835
M15
G01X6.2606Y-2.5835
M16
G05
G00X6.4622Y-2.2433
M15
G01X6.4307Y-2.2433
M16
G05
G00X6.4622Y-2.5835
M15
G01X6.4307Y-2.5835
M16
G05
G00X10.7921Y-4.8417
M15
G01X10.7488Y-4.8417
M16
G05
G00X10.7921Y-5.1819
M15
G01X10.7488Y-5.1819
M16
G05
G00X10.9504Y-4.8417
M15
G01X10.9189Y-4.8417
M16
G05
G00X10.9504Y-5.1819
M15
G01X10.9189Y-5.1819
M16
G05
G00X7.8Y-4.8417
M15
G01X7.7567Y-4.8417
M16
G05
G00X7.8Y-5.1819
M15
G01X7.7567Y-5.1819
M16
G05
G00X7.9583Y-4.8417
M15
G01X7.9268Y-4.8417
M16
G05
G00X7.9583Y-5.1819
M15
G01X7.9268Y-5.1819
M16
G05
G00X6.3039Y-3.5425
M15
G01X6.2606Y-3.5425
M16
G05
G00X6.3039Y-3.8827
M15
G01X6.2606Y-3.8827
M16
G05
G00X6.4622Y-3.5425
M15
G01X6.4307Y-3.5425
M16
G05
G00X6.4622Y-3.8827
M15
G01X6.4307Y-3.8827
M16
G05
G00X10.7921Y-2.2433
M15
G01X10.7488Y-2.2433
M16
G05
G00X10.7921Y-2.5835
M15
G01X10.7488Y-2.5835
M16
G05
G00X10.9504Y-2.2433
M15
G01X10.9189Y-2.2433
M16
G05
G00X10.9504Y-2.5835
M15
G01X10.9189Y-2.5835
M16
G05
G00X10.7921Y-3.5425
M15
G01X10.7488Y-3.5425
M16
G05
G00X10.7921Y-3.8827
M15
G01X10.7488Y-3.8827
M16
G05
G00X10.9504Y-3.5425
M15
G01X10.9189Y-3.5425
M16
G05
G00X10.9504Y-3.8827
M15
G01X10.9189Y-3.8827
M16
G05
G00X6.3039Y-4.8417
M15
G01X6.2606Y-4.8417
M16
G05
G00X6.3039Y-5.1819
M15
G01X6.2606Y-5.1819
M16
G05
G00X6.4622Y-4.8417
M15
G01X6.4307Y-4.8417
M16
G05
G00X6.4622Y-5.1819
M15
G01X6.4307Y-5.1819
M16
G05
G00X9.2961Y-2.2433
M15
G01X9.2528Y-2.2433
M16
G05
G00X9.2961Y-2.5835
M15
G01X9.2528Y-2.5835
M16
G05
G00X9.4543Y-2.2433
M15
G01X9.4228Y-2.2433
M16
G05
G00X9.4543Y-2.5835
M15
G01X9.4228Y-2.5835
M16
G05
G00X9.2961Y-3.5425
M15
G01X9.2528Y-3.5425
M16
G05
G00X9.2961Y-3.8827
M15
G01X9.2528Y-3.8827
M16
G05
G00X9.4543Y-3.5425
M15
G01X9.4228Y-3.5425
M16
G05
G00X9.4543Y-3.8827
M15
G01X9.4228Y-3.8827
M16
G05
T0
M30
