M48
; DRILL file {KiCad 5.1.5-52549c5~84~ubuntu19.04.1} date Mon 24 Feb 2020 03:22:42 PM CST
; FORMAT={-:-/ absolute / inch / decimal}
; #@! TF.CreationDate,2020-02-24T15:22:42-06:00
; #@! TF.GenerationSoftware,Kicad,Pcbnew,5.1.5-52549c5~84~ubuntu19.04.1
FMAT,2
INCH
T1C0.0079
T2C0.0098
T3C0.0157
T4C0.0236
T5C0.0394
T6C0.0866
T7C0.0236
T8C0.0390
T9C0.0866
%
G90
G05
T1
X5.683Y-3.0909
X5.683Y-4.272
X5.683Y-5.4531
X5.705Y-2.9062
X5.705Y-4.0873
X5.705Y-5.2684
X7.1003Y-3.0909
X7.1003Y-4.272
X7.1003Y-5.4531
X7.1223Y-2.9062
X7.1223Y-4.0873
X7.1223Y-5.2684
X8.5176Y-3.0909
X8.5176Y-4.272
X8.5176Y-5.4531
X8.5397Y-2.9062
X8.5397Y-4.0873
X8.5397Y-5.2684
X9.935Y-3.0909
X9.935Y-4.272
X9.935Y-5.4531
X9.957Y-2.9062
X9.957Y-4.0873
X9.957Y-5.2684
X5.7937Y-3.6098
X5.7937Y-3.6413
X10.0457Y-4.7909
X10.0457Y-4.8224
X8.6283Y-3.6098
X8.6283Y-3.6413
X7.211Y-4.7909
X7.211Y-4.8224
X8.6283Y-2.4287
X8.6283Y-2.4602
X5.7937Y-4.7909
X5.7937Y-4.8224
X10.0457Y-3.6098
X10.0457Y-3.6413
X7.211Y-2.4287
X7.211Y-2.4602
X5.7937Y-2.4287
X5.7937Y-2.4602
X10.0457Y-2.4287
X10.0457Y-2.4602
X7.211Y-3.6098
X7.211Y-3.6413
X8.6283Y-4.7909
X8.6283Y-4.8224
T2
X5.1693Y-2.7126
X5.1693Y-3.8937
X5.1693Y-5.0748
X5.1703Y-2.688
X5.1703Y-3.8691
X5.1703Y-5.0502
X5.1724Y-2.0315
X5.1724Y-2.189
X5.1724Y-2.2382
X5.1724Y-2.2874
X5.1724Y-2.3465
X5.1724Y-2.4055
X5.1724Y-2.7795
X5.1724Y-2.8287
X5.1724Y-2.8976
X5.1724Y-2.9567
X5.1724Y-3.0157
X5.1724Y-3.1732
X5.1724Y-3.2126
X5.1724Y-3.3701
X5.1724Y-3.4193
X5.1724Y-3.4685
X5.1724Y-3.5276
X5.1724Y-3.5866
X5.1724Y-3.9606
X5.1724Y-4.0098
X5.1724Y-4.0787
X5.1724Y-4.1378
X5.1724Y-4.1969
X5.1724Y-4.3543
X5.1724Y-4.3937
X5.1724Y-4.5512
X5.1724Y-4.6004
X5.1724Y-4.6496
X5.1724Y-4.7087
X5.1724Y-4.7677
X5.1724Y-5.1417
X5.1724Y-5.1909
X5.1724Y-5.2598
X5.1724Y-5.3189
X5.1724Y-5.378
X5.1724Y-5.5354
X5.1764Y-2.7362
X5.1764Y-3.9173
X5.1764Y-5.0984
X5.2039Y-2.7362
X5.2039Y-3.9173
X5.2039Y-5.0984
X5.2077Y-2.686
X5.2077Y-3.8671
X5.2077Y-5.0482
X5.2094Y-2.8476
X5.2094Y-4.0287
X5.2094Y-5.2098
X5.2138Y-2.8177
X5.2138Y-3.9988
X5.2138Y-5.1799
X5.2197Y-2.7598
X5.2197Y-2.7874
X5.2197Y-3.9409
X5.2197Y-3.9685
X5.2197Y-5.122
X5.2197Y-5.1496
X5.2236Y-2.4055
X5.2236Y-2.8846
X5.2236Y-3.5866
X5.2236Y-4.0657
X5.2236Y-4.7677
X5.2236Y-5.2469
X5.2333Y-2.685
X5.2333Y-3.8661
X5.2333Y-5.0472
X5.2354Y-2.7362
X5.2354Y-3.9173
X5.2354Y-5.0984
X5.2433Y-2.4185
X5.2433Y-3.5996
X5.2433Y-4.7807
X5.2476Y-2.8878
X5.2476Y-4.0689
X5.2476Y-5.25
X5.2579Y-2.4331
X5.2579Y-3.6142
X5.2579Y-4.7953
X5.2685Y-2.8827
X5.2685Y-4.0638
X5.2685Y-5.2449
X5.2709Y-2.4724
X5.2709Y-2.5079
X5.2709Y-2.5433
X5.2709Y-2.6654
X5.2709Y-3.6535
X5.2709Y-3.689
X5.2709Y-3.7244
X5.2709Y-3.8465
X5.2709Y-4.8346
X5.2709Y-4.8701
X5.2709Y-4.9055
X5.2709Y-5.0276
X5.2717Y-2.5945
X5.2717Y-3.7756
X5.2717Y-4.9567
X5.2746Y-2.6358
X5.2746Y-3.8169
X5.2746Y-4.998
X5.278Y-2.7909
X5.278Y-3.972
X5.278Y-5.1531
X5.2791Y-2.7669
X5.2791Y-3.948
X5.2791Y-5.1291
X5.2823Y-2.8213
X5.2823Y-4.0024
X5.2823Y-5.1835
X5.2846Y-2.8476
X5.2846Y-4.0287
X5.2846Y-5.2098
X5.2906Y-2.3858
X5.2906Y-3.5669
X5.2906Y-4.748
X5.2913Y-2.5827
X5.2913Y-3.7638
X5.2913Y-4.9449
X5.2945Y-2.4843
X5.2945Y-3.6654
X5.2945Y-4.8465
X5.298Y-2.7874
X5.298Y-3.9685
X5.298Y-5.1496
X5.2992Y-2.563
X5.2992Y-3.7441
X5.2992Y-4.9252
X5.3024Y-2.4055
X5.3024Y-3.5866
X5.3024Y-4.7677
X5.3031Y-2.6339
X5.3031Y-3.815
X5.3031Y-4.9961
X5.3142Y-2.5039
X5.3142Y-2.5433
X5.3142Y-3.685
X5.3142Y-3.7244
X5.3142Y-4.8661
X5.3142Y-4.9055
X5.3173Y-2.8051
X5.3173Y-3.9862
X5.3173Y-5.1673
X5.3209Y-2.2075
X5.3209Y-3.3886
X5.3209Y-4.5697
X5.322Y-2.4213
X5.322Y-3.6024
X5.322Y-4.7835
X5.3299Y-2.0315
X5.3299Y-3.1732
X5.3299Y-3.2126
X5.3299Y-4.3543
X5.3299Y-4.3937
X5.3299Y-5.5354
X5.3339Y-2.5236
X5.3339Y-3.7047
X5.3339Y-4.8858
X5.3362Y-2.7173
X5.3362Y-3.8984
X5.3362Y-5.0795
X5.337Y-2.8472
X5.337Y-4.0283
X5.337Y-5.2094
X5.3378Y-2.437
X5.3378Y-3.6181
X5.3378Y-4.7992
X5.3382Y-2.9094
X5.3382Y-4.0906
X5.3382Y-5.2717
X5.339Y-2.8776
X5.339Y-4.0587
X5.339Y-5.2398
X5.3402Y-2.7449
X5.3402Y-2.8185
X5.3402Y-2.9406
X5.3402Y-3.926
X5.3402Y-3.9996
X5.3402Y-4.1217
X5.3402Y-5.1071
X5.3402Y-5.1807
X5.3402Y-5.3028
X5.3461Y-2.2469
X5.3461Y-3.428
X5.3461Y-4.6091
X5.3535Y-2.4528
X5.3535Y-3.6339
X5.3535Y-4.815
X5.3559Y-2.1697
X5.3559Y-3.3508
X5.3559Y-4.5319
X5.3575Y-2.5866
X5.3575Y-2.6961
X5.3575Y-3.7677
X5.3575Y-3.8772
X5.3575Y-4.9488
X5.3575Y-5.0583
X5.3598Y-2.7618
X5.3598Y-3.9429
X5.3598Y-5.124
X5.3606Y-2.8358
X5.3606Y-4.0169
X5.3606Y-5.198
X5.3654Y-2.6142
X5.3654Y-3.7953
X5.3654Y-4.9764
X5.3681Y-2.1138
X5.3681Y-2.9484
X5.3681Y-3.2949
X5.3681Y-4.1295
X5.3681Y-4.476
X5.3681Y-5.3106
X5.3697Y-2.0303
X5.3697Y-3.2114
X5.3697Y-4.3925
X5.3724Y-2.7803
X5.3724Y-3.9614
X5.3724Y-5.1425
X5.3768Y-2.2839
X5.3768Y-3.465
X5.3768Y-4.6461
X5.3772Y-2.5709
X5.3772Y-3.752
X5.3772Y-4.9331
X5.3787Y-2.4094
X5.3787Y-3.5906
X5.3787Y-4.7717
X5.3791Y-3.1732
X5.3791Y-4.3543
X5.3791Y-5.5354
X5.3807Y-2.3217
X5.3807Y-3.5028
X5.3807Y-4.6839
X5.3815Y-2.6685
X5.3815Y-3.8496
X5.3815Y-5.0307
X5.3882Y-2.8024
X5.3882Y-3.9835
X5.3882Y-5.1646
X5.3913Y-2.1866
X5.3913Y-3.3677
X5.3913Y-4.5488
X5.3929Y-2.5866
X5.3929Y-2.6142
X5.3929Y-3.7677
X5.3929Y-3.7953
X5.3929Y-4.9488
X5.3929Y-4.9764
X5.3957Y-2.9496
X5.3957Y-4.1307
X5.3957Y-5.3118
X5.4008Y-2.5
X5.4008Y-3.6811
X5.4008Y-4.8622
X5.4031Y-2.365
X5.4031Y-3.5461
X5.4031Y-4.7272
X5.4098Y-2.8248
X5.4098Y-4.0059
X5.4098Y-5.187
X5.4126Y-2.5984
X5.4126Y-3.7795
X5.4126Y-4.9606
X5.4165Y-2.5157
X5.4165Y-3.6969
X5.4165Y-4.878
X5.4205Y-2.2957
X5.4205Y-2.9504
X5.4205Y-3.4768
X5.4205Y-4.1315
X5.4205Y-4.6579
X5.4205Y-5.3126
X5.4274Y-2.6142
X5.4274Y-3.7953
X5.4274Y-4.9764
X5.428Y-2.1661
X5.428Y-3.3472
X5.428Y-4.5283
X5.4287Y-2.424
X5.4287Y-3.6051
X5.4287Y-4.7862
X5.4295Y-2.8461
X5.4295Y-4.0272
X5.4295Y-5.2083
X5.4323Y-2.5315
X5.4323Y-3.7126
X5.4323Y-4.8937
X5.436Y-2.6732
X5.436Y-3.8543
X5.436Y-5.0354
X5.4382Y-2.0315
X5.4382Y-3.1732
X5.4382Y-3.2126
X5.4382Y-4.3543
X5.4382Y-4.3937
X5.4382Y-5.5354
X5.4433Y-2.9299
X5.4433Y-4.111
X5.4433Y-5.2921
X5.4445Y-2.8701
X5.4445Y-4.0512
X5.4445Y-5.2323
X5.4453Y-2.8984
X5.4453Y-4.0795
X5.4453Y-5.2606
X5.4469Y-2.3201
X5.4469Y-3.5012
X5.4469Y-4.6823
X5.4512Y-2.3752
X5.4512Y-3.5563
X5.4512Y-4.7374
X5.452Y-2.6142
X5.452Y-3.7953
X5.452Y-4.9764
X5.4535Y-2.4791
X5.4535Y-3.6602
X5.4535Y-4.8413
X5.4596Y-2.0965
X5.4596Y-3.2776
X5.4596Y-4.4587
X5.4603Y-2.0406
X5.4603Y-3.2217
X5.4603Y-4.4028
X5.4614Y-2.4311
X5.4614Y-3.6122
X5.4614Y-4.7933
X5.4728Y-2.985
X5.4728Y-4.1661
X5.4728Y-5.3472
X5.475Y-2.0585
X5.475Y-3.2396
X5.475Y-4.4207
X5.4772Y-3.0677
X5.4772Y-4.2488
X5.4772Y-5.4299
X5.4795Y-2.5669
X5.4795Y-3.748
X5.4795Y-4.9291
X5.4813Y-3.1703
X5.4813Y-4.3514
X5.4813Y-5.5325
X5.4913Y-2.4331
X5.4913Y-3.6142
X5.4913Y-4.7953
X5.4931Y-2.8917
X5.4931Y-4.0728
X5.4931Y-5.2539
X5.4933Y-2.6663
X5.4933Y-3.8474
X5.4933Y-5.0285
X5.4969Y-2.915
X5.4969Y-4.0961
X5.4969Y-5.2772
X5.5008Y-2.4854
X5.5008Y-3.6665
X5.5008Y-4.8476
X5.5039Y-2.4132
X5.5039Y-3.5943
X5.5039Y-4.7755
X5.5066Y-2.4552
X5.5066Y-3.6363
X5.5066Y-4.8175
X5.5079Y-2.5197
X5.5079Y-3.7008
X5.5079Y-4.8819
X5.5185Y-2.2894
X5.5185Y-3.4705
X5.5185Y-4.6516
X5.5228Y-2.3818
X5.5228Y-3.5629
X5.5228Y-4.744
X5.5307Y-3.0551
X5.5307Y-4.2362
X5.5307Y-5.4173
X5.5346Y-2.5551
X5.5346Y-3.7362
X5.5346Y-4.9173
X5.5362Y-2.0272
X5.5362Y-3.2083
X5.5362Y-4.3894
X5.5386Y-2.4882
X5.5386Y-3.6693
X5.5386Y-4.8504
X5.5425Y-2.685
X5.5425Y-3.8661
X5.5425Y-5.0472
X5.5547Y-2.148
X5.5547Y-3.3291
X5.5547Y-4.5102
X5.5622Y-2.2555
X5.5622Y-3.4366
X5.5622Y-4.6177
X5.5654Y-2.0492
X5.5654Y-3.2303
X5.5654Y-4.4114
X5.5661Y-2.0984
X5.5661Y-3.2795
X5.5661Y-4.4606
X5.5696Y-3.0768
X5.5696Y-4.2579
X5.5696Y-5.439
X5.571Y-2.2881
X5.571Y-3.4692
X5.571Y-4.6503
X5.576Y-3.1634
X5.576Y-4.3445
X5.576Y-5.5256
X5.577Y-2.5669
X5.577Y-3.748
X5.577Y-4.9291
X5.578Y-2.7318
X5.578Y-3.9129
X5.578Y-5.094
X5.5804Y-2.7556
X5.5804Y-3.9367
X5.5804Y-5.1178
X5.5835Y-2.239
X5.5835Y-3.4201
X5.5835Y-4.6012
X5.5902Y-2.3595
X5.5902Y-3.5406
X5.5902Y-4.7217
X5.5969Y-2.1661
X5.5969Y-3.3472
X5.5969Y-4.5283
X5.6043Y-2.3407
X5.6043Y-3.5218
X5.6043Y-4.7029
X5.6161Y-2.9203
X5.6161Y-4.1014
X5.6161Y-5.2825
X5.6202Y-2.8171
X5.6202Y-3.9982
X5.6202Y-5.1793
X5.628Y-2.9596
X5.628Y-4.1407
X5.628Y-5.3219
X5.6378Y-2.9113
X5.6378Y-4.0924
X5.6378Y-5.2735
X5.6389Y-2.5311
X5.6389Y-3.7122
X5.6389Y-4.8933
X5.6421Y-2.3346
X5.6421Y-3.5157
X5.6421Y-4.6969
X5.6528Y-2.2598
X5.6528Y-3.4409
X5.6528Y-4.622
X5.6594Y-2.9203
X5.6594Y-4.1014
X5.6594Y-5.2825
X5.6606Y-2.2323
X5.6606Y-3.4134
X5.6606Y-4.5945
X5.6622Y-2.461
X5.6622Y-3.6421
X5.6622Y-4.8232
X5.6685Y-3.0551
X5.6685Y-4.2362
X5.6685Y-5.4173
X5.6701Y-2.2929
X5.6701Y-3.474
X5.6701Y-4.6551
X5.6719Y-2.8627
X5.6719Y-4.0438
X5.6719Y-5.2249
X5.672Y-2.0495
X5.672Y-3.2306
X5.672Y-4.4117
X5.6744Y-3.1634
X5.6744Y-4.3445
X5.6744Y-5.5256
X5.6783Y-2.0272
X5.6783Y-3.2083
X5.6783Y-4.3894
X5.6803Y-2.6181
X5.6803Y-3.7992
X5.6803Y-4.9803
X5.6845Y-2.764
X5.6845Y-3.9451
X5.6845Y-5.1263
X5.6846Y-2.0949
X5.6846Y-3.276
X5.6846Y-4.4571
X5.686Y-2.2441
X5.686Y-3.4252
X5.686Y-4.6063
X5.6907Y-2.3643
X5.6907Y-3.5454
X5.6907Y-4.7265
X5.6921Y-2.3976
X5.6921Y-3.5787
X5.6921Y-4.7598
X5.6934Y-2.8873
X5.6934Y-4.0684
X5.6934Y-5.2495
X5.7Y-3.0648
X5.7Y-4.2459
X5.7Y-5.427
X5.7072Y-2.5275
X5.7072Y-3.7087
X5.7072Y-4.8898
X5.7148Y-2.0335
X5.7148Y-3.2146
X5.7148Y-4.3957
X5.7216Y-2.9615
X5.7216Y-4.1426
X5.7216Y-5.3237
X5.7244Y-2.811
X5.7244Y-3.9921
X5.7244Y-5.1732
X5.7267Y-2.4685
X5.7267Y-3.6496
X5.7267Y-4.8308
X5.7285Y-2.5184
X5.7285Y-3.6995
X5.7285Y-4.8806
X5.7308Y-2.3658
X5.7308Y-3.5469
X5.7308Y-4.728
X5.7325Y-2.3965
X5.7325Y-3.5776
X5.7325Y-4.7587
X5.7539Y-3.1378
X5.7539Y-4.3189
X5.7539Y-5.5
X5.7547Y-2.9843
X5.7547Y-4.1654
X5.7547Y-5.3465
X5.7562Y-2.9577
X5.7562Y-4.1388
X5.7562Y-5.3199
X5.7571Y-2.8665
X5.7571Y-4.0476
X5.7571Y-5.2287
X5.7579Y-2.0561
X5.7579Y-3.2372
X5.7579Y-4.4183
X5.7587Y-2.1634
X5.7587Y-3.3445
X5.7587Y-4.5256
X5.7615Y-2.2881
X5.7615Y-3.4692
X5.7615Y-4.6503
X5.763Y-3.0866
X5.763Y-4.2677
X5.763Y-5.4488
X5.7697Y-2.3917
X5.7697Y-3.5728
X5.7697Y-4.7539
X5.771Y-3.0477
X5.771Y-4.2288
X5.771Y-5.4099
X5.7728Y-3.1634
X5.7728Y-4.3445
X5.7728Y-5.5256
X5.7732Y-2.3559
X5.7732Y-3.537
X5.7732Y-4.7181
X5.775Y-2.3278
X5.775Y-3.5089
X5.775Y-4.69
X5.7771Y-2.4838
X5.7771Y-3.6649
X5.7771Y-4.846
X5.7783Y-2.0854
X5.7783Y-3.2665
X5.7783Y-4.4476
X5.7803Y-2.2051
X5.7803Y-3.3862
X5.7803Y-4.5673
X5.7819Y-2.1394
X5.7819Y-2.8657
X5.7819Y-3.3205
X5.7819Y-4.0469
X5.7819Y-4.5016
X5.7819Y-5.228
X5.7886Y-2.248
X5.7886Y-3.4291
X5.7886Y-4.6102
X5.7906Y-2.9291
X5.7906Y-4.1102
X5.7906Y-5.2913
X5.7943Y-2.1083
X5.7943Y-3.2894
X5.7943Y-4.4705
X5.7945Y-3.0079
X5.7945Y-4.189
X5.7945Y-5.3701
X5.8051Y-2.0283
X5.8051Y-3.2094
X5.8051Y-4.3906
X5.8078Y-2.8601
X5.8078Y-4.0412
X5.8078Y-5.2224
X5.8089Y-2.492
X5.8089Y-3.6731
X5.8089Y-4.8542
X5.8189Y-2.185
X5.8189Y-3.3661
X5.8189Y-4.5472
X5.822Y-2.815
X5.822Y-3.9961
X5.822Y-5.1772
X5.824Y-3.0657
X5.824Y-4.2469
X5.824Y-5.428
X5.826Y-2.0425
X5.826Y-2.7638
X5.826Y-3.2236
X5.826Y-3.9449
X5.826Y-4.4047
X5.826Y-5.126
X5.8412Y-2.3858
X5.8412Y-3.5669
X5.8412Y-4.748
X5.8417Y-2.5079
X5.8417Y-3.689
X5.8417Y-4.8701
X5.8571Y-3.0811
X5.8571Y-4.2622
X5.8571Y-5.4433
X5.8676Y-3.0509
X5.8676Y-4.232
X5.8676Y-5.4131
X5.8681Y-3.1506
X5.8681Y-4.3317
X5.8681Y-5.5128
X5.8693Y-2.2531
X5.8693Y-3.4343
X5.8693Y-4.6154
X5.8697Y-2.2031
X5.8697Y-3.3843
X5.8697Y-4.5654
X5.87Y-2.742
X5.87Y-3.9231
X5.87Y-5.1042
X5.8709Y-2.3976
X5.8709Y-3.5787
X5.8709Y-4.7598
X5.8711Y-2.686
X5.8711Y-3.8671
X5.8711Y-5.0482
X5.8724Y-2.3362
X5.8724Y-3.5173
X5.8724Y-4.6984
X5.874Y-2.5325
X5.874Y-3.7136
X5.874Y-4.8947
X5.8783Y-2.1449
X5.8783Y-3.326
X5.8783Y-4.5071
X5.8789Y-2.8297
X5.8789Y-4.0108
X5.8789Y-5.1919
X5.8858Y-2.4157
X5.8858Y-3.5969
X5.8858Y-4.778
X5.8878Y-2.561
X5.8878Y-3.7421
X5.8878Y-4.9232
X5.8894Y-2.6453
X5.8894Y-3.8264
X5.8894Y-5.0075
X5.8902Y-2.265
X5.8902Y-3.4461
X5.8902Y-4.6272
X5.8965Y-2.5118
X5.8965Y-3.6929
X5.8965Y-4.874
X5.9Y-2.4543
X5.9Y-3.6354
X5.9Y-4.8165
X5.9026Y-2.8189
X5.9026Y-4.0
X5.9026Y-5.1811
X5.9102Y-3.1187
X5.9102Y-4.2998
X5.9102Y-5.4809
X5.912Y-2.7639
X5.912Y-3.945
X5.912Y-5.1261
X5.9121Y-2.6623
X5.9121Y-3.8435
X5.9121Y-5.0246
X5.9142Y-2.7026
X5.9142Y-3.8837
X5.9142Y-5.0648
X5.9173Y-2.7864
X5.9173Y-3.9675
X5.9173Y-5.1486
X5.9177Y-2.0473
X5.9177Y-3.2284
X5.9177Y-4.4095
X5.9183Y-2.7254
X5.9183Y-3.9065
X5.9183Y-5.0876
X5.9185Y-2.9362
X5.9185Y-4.1173
X5.9185Y-5.2984
X5.9229Y-2.6221
X5.9229Y-3.8032
X5.9229Y-4.9843
X5.9272Y-2.188
X5.9272Y-3.3691
X5.9272Y-4.5502
X5.9306Y-2.5981
X5.9306Y-3.7792
X5.9306Y-4.9603
X5.935Y-2.3925
X5.935Y-3.5736
X5.935Y-4.7547
X5.9366Y-2.0303
X5.9366Y-3.2114
X5.9366Y-4.3925
X5.9372Y-2.4605
X5.9372Y-3.6416
X5.9372Y-4.8227
X5.938Y-2.7441
X5.938Y-3.9252
X5.938Y-5.1063
X5.9389Y-2.679
X5.9389Y-3.8601
X5.9389Y-5.0412
X5.9577Y-2.8642
X5.9577Y-4.0453
X5.9577Y-5.2264
X5.9678Y-2.1053
X5.9678Y-3.2864
X5.9678Y-4.4675
X5.9691Y-2.6787
X5.9691Y-3.8598
X5.9691Y-5.0409
X5.9701Y-3.0146
X5.9701Y-4.1957
X5.9701Y-5.3768
X5.9734Y-3.1516
X5.9734Y-4.3327
X5.9734Y-5.5138
X5.9754Y-2.9124
X5.9754Y-4.0935
X5.9754Y-5.2746
X5.9884Y-2.2874
X5.9884Y-3.4685
X5.9884Y-4.6496
X5.989Y-2.3523
X5.989Y-3.5334
X5.989Y-4.7145
X5.9894Y-2.4224
X5.9894Y-3.6035
X5.9894Y-4.7846
X5.9921Y-2.6817
X5.9921Y-3.8628
X5.9921Y-5.0439
X5.9948Y-2.5616
X5.9948Y-3.7427
X5.9948Y-4.9238
X5.9957Y-2.7913
X5.9957Y-3.9724
X5.9957Y-5.1535
X5.9957Y-2.6058
X5.9957Y-3.7869
X5.9957Y-4.968
X6.0115Y-2.7012
X6.0115Y-3.8823
X6.0115Y-5.0634
X6.0226Y-2.9597
X6.0226Y-4.1408
X6.0226Y-5.3219
X6.0226Y-2.1683
X6.0226Y-3.3494
X6.0226Y-4.5305
X6.0228Y-2.8622
X6.0228Y-4.0433
X6.0228Y-5.2244
X6.0254Y-2.8236
X6.0254Y-4.0047
X6.0254Y-5.1858
X6.0272Y-2.7437
X6.0272Y-3.9248
X6.0272Y-5.1059
X6.0277Y-2.6557
X6.0277Y-3.8368
X6.0277Y-5.0179
X6.0283Y-2.435
X6.0283Y-3.6161
X6.0283Y-4.7972
X6.0401Y-2.0317
X6.0401Y-3.2128
X6.0401Y-4.3939
X6.0426Y-2.5842
X6.0426Y-3.7653
X6.0426Y-4.9464
X6.048Y-2.3591
X6.048Y-3.5402
X6.048Y-4.7213
X6.0549Y-2.2118
X6.0549Y-3.3929
X6.0549Y-4.574
X6.0578Y-2.9923
X6.0578Y-4.1734
X6.0578Y-5.3545
X6.0633Y-2.0315
X6.0633Y-3.2126
X6.0633Y-4.3937
X6.064Y-2.1053
X6.064Y-3.2864
X6.064Y-4.4675
X6.0648Y-2.9701
X6.0648Y-4.1512
X6.0648Y-5.3323
X6.0693Y-3.148
X6.0693Y-4.3291
X6.0693Y-5.5102
X6.0735Y-2.8419
X6.0735Y-4.023
X6.0735Y-5.2041
X6.0736Y-2.4567
X6.0736Y-3.6378
X6.0736Y-4.8189
X6.0858Y-2.6929
X6.0858Y-3.874
X6.0858Y-5.0551
X6.0869Y-2.0605
X6.0869Y-3.2416
X6.0869Y-4.4227
X6.0872Y-2.7427
X6.0872Y-3.9238
X6.0872Y-5.1049
X6.0874Y-3.1786
X6.0874Y-4.3597
X6.0874Y-5.5408
X6.0876Y-2.9442
X6.0876Y-4.1253
X6.0876Y-5.3064
X6.0878Y-2.57
X6.0878Y-3.7511
X6.0878Y-4.9322
X6.0886Y-2.513
X6.0886Y-3.6941
X6.0886Y-4.8752
X6.0886Y-3.0041
X6.0886Y-4.1852
X6.0886Y-5.3663
X6.0976Y-2.1693
X6.0976Y-3.3504
X6.0976Y-4.5315
X6.1115Y-2.5782
X6.1115Y-3.7593
X6.1115Y-4.9404
X6.1181Y-2.7931
X6.1181Y-3.9742
X6.1181Y-5.1553
X6.1213Y-2.5477
X6.1213Y-3.7288
X6.1213Y-4.9099
X6.126Y-2.8461
X6.126Y-4.0272
X6.126Y-5.2083
X6.1343Y-2.4323
X6.1343Y-3.6134
X6.1343Y-4.7945
X6.1528Y-2.2874
X6.1528Y-3.4685
X6.1528Y-4.6496
X6.1533Y-2.6821
X6.1533Y-3.8632
X6.1533Y-5.0443
X6.161Y-2.0311
X6.161Y-3.2122
X6.161Y-4.3933
X6.1617Y-3.035
X6.1617Y-4.2161
X6.1617Y-5.3972
X6.1663Y-2.9931
X6.1663Y-4.1742
X6.1663Y-5.3553
X6.1685Y-2.0945
X6.1685Y-2.2441
X6.1685Y-3.2756
X6.1685Y-3.4252
X6.1685Y-4.4567
X6.1685Y-4.6063
X6.1736Y-2.6949
X6.1736Y-3.876
X6.1736Y-5.0571
X6.1795Y-3.1099
X6.1795Y-4.291
X6.1795Y-5.4721
X6.1811Y-2.5842
X6.1811Y-3.7653
X6.1811Y-4.9464
X6.1874Y-2.2827
X6.1874Y-3.4638
X6.1874Y-4.6449
X6.198Y-2.9291
X6.198Y-4.1102
X6.198Y-5.2913
X6.2Y-2.1972
X6.2Y-3.3783
X6.2Y-4.5594
X6.202Y-2.0364
X6.202Y-3.2175
X6.202Y-4.3986
X6.2087Y-2.2835
X6.2087Y-3.4646
X6.2087Y-4.6457
X6.2118Y-2.248
X6.2118Y-3.4291
X6.2118Y-4.6102
X6.215Y-3.1284
X6.215Y-4.3095
X6.215Y-5.4906
X6.2203Y-3.0203
X6.2203Y-4.2014
X6.2203Y-5.3825
X6.2209Y-2.3882
X6.2209Y-3.5693
X6.2209Y-4.7504
X6.2234Y-2.3012
X6.2234Y-3.4823
X6.2234Y-4.6634
X6.2366Y-2.1244
X6.2366Y-3.3055
X6.2366Y-4.4866
X6.2388Y-2.6216
X6.2388Y-3.8027
X6.2388Y-4.9838
X6.2433Y-2.0768
X6.2433Y-3.2579
X6.2433Y-4.439
X6.2492Y-3.1622
X6.2492Y-4.3433
X6.2492Y-5.5244
X6.2524Y-3.0622
X6.2524Y-4.2433
X6.2524Y-5.4244
X6.2551Y-2.7992
X6.2551Y-2.8878
X6.2551Y-3.9803
X6.2551Y-4.0689
X6.2551Y-5.1614
X6.2551Y-5.25
X6.2709Y-2.9173
X6.2709Y-4.0984
X6.2709Y-5.2795
X6.2724Y-2.6862
X6.2724Y-3.8673
X6.2724Y-5.0484
X6.2782Y-2.5016
X6.2782Y-3.6827
X6.2782Y-4.8638
X6.2787Y-3.1339
X6.2787Y-4.315
X6.2787Y-5.4961
X6.2827Y-3.0276
X6.2827Y-4.2087
X6.2827Y-5.3898
X6.3079Y-2.3268
X6.3079Y-3.5079
X6.3079Y-4.689
X6.3181Y-2.8898
X6.3181Y-4.0709
X6.3181Y-5.252
X6.319Y-2.6862
X6.319Y-3.8673
X6.319Y-5.0484
X6.3272Y-2.2756
X6.3272Y-3.4567
X6.3272Y-4.6378
X6.3278Y-2.6136
X6.3278Y-3.7947
X6.3278Y-4.9758
X6.3306Y-2.4731
X6.3306Y-3.6542
X6.3306Y-4.8353
X6.3347Y-2.9741
X6.3347Y-4.1552
X6.3347Y-5.3363
X6.3381Y-2.6359
X6.3381Y-3.817
X6.3381Y-4.9981
X6.3398Y-2.7146
X6.3398Y-3.8957
X6.3398Y-5.0768
X6.3512Y-3.0039
X6.3512Y-4.185
X6.3512Y-5.3661
X6.3535Y-3.1732
X6.3535Y-4.3543
X6.3535Y-5.5354
X6.3554Y-2.4744
X6.3554Y-3.6555
X6.3554Y-4.8366
X6.3555Y-2.572
X6.3555Y-3.7531
X6.3555Y-4.9343
X6.3575Y-2.3018
X6.3575Y-3.4829
X6.3575Y-4.664
X6.3634Y-2.8819
X6.3634Y-4.063
X6.3634Y-5.2441
X6.3686Y-2.9173
X6.3686Y-4.0984
X6.3686Y-5.2795
X6.3705Y-2.6193
X6.3705Y-3.8004
X6.3705Y-4.9815
X6.3736Y-2.2819
X6.3736Y-3.463
X6.3736Y-4.6441
X6.3913Y-2.59
X6.3913Y-3.7711
X6.3913Y-4.9522
X6.4126Y-2.7205
X6.4126Y-2.7992
X6.4126Y-2.8878
X6.4126Y-3.9016
X6.4126Y-3.9803
X6.4126Y-4.0689
X6.4126Y-5.0827
X6.4126Y-5.1614
X6.4126Y-5.25
X6.4364Y-2.6209
X6.4364Y-3.802
X6.4364Y-4.9831
X6.4378Y-2.311
X6.4378Y-3.4921
X6.4378Y-4.6732
X6.4496Y-2.5098
X6.4496Y-3.6909
X6.4496Y-4.872
X6.4843Y-2.628
X6.4843Y-3.8091
X6.4843Y-4.9902
X6.5028Y-2.872
X6.5028Y-2.872
X6.5028Y-4.0531
X6.5028Y-4.0531
X6.5028Y-5.2343
X6.5028Y-5.2343
X6.5047Y-3.0016
X6.5047Y-4.1827
X6.5047Y-5.3638
X6.511Y-2.7579
X6.511Y-3.1732
X6.511Y-3.939
X6.511Y-4.3543
X6.511Y-5.1201
X6.511Y-5.5354
X6.5164Y-3.022
X6.5164Y-4.2031
X6.5164Y-5.3843
X6.5866Y-2.7126
X6.5866Y-3.8937
X6.5866Y-5.0748
X6.5876Y-2.688
X6.5876Y-3.8691
X6.5876Y-5.0502
X6.5898Y-2.0315
X6.5898Y-2.189
X6.5898Y-2.2382
X6.5898Y-2.2874
X6.5898Y-2.3465
X6.5898Y-2.4055
X6.5898Y-2.7795
X6.5898Y-2.8287
X6.5898Y-2.8976
X6.5898Y-2.9567
X6.5898Y-3.0157
X6.5898Y-3.1732
X6.5898Y-3.2126
X6.5898Y-3.3701
X6.5898Y-3.4193
X6.5898Y-3.4685
X6.5898Y-3.5276
X6.5898Y-3.5866
X6.5898Y-3.9606
X6.5898Y-4.0098
X6.5898Y-4.0787
X6.5898Y-4.1378
X6.5898Y-4.1969
X6.5898Y-4.3543
X6.5898Y-4.3937
X6.5898Y-4.5512
X6.5898Y-4.6004
X6.5898Y-4.6496
X6.5898Y-4.7087
X6.5898Y-4.7677
X6.5898Y-5.1417
X6.5898Y-5.1909
X6.5898Y-5.2598
X6.5898Y-5.3189
X6.5898Y-5.378
X6.5898Y-5.5354
X6.5937Y-2.7362
X6.5937Y-3.9173
X6.5937Y-5.0984
X6.6213Y-2.7362
X6.6213Y-3.9173
X6.6213Y-5.0984
X6.625Y-2.686
X6.625Y-3.8671
X6.625Y-5.0482
X6.6268Y-2.8476
X6.6268Y-4.0287
X6.6268Y-5.2098
X6.6311Y-2.8177
X6.6311Y-3.9988
X6.6311Y-5.1799
X6.637Y-2.7598
X6.637Y-2.7874
X6.637Y-3.9409
X6.637Y-3.9685
X6.637Y-5.122
X6.637Y-5.1496
X6.6409Y-2.4055
X6.6409Y-2.8846
X6.6409Y-3.5866
X6.6409Y-4.0657
X6.6409Y-4.7677
X6.6409Y-5.2469
X6.6506Y-2.685
X6.6506Y-3.8661
X6.6506Y-5.0472
X6.6528Y-2.7362
X6.6528Y-3.9173
X6.6528Y-5.0984
X6.6606Y-2.4185
X6.6606Y-3.5996
X6.6606Y-4.7807
X6.665Y-2.8878
X6.665Y-4.0689
X6.665Y-5.25
X6.6752Y-2.4331
X6.6752Y-3.6142
X6.6752Y-4.7953
X6.6858Y-2.8827
X6.6858Y-4.0638
X6.6858Y-5.2449
X6.6882Y-2.4724
X6.6882Y-2.5079
X6.6882Y-2.5433
X6.6882Y-2.6654
X6.6882Y-3.6535
X6.6882Y-3.689
X6.6882Y-3.7244
X6.6882Y-3.8465
X6.6882Y-4.8346
X6.6882Y-4.8701
X6.6882Y-4.9055
X6.6882Y-5.0276
X6.689Y-2.5945
X6.689Y-3.7756
X6.689Y-4.9567
X6.6919Y-2.6358
X6.6919Y-3.8169
X6.6919Y-4.998
X6.6953Y-2.7909
X6.6953Y-3.972
X6.6953Y-5.1531
X6.6965Y-2.7669
X6.6965Y-3.948
X6.6965Y-5.1291
X6.6996Y-2.8213
X6.6996Y-4.0024
X6.6996Y-5.1835
X6.702Y-2.8476
X6.702Y-4.0287
X6.702Y-5.2098
X6.7079Y-2.3858
X6.7079Y-3.5669
X6.7079Y-4.748
X6.7087Y-2.5827
X6.7087Y-3.7638
X6.7087Y-4.9449
X6.7118Y-2.4843
X6.7118Y-3.6654
X6.7118Y-4.8465
X6.7154Y-2.7874
X6.7154Y-3.9685
X6.7154Y-5.1496
X6.7165Y-2.563
X6.7165Y-3.7441
X6.7165Y-4.9252
X6.7197Y-2.4055
X6.7197Y-3.5866
X6.7197Y-4.7677
X6.7205Y-2.6339
X6.7205Y-3.815
X6.7205Y-4.9961
X6.7315Y-2.5039
X6.7315Y-2.5433
X6.7315Y-3.685
X6.7315Y-3.7244
X6.7315Y-4.8661
X6.7315Y-4.9055
X6.7346Y-2.8051
X6.7346Y-3.9862
X6.7346Y-5.1673
X6.7382Y-2.2075
X6.7382Y-3.3886
X6.7382Y-4.5697
X6.7394Y-2.4213
X6.7394Y-3.6024
X6.7394Y-4.7835
X6.7472Y-2.0315
X6.7472Y-3.1732
X6.7472Y-3.2126
X6.7472Y-4.3543
X6.7472Y-4.3937
X6.7472Y-5.5354
X6.7512Y-2.5236
X6.7512Y-3.7047
X6.7512Y-4.8858
X6.7535Y-2.7173
X6.7535Y-3.8984
X6.7535Y-5.0795
X6.7543Y-2.8472
X6.7543Y-4.0283
X6.7543Y-5.2094
X6.7551Y-2.437
X6.7551Y-3.6181
X6.7551Y-4.7992
X6.7555Y-2.9094
X6.7555Y-4.0906
X6.7555Y-5.2717
X6.7563Y-2.8776
X6.7563Y-4.0587
X6.7563Y-5.2398
X6.7575Y-2.7449
X6.7575Y-2.8185
X6.7575Y-2.9406
X6.7575Y-3.926
X6.7575Y-3.9996
X6.7575Y-4.1217
X6.7575Y-5.1071
X6.7575Y-5.1807
X6.7575Y-5.3028
X6.7634Y-2.2469
X6.7634Y-3.428
X6.7634Y-4.6091
X6.7709Y-2.4528
X6.7709Y-3.6339
X6.7709Y-4.815
X6.7732Y-2.1697
X6.7732Y-3.3508
X6.7732Y-4.5319
X6.7748Y-2.5866
X6.7748Y-2.6961
X6.7748Y-3.7677
X6.7748Y-3.8772
X6.7748Y-4.9488
X6.7748Y-5.0583
X6.7772Y-2.7618
X6.7772Y-3.9429
X6.7772Y-5.124
X6.778Y-2.8358
X6.778Y-4.0169
X6.778Y-5.198
X6.7827Y-2.6142
X6.7827Y-3.7953
X6.7827Y-4.9764
X6.7854Y-2.1138
X6.7854Y-2.9484
X6.7854Y-3.2949
X6.7854Y-4.1295
X6.7854Y-4.476
X6.7854Y-5.3106
X6.787Y-2.0303
X6.787Y-3.2114
X6.787Y-4.3925
X6.7898Y-2.7803
X6.7898Y-3.9614
X6.7898Y-5.1425
X6.7941Y-2.2839
X6.7941Y-3.465
X6.7941Y-4.6461
X6.7945Y-2.5709
X6.7945Y-3.752
X6.7945Y-4.9331
X6.7961Y-2.4094
X6.7961Y-3.5906
X6.7961Y-4.7717
X6.7965Y-3.1732
X6.7965Y-4.3543
X6.7965Y-5.5354
X6.798Y-2.3217
X6.798Y-3.5028
X6.798Y-4.6839
X6.7988Y-2.6685
X6.7988Y-3.8496
X6.7988Y-5.0307
X6.8055Y-2.8024
X6.8055Y-3.9835
X6.8055Y-5.1646
X6.8087Y-2.1866
X6.8087Y-3.3677
X6.8087Y-4.5488
X6.8102Y-2.5866
X6.8102Y-2.6142
X6.8102Y-3.7677
X6.8102Y-3.7953
X6.8102Y-4.9488
X6.8102Y-4.9764
X6.813Y-2.9496
X6.813Y-4.1307
X6.813Y-5.3118
X6.8181Y-2.5
X6.8181Y-3.6811
X6.8181Y-4.8622
X6.8205Y-2.365
X6.8205Y-3.5461
X6.8205Y-4.7272
X6.8272Y-2.8248
X6.8272Y-4.0059
X6.8272Y-5.187
X6.8299Y-2.5984
X6.8299Y-3.7795
X6.8299Y-4.9606
X6.8339Y-2.5157
X6.8339Y-3.6969
X6.8339Y-4.878
X6.8378Y-2.2957
X6.8378Y-2.9504
X6.8378Y-3.4768
X6.8378Y-4.1315
X6.8378Y-4.6579
X6.8378Y-5.3126
X6.8447Y-2.6142
X6.8447Y-3.7953
X6.8447Y-4.9764
X6.8453Y-2.1661
X6.8453Y-3.3472
X6.8453Y-4.5283
X6.8461Y-2.424
X6.8461Y-3.6051
X6.8461Y-4.7862
X6.8469Y-2.8461
X6.8469Y-4.0272
X6.8469Y-5.2083
X6.8496Y-2.5315
X6.8496Y-3.7126
X6.8496Y-4.8937
X6.8533Y-2.6732
X6.8533Y-3.8543
X6.8533Y-5.0354
X6.8555Y-2.0315
X6.8555Y-3.1732
X6.8555Y-3.2126
X6.8555Y-4.3543
X6.8555Y-4.3937
X6.8555Y-5.5354
X6.8606Y-2.9299
X6.8606Y-4.111
X6.8606Y-5.2921
X6.8618Y-2.8701
X6.8618Y-4.0512
X6.8618Y-5.2323
X6.8626Y-2.8984
X6.8626Y-4.0795
X6.8626Y-5.2606
X6.8642Y-2.3201
X6.8642Y-3.5012
X6.8642Y-4.6823
X6.8685Y-2.3752
X6.8685Y-3.5563
X6.8685Y-4.7374
X6.8693Y-2.6142
X6.8693Y-3.7953
X6.8693Y-4.9764
X6.8709Y-2.4791
X6.8709Y-3.6602
X6.8709Y-4.8413
X6.877Y-2.0965
X6.877Y-3.2776
X6.877Y-4.4587
X6.8777Y-2.0406
X6.8777Y-3.2217
X6.8777Y-4.4028
X6.8787Y-2.4311
X6.8787Y-3.6122
X6.8787Y-4.7933
X6.8902Y-2.985
X6.8902Y-4.1661
X6.8902Y-5.3472
X6.8923Y-2.0585
X6.8923Y-3.2396
X6.8923Y-4.4207
X6.8945Y-3.0677
X6.8945Y-4.2488
X6.8945Y-5.4299
X6.8969Y-2.5669
X6.8969Y-3.748
X6.8969Y-4.9291
X6.8986Y-3.1703
X6.8986Y-4.3514
X6.8986Y-5.5325
X6.9087Y-2.4331
X6.9087Y-3.6142
X6.9087Y-4.7953
X6.9104Y-2.8917
X6.9104Y-4.0728
X6.9104Y-5.2539
X6.9106Y-2.6663
X6.9106Y-3.8474
X6.9106Y-5.0285
X6.9142Y-2.915
X6.9142Y-4.0961
X6.9142Y-5.2772
X6.9181Y-2.4854
X6.9181Y-3.6665
X6.9181Y-4.8476
X6.9212Y-2.4132
X6.9212Y-3.5943
X6.9212Y-4.7755
X6.9239Y-2.4552
X6.9239Y-3.6363
X6.9239Y-4.8175
X6.9252Y-2.5197
X6.9252Y-3.7008
X6.9252Y-4.8819
X6.9358Y-2.2894
X6.9358Y-3.4705
X6.9358Y-4.6516
X6.9401Y-2.3818
X6.9401Y-3.5629
X6.9401Y-4.744
X6.948Y-3.0551
X6.948Y-4.2362
X6.948Y-5.4173
X6.952Y-2.5551
X6.952Y-3.7362
X6.952Y-4.9173
X6.9535Y-2.0272
X6.9535Y-3.2083
X6.9535Y-4.3894
X6.9559Y-2.4882
X6.9559Y-3.6693
X6.9559Y-4.8504
X6.9598Y-2.685
X6.9598Y-3.8661
X6.9598Y-5.0472
X6.972Y-2.148
X6.972Y-3.3291
X6.972Y-4.5102
X6.9795Y-2.2555
X6.9795Y-3.4366
X6.9795Y-4.6177
X6.9827Y-2.0492
X6.9827Y-3.2303
X6.9827Y-4.4114
X6.9835Y-2.0984
X6.9835Y-3.2795
X6.9835Y-4.4606
X6.9869Y-3.0768
X6.9869Y-4.2579
X6.9869Y-5.439
X6.9883Y-2.2881
X6.9883Y-3.4692
X6.9883Y-4.6503
X6.9933Y-3.1634
X6.9933Y-4.3445
X6.9933Y-5.5256
X6.9943Y-2.5669
X6.9943Y-3.748
X6.9943Y-4.9291
X6.9953Y-2.7318
X6.9953Y-3.9129
X6.9953Y-5.094
X6.9977Y-2.7556
X6.9977Y-3.9367
X6.9977Y-5.1178
X7.0008Y-2.239
X7.0008Y-3.4201
X7.0008Y-4.6012
X7.0076Y-2.3595
X7.0076Y-3.5406
X7.0076Y-4.7217
X7.0142Y-2.1661
X7.0142Y-3.3472
X7.0142Y-4.5283
X7.0217Y-2.3407
X7.0217Y-3.5218
X7.0217Y-4.7029
X7.0335Y-2.9203
X7.0335Y-4.1014
X7.0335Y-5.2825
X7.0375Y-2.8171
X7.0375Y-3.9982
X7.0375Y-5.1793
X7.0453Y-2.9596
X7.0453Y-4.1407
X7.0453Y-5.3219
X7.0551Y-2.9113
X7.0551Y-4.0924
X7.0551Y-5.2735
X7.0563Y-2.5311
X7.0563Y-3.7122
X7.0563Y-4.8933
X7.0594Y-2.3346
X7.0594Y-3.5157
X7.0594Y-4.6969
X7.0701Y-2.2598
X7.0701Y-3.4409
X7.0701Y-4.622
X7.0768Y-2.9203
X7.0768Y-4.1014
X7.0768Y-5.2825
X7.078Y-2.2323
X7.078Y-3.4134
X7.078Y-4.5945
X7.0795Y-2.461
X7.0795Y-3.6421
X7.0795Y-4.8232
X7.0858Y-3.0551
X7.0858Y-4.2362
X7.0858Y-5.4173
X7.0874Y-2.2929
X7.0874Y-3.474
X7.0874Y-4.6551
X7.0892Y-2.8627
X7.0892Y-4.0438
X7.0892Y-5.2249
X7.0894Y-2.0495
X7.0894Y-3.2306
X7.0894Y-4.4117
X7.0917Y-3.1634
X7.0917Y-4.3445
X7.0917Y-5.5256
X7.0957Y-2.0272
X7.0957Y-3.2083
X7.0957Y-4.3894
X7.0976Y-2.6181
X7.0976Y-3.7992
X7.0976Y-4.9803
X7.1018Y-2.764
X7.1018Y-3.9451
X7.1018Y-5.1263
X7.102Y-2.0949
X7.102Y-3.276
X7.102Y-4.4571
X7.1033Y-2.2441
X7.1033Y-3.4252
X7.1033Y-4.6063
X7.108Y-2.3643
X7.108Y-3.5454
X7.108Y-4.7265
X7.1094Y-2.3976
X7.1094Y-3.5787
X7.1094Y-4.7598
X7.1108Y-2.8873
X7.1108Y-4.0684
X7.1108Y-5.2495
X7.1173Y-3.0648
X7.1173Y-4.2459
X7.1173Y-5.427
X7.1245Y-2.5275
X7.1245Y-3.7087
X7.1245Y-4.8898
X7.1321Y-2.0335
X7.1321Y-3.2146
X7.1321Y-4.3957
X7.1389Y-2.9615
X7.1389Y-4.1426
X7.1389Y-5.3237
X7.1417Y-2.811
X7.1417Y-3.9921
X7.1417Y-5.1732
X7.144Y-2.4685
X7.144Y-3.6496
X7.144Y-4.8308
X7.1458Y-2.5184
X7.1458Y-3.6995
X7.1458Y-4.8806
X7.1481Y-2.3658
X7.1481Y-3.5469
X7.1481Y-4.728
X7.1498Y-2.3965
X7.1498Y-3.5776
X7.1498Y-4.7587
X7.1713Y-3.1378
X7.1713Y-4.3189
X7.1713Y-5.5
X7.172Y-2.9843
X7.172Y-4.1654
X7.172Y-5.3465
X7.1735Y-2.9577
X7.1735Y-4.1388
X7.1735Y-5.3199
X7.1744Y-2.8665
X7.1744Y-4.0476
X7.1744Y-5.2287
X7.1752Y-2.0561
X7.1752Y-3.2372
X7.1752Y-4.4183
X7.176Y-2.1634
X7.176Y-3.3445
X7.176Y-4.5256
X7.1788Y-2.2881
X7.1788Y-3.4692
X7.1788Y-4.6503
X7.1803Y-3.0866
X7.1803Y-4.2677
X7.1803Y-5.4488
X7.187Y-2.3917
X7.187Y-3.5728
X7.187Y-4.7539
X7.1884Y-3.0477
X7.1884Y-4.2288
X7.1884Y-5.4099
X7.1902Y-3.1634
X7.1902Y-4.3445
X7.1902Y-5.5256
X7.1906Y-2.3559
X7.1906Y-3.537
X7.1906Y-4.7181
X7.1923Y-2.3278
X7.1923Y-3.5089
X7.1923Y-4.69
X7.1944Y-2.4838
X7.1944Y-3.6649
X7.1944Y-4.846
X7.1957Y-2.0854
X7.1957Y-3.2665
X7.1957Y-4.4476
X7.1976Y-2.2051
X7.1976Y-3.3862
X7.1976Y-4.5673
X7.1992Y-2.1394
X7.1992Y-2.8657
X7.1992Y-3.3205
X7.1992Y-4.0469
X7.1992Y-4.5016
X7.1992Y-5.228
X7.2059Y-2.248
X7.2059Y-3.4291
X7.2059Y-4.6102
X7.2079Y-2.9291
X7.2079Y-4.1102
X7.2079Y-5.2913
X7.2116Y-2.1083
X7.2116Y-3.2894
X7.2116Y-4.4705
X7.2118Y-3.0079
X7.2118Y-4.189
X7.2118Y-5.3701
X7.2224Y-2.0283
X7.2224Y-3.2094
X7.2224Y-4.3906
X7.2252Y-2.8601
X7.2252Y-4.0412
X7.2252Y-5.2224
X7.2262Y-2.492
X7.2262Y-3.6731
X7.2262Y-4.8542
X7.2362Y-2.185
X7.2362Y-3.3661
X7.2362Y-4.5472
X7.2394Y-2.815
X7.2394Y-3.9961
X7.2394Y-5.1772
X7.2413Y-3.0657
X7.2413Y-4.2469
X7.2413Y-5.428
X7.2433Y-2.0425
X7.2433Y-2.7638
X7.2433Y-3.2236
X7.2433Y-3.9449
X7.2433Y-4.4047
X7.2433Y-5.126
X7.2586Y-2.3858
X7.2586Y-3.5669
X7.2586Y-4.748
X7.2591Y-2.5079
X7.2591Y-3.689
X7.2591Y-4.8701
X7.2744Y-3.0811
X7.2744Y-4.2622
X7.2744Y-5.4433
X7.2849Y-3.0509
X7.2849Y-4.232
X7.2849Y-5.4131
X7.2854Y-3.1506
X7.2854Y-4.3317
X7.2854Y-5.5128
X7.2866Y-2.2531
X7.2866Y-3.4343
X7.2866Y-4.6154
X7.287Y-2.2031
X7.287Y-3.3843
X7.287Y-4.5654
X7.2873Y-2.742
X7.2873Y-3.9231
X7.2873Y-5.1042
X7.2882Y-2.3976
X7.2882Y-3.5787
X7.2882Y-4.7598
X7.2884Y-2.686
X7.2884Y-3.8671
X7.2884Y-5.0482
X7.2898Y-2.3362
X7.2898Y-3.5173
X7.2898Y-4.6984
X7.2913Y-2.5325
X7.2913Y-3.7136
X7.2913Y-4.8947
X7.2957Y-2.1449
X7.2957Y-3.326
X7.2957Y-4.5071
X7.2963Y-2.8297
X7.2963Y-4.0108
X7.2963Y-5.1919
X7.3031Y-2.4157
X7.3031Y-3.5969
X7.3031Y-4.778
X7.3051Y-2.561
X7.3051Y-3.7421
X7.3051Y-4.9232
X7.3067Y-2.6453
X7.3067Y-3.8264
X7.3067Y-5.0075
X7.3075Y-2.265
X7.3075Y-3.4461
X7.3075Y-4.6272
X7.3138Y-2.5118
X7.3138Y-3.6929
X7.3138Y-4.874
X7.3173Y-2.4543
X7.3173Y-3.6354
X7.3173Y-4.8165
X7.3199Y-2.8189
X7.3199Y-4.0
X7.3199Y-5.1811
X7.3275Y-3.1187
X7.3275Y-4.2998
X7.3275Y-5.4809
X7.3293Y-2.7639
X7.3293Y-3.945
X7.3293Y-5.1261
X7.3294Y-2.6623
X7.3294Y-3.8435
X7.3294Y-5.0246
X7.3315Y-2.7026
X7.3315Y-3.8837
X7.3315Y-5.0648
X7.3346Y-2.7864
X7.3346Y-3.9675
X7.3346Y-5.1486
X7.335Y-2.0473
X7.335Y-3.2284
X7.335Y-4.4095
X7.3356Y-2.7254
X7.3356Y-3.9065
X7.3356Y-5.0876
X7.3358Y-2.9362
X7.3358Y-4.1173
X7.3358Y-5.2984
X7.3402Y-2.6221
X7.3402Y-3.8032
X7.3402Y-4.9843
X7.3445Y-2.188
X7.3445Y-3.3691
X7.3445Y-4.5502
X7.348Y-2.5981
X7.348Y-3.7792
X7.348Y-4.9603
X7.3524Y-2.3925
X7.3524Y-3.5736
X7.3524Y-4.7547
X7.3539Y-2.0303
X7.3539Y-3.2114
X7.3539Y-4.3925
X7.3545Y-2.4605
X7.3545Y-3.6416
X7.3545Y-4.8227
X7.3553Y-2.7441
X7.3553Y-3.9252
X7.3553Y-5.1063
X7.3563Y-2.679
X7.3563Y-3.8601
X7.3563Y-5.0412
X7.375Y-2.8642
X7.375Y-4.0453
X7.375Y-5.2264
X7.3852Y-2.1053
X7.3852Y-3.2864
X7.3852Y-4.4675
X7.3865Y-2.6787
X7.3865Y-3.8598
X7.3865Y-5.0409
X7.3874Y-3.0146
X7.3874Y-4.1957
X7.3874Y-5.3768
X7.3907Y-3.1516
X7.3907Y-4.3327
X7.3907Y-5.5138
X7.3927Y-2.9124
X7.3927Y-4.0935
X7.3927Y-5.2746
X7.4057Y-2.2874
X7.4057Y-3.4685
X7.4057Y-4.6496
X7.4063Y-2.3523
X7.4063Y-3.5334
X7.4063Y-4.7145
X7.4067Y-2.4224
X7.4067Y-3.6035
X7.4067Y-4.7846
X7.4094Y-2.6817
X7.4094Y-3.8628
X7.4094Y-5.0439
X7.4122Y-2.5616
X7.4122Y-3.7427
X7.4122Y-4.9238
X7.413Y-2.7913
X7.413Y-3.9724
X7.413Y-5.1535
X7.413Y-2.6058
X7.413Y-3.7869
X7.413Y-4.968
X7.4288Y-2.7012
X7.4288Y-3.8823
X7.4288Y-5.0634
X7.4399Y-2.9597
X7.4399Y-4.1408
X7.4399Y-5.3219
X7.44Y-2.1683
X7.44Y-3.3494
X7.44Y-4.5305
X7.4402Y-2.8622
X7.4402Y-4.0433
X7.4402Y-5.2244
X7.4427Y-2.8236
X7.4427Y-4.0047
X7.4427Y-5.1858
X7.4445Y-2.7437
X7.4445Y-3.9248
X7.4445Y-5.1059
X7.445Y-2.6557
X7.445Y-3.8368
X7.445Y-5.0179
X7.4457Y-2.435
X7.4457Y-3.6161
X7.4457Y-4.7972
X7.4574Y-2.0317
X7.4574Y-3.2128
X7.4574Y-4.3939
X7.46Y-2.5842
X7.46Y-3.7653
X7.46Y-4.9464
X7.4654Y-2.3591
X7.4654Y-3.5402
X7.4654Y-4.7213
X7.4722Y-2.2118
X7.4722Y-3.3929
X7.4722Y-4.574
X7.4752Y-2.9923
X7.4752Y-4.1734
X7.4752Y-5.3545
X7.4806Y-2.0315
X7.4806Y-3.2126
X7.4806Y-4.3937
X7.4813Y-2.1053
X7.4813Y-3.2864
X7.4813Y-4.4675
X7.4822Y-2.9701
X7.4822Y-4.1512
X7.4822Y-5.3323
X7.4866Y-3.148
X7.4866Y-4.3291
X7.4866Y-5.5102
X7.4909Y-2.8419
X7.4909Y-4.023
X7.4909Y-5.2041
X7.4909Y-2.4567
X7.4909Y-3.6378
X7.4909Y-4.8189
X7.5031Y-2.6929
X7.5031Y-3.874
X7.5031Y-5.0551
X7.5042Y-2.0605
X7.5042Y-3.2416
X7.5042Y-4.4227
X7.5045Y-2.7427
X7.5045Y-3.9238
X7.5045Y-5.1049
X7.5047Y-3.1786
X7.5047Y-4.3597
X7.5047Y-5.5408
X7.5049Y-2.9442
X7.5049Y-4.1253
X7.5049Y-5.3064
X7.5051Y-2.57
X7.5051Y-3.7511
X7.5051Y-4.9322
X7.5059Y-2.513
X7.5059Y-3.6941
X7.5059Y-4.8752
X7.5059Y-3.0041
X7.5059Y-4.1852
X7.5059Y-5.3663
X7.515Y-2.1693
X7.515Y-3.3504
X7.515Y-4.5315
X7.5288Y-2.5782
X7.5288Y-3.7593
X7.5288Y-4.9404
X7.5354Y-2.7931
X7.5354Y-3.9742
X7.5354Y-5.1553
X7.5386Y-2.5477
X7.5386Y-3.7288
X7.5386Y-4.9099
X7.5433Y-2.8461
X7.5433Y-4.0272
X7.5433Y-5.2083
X7.5516Y-2.4323
X7.5516Y-3.6134
X7.5516Y-4.7945
X7.5701Y-2.2874
X7.5701Y-3.4685
X7.5701Y-4.6496
X7.5706Y-2.6821
X7.5706Y-3.8632
X7.5706Y-5.0443
X7.5783Y-2.0311
X7.5783Y-3.2122
X7.5783Y-4.3933
X7.579Y-3.035
X7.579Y-4.2161
X7.579Y-5.3972
X7.5837Y-2.9931
X7.5837Y-4.1742
X7.5837Y-5.3553
X7.5858Y-2.0945
X7.5858Y-2.2441
X7.5858Y-3.2756
X7.5858Y-3.4252
X7.5858Y-4.4567
X7.5858Y-4.6063
X7.5909Y-2.6949
X7.5909Y-3.876
X7.5909Y-5.0571
X7.5969Y-3.1099
X7.5969Y-4.291
X7.5969Y-5.4721
X7.5984Y-2.5842
X7.5984Y-3.7653
X7.5984Y-4.9464
X7.6047Y-2.2827
X7.6047Y-3.4638
X7.6047Y-4.6449
X7.6154Y-2.9291
X7.6154Y-4.1102
X7.6154Y-5.2913
X7.6173Y-2.1972
X7.6173Y-3.3783
X7.6173Y-4.5594
X7.6193Y-2.0364
X7.6193Y-3.2175
X7.6193Y-4.3986
X7.626Y-2.2835
X7.626Y-3.4646
X7.626Y-4.6457
X7.6291Y-2.248
X7.6291Y-3.4291
X7.6291Y-4.6102
X7.6323Y-3.1284
X7.6323Y-4.3095
X7.6323Y-5.4906
X7.6377Y-3.0203
X7.6377Y-4.2014
X7.6377Y-5.3825
X7.6382Y-2.3882
X7.6382Y-3.5693
X7.6382Y-4.7504
X7.6407Y-2.3012
X7.6407Y-3.4823
X7.6407Y-4.6634
X7.6539Y-2.1244
X7.6539Y-3.3055
X7.6539Y-4.4866
X7.6562Y-2.6216
X7.6562Y-3.8027
X7.6562Y-4.9838
X7.6606Y-2.0768
X7.6606Y-3.2579
X7.6606Y-4.439
X7.6665Y-3.1622
X7.6665Y-4.3433
X7.6665Y-5.5244
X7.6697Y-3.0622
X7.6697Y-4.2433
X7.6697Y-5.4244
X7.6724Y-2.7992
X7.6724Y-2.8878
X7.6724Y-3.9803
X7.6724Y-4.0689
X7.6724Y-5.1614
X7.6724Y-5.25
X7.6882Y-2.9173
X7.6882Y-4.0984
X7.6882Y-5.2795
X7.6898Y-2.6862
X7.6898Y-3.8673
X7.6898Y-5.0484
X7.6955Y-2.5016
X7.6955Y-3.6827
X7.6955Y-4.8638
X7.6961Y-3.1339
X7.6961Y-4.315
X7.6961Y-5.4961
X7.7Y-3.0276
X7.7Y-4.2087
X7.7Y-5.3898
X7.7252Y-2.3268
X7.7252Y-3.5079
X7.7252Y-4.689
X7.7354Y-2.8898
X7.7354Y-4.0709
X7.7354Y-5.252
X7.7363Y-2.6862
X7.7363Y-3.8673
X7.7363Y-5.0484
X7.7445Y-2.2756
X7.7445Y-3.4567
X7.7445Y-4.6378
X7.7452Y-2.6136
X7.7452Y-3.7947
X7.7452Y-4.9758
X7.7479Y-2.4731
X7.7479Y-3.6542
X7.7479Y-4.8353
X7.752Y-2.9741
X7.752Y-4.1552
X7.752Y-5.3363
X7.7554Y-2.6359
X7.7554Y-3.817
X7.7554Y-4.9981
X7.7571Y-2.7146
X7.7571Y-3.8957
X7.7571Y-5.0768
X7.7685Y-3.0039
X7.7685Y-4.185
X7.7685Y-5.3661
X7.7709Y-3.1732
X7.7709Y-4.3543
X7.7709Y-5.5354
X7.7727Y-2.4744
X7.7727Y-3.6555
X7.7727Y-4.8366
X7.7728Y-2.572
X7.7728Y-3.7531
X7.7728Y-4.9343
X7.7748Y-2.3018
X7.7748Y-3.4829
X7.7748Y-4.664
X7.7807Y-2.8819
X7.7807Y-4.063
X7.7807Y-5.2441
X7.786Y-2.9173
X7.786Y-4.0984
X7.786Y-5.2795
X7.7878Y-2.6193
X7.7878Y-3.8004
X7.7878Y-4.9815
X7.791Y-2.2819
X7.791Y-3.463
X7.791Y-4.6441
X7.8086Y-2.59
X7.8086Y-3.7711
X7.8086Y-4.9522
X7.8299Y-2.7205
X7.8299Y-2.7992
X7.8299Y-2.8878
X7.8299Y-3.9016
X7.8299Y-3.9803
X7.8299Y-4.0689
X7.8299Y-5.0827
X7.8299Y-5.1614
X7.8299Y-5.25
X7.8537Y-2.6209
X7.8537Y-3.802
X7.8537Y-4.9831
X7.8551Y-2.311
X7.8551Y-3.4921
X7.8551Y-4.6732
X7.8669Y-2.5098
X7.8669Y-3.6909
X7.8669Y-4.872
X7.9016Y-2.628
X7.9016Y-3.8091
X7.9016Y-4.9902
X7.9201Y-2.872
X7.9201Y-2.872
X7.9201Y-4.0531
X7.9201Y-4.0531
X7.9201Y-5.2343
X7.9201Y-5.2343
X7.922Y-3.0016
X7.922Y-4.1827
X7.922Y-5.3638
X7.9283Y-2.7579
X7.9283Y-3.1732
X7.9283Y-3.939
X7.9283Y-4.3543
X7.9283Y-5.1201
X7.9283Y-5.5354
X7.9337Y-3.022
X7.9337Y-4.2031
X7.9337Y-5.3843
X8.0039Y-2.7126
X8.0039Y-3.8937
X8.0039Y-5.0748
X8.0049Y-2.688
X8.0049Y-3.8691
X8.0049Y-5.0502
X8.0071Y-2.0315
X8.0071Y-2.189
X8.0071Y-2.2382
X8.0071Y-2.2874
X8.0071Y-2.3465
X8.0071Y-2.4055
X8.0071Y-2.7795
X8.0071Y-2.8287
X8.0071Y-2.8976
X8.0071Y-2.9567
X8.0071Y-3.0157
X8.0071Y-3.1732
X8.0071Y-3.2126
X8.0071Y-3.3701
X8.0071Y-3.4193
X8.0071Y-3.4685
X8.0071Y-3.5276
X8.0071Y-3.5866
X8.0071Y-3.9606
X8.0071Y-4.0098
X8.0071Y-4.0787
X8.0071Y-4.1378
X8.0071Y-4.1969
X8.0071Y-4.3543
X8.0071Y-4.3937
X8.0071Y-4.5512
X8.0071Y-4.6004
X8.0071Y-4.6496
X8.0071Y-4.7087
X8.0071Y-4.7677
X8.0071Y-5.1417
X8.0071Y-5.1909
X8.0071Y-5.2598
X8.0071Y-5.3189
X8.0071Y-5.378
X8.0071Y-5.5354
X8.011Y-2.7362
X8.011Y-3.9173
X8.011Y-5.0984
X8.0386Y-2.7362
X8.0386Y-3.9173
X8.0386Y-5.0984
X8.0423Y-2.686
X8.0423Y-3.8671
X8.0423Y-5.0482
X8.0441Y-2.8476
X8.0441Y-4.0287
X8.0441Y-5.2098
X8.0484Y-2.8177
X8.0484Y-3.9988
X8.0484Y-5.1799
X8.0543Y-2.7598
X8.0543Y-2.7874
X8.0543Y-3.9409
X8.0543Y-3.9685
X8.0543Y-5.122
X8.0543Y-5.1496
X8.0583Y-2.4055
X8.0583Y-2.8846
X8.0583Y-3.5866
X8.0583Y-4.0657
X8.0583Y-4.7677
X8.0583Y-5.2469
X8.0679Y-2.685
X8.0679Y-3.8661
X8.0679Y-5.0472
X8.0701Y-2.7362
X8.0701Y-3.9173
X8.0701Y-5.0984
X8.078Y-2.4185
X8.078Y-3.5996
X8.078Y-4.7807
X8.0823Y-2.8878
X8.0823Y-4.0689
X8.0823Y-5.25
X8.0925Y-2.4331
X8.0925Y-3.6142
X8.0925Y-4.7953
X8.1031Y-2.8827
X8.1031Y-4.0638
X8.1031Y-5.2449
X8.1055Y-2.4724
X8.1055Y-2.5079
X8.1055Y-2.5433
X8.1055Y-2.6654
X8.1055Y-3.6535
X8.1055Y-3.689
X8.1055Y-3.7244
X8.1055Y-3.8465
X8.1055Y-4.8346
X8.1055Y-4.8701
X8.1055Y-4.9055
X8.1055Y-5.0276
X8.1063Y-2.5945
X8.1063Y-3.7756
X8.1063Y-4.9567
X8.1093Y-2.6358
X8.1093Y-3.8169
X8.1093Y-4.998
X8.1126Y-2.7909
X8.1126Y-3.972
X8.1126Y-5.1531
X8.1138Y-2.7669
X8.1138Y-3.948
X8.1138Y-5.1291
X8.1169Y-2.8213
X8.1169Y-4.0024
X8.1169Y-5.1835
X8.1193Y-2.8476
X8.1193Y-4.0287
X8.1193Y-5.2098
X8.1252Y-2.3858
X8.1252Y-3.5669
X8.1252Y-4.748
X8.126Y-2.5827
X8.126Y-3.7638
X8.126Y-4.9449
X8.1291Y-2.4843
X8.1291Y-3.6654
X8.1291Y-4.8465
X8.1327Y-2.7874
X8.1327Y-3.9685
X8.1327Y-5.1496
X8.1339Y-2.563
X8.1339Y-3.7441
X8.1339Y-4.9252
X8.137Y-2.4055
X8.137Y-3.5866
X8.137Y-4.7677
X8.1378Y-2.6339
X8.1378Y-3.815
X8.1378Y-4.9961
X8.1488Y-2.5039
X8.1488Y-2.5433
X8.1488Y-3.685
X8.1488Y-3.7244
X8.1488Y-4.8661
X8.1488Y-4.9055
X8.152Y-2.8051
X8.152Y-3.9862
X8.152Y-5.1673
X8.1555Y-2.2075
X8.1555Y-3.3886
X8.1555Y-4.5697
X8.1567Y-2.4213
X8.1567Y-3.6024
X8.1567Y-4.7835
X8.1646Y-2.0315
X8.1646Y-3.1732
X8.1646Y-3.2126
X8.1646Y-4.3543
X8.1646Y-4.3937
X8.1646Y-5.5354
X8.1685Y-2.5236
X8.1685Y-3.7047
X8.1685Y-4.8858
X8.1709Y-2.7173
X8.1709Y-3.8984
X8.1709Y-5.0795
X8.1717Y-2.8472
X8.1717Y-4.0283
X8.1717Y-5.2094
X8.1724Y-2.437
X8.1724Y-3.6181
X8.1724Y-4.7992
X8.1728Y-2.9094
X8.1728Y-4.0906
X8.1728Y-5.2717
X8.1736Y-2.8776
X8.1736Y-4.0587
X8.1736Y-5.2398
X8.1748Y-2.7449
X8.1748Y-2.8185
X8.1748Y-2.9406
X8.1748Y-3.926
X8.1748Y-3.9996
X8.1748Y-4.1217
X8.1748Y-5.1071
X8.1748Y-5.1807
X8.1748Y-5.3028
X8.1807Y-2.2469
X8.1807Y-3.428
X8.1807Y-4.6091
X8.1882Y-2.4528
X8.1882Y-3.6339
X8.1882Y-4.815
X8.1906Y-2.1697
X8.1906Y-3.3508
X8.1906Y-4.5319
X8.1921Y-2.5866
X8.1921Y-2.6961
X8.1921Y-3.7677
X8.1921Y-3.8772
X8.1921Y-4.9488
X8.1921Y-5.0583
X8.1945Y-2.7618
X8.1945Y-3.9429
X8.1945Y-5.124
X8.1953Y-2.8358
X8.1953Y-4.0169
X8.1953Y-5.198
X8.2Y-2.6142
X8.2Y-3.7953
X8.2Y-4.9764
X8.2028Y-2.1138
X8.2028Y-2.9484
X8.2028Y-3.2949
X8.2028Y-4.1295
X8.2028Y-4.476
X8.2028Y-5.3106
X8.2043Y-2.0303
X8.2043Y-3.2114
X8.2043Y-4.3925
X8.2071Y-2.7803
X8.2071Y-3.9614
X8.2071Y-5.1425
X8.2114Y-2.2839
X8.2114Y-3.465
X8.2114Y-4.6461
X8.2118Y-2.5709
X8.2118Y-3.752
X8.2118Y-4.9331
X8.2134Y-2.4094
X8.2134Y-3.5906
X8.2134Y-4.7717
X8.2138Y-3.1732
X8.2138Y-4.3543
X8.2138Y-5.5354
X8.2154Y-2.3217
X8.2154Y-3.5028
X8.2154Y-4.6839
X8.2161Y-2.6685
X8.2161Y-3.8496
X8.2161Y-5.0307
X8.2228Y-2.8024
X8.2228Y-3.9835
X8.2228Y-5.1646
X8.226Y-2.1866
X8.226Y-3.3677
X8.226Y-4.5488
X8.2276Y-2.5866
X8.2276Y-2.6142
X8.2276Y-3.7677
X8.2276Y-3.7953
X8.2276Y-4.9488
X8.2276Y-4.9764
X8.2303Y-2.9496
X8.2303Y-4.1307
X8.2303Y-5.3118
X8.2354Y-2.5
X8.2354Y-3.6811
X8.2354Y-4.8622
X8.2378Y-2.365
X8.2378Y-3.5461
X8.2378Y-4.7272
X8.2445Y-2.8248
X8.2445Y-4.0059
X8.2445Y-5.187
X8.2472Y-2.5984
X8.2472Y-3.7795
X8.2472Y-4.9606
X8.2512Y-2.5157
X8.2512Y-3.6969
X8.2512Y-4.878
X8.2551Y-2.2957
X8.2551Y-2.9504
X8.2551Y-3.4768
X8.2551Y-4.1315
X8.2551Y-4.6579
X8.2551Y-5.3126
X8.262Y-2.6142
X8.262Y-3.7953
X8.262Y-4.9764
X8.2626Y-2.1661
X8.2626Y-3.3472
X8.2626Y-4.5283
X8.2634Y-2.424
X8.2634Y-3.6051
X8.2634Y-4.7862
X8.2642Y-2.8461
X8.2642Y-4.0272
X8.2642Y-5.2083
X8.2669Y-2.5315
X8.2669Y-3.7126
X8.2669Y-4.8937
X8.2707Y-2.6732
X8.2707Y-3.8543
X8.2707Y-5.0354
X8.2728Y-2.0315
X8.2728Y-3.1732
X8.2728Y-3.2126
X8.2728Y-4.3543
X8.2728Y-4.3937
X8.2728Y-5.5354
X8.278Y-2.9299
X8.278Y-4.111
X8.278Y-5.2921
X8.2791Y-2.8701
X8.2791Y-4.0512
X8.2791Y-5.2323
X8.2799Y-2.8984
X8.2799Y-4.0795
X8.2799Y-5.2606
X8.2815Y-2.3201
X8.2815Y-3.5012
X8.2815Y-4.6823
X8.2858Y-2.3752
X8.2858Y-3.5563
X8.2858Y-4.7374
X8.2866Y-2.6142
X8.2866Y-3.7953
X8.2866Y-4.9764
X8.2882Y-2.4791
X8.2882Y-3.6602
X8.2882Y-4.8413
X8.2943Y-2.0965
X8.2943Y-3.2776
X8.2943Y-4.4587
X8.295Y-2.0406
X8.295Y-3.2217
X8.295Y-4.4028
X8.2961Y-2.4311
X8.2961Y-3.6122
X8.2961Y-4.7933
X8.3075Y-2.985
X8.3075Y-4.1661
X8.3075Y-5.3472
X8.3097Y-2.0585
X8.3097Y-3.2396
X8.3097Y-4.4207
X8.3118Y-3.0677
X8.3118Y-4.2488
X8.3118Y-5.4299
X8.3142Y-2.5669
X8.3142Y-3.748
X8.3142Y-4.9291
X8.3159Y-3.1703
X8.3159Y-4.3514
X8.3159Y-5.5325
X8.326Y-2.4331
X8.326Y-3.6142
X8.326Y-4.7953
X8.3278Y-2.8917
X8.3278Y-4.0728
X8.3278Y-5.2539
X8.328Y-2.6663
X8.328Y-3.8474
X8.328Y-5.0285
X8.3315Y-2.915
X8.3315Y-4.0961
X8.3315Y-5.2772
X8.3354Y-2.4854
X8.3354Y-3.6665
X8.3354Y-4.8476
X8.3386Y-2.4132
X8.3386Y-3.5943
X8.3386Y-4.7755
X8.3412Y-2.4552
X8.3412Y-3.6363
X8.3412Y-4.8175
X8.3425Y-2.5197
X8.3425Y-3.7008
X8.3425Y-4.8819
X8.3531Y-2.2894
X8.3531Y-3.4705
X8.3531Y-4.6516
X8.3574Y-2.3818
X8.3574Y-3.5629
X8.3574Y-4.744
X8.3654Y-3.0551
X8.3654Y-4.2362
X8.3654Y-5.4173
X8.3693Y-2.5551
X8.3693Y-3.7362
X8.3693Y-4.9173
X8.3709Y-2.0272
X8.3709Y-3.2083
X8.3709Y-4.3894
X8.3732Y-2.4882
X8.3732Y-3.6693
X8.3732Y-4.8504
X8.3772Y-2.685
X8.3772Y-3.8661
X8.3772Y-5.0472
X8.3894Y-2.148
X8.3894Y-3.3291
X8.3894Y-4.5102
X8.3969Y-2.2555
X8.3969Y-3.4366
X8.3969Y-4.6177
X8.4Y-2.0492
X8.4Y-3.2303
X8.4Y-4.4114
X8.4008Y-2.0984
X8.4008Y-3.2795
X8.4008Y-4.4606
X8.4042Y-3.0768
X8.4042Y-4.2579
X8.4042Y-5.439
X8.4057Y-2.2881
X8.4057Y-3.4692
X8.4057Y-4.6503
X8.4106Y-3.1634
X8.4106Y-4.3445
X8.4106Y-5.5256
X8.4116Y-2.5669
X8.4116Y-3.748
X8.4116Y-4.9291
X8.4126Y-2.7318
X8.4126Y-3.9129
X8.4126Y-5.094
X8.4151Y-2.7556
X8.4151Y-3.9367
X8.4151Y-5.1178
X8.4181Y-2.239
X8.4181Y-3.4201
X8.4181Y-4.6012
X8.4249Y-2.3595
X8.4249Y-3.5406
X8.4249Y-4.7217
X8.4315Y-2.1661
X8.4315Y-3.3472
X8.4315Y-4.5283
X8.439Y-2.3407
X8.439Y-3.5218
X8.439Y-4.7029
X8.4508Y-2.9203
X8.4508Y-4.1014
X8.4508Y-5.2825
X8.4549Y-2.8171
X8.4549Y-3.9982
X8.4549Y-5.1793
X8.4626Y-2.9596
X8.4626Y-4.1407
X8.4626Y-5.3219
X8.4724Y-2.9113
X8.4724Y-4.0924
X8.4724Y-5.2735
X8.4736Y-2.5311
X8.4736Y-3.7122
X8.4736Y-4.8933
X8.4768Y-2.3346
X8.4768Y-3.5157
X8.4768Y-4.6969
X8.4874Y-2.2598
X8.4874Y-3.4409
X8.4874Y-4.622
X8.4941Y-2.9203
X8.4941Y-4.1014
X8.4941Y-5.2825
X8.4953Y-2.2323
X8.4953Y-3.4134
X8.4953Y-4.5945
X8.4969Y-2.461
X8.4969Y-3.6421
X8.4969Y-4.8232
X8.5031Y-3.0551
X8.5031Y-4.2362
X8.5031Y-5.4173
X8.5047Y-2.2929
X8.5047Y-3.474
X8.5047Y-4.6551
X8.5065Y-2.8627
X8.5065Y-4.0438
X8.5065Y-5.2249
X8.5067Y-2.0495
X8.5067Y-3.2306
X8.5067Y-4.4117
X8.5091Y-3.1634
X8.5091Y-4.3445
X8.5091Y-5.5256
X8.513Y-2.0272
X8.513Y-3.2083
X8.513Y-4.3894
X8.515Y-2.6181
X8.515Y-3.7992
X8.515Y-4.9803
X8.5192Y-2.764
X8.5192Y-3.9451
X8.5192Y-5.1263
X8.5193Y-2.0949
X8.5193Y-3.276
X8.5193Y-4.4571
X8.5207Y-2.2441
X8.5207Y-3.4252
X8.5207Y-4.6063
X8.5253Y-2.3643
X8.5253Y-3.5454
X8.5253Y-4.7265
X8.5268Y-2.3976
X8.5268Y-3.5787
X8.5268Y-4.7598
X8.5281Y-2.8873
X8.5281Y-4.0684
X8.5281Y-5.2495
X8.5346Y-3.0648
X8.5346Y-4.2459
X8.5346Y-5.427
X8.5419Y-2.5275
X8.5419Y-3.7087
X8.5419Y-4.8898
X8.5494Y-2.0335
X8.5494Y-3.2146
X8.5494Y-4.3957
X8.5562Y-2.9615
X8.5562Y-4.1426
X8.5562Y-5.3237
X8.5591Y-2.811
X8.5591Y-3.9921
X8.5591Y-5.1732
X8.5613Y-2.4685
X8.5613Y-3.6496
X8.5613Y-4.8308
X8.5632Y-2.5184
X8.5632Y-3.6995
X8.5632Y-4.8806
X8.5654Y-2.3658
X8.5654Y-3.5469
X8.5654Y-4.728
X8.5671Y-2.3965
X8.5671Y-3.5776
X8.5671Y-4.7587
X8.5886Y-3.1378
X8.5886Y-4.3189
X8.5886Y-5.5
X8.5893Y-2.9843
X8.5893Y-4.1654
X8.5893Y-5.3465
X8.5908Y-2.9577
X8.5908Y-4.1388
X8.5908Y-5.3199
X8.5917Y-2.8665
X8.5917Y-4.0476
X8.5917Y-5.2287
X8.5925Y-2.0561
X8.5925Y-3.2372
X8.5925Y-4.4183
X8.5933Y-2.1634
X8.5933Y-3.3445
X8.5933Y-4.5256
X8.5961Y-2.2881
X8.5961Y-3.4692
X8.5961Y-4.6503
X8.5976Y-3.0866
X8.5976Y-4.2677
X8.5976Y-5.4488
X8.6043Y-2.3917
X8.6043Y-3.5728
X8.6043Y-4.7539
X8.6057Y-3.0477
X8.6057Y-4.2288
X8.6057Y-5.4099
X8.6075Y-3.1634
X8.6075Y-4.3445
X8.6075Y-5.5256
X8.6079Y-2.3559
X8.6079Y-3.537
X8.6079Y-4.7181
X8.6096Y-2.3278
X8.6096Y-3.5089
X8.6096Y-4.69
X8.6117Y-2.4838
X8.6117Y-3.6649
X8.6117Y-4.846
X8.613Y-2.0854
X8.613Y-3.2665
X8.613Y-4.4476
X8.615Y-2.2051
X8.615Y-3.3862
X8.615Y-4.5673
X8.6165Y-2.1394
X8.6165Y-2.8657
X8.6165Y-3.3205
X8.6165Y-4.0469
X8.6165Y-4.5016
X8.6165Y-5.228
X8.6233Y-2.248
X8.6233Y-3.4291
X8.6233Y-4.6102
X8.6252Y-2.9291
X8.6252Y-4.1102
X8.6252Y-5.2913
X8.6289Y-2.1083
X8.6289Y-3.2894
X8.6289Y-4.4705
X8.6291Y-3.0079
X8.6291Y-4.189
X8.6291Y-5.3701
X8.6398Y-2.0283
X8.6398Y-3.2094
X8.6398Y-4.3906
X8.6425Y-2.8601
X8.6425Y-4.0412
X8.6425Y-5.2224
X8.6436Y-2.492
X8.6436Y-3.6731
X8.6436Y-4.8542
X8.6535Y-2.185
X8.6535Y-3.3661
X8.6535Y-4.5472
X8.6567Y-2.815
X8.6567Y-3.9961
X8.6567Y-5.1772
X8.6587Y-3.0657
X8.6587Y-4.2469
X8.6587Y-5.428
X8.6606Y-2.0425
X8.6606Y-2.7638
X8.6606Y-3.2236
X8.6606Y-3.9449
X8.6606Y-4.4047
X8.6606Y-5.126
X8.6759Y-2.3858
X8.6759Y-3.5669
X8.6759Y-4.748
X8.6764Y-2.5079
X8.6764Y-3.689
X8.6764Y-4.8701
X8.6917Y-3.0811
X8.6917Y-4.2622
X8.6917Y-5.4433
X8.7023Y-3.0509
X8.7023Y-4.232
X8.7023Y-5.4131
X8.7028Y-3.1506
X8.7028Y-4.3317
X8.7028Y-5.5128
X8.7039Y-2.2531
X8.7039Y-3.4343
X8.7039Y-4.6154
X8.7043Y-2.2031
X8.7043Y-3.3843
X8.7043Y-4.5654
X8.7046Y-2.742
X8.7046Y-3.9231
X8.7046Y-5.1042
X8.7055Y-2.3976
X8.7055Y-3.5787
X8.7055Y-4.7598
X8.7057Y-2.686
X8.7057Y-3.8671
X8.7057Y-5.0482
X8.7071Y-2.3362
X8.7071Y-3.5173
X8.7071Y-4.6984
X8.7087Y-2.5325
X8.7087Y-3.7136
X8.7087Y-4.8947
X8.713Y-2.1449
X8.713Y-3.326
X8.713Y-4.5071
X8.7136Y-2.8297
X8.7136Y-4.0108
X8.7136Y-5.1919
X8.7205Y-2.4157
X8.7205Y-3.5969
X8.7205Y-4.778
X8.7224Y-2.561
X8.7224Y-3.7421
X8.7224Y-4.9232
X8.7241Y-2.6453
X8.7241Y-3.8264
X8.7241Y-5.0075
X8.7248Y-2.265
X8.7248Y-3.4461
X8.7248Y-4.6272
X8.7311Y-2.5118
X8.7311Y-3.6929
X8.7311Y-4.874
X8.7347Y-2.4543
X8.7347Y-3.6354
X8.7347Y-4.8165
X8.7372Y-2.8189
X8.7372Y-4.0
X8.7372Y-5.1811
X8.7449Y-3.1187
X8.7449Y-4.2998
X8.7449Y-5.4809
X8.7466Y-2.7639
X8.7466Y-3.945
X8.7466Y-5.1261
X8.7467Y-2.6623
X8.7467Y-3.8435
X8.7467Y-5.0246
X8.7488Y-2.7026
X8.7488Y-3.8837
X8.7488Y-5.0648
X8.752Y-2.7864
X8.752Y-3.9675
X8.752Y-5.1486
X8.7523Y-2.0473
X8.7523Y-3.2284
X8.7523Y-4.4095
X8.753Y-2.7254
X8.753Y-3.9065
X8.753Y-5.0876
X8.7531Y-2.9362
X8.7531Y-4.1173
X8.7531Y-5.2984
X8.7575Y-2.6221
X8.7575Y-3.8032
X8.7575Y-4.9843
X8.7618Y-2.188
X8.7618Y-3.3691
X8.7618Y-4.5502
X8.7653Y-2.5981
X8.7653Y-3.7792
X8.7653Y-4.9603
X8.7697Y-2.3925
X8.7697Y-3.5736
X8.7697Y-4.7547
X8.7713Y-2.0303
X8.7713Y-3.2114
X8.7713Y-4.3925
X8.7718Y-2.4605
X8.7718Y-3.6416
X8.7718Y-4.8227
X8.7726Y-2.7441
X8.7726Y-3.9252
X8.7726Y-5.1063
X8.7736Y-2.679
X8.7736Y-3.8601
X8.7736Y-5.0412
X8.7923Y-2.8642
X8.7923Y-4.0453
X8.7923Y-5.2264
X8.8025Y-2.1053
X8.8025Y-3.2864
X8.8025Y-4.4675
X8.8038Y-2.6787
X8.8038Y-3.8598
X8.8038Y-5.0409
X8.8047Y-3.0146
X8.8047Y-4.1957
X8.8047Y-5.3768
X8.8081Y-3.1516
X8.8081Y-4.3327
X8.8081Y-5.5138
X8.81Y-2.9124
X8.81Y-4.0935
X8.81Y-5.2746
X8.823Y-2.2874
X8.823Y-3.4685
X8.823Y-4.6496
X8.8236Y-2.3523
X8.8236Y-3.5334
X8.8236Y-4.7145
X8.824Y-2.4224
X8.824Y-3.6035
X8.824Y-4.7846
X8.8268Y-2.6817
X8.8268Y-3.8628
X8.8268Y-5.0439
X8.8295Y-2.5616
X8.8295Y-3.7427
X8.8295Y-4.9238
X8.8303Y-2.7913
X8.8303Y-3.9724
X8.8303Y-5.1535
X8.8304Y-2.6058
X8.8304Y-3.7869
X8.8304Y-4.968
X8.8461Y-2.7012
X8.8461Y-3.8823
X8.8461Y-5.0634
X8.8572Y-2.9597
X8.8572Y-4.1408
X8.8572Y-5.3219
X8.8573Y-2.1683
X8.8573Y-3.3494
X8.8573Y-4.5305
X8.8575Y-2.8622
X8.8575Y-4.0433
X8.8575Y-5.2244
X8.8601Y-2.8236
X8.8601Y-4.0047
X8.8601Y-5.1858
X8.8618Y-2.7437
X8.8618Y-3.9248
X8.8618Y-5.1059
X8.8623Y-2.6557
X8.8623Y-3.8368
X8.8623Y-5.0179
X8.863Y-2.435
X8.863Y-3.6161
X8.863Y-4.7972
X8.8748Y-2.0317
X8.8748Y-3.2128
X8.8748Y-4.3939
X8.8773Y-2.5842
X8.8773Y-3.7653
X8.8773Y-4.9464
X8.8827Y-2.3591
X8.8827Y-3.5402
X8.8827Y-4.7213
X8.8895Y-2.2118
X8.8895Y-3.3929
X8.8895Y-4.574
X8.8925Y-2.9923
X8.8925Y-4.1734
X8.8925Y-5.3545
X8.8979Y-2.0315
X8.8979Y-3.2126
X8.8979Y-4.3937
X8.8986Y-2.1053
X8.8986Y-3.2864
X8.8986Y-4.4675
X8.8995Y-2.9701
X8.8995Y-4.1512
X8.8995Y-5.3323
X8.9039Y-3.148
X8.9039Y-4.3291
X8.9039Y-5.5102
X8.9082Y-2.8419
X8.9082Y-4.023
X8.9082Y-5.2041
X8.9083Y-2.4567
X8.9083Y-3.6378
X8.9083Y-4.8189
X8.9205Y-2.6929
X8.9205Y-3.874
X8.9205Y-5.0551
X8.9215Y-2.0605
X8.9215Y-3.2416
X8.9215Y-4.4227
X8.9218Y-2.7427
X8.9218Y-3.9238
X8.9218Y-5.1049
X8.922Y-3.1786
X8.922Y-4.3597
X8.922Y-5.5408
X8.9222Y-2.9442
X8.9222Y-4.1253
X8.9222Y-5.3064
X8.9224Y-2.57
X8.9224Y-3.7511
X8.9224Y-4.9322
X8.9232Y-2.513
X8.9232Y-3.6941
X8.9232Y-4.8752
X8.9233Y-3.0041
X8.9233Y-4.1852
X8.9233Y-5.3663
X8.9323Y-2.1693
X8.9323Y-3.3504
X8.9323Y-4.5315
X8.9461Y-2.5782
X8.9461Y-3.7593
X8.9461Y-4.9404
X8.9528Y-2.7931
X8.9528Y-3.9742
X8.9528Y-5.1553
X8.956Y-2.5477
X8.956Y-3.7288
X8.956Y-4.9099
X8.9606Y-2.8461
X8.9606Y-4.0272
X8.9606Y-5.2083
X8.9689Y-2.4323
X8.9689Y-3.6134
X8.9689Y-4.7945
X8.9874Y-2.2874
X8.9874Y-3.4685
X8.9874Y-4.6496
X8.9879Y-2.6821
X8.9879Y-3.8632
X8.9879Y-5.0443
X8.9956Y-2.0311
X8.9956Y-3.2122
X8.9956Y-4.3933
X8.9963Y-3.035
X8.9963Y-4.2161
X8.9963Y-5.3972
X9.001Y-2.9931
X9.001Y-4.1742
X9.001Y-5.3553
X9.0031Y-2.0945
X9.0031Y-2.2441
X9.0031Y-3.2756
X9.0031Y-3.4252
X9.0031Y-4.4567
X9.0031Y-4.6063
X9.0083Y-2.6949
X9.0083Y-3.876
X9.0083Y-5.0571
X9.0142Y-3.1099
X9.0142Y-4.291
X9.0142Y-5.4721
X9.0157Y-2.5842
X9.0157Y-3.7653
X9.0157Y-4.9464
X9.022Y-2.2827
X9.022Y-3.4638
X9.022Y-4.6449
X9.0327Y-2.9291
X9.0327Y-4.1102
X9.0327Y-5.2913
X9.0346Y-2.1972
X9.0346Y-3.3783
X9.0346Y-4.5594
X9.0366Y-2.0364
X9.0366Y-3.2175
X9.0366Y-4.3986
X9.0433Y-2.2835
X9.0433Y-3.4646
X9.0433Y-4.6457
X9.0465Y-2.248
X9.0465Y-3.4291
X9.0465Y-4.6102
X9.0496Y-3.1284
X9.0496Y-4.3095
X9.0496Y-5.4906
X9.055Y-3.0203
X9.055Y-4.2014
X9.055Y-5.3825
X9.0555Y-2.3882
X9.0555Y-3.5693
X9.0555Y-4.7504
X9.0581Y-2.3012
X9.0581Y-3.4823
X9.0581Y-4.6634
X9.0713Y-2.1244
X9.0713Y-3.3055
X9.0713Y-4.4866
X9.0735Y-2.6216
X9.0735Y-3.8027
X9.0735Y-4.9838
X9.078Y-2.0768
X9.078Y-3.2579
X9.078Y-4.439
X9.0839Y-3.1622
X9.0839Y-4.3433
X9.0839Y-5.5244
X9.087Y-3.0622
X9.087Y-4.2433
X9.087Y-5.4244
X9.0898Y-2.7992
X9.0898Y-2.8878
X9.0898Y-3.9803
X9.0898Y-4.0689
X9.0898Y-5.1614
X9.0898Y-5.25
X9.1055Y-2.9173
X9.1055Y-4.0984
X9.1055Y-5.2795
X9.1071Y-2.6862
X9.1071Y-3.8673
X9.1071Y-5.0484
X9.1129Y-2.5016
X9.1129Y-3.6827
X9.1129Y-4.8638
X9.1134Y-3.1339
X9.1134Y-4.315
X9.1134Y-5.4961
X9.1173Y-3.0276
X9.1173Y-4.2087
X9.1173Y-5.3898
X9.1425Y-2.3268
X9.1425Y-3.5079
X9.1425Y-4.689
X9.1528Y-2.8898
X9.1528Y-4.0709
X9.1528Y-5.252
X9.1537Y-2.6862
X9.1537Y-3.8673
X9.1537Y-5.0484
X9.1618Y-2.2756
X9.1618Y-3.4567
X9.1618Y-4.6378
X9.1625Y-2.6136
X9.1625Y-3.7947
X9.1625Y-4.9758
X9.1652Y-2.4731
X9.1652Y-3.6542
X9.1652Y-4.8353
X9.1693Y-2.9741
X9.1693Y-4.1552
X9.1693Y-5.3363
X9.1727Y-2.6359
X9.1727Y-3.817
X9.1727Y-4.9981
X9.1744Y-2.7146
X9.1744Y-3.8957
X9.1744Y-5.0768
X9.1858Y-3.0039
X9.1858Y-4.185
X9.1858Y-5.3661
X9.1882Y-3.1732
X9.1882Y-4.3543
X9.1882Y-5.5354
X9.19Y-2.4744
X9.19Y-3.6555
X9.19Y-4.8366
X9.1902Y-2.572
X9.1902Y-3.7531
X9.1902Y-4.9343
X9.1922Y-2.3018
X9.1922Y-3.4829
X9.1922Y-4.664
X9.198Y-2.8819
X9.198Y-4.063
X9.198Y-5.2441
X9.2033Y-2.9173
X9.2033Y-4.0984
X9.2033Y-5.2795
X9.2051Y-2.6193
X9.2051Y-3.8004
X9.2051Y-4.9815
X9.2083Y-2.2819
X9.2083Y-3.463
X9.2083Y-4.6441
X9.2259Y-2.59
X9.2259Y-3.7711
X9.2259Y-4.9522
X9.2472Y-2.7205
X9.2472Y-2.7992
X9.2472Y-2.8878
X9.2472Y-3.9016
X9.2472Y-3.9803
X9.2472Y-4.0689
X9.2472Y-5.0827
X9.2472Y-5.1614
X9.2472Y-5.25
X9.2711Y-2.6209
X9.2711Y-3.802
X9.2711Y-4.9831
X9.2724Y-2.311
X9.2724Y-3.4921
X9.2724Y-4.6732
X9.2843Y-2.5098
X9.2843Y-3.6909
X9.2843Y-4.872
X9.3189Y-2.628
X9.3189Y-3.8091
X9.3189Y-4.9902
X9.3374Y-2.872
X9.3374Y-2.872
X9.3374Y-4.0531
X9.3374Y-4.0531
X9.3374Y-5.2343
X9.3374Y-5.2343
X9.3394Y-3.0016
X9.3394Y-4.1827
X9.3394Y-5.3638
X9.3457Y-2.7579
X9.3457Y-3.1732
X9.3457Y-3.939
X9.3457Y-4.3543
X9.3457Y-5.1201
X9.3457Y-5.5354
X9.351Y-3.022
X9.351Y-4.2031
X9.351Y-5.3843
X9.4213Y-2.7126
X9.4213Y-3.8937
X9.4213Y-5.0748
X9.4222Y-2.688
X9.4222Y-3.8691
X9.4222Y-5.0502
X9.4244Y-2.0315
X9.4244Y-2.189
X9.4244Y-2.2382
X9.4244Y-2.2874
X9.4244Y-2.3465
X9.4244Y-2.4055
X9.4244Y-2.7795
X9.4244Y-2.8287
X9.4244Y-2.8976
X9.4244Y-2.9567
X9.4244Y-3.0157
X9.4244Y-3.1732
X9.4244Y-3.2126
X9.4244Y-3.3701
X9.4244Y-3.4193
X9.4244Y-3.4685
X9.4244Y-3.5276
X9.4244Y-3.5866
X9.4244Y-3.9606
X9.4244Y-4.0098
X9.4244Y-4.0787
X9.4244Y-4.1378
X9.4244Y-4.1969
X9.4244Y-4.3543
X9.4244Y-4.3937
X9.4244Y-4.5512
X9.4244Y-4.6004
X9.4244Y-4.6496
X9.4244Y-4.7087
X9.4244Y-4.7677
X9.4244Y-5.1417
X9.4244Y-5.1909
X9.4244Y-5.2598
X9.4244Y-5.3189
X9.4244Y-5.378
X9.4244Y-5.5354
X9.4283Y-2.7362
X9.4283Y-3.9173
X9.4283Y-5.0984
X9.4559Y-2.7362
X9.4559Y-3.9173
X9.4559Y-5.0984
X9.4596Y-2.686
X9.4596Y-3.8671
X9.4596Y-5.0482
X9.4614Y-2.8476
X9.4614Y-4.0287
X9.4614Y-5.2098
X9.4657Y-2.8177
X9.4657Y-3.9988
X9.4657Y-5.1799
X9.4717Y-2.7598
X9.4717Y-2.7874
X9.4717Y-3.9409
X9.4717Y-3.9685
X9.4717Y-5.122
X9.4717Y-5.1496
X9.4756Y-2.4055
X9.4756Y-2.8846
X9.4756Y-3.5866
X9.4756Y-4.0657
X9.4756Y-4.7677
X9.4756Y-5.2469
X9.4852Y-2.685
X9.4852Y-3.8661
X9.4852Y-5.0472
X9.4874Y-2.7362
X9.4874Y-3.9173
X9.4874Y-5.0984
X9.4953Y-2.4185
X9.4953Y-3.5996
X9.4953Y-4.7807
X9.4996Y-2.8878
X9.4996Y-4.0689
X9.4996Y-5.25
X9.5098Y-2.4331
X9.5098Y-3.6142
X9.5098Y-4.7953
X9.5205Y-2.8827
X9.5205Y-4.0638
X9.5205Y-5.2449
X9.5228Y-2.4724
X9.5228Y-2.5079
X9.5228Y-2.5433
X9.5228Y-2.6654
X9.5228Y-3.6535
X9.5228Y-3.689
X9.5228Y-3.7244
X9.5228Y-3.8465
X9.5228Y-4.8346
X9.5228Y-4.8701
X9.5228Y-4.9055
X9.5228Y-5.0276
X9.5236Y-2.5945
X9.5236Y-3.7756
X9.5236Y-4.9567
X9.5266Y-2.6358
X9.5266Y-3.8169
X9.5266Y-4.998
X9.5299Y-2.7909
X9.5299Y-3.972
X9.5299Y-5.1531
X9.5311Y-2.7669
X9.5311Y-3.948
X9.5311Y-5.1291
X9.5343Y-2.8213
X9.5343Y-4.0024
X9.5343Y-5.1835
X9.5366Y-2.8476
X9.5366Y-4.0287
X9.5366Y-5.2098
X9.5425Y-2.3858
X9.5425Y-3.5669
X9.5425Y-4.748
X9.5433Y-2.5827
X9.5433Y-3.7638
X9.5433Y-4.9449
X9.5465Y-2.4843
X9.5465Y-3.6654
X9.5465Y-4.8465
X9.55Y-2.7874
X9.55Y-3.9685
X9.55Y-5.1496
X9.5512Y-2.563
X9.5512Y-3.7441
X9.5512Y-4.9252
X9.5543Y-2.4055
X9.5543Y-3.5866
X9.5543Y-4.7677
X9.5551Y-2.6339
X9.5551Y-3.815
X9.5551Y-4.9961
X9.5661Y-2.5039
X9.5661Y-2.5433
X9.5661Y-3.685
X9.5661Y-3.7244
X9.5661Y-4.8661
X9.5661Y-4.9055
X9.5693Y-2.8051
X9.5693Y-3.9862
X9.5693Y-5.1673
X9.5728Y-2.2075
X9.5728Y-3.3886
X9.5728Y-4.5697
X9.574Y-2.4213
X9.574Y-3.6024
X9.574Y-4.7835
X9.5819Y-2.0315
X9.5819Y-3.1732
X9.5819Y-3.2126
X9.5819Y-4.3543
X9.5819Y-4.3937
X9.5819Y-5.5354
X9.5858Y-2.5236
X9.5858Y-3.7047
X9.5858Y-4.8858
X9.5882Y-2.7173
X9.5882Y-3.8984
X9.5882Y-5.0795
X9.589Y-2.8472
X9.589Y-4.0283
X9.589Y-5.2094
X9.5898Y-2.437
X9.5898Y-3.6181
X9.5898Y-4.7992
X9.5902Y-2.9094
X9.5902Y-4.0906
X9.5902Y-5.2717
X9.5909Y-2.8776
X9.5909Y-4.0587
X9.5909Y-5.2398
X9.5921Y-2.7449
X9.5921Y-2.8185
X9.5921Y-2.9406
X9.5921Y-3.926
X9.5921Y-3.9996
X9.5921Y-4.1217
X9.5921Y-5.1071
X9.5921Y-5.1807
X9.5921Y-5.3028
X9.598Y-2.2469
X9.598Y-3.428
X9.598Y-4.6091
X9.6055Y-2.4528
X9.6055Y-3.6339
X9.6055Y-4.815
X9.6079Y-2.1697
X9.6079Y-3.3508
X9.6079Y-4.5319
X9.6094Y-2.5866
X9.6094Y-2.6961
X9.6094Y-3.7677
X9.6094Y-3.8772
X9.6094Y-4.9488
X9.6094Y-5.0583
X9.6118Y-2.7618
X9.6118Y-3.9429
X9.6118Y-5.124
X9.6126Y-2.8358
X9.6126Y-4.0169
X9.6126Y-5.198
X9.6173Y-2.6142
X9.6173Y-3.7953
X9.6173Y-4.9764
X9.6201Y-2.1138
X9.6201Y-2.9484
X9.6201Y-3.2949
X9.6201Y-4.1295
X9.6201Y-4.476
X9.6201Y-5.3106
X9.6217Y-2.0303
X9.6217Y-3.2114
X9.6217Y-4.3925
X9.6244Y-2.7803
X9.6244Y-3.9614
X9.6244Y-5.1425
X9.6287Y-2.2839
X9.6287Y-3.465
X9.6287Y-4.6461
X9.6291Y-2.5709
X9.6291Y-3.752
X9.6291Y-4.9331
X9.6307Y-2.4094
X9.6307Y-3.5906
X9.6307Y-4.7717
X9.6311Y-3.1732
X9.6311Y-4.3543
X9.6311Y-5.5354
X9.6327Y-2.3217
X9.6327Y-3.5028
X9.6327Y-4.6839
X9.6335Y-2.6685
X9.6335Y-3.8496
X9.6335Y-5.0307
X9.6402Y-2.8024
X9.6402Y-3.9835
X9.6402Y-5.1646
X9.6433Y-2.1866
X9.6433Y-3.3677
X9.6433Y-4.5488
X9.6449Y-2.5866
X9.6449Y-2.6142
X9.6449Y-3.7677
X9.6449Y-3.7953
X9.6449Y-4.9488
X9.6449Y-4.9764
X9.6476Y-2.9496
X9.6476Y-4.1307
X9.6476Y-5.3118
X9.6528Y-2.5
X9.6528Y-3.6811
X9.6528Y-4.8622
X9.6551Y-2.365
X9.6551Y-3.5461
X9.6551Y-4.7272
X9.6618Y-2.8248
X9.6618Y-4.0059
X9.6618Y-5.187
X9.6646Y-2.5984
X9.6646Y-3.7795
X9.6646Y-4.9606
X9.6685Y-2.5157
X9.6685Y-3.6969
X9.6685Y-4.878
X9.6724Y-2.2957
X9.6724Y-2.9504
X9.6724Y-3.4768
X9.6724Y-4.1315
X9.6724Y-4.6579
X9.6724Y-5.3126
X9.6793Y-2.6142
X9.6793Y-3.7953
X9.6793Y-4.9764
X9.6799Y-2.1661
X9.6799Y-3.3472
X9.6799Y-4.5283
X9.6807Y-2.424
X9.6807Y-3.6051
X9.6807Y-4.7862
X9.6815Y-2.8461
X9.6815Y-4.0272
X9.6815Y-5.2083
X9.6843Y-2.5315
X9.6843Y-3.7126
X9.6843Y-4.8937
X9.688Y-2.6732
X9.688Y-3.8543
X9.688Y-5.0354
X9.6902Y-2.0315
X9.6902Y-3.1732
X9.6902Y-3.2126
X9.6902Y-4.3543
X9.6902Y-4.3937
X9.6902Y-5.5354
X9.6953Y-2.9299
X9.6953Y-4.111
X9.6953Y-5.2921
X9.6965Y-2.8701
X9.6965Y-4.0512
X9.6965Y-5.2323
X9.6972Y-2.8984
X9.6972Y-4.0795
X9.6972Y-5.2606
X9.6988Y-2.3201
X9.6988Y-3.5012
X9.6988Y-4.6823
X9.7031Y-2.3752
X9.7031Y-3.5563
X9.7031Y-4.7374
X9.7039Y-2.6142
X9.7039Y-3.7953
X9.7039Y-4.9764
X9.7055Y-2.4791
X9.7055Y-3.6602
X9.7055Y-4.8413
X9.7116Y-2.0965
X9.7116Y-3.2776
X9.7116Y-4.4587
X9.7123Y-2.0406
X9.7123Y-3.2217
X9.7123Y-4.4028
X9.7134Y-2.4311
X9.7134Y-3.6122
X9.7134Y-4.7933
X9.7248Y-2.985
X9.7248Y-4.1661
X9.7248Y-5.3472
X9.727Y-2.0585
X9.727Y-3.2396
X9.727Y-4.4207
X9.7291Y-3.0677
X9.7291Y-4.2488
X9.7291Y-5.4299
X9.7315Y-2.5669
X9.7315Y-3.748
X9.7315Y-4.9291
X9.7333Y-3.1703
X9.7333Y-4.3514
X9.7333Y-5.5325
X9.7433Y-2.4331
X9.7433Y-3.6142
X9.7433Y-4.7953
X9.7451Y-2.8917
X9.7451Y-4.0728
X9.7451Y-5.2539
X9.7453Y-2.6663
X9.7453Y-3.8474
X9.7453Y-5.0285
X9.7488Y-2.915
X9.7488Y-4.0961
X9.7488Y-5.2772
X9.7528Y-2.4854
X9.7528Y-3.6665
X9.7528Y-4.8476
X9.7559Y-2.4132
X9.7559Y-3.5943
X9.7559Y-4.7755
X9.7585Y-2.4552
X9.7585Y-3.6363
X9.7585Y-4.8175
X9.7598Y-2.5197
X9.7598Y-3.7008
X9.7598Y-4.8819
X9.7705Y-2.2894
X9.7705Y-3.4705
X9.7705Y-4.6516
X9.7747Y-2.3818
X9.7747Y-3.5629
X9.7747Y-4.744
X9.7827Y-3.0551
X9.7827Y-4.2362
X9.7827Y-5.4173
X9.7866Y-2.5551
X9.7866Y-3.7362
X9.7866Y-4.9173
X9.7882Y-2.0272
X9.7882Y-3.2083
X9.7882Y-4.3894
X9.7906Y-2.4882
X9.7906Y-3.6693
X9.7906Y-4.8504
X9.7945Y-2.685
X9.7945Y-3.8661
X9.7945Y-5.0472
X9.8067Y-2.148
X9.8067Y-3.3291
X9.8067Y-4.5102
X9.8142Y-2.2555
X9.8142Y-3.4366
X9.8142Y-4.6177
X9.8173Y-2.0492
X9.8173Y-3.2303
X9.8173Y-4.4114
X9.8181Y-2.0984
X9.8181Y-3.2795
X9.8181Y-4.4606
X9.8215Y-3.0768
X9.8215Y-4.2579
X9.8215Y-5.439
X9.823Y-2.2881
X9.823Y-3.4692
X9.823Y-4.6503
X9.828Y-3.1634
X9.828Y-4.3445
X9.828Y-5.5256
X9.8289Y-2.5669
X9.8289Y-3.748
X9.8289Y-4.9291
X9.8299Y-2.7318
X9.8299Y-3.9129
X9.8299Y-5.094
X9.8324Y-2.7556
X9.8324Y-3.9367
X9.8324Y-5.1178
X9.8354Y-2.239
X9.8354Y-3.4201
X9.8354Y-4.6012
X9.8422Y-2.3595
X9.8422Y-3.5406
X9.8422Y-4.7217
X9.8488Y-2.1661
X9.8488Y-3.3472
X9.8488Y-4.5283
X9.8563Y-2.3407
X9.8563Y-3.5218
X9.8563Y-4.7029
X9.8681Y-2.9203
X9.8681Y-4.1014
X9.8681Y-5.2825
X9.8722Y-2.8171
X9.8722Y-3.9982
X9.8722Y-5.1793
X9.8799Y-2.9596
X9.8799Y-4.1407
X9.8799Y-5.3219
X9.8898Y-2.9113
X9.8898Y-4.0924
X9.8898Y-5.2735
X9.8909Y-2.5311
X9.8909Y-3.7122
X9.8909Y-4.8933
X9.8941Y-2.3346
X9.8941Y-3.5157
X9.8941Y-4.6969
X9.9047Y-2.2598
X9.9047Y-3.4409
X9.9047Y-4.622
X9.9114Y-2.9203
X9.9114Y-4.1014
X9.9114Y-5.2825
X9.9126Y-2.2323
X9.9126Y-3.4134
X9.9126Y-4.5945
X9.9142Y-2.461
X9.9142Y-3.6421
X9.9142Y-4.8232
X9.9205Y-3.0551
X9.9205Y-4.2362
X9.9205Y-5.4173
X9.922Y-2.2929
X9.922Y-3.474
X9.922Y-4.6551
X9.9238Y-2.8627
X9.9238Y-4.0438
X9.9238Y-5.2249
X9.924Y-2.0495
X9.924Y-3.2306
X9.924Y-4.4117
X9.9264Y-3.1634
X9.9264Y-4.3445
X9.9264Y-5.5256
X9.9303Y-2.0272
X9.9303Y-3.2083
X9.9303Y-4.3894
X9.9323Y-2.6181
X9.9323Y-3.7992
X9.9323Y-4.9803
X9.9365Y-2.764
X9.9365Y-3.9451
X9.9365Y-5.1263
X9.9366Y-2.0949
X9.9366Y-3.276
X9.9366Y-4.4571
X9.938Y-2.2441
X9.938Y-3.4252
X9.938Y-4.6063
X9.9426Y-2.3643
X9.9426Y-3.5454
X9.9426Y-4.7265
X9.9441Y-2.3976
X9.9441Y-3.5787
X9.9441Y-4.7598
X9.9454Y-2.8873
X9.9454Y-4.0684
X9.9454Y-5.2495
X9.952Y-3.0648
X9.952Y-4.2459
X9.952Y-5.427
X9.9592Y-2.5275
X9.9592Y-3.7087
X9.9592Y-4.8898
X9.9667Y-2.0335
X9.9667Y-3.2146
X9.9667Y-4.3957
X9.9735Y-2.9615
X9.9735Y-4.1426
X9.9735Y-5.3237
X9.9764Y-2.811
X9.9764Y-3.9921
X9.9764Y-5.1732
X9.9786Y-2.4685
X9.9786Y-3.6496
X9.9786Y-4.8308
X9.9805Y-2.5184
X9.9805Y-3.6995
X9.9805Y-4.8806
X9.9827Y-2.3658
X9.9827Y-3.5469
X9.9827Y-4.728
X9.9845Y-2.3965
X9.9845Y-3.5776
X9.9845Y-4.7587
X10.0059Y-3.1378
X10.0059Y-4.3189
X10.0059Y-5.5
X10.0066Y-2.9843
X10.0066Y-4.1654
X10.0066Y-5.3465
X10.0081Y-2.9577
X10.0081Y-4.1388
X10.0081Y-5.3199
X10.0091Y-2.8665
X10.0091Y-4.0476
X10.0091Y-5.2287
X10.0098Y-2.0561
X10.0098Y-3.2372
X10.0098Y-4.4183
X10.0106Y-2.1634
X10.0106Y-3.3445
X10.0106Y-4.5256
X10.0135Y-2.2881
X10.0135Y-3.4692
X10.0135Y-4.6503
X10.015Y-3.0866
X10.015Y-4.2677
X10.015Y-5.4488
X10.0217Y-2.3917
X10.0217Y-3.5728
X10.0217Y-4.7539
X10.023Y-3.0477
X10.023Y-4.2288
X10.023Y-5.4099
X10.0248Y-3.1634
X10.0248Y-4.3445
X10.0248Y-5.5256
X10.0252Y-2.3559
X10.0252Y-3.537
X10.0252Y-4.7181
X10.0269Y-2.3278
X10.0269Y-3.5089
X10.0269Y-4.69
X10.029Y-2.4838
X10.029Y-3.6649
X10.029Y-4.846
X10.0303Y-2.0854
X10.0303Y-3.2665
X10.0303Y-4.4476
X10.0323Y-2.2051
X10.0323Y-3.3862
X10.0323Y-4.5673
X10.0339Y-2.1394
X10.0339Y-2.8657
X10.0339Y-3.3205
X10.0339Y-4.0469
X10.0339Y-4.5016
X10.0339Y-5.228
X10.0406Y-2.248
X10.0406Y-3.4291
X10.0406Y-4.6102
X10.0425Y-2.9291
X10.0425Y-4.1102
X10.0425Y-5.2913
X10.0463Y-2.1083
X10.0463Y-3.2894
X10.0463Y-4.4705
X10.0465Y-3.0079
X10.0465Y-4.189
X10.0465Y-5.3701
X10.0571Y-2.0283
X10.0571Y-3.2094
X10.0571Y-4.3906
X10.0598Y-2.8601
X10.0598Y-4.0412
X10.0598Y-5.2224
X10.0609Y-2.492
X10.0609Y-3.6731
X10.0609Y-4.8542
X10.0709Y-2.185
X10.0709Y-3.3661
X10.0709Y-4.5472
X10.074Y-2.815
X10.074Y-3.9961
X10.074Y-5.1772
X10.076Y-3.0657
X10.076Y-4.2469
X10.076Y-5.428
X10.078Y-2.0425
X10.078Y-2.7638
X10.078Y-3.2236
X10.078Y-3.9449
X10.078Y-4.4047
X10.078Y-5.126
X10.0932Y-2.3858
X10.0932Y-3.5669
X10.0932Y-4.748
X10.0937Y-2.5079
X10.0937Y-3.689
X10.0937Y-4.8701
X10.1091Y-3.0811
X10.1091Y-4.2622
X10.1091Y-5.4433
X10.1196Y-3.0509
X10.1196Y-4.232
X10.1196Y-5.4131
X10.1201Y-3.1506
X10.1201Y-4.3317
X10.1201Y-5.5128
X10.1213Y-2.2531
X10.1213Y-3.4343
X10.1213Y-4.6154
X10.1217Y-2.2031
X10.1217Y-3.3843
X10.1217Y-4.5654
X10.1219Y-2.742
X10.1219Y-3.9231
X10.1219Y-5.1042
X10.1228Y-2.3976
X10.1228Y-3.5787
X10.1228Y-4.7598
X10.123Y-2.686
X10.123Y-3.8671
X10.123Y-5.0482
X10.1244Y-2.3362
X10.1244Y-3.5173
X10.1244Y-4.6984
X10.126Y-2.5325
X10.126Y-3.7136
X10.126Y-4.8947
X10.1303Y-2.1449
X10.1303Y-3.326
X10.1303Y-4.5071
X10.1309Y-2.8297
X10.1309Y-4.0108
X10.1309Y-5.1919
X10.1378Y-2.4157
X10.1378Y-3.5969
X10.1378Y-4.778
X10.1398Y-2.561
X10.1398Y-3.7421
X10.1398Y-4.9232
X10.1414Y-2.6453
X10.1414Y-3.8264
X10.1414Y-5.0075
X10.1421Y-2.265
X10.1421Y-3.4461
X10.1421Y-4.6272
X10.1484Y-2.5118
X10.1484Y-3.6929
X10.1484Y-4.874
X10.152Y-2.4543
X10.152Y-3.6354
X10.152Y-4.8165
X10.1545Y-2.8189
X10.1545Y-4.0
X10.1545Y-5.1811
X10.1622Y-3.1187
X10.1622Y-4.2998
X10.1622Y-5.4809
X10.1639Y-2.7639
X10.1639Y-3.945
X10.1639Y-5.1261
X10.1641Y-2.6623
X10.1641Y-3.8435
X10.1641Y-5.0246
X10.1661Y-2.7026
X10.1661Y-3.8837
X10.1661Y-5.0648
X10.1693Y-2.7864
X10.1693Y-3.9675
X10.1693Y-5.1486
X10.1697Y-2.0473
X10.1697Y-3.2284
X10.1697Y-4.4095
X10.1703Y-2.7254
X10.1703Y-3.9065
X10.1703Y-5.0876
X10.1704Y-2.9362
X10.1704Y-4.1173
X10.1704Y-5.2984
X10.1749Y-2.6221
X10.1749Y-3.8032
X10.1749Y-4.9843
X10.1791Y-2.188
X10.1791Y-3.3691
X10.1791Y-4.5502
X10.1826Y-2.5981
X10.1826Y-3.7792
X10.1826Y-4.9603
X10.187Y-2.3925
X10.187Y-3.5736
X10.187Y-4.7547
X10.1886Y-2.0303
X10.1886Y-3.2114
X10.1886Y-4.3925
X10.1892Y-2.4605
X10.1892Y-3.6416
X10.1892Y-4.8227
X10.19Y-2.7441
X10.19Y-3.9252
X10.19Y-5.1063
X10.1909Y-2.679
X10.1909Y-3.8601
X10.1909Y-5.0412
X10.2096Y-2.8642
X10.2096Y-4.0453
X10.2096Y-5.2264
X10.2198Y-2.1053
X10.2198Y-3.2864
X10.2198Y-4.4675
X10.2211Y-2.6787
X10.2211Y-3.8598
X10.2211Y-5.0409
X10.222Y-3.0146
X10.222Y-4.1957
X10.222Y-5.3768
X10.2254Y-3.1516
X10.2254Y-4.3327
X10.2254Y-5.5138
X10.2274Y-2.9124
X10.2274Y-4.0935
X10.2274Y-5.2746
X10.2404Y-2.2874
X10.2404Y-3.4685
X10.2404Y-4.6496
X10.2409Y-2.3523
X10.2409Y-3.5334
X10.2409Y-4.7145
X10.2413Y-2.4224
X10.2413Y-3.6035
X10.2413Y-4.7846
X10.2441Y-2.6817
X10.2441Y-3.8628
X10.2441Y-5.0439
X10.2468Y-2.5616
X10.2468Y-3.7427
X10.2468Y-4.9238
X10.2476Y-2.7913
X10.2476Y-3.9724
X10.2476Y-5.1535
X10.2477Y-2.6058
X10.2477Y-3.7869
X10.2477Y-4.968
X10.2634Y-2.7012
X10.2634Y-3.8823
X10.2634Y-5.0634
X10.2746Y-2.9597
X10.2746Y-4.1408
X10.2746Y-5.3219
X10.2746Y-2.1683
X10.2746Y-3.3494
X10.2746Y-4.5305
X10.2748Y-2.8622
X10.2748Y-4.0433
X10.2748Y-5.2244
X10.2774Y-2.8236
X10.2774Y-4.0047
X10.2774Y-5.1858
X10.2791Y-2.7437
X10.2791Y-3.9248
X10.2791Y-5.1059
X10.2797Y-2.6557
X10.2797Y-3.8368
X10.2797Y-5.0179
X10.2803Y-2.435
X10.2803Y-3.6161
X10.2803Y-4.7972
X10.2921Y-2.0317
X10.2921Y-3.2128
X10.2921Y-4.3939
X10.2946Y-2.5842
X10.2946Y-3.7653
X10.2946Y-4.9464
X10.3Y-2.3591
X10.3Y-3.5402
X10.3Y-4.7213
X10.3068Y-2.2118
X10.3068Y-3.3929
X10.3068Y-4.574
X10.3098Y-2.9923
X10.3098Y-4.1734
X10.3098Y-5.3545
X10.3153Y-2.0315
X10.3153Y-3.2126
X10.3153Y-4.3937
X10.3159Y-2.1053
X10.3159Y-3.2864
X10.3159Y-4.4675
X10.3168Y-2.9701
X10.3168Y-4.1512
X10.3168Y-5.3323
X10.3213Y-3.148
X10.3213Y-4.3291
X10.3213Y-5.5102
X10.3255Y-2.8419
X10.3255Y-4.023
X10.3255Y-5.2041
X10.3256Y-2.4567
X10.3256Y-3.6378
X10.3256Y-4.8189
X10.3378Y-2.6929
X10.3378Y-3.874
X10.3378Y-5.0551
X10.3388Y-2.0605
X10.3388Y-3.2416
X10.3388Y-4.4227
X10.3391Y-2.7427
X10.3391Y-3.9238
X10.3391Y-5.1049
X10.3394Y-3.1786
X10.3394Y-4.3597
X10.3394Y-5.5408
X10.3396Y-2.9442
X10.3396Y-4.1253
X10.3396Y-5.3064
X10.3397Y-2.57
X10.3397Y-3.7511
X10.3397Y-4.9322
X10.3406Y-2.513
X10.3406Y-3.6941
X10.3406Y-4.8752
X10.3406Y-3.0041
X10.3406Y-4.1852
X10.3406Y-5.3663
X10.3496Y-2.1693
X10.3496Y-3.3504
X10.3496Y-4.5315
X10.3635Y-2.5782
X10.3635Y-3.7593
X10.3635Y-4.9404
X10.3701Y-2.7931
X10.3701Y-3.9742
X10.3701Y-5.1553
X10.3733Y-2.5477
X10.3733Y-3.7288
X10.3733Y-4.9099
X10.378Y-2.8461
X10.378Y-4.0272
X10.378Y-5.2083
X10.3862Y-2.4323
X10.3862Y-3.6134
X10.3862Y-4.7945
X10.4047Y-2.2874
X10.4047Y-3.4685
X10.4047Y-4.6496
X10.4052Y-2.6821
X10.4052Y-3.8632
X10.4052Y-5.0443
X10.4129Y-2.0311
X10.4129Y-3.2122
X10.4129Y-4.3933
X10.4137Y-3.035
X10.4137Y-4.2161
X10.4137Y-5.3972
X10.4183Y-2.9931
X10.4183Y-4.1742
X10.4183Y-5.3553
X10.4205Y-2.0945
X10.4205Y-2.2441
X10.4205Y-3.2756
X10.4205Y-3.4252
X10.4205Y-4.4567
X10.4205Y-4.6063
X10.4256Y-2.6949
X10.4256Y-3.876
X10.4256Y-5.0571
X10.4315Y-3.1099
X10.4315Y-4.291
X10.4315Y-5.4721
X10.4331Y-2.5842
X10.4331Y-3.7653
X10.4331Y-4.9464
X10.4394Y-2.2827
X10.4394Y-3.4638
X10.4394Y-4.6449
X10.45Y-2.9291
X10.45Y-4.1102
X10.45Y-5.2913
X10.452Y-2.1972
X10.452Y-3.3783
X10.452Y-4.5594
X10.4539Y-2.0364
X10.4539Y-3.2175
X10.4539Y-4.3986
X10.4606Y-2.2835
X10.4606Y-3.4646
X10.4606Y-4.6457
X10.4638Y-2.248
X10.4638Y-3.4291
X10.4638Y-4.6102
X10.4669Y-3.1284
X10.4669Y-4.3095
X10.4669Y-5.4906
X10.4723Y-3.0203
X10.4723Y-4.2014
X10.4723Y-5.3825
X10.4728Y-2.3882
X10.4728Y-3.5693
X10.4728Y-4.7504
X10.4754Y-2.3012
X10.4754Y-3.4823
X10.4754Y-4.6634
X10.4886Y-2.1244
X10.4886Y-3.3055
X10.4886Y-4.4866
X10.4908Y-2.6216
X10.4908Y-3.8027
X10.4908Y-4.9838
X10.4953Y-2.0768
X10.4953Y-3.2579
X10.4953Y-4.439
X10.5012Y-3.1622
X10.5012Y-4.3433
X10.5012Y-5.5244
X10.5043Y-3.0622
X10.5043Y-4.2433
X10.5043Y-5.4244
X10.5071Y-2.7992
X10.5071Y-2.8878
X10.5071Y-3.9803
X10.5071Y-4.0689
X10.5071Y-5.1614
X10.5071Y-5.25
X10.5228Y-2.9173
X10.5228Y-4.0984
X10.5228Y-5.2795
X10.5244Y-2.6862
X10.5244Y-3.8673
X10.5244Y-5.0484
X10.5302Y-2.5016
X10.5302Y-3.6827
X10.5302Y-4.8638
X10.5307Y-3.1339
X10.5307Y-4.315
X10.5307Y-5.4961
X10.5346Y-3.0276
X10.5346Y-4.2087
X10.5346Y-5.3898
X10.5598Y-2.3268
X10.5598Y-3.5079
X10.5598Y-4.689
X10.5701Y-2.8898
X10.5701Y-4.0709
X10.5701Y-5.252
X10.571Y-2.6862
X10.571Y-3.8673
X10.571Y-5.0484
X10.5791Y-2.2756
X10.5791Y-3.4567
X10.5791Y-4.6378
X10.5798Y-2.6136
X10.5798Y-3.7947
X10.5798Y-4.9758
X10.5825Y-2.4731
X10.5825Y-3.6542
X10.5825Y-4.8353
X10.5867Y-2.9741
X10.5867Y-4.1552
X10.5867Y-5.3363
X10.59Y-2.6359
X10.59Y-3.817
X10.59Y-4.9981
X10.5917Y-2.7146
X10.5917Y-3.8957
X10.5917Y-5.0768
X10.6031Y-3.0039
X10.6031Y-4.185
X10.6031Y-5.3661
X10.6055Y-3.1732
X10.6055Y-4.3543
X10.6055Y-5.5354
X10.6073Y-2.4744
X10.6073Y-3.6555
X10.6073Y-4.8366
X10.6075Y-2.572
X10.6075Y-3.7531
X10.6075Y-4.9343
X10.6095Y-2.3018
X10.6095Y-3.4829
X10.6095Y-4.664
X10.6154Y-2.8819
X10.6154Y-4.063
X10.6154Y-5.2441
X10.6206Y-2.9173
X10.6206Y-4.0984
X10.6206Y-5.2795
X10.6224Y-2.6193
X10.6224Y-3.8004
X10.6224Y-4.9815
X10.6256Y-2.2819
X10.6256Y-3.463
X10.6256Y-4.6441
X10.6432Y-2.59
X10.6432Y-3.7711
X10.6432Y-4.9522
X10.6646Y-2.7205
X10.6646Y-2.7992
X10.6646Y-2.8878
X10.6646Y-3.9016
X10.6646Y-3.9803
X10.6646Y-4.0689
X10.6646Y-5.0827
X10.6646Y-5.1614
X10.6646Y-5.25
X10.6884Y-2.6209
X10.6884Y-3.802
X10.6884Y-4.9831
X10.6898Y-2.311
X10.6898Y-3.4921
X10.6898Y-4.6732
X10.7016Y-2.5098
X10.7016Y-3.6909
X10.7016Y-4.872
X10.7362Y-2.628
X10.7362Y-3.8091
X10.7362Y-4.9902
X10.7548Y-2.872
X10.7548Y-2.872
X10.7548Y-4.0531
X10.7548Y-4.0531
X10.7548Y-5.2343
X10.7548Y-5.2343
X10.7567Y-3.0016
X10.7567Y-4.1827
X10.7567Y-5.3638
X10.763Y-2.7579
X10.763Y-3.1732
X10.763Y-3.939
X10.763Y-4.3543
X10.763Y-5.1201
X10.763Y-5.5354
X10.7683Y-3.022
X10.7683Y-4.2031
X10.7683Y-5.3843
T3
X9.4382Y-4.4724
X9.4572Y-4.4265
X9.4572Y-4.5184
X9.5031Y-4.4075
X9.5031Y-4.5374
X9.5491Y-4.4265
X9.5491Y-4.5184
X9.5681Y-4.4724
X10.6193Y-2.1087
X10.6383Y-2.0627
X10.6383Y-2.1546
X10.6843Y-2.0437
X10.6843Y-2.1736
X10.7302Y-2.0627
X10.7302Y-2.1546
X10.7492Y-2.1087
X6.3673Y-3.2898
X6.3863Y-3.2438
X6.3863Y-3.3357
X6.4323Y-3.2248
X6.4323Y-3.3547
X6.4782Y-3.2438
X6.4782Y-3.3357
X6.4972Y-3.2898
X9.202Y-4.4709
X9.221Y-4.4249
X9.221Y-4.5168
X9.2669Y-4.4059
X9.2669Y-4.5358
X9.3129Y-4.4249
X9.3129Y-4.5168
X9.3319Y-4.4709
X9.202Y-5.4567
X9.221Y-5.4108
X9.221Y-5.5026
X9.2669Y-5.3917
X9.2669Y-5.5217
X9.3129Y-5.4108
X9.3129Y-5.5026
X9.3319Y-5.4567
X6.6035Y-4.4724
X6.6226Y-4.4265
X6.6226Y-4.5184
X6.6685Y-4.4075
X6.6685Y-4.5374
X6.7144Y-4.4265
X6.7144Y-4.5184
X6.7335Y-4.4724
X5.1862Y-3.0945
X5.2052Y-3.0486
X5.2052Y-3.1404
X5.2512Y-3.0295
X5.2512Y-3.1594
X5.2971Y-3.0486
X5.2971Y-3.1404
X5.3161Y-3.0945
X6.6035Y-3.2913
X6.6226Y-3.2454
X6.6226Y-3.3373
X6.6685Y-3.2264
X6.6685Y-3.3563
X6.7144Y-3.2454
X6.7144Y-3.3373
X6.7335Y-3.2913
X7.7846Y-4.4709
X7.8037Y-4.4249
X7.8037Y-4.5168
X7.8496Y-4.4059
X7.8496Y-4.5358
X7.8955Y-4.4249
X7.8955Y-4.5168
X7.9146Y-4.4709
X10.6193Y-3.2898
X10.6383Y-3.2438
X10.6383Y-3.3357
X10.6843Y-3.2248
X10.6843Y-3.3547
X10.7302Y-3.2438
X10.7302Y-3.3357
X10.7492Y-3.2898
X7.7846Y-5.4567
X7.8037Y-5.4108
X7.8037Y-5.5026
X7.8496Y-5.3917
X7.8496Y-5.5217
X7.8955Y-5.4108
X7.8955Y-5.5026
X7.9146Y-5.4567
X9.202Y-3.2898
X9.221Y-3.2438
X9.221Y-3.3357
X9.2669Y-3.2248
X9.2669Y-3.3547
X9.3129Y-3.2438
X9.3129Y-3.3357
X9.3319Y-3.2898
X6.3673Y-3.0945
X6.3863Y-3.0486
X6.3863Y-3.1404
X6.4323Y-3.0295
X6.4323Y-3.1594
X6.4782Y-3.0486
X6.4782Y-3.1404
X6.4972Y-3.0945
X10.6193Y-5.4567
X10.6383Y-5.4108
X10.6383Y-5.5026
X10.6843Y-5.3917
X10.6843Y-5.5217
X10.7302Y-5.4108
X10.7302Y-5.5026
X10.7492Y-5.4567
X9.202Y-2.1087
X9.221Y-2.0627
X9.221Y-2.1546
X9.2669Y-2.0437
X9.2669Y-2.1736
X9.3129Y-2.0627
X9.3129Y-2.1546
X9.3319Y-2.1087
X5.1862Y-4.2756
X5.2052Y-4.2297
X5.2052Y-4.3215
X5.2512Y-4.2106
X5.2512Y-4.3406
X5.2971Y-4.2297
X5.2971Y-4.3215
X5.3161Y-4.2756
X6.6035Y-5.4567
X6.6226Y-5.4108
X6.6226Y-5.5026
X6.6685Y-5.3917
X6.6685Y-5.5217
X6.7144Y-5.4108
X6.7144Y-5.5026
X6.7335Y-5.4567
X9.4382Y-5.4567
X9.4572Y-5.4108
X9.4572Y-5.5026
X9.5031Y-5.3917
X9.5031Y-5.5217
X9.5491Y-5.4108
X9.5491Y-5.5026
X9.5681Y-5.4567
X6.3673Y-5.4567
X6.3863Y-5.4108
X6.3863Y-5.5026
X6.4323Y-5.3917
X6.4323Y-5.5217
X6.4782Y-5.4108
X6.4782Y-5.5026
X6.4972Y-5.4567
X8.0209Y-4.4724
X8.0399Y-4.4265
X8.0399Y-4.5184
X8.0858Y-4.4075
X8.0858Y-4.5374
X8.1318Y-4.4265
X8.1318Y-4.5184
X8.1508Y-4.4724
X9.4382Y-3.0945
X9.4572Y-3.0486
X9.4572Y-3.1404
X9.5031Y-3.0295
X9.5031Y-3.1594
X9.5491Y-3.0486
X9.5491Y-3.1404
X9.5681Y-3.0945
X6.6035Y-4.2756
X6.6226Y-4.2297
X6.6226Y-4.3215
X6.6685Y-4.2106
X6.6685Y-4.3406
X6.7144Y-4.2297
X6.7144Y-4.3215
X6.7335Y-4.2756
X5.1862Y-2.1102
X5.2052Y-2.0643
X5.2052Y-2.1562
X5.2512Y-2.0453
X5.2512Y-2.1752
X5.2971Y-2.0643
X5.2971Y-2.1562
X5.3161Y-2.1102
X6.3673Y-2.1087
X6.3863Y-2.0627
X6.3863Y-2.1546
X6.4323Y-2.0437
X6.4323Y-2.1736
X6.4782Y-2.0627
X6.4782Y-2.1546
X6.4972Y-2.1087
X9.202Y-4.2756
X9.221Y-4.2297
X9.221Y-4.3215
X9.2669Y-4.2106
X9.2669Y-4.3406
X9.3129Y-4.2297
X9.3129Y-4.3215
X9.3319Y-4.2756
X7.7846Y-4.2756
X7.8037Y-4.2297
X7.8037Y-4.3215
X7.8496Y-4.2106
X7.8496Y-4.3406
X7.8955Y-4.2297
X7.8955Y-4.3215
X7.9146Y-4.2756
X8.0209Y-2.1102
X8.0399Y-2.0643
X8.0399Y-2.1562
X8.0858Y-2.0453
X8.0858Y-2.1752
X8.1318Y-2.0643
X8.1318Y-2.1562
X8.1508Y-2.1102
X10.6193Y-4.4709
X10.6383Y-4.4249
X10.6383Y-4.5168
X10.6843Y-4.4059
X10.6843Y-4.5358
X10.7302Y-4.4249
X10.7302Y-4.5168
X10.7492Y-4.4709
X7.7846Y-3.2898
X7.8037Y-3.2438
X7.8037Y-3.3357
X7.8496Y-3.2248
X7.8496Y-3.3547
X7.8955Y-3.2438
X7.8955Y-3.3357
X7.9146Y-3.2898
X8.0209Y-4.2756
X8.0399Y-4.2297
X8.0399Y-4.3215
X8.0858Y-4.2106
X8.0858Y-4.3406
X8.1318Y-4.2297
X8.1318Y-4.3215
X8.1508Y-4.2756
X8.0209Y-3.2913
X8.0399Y-3.2454
X8.0399Y-3.3373
X8.0858Y-3.2264
X8.0858Y-3.3563
X8.1318Y-3.2454
X8.1318Y-3.3373
X8.1508Y-3.2913
X6.3673Y-4.4709
X6.3863Y-4.4249
X6.3863Y-4.5168
X6.4323Y-4.4059
X6.4323Y-4.5358
X6.4782Y-4.4249
X6.4782Y-4.5168
X6.4972Y-4.4709
X6.6035Y-3.0945
X6.6226Y-3.0486
X6.6226Y-3.1404
X6.6685Y-3.0295
X6.6685Y-3.1594
X6.7144Y-3.0486
X6.7144Y-3.1404
X6.7335Y-3.0945
X10.6193Y-3.0945
X10.6383Y-3.0486
X10.6383Y-3.1404
X10.6843Y-3.0295
X10.6843Y-3.1594
X10.7302Y-3.0486
X10.7302Y-3.1404
X10.7492Y-3.0945
X8.0209Y-3.0945
X8.0399Y-3.0486
X8.0399Y-3.1404
X8.0858Y-3.0295
X8.0858Y-3.1594
X8.1318Y-3.0486
X8.1318Y-3.1404
X8.1508Y-3.0945
X5.1862Y-3.2913
X5.2052Y-3.2454
X5.2052Y-3.3373
X5.2512Y-3.2264
X5.2512Y-3.3563
X5.2971Y-3.2454
X5.2971Y-3.3373
X5.3161Y-3.2913
X9.4382Y-4.2756
X9.4572Y-4.2297
X9.4572Y-4.3215
X9.5031Y-4.2106
X9.5031Y-4.3406
X9.5491Y-4.2297
X9.5491Y-4.3215
X9.5681Y-4.2756
X6.6035Y-2.1102
X6.6226Y-2.0643
X6.6226Y-2.1562
X6.6685Y-2.0453
X6.6685Y-2.1752
X6.7144Y-2.0643
X6.7144Y-2.1562
X6.7335Y-2.1102
X5.1862Y-4.4724
X5.2052Y-4.4265
X5.2052Y-4.5184
X5.2512Y-4.4075
X5.2512Y-4.5374
X5.2971Y-4.4265
X5.2971Y-4.5184
X5.3161Y-4.4724
X10.6193Y-4.2756
X10.6383Y-4.2297
X10.6383Y-4.3215
X10.6843Y-4.2106
X10.6843Y-4.3406
X10.7302Y-4.2297
X10.7302Y-4.3215
X10.7492Y-4.2756
X7.7846Y-2.1087
X7.8037Y-2.0627
X7.8037Y-2.1546
X7.8496Y-2.0437
X7.8496Y-2.1736
X7.8955Y-2.0627
X7.8955Y-2.1546
X7.9146Y-2.1087
X6.3673Y-4.2756
X6.3863Y-4.2297
X6.3863Y-4.3215
X6.4323Y-4.2106
X6.4323Y-4.3406
X6.4782Y-4.2297
X6.4782Y-4.3215
X6.4972Y-4.2756
X9.4382Y-2.1102
X9.4572Y-2.0643
X9.4572Y-2.1562
X9.5031Y-2.0453
X9.5031Y-2.1752
X9.5491Y-2.0643
X9.5491Y-2.1562
X9.5681Y-2.1102
X9.4382Y-3.2913
X9.4572Y-3.2454
X9.4572Y-3.3373
X9.5031Y-3.2264
X9.5031Y-3.3563
X9.5491Y-3.2454
X9.5491Y-3.3373
X9.5681Y-3.2913
X5.1862Y-5.4567
X5.2052Y-5.4108
X5.2052Y-5.5026
X5.2512Y-5.3917
X5.2512Y-5.5217
X5.2971Y-5.4108
X5.2971Y-5.5026
X5.3161Y-5.4567
X8.0209Y-5.4567
X8.0399Y-5.4108
X8.0399Y-5.5026
X8.0858Y-5.3917
X8.0858Y-5.5217
X8.1318Y-5.4108
X8.1318Y-5.5026
X8.1508Y-5.4567
X9.202Y-3.0945
X9.221Y-3.0486
X9.221Y-3.1404
X9.2669Y-3.0295
X9.2669Y-3.1594
X9.3129Y-3.0486
X9.3129Y-3.1404
X9.3319Y-3.0945
X7.7846Y-3.0945
X7.8037Y-3.0486
X7.8037Y-3.1404
X7.8496Y-3.0295
X7.8496Y-3.1594
X7.8955Y-3.0486
X7.8955Y-3.1404
X7.9146Y-3.0945
T5
X5.3898Y-4.0748
X8.2244Y-2.8937
X6.8071Y-2.8937
X5.3898Y-5.2559
X6.8071Y-5.2559
X9.6417Y-4.0748
X6.8071Y-4.0748
X8.2244Y-4.0748
X9.6417Y-5.2559
X8.2244Y-5.2559
X5.3898Y-2.8937
X9.6417Y-2.8937
T6
X9.2669Y-3.0945
X7.8496Y-3.0945
X9.5031Y-4.4724
X10.6843Y-2.1087
X6.4323Y-3.2898
X9.2669Y-4.4709
X9.2669Y-5.4567
X6.6685Y-4.4724
X5.2512Y-3.0945
X6.6685Y-3.2913
X7.8496Y-4.4709
X10.6843Y-3.2898
X7.8496Y-5.4567
X9.2669Y-3.2898
X6.4323Y-3.0945
X10.6843Y-5.4567
X9.2669Y-2.1087
X5.2512Y-4.2756
X6.6685Y-5.4567
X9.5031Y-5.4567
X6.4323Y-5.4567
X8.0858Y-4.4724
X9.5031Y-3.0945
X6.6685Y-4.2756
X5.2512Y-2.1102
X6.4323Y-2.1087
X9.2669Y-4.2756
X7.8496Y-4.2756
X8.0858Y-2.1102
X10.6843Y-4.4709
X7.8496Y-3.2898
X8.0858Y-4.2756
X8.0858Y-3.2913
X6.4323Y-4.4709
X6.6685Y-3.0945
X10.6843Y-3.0945
X8.0858Y-3.0945
X5.2512Y-3.2913
X9.5031Y-4.2756
X6.6685Y-2.1102
X5.2512Y-4.4724
X10.6843Y-4.2756
X7.8496Y-2.1087
X6.4323Y-4.2756
X9.5031Y-2.1102
X9.5031Y-3.2913
X5.2512Y-5.4567
X8.0858Y-5.4567
T7
X6.3012Y-2.2996
X6.3012Y-2.5272
X9.1358Y-2.2996
X9.1358Y-2.5272
X6.3012Y-4.6618
X6.3012Y-4.8894
X7.7185Y-3.4807
X7.7185Y-3.7083
X7.7185Y-4.6618
X7.7185Y-4.8894
X6.3012Y-3.4807
X6.3012Y-3.7083
X10.5531Y-2.2996
X10.5531Y-2.5272
X9.1358Y-4.6618
X9.1358Y-4.8894
X10.5531Y-3.4807
X10.5531Y-3.7083
X7.7185Y-2.2996
X7.7185Y-2.5272
X10.5531Y-4.6618
X10.5531Y-4.8894
X9.1358Y-3.4807
X9.1358Y-3.7083
T8
X6.0387Y-2.9181
X6.0787Y-2.6181
X6.1187Y-2.9181
X7.4561Y-2.9181
X7.4961Y-2.6181
X7.5361Y-2.9181
X7.4561Y-5.2803
X7.4961Y-4.9803
X7.5361Y-5.2803
X10.2907Y-4.0992
X10.3307Y-3.7992
X10.3707Y-4.0992
X6.0387Y-4.0992
X6.0787Y-3.7992
X6.1187Y-4.0992
X6.0387Y-5.2803
X6.0787Y-4.9803
X6.1187Y-5.2803
X10.2907Y-5.2803
X10.3307Y-4.9803
X10.3707Y-5.2803
X8.8734Y-2.9181
X8.9134Y-2.6181
X8.9534Y-2.9181
X7.4561Y-4.0992
X7.4961Y-3.7992
X7.5361Y-4.0992
X10.2907Y-2.9181
X10.3307Y-2.6181
X10.3707Y-2.9181
X8.8734Y-5.2803
X8.9134Y-4.9803
X8.9534Y-5.2803
X8.8734Y-4.0992
X8.9134Y-3.7992
X8.9534Y-4.0992
T9
X5.074Y-5.6339
X5.074Y-1.9331
X10.9008Y-5.6339
X10.9008Y-1.9331
T4
G00X6.3039Y-2.2433
M15
G01X6.2606Y-2.2433
M16
G05
G00X6.3039Y-2.5835
M15
G01X6.2606Y-2.5835
M16
G05
G00X6.4622Y-2.2433
M15
G01X6.4307Y-2.2433
M16
G05
G00X6.4622Y-2.5835
M15
G01X6.4307Y-2.5835
M16
G05
G00X9.1386Y-2.2433
M15
G01X9.0953Y-2.2433
M16
G05
G00X9.1386Y-2.5835
M15
G01X9.0953Y-2.5835
M16
G05
G00X9.2969Y-2.2433
M15
G01X9.2654Y-2.2433
M16
G05
G00X9.2969Y-2.5835
M15
G01X9.2654Y-2.5835
M16
G05
G00X6.3039Y-4.6055
M15
G01X6.2606Y-4.6055
M16
G05
G00X6.3039Y-4.9457
M15
G01X6.2606Y-4.9457
M16
G05
G00X6.4622Y-4.6055
M15
G01X6.4307Y-4.6055
M16
G05
G00X6.4622Y-4.9457
M15
G01X6.4307Y-4.9457
M16
G05
G00X7.7213Y-3.4244
M15
G01X7.678Y-3.4244
M16
G05
G00X7.7213Y-3.7646
M15
G01X7.678Y-3.7646
M16
G05
G00X7.8795Y-3.4244
M15
G01X7.848Y-3.4244
M16
G05
G00X7.8795Y-3.7646
M15
G01X7.848Y-3.7646
M16
G05
G00X7.7213Y-4.6055
M15
G01X7.678Y-4.6055
M16
G05
G00X7.7213Y-4.9457
M15
G01X7.678Y-4.9457
M16
G05
G00X7.8795Y-4.6055
M15
G01X7.848Y-4.6055
M16
G05
G00X7.8795Y-4.9457
M15
G01X7.848Y-4.9457
M16
G05
G00X6.3039Y-3.4244
M15
G01X6.2606Y-3.4244
M16
G05
G00X6.3039Y-3.7646
M15
G01X6.2606Y-3.7646
M16
G05
G00X6.4622Y-3.4244
M15
G01X6.4307Y-3.4244
M16
G05
G00X6.4622Y-3.7646
M15
G01X6.4307Y-3.7646
M16
G05
G00X10.5559Y-2.2433
M15
G01X10.5126Y-2.2433
M16
G05
G00X10.5559Y-2.5835
M15
G01X10.5126Y-2.5835
M16
G05
G00X10.7142Y-2.2433
M15
G01X10.6827Y-2.2433
M16
G05
G00X10.7142Y-2.5835
M15
G01X10.6827Y-2.5835
M16
G05
G00X9.1386Y-4.6055
M15
G01X9.0953Y-4.6055
M16
G05
G00X9.1386Y-4.9457
M15
G01X9.0953Y-4.9457
M16
G05
G00X9.2969Y-4.6055
M15
G01X9.2654Y-4.6055
M16
G05
G00X9.2969Y-4.9457
M15
G01X9.2654Y-4.9457
M16
G05
G00X10.5559Y-3.4244
M15
G01X10.5126Y-3.4244
M16
G05
G00X10.5559Y-3.7646
M15
G01X10.5126Y-3.7646
M16
G05
G00X10.7142Y-3.4244
M15
G01X10.6827Y-3.4244
M16
G05
G00X10.7142Y-3.7646
M15
G01X10.6827Y-3.7646
M16
G05
G00X7.7213Y-2.2433
M15
G01X7.678Y-2.2433
M16
G05
G00X7.7213Y-2.5835
M15
G01X7.678Y-2.5835
M16
G05
G00X7.8795Y-2.2433
M15
G01X7.848Y-2.2433
M16
G05
G00X7.8795Y-2.5835
M15
G01X7.848Y-2.5835
M16
G05
G00X10.5559Y-4.6055
M15
G01X10.5126Y-4.6055
M16
G05
G00X10.5559Y-4.9457
M15
G01X10.5126Y-4.9457
M16
G05
G00X10.7142Y-4.6055
M15
G01X10.6827Y-4.6055
M16
G05
G00X10.7142Y-4.9457
M15
G01X10.6827Y-4.9457
M16
G05
G00X9.1386Y-3.4244
M15
G01X9.0953Y-3.4244
M16
G05
G00X9.1386Y-3.7646
M15
G01X9.0953Y-3.7646
M16
G05
G00X9.2969Y-3.4244
M15
G01X9.2654Y-3.4244
M16
G05
G00X9.2969Y-3.7646
M15
G01X9.2654Y-3.7646
M16
G05
T0
M30
