G04 #@! TF.GenerationSoftware,KiCad,Pcbnew,5.1.5-52549c5~84~ubuntu19.04.1*
G04 #@! TF.CreationDate,2020-02-24T15:22:40-06:00*
G04 #@! TF.ProjectId,LeashPCB,4c656173-6850-4434-922e-6b696361645f,rev?*
G04 #@! TF.SameCoordinates,Original*
G04 #@! TF.FileFunction,Profile,NP*
%FSLAX46Y46*%
G04 Gerber Fmt 4.6, Leading zero omitted, Abs format (unit mm)*
G04 Created by KiCad (PCBNEW 5.1.5-52549c5~84~ubuntu19.04.1) date 2020-02-24 15:22:40*
%MOMM*%
%LPD*%
G04 APERTURE LIST*
%ADD10C,0.050000*%
G04 APERTURE END LIST*
D10*
X165880000Y-81100000D02*
X130880000Y-81100000D01*
X201880000Y-81100000D02*
X166880000Y-81100000D01*
X237880000Y-81100000D02*
X202880000Y-81100000D01*
X273880000Y-81100000D02*
X238880000Y-81100000D01*
X238880000Y-111100000D02*
X273880000Y-111100000D01*
X202880000Y-111100000D02*
X237880000Y-111100000D01*
X166880000Y-111100000D02*
X201880000Y-111100000D01*
X165880000Y-111100000D02*
X130880000Y-111100000D01*
X125880000Y-146100000D02*
X125880000Y-46100000D01*
X279880000Y-146100000D02*
X125880000Y-146100000D01*
X279880000Y-46100000D02*
X279880000Y-146100000D01*
X125880000Y-46100000D02*
X279880000Y-46100000D01*
X238880000Y-76100000D02*
X238880000Y-56100000D01*
X273880000Y-86100000D02*
G75*
G02X274880000Y-86100000I500000J0D01*
G01*
X273880000Y-56100000D02*
G75*
G02X274880000Y-56100000I500000J0D01*
G01*
X274880000Y-136100000D02*
X274880000Y-116100000D01*
X274880000Y-76100000D02*
X274880000Y-56100000D01*
X273880000Y-86100000D02*
X273880000Y-106100000D01*
X273880000Y-116100000D02*
X273880000Y-136100000D01*
X237880000Y-86100000D02*
G75*
G02X238880000Y-86100000I500000J0D01*
G01*
X274880000Y-136100000D02*
G75*
G02X273880000Y-136100000I-500000J0D01*
G01*
X274880000Y-106100000D02*
G75*
G02X273880000Y-106100000I-500000J0D01*
G01*
X237880000Y-56100000D02*
G75*
G02X238880000Y-56100000I500000J0D01*
G01*
X238880000Y-136100000D02*
X238880000Y-116100000D01*
X238880000Y-106100000D02*
G75*
G02X237880000Y-106100000I-500000J0D01*
G01*
X238880000Y-136100000D02*
G75*
G02X237880000Y-136100000I-500000J0D01*
G01*
X237880000Y-116100000D02*
G75*
G02X238880000Y-116100000I500000J0D01*
G01*
X274880000Y-106100000D02*
X274880000Y-86100000D01*
X237880000Y-116100000D02*
X237880000Y-136100000D01*
X274880000Y-76100000D02*
G75*
G02X273880000Y-76100000I-500000J0D01*
G01*
X273880000Y-56100000D02*
X273880000Y-76100000D01*
X237880000Y-86100000D02*
X237880000Y-106100000D01*
X237880000Y-56100000D02*
X237880000Y-76100000D01*
X238880000Y-106100000D02*
X238880000Y-86100000D01*
X273880000Y-116100000D02*
G75*
G02X274880000Y-116100000I500000J0D01*
G01*
X238880000Y-76100000D02*
G75*
G02X237880000Y-76100000I-500000J0D01*
G01*
X202880000Y-76100000D02*
X202880000Y-56100000D01*
X201880000Y-86100000D02*
G75*
G02X202880000Y-86100000I500000J0D01*
G01*
X201880000Y-56100000D02*
G75*
G02X202880000Y-56100000I500000J0D01*
G01*
X202880000Y-136100000D02*
X202880000Y-116100000D01*
X202880000Y-106100000D02*
G75*
G02X201880000Y-106100000I-500000J0D01*
G01*
X202880000Y-136100000D02*
G75*
G02X201880000Y-136100000I-500000J0D01*
G01*
X201880000Y-116100000D02*
G75*
G02X202880000Y-116100000I500000J0D01*
G01*
X201880000Y-116100000D02*
X201880000Y-136100000D01*
X201880000Y-86100000D02*
X201880000Y-106100000D01*
X201880000Y-56100000D02*
X201880000Y-76100000D01*
X202880000Y-106100000D02*
X202880000Y-86100000D01*
X202880000Y-76100000D02*
G75*
G02X201880000Y-76100000I-500000J0D01*
G01*
X165880000Y-116100000D02*
G75*
G02X166880000Y-116100000I500000J0D01*
G01*
X166880000Y-136100000D02*
G75*
G02X165880000Y-136100000I-500000J0D01*
G01*
X165880000Y-116100000D02*
X165880000Y-136100000D01*
X166880000Y-136100000D02*
X166880000Y-116100000D01*
X166880000Y-106100000D02*
X166880000Y-86100000D01*
X165880000Y-86100000D02*
G75*
G02X166880000Y-86100000I500000J0D01*
G01*
X165880000Y-86100000D02*
X165880000Y-106100000D01*
X166880000Y-106100000D02*
G75*
G02X165880000Y-106100000I-500000J0D01*
G01*
X166880000Y-76100000D02*
G75*
G02X165880000Y-76100000I-500000J0D01*
G01*
X165880000Y-56100000D02*
G75*
G02X166880000Y-56100000I500000J0D01*
G01*
X166880000Y-76100000D02*
X166880000Y-56100000D01*
X165880000Y-56100000D02*
X165880000Y-76100000D01*
M02*
