G04 #@! TF.GenerationSoftware,KiCad,Pcbnew,5.1.5-52549c5~84~ubuntu19.04.1*
G04 #@! TF.CreationDate,2020-02-24T15:22:40-06:00*
G04 #@! TF.ProjectId,LeashPCB,4c656173-6850-4434-922e-6b696361645f,rev?*
G04 #@! TF.SameCoordinates,Original*
G04 #@! TF.FileFunction,Other,ECO1*
%FSLAX46Y46*%
G04 Gerber Fmt 4.6, Leading zero omitted, Abs format (unit mm)*
G04 Created by KiCad (PCBNEW 5.1.5-52549c5~84~ubuntu19.04.1) date 2020-02-24 15:22:40*
%MOMM*%
%LPD*%
G04 APERTURE LIST*
%ADD10C,0.150000*%
G04 APERTURE END LIST*
D10*
X234499047Y-153552380D02*
X234832380Y-154552380D01*
X235165714Y-153552380D01*
X236070476Y-154457142D02*
X236022857Y-154504761D01*
X235880000Y-154552380D01*
X235784761Y-154552380D01*
X235641904Y-154504761D01*
X235546666Y-154409523D01*
X235499047Y-154314285D01*
X235451428Y-154123809D01*
X235451428Y-153980952D01*
X235499047Y-153790476D01*
X235546666Y-153695238D01*
X235641904Y-153600000D01*
X235784761Y-153552380D01*
X235880000Y-153552380D01*
X236022857Y-153600000D01*
X236070476Y-153647619D01*
X236499047Y-153552380D02*
X236499047Y-154361904D01*
X236546666Y-154457142D01*
X236594285Y-154504761D01*
X236689523Y-154552380D01*
X236880000Y-154552380D01*
X236975238Y-154504761D01*
X237022857Y-154457142D01*
X237070476Y-154361904D01*
X237070476Y-153552380D01*
X237403809Y-153552380D02*
X237975238Y-153552380D01*
X237689523Y-154552380D02*
X237689523Y-153552380D01*
X238975238Y-154552380D02*
X239499047Y-153885714D01*
X238975238Y-153885714D02*
X239499047Y-154552380D01*
X240594285Y-153647619D02*
X240641904Y-153600000D01*
X240737142Y-153552380D01*
X240975238Y-153552380D01*
X241070476Y-153600000D01*
X241118095Y-153647619D01*
X241165714Y-153742857D01*
X241165714Y-153838095D01*
X241118095Y-153980952D01*
X240546666Y-154552380D01*
X241165714Y-154552380D01*
X197499047Y-153552380D02*
X197832380Y-154552380D01*
X198165714Y-153552380D01*
X199070476Y-154457142D02*
X199022857Y-154504761D01*
X198880000Y-154552380D01*
X198784761Y-154552380D01*
X198641904Y-154504761D01*
X198546666Y-154409523D01*
X198499047Y-154314285D01*
X198451428Y-154123809D01*
X198451428Y-153980952D01*
X198499047Y-153790476D01*
X198546666Y-153695238D01*
X198641904Y-153600000D01*
X198784761Y-153552380D01*
X198880000Y-153552380D01*
X199022857Y-153600000D01*
X199070476Y-153647619D01*
X199499047Y-153552380D02*
X199499047Y-154361904D01*
X199546666Y-154457142D01*
X199594285Y-154504761D01*
X199689523Y-154552380D01*
X199880000Y-154552380D01*
X199975238Y-154504761D01*
X200022857Y-154457142D01*
X200070476Y-154361904D01*
X200070476Y-153552380D01*
X200403809Y-153552380D02*
X200975238Y-153552380D01*
X200689523Y-154552380D02*
X200689523Y-153552380D01*
X201975238Y-154552380D02*
X202499047Y-153885714D01*
X201975238Y-153885714D02*
X202499047Y-154552380D01*
X203594285Y-153647619D02*
X203641904Y-153600000D01*
X203737142Y-153552380D01*
X203975238Y-153552380D01*
X204070476Y-153600000D01*
X204118095Y-153647619D01*
X204165714Y-153742857D01*
X204165714Y-153838095D01*
X204118095Y-153980952D01*
X203546666Y-154552380D01*
X204165714Y-154552380D01*
X129141904Y-153552380D02*
X129475238Y-154552380D01*
X129808571Y-153552380D01*
X130713333Y-154457142D02*
X130665714Y-154504761D01*
X130522857Y-154552380D01*
X130427619Y-154552380D01*
X130284761Y-154504761D01*
X130189523Y-154409523D01*
X130141904Y-154314285D01*
X130094285Y-154123809D01*
X130094285Y-153980952D01*
X130141904Y-153790476D01*
X130189523Y-153695238D01*
X130284761Y-153600000D01*
X130427619Y-153552380D01*
X130522857Y-153552380D01*
X130665714Y-153600000D01*
X130713333Y-153647619D01*
X131141904Y-153552380D02*
X131141904Y-154361904D01*
X131189523Y-154457142D01*
X131237142Y-154504761D01*
X131332380Y-154552380D01*
X131522857Y-154552380D01*
X131618095Y-154504761D01*
X131665714Y-154457142D01*
X131713333Y-154361904D01*
X131713333Y-153552380D01*
X132046666Y-153552380D02*
X132618095Y-153552380D01*
X132332380Y-154552380D02*
X132332380Y-153552380D01*
X272141904Y-153552380D02*
X272475238Y-154552380D01*
X272808571Y-153552380D01*
X273713333Y-154457142D02*
X273665714Y-154504761D01*
X273522857Y-154552380D01*
X273427619Y-154552380D01*
X273284761Y-154504761D01*
X273189523Y-154409523D01*
X273141904Y-154314285D01*
X273094285Y-154123809D01*
X273094285Y-153980952D01*
X273141904Y-153790476D01*
X273189523Y-153695238D01*
X273284761Y-153600000D01*
X273427619Y-153552380D01*
X273522857Y-153552380D01*
X273665714Y-153600000D01*
X273713333Y-153647619D01*
X274141904Y-153552380D02*
X274141904Y-154361904D01*
X274189523Y-154457142D01*
X274237142Y-154504761D01*
X274332380Y-154552380D01*
X274522857Y-154552380D01*
X274618095Y-154504761D01*
X274665714Y-154457142D01*
X274713333Y-154361904D01*
X274713333Y-153552380D01*
X275046666Y-153552380D02*
X275618095Y-153552380D01*
X275332380Y-154552380D02*
X275332380Y-153552380D01*
X162499047Y-153552380D02*
X162832380Y-154552380D01*
X163165714Y-153552380D01*
X164070476Y-154457142D02*
X164022857Y-154504761D01*
X163880000Y-154552380D01*
X163784761Y-154552380D01*
X163641904Y-154504761D01*
X163546666Y-154409523D01*
X163499047Y-154314285D01*
X163451428Y-154123809D01*
X163451428Y-153980952D01*
X163499047Y-153790476D01*
X163546666Y-153695238D01*
X163641904Y-153600000D01*
X163784761Y-153552380D01*
X163880000Y-153552380D01*
X164022857Y-153600000D01*
X164070476Y-153647619D01*
X164499047Y-153552380D02*
X164499047Y-154361904D01*
X164546666Y-154457142D01*
X164594285Y-154504761D01*
X164689523Y-154552380D01*
X164880000Y-154552380D01*
X164975238Y-154504761D01*
X165022857Y-154457142D01*
X165070476Y-154361904D01*
X165070476Y-153552380D01*
X165403809Y-153552380D02*
X165975238Y-153552380D01*
X165689523Y-154552380D02*
X165689523Y-153552380D01*
X166975238Y-154552380D02*
X167499047Y-153885714D01*
X166975238Y-153885714D02*
X167499047Y-154552380D01*
X168594285Y-153647619D02*
X168641904Y-153600000D01*
X168737142Y-153552380D01*
X168975238Y-153552380D01*
X169070476Y-153600000D01*
X169118095Y-153647619D01*
X169165714Y-153742857D01*
X169165714Y-153838095D01*
X169118095Y-153980952D01*
X168546666Y-154552380D01*
X169165714Y-154552380D01*
X272141904Y-37552380D02*
X272475238Y-38552380D01*
X272808571Y-37552380D01*
X273713333Y-38457142D02*
X273665714Y-38504761D01*
X273522857Y-38552380D01*
X273427619Y-38552380D01*
X273284761Y-38504761D01*
X273189523Y-38409523D01*
X273141904Y-38314285D01*
X273094285Y-38123809D01*
X273094285Y-37980952D01*
X273141904Y-37790476D01*
X273189523Y-37695238D01*
X273284761Y-37600000D01*
X273427619Y-37552380D01*
X273522857Y-37552380D01*
X273665714Y-37600000D01*
X273713333Y-37647619D01*
X274141904Y-37552380D02*
X274141904Y-38361904D01*
X274189523Y-38457142D01*
X274237142Y-38504761D01*
X274332380Y-38552380D01*
X274522857Y-38552380D01*
X274618095Y-38504761D01*
X274665714Y-38457142D01*
X274713333Y-38361904D01*
X274713333Y-37552380D01*
X275046666Y-37552380D02*
X275618095Y-37552380D01*
X275332380Y-38552380D02*
X275332380Y-37552380D01*
X234499047Y-37552380D02*
X234832380Y-38552380D01*
X235165714Y-37552380D01*
X236070476Y-38457142D02*
X236022857Y-38504761D01*
X235880000Y-38552380D01*
X235784761Y-38552380D01*
X235641904Y-38504761D01*
X235546666Y-38409523D01*
X235499047Y-38314285D01*
X235451428Y-38123809D01*
X235451428Y-37980952D01*
X235499047Y-37790476D01*
X235546666Y-37695238D01*
X235641904Y-37600000D01*
X235784761Y-37552380D01*
X235880000Y-37552380D01*
X236022857Y-37600000D01*
X236070476Y-37647619D01*
X236499047Y-37552380D02*
X236499047Y-38361904D01*
X236546666Y-38457142D01*
X236594285Y-38504761D01*
X236689523Y-38552380D01*
X236880000Y-38552380D01*
X236975238Y-38504761D01*
X237022857Y-38457142D01*
X237070476Y-38361904D01*
X237070476Y-37552380D01*
X237403809Y-37552380D02*
X237975238Y-37552380D01*
X237689523Y-38552380D02*
X237689523Y-37552380D01*
X238975238Y-38552380D02*
X239499047Y-37885714D01*
X238975238Y-37885714D02*
X239499047Y-38552380D01*
X240594285Y-37647619D02*
X240641904Y-37600000D01*
X240737142Y-37552380D01*
X240975238Y-37552380D01*
X241070476Y-37600000D01*
X241118095Y-37647619D01*
X241165714Y-37742857D01*
X241165714Y-37838095D01*
X241118095Y-37980952D01*
X240546666Y-38552380D01*
X241165714Y-38552380D01*
X197499047Y-37552380D02*
X197832380Y-38552380D01*
X198165714Y-37552380D01*
X199070476Y-38457142D02*
X199022857Y-38504761D01*
X198880000Y-38552380D01*
X198784761Y-38552380D01*
X198641904Y-38504761D01*
X198546666Y-38409523D01*
X198499047Y-38314285D01*
X198451428Y-38123809D01*
X198451428Y-37980952D01*
X198499047Y-37790476D01*
X198546666Y-37695238D01*
X198641904Y-37600000D01*
X198784761Y-37552380D01*
X198880000Y-37552380D01*
X199022857Y-37600000D01*
X199070476Y-37647619D01*
X199499047Y-37552380D02*
X199499047Y-38361904D01*
X199546666Y-38457142D01*
X199594285Y-38504761D01*
X199689523Y-38552380D01*
X199880000Y-38552380D01*
X199975238Y-38504761D01*
X200022857Y-38457142D01*
X200070476Y-38361904D01*
X200070476Y-37552380D01*
X200403809Y-37552380D02*
X200975238Y-37552380D01*
X200689523Y-38552380D02*
X200689523Y-37552380D01*
X201975238Y-38552380D02*
X202499047Y-37885714D01*
X201975238Y-37885714D02*
X202499047Y-38552380D01*
X203594285Y-37647619D02*
X203641904Y-37600000D01*
X203737142Y-37552380D01*
X203975238Y-37552380D01*
X204070476Y-37600000D01*
X204118095Y-37647619D01*
X204165714Y-37742857D01*
X204165714Y-37838095D01*
X204118095Y-37980952D01*
X203546666Y-38552380D01*
X204165714Y-38552380D01*
X162499047Y-37552380D02*
X162832380Y-38552380D01*
X163165714Y-37552380D01*
X164070476Y-38457142D02*
X164022857Y-38504761D01*
X163880000Y-38552380D01*
X163784761Y-38552380D01*
X163641904Y-38504761D01*
X163546666Y-38409523D01*
X163499047Y-38314285D01*
X163451428Y-38123809D01*
X163451428Y-37980952D01*
X163499047Y-37790476D01*
X163546666Y-37695238D01*
X163641904Y-37600000D01*
X163784761Y-37552380D01*
X163880000Y-37552380D01*
X164022857Y-37600000D01*
X164070476Y-37647619D01*
X164499047Y-37552380D02*
X164499047Y-38361904D01*
X164546666Y-38457142D01*
X164594285Y-38504761D01*
X164689523Y-38552380D01*
X164880000Y-38552380D01*
X164975238Y-38504761D01*
X165022857Y-38457142D01*
X165070476Y-38361904D01*
X165070476Y-37552380D01*
X165403809Y-37552380D02*
X165975238Y-37552380D01*
X165689523Y-38552380D02*
X165689523Y-37552380D01*
X166975238Y-38552380D02*
X167499047Y-37885714D01*
X166975238Y-37885714D02*
X167499047Y-38552380D01*
X168594285Y-37647619D02*
X168641904Y-37600000D01*
X168737142Y-37552380D01*
X168975238Y-37552380D01*
X169070476Y-37600000D01*
X169118095Y-37647619D01*
X169165714Y-37742857D01*
X169165714Y-37838095D01*
X169118095Y-37980952D01*
X168546666Y-38552380D01*
X169165714Y-38552380D01*
X129141904Y-37552380D02*
X129475238Y-38552380D01*
X129808571Y-37552380D01*
X130713333Y-38457142D02*
X130665714Y-38504761D01*
X130522857Y-38552380D01*
X130427619Y-38552380D01*
X130284761Y-38504761D01*
X130189523Y-38409523D01*
X130141904Y-38314285D01*
X130094285Y-38123809D01*
X130094285Y-37980952D01*
X130141904Y-37790476D01*
X130189523Y-37695238D01*
X130284761Y-37600000D01*
X130427619Y-37552380D01*
X130522857Y-37552380D01*
X130665714Y-37600000D01*
X130713333Y-37647619D01*
X131141904Y-37552380D02*
X131141904Y-38361904D01*
X131189523Y-38457142D01*
X131237142Y-38504761D01*
X131332380Y-38552380D01*
X131522857Y-38552380D01*
X131618095Y-38504761D01*
X131665714Y-38457142D01*
X131713333Y-38361904D01*
X131713333Y-37552380D01*
X132046666Y-37552380D02*
X132618095Y-37552380D01*
X132332380Y-38552380D02*
X132332380Y-37552380D01*
X288141904Y-80552380D02*
X288475238Y-81552380D01*
X288808571Y-80552380D01*
X289713333Y-81457142D02*
X289665714Y-81504761D01*
X289522857Y-81552380D01*
X289427619Y-81552380D01*
X289284761Y-81504761D01*
X289189523Y-81409523D01*
X289141904Y-81314285D01*
X289094285Y-81123809D01*
X289094285Y-80980952D01*
X289141904Y-80790476D01*
X289189523Y-80695238D01*
X289284761Y-80600000D01*
X289427619Y-80552380D01*
X289522857Y-80552380D01*
X289665714Y-80600000D01*
X289713333Y-80647619D01*
X290141904Y-80552380D02*
X290141904Y-81361904D01*
X290189523Y-81457142D01*
X290237142Y-81504761D01*
X290332380Y-81552380D01*
X290522857Y-81552380D01*
X290618095Y-81504761D01*
X290665714Y-81457142D01*
X290713333Y-81361904D01*
X290713333Y-80552380D01*
X291046666Y-80552380D02*
X291618095Y-80552380D01*
X291332380Y-81552380D02*
X291332380Y-80552380D01*
X288141904Y-140552380D02*
X288475238Y-141552380D01*
X288808571Y-140552380D01*
X289713333Y-141457142D02*
X289665714Y-141504761D01*
X289522857Y-141552380D01*
X289427619Y-141552380D01*
X289284761Y-141504761D01*
X289189523Y-141409523D01*
X289141904Y-141314285D01*
X289094285Y-141123809D01*
X289094285Y-140980952D01*
X289141904Y-140790476D01*
X289189523Y-140695238D01*
X289284761Y-140600000D01*
X289427619Y-140552380D01*
X289522857Y-140552380D01*
X289665714Y-140600000D01*
X289713333Y-140647619D01*
X290141904Y-140552380D02*
X290141904Y-141361904D01*
X290189523Y-141457142D01*
X290237142Y-141504761D01*
X290332380Y-141552380D01*
X290522857Y-141552380D01*
X290618095Y-141504761D01*
X290665714Y-141457142D01*
X290713333Y-141361904D01*
X290713333Y-140552380D01*
X291046666Y-140552380D02*
X291618095Y-140552380D01*
X291332380Y-141552380D02*
X291332380Y-140552380D01*
X288141904Y-50552380D02*
X288475238Y-51552380D01*
X288808571Y-50552380D01*
X289713333Y-51457142D02*
X289665714Y-51504761D01*
X289522857Y-51552380D01*
X289427619Y-51552380D01*
X289284761Y-51504761D01*
X289189523Y-51409523D01*
X289141904Y-51314285D01*
X289094285Y-51123809D01*
X289094285Y-50980952D01*
X289141904Y-50790476D01*
X289189523Y-50695238D01*
X289284761Y-50600000D01*
X289427619Y-50552380D01*
X289522857Y-50552380D01*
X289665714Y-50600000D01*
X289713333Y-50647619D01*
X290141904Y-50552380D02*
X290141904Y-51361904D01*
X290189523Y-51457142D01*
X290237142Y-51504761D01*
X290332380Y-51552380D01*
X290522857Y-51552380D01*
X290618095Y-51504761D01*
X290665714Y-51457142D01*
X290713333Y-51361904D01*
X290713333Y-50552380D01*
X291046666Y-50552380D02*
X291618095Y-50552380D01*
X291332380Y-51552380D02*
X291332380Y-50552380D01*
X288141904Y-110552380D02*
X288475238Y-111552380D01*
X288808571Y-110552380D01*
X289713333Y-111457142D02*
X289665714Y-111504761D01*
X289522857Y-111552380D01*
X289427619Y-111552380D01*
X289284761Y-111504761D01*
X289189523Y-111409523D01*
X289141904Y-111314285D01*
X289094285Y-111123809D01*
X289094285Y-110980952D01*
X289141904Y-110790476D01*
X289189523Y-110695238D01*
X289284761Y-110600000D01*
X289427619Y-110552380D01*
X289522857Y-110552380D01*
X289665714Y-110600000D01*
X289713333Y-110647619D01*
X290141904Y-110552380D02*
X290141904Y-111361904D01*
X290189523Y-111457142D01*
X290237142Y-111504761D01*
X290332380Y-111552380D01*
X290522857Y-111552380D01*
X290618095Y-111504761D01*
X290665714Y-111457142D01*
X290713333Y-111361904D01*
X290713333Y-110552380D01*
X291046666Y-110552380D02*
X291618095Y-110552380D01*
X291332380Y-111552380D02*
X291332380Y-110552380D01*
X114141904Y-140552380D02*
X114475238Y-141552380D01*
X114808571Y-140552380D01*
X115713333Y-141457142D02*
X115665714Y-141504761D01*
X115522857Y-141552380D01*
X115427619Y-141552380D01*
X115284761Y-141504761D01*
X115189523Y-141409523D01*
X115141904Y-141314285D01*
X115094285Y-141123809D01*
X115094285Y-140980952D01*
X115141904Y-140790476D01*
X115189523Y-140695238D01*
X115284761Y-140600000D01*
X115427619Y-140552380D01*
X115522857Y-140552380D01*
X115665714Y-140600000D01*
X115713333Y-140647619D01*
X116141904Y-140552380D02*
X116141904Y-141361904D01*
X116189523Y-141457142D01*
X116237142Y-141504761D01*
X116332380Y-141552380D01*
X116522857Y-141552380D01*
X116618095Y-141504761D01*
X116665714Y-141457142D01*
X116713333Y-141361904D01*
X116713333Y-140552380D01*
X117046666Y-140552380D02*
X117618095Y-140552380D01*
X117332380Y-141552380D02*
X117332380Y-140552380D01*
X114141904Y-110552380D02*
X114475238Y-111552380D01*
X114808571Y-110552380D01*
X115713333Y-111457142D02*
X115665714Y-111504761D01*
X115522857Y-111552380D01*
X115427619Y-111552380D01*
X115284761Y-111504761D01*
X115189523Y-111409523D01*
X115141904Y-111314285D01*
X115094285Y-111123809D01*
X115094285Y-110980952D01*
X115141904Y-110790476D01*
X115189523Y-110695238D01*
X115284761Y-110600000D01*
X115427619Y-110552380D01*
X115522857Y-110552380D01*
X115665714Y-110600000D01*
X115713333Y-110647619D01*
X116141904Y-110552380D02*
X116141904Y-111361904D01*
X116189523Y-111457142D01*
X116237142Y-111504761D01*
X116332380Y-111552380D01*
X116522857Y-111552380D01*
X116618095Y-111504761D01*
X116665714Y-111457142D01*
X116713333Y-111361904D01*
X116713333Y-110552380D01*
X117046666Y-110552380D02*
X117618095Y-110552380D01*
X117332380Y-111552380D02*
X117332380Y-110552380D01*
X114141904Y-80552380D02*
X114475238Y-81552380D01*
X114808571Y-80552380D01*
X115713333Y-81457142D02*
X115665714Y-81504761D01*
X115522857Y-81552380D01*
X115427619Y-81552380D01*
X115284761Y-81504761D01*
X115189523Y-81409523D01*
X115141904Y-81314285D01*
X115094285Y-81123809D01*
X115094285Y-80980952D01*
X115141904Y-80790476D01*
X115189523Y-80695238D01*
X115284761Y-80600000D01*
X115427619Y-80552380D01*
X115522857Y-80552380D01*
X115665714Y-80600000D01*
X115713333Y-80647619D01*
X116141904Y-80552380D02*
X116141904Y-81361904D01*
X116189523Y-81457142D01*
X116237142Y-81504761D01*
X116332380Y-81552380D01*
X116522857Y-81552380D01*
X116618095Y-81504761D01*
X116665714Y-81457142D01*
X116713333Y-81361904D01*
X116713333Y-80552380D01*
X117046666Y-80552380D02*
X117618095Y-80552380D01*
X117332380Y-81552380D02*
X117332380Y-80552380D01*
X114141904Y-50552380D02*
X114475238Y-51552380D01*
X114808571Y-50552380D01*
X115713333Y-51457142D02*
X115665714Y-51504761D01*
X115522857Y-51552380D01*
X115427619Y-51552380D01*
X115284761Y-51504761D01*
X115189523Y-51409523D01*
X115141904Y-51314285D01*
X115094285Y-51123809D01*
X115094285Y-50980952D01*
X115141904Y-50790476D01*
X115189523Y-50695238D01*
X115284761Y-50600000D01*
X115427619Y-50552380D01*
X115522857Y-50552380D01*
X115665714Y-50600000D01*
X115713333Y-50647619D01*
X116141904Y-50552380D02*
X116141904Y-51361904D01*
X116189523Y-51457142D01*
X116237142Y-51504761D01*
X116332380Y-51552380D01*
X116522857Y-51552380D01*
X116618095Y-51504761D01*
X116665714Y-51457142D01*
X116713333Y-51361904D01*
X116713333Y-50552380D01*
X117046666Y-50552380D02*
X117618095Y-50552380D01*
X117332380Y-51552380D02*
X117332380Y-50552380D01*
X284880000Y-141100000D02*
X120880000Y-141100000D01*
X273880000Y-41100000D02*
X273880000Y-151100000D01*
X284880000Y-51100000D02*
X120880000Y-51100000D01*
X120880000Y-81100000D02*
X284880000Y-81100000D01*
X284880000Y-111100000D02*
X120880000Y-111100000D01*
X238880000Y-41100000D02*
X238880000Y-151100000D01*
X237880000Y-151100000D02*
X237880000Y-41100000D01*
X202880000Y-41100000D02*
X202880000Y-151100000D01*
X201880000Y-151100000D02*
X201880000Y-41100000D01*
X166880000Y-41100000D02*
X166880000Y-151100000D01*
X165880000Y-151100000D02*
X165880000Y-41100000D01*
X130880000Y-41100000D02*
X130880000Y-151100000D01*
M02*
