M48
; DRILL file {KiCad (5.1.10)-1} date 07/14/21 14:20:34
; FORMAT={-:-/ absolute / inch / decimal}
; #@! TF.CreationDate,2021-07-14T14:20:34+08:00
; #@! TF.GenerationSoftware,Kicad,Pcbnew,(5.1.10)-1
; #@! TF.FileFunction,Plated,1,4,PTH
FMAT,2
INCH
T1C0.0079
T2C0.0098
T3C0.0157
T4C0.0236
T5C0.0866
%
G90
G05
T1
X11.3969Y-1.452
X11.4283Y-1.452
T2
X10.1073Y-2.4604
X10.115Y-1.67
X10.1185Y-2.69
X10.1185Y-1.6224
X10.12Y-2.035
X10.1217Y-3.0032
X10.1291Y-1.4039
X10.1307Y-2.3276
X10.17Y-2.035
X10.185Y-1.66
X10.1862Y-1.3941
X10.1862Y-1.6189
X10.1937Y-2.2724
X10.1972Y-3.0559
X10.2Y-1.07
X10.2094Y-2.4287
X10.2161Y-2.6004
X10.22Y-2.035
X10.2307Y-2.2724
X10.2339Y-2.523
X10.25Y-1.615
X10.25Y-1.66
X10.25Y-2.215
X10.2531Y-2.5071
X10.2559Y-1.4004
X10.2602Y-1.9563
X10.265Y-1.76
X10.265Y-1.825
X10.2654Y-1.9055
X10.2709Y-2.3909
X10.2874Y-2.3028
X10.295Y-2.195
X10.3Y-1.685
X10.3047Y-1.4787
X10.3063Y-1.535
X10.3063Y-2.0567
X10.31Y-1.615
X10.3121Y-2.3032
X10.3126Y-1.9846
X10.3169Y-1.5811
X10.33Y-3.04
X10.335Y-1.77
X10.3402Y-1.3953
X10.3441Y-1.9157
X10.345Y-1.68
X10.3472Y-2.2185
X10.3575Y-1.478
X10.36Y-1.82
X10.3622Y-1.9878
X10.37Y-2.075
X10.3732Y-1.537
X10.375Y-1.745
X10.3791Y-1.6295
X10.3803Y-2.0374
X10.3921Y-2.5075
X10.395Y-1.435
X10.402Y-2.188
X10.4114Y-1.5366
X10.415Y-1.48
X10.4157Y-2.4083
X10.4193Y-2.211
X10.4245Y-2.9096
X10.4256Y-3.1287
X10.4268Y-1.6276
X10.43Y-1.765
X10.4496Y-1.9142
X10.45Y-1.68
X10.45Y-1.82
X10.4516Y-2.8575
X10.4546Y-1.4268
X10.4563Y-2.5646
X10.471Y-1.3706
X10.4728Y-2.665
X10.4736Y-2.1331
X10.474Y-2.6197
X10.4752Y-1.9906
X10.4799Y-1.5382
X10.4819Y-1.5894
X10.4878Y-2.2706
X10.489Y-2.765
X10.489Y-2.2433
X10.489Y-2.8067
X10.49Y-1.62
X10.4969Y-1.4764
X10.5094Y-2.9458
X10.5094Y-2.4004
X10.5134Y-2.3469
X10.5138Y-2.8453
X10.515Y-1.765
X10.52Y-1.035
X10.52Y-3.08
X10.5205Y-2.5004
X10.522Y-1.402
X10.5224Y-1.5354
X10.5228Y-2.8846
X10.53Y-1.67
X10.53Y-2.05
X10.535Y-1.905
X10.54Y-1.805
X10.5425Y-1.8598
X10.5449Y-1.478
X10.545Y-2.01
X10.5465Y-2.7272
X10.5524Y-3.1614
X10.5571Y-2.1024
X10.56Y-1.635
X10.5602Y-2.2528
X10.561Y-2.6843
X10.5661Y-2.8173
X10.5685Y-2.0433
X10.5704Y-2.3824
X10.5707Y-2.3425
X10.574Y-2.1204
X10.585Y-2.3626
X10.5858Y-2.2528
X10.5888Y-1.5417
X10.5908Y-1.6242
X10.595Y-1.67
X10.595Y-1.72
X10.595Y-1.77
X10.595Y-1.82
X10.595Y-1.865
X10.595Y-1.91
X10.5976Y-2.8744
X10.6055Y-2.8154
X10.6081Y-1.6067
X10.6083Y-2.2949
X10.6102Y-1.4783
X10.6102Y-1.9803
X10.611Y-2.1575
X10.611Y-2.2531
X10.6122Y-1.5413
X10.6209Y-2.7146
X10.63Y-2.93
X10.6466Y-2.2515
X10.6476Y-1.365
X10.6492Y-3.1358
X10.65Y-1.62
X10.65Y-1.675
X10.65Y-1.725
X10.65Y-1.775
X10.65Y-1.82
X10.65Y-1.865
X10.65Y-2.95
X10.67Y-2.35
X10.6724Y-2.4154
X10.674Y-2.7594
X10.68Y-2.51
X10.6835Y-2.474
X10.6922Y-1.2379
X10.705Y-1.395
X10.709Y-1.421
X10.71Y-2.35
X10.7109Y-1.1459
X10.7126Y-2.6817
X10.715Y-1.7
X10.715Y-1.91
X10.72Y-2.5
X10.725Y-1.01
X10.7272Y-1.8504
X10.7386Y-2.622
X10.7484Y-2.35
X10.7531Y-1.5343
X10.7531Y-1.5772
X10.7531Y-1.6283
X10.7531Y-1.6783
X10.755Y-1.26
X10.7563Y-1.4799
X10.7575Y-1.7394
X10.7579Y-1.2268
X10.7583Y-2.6398
X10.76Y-2.51
X10.7606Y-2.1504
X10.761Y-2.0626
X10.7622Y-2.0984
X10.7625Y-1.835
X10.7761Y-2.2731
X10.778Y-2.6042
X10.7824Y-2.6576
X10.787Y-2.7236
X10.79Y-2.39
X10.7972Y-1.2268
X10.7972Y-2.3465
X10.8Y-2.51
X10.8Y-2.2468
X10.8031Y-2.4327
X10.8096Y-1.7252
X10.81Y-2.47
X10.8123Y-1.8126
X10.8142Y-1.8547
X10.8146Y-1.5551
X10.815Y-1.9079
X10.815Y-1.26
X10.815Y-1.751
X10.8154Y-1.5898
X10.8154Y-1.6295
X10.8205Y-1.476
X10.8209Y-2.3906
X10.8374Y-1.9278
X10.845Y-1.015
X10.8453Y-1.4024
X10.8598Y-1.4776
X10.8634Y-1.1459
X10.8645Y-2.1257
X10.8661Y-1.5213
X10.8675Y-1.5675
X10.8681Y-1.6004
X10.8705Y-2.1496
X10.875Y-2.25
X10.8827Y-1.2383
X10.8834Y-2.0476
X10.8878Y-2.1079
X10.8933Y-1.6563
X10.8937Y-2.7476
X10.8955Y-2.283
X10.898Y-3.1346
X10.9091Y-2.6527
X10.9103Y-2.4411
X10.9114Y-2.4807
X10.9116Y-2.3842
X10.9122Y-1.4945
X10.9134Y-1.3378
X10.9164Y-2.3196
X10.9165Y-1.5433
X10.9169Y-1.426
X10.92Y-1.605
X10.9201Y-1.6567
X10.923Y-1.268
X10.9239Y-2.5233
X10.926Y-1.685
X10.9278Y-2.3656
X10.9288Y-2.3409
X10.9289Y-2.4249
X10.9303Y-2.976
X10.9365Y-2.6803
X10.9374Y-2.7913
X10.9429Y-2.2406
X10.9436Y-2.9331
X10.9554Y-1.7295
X10.9614Y-2.9571
X10.9724Y-1.764
X10.974Y-2.6661
X10.976Y-1.8362
X10.976Y-1.861
X10.9803Y-1.7272
X10.9803Y-2.2193
X10.9804Y-1.7874
X10.981Y-1.8121
X10.9815Y-1.8858
X10.9815Y-2.7454
X10.985Y-2.895
X10.9861Y-2.9565
X10.9874Y-2.1286
X10.9902Y-2.1587
X10.9938Y-2.6125
X11.0031Y-2.2201
X11.0074Y-2.0799
X11.0156Y-1.4428
X11.0173Y-2.2909
X11.0205Y-2.0472
X11.0252Y-2.348
X11.0291Y-1.7689
X11.0323Y-2.5453
X11.0325Y-2.41
X11.0354Y-1.7102
X11.0358Y-2.5004
X11.0358Y-2.4757
X11.039Y-2.6417
X11.0591Y-2.4469
X11.06Y-1.175
X11.065Y-3.0956
X11.0681Y-2.3103
X11.07Y-1.035
X11.074Y-1.262
X11.075Y-2.3499
X11.076Y-2.7346
X11.0817Y-2.6443
X11.0878Y-2.8461
X11.09Y-1.85
X11.09Y-1.89
X11.09Y-1.93
X11.0937Y-1.487
X11.0949Y-1.5134
X11.0957Y-1.5413
X11.0965Y-1.5665
X11.1Y-1.96
X11.1035Y-1.3681
X11.1035Y-2.7753
X11.1059Y-1.5929
X11.1075Y-1.345
X11.1077Y-2.5587
X11.11Y-1.81
X11.1102Y-2.9055
X11.1106Y-2.0669
X11.1134Y-2.8673
X11.1244Y-1.8748
X11.1264Y-1.9327
X11.1295Y-2.1283
X11.1315Y-1.9717
X11.1329Y-2.7057
X11.1362Y-1.8433
X11.15Y-1.81
X11.15Y-1.8988
X11.1539Y-2.0591
X11.1563Y-2.6924
X11.1665Y-1.963
X11.1669Y-1.926
X11.1681Y-2.1291
X11.1717Y-3.1039
X11.1732Y-2.592
X11.1746Y-2.0918
X11.1748Y-1.8516
X11.1752Y-1.4087
X11.1775Y-2.0673
X11.178Y-1.8898
X11.1884Y-2.212
X11.1933Y-1.8106
X11.1988Y-1.5394
X11.1992Y-2.722
X11.2008Y-1.4555
X11.2012Y-1.4866
X11.2072Y-1.7217
X11.2085Y-2.7995
X11.2177Y-1.5555
X11.2242Y-2.5987
X11.2244Y-1.7039
X11.2267Y-2.4543
X11.23Y-1.81
X11.2303Y-1.4972
X11.2547Y-1.7043
X11.2587Y-1.561
X11.2673Y-1.498
X11.2732Y-2.3323
X11.2732Y-2.4902
X11.2823Y-1.5307
X11.2841Y-2.4193
X11.2874Y-1.498
X11.2894Y-1.5823
X11.2905Y-1.7189
X11.2909Y-1.39
X11.2953Y-1.7456
X11.2961Y-1.6079
X11.2976Y-3.1039
X11.3055Y-1.5594
X11.3075Y-1.498
X11.311Y-1.3638
X11.316Y-1.7082
X11.322Y-1.8079
X11.322Y-2.9969
X11.3249Y-1.8473
X11.3252Y-1.8866
X11.3252Y-2.5996
X11.3256Y-1.926
X11.3402Y-1.8669
X11.3403Y-1.9061
X11.3404Y-1.9457
X11.342Y-1.8276
X11.342Y-1.7686
X11.342Y-1.7933
X11.3477Y-2.0413
X11.3531Y-2.1724
X11.3563Y-1.3583
X11.3575Y-1.5825
X11.365Y-1.085
X11.3675Y-1.9888
X11.3791Y-2.7524
X11.3835Y-1.289
X11.3846Y-2.8614
X11.3874Y-1.3937
X11.3874Y-1.5091
X11.3913Y-2.0126
X11.3976Y-2.4768
X11.4028Y-2.9886
X11.413Y-2.9248
X11.415Y-1.18
X11.4185Y-2.6457
X11.4343Y-1.2921
X11.4351Y-1.8352
X11.4392Y-1.386
X11.4425Y-2.0181
X11.4429Y-1.7012
X11.4433Y-2.1736
X11.4437Y-1.8591
X11.4498Y-2.7757
X11.4505Y-2.7275
X11.4555Y-2.7516
T3
X10.2752Y-1.2181
X10.2942Y-1.1722
X10.2942Y-1.264
X10.3402Y-1.1531
X10.3402Y-1.2831
X10.3861Y-1.1722
X10.3861Y-1.264
X10.4051Y-1.2181
X10.722Y-2.8504
X10.7411Y-2.8045
X10.7411Y-2.8963
X10.787Y-2.7854
X10.787Y-2.9154
X10.8329Y-2.8045
X10.8329Y-2.8963
X10.852Y-2.8504
X11.1736Y-1.2165
X11.1926Y-1.1706
X11.1926Y-1.2625
X11.2386Y-1.1516
X11.2386Y-1.2815
X11.2845Y-1.1706
X11.2845Y-1.2625
X11.3035Y-1.2165
T5
X10.3402Y-1.2181
X10.787Y-2.8504
X11.2386Y-1.2165
T4
G00X10.6173Y-0.9913
M15
G01X10.6173Y-1.0228
M16
G05
G00X10.6173Y-1.1496
M15
G01X10.6173Y-1.1929
M16
G05
G00X10.9575Y-0.9913
M15
G01X10.9575Y-1.0228
M16
G05
G00X10.9575Y-1.1496
M15
G01X10.9575Y-1.1929
M16
G05
T0
M30
