G04 #@! TF.GenerationSoftware,KiCad,Pcbnew,(5.1.10)-1*
G04 #@! TF.CreationDate,2021-07-14T14:20:25+08:00*
G04 #@! TF.ProjectId,BeagleConnect Freedom,42656167-6c65-4436-9f6e-6e6563742046,B*
G04 #@! TF.SameCoordinates,Original*
G04 #@! TF.FileFunction,Paste,Bot*
G04 #@! TF.FilePolarity,Positive*
%FSLAX46Y46*%
G04 Gerber Fmt 4.6, Leading zero omitted, Abs format (unit mm)*
G04 Created by KiCad (PCBNEW (5.1.10)-1) date 2021-07-14 14:20:25*
%MOMM*%
%LPD*%
G01*
G04 APERTURE LIST*
G04 #@! TA.AperFunction,Profile*
%ADD10C,0.050000*%
G04 #@! TD*
%ADD11C,0.152400*%
%ADD12R,0.600000X0.700000*%
%ADD13R,2.250000X1.700000*%
%ADD14R,1.900000X1.000000*%
%ADD15R,1.000000X1.900000*%
%ADD16R,2.200000X1.050000*%
%ADD17R,1.050000X1.000000*%
%ADD18R,1.600000X0.350000*%
%ADD19R,0.650000X0.350000*%
%ADD20R,0.900000X0.800000*%
%ADD21R,0.250000X0.300000*%
%ADD22C,0.100000*%
%ADD23R,0.800000X0.900000*%
%ADD24R,0.900000X1.200000*%
%ADD25R,0.203200X0.558800*%
%ADD26R,1.244600X0.762000*%
G04 APERTURE END LIST*
D10*
X291863382Y-48158779D02*
X291863382Y-46158779D01*
X291863382Y-48158779D02*
G75*
G02*
X291363382Y-48658779I-500000J0D01*
G01*
X289863382Y-48658779D02*
X291363382Y-48658779D01*
X289363382Y-49158779D02*
G75*
G02*
X289863382Y-48658779I500000J0D01*
G01*
X289363382Y-49658779D02*
X289363382Y-49158779D01*
X289863382Y-50158779D02*
G75*
G02*
X289363382Y-49658779I0J500000D01*
G01*
X291363382Y-50158779D02*
X289863382Y-50158779D01*
X291363382Y-50158779D02*
G75*
G02*
X291863382Y-50658779I0J-500000D01*
G01*
X291863382Y-52158779D02*
X291863382Y-50658779D01*
X291863382Y-52158779D02*
G75*
G02*
X291363382Y-52658779I-500000J0D01*
G01*
X289863382Y-52658779D02*
X291363382Y-52658779D01*
X289363382Y-53158779D02*
G75*
G02*
X289863382Y-52658779I500000J0D01*
G01*
X289363382Y-53658779D02*
X289363382Y-53158779D01*
X289863382Y-54158779D02*
G75*
G02*
X289363382Y-53658779I0J500000D01*
G01*
X291363382Y-54158779D02*
X289863382Y-54158779D01*
X291363382Y-54158779D02*
G75*
G02*
X291863382Y-54658779I0J-500000D01*
G01*
X291863382Y-56158779D02*
X291863382Y-54658779D01*
X291863382Y-56158779D02*
G75*
G02*
X291363382Y-56658779I-500000J0D01*
G01*
X289863382Y-56658779D02*
X291363382Y-56658779D01*
X289363382Y-57158779D02*
G75*
G02*
X289863382Y-56658779I500000J0D01*
G01*
X289363382Y-57658779D02*
X289363382Y-57158779D01*
X289863382Y-58158779D02*
G75*
G02*
X289363382Y-57658779I0J500000D01*
G01*
X291363382Y-58158779D02*
X289863382Y-58158779D01*
X291363382Y-58158779D02*
G75*
G02*
X291863382Y-58658779I0J-500000D01*
G01*
X291863382Y-60158779D02*
X291863382Y-58658779D01*
X291863382Y-60158779D02*
G75*
G02*
X291363382Y-60658779I-500000J0D01*
G01*
X289863382Y-60658779D02*
X291363382Y-60658779D01*
X289363382Y-61158779D02*
G75*
G02*
X289863382Y-60658779I500000J0D01*
G01*
X289363382Y-61658779D02*
X289363382Y-61158779D01*
X289863382Y-62158779D02*
G75*
G02*
X289363382Y-61658779I0J500000D01*
G01*
X291363382Y-62158779D02*
X289863382Y-62158779D01*
X291363382Y-62158779D02*
G75*
G02*
X291863382Y-62658779I0J-500000D01*
G01*
X291863382Y-64158779D02*
X291863382Y-62658779D01*
X291863382Y-64158779D02*
G75*
G02*
X291363382Y-64658779I-500000J0D01*
G01*
X289863382Y-64658779D02*
X291363382Y-64658779D01*
X289363382Y-65158779D02*
G75*
G02*
X289863382Y-64658779I500000J0D01*
G01*
X289363382Y-65658779D02*
X289363382Y-65158779D01*
X289863382Y-66158779D02*
G75*
G02*
X289363382Y-65658779I0J500000D01*
G01*
X290863382Y-66158779D02*
X289863382Y-66158779D01*
X290863382Y-66158779D02*
G75*
G02*
X291363382Y-66658779I0J-500000D01*
G01*
X291363382Y-67708779D02*
X291363382Y-66658779D01*
X291363382Y-67708779D02*
G75*
G02*
X290863382Y-68208779I-500000J0D01*
G01*
X288713382Y-68208779D02*
X290863382Y-68208779D01*
X288463382Y-68458779D02*
G75*
G02*
X288713382Y-68208779I250000J0D01*
G01*
X288463382Y-69008779D02*
X288463382Y-68458779D01*
X288963382Y-69008779D02*
G75*
G02*
X288463382Y-69008779I-250000J0D01*
G01*
X288963382Y-68708779D02*
X288963382Y-69008779D01*
X290863382Y-68708779D02*
X288963382Y-68708779D01*
X290863382Y-68708779D02*
G75*
G02*
X291363382Y-69208779I0J-500000D01*
G01*
X291363382Y-70608779D02*
X291363382Y-69208779D01*
X291363382Y-70608779D02*
G75*
G02*
X290863382Y-71108779I-500000J0D01*
G01*
X288963382Y-71108779D02*
X290863382Y-71108779D01*
X288963382Y-70808779D02*
X288963382Y-71108779D01*
X288463382Y-70808779D02*
G75*
G02*
X288963382Y-70808779I250000J0D01*
G01*
X288463382Y-71358779D02*
X288463382Y-70808779D01*
X288713382Y-71608779D02*
G75*
G02*
X288463382Y-71358779I0J250000D01*
G01*
X290863382Y-71608779D02*
X288713382Y-71608779D01*
X290863382Y-71608779D02*
G75*
G02*
X291363382Y-72108779I0J-500000D01*
G01*
X291363382Y-73408779D02*
X291363382Y-72108779D01*
X291530049Y-73781457D02*
G75*
G02*
X291363382Y-73408779I333333J372678D01*
G01*
X291530049Y-73781457D02*
G75*
G02*
X291863382Y-74526813I-666667J-745356D01*
G01*
X291863382Y-76408779D02*
X291863382Y-74526813D01*
X291863381Y-76408779D02*
G75*
G02*
X286736109Y-82344968I-5999999J0D01*
G01*
X286736109Y-82344968D02*
G75*
G02*
X286163382Y-81850286I-72727J494682D01*
G01*
X286163382Y-81408779D02*
X286163382Y-81850286D01*
X285663382Y-80908779D02*
G75*
G02*
X286163382Y-81408779I0J-500000D01*
G01*
X285063382Y-80908779D02*
X285663382Y-80908779D01*
X284563382Y-81408779D02*
G75*
G02*
X285063382Y-80908779I500000J0D01*
G01*
X284563382Y-81908779D02*
X284563382Y-81408779D01*
X284563382Y-81908779D02*
G75*
G02*
X284063382Y-82408779I-500000J0D01*
G01*
X282371260Y-82408779D02*
X284063382Y-82408779D01*
X282371260Y-82408779D02*
G75*
G02*
X281417321Y-81708779I0J1000000D01*
G01*
X280463382Y-81008779D02*
G75*
G02*
X281417321Y-81708779I0J-1000000D01*
G01*
X267463382Y-81008779D02*
X280463382Y-81008779D01*
X266509443Y-81708779D02*
G75*
G02*
X267463382Y-81008779I953939J-300000D01*
G01*
X266509442Y-81708779D02*
G75*
G02*
X265555503Y-82408779I-953939J300000D01*
G01*
X263863382Y-82408779D02*
X265555503Y-82408779D01*
X263863382Y-82408779D02*
G75*
G02*
X263363382Y-81908779I0J500000D01*
G01*
X263363382Y-81408779D02*
X263363382Y-81908779D01*
X262863382Y-80908779D02*
G75*
G02*
X263363382Y-81408779I0J-500000D01*
G01*
X262263382Y-80908779D02*
X262863382Y-80908779D01*
X261763382Y-81408779D02*
G75*
G02*
X262263382Y-80908779I500000J0D01*
G01*
X261763382Y-81850286D02*
X261763382Y-81408779D01*
X261763382Y-81850287D02*
G75*
G02*
X261190654Y-82344968I-500000J1D01*
G01*
X261190655Y-82344969D02*
G75*
G02*
X256063382Y-76408779I872727J5936190D01*
G01*
X256063382Y-32208779D02*
X256063382Y-76408779D01*
X256063382Y-32208779D02*
G75*
G02*
X256563382Y-31708779I500000J0D01*
G01*
X257563382Y-31708779D02*
X256563382Y-31708779D01*
X258063382Y-31208779D02*
G75*
G02*
X257563382Y-31708779I-500000J0D01*
G01*
X258063382Y-30608779D02*
X258063382Y-31208779D01*
X257563382Y-30108779D02*
G75*
G02*
X258063382Y-30608779I0J-500000D01*
G01*
X256621874Y-30108779D02*
X257563382Y-30108779D01*
X256621874Y-30108778D02*
G75*
G02*
X256127192Y-29536052I0J499999D01*
G01*
X256127192Y-29536052D02*
G75*
G02*
X261190654Y-24472589I5936190J-872727D01*
G01*
X261190655Y-24472590D02*
G75*
G02*
X261763382Y-24967272I72727J-494682D01*
G01*
X261763382Y-25158779D02*
X261763382Y-24967272D01*
X262263382Y-25658779D02*
G75*
G02*
X261763382Y-25158779I0J500000D01*
G01*
X262863382Y-25658779D02*
X262263382Y-25658779D01*
X263363382Y-25158779D02*
G75*
G02*
X262863382Y-25658779I-500000J0D01*
G01*
X263363382Y-24908779D02*
X263363382Y-25158779D01*
X263363382Y-24908779D02*
G75*
G02*
X263863382Y-24408779I500000J0D01*
G01*
X284063382Y-24408779D02*
X263863382Y-24408779D01*
X284063382Y-24408779D02*
G75*
G02*
X284563382Y-24908779I0J-500000D01*
G01*
X284563382Y-25408779D02*
X284563382Y-24908779D01*
X285063382Y-25908779D02*
G75*
G02*
X284563382Y-25408779I0J500000D01*
G01*
X285663382Y-25908779D02*
X285063382Y-25908779D01*
X286163382Y-25408779D02*
G75*
G02*
X285663382Y-25908779I-500000J0D01*
G01*
X286163382Y-24967272D02*
X286163382Y-25408779D01*
X286163382Y-24967272D02*
G75*
G02*
X286736109Y-24472589I500000J0D01*
G01*
X286736109Y-24472589D02*
G75*
G02*
X291863382Y-30408779I-872727J-5936190D01*
G01*
X291863382Y-32290745D02*
X291863382Y-30408779D01*
X291863382Y-32290746D02*
G75*
G02*
X291530048Y-33036101I-1000000J1D01*
G01*
X291363382Y-33408779D02*
G75*
G02*
X291530048Y-33036101I500000J0D01*
G01*
X291363382Y-40158779D02*
X291363382Y-33408779D01*
X291363382Y-40158779D02*
G75*
G02*
X290863382Y-40658779I-500000J0D01*
G01*
X289863382Y-40658779D02*
X290863382Y-40658779D01*
X289363382Y-41158779D02*
G75*
G02*
X289863382Y-40658779I500000J0D01*
G01*
X289363382Y-41658779D02*
X289363382Y-41158779D01*
X289863382Y-42158779D02*
G75*
G02*
X289363382Y-41658779I0J500000D01*
G01*
X291363382Y-42158779D02*
X289863382Y-42158779D01*
X291363382Y-42158779D02*
G75*
G02*
X291863382Y-42658779I0J-500000D01*
G01*
X291863382Y-44658779D02*
X291863382Y-42658779D01*
X289863382Y-44658779D02*
X291863382Y-44658779D01*
X289363382Y-45158779D02*
G75*
G02*
X289863382Y-44658779I500000J0D01*
G01*
X289363382Y-45658779D02*
X289363382Y-45158779D01*
X289863382Y-46158779D02*
G75*
G02*
X289363382Y-45658779I0J500000D01*
G01*
X291863382Y-46158779D02*
X289863382Y-46158779D01*
X289363382Y-57658779D02*
X289363382Y-57158779D01*
X289863382Y-58158779D02*
G75*
G02*
X289363382Y-57658779I0J500000D01*
G01*
X291363382Y-58158779D02*
X289863382Y-58158779D01*
X291363382Y-58158779D02*
G75*
G02*
X291863382Y-58658779I0J-500000D01*
G01*
X291863382Y-60158779D02*
X291863382Y-58658779D01*
X291863382Y-60158779D02*
G75*
G02*
X291363382Y-60658779I-500000J0D01*
G01*
X289863382Y-60658779D02*
X291363382Y-60658779D01*
X289363382Y-61158779D02*
G75*
G02*
X289863382Y-60658779I500000J0D01*
G01*
X289363382Y-61658779D02*
X289363382Y-61158779D01*
X289863382Y-62158779D02*
G75*
G02*
X289363382Y-61658779I0J500000D01*
G01*
X291363382Y-62158779D02*
X289863382Y-62158779D01*
X291363382Y-62158779D02*
G75*
G02*
X291863382Y-62658779I0J-500000D01*
G01*
X291863382Y-64158779D02*
X291863382Y-62658779D01*
X291863382Y-64158779D02*
G75*
G02*
X291363382Y-64658779I-500000J0D01*
G01*
X289863382Y-64658779D02*
X291363382Y-64658779D01*
X289363382Y-65158779D02*
G75*
G02*
X289863382Y-64658779I500000J0D01*
G01*
X289363382Y-65658779D02*
X289363382Y-65158779D01*
X289863382Y-66158779D02*
G75*
G02*
X289363382Y-65658779I0J500000D01*
G01*
X290863382Y-66158779D02*
X289863382Y-66158779D01*
X290863382Y-66158779D02*
G75*
G02*
X291363382Y-66658779I0J-500000D01*
G01*
X291363382Y-67708779D02*
X291363382Y-66658779D01*
X291363382Y-67708779D02*
G75*
G02*
X290863382Y-68208779I-500000J0D01*
G01*
X288713382Y-68208779D02*
X290863382Y-68208779D01*
X288463382Y-68458779D02*
G75*
G02*
X288713382Y-68208779I250000J0D01*
G01*
X288463382Y-69008779D02*
X288463382Y-68458779D01*
X288963382Y-69008779D02*
G75*
G02*
X288463382Y-69008779I-250000J0D01*
G01*
X288963382Y-68708779D02*
X288963382Y-69008779D01*
X290863382Y-68708779D02*
X288963382Y-68708779D01*
X290863382Y-68708779D02*
G75*
G02*
X291363382Y-69208779I0J-500000D01*
G01*
X291363382Y-70608779D02*
X291363382Y-69208779D01*
X291363382Y-70608779D02*
G75*
G02*
X290863382Y-71108779I-500000J0D01*
G01*
X288963382Y-71108779D02*
X290863382Y-71108779D01*
X288963382Y-70808779D02*
X288963382Y-71108779D01*
X288463382Y-70808779D02*
G75*
G02*
X288963382Y-70808779I250000J0D01*
G01*
X288463382Y-71358779D02*
X288463382Y-70808779D01*
X288713382Y-71608779D02*
G75*
G02*
X288463382Y-71358779I0J250000D01*
G01*
X290863382Y-71608779D02*
X288713382Y-71608779D01*
X290863382Y-71608779D02*
G75*
G02*
X291363382Y-72108779I0J-500000D01*
G01*
X291363382Y-73408779D02*
X291363382Y-72108779D01*
X291530049Y-73781457D02*
G75*
G02*
X291363382Y-73408779I333333J372678D01*
G01*
X291530049Y-73781457D02*
G75*
G02*
X291863382Y-74526813I-666667J-745356D01*
G01*
X291863382Y-76408779D02*
X291863382Y-74526813D01*
X291863381Y-76408779D02*
G75*
G02*
X286736109Y-82344968I-5999999J0D01*
G01*
X286736109Y-82344968D02*
G75*
G02*
X286163382Y-81850286I-72727J494682D01*
G01*
X286163382Y-81408779D02*
X286163382Y-81850286D01*
X285663382Y-80908779D02*
G75*
G02*
X286163382Y-81408779I0J-500000D01*
G01*
X285063382Y-80908779D02*
X285663382Y-80908779D01*
X284563382Y-81408779D02*
G75*
G02*
X285063382Y-80908779I500000J0D01*
G01*
X284563382Y-81908779D02*
X284563382Y-81408779D01*
X284563382Y-81908779D02*
G75*
G02*
X284063382Y-82408779I-500000J0D01*
G01*
X282371260Y-82408779D02*
X284063382Y-82408779D01*
X282371260Y-82408779D02*
G75*
G02*
X281417321Y-81708779I0J1000000D01*
G01*
X280463382Y-81008779D02*
G75*
G02*
X281417321Y-81708779I0J-1000000D01*
G01*
X267463382Y-81008779D02*
X280463382Y-81008779D01*
X266509443Y-81708779D02*
G75*
G02*
X267463382Y-81008779I953939J-300000D01*
G01*
X266509442Y-81708779D02*
G75*
G02*
X265555503Y-82408779I-953939J300000D01*
G01*
X263863382Y-82408779D02*
X265555503Y-82408779D01*
X263863382Y-82408779D02*
G75*
G02*
X263363382Y-81908779I0J500000D01*
G01*
X263363382Y-81408779D02*
X263363382Y-81908779D01*
X262863382Y-80908779D02*
G75*
G02*
X263363382Y-81408779I0J-500000D01*
G01*
X262263382Y-80908779D02*
X262863382Y-80908779D01*
X261763382Y-81408779D02*
G75*
G02*
X262263382Y-80908779I500000J0D01*
G01*
X261763382Y-81850286D02*
X261763382Y-81408779D01*
X261763382Y-81850287D02*
G75*
G02*
X261190654Y-82344968I-500000J1D01*
G01*
X261190655Y-82344969D02*
G75*
G02*
X256063382Y-76408779I872727J5936190D01*
G01*
X256063382Y-32208779D02*
X256063382Y-76408779D01*
X256063382Y-32208779D02*
G75*
G02*
X256563382Y-31708779I500000J0D01*
G01*
X257563382Y-31708779D02*
X256563382Y-31708779D01*
X258063382Y-31208779D02*
G75*
G02*
X257563382Y-31708779I-500000J0D01*
G01*
X258063382Y-30608779D02*
X258063382Y-31208779D01*
X257563382Y-30108779D02*
G75*
G02*
X258063382Y-30608779I0J-500000D01*
G01*
X256621874Y-30108779D02*
X257563382Y-30108779D01*
X256621874Y-30108778D02*
G75*
G02*
X256127192Y-29536052I0J499999D01*
G01*
X256127192Y-29536052D02*
G75*
G02*
X261190654Y-24472589I5936190J-872727D01*
G01*
X261190655Y-24472590D02*
G75*
G02*
X261763382Y-24967272I72727J-494682D01*
G01*
X261763382Y-25158779D02*
X261763382Y-24967272D01*
X262263382Y-25658779D02*
G75*
G02*
X261763382Y-25158779I0J500000D01*
G01*
X262863382Y-25658779D02*
X262263382Y-25658779D01*
X263363382Y-25158779D02*
G75*
G02*
X262863382Y-25658779I-500000J0D01*
G01*
X263363382Y-24908779D02*
X263363382Y-25158779D01*
X263363382Y-24908779D02*
G75*
G02*
X263863382Y-24408779I500000J0D01*
G01*
X284063382Y-24408779D02*
X263863382Y-24408779D01*
X284063382Y-24408779D02*
G75*
G02*
X284563382Y-24908779I0J-500000D01*
G01*
X284563382Y-25408779D02*
X284563382Y-24908779D01*
X285063382Y-25908779D02*
G75*
G02*
X284563382Y-25408779I0J500000D01*
G01*
X285663382Y-25908779D02*
X285063382Y-25908779D01*
X286163382Y-25408779D02*
G75*
G02*
X285663382Y-25908779I-500000J0D01*
G01*
X286163382Y-24967272D02*
X286163382Y-25408779D01*
X286163382Y-24967272D02*
G75*
G02*
X286736109Y-24472589I500000J0D01*
G01*
X286736109Y-24472589D02*
G75*
G02*
X291863382Y-30408779I-872727J-5936190D01*
G01*
X291863382Y-32290745D02*
X291863382Y-30408779D01*
X291863382Y-32290746D02*
G75*
G02*
X291530048Y-33036101I-1000000J1D01*
G01*
X291363382Y-33408779D02*
G75*
G02*
X291530048Y-33036101I500000J0D01*
G01*
X291363382Y-40158779D02*
X291363382Y-33408779D01*
X291363382Y-40158779D02*
G75*
G02*
X290863382Y-40658779I-500000J0D01*
G01*
X289863382Y-40658779D02*
X290863382Y-40658779D01*
X289363382Y-41158779D02*
G75*
G02*
X289863382Y-40658779I500000J0D01*
G01*
X289363382Y-41658779D02*
X289363382Y-41158779D01*
X289863382Y-42158779D02*
G75*
G02*
X289363382Y-41658779I0J500000D01*
G01*
X291363382Y-42158779D02*
X289863382Y-42158779D01*
X291363382Y-42158779D02*
G75*
G02*
X291863382Y-42658779I0J-500000D01*
G01*
X291863382Y-44658779D02*
X291863382Y-42658779D01*
X289863382Y-44658779D02*
X291863382Y-44658779D01*
X289363382Y-45158779D02*
G75*
G02*
X289863382Y-44658779I500000J0D01*
G01*
X289363382Y-45658779D02*
X289363382Y-45158779D01*
X289863382Y-46158779D02*
G75*
G02*
X289363382Y-45658779I0J500000D01*
G01*
X291863382Y-46158779D02*
X289863382Y-46158779D01*
X291863382Y-48158779D02*
X291863382Y-46158779D01*
X291863382Y-48158779D02*
G75*
G02*
X291363382Y-48658779I-500000J0D01*
G01*
X289863382Y-48658779D02*
X291363382Y-48658779D01*
X289363382Y-49158779D02*
G75*
G02*
X289863382Y-48658779I500000J0D01*
G01*
X289363382Y-49658779D02*
X289363382Y-49158779D01*
X289863382Y-50158779D02*
G75*
G02*
X289363382Y-49658779I0J500000D01*
G01*
X291363382Y-50158779D02*
X289863382Y-50158779D01*
X291363382Y-50158779D02*
G75*
G02*
X291863382Y-50658779I0J-500000D01*
G01*
X291863382Y-52158779D02*
X291863382Y-50658779D01*
X291863382Y-52158779D02*
G75*
G02*
X291363382Y-52658779I-500000J0D01*
G01*
X289863382Y-52658779D02*
X291363382Y-52658779D01*
X289363382Y-53158779D02*
G75*
G02*
X289863382Y-52658779I500000J0D01*
G01*
X289363382Y-53658779D02*
X289363382Y-53158779D01*
X289863382Y-54158779D02*
G75*
G02*
X289363382Y-53658779I0J500000D01*
G01*
X291363382Y-54158779D02*
X289863382Y-54158779D01*
X291363382Y-54158779D02*
G75*
G02*
X291863382Y-54658779I0J-500000D01*
G01*
X291863382Y-56158779D02*
X291863382Y-54658779D01*
X291863382Y-56158779D02*
G75*
G02*
X291363382Y-56658779I-500000J0D01*
G01*
X289863382Y-56658779D02*
X291363382Y-56658779D01*
X289363382Y-57158779D02*
G75*
G02*
X289863382Y-56658779I500000J0D01*
G01*
X286463382Y-30908779D02*
G75*
G03*
X286463382Y-30908779I-1100000J0D01*
G01*
X263663382Y-30908779D02*
G75*
G03*
X263663382Y-30908779I-1100000J0D01*
G01*
X286463382Y-30908779D02*
G75*
G03*
X286463382Y-30908779I-1100000J0D01*
G01*
X263663382Y-30908779D02*
G75*
G03*
X263663382Y-30908779I-1100000J0D01*
G01*
D11*
X269922300Y-39160000D02*
X269922300Y-39261600D01*
X269973100Y-39160000D02*
X269922300Y-39160000D01*
X269973100Y-39261600D02*
X269973100Y-39160000D01*
X269922300Y-39261600D02*
X269973100Y-39261600D01*
X269922300Y-39160000D02*
X269922300Y-39058400D01*
X269973100Y-39160000D02*
X269922300Y-39160000D01*
X269973100Y-39058400D02*
X269973100Y-39160000D01*
X269922300Y-39058400D02*
X269973100Y-39058400D01*
X268677700Y-39160000D02*
X268677700Y-39261600D01*
X268626900Y-39160000D02*
X268677700Y-39160000D01*
X268626900Y-39261600D02*
X268626900Y-39160000D01*
X268677700Y-39261600D02*
X268626900Y-39261600D01*
X268677700Y-39160000D02*
X268677700Y-39058400D01*
X268626900Y-39160000D02*
X268677700Y-39160000D01*
X268626900Y-39058400D02*
X268626900Y-39160000D01*
X268677700Y-39058400D02*
X268626900Y-39058400D01*
G36*
G01*
X274200000Y-38253500D02*
X274200000Y-38454500D01*
G75*
G02*
X274120500Y-38534000I-79500J0D01*
G01*
X273961500Y-38534000D01*
G75*
G02*
X273882000Y-38454500I0J79500D01*
G01*
X273882000Y-38253500D01*
G75*
G02*
X273961500Y-38174000I79500J0D01*
G01*
X274120500Y-38174000D01*
G75*
G02*
X274200000Y-38253500I0J-79500D01*
G01*
G37*
G36*
G01*
X274890000Y-38253500D02*
X274890000Y-38454500D01*
G75*
G02*
X274810500Y-38534000I-79500J0D01*
G01*
X274651500Y-38534000D01*
G75*
G02*
X274572000Y-38454500I0J79500D01*
G01*
X274572000Y-38253500D01*
G75*
G02*
X274651500Y-38174000I79500J0D01*
G01*
X274810500Y-38174000D01*
G75*
G02*
X274890000Y-38253500I0J-79500D01*
G01*
G37*
G36*
G01*
X284875000Y-46505000D02*
X284875000Y-45965000D01*
G75*
G02*
X285125000Y-45715000I250000J0D01*
G01*
X285665000Y-45715000D01*
G75*
G02*
X285915000Y-45965000I0J-250000D01*
G01*
X285915000Y-46505000D01*
G75*
G02*
X285665000Y-46755000I-250000J0D01*
G01*
X285125000Y-46755000D01*
G75*
G02*
X284875000Y-46505000I0J250000D01*
G01*
G37*
G36*
G01*
X284875000Y-47795000D02*
X284875000Y-47255000D01*
G75*
G02*
X285125000Y-47005000I250000J0D01*
G01*
X285665000Y-47005000D01*
G75*
G02*
X285915000Y-47255000I0J-250000D01*
G01*
X285915000Y-47795000D01*
G75*
G02*
X285665000Y-48045000I-250000J0D01*
G01*
X285125000Y-48045000D01*
G75*
G02*
X284875000Y-47795000I0J250000D01*
G01*
G37*
G36*
G01*
X284875000Y-49085000D02*
X284875000Y-48545000D01*
G75*
G02*
X285125000Y-48295000I250000J0D01*
G01*
X285665000Y-48295000D01*
G75*
G02*
X285915000Y-48545000I0J-250000D01*
G01*
X285915000Y-49085000D01*
G75*
G02*
X285665000Y-49335000I-250000J0D01*
G01*
X285125000Y-49335000D01*
G75*
G02*
X284875000Y-49085000I0J250000D01*
G01*
G37*
G36*
G01*
X284875000Y-50375000D02*
X284875000Y-49835000D01*
G75*
G02*
X285125000Y-49585000I250000J0D01*
G01*
X285665000Y-49585000D01*
G75*
G02*
X285915000Y-49835000I0J-250000D01*
G01*
X285915000Y-50375000D01*
G75*
G02*
X285665000Y-50625000I-250000J0D01*
G01*
X285125000Y-50625000D01*
G75*
G02*
X284875000Y-50375000I0J250000D01*
G01*
G37*
G36*
G01*
X283585000Y-46505000D02*
X283585000Y-45965000D01*
G75*
G02*
X283835000Y-45715000I250000J0D01*
G01*
X284375000Y-45715000D01*
G75*
G02*
X284625000Y-45965000I0J-250000D01*
G01*
X284625000Y-46505000D01*
G75*
G02*
X284375000Y-46755000I-250000J0D01*
G01*
X283835000Y-46755000D01*
G75*
G02*
X283585000Y-46505000I0J250000D01*
G01*
G37*
G36*
G01*
X283585000Y-47795000D02*
X283585000Y-47255000D01*
G75*
G02*
X283835000Y-47005000I250000J0D01*
G01*
X284375000Y-47005000D01*
G75*
G02*
X284625000Y-47255000I0J-250000D01*
G01*
X284625000Y-47795000D01*
G75*
G02*
X284375000Y-48045000I-250000J0D01*
G01*
X283835000Y-48045000D01*
G75*
G02*
X283585000Y-47795000I0J250000D01*
G01*
G37*
G36*
G01*
X283585000Y-49085000D02*
X283585000Y-48545000D01*
G75*
G02*
X283835000Y-48295000I250000J0D01*
G01*
X284375000Y-48295000D01*
G75*
G02*
X284625000Y-48545000I0J-250000D01*
G01*
X284625000Y-49085000D01*
G75*
G02*
X284375000Y-49335000I-250000J0D01*
G01*
X283835000Y-49335000D01*
G75*
G02*
X283585000Y-49085000I0J250000D01*
G01*
G37*
G36*
G01*
X283585000Y-50375000D02*
X283585000Y-49835000D01*
G75*
G02*
X283835000Y-49585000I250000J0D01*
G01*
X284375000Y-49585000D01*
G75*
G02*
X284625000Y-49835000I0J-250000D01*
G01*
X284625000Y-50375000D01*
G75*
G02*
X284375000Y-50625000I-250000J0D01*
G01*
X283835000Y-50625000D01*
G75*
G02*
X283585000Y-50375000I0J250000D01*
G01*
G37*
G36*
G01*
X282295000Y-46505000D02*
X282295000Y-45965000D01*
G75*
G02*
X282545000Y-45715000I250000J0D01*
G01*
X283085000Y-45715000D01*
G75*
G02*
X283335000Y-45965000I0J-250000D01*
G01*
X283335000Y-46505000D01*
G75*
G02*
X283085000Y-46755000I-250000J0D01*
G01*
X282545000Y-46755000D01*
G75*
G02*
X282295000Y-46505000I0J250000D01*
G01*
G37*
G36*
G01*
X282295000Y-47795000D02*
X282295000Y-47255000D01*
G75*
G02*
X282545000Y-47005000I250000J0D01*
G01*
X283085000Y-47005000D01*
G75*
G02*
X283335000Y-47255000I0J-250000D01*
G01*
X283335000Y-47795000D01*
G75*
G02*
X283085000Y-48045000I-250000J0D01*
G01*
X282545000Y-48045000D01*
G75*
G02*
X282295000Y-47795000I0J250000D01*
G01*
G37*
G36*
G01*
X282295000Y-49085000D02*
X282295000Y-48545000D01*
G75*
G02*
X282545000Y-48295000I250000J0D01*
G01*
X283085000Y-48295000D01*
G75*
G02*
X283335000Y-48545000I0J-250000D01*
G01*
X283335000Y-49085000D01*
G75*
G02*
X283085000Y-49335000I-250000J0D01*
G01*
X282545000Y-49335000D01*
G75*
G02*
X282295000Y-49085000I0J250000D01*
G01*
G37*
G36*
G01*
X282295000Y-50375000D02*
X282295000Y-49835000D01*
G75*
G02*
X282545000Y-49585000I250000J0D01*
G01*
X283085000Y-49585000D01*
G75*
G02*
X283335000Y-49835000I0J-250000D01*
G01*
X283335000Y-50375000D01*
G75*
G02*
X283085000Y-50625000I-250000J0D01*
G01*
X282545000Y-50625000D01*
G75*
G02*
X282295000Y-50375000I0J250000D01*
G01*
G37*
G36*
G01*
X281005000Y-46505000D02*
X281005000Y-45965000D01*
G75*
G02*
X281255000Y-45715000I250000J0D01*
G01*
X281795000Y-45715000D01*
G75*
G02*
X282045000Y-45965000I0J-250000D01*
G01*
X282045000Y-46505000D01*
G75*
G02*
X281795000Y-46755000I-250000J0D01*
G01*
X281255000Y-46755000D01*
G75*
G02*
X281005000Y-46505000I0J250000D01*
G01*
G37*
G36*
G01*
X281005000Y-47795000D02*
X281005000Y-47255000D01*
G75*
G02*
X281255000Y-47005000I250000J0D01*
G01*
X281795000Y-47005000D01*
G75*
G02*
X282045000Y-47255000I0J-250000D01*
G01*
X282045000Y-47795000D01*
G75*
G02*
X281795000Y-48045000I-250000J0D01*
G01*
X281255000Y-48045000D01*
G75*
G02*
X281005000Y-47795000I0J250000D01*
G01*
G37*
G36*
G01*
X281005000Y-49085000D02*
X281005000Y-48545000D01*
G75*
G02*
X281255000Y-48295000I250000J0D01*
G01*
X281795000Y-48295000D01*
G75*
G02*
X282045000Y-48545000I0J-250000D01*
G01*
X282045000Y-49085000D01*
G75*
G02*
X281795000Y-49335000I-250000J0D01*
G01*
X281255000Y-49335000D01*
G75*
G02*
X281005000Y-49085000I0J250000D01*
G01*
G37*
G36*
G01*
X281005000Y-50375000D02*
X281005000Y-49835000D01*
G75*
G02*
X281255000Y-49585000I250000J0D01*
G01*
X281795000Y-49585000D01*
G75*
G02*
X282045000Y-49835000I0J-250000D01*
G01*
X282045000Y-50375000D01*
G75*
G02*
X281795000Y-50625000I-250000J0D01*
G01*
X281255000Y-50625000D01*
G75*
G02*
X281005000Y-50375000I0J250000D01*
G01*
G37*
G36*
G01*
X280585000Y-51982500D02*
X280585000Y-51232500D01*
G75*
G02*
X280647500Y-51170000I62500J0D01*
G01*
X280772500Y-51170000D01*
G75*
G02*
X280835000Y-51232500I0J-62500D01*
G01*
X280835000Y-51982500D01*
G75*
G02*
X280772500Y-52045000I-62500J0D01*
G01*
X280647500Y-52045000D01*
G75*
G02*
X280585000Y-51982500I0J62500D01*
G01*
G37*
G36*
G01*
X281085000Y-51982500D02*
X281085000Y-51232500D01*
G75*
G02*
X281147500Y-51170000I62500J0D01*
G01*
X281272500Y-51170000D01*
G75*
G02*
X281335000Y-51232500I0J-62500D01*
G01*
X281335000Y-51982500D01*
G75*
G02*
X281272500Y-52045000I-62500J0D01*
G01*
X281147500Y-52045000D01*
G75*
G02*
X281085000Y-51982500I0J62500D01*
G01*
G37*
G36*
G01*
X281585000Y-51982500D02*
X281585000Y-51232500D01*
G75*
G02*
X281647500Y-51170000I62500J0D01*
G01*
X281772500Y-51170000D01*
G75*
G02*
X281835000Y-51232500I0J-62500D01*
G01*
X281835000Y-51982500D01*
G75*
G02*
X281772500Y-52045000I-62500J0D01*
G01*
X281647500Y-52045000D01*
G75*
G02*
X281585000Y-51982500I0J62500D01*
G01*
G37*
G36*
G01*
X282085000Y-51982500D02*
X282085000Y-51232500D01*
G75*
G02*
X282147500Y-51170000I62500J0D01*
G01*
X282272500Y-51170000D01*
G75*
G02*
X282335000Y-51232500I0J-62500D01*
G01*
X282335000Y-51982500D01*
G75*
G02*
X282272500Y-52045000I-62500J0D01*
G01*
X282147500Y-52045000D01*
G75*
G02*
X282085000Y-51982500I0J62500D01*
G01*
G37*
G36*
G01*
X282585000Y-51982500D02*
X282585000Y-51232500D01*
G75*
G02*
X282647500Y-51170000I62500J0D01*
G01*
X282772500Y-51170000D01*
G75*
G02*
X282835000Y-51232500I0J-62500D01*
G01*
X282835000Y-51982500D01*
G75*
G02*
X282772500Y-52045000I-62500J0D01*
G01*
X282647500Y-52045000D01*
G75*
G02*
X282585000Y-51982500I0J62500D01*
G01*
G37*
G36*
G01*
X283085000Y-51982500D02*
X283085000Y-51232500D01*
G75*
G02*
X283147500Y-51170000I62500J0D01*
G01*
X283272500Y-51170000D01*
G75*
G02*
X283335000Y-51232500I0J-62500D01*
G01*
X283335000Y-51982500D01*
G75*
G02*
X283272500Y-52045000I-62500J0D01*
G01*
X283147500Y-52045000D01*
G75*
G02*
X283085000Y-51982500I0J62500D01*
G01*
G37*
G36*
G01*
X283585000Y-51982500D02*
X283585000Y-51232500D01*
G75*
G02*
X283647500Y-51170000I62500J0D01*
G01*
X283772500Y-51170000D01*
G75*
G02*
X283835000Y-51232500I0J-62500D01*
G01*
X283835000Y-51982500D01*
G75*
G02*
X283772500Y-52045000I-62500J0D01*
G01*
X283647500Y-52045000D01*
G75*
G02*
X283585000Y-51982500I0J62500D01*
G01*
G37*
G36*
G01*
X284085000Y-51982500D02*
X284085000Y-51232500D01*
G75*
G02*
X284147500Y-51170000I62500J0D01*
G01*
X284272500Y-51170000D01*
G75*
G02*
X284335000Y-51232500I0J-62500D01*
G01*
X284335000Y-51982500D01*
G75*
G02*
X284272500Y-52045000I-62500J0D01*
G01*
X284147500Y-52045000D01*
G75*
G02*
X284085000Y-51982500I0J62500D01*
G01*
G37*
G36*
G01*
X284585000Y-51982500D02*
X284585000Y-51232500D01*
G75*
G02*
X284647500Y-51170000I62500J0D01*
G01*
X284772500Y-51170000D01*
G75*
G02*
X284835000Y-51232500I0J-62500D01*
G01*
X284835000Y-51982500D01*
G75*
G02*
X284772500Y-52045000I-62500J0D01*
G01*
X284647500Y-52045000D01*
G75*
G02*
X284585000Y-51982500I0J62500D01*
G01*
G37*
G36*
G01*
X285085000Y-51982500D02*
X285085000Y-51232500D01*
G75*
G02*
X285147500Y-51170000I62500J0D01*
G01*
X285272500Y-51170000D01*
G75*
G02*
X285335000Y-51232500I0J-62500D01*
G01*
X285335000Y-51982500D01*
G75*
G02*
X285272500Y-52045000I-62500J0D01*
G01*
X285147500Y-52045000D01*
G75*
G02*
X285085000Y-51982500I0J62500D01*
G01*
G37*
G36*
G01*
X285585000Y-51982500D02*
X285585000Y-51232500D01*
G75*
G02*
X285647500Y-51170000I62500J0D01*
G01*
X285772500Y-51170000D01*
G75*
G02*
X285835000Y-51232500I0J-62500D01*
G01*
X285835000Y-51982500D01*
G75*
G02*
X285772500Y-52045000I-62500J0D01*
G01*
X285647500Y-52045000D01*
G75*
G02*
X285585000Y-51982500I0J62500D01*
G01*
G37*
G36*
G01*
X286085000Y-51982500D02*
X286085000Y-51232500D01*
G75*
G02*
X286147500Y-51170000I62500J0D01*
G01*
X286272500Y-51170000D01*
G75*
G02*
X286335000Y-51232500I0J-62500D01*
G01*
X286335000Y-51982500D01*
G75*
G02*
X286272500Y-52045000I-62500J0D01*
G01*
X286147500Y-52045000D01*
G75*
G02*
X286085000Y-51982500I0J62500D01*
G01*
G37*
G36*
G01*
X286460000Y-50982500D02*
X286460000Y-50857500D01*
G75*
G02*
X286522500Y-50795000I62500J0D01*
G01*
X287272500Y-50795000D01*
G75*
G02*
X287335000Y-50857500I0J-62500D01*
G01*
X287335000Y-50982500D01*
G75*
G02*
X287272500Y-51045000I-62500J0D01*
G01*
X286522500Y-51045000D01*
G75*
G02*
X286460000Y-50982500I0J62500D01*
G01*
G37*
G36*
G01*
X286460000Y-50482500D02*
X286460000Y-50357500D01*
G75*
G02*
X286522500Y-50295000I62500J0D01*
G01*
X287272500Y-50295000D01*
G75*
G02*
X287335000Y-50357500I0J-62500D01*
G01*
X287335000Y-50482500D01*
G75*
G02*
X287272500Y-50545000I-62500J0D01*
G01*
X286522500Y-50545000D01*
G75*
G02*
X286460000Y-50482500I0J62500D01*
G01*
G37*
G36*
G01*
X286460000Y-49982500D02*
X286460000Y-49857500D01*
G75*
G02*
X286522500Y-49795000I62500J0D01*
G01*
X287272500Y-49795000D01*
G75*
G02*
X287335000Y-49857500I0J-62500D01*
G01*
X287335000Y-49982500D01*
G75*
G02*
X287272500Y-50045000I-62500J0D01*
G01*
X286522500Y-50045000D01*
G75*
G02*
X286460000Y-49982500I0J62500D01*
G01*
G37*
G36*
G01*
X286460000Y-49482500D02*
X286460000Y-49357500D01*
G75*
G02*
X286522500Y-49295000I62500J0D01*
G01*
X287272500Y-49295000D01*
G75*
G02*
X287335000Y-49357500I0J-62500D01*
G01*
X287335000Y-49482500D01*
G75*
G02*
X287272500Y-49545000I-62500J0D01*
G01*
X286522500Y-49545000D01*
G75*
G02*
X286460000Y-49482500I0J62500D01*
G01*
G37*
G36*
G01*
X286460000Y-48982500D02*
X286460000Y-48857500D01*
G75*
G02*
X286522500Y-48795000I62500J0D01*
G01*
X287272500Y-48795000D01*
G75*
G02*
X287335000Y-48857500I0J-62500D01*
G01*
X287335000Y-48982500D01*
G75*
G02*
X287272500Y-49045000I-62500J0D01*
G01*
X286522500Y-49045000D01*
G75*
G02*
X286460000Y-48982500I0J62500D01*
G01*
G37*
G36*
G01*
X286460000Y-48482500D02*
X286460000Y-48357500D01*
G75*
G02*
X286522500Y-48295000I62500J0D01*
G01*
X287272500Y-48295000D01*
G75*
G02*
X287335000Y-48357500I0J-62500D01*
G01*
X287335000Y-48482500D01*
G75*
G02*
X287272500Y-48545000I-62500J0D01*
G01*
X286522500Y-48545000D01*
G75*
G02*
X286460000Y-48482500I0J62500D01*
G01*
G37*
G36*
G01*
X286460000Y-47982500D02*
X286460000Y-47857500D01*
G75*
G02*
X286522500Y-47795000I62500J0D01*
G01*
X287272500Y-47795000D01*
G75*
G02*
X287335000Y-47857500I0J-62500D01*
G01*
X287335000Y-47982500D01*
G75*
G02*
X287272500Y-48045000I-62500J0D01*
G01*
X286522500Y-48045000D01*
G75*
G02*
X286460000Y-47982500I0J62500D01*
G01*
G37*
G36*
G01*
X286460000Y-47482500D02*
X286460000Y-47357500D01*
G75*
G02*
X286522500Y-47295000I62500J0D01*
G01*
X287272500Y-47295000D01*
G75*
G02*
X287335000Y-47357500I0J-62500D01*
G01*
X287335000Y-47482500D01*
G75*
G02*
X287272500Y-47545000I-62500J0D01*
G01*
X286522500Y-47545000D01*
G75*
G02*
X286460000Y-47482500I0J62500D01*
G01*
G37*
G36*
G01*
X286460000Y-46982500D02*
X286460000Y-46857500D01*
G75*
G02*
X286522500Y-46795000I62500J0D01*
G01*
X287272500Y-46795000D01*
G75*
G02*
X287335000Y-46857500I0J-62500D01*
G01*
X287335000Y-46982500D01*
G75*
G02*
X287272500Y-47045000I-62500J0D01*
G01*
X286522500Y-47045000D01*
G75*
G02*
X286460000Y-46982500I0J62500D01*
G01*
G37*
G36*
G01*
X286460000Y-46482500D02*
X286460000Y-46357500D01*
G75*
G02*
X286522500Y-46295000I62500J0D01*
G01*
X287272500Y-46295000D01*
G75*
G02*
X287335000Y-46357500I0J-62500D01*
G01*
X287335000Y-46482500D01*
G75*
G02*
X287272500Y-46545000I-62500J0D01*
G01*
X286522500Y-46545000D01*
G75*
G02*
X286460000Y-46482500I0J62500D01*
G01*
G37*
G36*
G01*
X286460000Y-45982500D02*
X286460000Y-45857500D01*
G75*
G02*
X286522500Y-45795000I62500J0D01*
G01*
X287272500Y-45795000D01*
G75*
G02*
X287335000Y-45857500I0J-62500D01*
G01*
X287335000Y-45982500D01*
G75*
G02*
X287272500Y-46045000I-62500J0D01*
G01*
X286522500Y-46045000D01*
G75*
G02*
X286460000Y-45982500I0J62500D01*
G01*
G37*
G36*
G01*
X286460000Y-45482500D02*
X286460000Y-45357500D01*
G75*
G02*
X286522500Y-45295000I62500J0D01*
G01*
X287272500Y-45295000D01*
G75*
G02*
X287335000Y-45357500I0J-62500D01*
G01*
X287335000Y-45482500D01*
G75*
G02*
X287272500Y-45545000I-62500J0D01*
G01*
X286522500Y-45545000D01*
G75*
G02*
X286460000Y-45482500I0J62500D01*
G01*
G37*
G36*
G01*
X286085000Y-45107500D02*
X286085000Y-44357500D01*
G75*
G02*
X286147500Y-44295000I62500J0D01*
G01*
X286272500Y-44295000D01*
G75*
G02*
X286335000Y-44357500I0J-62500D01*
G01*
X286335000Y-45107500D01*
G75*
G02*
X286272500Y-45170000I-62500J0D01*
G01*
X286147500Y-45170000D01*
G75*
G02*
X286085000Y-45107500I0J62500D01*
G01*
G37*
G36*
G01*
X285585000Y-45107500D02*
X285585000Y-44357500D01*
G75*
G02*
X285647500Y-44295000I62500J0D01*
G01*
X285772500Y-44295000D01*
G75*
G02*
X285835000Y-44357500I0J-62500D01*
G01*
X285835000Y-45107500D01*
G75*
G02*
X285772500Y-45170000I-62500J0D01*
G01*
X285647500Y-45170000D01*
G75*
G02*
X285585000Y-45107500I0J62500D01*
G01*
G37*
G36*
G01*
X285085000Y-45107500D02*
X285085000Y-44357500D01*
G75*
G02*
X285147500Y-44295000I62500J0D01*
G01*
X285272500Y-44295000D01*
G75*
G02*
X285335000Y-44357500I0J-62500D01*
G01*
X285335000Y-45107500D01*
G75*
G02*
X285272500Y-45170000I-62500J0D01*
G01*
X285147500Y-45170000D01*
G75*
G02*
X285085000Y-45107500I0J62500D01*
G01*
G37*
G36*
G01*
X284585000Y-45107500D02*
X284585000Y-44357500D01*
G75*
G02*
X284647500Y-44295000I62500J0D01*
G01*
X284772500Y-44295000D01*
G75*
G02*
X284835000Y-44357500I0J-62500D01*
G01*
X284835000Y-45107500D01*
G75*
G02*
X284772500Y-45170000I-62500J0D01*
G01*
X284647500Y-45170000D01*
G75*
G02*
X284585000Y-45107500I0J62500D01*
G01*
G37*
G36*
G01*
X284085000Y-45107500D02*
X284085000Y-44357500D01*
G75*
G02*
X284147500Y-44295000I62500J0D01*
G01*
X284272500Y-44295000D01*
G75*
G02*
X284335000Y-44357500I0J-62500D01*
G01*
X284335000Y-45107500D01*
G75*
G02*
X284272500Y-45170000I-62500J0D01*
G01*
X284147500Y-45170000D01*
G75*
G02*
X284085000Y-45107500I0J62500D01*
G01*
G37*
G36*
G01*
X283585000Y-45107500D02*
X283585000Y-44357500D01*
G75*
G02*
X283647500Y-44295000I62500J0D01*
G01*
X283772500Y-44295000D01*
G75*
G02*
X283835000Y-44357500I0J-62500D01*
G01*
X283835000Y-45107500D01*
G75*
G02*
X283772500Y-45170000I-62500J0D01*
G01*
X283647500Y-45170000D01*
G75*
G02*
X283585000Y-45107500I0J62500D01*
G01*
G37*
G36*
G01*
X283085000Y-45107500D02*
X283085000Y-44357500D01*
G75*
G02*
X283147500Y-44295000I62500J0D01*
G01*
X283272500Y-44295000D01*
G75*
G02*
X283335000Y-44357500I0J-62500D01*
G01*
X283335000Y-45107500D01*
G75*
G02*
X283272500Y-45170000I-62500J0D01*
G01*
X283147500Y-45170000D01*
G75*
G02*
X283085000Y-45107500I0J62500D01*
G01*
G37*
G36*
G01*
X282585000Y-45107500D02*
X282585000Y-44357500D01*
G75*
G02*
X282647500Y-44295000I62500J0D01*
G01*
X282772500Y-44295000D01*
G75*
G02*
X282835000Y-44357500I0J-62500D01*
G01*
X282835000Y-45107500D01*
G75*
G02*
X282772500Y-45170000I-62500J0D01*
G01*
X282647500Y-45170000D01*
G75*
G02*
X282585000Y-45107500I0J62500D01*
G01*
G37*
G36*
G01*
X282085000Y-45107500D02*
X282085000Y-44357500D01*
G75*
G02*
X282147500Y-44295000I62500J0D01*
G01*
X282272500Y-44295000D01*
G75*
G02*
X282335000Y-44357500I0J-62500D01*
G01*
X282335000Y-45107500D01*
G75*
G02*
X282272500Y-45170000I-62500J0D01*
G01*
X282147500Y-45170000D01*
G75*
G02*
X282085000Y-45107500I0J62500D01*
G01*
G37*
G36*
G01*
X281585000Y-45107500D02*
X281585000Y-44357500D01*
G75*
G02*
X281647500Y-44295000I62500J0D01*
G01*
X281772500Y-44295000D01*
G75*
G02*
X281835000Y-44357500I0J-62500D01*
G01*
X281835000Y-45107500D01*
G75*
G02*
X281772500Y-45170000I-62500J0D01*
G01*
X281647500Y-45170000D01*
G75*
G02*
X281585000Y-45107500I0J62500D01*
G01*
G37*
G36*
G01*
X281085000Y-45107500D02*
X281085000Y-44357500D01*
G75*
G02*
X281147500Y-44295000I62500J0D01*
G01*
X281272500Y-44295000D01*
G75*
G02*
X281335000Y-44357500I0J-62500D01*
G01*
X281335000Y-45107500D01*
G75*
G02*
X281272500Y-45170000I-62500J0D01*
G01*
X281147500Y-45170000D01*
G75*
G02*
X281085000Y-45107500I0J62500D01*
G01*
G37*
G36*
G01*
X280585000Y-45107500D02*
X280585000Y-44357500D01*
G75*
G02*
X280647500Y-44295000I62500J0D01*
G01*
X280772500Y-44295000D01*
G75*
G02*
X280835000Y-44357500I0J-62500D01*
G01*
X280835000Y-45107500D01*
G75*
G02*
X280772500Y-45170000I-62500J0D01*
G01*
X280647500Y-45170000D01*
G75*
G02*
X280585000Y-45107500I0J62500D01*
G01*
G37*
G36*
G01*
X279585000Y-45482500D02*
X279585000Y-45357500D01*
G75*
G02*
X279647500Y-45295000I62500J0D01*
G01*
X280397500Y-45295000D01*
G75*
G02*
X280460000Y-45357500I0J-62500D01*
G01*
X280460000Y-45482500D01*
G75*
G02*
X280397500Y-45545000I-62500J0D01*
G01*
X279647500Y-45545000D01*
G75*
G02*
X279585000Y-45482500I0J62500D01*
G01*
G37*
G36*
G01*
X279585000Y-45982500D02*
X279585000Y-45857500D01*
G75*
G02*
X279647500Y-45795000I62500J0D01*
G01*
X280397500Y-45795000D01*
G75*
G02*
X280460000Y-45857500I0J-62500D01*
G01*
X280460000Y-45982500D01*
G75*
G02*
X280397500Y-46045000I-62500J0D01*
G01*
X279647500Y-46045000D01*
G75*
G02*
X279585000Y-45982500I0J62500D01*
G01*
G37*
G36*
G01*
X279585000Y-46482500D02*
X279585000Y-46357500D01*
G75*
G02*
X279647500Y-46295000I62500J0D01*
G01*
X280397500Y-46295000D01*
G75*
G02*
X280460000Y-46357500I0J-62500D01*
G01*
X280460000Y-46482500D01*
G75*
G02*
X280397500Y-46545000I-62500J0D01*
G01*
X279647500Y-46545000D01*
G75*
G02*
X279585000Y-46482500I0J62500D01*
G01*
G37*
G36*
G01*
X279585000Y-46982500D02*
X279585000Y-46857500D01*
G75*
G02*
X279647500Y-46795000I62500J0D01*
G01*
X280397500Y-46795000D01*
G75*
G02*
X280460000Y-46857500I0J-62500D01*
G01*
X280460000Y-46982500D01*
G75*
G02*
X280397500Y-47045000I-62500J0D01*
G01*
X279647500Y-47045000D01*
G75*
G02*
X279585000Y-46982500I0J62500D01*
G01*
G37*
G36*
G01*
X279585000Y-47482500D02*
X279585000Y-47357500D01*
G75*
G02*
X279647500Y-47295000I62500J0D01*
G01*
X280397500Y-47295000D01*
G75*
G02*
X280460000Y-47357500I0J-62500D01*
G01*
X280460000Y-47482500D01*
G75*
G02*
X280397500Y-47545000I-62500J0D01*
G01*
X279647500Y-47545000D01*
G75*
G02*
X279585000Y-47482500I0J62500D01*
G01*
G37*
G36*
G01*
X279585000Y-47982500D02*
X279585000Y-47857500D01*
G75*
G02*
X279647500Y-47795000I62500J0D01*
G01*
X280397500Y-47795000D01*
G75*
G02*
X280460000Y-47857500I0J-62500D01*
G01*
X280460000Y-47982500D01*
G75*
G02*
X280397500Y-48045000I-62500J0D01*
G01*
X279647500Y-48045000D01*
G75*
G02*
X279585000Y-47982500I0J62500D01*
G01*
G37*
G36*
G01*
X279585000Y-48482500D02*
X279585000Y-48357500D01*
G75*
G02*
X279647500Y-48295000I62500J0D01*
G01*
X280397500Y-48295000D01*
G75*
G02*
X280460000Y-48357500I0J-62500D01*
G01*
X280460000Y-48482500D01*
G75*
G02*
X280397500Y-48545000I-62500J0D01*
G01*
X279647500Y-48545000D01*
G75*
G02*
X279585000Y-48482500I0J62500D01*
G01*
G37*
G36*
G01*
X279585000Y-48982500D02*
X279585000Y-48857500D01*
G75*
G02*
X279647500Y-48795000I62500J0D01*
G01*
X280397500Y-48795000D01*
G75*
G02*
X280460000Y-48857500I0J-62500D01*
G01*
X280460000Y-48982500D01*
G75*
G02*
X280397500Y-49045000I-62500J0D01*
G01*
X279647500Y-49045000D01*
G75*
G02*
X279585000Y-48982500I0J62500D01*
G01*
G37*
G36*
G01*
X279585000Y-49482500D02*
X279585000Y-49357500D01*
G75*
G02*
X279647500Y-49295000I62500J0D01*
G01*
X280397500Y-49295000D01*
G75*
G02*
X280460000Y-49357500I0J-62500D01*
G01*
X280460000Y-49482500D01*
G75*
G02*
X280397500Y-49545000I-62500J0D01*
G01*
X279647500Y-49545000D01*
G75*
G02*
X279585000Y-49482500I0J62500D01*
G01*
G37*
G36*
G01*
X279585000Y-49982500D02*
X279585000Y-49857500D01*
G75*
G02*
X279647500Y-49795000I62500J0D01*
G01*
X280397500Y-49795000D01*
G75*
G02*
X280460000Y-49857500I0J-62500D01*
G01*
X280460000Y-49982500D01*
G75*
G02*
X280397500Y-50045000I-62500J0D01*
G01*
X279647500Y-50045000D01*
G75*
G02*
X279585000Y-49982500I0J62500D01*
G01*
G37*
G36*
G01*
X279585000Y-50482500D02*
X279585000Y-50357500D01*
G75*
G02*
X279647500Y-50295000I62500J0D01*
G01*
X280397500Y-50295000D01*
G75*
G02*
X280460000Y-50357500I0J-62500D01*
G01*
X280460000Y-50482500D01*
G75*
G02*
X280397500Y-50545000I-62500J0D01*
G01*
X279647500Y-50545000D01*
G75*
G02*
X279585000Y-50482500I0J62500D01*
G01*
G37*
G36*
G01*
X279585000Y-50982500D02*
X279585000Y-50857500D01*
G75*
G02*
X279647500Y-50795000I62500J0D01*
G01*
X280397500Y-50795000D01*
G75*
G02*
X280460000Y-50857500I0J-62500D01*
G01*
X280460000Y-50982500D01*
G75*
G02*
X280397500Y-51045000I-62500J0D01*
G01*
X279647500Y-51045000D01*
G75*
G02*
X279585000Y-50982500I0J62500D01*
G01*
G37*
D12*
X290600000Y-67200000D03*
X289200000Y-67200000D03*
G36*
G01*
X290052500Y-69690000D02*
X289707500Y-69690000D01*
G75*
G02*
X289560000Y-69542500I0J147500D01*
G01*
X289560000Y-69247500D01*
G75*
G02*
X289707500Y-69100000I147500J0D01*
G01*
X290052500Y-69100000D01*
G75*
G02*
X290200000Y-69247500I0J-147500D01*
G01*
X290200000Y-69542500D01*
G75*
G02*
X290052500Y-69690000I-147500J0D01*
G01*
G37*
G36*
G01*
X290052500Y-70660000D02*
X289707500Y-70660000D01*
G75*
G02*
X289560000Y-70512500I0J147500D01*
G01*
X289560000Y-70217500D01*
G75*
G02*
X289707500Y-70070000I147500J0D01*
G01*
X290052500Y-70070000D01*
G75*
G02*
X290200000Y-70217500I0J-147500D01*
G01*
X290200000Y-70512500D01*
G75*
G02*
X290052500Y-70660000I-147500J0D01*
G01*
G37*
D13*
X280610000Y-77180000D03*
X276360000Y-77180000D03*
X280610000Y-73680000D03*
G36*
G01*
X284352500Y-53765000D02*
X284007500Y-53765000D01*
G75*
G02*
X283860000Y-53617500I0J147500D01*
G01*
X283860000Y-53322500D01*
G75*
G02*
X284007500Y-53175000I147500J0D01*
G01*
X284352500Y-53175000D01*
G75*
G02*
X284500000Y-53322500I0J-147500D01*
G01*
X284500000Y-53617500D01*
G75*
G02*
X284352500Y-53765000I-147500J0D01*
G01*
G37*
G36*
G01*
X284352500Y-54735000D02*
X284007500Y-54735000D01*
G75*
G02*
X283860000Y-54587500I0J147500D01*
G01*
X283860000Y-54292500D01*
G75*
G02*
X284007500Y-54145000I147500J0D01*
G01*
X284352500Y-54145000D01*
G75*
G02*
X284500000Y-54292500I0J-147500D01*
G01*
X284500000Y-54587500D01*
G75*
G02*
X284352500Y-54735000I-147500J0D01*
G01*
G37*
D14*
X283740000Y-70040000D03*
X283740000Y-64960000D03*
X283740000Y-75120000D03*
X287040000Y-67500000D03*
X283740000Y-59880000D03*
X287040000Y-62420000D03*
X287040000Y-72580000D03*
X287040000Y-77660000D03*
X264180000Y-62420000D03*
X264180000Y-67500000D03*
X264180000Y-72580000D03*
X264180000Y-77660000D03*
X260880000Y-59880000D03*
X260880000Y-64960000D03*
X260880000Y-70040000D03*
X260880000Y-75120000D03*
D15*
X275420000Y-58370000D03*
X272880000Y-61670000D03*
G36*
G01*
X285052500Y-41710000D02*
X284707500Y-41710000D01*
G75*
G02*
X284560000Y-41562500I0J147500D01*
G01*
X284560000Y-41267500D01*
G75*
G02*
X284707500Y-41120000I147500J0D01*
G01*
X285052500Y-41120000D01*
G75*
G02*
X285200000Y-41267500I0J-147500D01*
G01*
X285200000Y-41562500D01*
G75*
G02*
X285052500Y-41710000I-147500J0D01*
G01*
G37*
G36*
G01*
X285052500Y-42680000D02*
X284707500Y-42680000D01*
G75*
G02*
X284560000Y-42532500I0J147500D01*
G01*
X284560000Y-42237500D01*
G75*
G02*
X284707500Y-42090000I147500J0D01*
G01*
X285052500Y-42090000D01*
G75*
G02*
X285200000Y-42237500I0J-147500D01*
G01*
X285200000Y-42532500D01*
G75*
G02*
X285052500Y-42680000I-147500J0D01*
G01*
G37*
G36*
G01*
X290062500Y-72980000D02*
X289717500Y-72980000D01*
G75*
G02*
X289570000Y-72832500I0J147500D01*
G01*
X289570000Y-72537500D01*
G75*
G02*
X289717500Y-72390000I147500J0D01*
G01*
X290062500Y-72390000D01*
G75*
G02*
X290210000Y-72537500I0J-147500D01*
G01*
X290210000Y-72832500D01*
G75*
G02*
X290062500Y-72980000I-147500J0D01*
G01*
G37*
G36*
G01*
X290062500Y-73950000D02*
X289717500Y-73950000D01*
G75*
G02*
X289570000Y-73802500I0J147500D01*
G01*
X289570000Y-73507500D01*
G75*
G02*
X289717500Y-73360000I147500J0D01*
G01*
X290062500Y-73360000D01*
G75*
G02*
X290210000Y-73507500I0J-147500D01*
G01*
X290210000Y-73802500D01*
G75*
G02*
X290062500Y-73950000I-147500J0D01*
G01*
G37*
D16*
X258725000Y-36885000D03*
X258725000Y-39835000D03*
D17*
X260250000Y-38360000D03*
G36*
G01*
X280457500Y-54155000D02*
X280802500Y-54155000D01*
G75*
G02*
X280950000Y-54302500I0J-147500D01*
G01*
X280950000Y-54597500D01*
G75*
G02*
X280802500Y-54745000I-147500J0D01*
G01*
X280457500Y-54745000D01*
G75*
G02*
X280310000Y-54597500I0J147500D01*
G01*
X280310000Y-54302500D01*
G75*
G02*
X280457500Y-54155000I147500J0D01*
G01*
G37*
G36*
G01*
X280457500Y-53185000D02*
X280802500Y-53185000D01*
G75*
G02*
X280950000Y-53332500I0J-147500D01*
G01*
X280950000Y-53627500D01*
G75*
G02*
X280802500Y-53775000I-147500J0D01*
G01*
X280457500Y-53775000D01*
G75*
G02*
X280310000Y-53627500I0J147500D01*
G01*
X280310000Y-53332500D01*
G75*
G02*
X280457500Y-53185000I147500J0D01*
G01*
G37*
G36*
G01*
X282017500Y-54155000D02*
X282362500Y-54155000D01*
G75*
G02*
X282510000Y-54302500I0J-147500D01*
G01*
X282510000Y-54597500D01*
G75*
G02*
X282362500Y-54745000I-147500J0D01*
G01*
X282017500Y-54745000D01*
G75*
G02*
X281870000Y-54597500I0J147500D01*
G01*
X281870000Y-54302500D01*
G75*
G02*
X282017500Y-54155000I147500J0D01*
G01*
G37*
G36*
G01*
X282017500Y-53185000D02*
X282362500Y-53185000D01*
G75*
G02*
X282510000Y-53332500I0J-147500D01*
G01*
X282510000Y-53627500D01*
G75*
G02*
X282362500Y-53775000I-147500J0D01*
G01*
X282017500Y-53775000D01*
G75*
G02*
X281870000Y-53627500I0J147500D01*
G01*
X281870000Y-53332500D01*
G75*
G02*
X282017500Y-53185000I147500J0D01*
G01*
G37*
D18*
X257260000Y-47959000D03*
D19*
X256760000Y-45159000D03*
X257760000Y-45159000D03*
G36*
G01*
X273290000Y-51620000D02*
X273290000Y-51020000D01*
G75*
G02*
X273365000Y-50945000I75000J0D01*
G01*
X273515000Y-50945000D01*
G75*
G02*
X273590000Y-51020000I0J-75000D01*
G01*
X273590000Y-51620000D01*
G75*
G02*
X273515000Y-51695000I-75000J0D01*
G01*
X273365000Y-51695000D01*
G75*
G02*
X273290000Y-51620000I0J75000D01*
G01*
G37*
G36*
G01*
X273290000Y-49320000D02*
X273290000Y-48720000D01*
G75*
G02*
X273365000Y-48645000I75000J0D01*
G01*
X273515000Y-48645000D01*
G75*
G02*
X273590000Y-48720000I0J-75000D01*
G01*
X273590000Y-49320000D01*
G75*
G02*
X273515000Y-49395000I-75000J0D01*
G01*
X273365000Y-49395000D01*
G75*
G02*
X273290000Y-49320000I0J75000D01*
G01*
G37*
G36*
G01*
X274552500Y-51045000D02*
X273927500Y-51045000D01*
G75*
G02*
X273865000Y-50982500I0J62500D01*
G01*
X273865000Y-50857500D01*
G75*
G02*
X273927500Y-50795000I62500J0D01*
G01*
X274552500Y-50795000D01*
G75*
G02*
X274615000Y-50857500I0J-62500D01*
G01*
X274615000Y-50982500D01*
G75*
G02*
X274552500Y-51045000I-62500J0D01*
G01*
G37*
G36*
G01*
X274552500Y-50545000D02*
X273927500Y-50545000D01*
G75*
G02*
X273865000Y-50482500I0J62500D01*
G01*
X273865000Y-50357500D01*
G75*
G02*
X273927500Y-50295000I62500J0D01*
G01*
X274552500Y-50295000D01*
G75*
G02*
X274615000Y-50357500I0J-62500D01*
G01*
X274615000Y-50482500D01*
G75*
G02*
X274552500Y-50545000I-62500J0D01*
G01*
G37*
G36*
G01*
X274552500Y-50045000D02*
X273927500Y-50045000D01*
G75*
G02*
X273865000Y-49982500I0J62500D01*
G01*
X273865000Y-49857500D01*
G75*
G02*
X273927500Y-49795000I62500J0D01*
G01*
X274552500Y-49795000D01*
G75*
G02*
X274615000Y-49857500I0J-62500D01*
G01*
X274615000Y-49982500D01*
G75*
G02*
X274552500Y-50045000I-62500J0D01*
G01*
G37*
G36*
G01*
X274552500Y-49545000D02*
X273927500Y-49545000D01*
G75*
G02*
X273865000Y-49482500I0J62500D01*
G01*
X273865000Y-49357500D01*
G75*
G02*
X273927500Y-49295000I62500J0D01*
G01*
X274552500Y-49295000D01*
G75*
G02*
X274615000Y-49357500I0J-62500D01*
G01*
X274615000Y-49482500D01*
G75*
G02*
X274552500Y-49545000I-62500J0D01*
G01*
G37*
G36*
G01*
X272952500Y-51045000D02*
X272327500Y-51045000D01*
G75*
G02*
X272265000Y-50982500I0J62500D01*
G01*
X272265000Y-50857500D01*
G75*
G02*
X272327500Y-50795000I62500J0D01*
G01*
X272952500Y-50795000D01*
G75*
G02*
X273015000Y-50857500I0J-62500D01*
G01*
X273015000Y-50982500D01*
G75*
G02*
X272952500Y-51045000I-62500J0D01*
G01*
G37*
G36*
G01*
X272952500Y-50545000D02*
X272327500Y-50545000D01*
G75*
G02*
X272265000Y-50482500I0J62500D01*
G01*
X272265000Y-50357500D01*
G75*
G02*
X272327500Y-50295000I62500J0D01*
G01*
X272952500Y-50295000D01*
G75*
G02*
X273015000Y-50357500I0J-62500D01*
G01*
X273015000Y-50482500D01*
G75*
G02*
X272952500Y-50545000I-62500J0D01*
G01*
G37*
G36*
G01*
X272952500Y-50045000D02*
X272327500Y-50045000D01*
G75*
G02*
X272265000Y-49982500I0J62500D01*
G01*
X272265000Y-49857500D01*
G75*
G02*
X272327500Y-49795000I62500J0D01*
G01*
X272952500Y-49795000D01*
G75*
G02*
X273015000Y-49857500I0J-62500D01*
G01*
X273015000Y-49982500D01*
G75*
G02*
X272952500Y-50045000I-62500J0D01*
G01*
G37*
G36*
G01*
X272952500Y-49545000D02*
X272327500Y-49545000D01*
G75*
G02*
X272265000Y-49482500I0J62500D01*
G01*
X272265000Y-49357500D01*
G75*
G02*
X272327500Y-49295000I62500J0D01*
G01*
X272952500Y-49295000D01*
G75*
G02*
X273015000Y-49357500I0J-62500D01*
G01*
X273015000Y-49482500D01*
G75*
G02*
X272952500Y-49545000I-62500J0D01*
G01*
G37*
G36*
G01*
X278710000Y-60990000D02*
X278860000Y-60990000D01*
G75*
G02*
X278935000Y-61065000I0J-75000D01*
G01*
X278935000Y-61515000D01*
G75*
G02*
X278860000Y-61590000I-75000J0D01*
G01*
X278710000Y-61590000D01*
G75*
G02*
X278635000Y-61515000I0J75000D01*
G01*
X278635000Y-61065000D01*
G75*
G02*
X278710000Y-60990000I75000J0D01*
G01*
G37*
G36*
G01*
X279185000Y-61202500D02*
X279185000Y-61077500D01*
G75*
G02*
X279247500Y-61015000I62500J0D01*
G01*
X279672500Y-61015000D01*
G75*
G02*
X279735000Y-61077500I0J-62500D01*
G01*
X279735000Y-61202500D01*
G75*
G02*
X279672500Y-61265000I-62500J0D01*
G01*
X279247500Y-61265000D01*
G75*
G02*
X279185000Y-61202500I0J62500D01*
G01*
G37*
G36*
G01*
X279185000Y-60702500D02*
X279185000Y-60577500D01*
G75*
G02*
X279247500Y-60515000I62500J0D01*
G01*
X279672500Y-60515000D01*
G75*
G02*
X279735000Y-60577500I0J-62500D01*
G01*
X279735000Y-60702500D01*
G75*
G02*
X279672500Y-60765000I-62500J0D01*
G01*
X279247500Y-60765000D01*
G75*
G02*
X279185000Y-60702500I0J62500D01*
G01*
G37*
G36*
G01*
X279185000Y-60202500D02*
X279185000Y-60077500D01*
G75*
G02*
X279247500Y-60015000I62500J0D01*
G01*
X279672500Y-60015000D01*
G75*
G02*
X279735000Y-60077500I0J-62500D01*
G01*
X279735000Y-60202500D01*
G75*
G02*
X279672500Y-60265000I-62500J0D01*
G01*
X279247500Y-60265000D01*
G75*
G02*
X279185000Y-60202500I0J62500D01*
G01*
G37*
G36*
G01*
X279185000Y-59702500D02*
X279185000Y-59577500D01*
G75*
G02*
X279247500Y-59515000I62500J0D01*
G01*
X279672500Y-59515000D01*
G75*
G02*
X279735000Y-59577500I0J-62500D01*
G01*
X279735000Y-59702500D01*
G75*
G02*
X279672500Y-59765000I-62500J0D01*
G01*
X279247500Y-59765000D01*
G75*
G02*
X279185000Y-59702500I0J62500D01*
G01*
G37*
G36*
G01*
X278710000Y-59190000D02*
X278860000Y-59190000D01*
G75*
G02*
X278935000Y-59265000I0J-75000D01*
G01*
X278935000Y-59715000D01*
G75*
G02*
X278860000Y-59790000I-75000J0D01*
G01*
X278710000Y-59790000D01*
G75*
G02*
X278635000Y-59715000I0J75000D01*
G01*
X278635000Y-59265000D01*
G75*
G02*
X278710000Y-59190000I75000J0D01*
G01*
G37*
G36*
G01*
X277835000Y-59702500D02*
X277835000Y-59577500D01*
G75*
G02*
X277897500Y-59515000I62500J0D01*
G01*
X278322500Y-59515000D01*
G75*
G02*
X278385000Y-59577500I0J-62500D01*
G01*
X278385000Y-59702500D01*
G75*
G02*
X278322500Y-59765000I-62500J0D01*
G01*
X277897500Y-59765000D01*
G75*
G02*
X277835000Y-59702500I0J62500D01*
G01*
G37*
G36*
G01*
X277835000Y-60202500D02*
X277835000Y-60077500D01*
G75*
G02*
X277897500Y-60015000I62500J0D01*
G01*
X278322500Y-60015000D01*
G75*
G02*
X278385000Y-60077500I0J-62500D01*
G01*
X278385000Y-60202500D01*
G75*
G02*
X278322500Y-60265000I-62500J0D01*
G01*
X277897500Y-60265000D01*
G75*
G02*
X277835000Y-60202500I0J62500D01*
G01*
G37*
G36*
G01*
X277835000Y-60702500D02*
X277835000Y-60577500D01*
G75*
G02*
X277897500Y-60515000I62500J0D01*
G01*
X278322500Y-60515000D01*
G75*
G02*
X278385000Y-60577500I0J-62500D01*
G01*
X278385000Y-60702500D01*
G75*
G02*
X278322500Y-60765000I-62500J0D01*
G01*
X277897500Y-60765000D01*
G75*
G02*
X277835000Y-60702500I0J62500D01*
G01*
G37*
G36*
G01*
X277835000Y-61202500D02*
X277835000Y-61077500D01*
G75*
G02*
X277897500Y-61015000I62500J0D01*
G01*
X278322500Y-61015000D01*
G75*
G02*
X278385000Y-61077500I0J-62500D01*
G01*
X278385000Y-61202500D01*
G75*
G02*
X278322500Y-61265000I-62500J0D01*
G01*
X277897500Y-61265000D01*
G75*
G02*
X277835000Y-61202500I0J62500D01*
G01*
G37*
G36*
G01*
X281072500Y-60935000D02*
X280727500Y-60935000D01*
G75*
G02*
X280580000Y-60787500I0J147500D01*
G01*
X280580000Y-60492500D01*
G75*
G02*
X280727500Y-60345000I147500J0D01*
G01*
X281072500Y-60345000D01*
G75*
G02*
X281220000Y-60492500I0J-147500D01*
G01*
X281220000Y-60787500D01*
G75*
G02*
X281072500Y-60935000I-147500J0D01*
G01*
G37*
G36*
G01*
X281072500Y-61905000D02*
X280727500Y-61905000D01*
G75*
G02*
X280580000Y-61757500I0J147500D01*
G01*
X280580000Y-61462500D01*
G75*
G02*
X280727500Y-61315000I147500J0D01*
G01*
X281072500Y-61315000D01*
G75*
G02*
X281220000Y-61462500I0J-147500D01*
G01*
X281220000Y-61757500D01*
G75*
G02*
X281072500Y-61905000I-147500J0D01*
G01*
G37*
G36*
G01*
X278962500Y-57320000D02*
X278617500Y-57320000D01*
G75*
G02*
X278470000Y-57172500I0J147500D01*
G01*
X278470000Y-56877500D01*
G75*
G02*
X278617500Y-56730000I147500J0D01*
G01*
X278962500Y-56730000D01*
G75*
G02*
X279110000Y-56877500I0J-147500D01*
G01*
X279110000Y-57172500D01*
G75*
G02*
X278962500Y-57320000I-147500J0D01*
G01*
G37*
G36*
G01*
X278962500Y-58290000D02*
X278617500Y-58290000D01*
G75*
G02*
X278470000Y-58142500I0J147500D01*
G01*
X278470000Y-57847500D01*
G75*
G02*
X278617500Y-57700000I147500J0D01*
G01*
X278962500Y-57700000D01*
G75*
G02*
X279110000Y-57847500I0J-147500D01*
G01*
X279110000Y-58142500D01*
G75*
G02*
X278962500Y-58290000I-147500J0D01*
G01*
G37*
G36*
G01*
X284042500Y-41705000D02*
X283697500Y-41705000D01*
G75*
G02*
X283550000Y-41557500I0J147500D01*
G01*
X283550000Y-41262500D01*
G75*
G02*
X283697500Y-41115000I147500J0D01*
G01*
X284042500Y-41115000D01*
G75*
G02*
X284190000Y-41262500I0J-147500D01*
G01*
X284190000Y-41557500D01*
G75*
G02*
X284042500Y-41705000I-147500J0D01*
G01*
G37*
G36*
G01*
X284042500Y-42675000D02*
X283697500Y-42675000D01*
G75*
G02*
X283550000Y-42527500I0J147500D01*
G01*
X283550000Y-42232500D01*
G75*
G02*
X283697500Y-42085000I147500J0D01*
G01*
X284042500Y-42085000D01*
G75*
G02*
X284190000Y-42232500I0J-147500D01*
G01*
X284190000Y-42527500D01*
G75*
G02*
X284042500Y-42675000I-147500J0D01*
G01*
G37*
G36*
G01*
X279637500Y-42085000D02*
X279982500Y-42085000D01*
G75*
G02*
X280130000Y-42232500I0J-147500D01*
G01*
X280130000Y-42527500D01*
G75*
G02*
X279982500Y-42675000I-147500J0D01*
G01*
X279637500Y-42675000D01*
G75*
G02*
X279490000Y-42527500I0J147500D01*
G01*
X279490000Y-42232500D01*
G75*
G02*
X279637500Y-42085000I147500J0D01*
G01*
G37*
G36*
G01*
X279637500Y-41115000D02*
X279982500Y-41115000D01*
G75*
G02*
X280130000Y-41262500I0J-147500D01*
G01*
X280130000Y-41557500D01*
G75*
G02*
X279982500Y-41705000I-147500J0D01*
G01*
X279637500Y-41705000D01*
G75*
G02*
X279490000Y-41557500I0J147500D01*
G01*
X279490000Y-41262500D01*
G75*
G02*
X279637500Y-41115000I147500J0D01*
G01*
G37*
G36*
G01*
X288422500Y-50445000D02*
X288077500Y-50445000D01*
G75*
G02*
X287930000Y-50297500I0J147500D01*
G01*
X287930000Y-50002500D01*
G75*
G02*
X288077500Y-49855000I147500J0D01*
G01*
X288422500Y-49855000D01*
G75*
G02*
X288570000Y-50002500I0J-147500D01*
G01*
X288570000Y-50297500D01*
G75*
G02*
X288422500Y-50445000I-147500J0D01*
G01*
G37*
G36*
G01*
X288422500Y-51415000D02*
X288077500Y-51415000D01*
G75*
G02*
X287930000Y-51267500I0J147500D01*
G01*
X287930000Y-50972500D01*
G75*
G02*
X288077500Y-50825000I147500J0D01*
G01*
X288422500Y-50825000D01*
G75*
G02*
X288570000Y-50972500I0J-147500D01*
G01*
X288570000Y-51267500D01*
G75*
G02*
X288422500Y-51415000I-147500J0D01*
G01*
G37*
G36*
G01*
X257053000Y-50204000D02*
X257398000Y-50204000D01*
G75*
G02*
X257545500Y-50351500I0J-147500D01*
G01*
X257545500Y-50646500D01*
G75*
G02*
X257398000Y-50794000I-147500J0D01*
G01*
X257053000Y-50794000D01*
G75*
G02*
X256905500Y-50646500I0J147500D01*
G01*
X256905500Y-50351500D01*
G75*
G02*
X257053000Y-50204000I147500J0D01*
G01*
G37*
G36*
G01*
X257053000Y-49234000D02*
X257398000Y-49234000D01*
G75*
G02*
X257545500Y-49381500I0J-147500D01*
G01*
X257545500Y-49676500D01*
G75*
G02*
X257398000Y-49824000I-147500J0D01*
G01*
X257053000Y-49824000D01*
G75*
G02*
X256905500Y-49676500I0J147500D01*
G01*
X256905500Y-49381500D01*
G75*
G02*
X257053000Y-49234000I147500J0D01*
G01*
G37*
G36*
G01*
X287747500Y-42100000D02*
X288092500Y-42100000D01*
G75*
G02*
X288240000Y-42247500I0J-147500D01*
G01*
X288240000Y-42542500D01*
G75*
G02*
X288092500Y-42690000I-147500J0D01*
G01*
X287747500Y-42690000D01*
G75*
G02*
X287600000Y-42542500I0J147500D01*
G01*
X287600000Y-42247500D01*
G75*
G02*
X287747500Y-42100000I147500J0D01*
G01*
G37*
G36*
G01*
X287747500Y-41130000D02*
X288092500Y-41130000D01*
G75*
G02*
X288240000Y-41277500I0J-147500D01*
G01*
X288240000Y-41572500D01*
G75*
G02*
X288092500Y-41720000I-147500J0D01*
G01*
X287747500Y-41720000D01*
G75*
G02*
X287600000Y-41572500I0J147500D01*
G01*
X287600000Y-41277500D01*
G75*
G02*
X287747500Y-41130000I147500J0D01*
G01*
G37*
G36*
G01*
X286737500Y-42090000D02*
X287082500Y-42090000D01*
G75*
G02*
X287230000Y-42237500I0J-147500D01*
G01*
X287230000Y-42532500D01*
G75*
G02*
X287082500Y-42680000I-147500J0D01*
G01*
X286737500Y-42680000D01*
G75*
G02*
X286590000Y-42532500I0J147500D01*
G01*
X286590000Y-42237500D01*
G75*
G02*
X286737500Y-42090000I147500J0D01*
G01*
G37*
G36*
G01*
X286737500Y-41120000D02*
X287082500Y-41120000D01*
G75*
G02*
X287230000Y-41267500I0J-147500D01*
G01*
X287230000Y-41562500D01*
G75*
G02*
X287082500Y-41710000I-147500J0D01*
G01*
X286737500Y-41710000D01*
G75*
G02*
X286590000Y-41562500I0J147500D01*
G01*
X286590000Y-41267500D01*
G75*
G02*
X286737500Y-41120000I147500J0D01*
G01*
G37*
G36*
G01*
X258737500Y-64695000D02*
X259082500Y-64695000D01*
G75*
G02*
X259230000Y-64842500I0J-147500D01*
G01*
X259230000Y-65137500D01*
G75*
G02*
X259082500Y-65285000I-147500J0D01*
G01*
X258737500Y-65285000D01*
G75*
G02*
X258590000Y-65137500I0J147500D01*
G01*
X258590000Y-64842500D01*
G75*
G02*
X258737500Y-64695000I147500J0D01*
G01*
G37*
G36*
G01*
X258737500Y-63725000D02*
X259082500Y-63725000D01*
G75*
G02*
X259230000Y-63872500I0J-147500D01*
G01*
X259230000Y-64167500D01*
G75*
G02*
X259082500Y-64315000I-147500J0D01*
G01*
X258737500Y-64315000D01*
G75*
G02*
X258590000Y-64167500I0J147500D01*
G01*
X258590000Y-63872500D01*
G75*
G02*
X258737500Y-63725000I147500J0D01*
G01*
G37*
G36*
G01*
X258737500Y-66725000D02*
X259082500Y-66725000D01*
G75*
G02*
X259230000Y-66872500I0J-147500D01*
G01*
X259230000Y-67167500D01*
G75*
G02*
X259082500Y-67315000I-147500J0D01*
G01*
X258737500Y-67315000D01*
G75*
G02*
X258590000Y-67167500I0J147500D01*
G01*
X258590000Y-66872500D01*
G75*
G02*
X258737500Y-66725000I147500J0D01*
G01*
G37*
G36*
G01*
X258737500Y-65755000D02*
X259082500Y-65755000D01*
G75*
G02*
X259230000Y-65902500I0J-147500D01*
G01*
X259230000Y-66197500D01*
G75*
G02*
X259082500Y-66345000I-147500J0D01*
G01*
X258737500Y-66345000D01*
G75*
G02*
X258590000Y-66197500I0J147500D01*
G01*
X258590000Y-65902500D01*
G75*
G02*
X258737500Y-65755000I147500J0D01*
G01*
G37*
D20*
X282200000Y-55740000D03*
X280800000Y-55740000D03*
X280800000Y-56840000D03*
X282200000Y-56840000D03*
G36*
G01*
X268062500Y-76505000D02*
X267717500Y-76505000D01*
G75*
G02*
X267570000Y-76357500I0J147500D01*
G01*
X267570000Y-76062500D01*
G75*
G02*
X267717500Y-75915000I147500J0D01*
G01*
X268062500Y-75915000D01*
G75*
G02*
X268210000Y-76062500I0J-147500D01*
G01*
X268210000Y-76357500D01*
G75*
G02*
X268062500Y-76505000I-147500J0D01*
G01*
G37*
G36*
G01*
X268062500Y-77475000D02*
X267717500Y-77475000D01*
G75*
G02*
X267570000Y-77327500I0J147500D01*
G01*
X267570000Y-77032500D01*
G75*
G02*
X267717500Y-76885000I147500J0D01*
G01*
X268062500Y-76885000D01*
G75*
G02*
X268210000Y-77032500I0J-147500D01*
G01*
X268210000Y-77327500D01*
G75*
G02*
X268062500Y-77475000I-147500J0D01*
G01*
G37*
G36*
G01*
X280992500Y-42675000D02*
X280647500Y-42675000D01*
G75*
G02*
X280500000Y-42527500I0J147500D01*
G01*
X280500000Y-42232500D01*
G75*
G02*
X280647500Y-42085000I147500J0D01*
G01*
X280992500Y-42085000D01*
G75*
G02*
X281140000Y-42232500I0J-147500D01*
G01*
X281140000Y-42527500D01*
G75*
G02*
X280992500Y-42675000I-147500J0D01*
G01*
G37*
G36*
G01*
X280992500Y-41705000D02*
X280647500Y-41705000D01*
G75*
G02*
X280500000Y-41557500I0J147500D01*
G01*
X280500000Y-41262500D01*
G75*
G02*
X280647500Y-41115000I147500J0D01*
G01*
X280992500Y-41115000D01*
G75*
G02*
X281140000Y-41262500I0J-147500D01*
G01*
X281140000Y-41557500D01*
G75*
G02*
X280992500Y-41705000I-147500J0D01*
G01*
G37*
G36*
G01*
X270102500Y-77460000D02*
X269757500Y-77460000D01*
G75*
G02*
X269610000Y-77312500I0J147500D01*
G01*
X269610000Y-77017500D01*
G75*
G02*
X269757500Y-76870000I147500J0D01*
G01*
X270102500Y-76870000D01*
G75*
G02*
X270250000Y-77017500I0J-147500D01*
G01*
X270250000Y-77312500D01*
G75*
G02*
X270102500Y-77460000I-147500J0D01*
G01*
G37*
G36*
G01*
X270102500Y-76490000D02*
X269757500Y-76490000D01*
G75*
G02*
X269610000Y-76342500I0J147500D01*
G01*
X269610000Y-76047500D01*
G75*
G02*
X269757500Y-75900000I147500J0D01*
G01*
X270102500Y-75900000D01*
G75*
G02*
X270250000Y-76047500I0J-147500D01*
G01*
X270250000Y-76342500D01*
G75*
G02*
X270102500Y-76490000I-147500J0D01*
G01*
G37*
G36*
G01*
X268717500Y-70500000D02*
X269062500Y-70500000D01*
G75*
G02*
X269210000Y-70647500I0J-147500D01*
G01*
X269210000Y-70942500D01*
G75*
G02*
X269062500Y-71090000I-147500J0D01*
G01*
X268717500Y-71090000D01*
G75*
G02*
X268570000Y-70942500I0J147500D01*
G01*
X268570000Y-70647500D01*
G75*
G02*
X268717500Y-70500000I147500J0D01*
G01*
G37*
G36*
G01*
X268717500Y-69530000D02*
X269062500Y-69530000D01*
G75*
G02*
X269210000Y-69677500I0J-147500D01*
G01*
X269210000Y-69972500D01*
G75*
G02*
X269062500Y-70120000I-147500J0D01*
G01*
X268717500Y-70120000D01*
G75*
G02*
X268570000Y-69972500I0J147500D01*
G01*
X268570000Y-69677500D01*
G75*
G02*
X268717500Y-69530000I147500J0D01*
G01*
G37*
G36*
G01*
X267707500Y-70510000D02*
X268052500Y-70510000D01*
G75*
G02*
X268200000Y-70657500I0J-147500D01*
G01*
X268200000Y-70952500D01*
G75*
G02*
X268052500Y-71100000I-147500J0D01*
G01*
X267707500Y-71100000D01*
G75*
G02*
X267560000Y-70952500I0J147500D01*
G01*
X267560000Y-70657500D01*
G75*
G02*
X267707500Y-70510000I147500J0D01*
G01*
G37*
G36*
G01*
X267707500Y-69540000D02*
X268052500Y-69540000D01*
G75*
G02*
X268200000Y-69687500I0J-147500D01*
G01*
X268200000Y-69982500D01*
G75*
G02*
X268052500Y-70130000I-147500J0D01*
G01*
X267707500Y-70130000D01*
G75*
G02*
X267560000Y-69982500I0J147500D01*
G01*
X267560000Y-69687500D01*
G75*
G02*
X267707500Y-69540000I147500J0D01*
G01*
G37*
G36*
G01*
X269092500Y-77470000D02*
X268747500Y-77470000D01*
G75*
G02*
X268600000Y-77322500I0J147500D01*
G01*
X268600000Y-77027500D01*
G75*
G02*
X268747500Y-76880000I147500J0D01*
G01*
X269092500Y-76880000D01*
G75*
G02*
X269240000Y-77027500I0J-147500D01*
G01*
X269240000Y-77322500D01*
G75*
G02*
X269092500Y-77470000I-147500J0D01*
G01*
G37*
G36*
G01*
X269092500Y-76500000D02*
X268747500Y-76500000D01*
G75*
G02*
X268600000Y-76352500I0J147500D01*
G01*
X268600000Y-76057500D01*
G75*
G02*
X268747500Y-75910000I147500J0D01*
G01*
X269092500Y-75910000D01*
G75*
G02*
X269240000Y-76057500I0J-147500D01*
G01*
X269240000Y-76352500D01*
G75*
G02*
X269092500Y-76500000I-147500J0D01*
G01*
G37*
G36*
G01*
X282002500Y-41705000D02*
X281657500Y-41705000D01*
G75*
G02*
X281510000Y-41557500I0J147500D01*
G01*
X281510000Y-41262500D01*
G75*
G02*
X281657500Y-41115000I147500J0D01*
G01*
X282002500Y-41115000D01*
G75*
G02*
X282150000Y-41262500I0J-147500D01*
G01*
X282150000Y-41557500D01*
G75*
G02*
X282002500Y-41705000I-147500J0D01*
G01*
G37*
G36*
G01*
X282002500Y-42675000D02*
X281657500Y-42675000D01*
G75*
G02*
X281510000Y-42527500I0J147500D01*
G01*
X281510000Y-42232500D01*
G75*
G02*
X281657500Y-42085000I147500J0D01*
G01*
X282002500Y-42085000D01*
G75*
G02*
X282150000Y-42232500I0J-147500D01*
G01*
X282150000Y-42527500D01*
G75*
G02*
X282002500Y-42675000I-147500J0D01*
G01*
G37*
G36*
G01*
X283022500Y-42680000D02*
X282677500Y-42680000D01*
G75*
G02*
X282530000Y-42532500I0J147500D01*
G01*
X282530000Y-42237500D01*
G75*
G02*
X282677500Y-42090000I147500J0D01*
G01*
X283022500Y-42090000D01*
G75*
G02*
X283170000Y-42237500I0J-147500D01*
G01*
X283170000Y-42532500D01*
G75*
G02*
X283022500Y-42680000I-147500J0D01*
G01*
G37*
G36*
G01*
X283022500Y-41710000D02*
X282677500Y-41710000D01*
G75*
G02*
X282530000Y-41562500I0J147500D01*
G01*
X282530000Y-41267500D01*
G75*
G02*
X282677500Y-41120000I147500J0D01*
G01*
X283022500Y-41120000D01*
G75*
G02*
X283170000Y-41267500I0J-147500D01*
G01*
X283170000Y-41562500D01*
G75*
G02*
X283022500Y-41710000I-147500J0D01*
G01*
G37*
G36*
G01*
X285727500Y-42085000D02*
X286072500Y-42085000D01*
G75*
G02*
X286220000Y-42232500I0J-147500D01*
G01*
X286220000Y-42527500D01*
G75*
G02*
X286072500Y-42675000I-147500J0D01*
G01*
X285727500Y-42675000D01*
G75*
G02*
X285580000Y-42527500I0J147500D01*
G01*
X285580000Y-42232500D01*
G75*
G02*
X285727500Y-42085000I147500J0D01*
G01*
G37*
G36*
G01*
X285727500Y-41115000D02*
X286072500Y-41115000D01*
G75*
G02*
X286220000Y-41262500I0J-147500D01*
G01*
X286220000Y-41557500D01*
G75*
G02*
X286072500Y-41705000I-147500J0D01*
G01*
X285727500Y-41705000D01*
G75*
G02*
X285580000Y-41557500I0J147500D01*
G01*
X285580000Y-41262500D01*
G75*
G02*
X285727500Y-41115000I147500J0D01*
G01*
G37*
G36*
G01*
X265652500Y-41635000D02*
X265307500Y-41635000D01*
G75*
G02*
X265160000Y-41487500I0J147500D01*
G01*
X265160000Y-41192500D01*
G75*
G02*
X265307500Y-41045000I147500J0D01*
G01*
X265652500Y-41045000D01*
G75*
G02*
X265800000Y-41192500I0J-147500D01*
G01*
X265800000Y-41487500D01*
G75*
G02*
X265652500Y-41635000I-147500J0D01*
G01*
G37*
G36*
G01*
X265652500Y-40665000D02*
X265307500Y-40665000D01*
G75*
G02*
X265160000Y-40517500I0J147500D01*
G01*
X265160000Y-40222500D01*
G75*
G02*
X265307500Y-40075000I147500J0D01*
G01*
X265652500Y-40075000D01*
G75*
G02*
X265800000Y-40222500I0J-147500D01*
G01*
X265800000Y-40517500D01*
G75*
G02*
X265652500Y-40665000I-147500J0D01*
G01*
G37*
G36*
G01*
X263780000Y-40197500D02*
X263780000Y-40542500D01*
G75*
G02*
X263632500Y-40690000I-147500J0D01*
G01*
X263337500Y-40690000D01*
G75*
G02*
X263190000Y-40542500I0J147500D01*
G01*
X263190000Y-40197500D01*
G75*
G02*
X263337500Y-40050000I147500J0D01*
G01*
X263632500Y-40050000D01*
G75*
G02*
X263780000Y-40197500I0J-147500D01*
G01*
G37*
G36*
G01*
X264750000Y-40197500D02*
X264750000Y-40542500D01*
G75*
G02*
X264602500Y-40690000I-147500J0D01*
G01*
X264307500Y-40690000D01*
G75*
G02*
X264160000Y-40542500I0J147500D01*
G01*
X264160000Y-40197500D01*
G75*
G02*
X264307500Y-40050000I147500J0D01*
G01*
X264602500Y-40050000D01*
G75*
G02*
X264750000Y-40197500I0J-147500D01*
G01*
G37*
D21*
X267880000Y-72220000D03*
X268380000Y-72220000D03*
X268880000Y-72220000D03*
X269380000Y-72220000D03*
X269380000Y-74620000D03*
X268880000Y-74620000D03*
X268380000Y-74620000D03*
X267880000Y-74620000D03*
D22*
G36*
X267830000Y-73520000D02*
G01*
X267830000Y-73420000D01*
X267930000Y-73320000D01*
X269430000Y-73320000D01*
X269430000Y-73520000D01*
X267830000Y-73520000D01*
G37*
G36*
G01*
X279810000Y-54710000D02*
X279470000Y-54710000D01*
G75*
G02*
X279330000Y-54570000I0J140000D01*
G01*
X279330000Y-54290000D01*
G75*
G02*
X279470000Y-54150000I140000J0D01*
G01*
X279810000Y-54150000D01*
G75*
G02*
X279950000Y-54290000I0J-140000D01*
G01*
X279950000Y-54570000D01*
G75*
G02*
X279810000Y-54710000I-140000J0D01*
G01*
G37*
G36*
G01*
X279810000Y-53750000D02*
X279470000Y-53750000D01*
G75*
G02*
X279330000Y-53610000I0J140000D01*
G01*
X279330000Y-53330000D01*
G75*
G02*
X279470000Y-53190000I140000J0D01*
G01*
X279810000Y-53190000D01*
G75*
G02*
X279950000Y-53330000I0J-140000D01*
G01*
X279950000Y-53610000D01*
G75*
G02*
X279810000Y-53750000I-140000J0D01*
G01*
G37*
G36*
G01*
X283350000Y-53750000D02*
X283010000Y-53750000D01*
G75*
G02*
X282870000Y-53610000I0J140000D01*
G01*
X282870000Y-53330000D01*
G75*
G02*
X283010000Y-53190000I140000J0D01*
G01*
X283350000Y-53190000D01*
G75*
G02*
X283490000Y-53330000I0J-140000D01*
G01*
X283490000Y-53610000D01*
G75*
G02*
X283350000Y-53750000I-140000J0D01*
G01*
G37*
G36*
G01*
X283350000Y-54710000D02*
X283010000Y-54710000D01*
G75*
G02*
X282870000Y-54570000I0J140000D01*
G01*
X282870000Y-54290000D01*
G75*
G02*
X283010000Y-54150000I140000J0D01*
G01*
X283350000Y-54150000D01*
G75*
G02*
X283490000Y-54290000I0J-140000D01*
G01*
X283490000Y-54570000D01*
G75*
G02*
X283350000Y-54710000I-140000J0D01*
G01*
G37*
D23*
X275240000Y-54180000D03*
X277140000Y-54180000D03*
X276190000Y-56180000D03*
G36*
G01*
X275510000Y-52635000D02*
X275510000Y-53005000D01*
G75*
G02*
X275375000Y-53140000I-135000J0D01*
G01*
X275105000Y-53140000D01*
G75*
G02*
X274970000Y-53005000I0J135000D01*
G01*
X274970000Y-52635000D01*
G75*
G02*
X275105000Y-52500000I135000J0D01*
G01*
X275375000Y-52500000D01*
G75*
G02*
X275510000Y-52635000I0J-135000D01*
G01*
G37*
G36*
G01*
X276530000Y-52635000D02*
X276530000Y-53005000D01*
G75*
G02*
X276395000Y-53140000I-135000J0D01*
G01*
X276125000Y-53140000D01*
G75*
G02*
X275990000Y-53005000I0J135000D01*
G01*
X275990000Y-52635000D01*
G75*
G02*
X276125000Y-52500000I135000J0D01*
G01*
X276395000Y-52500000D01*
G75*
G02*
X276530000Y-52635000I0J-135000D01*
G01*
G37*
G36*
G01*
X273696500Y-32839997D02*
X273696500Y-35740003D01*
G75*
G02*
X273446503Y-35990000I-249997J0D01*
G01*
X272821497Y-35990000D01*
G75*
G02*
X272571500Y-35740003I0J249997D01*
G01*
X272571500Y-32839997D01*
G75*
G02*
X272821497Y-32590000I249997J0D01*
G01*
X273446503Y-32590000D01*
G75*
G02*
X273696500Y-32839997I0J-249997D01*
G01*
G37*
G36*
G01*
X269421500Y-32839997D02*
X269421500Y-35740003D01*
G75*
G02*
X269171503Y-35990000I-249997J0D01*
G01*
X268546497Y-35990000D01*
G75*
G02*
X268296500Y-35740003I0J249997D01*
G01*
X268296500Y-32839997D01*
G75*
G02*
X268546497Y-32590000I249997J0D01*
G01*
X269171503Y-32590000D01*
G75*
G02*
X269421500Y-32839997I0J-249997D01*
G01*
G37*
D24*
X278300000Y-34030000D03*
X275000000Y-34030000D03*
G36*
G01*
X272934000Y-47529500D02*
X272934000Y-47730500D01*
G75*
G02*
X272854500Y-47810000I-79500J0D01*
G01*
X272695500Y-47810000D01*
G75*
G02*
X272616000Y-47730500I0J79500D01*
G01*
X272616000Y-47529500D01*
G75*
G02*
X272695500Y-47450000I79500J0D01*
G01*
X272854500Y-47450000D01*
G75*
G02*
X272934000Y-47529500I0J-79500D01*
G01*
G37*
G36*
G01*
X273624000Y-47529500D02*
X273624000Y-47730500D01*
G75*
G02*
X273544500Y-47810000I-79500J0D01*
G01*
X273385500Y-47810000D01*
G75*
G02*
X273306000Y-47730500I0J79500D01*
G01*
X273306000Y-47529500D01*
G75*
G02*
X273385500Y-47450000I79500J0D01*
G01*
X273544500Y-47450000D01*
G75*
G02*
X273624000Y-47529500I0J-79500D01*
G01*
G37*
G36*
G01*
X276293000Y-45111500D02*
X276293000Y-45312500D01*
G75*
G02*
X276213500Y-45392000I-79500J0D01*
G01*
X276054500Y-45392000D01*
G75*
G02*
X275975000Y-45312500I0J79500D01*
G01*
X275975000Y-45111500D01*
G75*
G02*
X276054500Y-45032000I79500J0D01*
G01*
X276213500Y-45032000D01*
G75*
G02*
X276293000Y-45111500I0J-79500D01*
G01*
G37*
G36*
G01*
X276983000Y-45111500D02*
X276983000Y-45312500D01*
G75*
G02*
X276903500Y-45392000I-79500J0D01*
G01*
X276744500Y-45392000D01*
G75*
G02*
X276665000Y-45312500I0J79500D01*
G01*
X276665000Y-45111500D01*
G75*
G02*
X276744500Y-45032000I79500J0D01*
G01*
X276903500Y-45032000D01*
G75*
G02*
X276983000Y-45111500I0J-79500D01*
G01*
G37*
G36*
G01*
X264954160Y-44304280D02*
X264753160Y-44304280D01*
G75*
G02*
X264673660Y-44224780I0J79500D01*
G01*
X264673660Y-44065780D01*
G75*
G02*
X264753160Y-43986280I79500J0D01*
G01*
X264954160Y-43986280D01*
G75*
G02*
X265033660Y-44065780I0J-79500D01*
G01*
X265033660Y-44224780D01*
G75*
G02*
X264954160Y-44304280I-79500J0D01*
G01*
G37*
G36*
G01*
X264954160Y-43614280D02*
X264753160Y-43614280D01*
G75*
G02*
X264673660Y-43534780I0J79500D01*
G01*
X264673660Y-43375780D01*
G75*
G02*
X264753160Y-43296280I79500J0D01*
G01*
X264954160Y-43296280D01*
G75*
G02*
X265033660Y-43375780I0J-79500D01*
G01*
X265033660Y-43534780D01*
G75*
G02*
X264954160Y-43614280I-79500J0D01*
G01*
G37*
G36*
G01*
X264991500Y-38896500D02*
X265192500Y-38896500D01*
G75*
G02*
X265272000Y-38976000I0J-79500D01*
G01*
X265272000Y-39135000D01*
G75*
G02*
X265192500Y-39214500I-79500J0D01*
G01*
X264991500Y-39214500D01*
G75*
G02*
X264912000Y-39135000I0J79500D01*
G01*
X264912000Y-38976000D01*
G75*
G02*
X264991500Y-38896500I79500J0D01*
G01*
G37*
G36*
G01*
X264991500Y-38206500D02*
X265192500Y-38206500D01*
G75*
G02*
X265272000Y-38286000I0J-79500D01*
G01*
X265272000Y-38445000D01*
G75*
G02*
X265192500Y-38524500I-79500J0D01*
G01*
X264991500Y-38524500D01*
G75*
G02*
X264912000Y-38445000I0J79500D01*
G01*
X264912000Y-38286000D01*
G75*
G02*
X264991500Y-38206500I79500J0D01*
G01*
G37*
G36*
G01*
X262664160Y-44294280D02*
X262463160Y-44294280D01*
G75*
G02*
X262383660Y-44214780I0J79500D01*
G01*
X262383660Y-44055780D01*
G75*
G02*
X262463160Y-43976280I79500J0D01*
G01*
X262664160Y-43976280D01*
G75*
G02*
X262743660Y-44055780I0J-79500D01*
G01*
X262743660Y-44214780D01*
G75*
G02*
X262664160Y-44294280I-79500J0D01*
G01*
G37*
G36*
G01*
X262664160Y-43604280D02*
X262463160Y-43604280D01*
G75*
G02*
X262383660Y-43524780I0J79500D01*
G01*
X262383660Y-43365780D01*
G75*
G02*
X262463160Y-43286280I79500J0D01*
G01*
X262664160Y-43286280D01*
G75*
G02*
X262743660Y-43365780I0J-79500D01*
G01*
X262743660Y-43524780D01*
G75*
G02*
X262664160Y-43604280I-79500J0D01*
G01*
G37*
G36*
G01*
X262705500Y-38896500D02*
X262906500Y-38896500D01*
G75*
G02*
X262986000Y-38976000I0J-79500D01*
G01*
X262986000Y-39135000D01*
G75*
G02*
X262906500Y-39214500I-79500J0D01*
G01*
X262705500Y-39214500D01*
G75*
G02*
X262626000Y-39135000I0J79500D01*
G01*
X262626000Y-38976000D01*
G75*
G02*
X262705500Y-38896500I79500J0D01*
G01*
G37*
G36*
G01*
X262705500Y-38206500D02*
X262906500Y-38206500D01*
G75*
G02*
X262986000Y-38286000I0J-79500D01*
G01*
X262986000Y-38445000D01*
G75*
G02*
X262906500Y-38524500I-79500J0D01*
G01*
X262705500Y-38524500D01*
G75*
G02*
X262626000Y-38445000I0J79500D01*
G01*
X262626000Y-38286000D01*
G75*
G02*
X262705500Y-38206500I79500J0D01*
G01*
G37*
G36*
G01*
X276029500Y-42102000D02*
X276230500Y-42102000D01*
G75*
G02*
X276310000Y-42181500I0J-79500D01*
G01*
X276310000Y-42340500D01*
G75*
G02*
X276230500Y-42420000I-79500J0D01*
G01*
X276029500Y-42420000D01*
G75*
G02*
X275950000Y-42340500I0J79500D01*
G01*
X275950000Y-42181500D01*
G75*
G02*
X276029500Y-42102000I79500J0D01*
G01*
G37*
G36*
G01*
X276029500Y-42792000D02*
X276230500Y-42792000D01*
G75*
G02*
X276310000Y-42871500I0J-79500D01*
G01*
X276310000Y-43030500D01*
G75*
G02*
X276230500Y-43110000I-79500J0D01*
G01*
X276029500Y-43110000D01*
G75*
G02*
X275950000Y-43030500I0J79500D01*
G01*
X275950000Y-42871500D01*
G75*
G02*
X276029500Y-42792000I79500J0D01*
G01*
G37*
G36*
G01*
X265835160Y-43317280D02*
X265835160Y-43518280D01*
G75*
G02*
X265755660Y-43597780I-79500J0D01*
G01*
X265596660Y-43597780D01*
G75*
G02*
X265517160Y-43518280I0J79500D01*
G01*
X265517160Y-43317280D01*
G75*
G02*
X265596660Y-43237780I79500J0D01*
G01*
X265755660Y-43237780D01*
G75*
G02*
X265835160Y-43317280I0J-79500D01*
G01*
G37*
G36*
G01*
X266525160Y-43317280D02*
X266525160Y-43518280D01*
G75*
G02*
X266445660Y-43597780I-79500J0D01*
G01*
X266286660Y-43597780D01*
G75*
G02*
X266207160Y-43518280I0J79500D01*
G01*
X266207160Y-43317280D01*
G75*
G02*
X266286660Y-43237780I79500J0D01*
G01*
X266445660Y-43237780D01*
G75*
G02*
X266525160Y-43317280I0J-79500D01*
G01*
G37*
G36*
G01*
X266744000Y-38249500D02*
X266744000Y-38450500D01*
G75*
G02*
X266664500Y-38530000I-79500J0D01*
G01*
X266505500Y-38530000D01*
G75*
G02*
X266426000Y-38450500I0J79500D01*
G01*
X266426000Y-38249500D01*
G75*
G02*
X266505500Y-38170000I79500J0D01*
G01*
X266664500Y-38170000D01*
G75*
G02*
X266744000Y-38249500I0J-79500D01*
G01*
G37*
G36*
G01*
X266054000Y-38249500D02*
X266054000Y-38450500D01*
G75*
G02*
X265974500Y-38530000I-79500J0D01*
G01*
X265815500Y-38530000D01*
G75*
G02*
X265736000Y-38450500I0J79500D01*
G01*
X265736000Y-38249500D01*
G75*
G02*
X265815500Y-38170000I79500J0D01*
G01*
X265974500Y-38170000D01*
G75*
G02*
X266054000Y-38249500I0J-79500D01*
G01*
G37*
G36*
G01*
X267324160Y-44294280D02*
X267123160Y-44294280D01*
G75*
G02*
X267043660Y-44214780I0J79500D01*
G01*
X267043660Y-44055780D01*
G75*
G02*
X267123160Y-43976280I79500J0D01*
G01*
X267324160Y-43976280D01*
G75*
G02*
X267403660Y-44055780I0J-79500D01*
G01*
X267403660Y-44214780D01*
G75*
G02*
X267324160Y-44294280I-79500J0D01*
G01*
G37*
G36*
G01*
X267324160Y-43604280D02*
X267123160Y-43604280D01*
G75*
G02*
X267043660Y-43524780I0J79500D01*
G01*
X267043660Y-43365780D01*
G75*
G02*
X267123160Y-43286280I79500J0D01*
G01*
X267324160Y-43286280D01*
G75*
G02*
X267403660Y-43365780I0J-79500D01*
G01*
X267403660Y-43524780D01*
G75*
G02*
X267324160Y-43604280I-79500J0D01*
G01*
G37*
G36*
G01*
X275460500Y-44584000D02*
X275259500Y-44584000D01*
G75*
G02*
X275180000Y-44504500I0J79500D01*
G01*
X275180000Y-44345500D01*
G75*
G02*
X275259500Y-44266000I79500J0D01*
G01*
X275460500Y-44266000D01*
G75*
G02*
X275540000Y-44345500I0J-79500D01*
G01*
X275540000Y-44504500D01*
G75*
G02*
X275460500Y-44584000I-79500J0D01*
G01*
G37*
G36*
G01*
X275460500Y-43894000D02*
X275259500Y-43894000D01*
G75*
G02*
X275180000Y-43814500I0J79500D01*
G01*
X275180000Y-43655500D01*
G75*
G02*
X275259500Y-43576000I79500J0D01*
G01*
X275460500Y-43576000D01*
G75*
G02*
X275540000Y-43655500I0J-79500D01*
G01*
X275540000Y-43814500D01*
G75*
G02*
X275460500Y-43894000I-79500J0D01*
G01*
G37*
G36*
G01*
X276184000Y-41369500D02*
X276184000Y-41570500D01*
G75*
G02*
X276104500Y-41650000I-79500J0D01*
G01*
X275945500Y-41650000D01*
G75*
G02*
X275866000Y-41570500I0J79500D01*
G01*
X275866000Y-41369500D01*
G75*
G02*
X275945500Y-41290000I79500J0D01*
G01*
X276104500Y-41290000D01*
G75*
G02*
X276184000Y-41369500I0J-79500D01*
G01*
G37*
G36*
G01*
X275494000Y-41369500D02*
X275494000Y-41570500D01*
G75*
G02*
X275414500Y-41650000I-79500J0D01*
G01*
X275255500Y-41650000D01*
G75*
G02*
X275176000Y-41570500I0J79500D01*
G01*
X275176000Y-41369500D01*
G75*
G02*
X275255500Y-41290000I79500J0D01*
G01*
X275414500Y-41290000D01*
G75*
G02*
X275494000Y-41369500I0J-79500D01*
G01*
G37*
G36*
G01*
X273769500Y-45746000D02*
X273970500Y-45746000D01*
G75*
G02*
X274050000Y-45825500I0J-79500D01*
G01*
X274050000Y-45984500D01*
G75*
G02*
X273970500Y-46064000I-79500J0D01*
G01*
X273769500Y-46064000D01*
G75*
G02*
X273690000Y-45984500I0J79500D01*
G01*
X273690000Y-45825500D01*
G75*
G02*
X273769500Y-45746000I79500J0D01*
G01*
G37*
G36*
G01*
X273769500Y-45056000D02*
X273970500Y-45056000D01*
G75*
G02*
X274050000Y-45135500I0J-79500D01*
G01*
X274050000Y-45294500D01*
G75*
G02*
X273970500Y-45374000I-79500J0D01*
G01*
X273769500Y-45374000D01*
G75*
G02*
X273690000Y-45294500I0J79500D01*
G01*
X273690000Y-45135500D01*
G75*
G02*
X273769500Y-45056000I79500J0D01*
G01*
G37*
G36*
G01*
X276184000Y-39069500D02*
X276184000Y-39270500D01*
G75*
G02*
X276104500Y-39350000I-79500J0D01*
G01*
X275945500Y-39350000D01*
G75*
G02*
X275866000Y-39270500I0J79500D01*
G01*
X275866000Y-39069500D01*
G75*
G02*
X275945500Y-38990000I79500J0D01*
G01*
X276104500Y-38990000D01*
G75*
G02*
X276184000Y-39069500I0J-79500D01*
G01*
G37*
G36*
G01*
X275494000Y-39069500D02*
X275494000Y-39270500D01*
G75*
G02*
X275414500Y-39350000I-79500J0D01*
G01*
X275255500Y-39350000D01*
G75*
G02*
X275176000Y-39270500I0J79500D01*
G01*
X275176000Y-39069500D01*
G75*
G02*
X275255500Y-38990000I79500J0D01*
G01*
X275414500Y-38990000D01*
G75*
G02*
X275494000Y-39069500I0J-79500D01*
G01*
G37*
G36*
G01*
X269799500Y-48596000D02*
X270000500Y-48596000D01*
G75*
G02*
X270080000Y-48675500I0J-79500D01*
G01*
X270080000Y-48834500D01*
G75*
G02*
X270000500Y-48914000I-79500J0D01*
G01*
X269799500Y-48914000D01*
G75*
G02*
X269720000Y-48834500I0J79500D01*
G01*
X269720000Y-48675500D01*
G75*
G02*
X269799500Y-48596000I79500J0D01*
G01*
G37*
G36*
G01*
X269799500Y-49286000D02*
X270000500Y-49286000D01*
G75*
G02*
X270080000Y-49365500I0J-79500D01*
G01*
X270080000Y-49524500D01*
G75*
G02*
X270000500Y-49604000I-79500J0D01*
G01*
X269799500Y-49604000D01*
G75*
G02*
X269720000Y-49524500I0J79500D01*
G01*
X269720000Y-49365500D01*
G75*
G02*
X269799500Y-49286000I79500J0D01*
G01*
G37*
G36*
G01*
X272979500Y-45746000D02*
X273180500Y-45746000D01*
G75*
G02*
X273260000Y-45825500I0J-79500D01*
G01*
X273260000Y-45984500D01*
G75*
G02*
X273180500Y-46064000I-79500J0D01*
G01*
X272979500Y-46064000D01*
G75*
G02*
X272900000Y-45984500I0J79500D01*
G01*
X272900000Y-45825500D01*
G75*
G02*
X272979500Y-45746000I79500J0D01*
G01*
G37*
G36*
G01*
X272979500Y-45056000D02*
X273180500Y-45056000D01*
G75*
G02*
X273260000Y-45135500I0J-79500D01*
G01*
X273260000Y-45294500D01*
G75*
G02*
X273180500Y-45374000I-79500J0D01*
G01*
X272979500Y-45374000D01*
G75*
G02*
X272900000Y-45294500I0J79500D01*
G01*
X272900000Y-45135500D01*
G75*
G02*
X272979500Y-45056000I79500J0D01*
G01*
G37*
G36*
G01*
X274479500Y-42786000D02*
X274680500Y-42786000D01*
G75*
G02*
X274760000Y-42865500I0J-79500D01*
G01*
X274760000Y-43024500D01*
G75*
G02*
X274680500Y-43104000I-79500J0D01*
G01*
X274479500Y-43104000D01*
G75*
G02*
X274400000Y-43024500I0J79500D01*
G01*
X274400000Y-42865500D01*
G75*
G02*
X274479500Y-42786000I79500J0D01*
G01*
G37*
G36*
G01*
X274479500Y-42096000D02*
X274680500Y-42096000D01*
G75*
G02*
X274760000Y-42175500I0J-79500D01*
G01*
X274760000Y-42334500D01*
G75*
G02*
X274680500Y-42414000I-79500J0D01*
G01*
X274479500Y-42414000D01*
G75*
G02*
X274400000Y-42334500I0J79500D01*
G01*
X274400000Y-42175500D01*
G75*
G02*
X274479500Y-42096000I79500J0D01*
G01*
G37*
G36*
G01*
X263201160Y-43548280D02*
X263201160Y-43347280D01*
G75*
G02*
X263280660Y-43267780I79500J0D01*
G01*
X263439660Y-43267780D01*
G75*
G02*
X263519160Y-43347280I0J-79500D01*
G01*
X263519160Y-43548280D01*
G75*
G02*
X263439660Y-43627780I-79500J0D01*
G01*
X263280660Y-43627780D01*
G75*
G02*
X263201160Y-43548280I0J79500D01*
G01*
G37*
G36*
G01*
X263891160Y-43548280D02*
X263891160Y-43347280D01*
G75*
G02*
X263970660Y-43267780I79500J0D01*
G01*
X264129660Y-43267780D01*
G75*
G02*
X264209160Y-43347280I0J-79500D01*
G01*
X264209160Y-43548280D01*
G75*
G02*
X264129660Y-43627780I-79500J0D01*
G01*
X263970660Y-43627780D01*
G75*
G02*
X263891160Y-43548280I0J79500D01*
G01*
G37*
G36*
G01*
X264141000Y-38450500D02*
X264141000Y-38249500D01*
G75*
G02*
X264220500Y-38170000I79500J0D01*
G01*
X264379500Y-38170000D01*
G75*
G02*
X264459000Y-38249500I0J-79500D01*
G01*
X264459000Y-38450500D01*
G75*
G02*
X264379500Y-38530000I-79500J0D01*
G01*
X264220500Y-38530000D01*
G75*
G02*
X264141000Y-38450500I0J79500D01*
G01*
G37*
G36*
G01*
X263451000Y-38450500D02*
X263451000Y-38249500D01*
G75*
G02*
X263530500Y-38170000I79500J0D01*
G01*
X263689500Y-38170000D01*
G75*
G02*
X263769000Y-38249500I0J-79500D01*
G01*
X263769000Y-38450500D01*
G75*
G02*
X263689500Y-38530000I-79500J0D01*
G01*
X263530500Y-38530000D01*
G75*
G02*
X263451000Y-38450500I0J79500D01*
G01*
G37*
G36*
G01*
X275604000Y-45869500D02*
X275604000Y-46070500D01*
G75*
G02*
X275524500Y-46150000I-79500J0D01*
G01*
X275365500Y-46150000D01*
G75*
G02*
X275286000Y-46070500I0J79500D01*
G01*
X275286000Y-45869500D01*
G75*
G02*
X275365500Y-45790000I79500J0D01*
G01*
X275524500Y-45790000D01*
G75*
G02*
X275604000Y-45869500I0J-79500D01*
G01*
G37*
G36*
G01*
X276294000Y-45869500D02*
X276294000Y-46070500D01*
G75*
G02*
X276214500Y-46150000I-79500J0D01*
G01*
X276055500Y-46150000D01*
G75*
G02*
X275976000Y-46070500I0J79500D01*
G01*
X275976000Y-45869500D01*
G75*
G02*
X276055500Y-45790000I79500J0D01*
G01*
X276214500Y-45790000D01*
G75*
G02*
X276294000Y-45869500I0J-79500D01*
G01*
G37*
G36*
G01*
X277684000Y-41365000D02*
X277684000Y-41566000D01*
G75*
G02*
X277604500Y-41645500I-79500J0D01*
G01*
X277445500Y-41645500D01*
G75*
G02*
X277366000Y-41566000I0J79500D01*
G01*
X277366000Y-41365000D01*
G75*
G02*
X277445500Y-41285500I79500J0D01*
G01*
X277604500Y-41285500D01*
G75*
G02*
X277684000Y-41365000I0J-79500D01*
G01*
G37*
G36*
G01*
X276994000Y-41365000D02*
X276994000Y-41566000D01*
G75*
G02*
X276914500Y-41645500I-79500J0D01*
G01*
X276755500Y-41645500D01*
G75*
G02*
X276676000Y-41566000I0J79500D01*
G01*
X276676000Y-41365000D01*
G75*
G02*
X276755500Y-41285500I79500J0D01*
G01*
X276914500Y-41285500D01*
G75*
G02*
X276994000Y-41365000I0J-79500D01*
G01*
G37*
G36*
G01*
X276089500Y-46586000D02*
X276290500Y-46586000D01*
G75*
G02*
X276370000Y-46665500I0J-79500D01*
G01*
X276370000Y-46824500D01*
G75*
G02*
X276290500Y-46904000I-79500J0D01*
G01*
X276089500Y-46904000D01*
G75*
G02*
X276010000Y-46824500I0J79500D01*
G01*
X276010000Y-46665500D01*
G75*
G02*
X276089500Y-46586000I79500J0D01*
G01*
G37*
G36*
G01*
X276089500Y-47276000D02*
X276290500Y-47276000D01*
G75*
G02*
X276370000Y-47355500I0J-79500D01*
G01*
X276370000Y-47514500D01*
G75*
G02*
X276290500Y-47594000I-79500J0D01*
G01*
X276089500Y-47594000D01*
G75*
G02*
X276010000Y-47514500I0J79500D01*
G01*
X276010000Y-47355500D01*
G75*
G02*
X276089500Y-47276000I79500J0D01*
G01*
G37*
G36*
G01*
X275279500Y-46586000D02*
X275480500Y-46586000D01*
G75*
G02*
X275560000Y-46665500I0J-79500D01*
G01*
X275560000Y-46824500D01*
G75*
G02*
X275480500Y-46904000I-79500J0D01*
G01*
X275279500Y-46904000D01*
G75*
G02*
X275200000Y-46824500I0J79500D01*
G01*
X275200000Y-46665500D01*
G75*
G02*
X275279500Y-46586000I79500J0D01*
G01*
G37*
G36*
G01*
X275279500Y-47276000D02*
X275480500Y-47276000D01*
G75*
G02*
X275560000Y-47355500I0J-79500D01*
G01*
X275560000Y-47514500D01*
G75*
G02*
X275480500Y-47594000I-79500J0D01*
G01*
X275279500Y-47594000D01*
G75*
G02*
X275200000Y-47514500I0J79500D01*
G01*
X275200000Y-47355500D01*
G75*
G02*
X275279500Y-47276000I79500J0D01*
G01*
G37*
G36*
G01*
X274830000Y-45111500D02*
X274830000Y-45312500D01*
G75*
G02*
X274750500Y-45392000I-79500J0D01*
G01*
X274591500Y-45392000D01*
G75*
G02*
X274512000Y-45312500I0J79500D01*
G01*
X274512000Y-45111500D01*
G75*
G02*
X274591500Y-45032000I79500J0D01*
G01*
X274750500Y-45032000D01*
G75*
G02*
X274830000Y-45111500I0J-79500D01*
G01*
G37*
G36*
G01*
X275520000Y-45111500D02*
X275520000Y-45312500D01*
G75*
G02*
X275440500Y-45392000I-79500J0D01*
G01*
X275281500Y-45392000D01*
G75*
G02*
X275202000Y-45312500I0J79500D01*
G01*
X275202000Y-45111500D01*
G75*
G02*
X275281500Y-45032000I79500J0D01*
G01*
X275440500Y-45032000D01*
G75*
G02*
X275520000Y-45111500I0J-79500D01*
G01*
G37*
G36*
G01*
X276029500Y-44266000D02*
X276230500Y-44266000D01*
G75*
G02*
X276310000Y-44345500I0J-79500D01*
G01*
X276310000Y-44504500D01*
G75*
G02*
X276230500Y-44584000I-79500J0D01*
G01*
X276029500Y-44584000D01*
G75*
G02*
X275950000Y-44504500I0J79500D01*
G01*
X275950000Y-44345500D01*
G75*
G02*
X276029500Y-44266000I79500J0D01*
G01*
G37*
G36*
G01*
X276029500Y-43576000D02*
X276230500Y-43576000D01*
G75*
G02*
X276310000Y-43655500I0J-79500D01*
G01*
X276310000Y-43814500D01*
G75*
G02*
X276230500Y-43894000I-79500J0D01*
G01*
X276029500Y-43894000D01*
G75*
G02*
X275950000Y-43814500I0J79500D01*
G01*
X275950000Y-43655500D01*
G75*
G02*
X276029500Y-43576000I79500J0D01*
G01*
G37*
G36*
G01*
X275259500Y-42096000D02*
X275460500Y-42096000D01*
G75*
G02*
X275540000Y-42175500I0J-79500D01*
G01*
X275540000Y-42334500D01*
G75*
G02*
X275460500Y-42414000I-79500J0D01*
G01*
X275259500Y-42414000D01*
G75*
G02*
X275180000Y-42334500I0J79500D01*
G01*
X275180000Y-42175500D01*
G75*
G02*
X275259500Y-42096000I79500J0D01*
G01*
G37*
G36*
G01*
X275259500Y-42786000D02*
X275460500Y-42786000D01*
G75*
G02*
X275540000Y-42865500I0J-79500D01*
G01*
X275540000Y-43024500D01*
G75*
G02*
X275460500Y-43104000I-79500J0D01*
G01*
X275259500Y-43104000D01*
G75*
G02*
X275180000Y-43024500I0J79500D01*
G01*
X275180000Y-42865500D01*
G75*
G02*
X275259500Y-42786000I79500J0D01*
G01*
G37*
G36*
G01*
X266304160Y-43247280D02*
X266505160Y-43247280D01*
G75*
G02*
X266584660Y-43326780I0J-79500D01*
G01*
X266584660Y-43485780D01*
G75*
G02*
X266505160Y-43565280I-79500J0D01*
G01*
X266304160Y-43565280D01*
G75*
G02*
X266224660Y-43485780I0J79500D01*
G01*
X266224660Y-43326780D01*
G75*
G02*
X266304160Y-43247280I79500J0D01*
G01*
G37*
G36*
G01*
X266304160Y-42557280D02*
X266505160Y-42557280D01*
G75*
G02*
X266584660Y-42636780I0J-79500D01*
G01*
X266584660Y-42795780D01*
G75*
G02*
X266505160Y-42875280I-79500J0D01*
G01*
X266304160Y-42875280D01*
G75*
G02*
X266224660Y-42795780I0J79500D01*
G01*
X266224660Y-42636780D01*
G75*
G02*
X266304160Y-42557280I79500J0D01*
G01*
G37*
G36*
G01*
X275259500Y-39826000D02*
X275460500Y-39826000D01*
G75*
G02*
X275540000Y-39905500I0J-79500D01*
G01*
X275540000Y-40064500D01*
G75*
G02*
X275460500Y-40144000I-79500J0D01*
G01*
X275259500Y-40144000D01*
G75*
G02*
X275180000Y-40064500I0J79500D01*
G01*
X275180000Y-39905500D01*
G75*
G02*
X275259500Y-39826000I79500J0D01*
G01*
G37*
G36*
G01*
X275259500Y-40516000D02*
X275460500Y-40516000D01*
G75*
G02*
X275540000Y-40595500I0J-79500D01*
G01*
X275540000Y-40754500D01*
G75*
G02*
X275460500Y-40834000I-79500J0D01*
G01*
X275259500Y-40834000D01*
G75*
G02*
X275180000Y-40754500I0J79500D01*
G01*
X275180000Y-40595500D01*
G75*
G02*
X275259500Y-40516000I79500J0D01*
G01*
G37*
D25*
X268700001Y-38385300D03*
X269100000Y-38385300D03*
X269500000Y-38385300D03*
X269899999Y-38385300D03*
X269899999Y-39934700D03*
X269500000Y-39934700D03*
X269100000Y-39934700D03*
X268700001Y-39934700D03*
D26*
X269300000Y-39160000D03*
M02*
