G04 #@! TF.GenerationSoftware,KiCad,Pcbnew,(5.1.10)-1*
G04 #@! TF.CreationDate,2021-07-14T14:20:25+08:00*
G04 #@! TF.ProjectId,BeagleConnect Freedom,42656167-6c65-4436-9f6e-6e6563742046,B*
G04 #@! TF.SameCoordinates,Original*
G04 #@! TF.FileFunction,Legend,Top*
G04 #@! TF.FilePolarity,Positive*
%FSLAX46Y46*%
G04 Gerber Fmt 4.6, Leading zero omitted, Abs format (unit mm)*
G04 Created by KiCad (PCBNEW (5.1.10)-1) date 2021-07-14 14:20:25*
%MOMM*%
%LPD*%
G01*
G04 APERTURE LIST*
%ADD10C,0.150000*%
%ADD11C,0.120000*%
G04 #@! TA.AperFunction,Profile*
%ADD12C,0.050000*%
G04 #@! TD*
%ADD13C,0.080000*%
%ADD14C,0.100000*%
G04 APERTURE END LIST*
D10*
X280352857Y-79418571D02*
X280495714Y-79466190D01*
X280543333Y-79513809D01*
X280590952Y-79609047D01*
X280590952Y-79751904D01*
X280543333Y-79847142D01*
X280495714Y-79894761D01*
X280400476Y-79942380D01*
X280019523Y-79942380D01*
X280019523Y-78942380D01*
X280352857Y-78942380D01*
X280448095Y-78990000D01*
X280495714Y-79037619D01*
X280543333Y-79132857D01*
X280543333Y-79228095D01*
X280495714Y-79323333D01*
X280448095Y-79370952D01*
X280352857Y-79418571D01*
X280019523Y-79418571D01*
X281210000Y-78942380D02*
X281400476Y-78942380D01*
X281495714Y-78990000D01*
X281590952Y-79085238D01*
X281638571Y-79275714D01*
X281638571Y-79609047D01*
X281590952Y-79799523D01*
X281495714Y-79894761D01*
X281400476Y-79942380D01*
X281210000Y-79942380D01*
X281114761Y-79894761D01*
X281019523Y-79799523D01*
X280971904Y-79609047D01*
X280971904Y-79275714D01*
X281019523Y-79085238D01*
X281114761Y-78990000D01*
X281210000Y-78942380D01*
X282257619Y-78942380D02*
X282448095Y-78942380D01*
X282543333Y-78990000D01*
X282638571Y-79085238D01*
X282686190Y-79275714D01*
X282686190Y-79609047D01*
X282638571Y-79799523D01*
X282543333Y-79894761D01*
X282448095Y-79942380D01*
X282257619Y-79942380D01*
X282162380Y-79894761D01*
X282067142Y-79799523D01*
X282019523Y-79609047D01*
X282019523Y-79275714D01*
X282067142Y-79085238D01*
X282162380Y-78990000D01*
X282257619Y-78942380D01*
X282971904Y-78942380D02*
X283543333Y-78942380D01*
X283257619Y-79942380D02*
X283257619Y-78942380D01*
X266182380Y-79952380D02*
X265849047Y-79476190D01*
X265610952Y-79952380D02*
X265610952Y-78952380D01*
X265991904Y-78952380D01*
X266087142Y-79000000D01*
X266134761Y-79047619D01*
X266182380Y-79142857D01*
X266182380Y-79285714D01*
X266134761Y-79380952D01*
X266087142Y-79428571D01*
X265991904Y-79476190D01*
X265610952Y-79476190D01*
X266563333Y-79904761D02*
X266706190Y-79952380D01*
X266944285Y-79952380D01*
X267039523Y-79904761D01*
X267087142Y-79857142D01*
X267134761Y-79761904D01*
X267134761Y-79666666D01*
X267087142Y-79571428D01*
X267039523Y-79523809D01*
X266944285Y-79476190D01*
X266753809Y-79428571D01*
X266658571Y-79380952D01*
X266610952Y-79333333D01*
X266563333Y-79238095D01*
X266563333Y-79142857D01*
X266610952Y-79047619D01*
X266658571Y-79000000D01*
X266753809Y-78952380D01*
X266991904Y-78952380D01*
X267134761Y-79000000D01*
X267420476Y-78952380D02*
X267991904Y-78952380D01*
X267706190Y-79952380D02*
X267706190Y-78952380D01*
X261532857Y-51822380D02*
X261199523Y-51346190D01*
X260961428Y-51822380D02*
X260961428Y-50822380D01*
X261342380Y-50822380D01*
X261437619Y-50870000D01*
X261485238Y-50917619D01*
X261532857Y-51012857D01*
X261532857Y-51155714D01*
X261485238Y-51250952D01*
X261437619Y-51298571D01*
X261342380Y-51346190D01*
X260961428Y-51346190D01*
X262342380Y-51774761D02*
X262247142Y-51822380D01*
X262056666Y-51822380D01*
X261961428Y-51774761D01*
X261913809Y-51679523D01*
X261913809Y-51298571D01*
X261961428Y-51203333D01*
X262056666Y-51155714D01*
X262247142Y-51155714D01*
X262342380Y-51203333D01*
X262390000Y-51298571D01*
X262390000Y-51393809D01*
X261913809Y-51489047D01*
X262723333Y-51155714D02*
X262961428Y-51822380D01*
X263199523Y-51155714D01*
X264913809Y-51727142D02*
X264866190Y-51774761D01*
X264723333Y-51822380D01*
X264628095Y-51822380D01*
X264485238Y-51774761D01*
X264390000Y-51679523D01*
X264342380Y-51584285D01*
X264294761Y-51393809D01*
X264294761Y-51250952D01*
X264342380Y-51060476D01*
X264390000Y-50965238D01*
X264485238Y-50870000D01*
X264628095Y-50822380D01*
X264723333Y-50822380D01*
X264866190Y-50870000D01*
X264913809Y-50917619D01*
X265770952Y-51155714D02*
X265770952Y-51822380D01*
X265532857Y-50774761D02*
X265294761Y-51489047D01*
X265913809Y-51489047D01*
X261320000Y-49448571D02*
X261462857Y-49496190D01*
X261510476Y-49543809D01*
X261558095Y-49639047D01*
X261558095Y-49781904D01*
X261510476Y-49877142D01*
X261462857Y-49924761D01*
X261367619Y-49972380D01*
X260986666Y-49972380D01*
X260986666Y-48972380D01*
X261320000Y-48972380D01*
X261415238Y-49020000D01*
X261462857Y-49067619D01*
X261510476Y-49162857D01*
X261510476Y-49258095D01*
X261462857Y-49353333D01*
X261415238Y-49400952D01*
X261320000Y-49448571D01*
X260986666Y-49448571D01*
X262367619Y-49924761D02*
X262272380Y-49972380D01*
X262081904Y-49972380D01*
X261986666Y-49924761D01*
X261939047Y-49829523D01*
X261939047Y-49448571D01*
X261986666Y-49353333D01*
X262081904Y-49305714D01*
X262272380Y-49305714D01*
X262367619Y-49353333D01*
X262415238Y-49448571D01*
X262415238Y-49543809D01*
X261939047Y-49639047D01*
X263272380Y-49972380D02*
X263272380Y-49448571D01*
X263224761Y-49353333D01*
X263129523Y-49305714D01*
X262939047Y-49305714D01*
X262843809Y-49353333D01*
X263272380Y-49924761D02*
X263177142Y-49972380D01*
X262939047Y-49972380D01*
X262843809Y-49924761D01*
X262796190Y-49829523D01*
X262796190Y-49734285D01*
X262843809Y-49639047D01*
X262939047Y-49591428D01*
X263177142Y-49591428D01*
X263272380Y-49543809D01*
X264177142Y-49305714D02*
X264177142Y-50115238D01*
X264129523Y-50210476D01*
X264081904Y-50258095D01*
X263986666Y-50305714D01*
X263843809Y-50305714D01*
X263748571Y-50258095D01*
X264177142Y-49924761D02*
X264081904Y-49972380D01*
X263891428Y-49972380D01*
X263796190Y-49924761D01*
X263748571Y-49877142D01*
X263700952Y-49781904D01*
X263700952Y-49496190D01*
X263748571Y-49400952D01*
X263796190Y-49353333D01*
X263891428Y-49305714D01*
X264081904Y-49305714D01*
X264177142Y-49353333D01*
X264796190Y-49972380D02*
X264700952Y-49924761D01*
X264653333Y-49829523D01*
X264653333Y-48972380D01*
X265558095Y-49924761D02*
X265462857Y-49972380D01*
X265272380Y-49972380D01*
X265177142Y-49924761D01*
X265129523Y-49829523D01*
X265129523Y-49448571D01*
X265177142Y-49353333D01*
X265272380Y-49305714D01*
X265462857Y-49305714D01*
X265558095Y-49353333D01*
X265605714Y-49448571D01*
X265605714Y-49543809D01*
X265129523Y-49639047D01*
X266605714Y-49877142D02*
X266558095Y-49924761D01*
X266415238Y-49972380D01*
X266320000Y-49972380D01*
X266177142Y-49924761D01*
X266081904Y-49829523D01*
X266034285Y-49734285D01*
X265986666Y-49543809D01*
X265986666Y-49400952D01*
X266034285Y-49210476D01*
X266081904Y-49115238D01*
X266177142Y-49020000D01*
X266320000Y-48972380D01*
X266415238Y-48972380D01*
X266558095Y-49020000D01*
X266605714Y-49067619D01*
X267177142Y-49972380D02*
X267081904Y-49924761D01*
X267034285Y-49877142D01*
X266986666Y-49781904D01*
X266986666Y-49496190D01*
X267034285Y-49400952D01*
X267081904Y-49353333D01*
X267177142Y-49305714D01*
X267320000Y-49305714D01*
X267415238Y-49353333D01*
X267462857Y-49400952D01*
X267510476Y-49496190D01*
X267510476Y-49781904D01*
X267462857Y-49877142D01*
X267415238Y-49924761D01*
X267320000Y-49972380D01*
X267177142Y-49972380D01*
X267939047Y-49305714D02*
X267939047Y-49972380D01*
X267939047Y-49400952D02*
X267986666Y-49353333D01*
X268081904Y-49305714D01*
X268224761Y-49305714D01*
X268320000Y-49353333D01*
X268367619Y-49448571D01*
X268367619Y-49972380D01*
X268843809Y-49305714D02*
X268843809Y-49972380D01*
X268843809Y-49400952D02*
X268891428Y-49353333D01*
X268986666Y-49305714D01*
X269129523Y-49305714D01*
X269224761Y-49353333D01*
X269272380Y-49448571D01*
X269272380Y-49972380D01*
X270129523Y-49924761D02*
X270034285Y-49972380D01*
X269843809Y-49972380D01*
X269748571Y-49924761D01*
X269700952Y-49829523D01*
X269700952Y-49448571D01*
X269748571Y-49353333D01*
X269843809Y-49305714D01*
X270034285Y-49305714D01*
X270129523Y-49353333D01*
X270177142Y-49448571D01*
X270177142Y-49543809D01*
X269700952Y-49639047D01*
X271034285Y-49924761D02*
X270939047Y-49972380D01*
X270748571Y-49972380D01*
X270653333Y-49924761D01*
X270605714Y-49877142D01*
X270558095Y-49781904D01*
X270558095Y-49496190D01*
X270605714Y-49400952D01*
X270653333Y-49353333D01*
X270748571Y-49305714D01*
X270939047Y-49305714D01*
X271034285Y-49353333D01*
X271320000Y-49305714D02*
X271700952Y-49305714D01*
X271462857Y-48972380D02*
X271462857Y-49829523D01*
X271510476Y-49924761D01*
X271605714Y-49972380D01*
X271700952Y-49972380D01*
X273129523Y-49448571D02*
X272796190Y-49448571D01*
X272796190Y-49972380D02*
X272796190Y-48972380D01*
X273272380Y-48972380D01*
X273653333Y-49972380D02*
X273653333Y-49305714D01*
X273653333Y-49496190D02*
X273700952Y-49400952D01*
X273748571Y-49353333D01*
X273843809Y-49305714D01*
X273939047Y-49305714D01*
X274653333Y-49924761D02*
X274558095Y-49972380D01*
X274367619Y-49972380D01*
X274272380Y-49924761D01*
X274224761Y-49829523D01*
X274224761Y-49448571D01*
X274272380Y-49353333D01*
X274367619Y-49305714D01*
X274558095Y-49305714D01*
X274653333Y-49353333D01*
X274700952Y-49448571D01*
X274700952Y-49543809D01*
X274224761Y-49639047D01*
X275510476Y-49924761D02*
X275415238Y-49972380D01*
X275224761Y-49972380D01*
X275129523Y-49924761D01*
X275081904Y-49829523D01*
X275081904Y-49448571D01*
X275129523Y-49353333D01*
X275224761Y-49305714D01*
X275415238Y-49305714D01*
X275510476Y-49353333D01*
X275558095Y-49448571D01*
X275558095Y-49543809D01*
X275081904Y-49639047D01*
X276415238Y-49972380D02*
X276415238Y-48972380D01*
X276415238Y-49924761D02*
X276320000Y-49972380D01*
X276129523Y-49972380D01*
X276034285Y-49924761D01*
X275986666Y-49877142D01*
X275939047Y-49781904D01*
X275939047Y-49496190D01*
X275986666Y-49400952D01*
X276034285Y-49353333D01*
X276129523Y-49305714D01*
X276320000Y-49305714D01*
X276415238Y-49353333D01*
X277034285Y-49972380D02*
X276939047Y-49924761D01*
X276891428Y-49877142D01*
X276843809Y-49781904D01*
X276843809Y-49496190D01*
X276891428Y-49400952D01*
X276939047Y-49353333D01*
X277034285Y-49305714D01*
X277177142Y-49305714D01*
X277272380Y-49353333D01*
X277320000Y-49400952D01*
X277367619Y-49496190D01*
X277367619Y-49781904D01*
X277320000Y-49877142D01*
X277272380Y-49924761D01*
X277177142Y-49972380D01*
X277034285Y-49972380D01*
X277796190Y-49972380D02*
X277796190Y-49305714D01*
X277796190Y-49400952D02*
X277843809Y-49353333D01*
X277939047Y-49305714D01*
X278081904Y-49305714D01*
X278177142Y-49353333D01*
X278224761Y-49448571D01*
X278224761Y-49972380D01*
X278224761Y-49448571D02*
X278272380Y-49353333D01*
X278367619Y-49305714D01*
X278510476Y-49305714D01*
X278605714Y-49353333D01*
X278653333Y-49448571D01*
X278653333Y-49972380D01*
X261514761Y-48027142D02*
X261467142Y-48074761D01*
X261324285Y-48122380D01*
X261229047Y-48122380D01*
X261086190Y-48074761D01*
X260990952Y-47979523D01*
X260943333Y-47884285D01*
X260895714Y-47693809D01*
X260895714Y-47550952D01*
X260943333Y-47360476D01*
X260990952Y-47265238D01*
X261086190Y-47170000D01*
X261229047Y-47122380D01*
X261324285Y-47122380D01*
X261467142Y-47170000D01*
X261514761Y-47217619D01*
X262514761Y-48027142D02*
X262467142Y-48074761D01*
X262324285Y-48122380D01*
X262229047Y-48122380D01*
X262086190Y-48074761D01*
X261990952Y-47979523D01*
X261943333Y-47884285D01*
X261895714Y-47693809D01*
X261895714Y-47550952D01*
X261943333Y-47360476D01*
X261990952Y-47265238D01*
X262086190Y-47170000D01*
X262229047Y-47122380D01*
X262324285Y-47122380D01*
X262467142Y-47170000D01*
X262514761Y-47217619D01*
X263467142Y-48122380D02*
X262895714Y-48122380D01*
X263181428Y-48122380D02*
X263181428Y-47122380D01*
X263086190Y-47265238D01*
X262990952Y-47360476D01*
X262895714Y-47408095D01*
X263800476Y-47122380D02*
X264419523Y-47122380D01*
X264086190Y-47503333D01*
X264229047Y-47503333D01*
X264324285Y-47550952D01*
X264371904Y-47598571D01*
X264419523Y-47693809D01*
X264419523Y-47931904D01*
X264371904Y-48027142D01*
X264324285Y-48074761D01*
X264229047Y-48122380D01*
X263943333Y-48122380D01*
X263848095Y-48074761D01*
X263800476Y-48027142D01*
X265324285Y-47122380D02*
X264848095Y-47122380D01*
X264800476Y-47598571D01*
X264848095Y-47550952D01*
X264943333Y-47503333D01*
X265181428Y-47503333D01*
X265276666Y-47550952D01*
X265324285Y-47598571D01*
X265371904Y-47693809D01*
X265371904Y-47931904D01*
X265324285Y-48027142D01*
X265276666Y-48074761D01*
X265181428Y-48122380D01*
X264943333Y-48122380D01*
X264848095Y-48074761D01*
X264800476Y-48027142D01*
X265752857Y-47217619D02*
X265800476Y-47170000D01*
X265895714Y-47122380D01*
X266133809Y-47122380D01*
X266229047Y-47170000D01*
X266276666Y-47217619D01*
X266324285Y-47312857D01*
X266324285Y-47408095D01*
X266276666Y-47550952D01*
X265705238Y-48122380D01*
X266324285Y-48122380D01*
X266752857Y-48122380D02*
X266752857Y-47122380D01*
X267133809Y-47122380D01*
X267229047Y-47170000D01*
X267276666Y-47217619D01*
X267324285Y-47312857D01*
X267324285Y-47455714D01*
X267276666Y-47550952D01*
X267229047Y-47598571D01*
X267133809Y-47646190D01*
X266752857Y-47646190D01*
D11*
X278022111Y-67590000D02*
G75*
G03*
X278022111Y-67590000I-72111J0D01*
G01*
D12*
X291863382Y-48158779D02*
X291863382Y-46158779D01*
X291863382Y-48158779D02*
G75*
G02*
X291363382Y-48658779I-500000J0D01*
G01*
X289863382Y-48658779D02*
X291363382Y-48658779D01*
X289363382Y-49158779D02*
G75*
G02*
X289863382Y-48658779I500000J0D01*
G01*
X289363382Y-49658779D02*
X289363382Y-49158779D01*
X289863382Y-50158779D02*
G75*
G02*
X289363382Y-49658779I0J500000D01*
G01*
X291363382Y-50158779D02*
X289863382Y-50158779D01*
X291363382Y-50158779D02*
G75*
G02*
X291863382Y-50658779I0J-500000D01*
G01*
X291863382Y-52158779D02*
X291863382Y-50658779D01*
X291863382Y-52158779D02*
G75*
G02*
X291363382Y-52658779I-500000J0D01*
G01*
X289863382Y-52658779D02*
X291363382Y-52658779D01*
X289363382Y-53158779D02*
G75*
G02*
X289863382Y-52658779I500000J0D01*
G01*
X289363382Y-53658779D02*
X289363382Y-53158779D01*
X289863382Y-54158779D02*
G75*
G02*
X289363382Y-53658779I0J500000D01*
G01*
X291363382Y-54158779D02*
X289863382Y-54158779D01*
X291363382Y-54158779D02*
G75*
G02*
X291863382Y-54658779I0J-500000D01*
G01*
X291863382Y-56158779D02*
X291863382Y-54658779D01*
X291863382Y-56158779D02*
G75*
G02*
X291363382Y-56658779I-500000J0D01*
G01*
X289863382Y-56658779D02*
X291363382Y-56658779D01*
X289363382Y-57158779D02*
G75*
G02*
X289863382Y-56658779I500000J0D01*
G01*
X289363382Y-57658779D02*
X289363382Y-57158779D01*
X289863382Y-58158779D02*
G75*
G02*
X289363382Y-57658779I0J500000D01*
G01*
X291363382Y-58158779D02*
X289863382Y-58158779D01*
X291363382Y-58158779D02*
G75*
G02*
X291863382Y-58658779I0J-500000D01*
G01*
X291863382Y-60158779D02*
X291863382Y-58658779D01*
X291863382Y-60158779D02*
G75*
G02*
X291363382Y-60658779I-500000J0D01*
G01*
X289863382Y-60658779D02*
X291363382Y-60658779D01*
X289363382Y-61158779D02*
G75*
G02*
X289863382Y-60658779I500000J0D01*
G01*
X289363382Y-61658779D02*
X289363382Y-61158779D01*
X289863382Y-62158779D02*
G75*
G02*
X289363382Y-61658779I0J500000D01*
G01*
X291363382Y-62158779D02*
X289863382Y-62158779D01*
X291363382Y-62158779D02*
G75*
G02*
X291863382Y-62658779I0J-500000D01*
G01*
X291863382Y-64158779D02*
X291863382Y-62658779D01*
X291863382Y-64158779D02*
G75*
G02*
X291363382Y-64658779I-500000J0D01*
G01*
X289863382Y-64658779D02*
X291363382Y-64658779D01*
X289363382Y-65158779D02*
G75*
G02*
X289863382Y-64658779I500000J0D01*
G01*
X289363382Y-65658779D02*
X289363382Y-65158779D01*
X289863382Y-66158779D02*
G75*
G02*
X289363382Y-65658779I0J500000D01*
G01*
X290863382Y-66158779D02*
X289863382Y-66158779D01*
X290863382Y-66158779D02*
G75*
G02*
X291363382Y-66658779I0J-500000D01*
G01*
X291363382Y-67708779D02*
X291363382Y-66658779D01*
X291363382Y-67708779D02*
G75*
G02*
X290863382Y-68208779I-500000J0D01*
G01*
X288713382Y-68208779D02*
X290863382Y-68208779D01*
X288463382Y-68458779D02*
G75*
G02*
X288713382Y-68208779I250000J0D01*
G01*
X288463382Y-69008779D02*
X288463382Y-68458779D01*
X288963382Y-69008779D02*
G75*
G02*
X288463382Y-69008779I-250000J0D01*
G01*
X288963382Y-68708779D02*
X288963382Y-69008779D01*
X290863382Y-68708779D02*
X288963382Y-68708779D01*
X290863382Y-68708779D02*
G75*
G02*
X291363382Y-69208779I0J-500000D01*
G01*
X291363382Y-70608779D02*
X291363382Y-69208779D01*
X291363382Y-70608779D02*
G75*
G02*
X290863382Y-71108779I-500000J0D01*
G01*
X288963382Y-71108779D02*
X290863382Y-71108779D01*
X288963382Y-70808779D02*
X288963382Y-71108779D01*
X288463382Y-70808779D02*
G75*
G02*
X288963382Y-70808779I250000J0D01*
G01*
X288463382Y-71358779D02*
X288463382Y-70808779D01*
X288713382Y-71608779D02*
G75*
G02*
X288463382Y-71358779I0J250000D01*
G01*
X290863382Y-71608779D02*
X288713382Y-71608779D01*
X290863382Y-71608779D02*
G75*
G02*
X291363382Y-72108779I0J-500000D01*
G01*
X291363382Y-73408779D02*
X291363382Y-72108779D01*
X291530049Y-73781457D02*
G75*
G02*
X291363382Y-73408779I333333J372678D01*
G01*
X291530049Y-73781457D02*
G75*
G02*
X291863382Y-74526813I-666667J-745356D01*
G01*
X291863382Y-76408779D02*
X291863382Y-74526813D01*
X291863381Y-76408779D02*
G75*
G02*
X286736109Y-82344968I-5999999J0D01*
G01*
X286736109Y-82344968D02*
G75*
G02*
X286163382Y-81850286I-72727J494682D01*
G01*
X286163382Y-81408779D02*
X286163382Y-81850286D01*
X285663382Y-80908779D02*
G75*
G02*
X286163382Y-81408779I0J-500000D01*
G01*
X285063382Y-80908779D02*
X285663382Y-80908779D01*
X284563382Y-81408779D02*
G75*
G02*
X285063382Y-80908779I500000J0D01*
G01*
X284563382Y-81908779D02*
X284563382Y-81408779D01*
X284563382Y-81908779D02*
G75*
G02*
X284063382Y-82408779I-500000J0D01*
G01*
X282371260Y-82408779D02*
X284063382Y-82408779D01*
X282371260Y-82408779D02*
G75*
G02*
X281417321Y-81708779I0J1000000D01*
G01*
X280463382Y-81008779D02*
G75*
G02*
X281417321Y-81708779I0J-1000000D01*
G01*
X267463382Y-81008779D02*
X280463382Y-81008779D01*
X266509443Y-81708779D02*
G75*
G02*
X267463382Y-81008779I953939J-300000D01*
G01*
X266509442Y-81708779D02*
G75*
G02*
X265555503Y-82408779I-953939J300000D01*
G01*
X263863382Y-82408779D02*
X265555503Y-82408779D01*
X263863382Y-82408779D02*
G75*
G02*
X263363382Y-81908779I0J500000D01*
G01*
X263363382Y-81408779D02*
X263363382Y-81908779D01*
X262863382Y-80908779D02*
G75*
G02*
X263363382Y-81408779I0J-500000D01*
G01*
X262263382Y-80908779D02*
X262863382Y-80908779D01*
X261763382Y-81408779D02*
G75*
G02*
X262263382Y-80908779I500000J0D01*
G01*
X261763382Y-81850286D02*
X261763382Y-81408779D01*
X261763382Y-81850287D02*
G75*
G02*
X261190654Y-82344968I-500000J1D01*
G01*
X261190655Y-82344969D02*
G75*
G02*
X256063382Y-76408779I872727J5936190D01*
G01*
X256063382Y-32208779D02*
X256063382Y-76408779D01*
X256063382Y-32208779D02*
G75*
G02*
X256563382Y-31708779I500000J0D01*
G01*
X257563382Y-31708779D02*
X256563382Y-31708779D01*
X258063382Y-31208779D02*
G75*
G02*
X257563382Y-31708779I-500000J0D01*
G01*
X258063382Y-30608779D02*
X258063382Y-31208779D01*
X257563382Y-30108779D02*
G75*
G02*
X258063382Y-30608779I0J-500000D01*
G01*
X256621874Y-30108779D02*
X257563382Y-30108779D01*
X256621874Y-30108778D02*
G75*
G02*
X256127192Y-29536052I0J499999D01*
G01*
X256127192Y-29536052D02*
G75*
G02*
X261190654Y-24472589I5936190J-872727D01*
G01*
X261190655Y-24472590D02*
G75*
G02*
X261763382Y-24967272I72727J-494682D01*
G01*
X261763382Y-25158779D02*
X261763382Y-24967272D01*
X262263382Y-25658779D02*
G75*
G02*
X261763382Y-25158779I0J500000D01*
G01*
X262863382Y-25658779D02*
X262263382Y-25658779D01*
X263363382Y-25158779D02*
G75*
G02*
X262863382Y-25658779I-500000J0D01*
G01*
X263363382Y-24908779D02*
X263363382Y-25158779D01*
X263363382Y-24908779D02*
G75*
G02*
X263863382Y-24408779I500000J0D01*
G01*
X284063382Y-24408779D02*
X263863382Y-24408779D01*
X284063382Y-24408779D02*
G75*
G02*
X284563382Y-24908779I0J-500000D01*
G01*
X284563382Y-25408779D02*
X284563382Y-24908779D01*
X285063382Y-25908779D02*
G75*
G02*
X284563382Y-25408779I0J500000D01*
G01*
X285663382Y-25908779D02*
X285063382Y-25908779D01*
X286163382Y-25408779D02*
G75*
G02*
X285663382Y-25908779I-500000J0D01*
G01*
X286163382Y-24967272D02*
X286163382Y-25408779D01*
X286163382Y-24967272D02*
G75*
G02*
X286736109Y-24472589I500000J0D01*
G01*
X286736109Y-24472589D02*
G75*
G02*
X291863382Y-30408779I-872727J-5936190D01*
G01*
X291863382Y-32290745D02*
X291863382Y-30408779D01*
X291863382Y-32290746D02*
G75*
G02*
X291530048Y-33036101I-1000000J1D01*
G01*
X291363382Y-33408779D02*
G75*
G02*
X291530048Y-33036101I500000J0D01*
G01*
X291363382Y-40158779D02*
X291363382Y-33408779D01*
X291363382Y-40158779D02*
G75*
G02*
X290863382Y-40658779I-500000J0D01*
G01*
X289863382Y-40658779D02*
X290863382Y-40658779D01*
X289363382Y-41158779D02*
G75*
G02*
X289863382Y-40658779I500000J0D01*
G01*
X289363382Y-41658779D02*
X289363382Y-41158779D01*
X289863382Y-42158779D02*
G75*
G02*
X289363382Y-41658779I0J500000D01*
G01*
X291363382Y-42158779D02*
X289863382Y-42158779D01*
X291363382Y-42158779D02*
G75*
G02*
X291863382Y-42658779I0J-500000D01*
G01*
X291863382Y-44658779D02*
X291863382Y-42658779D01*
X289863382Y-44658779D02*
X291863382Y-44658779D01*
X289363382Y-45158779D02*
G75*
G02*
X289863382Y-44658779I500000J0D01*
G01*
X289363382Y-45658779D02*
X289363382Y-45158779D01*
X289863382Y-46158779D02*
G75*
G02*
X289363382Y-45658779I0J500000D01*
G01*
X291863382Y-46158779D02*
X289863382Y-46158779D01*
X289363382Y-57658779D02*
X289363382Y-57158779D01*
X289863382Y-58158779D02*
G75*
G02*
X289363382Y-57658779I0J500000D01*
G01*
X291363382Y-58158779D02*
X289863382Y-58158779D01*
X291363382Y-58158779D02*
G75*
G02*
X291863382Y-58658779I0J-500000D01*
G01*
X291863382Y-60158779D02*
X291863382Y-58658779D01*
X291863382Y-60158779D02*
G75*
G02*
X291363382Y-60658779I-500000J0D01*
G01*
X289863382Y-60658779D02*
X291363382Y-60658779D01*
X289363382Y-61158779D02*
G75*
G02*
X289863382Y-60658779I500000J0D01*
G01*
X289363382Y-61658779D02*
X289363382Y-61158779D01*
X289863382Y-62158779D02*
G75*
G02*
X289363382Y-61658779I0J500000D01*
G01*
X291363382Y-62158779D02*
X289863382Y-62158779D01*
X291363382Y-62158779D02*
G75*
G02*
X291863382Y-62658779I0J-500000D01*
G01*
X291863382Y-64158779D02*
X291863382Y-62658779D01*
X291863382Y-64158779D02*
G75*
G02*
X291363382Y-64658779I-500000J0D01*
G01*
X289863382Y-64658779D02*
X291363382Y-64658779D01*
X289363382Y-65158779D02*
G75*
G02*
X289863382Y-64658779I500000J0D01*
G01*
X289363382Y-65658779D02*
X289363382Y-65158779D01*
X289863382Y-66158779D02*
G75*
G02*
X289363382Y-65658779I0J500000D01*
G01*
X290863382Y-66158779D02*
X289863382Y-66158779D01*
X290863382Y-66158779D02*
G75*
G02*
X291363382Y-66658779I0J-500000D01*
G01*
X291363382Y-67708779D02*
X291363382Y-66658779D01*
X291363382Y-67708779D02*
G75*
G02*
X290863382Y-68208779I-500000J0D01*
G01*
X288713382Y-68208779D02*
X290863382Y-68208779D01*
X288463382Y-68458779D02*
G75*
G02*
X288713382Y-68208779I250000J0D01*
G01*
X288463382Y-69008779D02*
X288463382Y-68458779D01*
X288963382Y-69008779D02*
G75*
G02*
X288463382Y-69008779I-250000J0D01*
G01*
X288963382Y-68708779D02*
X288963382Y-69008779D01*
X290863382Y-68708779D02*
X288963382Y-68708779D01*
X290863382Y-68708779D02*
G75*
G02*
X291363382Y-69208779I0J-500000D01*
G01*
X291363382Y-70608779D02*
X291363382Y-69208779D01*
X291363382Y-70608779D02*
G75*
G02*
X290863382Y-71108779I-500000J0D01*
G01*
X288963382Y-71108779D02*
X290863382Y-71108779D01*
X288963382Y-70808779D02*
X288963382Y-71108779D01*
X288463382Y-70808779D02*
G75*
G02*
X288963382Y-70808779I250000J0D01*
G01*
X288463382Y-71358779D02*
X288463382Y-70808779D01*
X288713382Y-71608779D02*
G75*
G02*
X288463382Y-71358779I0J250000D01*
G01*
X290863382Y-71608779D02*
X288713382Y-71608779D01*
X290863382Y-71608779D02*
G75*
G02*
X291363382Y-72108779I0J-500000D01*
G01*
X291363382Y-73408779D02*
X291363382Y-72108779D01*
X291530049Y-73781457D02*
G75*
G02*
X291363382Y-73408779I333333J372678D01*
G01*
X291530049Y-73781457D02*
G75*
G02*
X291863382Y-74526813I-666667J-745356D01*
G01*
X291863382Y-76408779D02*
X291863382Y-74526813D01*
X291863381Y-76408779D02*
G75*
G02*
X286736109Y-82344968I-5999999J0D01*
G01*
X286736109Y-82344968D02*
G75*
G02*
X286163382Y-81850286I-72727J494682D01*
G01*
X286163382Y-81408779D02*
X286163382Y-81850286D01*
X285663382Y-80908779D02*
G75*
G02*
X286163382Y-81408779I0J-500000D01*
G01*
X285063382Y-80908779D02*
X285663382Y-80908779D01*
X284563382Y-81408779D02*
G75*
G02*
X285063382Y-80908779I500000J0D01*
G01*
X284563382Y-81908779D02*
X284563382Y-81408779D01*
X284563382Y-81908779D02*
G75*
G02*
X284063382Y-82408779I-500000J0D01*
G01*
X282371260Y-82408779D02*
X284063382Y-82408779D01*
X282371260Y-82408779D02*
G75*
G02*
X281417321Y-81708779I0J1000000D01*
G01*
X280463382Y-81008779D02*
G75*
G02*
X281417321Y-81708779I0J-1000000D01*
G01*
X267463382Y-81008779D02*
X280463382Y-81008779D01*
X266509443Y-81708779D02*
G75*
G02*
X267463382Y-81008779I953939J-300000D01*
G01*
X266509442Y-81708779D02*
G75*
G02*
X265555503Y-82408779I-953939J300000D01*
G01*
X263863382Y-82408779D02*
X265555503Y-82408779D01*
X263863382Y-82408779D02*
G75*
G02*
X263363382Y-81908779I0J500000D01*
G01*
X263363382Y-81408779D02*
X263363382Y-81908779D01*
X262863382Y-80908779D02*
G75*
G02*
X263363382Y-81408779I0J-500000D01*
G01*
X262263382Y-80908779D02*
X262863382Y-80908779D01*
X261763382Y-81408779D02*
G75*
G02*
X262263382Y-80908779I500000J0D01*
G01*
X261763382Y-81850286D02*
X261763382Y-81408779D01*
X261763382Y-81850287D02*
G75*
G02*
X261190654Y-82344968I-500000J1D01*
G01*
X261190655Y-82344969D02*
G75*
G02*
X256063382Y-76408779I872727J5936190D01*
G01*
X256063382Y-32208779D02*
X256063382Y-76408779D01*
X256063382Y-32208779D02*
G75*
G02*
X256563382Y-31708779I500000J0D01*
G01*
X257563382Y-31708779D02*
X256563382Y-31708779D01*
X258063382Y-31208779D02*
G75*
G02*
X257563382Y-31708779I-500000J0D01*
G01*
X258063382Y-30608779D02*
X258063382Y-31208779D01*
X257563382Y-30108779D02*
G75*
G02*
X258063382Y-30608779I0J-500000D01*
G01*
X256621874Y-30108779D02*
X257563382Y-30108779D01*
X256621874Y-30108778D02*
G75*
G02*
X256127192Y-29536052I0J499999D01*
G01*
X256127192Y-29536052D02*
G75*
G02*
X261190654Y-24472589I5936190J-872727D01*
G01*
X261190655Y-24472590D02*
G75*
G02*
X261763382Y-24967272I72727J-494682D01*
G01*
X261763382Y-25158779D02*
X261763382Y-24967272D01*
X262263382Y-25658779D02*
G75*
G02*
X261763382Y-25158779I0J500000D01*
G01*
X262863382Y-25658779D02*
X262263382Y-25658779D01*
X263363382Y-25158779D02*
G75*
G02*
X262863382Y-25658779I-500000J0D01*
G01*
X263363382Y-24908779D02*
X263363382Y-25158779D01*
X263363382Y-24908779D02*
G75*
G02*
X263863382Y-24408779I500000J0D01*
G01*
X284063382Y-24408779D02*
X263863382Y-24408779D01*
X284063382Y-24408779D02*
G75*
G02*
X284563382Y-24908779I0J-500000D01*
G01*
X284563382Y-25408779D02*
X284563382Y-24908779D01*
X285063382Y-25908779D02*
G75*
G02*
X284563382Y-25408779I0J500000D01*
G01*
X285663382Y-25908779D02*
X285063382Y-25908779D01*
X286163382Y-25408779D02*
G75*
G02*
X285663382Y-25908779I-500000J0D01*
G01*
X286163382Y-24967272D02*
X286163382Y-25408779D01*
X286163382Y-24967272D02*
G75*
G02*
X286736109Y-24472589I500000J0D01*
G01*
X286736109Y-24472589D02*
G75*
G02*
X291863382Y-30408779I-872727J-5936190D01*
G01*
X291863382Y-32290745D02*
X291863382Y-30408779D01*
X291863382Y-32290746D02*
G75*
G02*
X291530048Y-33036101I-1000000J1D01*
G01*
X291363382Y-33408779D02*
G75*
G02*
X291530048Y-33036101I500000J0D01*
G01*
X291363382Y-40158779D02*
X291363382Y-33408779D01*
X291363382Y-40158779D02*
G75*
G02*
X290863382Y-40658779I-500000J0D01*
G01*
X289863382Y-40658779D02*
X290863382Y-40658779D01*
X289363382Y-41158779D02*
G75*
G02*
X289863382Y-40658779I500000J0D01*
G01*
X289363382Y-41658779D02*
X289363382Y-41158779D01*
X289863382Y-42158779D02*
G75*
G02*
X289363382Y-41658779I0J500000D01*
G01*
X291363382Y-42158779D02*
X289863382Y-42158779D01*
X291363382Y-42158779D02*
G75*
G02*
X291863382Y-42658779I0J-500000D01*
G01*
X291863382Y-44658779D02*
X291863382Y-42658779D01*
X289863382Y-44658779D02*
X291863382Y-44658779D01*
X289363382Y-45158779D02*
G75*
G02*
X289863382Y-44658779I500000J0D01*
G01*
X289363382Y-45658779D02*
X289363382Y-45158779D01*
X289863382Y-46158779D02*
G75*
G02*
X289363382Y-45658779I0J500000D01*
G01*
X291863382Y-46158779D02*
X289863382Y-46158779D01*
X291863382Y-48158779D02*
X291863382Y-46158779D01*
X291863382Y-48158779D02*
G75*
G02*
X291363382Y-48658779I-500000J0D01*
G01*
X289863382Y-48658779D02*
X291363382Y-48658779D01*
X289363382Y-49158779D02*
G75*
G02*
X289863382Y-48658779I500000J0D01*
G01*
X289363382Y-49658779D02*
X289363382Y-49158779D01*
X289863382Y-50158779D02*
G75*
G02*
X289363382Y-49658779I0J500000D01*
G01*
X291363382Y-50158779D02*
X289863382Y-50158779D01*
X291363382Y-50158779D02*
G75*
G02*
X291863382Y-50658779I0J-500000D01*
G01*
X291863382Y-52158779D02*
X291863382Y-50658779D01*
X291863382Y-52158779D02*
G75*
G02*
X291363382Y-52658779I-500000J0D01*
G01*
X289863382Y-52658779D02*
X291363382Y-52658779D01*
X289363382Y-53158779D02*
G75*
G02*
X289863382Y-52658779I500000J0D01*
G01*
X289363382Y-53658779D02*
X289363382Y-53158779D01*
X289863382Y-54158779D02*
G75*
G02*
X289363382Y-53658779I0J500000D01*
G01*
X291363382Y-54158779D02*
X289863382Y-54158779D01*
X291363382Y-54158779D02*
G75*
G02*
X291863382Y-54658779I0J-500000D01*
G01*
X291863382Y-56158779D02*
X291863382Y-54658779D01*
X291863382Y-56158779D02*
G75*
G02*
X291363382Y-56658779I-500000J0D01*
G01*
X289863382Y-56658779D02*
X291363382Y-56658779D01*
X289363382Y-57158779D02*
G75*
G02*
X289863382Y-56658779I500000J0D01*
G01*
X286463382Y-30908779D02*
G75*
G03*
X286463382Y-30908779I-1100000J0D01*
G01*
X263663382Y-30908779D02*
G75*
G03*
X263663382Y-30908779I-1100000J0D01*
G01*
X286463382Y-30908779D02*
G75*
G03*
X286463382Y-30908779I-1100000J0D01*
G01*
X263663382Y-30908779D02*
G75*
G03*
X263663382Y-30908779I-1100000J0D01*
G01*
D11*
X269875000Y-58150000D02*
X269400000Y-58150000D01*
X276620000Y-65370000D02*
X276620000Y-64895000D01*
X276145000Y-65370000D02*
X276620000Y-65370000D01*
X269400000Y-65370000D02*
X269400000Y-64895000D01*
X269875000Y-65370000D02*
X269400000Y-65370000D01*
X276620000Y-58150000D02*
X276620000Y-58625000D01*
X276145000Y-58150000D02*
X276620000Y-58150000D01*
X263860000Y-60650000D02*
X263860000Y-64210000D01*
X263860000Y-58460000D02*
X263860000Y-59130000D01*
X261200000Y-78430000D02*
X261200000Y-79100000D01*
X263860000Y-59130000D02*
X265070000Y-59130000D01*
X261200000Y-73350000D02*
X261200000Y-76910000D01*
X261200000Y-63190000D02*
X261200000Y-66750000D01*
X261200000Y-58460000D02*
X263860000Y-58460000D01*
X263860000Y-75890000D02*
X263860000Y-79100000D01*
X263860000Y-70810000D02*
X263860000Y-74370000D01*
X261200000Y-58460000D02*
X261200000Y-61670000D01*
X261200000Y-68270000D02*
X261200000Y-71830000D01*
X261200000Y-79100000D02*
X263860000Y-79100000D01*
X263860000Y-65730000D02*
X263860000Y-69290000D01*
X284060000Y-58460000D02*
X286720000Y-58460000D01*
X286720000Y-58460000D02*
X286720000Y-59130000D01*
X286720000Y-60650000D02*
X286720000Y-64210000D01*
X286720000Y-65730000D02*
X286720000Y-69290000D01*
X286720000Y-70810000D02*
X286720000Y-74370000D01*
X286720000Y-75890000D02*
X286720000Y-79100000D01*
X284060000Y-79100000D02*
X286720000Y-79100000D01*
X284060000Y-58460000D02*
X284060000Y-61670000D01*
X284060000Y-63190000D02*
X284060000Y-66750000D01*
X284060000Y-68270000D02*
X284060000Y-71830000D01*
X284060000Y-73350000D02*
X284060000Y-76910000D01*
X284060000Y-78430000D02*
X284060000Y-79100000D01*
X286720000Y-59130000D02*
X287930000Y-59130000D01*
X290600000Y-67800000D02*
X288750000Y-67800000D01*
X290600000Y-66600000D02*
X288750000Y-66600000D01*
X288750000Y-66600000D02*
X288750000Y-67800000D01*
D13*
X282190000Y-36395000D02*
X282190000Y-37895000D01*
X284190000Y-36395000D02*
X282190000Y-36395000D01*
X284190000Y-37895000D02*
X284190000Y-36395000D01*
X282190000Y-37895000D02*
X284190000Y-37895000D01*
D11*
X282020000Y-37780000D02*
G75*
G03*
X282020000Y-37780000I-100000J0D01*
G01*
X290650000Y-70630000D02*
X289190000Y-70630000D01*
X289190000Y-70630000D02*
X289190000Y-69170000D01*
X289190000Y-69170000D02*
X290650000Y-69170000D01*
X290650000Y-69170000D02*
X290650000Y-70630000D01*
X290718310Y-70820000D02*
G75*
G03*
X290718310Y-70820000I-58310J0D01*
G01*
X269530000Y-22980000D02*
X278470000Y-22980000D01*
X269530000Y-28490000D02*
X269530000Y-26690000D01*
X269530000Y-22980000D02*
X269530000Y-24440000D01*
X278470000Y-22980000D02*
X278470000Y-24440000D01*
X278470000Y-28490000D02*
X278470000Y-26690000D01*
X291320000Y-35740000D02*
G75*
G03*
X291320000Y-35740000I-100000J0D01*
G01*
X290930000Y-35830000D02*
X290920000Y-35830000D01*
X290930000Y-37930000D02*
X290930000Y-35830000D01*
X288830000Y-37930000D02*
X290930000Y-37930000D01*
X288830000Y-35830000D02*
X288830000Y-37930000D01*
X290930000Y-35830000D02*
X288830000Y-35830000D01*
D10*
X286950000Y-37580000D02*
X286950000Y-35580000D01*
X288550000Y-35580000D02*
X288550000Y-37580000D01*
D11*
X279142500Y-72640000D02*
X279142500Y-72640000D01*
X279142500Y-72140000D02*
X279142500Y-72640000D01*
X280842500Y-72640000D02*
X280842500Y-72640000D01*
X281342500Y-72640000D02*
X280842500Y-72640000D01*
X281342500Y-72140000D02*
X281342500Y-72640000D01*
X281342500Y-70940000D02*
X281342500Y-70940000D01*
X281342500Y-70440000D02*
X281342500Y-70940000D01*
X280842500Y-70440000D02*
X281342500Y-70440000D01*
X279642500Y-70440000D02*
X279642500Y-70440000D01*
X279142500Y-70440000D02*
X279642500Y-70440000D01*
X279142500Y-70940000D02*
X279142500Y-70440000D01*
X283567221Y-35260000D02*
X283892779Y-35260000D01*
X283567221Y-34240000D02*
X283892779Y-34240000D01*
D14*
X272528000Y-32400000D02*
G75*
G03*
X272528000Y-32400000I-50000J0D01*
G01*
X270488000Y-32405000D02*
G75*
G03*
X270488000Y-32405000I-50000J0D01*
G01*
X275568000Y-32405000D02*
G75*
G03*
X275568000Y-32405000I-50000J0D01*
G01*
D11*
X280020000Y-54030000D02*
X281480000Y-54030000D01*
X280020000Y-57190000D02*
X282180000Y-57190000D01*
X280020000Y-57190000D02*
X280020000Y-56260000D01*
X280020000Y-54030000D02*
X280020000Y-54960000D01*
X275930000Y-45950000D02*
X275930000Y-48350000D01*
X275930000Y-48350000D02*
X277530000Y-48350000D01*
X277530000Y-48350000D02*
X277530000Y-45950000D01*
X278187000Y-37883000D02*
X278187000Y-40333000D01*
X281407000Y-39683000D02*
X281407000Y-37883000D01*
D14*
X291198895Y-44402495D02*
G75*
G03*
X291198895Y-44402495I-50000J0D01*
G01*
D11*
X272910000Y-51250000D02*
X268910000Y-51250000D01*
X272910000Y-54550000D02*
X272910000Y-51250000D01*
X285412922Y-50494000D02*
X285930078Y-50494000D01*
X285412922Y-49074000D02*
X285930078Y-49074000D01*
D14*
X291198895Y-48402995D02*
G75*
G03*
X291198895Y-48402995I-50000J0D01*
G01*
X291198895Y-52466995D02*
G75*
G03*
X291198895Y-52466995I-50000J0D01*
G01*
X291198895Y-56402000D02*
G75*
G03*
X291198895Y-56402000I-50000J0D01*
G01*
X291198895Y-60404495D02*
G75*
G03*
X291198895Y-60404495I-50000J0D01*
G01*
X291170000Y-64475000D02*
G75*
G03*
X291170000Y-64475000I-50000J0D01*
G01*
D11*
X285307721Y-48516000D02*
X285633279Y-48516000D01*
X285307721Y-47496000D02*
X285633279Y-47496000D01*
X278432164Y-76460000D02*
X278647836Y-76460000D01*
X278432164Y-75740000D02*
X278647836Y-75740000D01*
X279779000Y-62340000D02*
X279779000Y-63750000D01*
X282099000Y-63750000D02*
X282099000Y-61720000D01*
X282099000Y-63750000D02*
X281439000Y-63750000D01*
X280439000Y-63750000D02*
X279779000Y-63750000D01*
X275490000Y-53820000D02*
X276890000Y-53820000D01*
X276890000Y-51500000D02*
X274990000Y-51500000D01*
X279150000Y-52673641D02*
X279150000Y-52366359D01*
X278390000Y-52673641D02*
X278390000Y-52366359D01*
X278943641Y-60860000D02*
X278636359Y-60860000D01*
X278943641Y-60100000D02*
X278636359Y-60100000D01*
X280646359Y-60100000D02*
X280953641Y-60100000D01*
X280646359Y-60860000D02*
X280953641Y-60860000D01*
X280576359Y-65680000D02*
X280883641Y-65680000D01*
X280576359Y-64920000D02*
X280883641Y-64920000D01*
X261226359Y-56600000D02*
X261533641Y-56600000D01*
X261226359Y-57360000D02*
X261533641Y-57360000D01*
X263176359Y-57360000D02*
X263483641Y-57360000D01*
X263176359Y-56600000D02*
X263483641Y-56600000D01*
X269880000Y-67713641D02*
X269880000Y-67406359D01*
X270640000Y-67713641D02*
X270640000Y-67406359D01*
X271650000Y-67713641D02*
X271650000Y-67406359D01*
X270890000Y-67713641D02*
X270890000Y-67406359D01*
X265433641Y-56600000D02*
X265126359Y-56600000D01*
X265433641Y-57360000D02*
X265126359Y-57360000D01*
X280653641Y-75720000D02*
X280346359Y-75720000D01*
X280653641Y-76480000D02*
X280346359Y-76480000D01*
X269954500Y-80868000D02*
X271954500Y-80868000D01*
X268554500Y-78068000D02*
X268554500Y-79068000D01*
X269154500Y-78068000D02*
X268554500Y-78068000D01*
X273354500Y-78068000D02*
X273354500Y-79068000D01*
X272754500Y-78068000D02*
X273354500Y-78068000D01*
X278787000Y-78068000D02*
X279387000Y-78068000D01*
X279387000Y-78068000D02*
X279387000Y-79068000D01*
X275187000Y-78068000D02*
X274587000Y-78068000D01*
X274587000Y-78068000D02*
X274587000Y-79068000D01*
X275987000Y-80868000D02*
X277987000Y-80868000D01*
M02*
