G04 ================== begin FILE IDENTIFICATION RECORD ==================*
G04 Layout Name:  BeagleDust Rev A0_20180905.brd*
G04 Film Name:    paste_bot*
G04 File Format:  Gerber RS274X*
G04 File Origin:  Cadence Allegro 16.6-2015-S100*
G04 Origin Date:  Thu Sep 06 16:59:25 2018*
G04 *
G04 Layer:  PIN/PASTEMASK_BOTTOM*
G04 Layer:  PACKAGE GEOMETRY/PASTEMASK_BOTTOM*
G04 Layer:  BOARD GEOMETRY/OUTLINE*
G04 *
G04 Offset:    (0.00 0.00)*
G04 Mirror:    No*
G04 Mode:      Positive*
G04 Rotation:  0*
G04 FullContactRelief:  No*
G04 UndefLineWidth:     5.00*
G04 ================== end FILE IDENTIFICATION RECORD ====================*
%FSLAX25Y25*MOIN*%
%IR0*IPPOS*OFA0.00000B0.00000*MIA0B0*SFA1.00000B1.00000*%
%ADD10C,.04*%
%ADD13R,.032X.032*%
%ADD12R,.022X.02*%
%ADD11R,.02X.022*%
%ADD15R,.035X.03*%
%ADD16R,.03X.035*%
%ADD14R,.04016X.09055*%
%ADD17C,.005*%
%ADD18C,.008*%
G75*
%LPD*%
G75*
G54D10*
X1000Y-23500D03*
X177500Y13000D03*
Y117500D03*
G54D11*
X55900Y14500D03*
X52100D03*
X95100Y87500D03*
X98900D03*
X69900Y99500D03*
X66100D03*
G54D12*
X44000Y-18400D03*
Y-14600D03*
X109000Y-15900D03*
Y-12100D03*
X133000Y-17900D03*
Y-14100D03*
G54D13*
X49000Y-13547D03*
Y-19453D03*
X138000Y-13047D03*
Y-18953D03*
G54D14*
X44329Y12640D03*
X24329D03*
X4329D03*
X-15671D03*
X54329Y-352D03*
X34329D03*
X14329D03*
X-5671D03*
X44329Y102640D03*
X24329D03*
X4329D03*
X-15671D03*
X54329Y89648D03*
X34329D03*
X14329D03*
X-5671D03*
X109329Y-352D03*
X129329D03*
X99329Y12640D03*
X119329D03*
X109329Y89648D03*
X129329D03*
X99329Y102640D03*
X119329D03*
X149329Y-352D03*
X169329D03*
X139329Y12640D03*
X159329D03*
X149329Y89648D03*
X169329D03*
X139329Y102640D03*
X159329D03*
G54D15*
X103500Y-16800D03*
Y-11200D03*
G54D16*
X71300Y94000D03*
X65700D03*
G54D17*
G01X-22406Y147406D02*
X178119D01*
G02X186119Y139406I0J-8000D01*
G01Y-21748D01*
G02X178119Y-29748I-8000J0D01*
G01X-22406D01*
G02X-30406Y-21748I0J8000D01*
G01Y139406D01*
G02X-22406Y147406I8000J0D01*
G54D18*
G01X174333Y-44000D02*
Y-34000D01*
X170333D01*
X169000Y-34500D01*
X168000Y-35667D01*
X167667Y-37000D01*
X168000Y-38333D01*
X168833Y-39333D01*
X170333Y-39834D01*
X174333D01*
G01X164167Y-44000D02*
X160000Y-34000D01*
X155833Y-44000D01*
G01X157333Y-40500D02*
X162667D01*
G01X152500Y-42667D02*
X151167Y-43500D01*
X149667Y-44000D01*
X148333D01*
X147000Y-43500D01*
X146000Y-42667D01*
X145500Y-41500D01*
X145833Y-40334D01*
X146667Y-39333D01*
X148167Y-38667D01*
X150167Y-38333D01*
X151333Y-37667D01*
X151833Y-36500D01*
X151500Y-35333D01*
X150667Y-34500D01*
X149500Y-34000D01*
X148333D01*
X147167Y-34333D01*
X146167Y-35167D01*
G01X138000Y-34000D02*
Y-44000D01*
G01X141833Y-34000D02*
X134167D01*
G01X123667Y-44000D02*
X130333D01*
Y-34000D01*
X123667D01*
G01X126333Y-38833D02*
X130333D01*
G01X120333Y-44000D02*
Y-34000D01*
X116000Y-42333D01*
X111667Y-34000D01*
Y-44000D01*
G01X109167D02*
X105000Y-34000D01*
X100833Y-44000D01*
G01X102333Y-40500D02*
X107667D01*
G01X97500Y-42667D02*
X96167Y-43500D01*
X94667Y-44000D01*
X93333D01*
X92000Y-43500D01*
X91000Y-42667D01*
X90500Y-41500D01*
X90833Y-40334D01*
X91667Y-39333D01*
X93167Y-38667D01*
X95167Y-38333D01*
X96333Y-37667D01*
X96833Y-36500D01*
X96500Y-35333D01*
X95667Y-34500D01*
X94500Y-34000D01*
X93333D01*
X92167Y-34333D01*
X91167Y-35167D01*
G01X86667Y-44000D02*
Y-34000D01*
G01X80333D02*
X86667Y-40167D01*
G01X79333Y-44000D02*
X83833Y-37334D01*
G01X59667Y-38667D02*
X59000Y-38167D01*
X58500Y-37334D01*
X58167Y-36167D01*
X58500Y-35167D01*
X59167Y-34500D01*
X60333Y-34000D01*
X64833D01*
Y-44000D01*
X59333D01*
X58167Y-43333D01*
X57500Y-42333D01*
X57167Y-41167D01*
X57500Y-40000D01*
X58500Y-39000D01*
X59667Y-38667D01*
X64833D01*
G01X50000Y-44000D02*
X51334Y-43833D01*
X52500Y-43167D01*
X53500Y-42167D01*
X54167Y-41000D01*
X54500Y-39667D01*
Y-38333D01*
X54167Y-37000D01*
X53500Y-35833D01*
X52500Y-34833D01*
X51334Y-34167D01*
X50000Y-34000D01*
X48667Y-34167D01*
X47500Y-34833D01*
X46500Y-35833D01*
X45833Y-37000D01*
X45500Y-38333D01*
Y-39667D01*
X45833Y-41000D01*
X46500Y-42167D01*
X47500Y-43167D01*
X48667Y-43833D01*
X50000Y-44000D01*
G01X39000Y-34000D02*
Y-44000D01*
G01X42833Y-34000D02*
X35167D01*
G01X28000D02*
Y-44000D01*
G01X31833Y-34000D02*
X24167D01*
G01X17000Y-44000D02*
X18334Y-43833D01*
X19500Y-43167D01*
X20500Y-42167D01*
X21167Y-41000D01*
X21500Y-39667D01*
Y-38333D01*
X21167Y-37000D01*
X20500Y-35833D01*
X19500Y-34833D01*
X18334Y-34167D01*
X17000Y-34000D01*
X15667Y-34167D01*
X14500Y-34833D01*
X13500Y-35833D01*
X12833Y-37000D01*
X12500Y-38333D01*
Y-39667D01*
X12833Y-41000D01*
X13500Y-42167D01*
X14500Y-43167D01*
X15667Y-43833D01*
X17000Y-44000D01*
G01X10333D02*
Y-34000D01*
X6000Y-42333D01*
X1667Y-34000D01*
Y-44000D01*
M02*
