G04 ================== begin FILE IDENTIFICATION RECORD ==================*
G04 Layout Name:  BeagleDust Rev A0_20180905.brd*
G04 Film Name:    silk_top*
G04 File Format:  Gerber RS274X*
G04 File Origin:  Cadence Allegro 16.6-2015-S100*
G04 Origin Date:  Thu Sep 06 16:59:25 2018*
G04 *
G04 Layer:  REF DES/SILKSCREEN_TOP*
G04 Layer:  PACKAGE GEOMETRY/SILKSCREEN_TOP*
G04 Layer:  BOARD GEOMETRY/OUTLINE*
G04 Layer:  BOARD GEOMETRY/SILKSCREEN_TOP*
G04 *
G04 Offset:    (0.00 0.00)*
G04 Mirror:    No*
G04 Mode:      Positive*
G04 Rotation:  0*
G04 FullContactRelief:  No*
G04 UndefLineWidth:     5.00*
G04 ================== end FILE IDENTIFICATION RECORD ====================*
%FSLAX25Y25*MOIN*%
%IR0*IPPOS*OFA0.00000B0.00000*MIA0B0*SFA1.00000B1.00000*%
%ADD10C,.003*%
%ADD11C,.004*%
%ADD12C,.005*%
%ADD13C,.006*%
%ADD14C,.0035*%
%ADD15C,.00591*%
%ADD16C,.00394*%
G75*
%LPD*%
G75*
G54D10*
G01X94300Y48800D02*
X95300Y46900D01*
X94300Y45100D01*
Y48800D01*
G01X95700Y49000D02*
Y45000D01*
G01X83700Y143875D02*
X85575D01*
G01X83475Y143800D02*
X85725D01*
G01X83250Y143725D02*
X84150D01*
G01X84675D02*
X84750D01*
G01X84975D02*
X85950D01*
G01X83175Y143650D02*
X83850D01*
G01X85425D02*
X86025D01*
G01X82950Y143575D02*
X83625D01*
G01X85650D02*
X86175D01*
G01X82800Y143500D02*
X83475D01*
G01X85800D02*
X86400D01*
G01X82650Y143425D02*
X83175D01*
G01X86100D02*
X86475D01*
G01X82575Y143350D02*
X83025D01*
G01X86175D02*
X86625D01*
G01X82500Y143275D02*
X82950D01*
G01X86250D02*
X86625D01*
G01X82350Y143200D02*
X82875D01*
G01X86325D02*
X86775D01*
G01X82275Y143125D02*
X82725D01*
G01X86550D02*
X86850D01*
G01X82200Y143050D02*
X82650D01*
G01X86625D02*
X86925D01*
G01X82050Y142975D02*
X82725D01*
G01X86625D02*
X86925D01*
G01X81825Y142900D02*
X82950D01*
G01X86700D02*
X87000D01*
G01X81600Y142825D02*
X83100D01*
G01X85200D02*
X85275D01*
G01X86775D02*
X87150D01*
G01X81525Y142750D02*
X81975D01*
G01X82875D02*
X83250D01*
G01X86925D02*
X87225D01*
G01X81450Y142675D02*
X81900D01*
G01X82950D02*
X83250D01*
G01X86925D02*
X87225D01*
G01X81375Y142600D02*
X81750D01*
G01X83025D02*
X83325D01*
G01X87000D02*
X87300D01*
G01X81225Y142525D02*
X81675D01*
G01X83100D02*
X83400D01*
G01X87075D02*
X87300D01*
G01X81225Y142450D02*
X81600D01*
G01X83250D02*
X83475D01*
G01X85425D02*
X85500D01*
G01X87150D02*
X87375D01*
G01X81150Y142375D02*
X81525D01*
G01X83250D02*
X83475D01*
G01X87225D02*
X87450D01*
G01X81150Y142300D02*
X81525D01*
G01X83250D02*
X83550D01*
G01X87225D02*
X87450D01*
G01X81075Y142225D02*
X81450D01*
G01X83325D02*
X83550D01*
G01X87300D02*
X87525D01*
G01X81000Y142150D02*
X81450D01*
G01X83325D02*
X83625D01*
G01X87300D02*
X87600D01*
G01X81000Y142075D02*
X81375D01*
G01X83400D02*
X83625D01*
G01X87300D02*
X87600D01*
G01X80925Y142000D02*
X81300D01*
G01X83475D02*
X83550D01*
G01X87150D02*
X87600D01*
G01X80925Y141925D02*
X81300D01*
G01X83475D02*
X83550D01*
G01X86925D02*
X87600D01*
G01X80925Y141850D02*
X81225D01*
G01X83475D02*
X83700D01*
G01X86850D02*
X87000D01*
G01X87150D02*
X87675D01*
G01X80850Y141775D02*
X81225D01*
G01X83550D02*
X83625D01*
G01X86850D02*
X86925D01*
G01X87300D02*
X87750D01*
G01X80850Y141700D02*
X81225D01*
G01X83550D02*
X83625D01*
G01X84600D02*
X85050D01*
G01X86775D02*
X86850D01*
G01X87225D02*
X87750D01*
G01X80775Y141625D02*
X81150D01*
G01X83625D02*
X83700D01*
G01X84375D02*
X85200D01*
G01X86775D02*
X86850D01*
G01X87225D02*
X87750D01*
G01X80775Y141550D02*
X81150D01*
G01X83625D02*
X83700D01*
G01X84300D02*
X84525D01*
G01X84675D02*
X85275D01*
G01X86775D02*
X87825D01*
G01X80700Y141475D02*
X81075D01*
G01X83625D02*
X83850D01*
G01X84225D02*
X84375D01*
G01X84750D02*
X85350D01*
G01X86850D02*
X87900D01*
G01X80700Y141400D02*
X81075D01*
G01X83625D02*
X83850D01*
G01X84225D02*
X84300D01*
G01X84750D02*
X85425D01*
G01X86925D02*
X87900D01*
G01X80625Y141325D02*
X81000D01*
G01X83625D02*
X83850D01*
G01X84150D02*
X84450D01*
G01X84750D02*
X85425D01*
G01X87000D02*
X87525D01*
G01X87675D02*
X87900D01*
G01X80625Y141250D02*
X81000D01*
G01X83625D02*
X83850D01*
G01X84150D02*
X85425D01*
G01X87675D02*
X87975D01*
G01X80550Y141175D02*
X80925D01*
G01X83625D02*
X83925D01*
G01X84150D02*
X85425D01*
G01X87675D02*
X88050D01*
G01X80550Y141100D02*
X80925D01*
G01X83700D02*
X83925D01*
G01X84225D02*
X85350D01*
G01X87750D02*
X88275D01*
G01X80550Y141025D02*
X80925D01*
G01X83700D02*
X83925D01*
G01X84300D02*
X85350D01*
G01X87825D02*
X88350D01*
G01X80550Y140950D02*
X80925D01*
G01X83700D02*
X83925D01*
G01X84300D02*
X85275D01*
G01X87975D02*
X88575D01*
G01X80550Y140875D02*
X80850D01*
G01X83775D02*
X83850D01*
G01X84375D02*
X85200D01*
G01X88125D02*
X88650D01*
G01X80475Y140800D02*
X80850D01*
G01X83775D02*
X83850D01*
G01X84600D02*
X85050D01*
G01X88275D02*
X88950D01*
G01X80400Y140725D02*
X80775D01*
G01X83775D02*
X84000D01*
G01X88575D02*
X89025D01*
G01X80400Y140650D02*
X80775D01*
G01X83850D02*
X83925D01*
G01X88650D02*
X89100D01*
G01X80325Y140575D02*
X80700D01*
G01X83850D02*
X83925D01*
G01X88800D02*
X89250D01*
G01X80325Y140500D02*
X80700D01*
G01X83850D02*
X84000D01*
G01X88950D02*
X89400D01*
G01X80250Y140425D02*
X80625D01*
G01X83925D02*
X84000D01*
G01X89100D02*
X89475D01*
G01X80250Y140350D02*
X80625D01*
G01X83925D02*
X84000D01*
G01X89250D02*
X89625D01*
G01X80250Y140275D02*
X80550D01*
G01X83925D02*
X84150D01*
G01X89325D02*
X89625D01*
G01X80250Y140200D02*
X80550D01*
G01X83925D02*
X84150D01*
G01X89400D02*
X89700D01*
G01X80175Y140125D02*
X80550D01*
G01X83925D02*
X84150D01*
G01X89475D02*
X89925D01*
G01X80175Y140050D02*
X80550D01*
G01X83925D02*
X84225D01*
G01X89550D02*
X90000D01*
G01X80100Y139975D02*
X80475D01*
G01X84000D02*
X84225D01*
G01X89325D02*
X90225D01*
G01X80100Y139900D02*
X80475D01*
G01X84000D02*
X84225D01*
G01X89250D02*
X90300D01*
G01X80025Y139825D02*
X80400D01*
G01X84000D02*
X84300D01*
G01X88950D02*
X89850D01*
G01X90300D02*
X90525D01*
G01X79950Y139750D02*
X80325D01*
G01X84075D02*
X84300D01*
G01X88950D02*
X89400D01*
G01X90300D02*
X90600D01*
G01X79950Y139675D02*
X80325D01*
G01X84075D02*
X84300D01*
G01X88875D02*
X89325D01*
G01X90300D02*
X90675D01*
G01X79875Y139600D02*
X80250D01*
G01X84150D02*
X84225D01*
G01X88800D02*
X89175D01*
G01X90225D02*
X90675D01*
G01X79875Y139525D02*
X80250D01*
G01X84150D02*
X84225D01*
G01X88725D02*
X89100D01*
G01X90150D02*
X90675D01*
G01X79875Y139450D02*
X80250D01*
G01X84150D02*
X84375D01*
G01X88650D02*
X89025D01*
G01X90000D02*
X90750D01*
G01X79800Y139375D02*
X80175D01*
G01X84225D02*
X84300D01*
G01X88650D02*
X88950D01*
G01X89850D02*
X90825D01*
G01X79800Y139300D02*
X80175D01*
G01X84300D02*
X84375D01*
G01X88650D02*
X88950D01*
G01X89700D02*
X90825D01*
G01X79725Y139225D02*
X80100D01*
G01X84300D02*
X84375D01*
G01X88650D02*
X88950D01*
G01X89550D02*
X90825D01*
G01X79650Y139150D02*
X80100D01*
G01X84300D02*
X84525D01*
G01X88575D02*
X90825D01*
G01X79650Y139075D02*
X80025D01*
G01X84300D02*
X84525D01*
G01X88575D02*
X90825D01*
G01X79650Y139000D02*
X80025D01*
G01X84300D02*
X84525D01*
G01X88575D02*
X90825D01*
G01X93225D02*
X93450D01*
G01X113550D02*
X113850D01*
G01X120675D02*
X120975D01*
G01X79575Y138925D02*
X79950D01*
G01X84300D02*
X84600D01*
G01X88575D02*
X90750D01*
G01X93000D02*
X93675D01*
G01X113400D02*
X114075D01*
G01X120525D02*
X121200D01*
G01X79575Y138850D02*
X79950D01*
G01X84375D02*
X84600D01*
G01X88650D02*
X90750D01*
G01X92850D02*
X93750D01*
G01X113250D02*
X114225D01*
G01X120375D02*
X121275D01*
G01X79575Y138775D02*
X79950D01*
G01X84375D02*
X84600D01*
G01X88650D02*
X90750D01*
G01X92700D02*
X93975D01*
G01X113100D02*
X114300D01*
G01X120225D02*
X121425D01*
G01X79575Y138700D02*
X79875D01*
G01X84450D02*
X84525D01*
G01X88650D02*
X90675D01*
G01X92700D02*
X93225D01*
G01X93375D02*
X93975D01*
G01X113025D02*
X113550D01*
G01X113850D02*
X114375D01*
G01X120150D02*
X120750D01*
G01X120975D02*
X121500D01*
G01X79575Y138625D02*
X79875D01*
G01X84450D02*
X84525D01*
G01X88650D02*
X90675D01*
G01X92700D02*
X93000D01*
G01X93600D02*
X94050D01*
G01X113025D02*
X113475D01*
G01X114000D02*
X114375D01*
G01X120150D02*
X120600D01*
G01X121050D02*
X121500D01*
G01X79575Y138550D02*
X79875D01*
G01X84450D02*
X84525D01*
G01X88725D02*
X90675D01*
G01X92625D02*
X93000D01*
G01X93675D02*
X94050D01*
G01X112950D02*
X113325D01*
G01X114075D02*
X114450D01*
G01X120075D02*
X120450D01*
G01X121200D02*
X121575D01*
G01X79500Y138475D02*
X79875D01*
G01X84450D02*
X84675D01*
G01X88800D02*
X90750D01*
G01X92550D02*
X92925D01*
G01X93750D02*
X94125D01*
G01X112875D02*
X113250D01*
G01X114150D02*
X114525D01*
G01X120000D02*
X120375D01*
G01X121275D02*
X121650D01*
G01X79500Y138400D02*
X79875D01*
G01X84150D02*
X84225D01*
G01X84450D02*
X84675D01*
G01X88950D02*
X90300D01*
G01X90525D02*
X90750D01*
G01X92550D02*
X92850D01*
G01X93825D02*
X94125D01*
G01X112875D02*
X113175D01*
G01X114225D02*
X114525D01*
G01X120000D02*
X120300D01*
G01X121275D02*
X121650D01*
G01X79500Y138325D02*
X79875D01*
G01X84075D02*
X84150D01*
G01X84525D02*
X84600D01*
G01X89025D02*
X90150D01*
G01X90525D02*
X90750D01*
G01X92550D02*
X92850D01*
G01X93825D02*
X94125D01*
G01X112875D02*
X113175D01*
G01X114225D02*
X114525D01*
G01X120000D02*
X120300D01*
G01X121275D02*
X121650D01*
G01X79500Y138250D02*
X79875D01*
G01X84000D02*
X84225D01*
G01X84525D02*
X84600D01*
G01X89250D02*
X90000D01*
G01X90525D02*
X90750D01*
G01X92475D02*
X92775D01*
G01X93825D02*
X94125D01*
G01X112875D02*
X113175D01*
G01X114225D02*
X114525D01*
G01X120000D02*
X120300D01*
G01X121275D02*
X121650D01*
G01X79500Y138175D02*
X79875D01*
G01X83925D02*
X84225D01*
G01X84525D02*
X84600D01*
G01X89475D02*
X89700D01*
G01X90450D02*
X90750D01*
G01X92475D02*
X92775D01*
G01X93825D02*
X94125D01*
G01X112875D02*
X113175D01*
G01X114225D02*
X114525D01*
G01X119925D02*
X120300D01*
G01X121350D02*
X121650D01*
G01X79500Y138100D02*
X79875D01*
G01X83925D02*
X84225D01*
G01X84525D02*
X84600D01*
G01X90375D02*
X90675D01*
G01X92475D02*
X92775D01*
G01X93825D02*
X94200D01*
G01X112875D02*
X113175D01*
G01X114225D02*
X114525D01*
G01X119925D02*
X120300D01*
G01X121350D02*
X121650D01*
G01X79500Y138025D02*
X79875D01*
G01X83850D02*
X84225D01*
G01X84525D02*
X84600D01*
G01X90300D02*
X90675D01*
G01X92475D02*
X92775D01*
G01X93900D02*
X94200D01*
G01X112875D02*
X113175D01*
G01X114225D02*
X114525D01*
G01X119925D02*
X120300D01*
G01X121350D02*
X121650D01*
G01X79500Y137950D02*
X79875D01*
G01X83775D02*
X84225D01*
G01X84525D02*
X84600D01*
G01X90300D02*
X90675D01*
G01X92475D02*
X92775D01*
G01X93900D02*
X94200D01*
G01X112875D02*
X113175D01*
G01X114225D02*
X114525D01*
G01X119925D02*
X120300D01*
G01X121350D02*
X121650D01*
G01X79500Y137875D02*
X79875D01*
G01X83700D02*
X84225D01*
G01X84525D02*
X84600D01*
G01X90225D02*
X90675D01*
G01X92475D02*
X92775D01*
G01X93900D02*
X94200D01*
G01X112875D02*
X113175D01*
G01X114225D02*
X114525D01*
G01X119925D02*
X120300D01*
G01X121350D02*
X121650D01*
G01X79500Y137800D02*
X79875D01*
G01X83625D02*
X84225D01*
G01X84525D02*
X84600D01*
G01X90075D02*
X90675D01*
G01X92475D02*
X92775D01*
G01X93900D02*
X94200D01*
G01X112875D02*
X113175D01*
G01X114225D02*
X114525D01*
G01X119925D02*
X120300D01*
G01X121350D02*
X121650D01*
G01X79500Y137725D02*
X79875D01*
G01X83625D02*
X84150D01*
G01X84525D02*
X84600D01*
G01X90000D02*
X90675D01*
G01X92475D02*
X92775D01*
G01X93900D02*
X94200D01*
G01X112875D02*
X113175D01*
G01X114225D02*
X114525D01*
G01X119925D02*
X120300D01*
G01X121350D02*
X121650D01*
G01X79500Y137650D02*
X79875D01*
G01X83550D02*
X84150D01*
G01X84525D02*
X84600D01*
G01X90000D02*
X90675D01*
G01X92475D02*
X92775D01*
G01X93900D02*
X94200D01*
G01X112875D02*
X113175D01*
G01X114225D02*
X114525D01*
G01X119925D02*
X120300D01*
G01X121350D02*
X121650D01*
G01X79500Y137575D02*
X79875D01*
G01X83475D02*
X84150D01*
G01X84525D02*
X84600D01*
G01X89925D02*
X90600D01*
G01X92475D02*
X92775D01*
G01X93900D02*
X94200D01*
G01X112875D02*
X113175D01*
G01X114225D02*
X114525D01*
G01X119925D02*
X120300D01*
G01X121350D02*
X121650D01*
G01X79500Y137500D02*
X79875D01*
G01X83400D02*
X84150D01*
G01X84525D02*
X84600D01*
G01X89775D02*
X90600D01*
G01X92475D02*
X92775D01*
G01X93900D02*
X94200D01*
G01X112875D02*
X113175D01*
G01X114225D02*
X114525D01*
G01X119925D02*
X120300D01*
G01X121350D02*
X121650D01*
G01X79575Y137425D02*
X79950D01*
G01X83250D02*
X84075D01*
G01X84450D02*
X84675D01*
G01X89625D02*
X90600D01*
G01X92475D02*
X92775D01*
G01X93900D02*
X94200D01*
G01X112875D02*
X113175D01*
G01X114225D02*
X114525D01*
G01X119925D02*
X120300D01*
G01X121350D02*
X121650D01*
G01X79575Y137350D02*
X79950D01*
G01X83175D02*
X84075D01*
G01X84450D02*
X84525D01*
G01X89475D02*
X90525D01*
G01X92475D02*
X92775D01*
G01X93900D02*
X94200D01*
G01X112875D02*
X113175D01*
G01X114225D02*
X114525D01*
G01X119925D02*
X120300D01*
G01X121350D02*
X121650D01*
G01X79575Y137275D02*
X79950D01*
G01X83100D02*
X84000D01*
G01X84450D02*
X84525D01*
G01X89325D02*
X90000D01*
G01X90150D02*
X90525D01*
G01X92475D02*
X92775D01*
G01X93900D02*
X94200D01*
G01X112875D02*
X113175D01*
G01X114225D02*
X114525D01*
G01X119925D02*
X120300D01*
G01X121350D02*
X121650D01*
G01X79575Y137200D02*
X80025D01*
G01X83025D02*
X84000D01*
G01X84450D02*
X84525D01*
G01X89250D02*
X90000D01*
G01X90225D02*
X90525D01*
G01X92475D02*
X92775D01*
G01X93900D02*
X94200D01*
G01X112875D02*
X113175D01*
G01X114225D02*
X114525D01*
G01X119925D02*
X120300D01*
G01X121350D02*
X121650D01*
G01X79575Y137125D02*
X80100D01*
G01X82875D02*
X83925D01*
G01X84375D02*
X84600D01*
G01X88875D02*
X89925D01*
G01X90300D02*
X90600D01*
G01X92475D02*
X92775D01*
G01X93900D02*
X94200D01*
G01X112875D02*
X113175D01*
G01X114225D02*
X114525D01*
G01X119925D02*
X120300D01*
G01X121350D02*
X121650D01*
G01X79650Y137050D02*
X80175D01*
G01X82725D02*
X83925D01*
G01X84375D02*
X84600D01*
G01X88650D02*
X89700D01*
G01X90300D02*
X90675D01*
G01X92475D02*
X92775D01*
G01X93900D02*
X94200D01*
G01X112875D02*
X113175D01*
G01X114225D02*
X114525D01*
G01X119925D02*
X120300D01*
G01X121350D02*
X121650D01*
G01X79650Y136975D02*
X80175D01*
G01X82575D02*
X83850D01*
G01X84300D02*
X84525D01*
G01X88425D02*
X89625D01*
G01X90375D02*
X90675D01*
G01X92475D02*
X92775D01*
G01X93900D02*
X94200D01*
G01X112875D02*
X113175D01*
G01X114225D02*
X114525D01*
G01X119925D02*
X120300D01*
G01X121350D02*
X121650D01*
G01X79725Y136900D02*
X80250D01*
G01X82500D02*
X83775D01*
G01X84300D02*
X84525D01*
G01X88125D02*
X89475D01*
G01X90375D02*
X90675D01*
G01X92475D02*
X92775D01*
G01X93900D02*
X94200D01*
G01X112875D02*
X113175D01*
G01X114225D02*
X114525D01*
G01X119925D02*
X120300D01*
G01X121350D02*
X121650D01*
G01X79725Y136825D02*
X80250D01*
G01X82350D02*
X83700D01*
G01X84300D02*
X84525D01*
G01X87825D02*
X89325D01*
G01X90375D02*
X90675D01*
G01X92475D02*
X92775D01*
G01X93900D02*
X94200D01*
G01X94950D02*
X95700D01*
G01X99675D02*
X100425D01*
G01X104550D02*
X105225D01*
G01X109650D02*
X110325D01*
G01X112875D02*
X113175D01*
G01X114225D02*
X114525D01*
G01X116850D02*
X117600D01*
G01X119925D02*
X120300D01*
G01X121350D02*
X121650D01*
G01X122400D02*
X123150D01*
G01X127350D02*
X128025D01*
G01X79800Y136750D02*
X80325D01*
G01X82200D02*
X83625D01*
G01X84225D02*
X84450D01*
G01X86925D02*
X89100D01*
G01X90375D02*
X90675D01*
G01X92475D02*
X92775D01*
G01X93900D02*
X94200D01*
G01X94500D02*
X96075D01*
G01X99150D02*
X100875D01*
G01X104100D02*
X105675D01*
G01X106500D02*
X107250D01*
G01X109200D02*
X110775D01*
G01X111525D02*
X112350D01*
G01X112875D02*
X113175D01*
G01X114225D02*
X114525D01*
G01X116325D02*
X118050D01*
G01X119925D02*
X120300D01*
G01X121350D02*
X121650D01*
G01X121950D02*
X123600D01*
G01X126825D02*
X128550D01*
G01X131775D02*
X133425D01*
G01X79875Y136675D02*
X80400D01*
G01X82050D02*
X83475D01*
G01X84150D02*
X84375D01*
G01X86625D02*
X88950D01*
G01X90450D02*
X90675D01*
G01X92475D02*
X92775D01*
G01X93900D02*
X94200D01*
G01X94350D02*
X96225D01*
G01X99075D02*
X101100D01*
G01X103950D02*
X105825D01*
G01X106350D02*
X107400D01*
G01X109050D02*
X110850D01*
G01X111450D02*
X112425D01*
G01X112875D02*
X113175D01*
G01X114225D02*
X114525D01*
G01X116175D02*
X118200D01*
G01X119925D02*
X120300D01*
G01X121350D02*
X121650D01*
G01X121875D02*
X123750D01*
G01X126675D02*
X128700D01*
G01X131700D02*
X133500D01*
G01X79875Y136600D02*
X80475D01*
G01X81900D02*
X83325D01*
G01X84075D02*
X84300D01*
G01X86475D02*
X88950D01*
G01X90450D02*
X90675D01*
G01X92475D02*
X92775D01*
G01X93900D02*
X96375D01*
G01X98925D02*
X101175D01*
G01X103800D02*
X105900D01*
G01X106275D02*
X107475D01*
G01X108900D02*
X110925D01*
G01X111300D02*
X112500D01*
G01X112875D02*
X113175D01*
G01X114225D02*
X114525D01*
G01X116025D02*
X118275D01*
G01X119925D02*
X120300D01*
G01X121350D02*
X121650D01*
G01X121725D02*
X123900D01*
G01X126525D02*
X128775D01*
G01X131550D02*
X133650D01*
G01X79950Y136525D02*
X80550D01*
G01X81900D02*
X83250D01*
G01X84000D02*
X84300D01*
G01X86400D02*
X89025D01*
G01X90450D02*
X90675D01*
G01X92475D02*
X92775D01*
G01X93900D02*
X94950D01*
G01X95700D02*
X96450D01*
G01X98775D02*
X99675D01*
G01X100425D02*
X101325D01*
G01X103800D02*
X104550D01*
G01X105225D02*
X105975D01*
G01X106200D02*
X107475D01*
G01X108825D02*
X109650D01*
G01X110325D02*
X111075D01*
G01X111300D02*
X112500D01*
G01X112875D02*
X113175D01*
G01X114225D02*
X114525D01*
G01X115875D02*
X116850D01*
G01X117600D02*
X118425D01*
G01X119925D02*
X120300D01*
G01X121350D02*
X122400D01*
G01X123150D02*
X123975D01*
G01X126375D02*
X127350D01*
G01X128025D02*
X128925D01*
G01X131400D02*
X132300D01*
G01X80025Y136450D02*
X80775D01*
G01X81750D02*
X82950D01*
G01X83925D02*
X84225D01*
G01X86400D02*
X89175D01*
G01X90375D02*
X90675D01*
G01X92475D02*
X92775D01*
G01X93900D02*
X94725D01*
G01X95925D02*
X96675D01*
G01X98625D02*
X99375D01*
G01X100725D02*
X101475D01*
G01X103575D02*
X104325D01*
G01X105450D02*
X106650D01*
G01X107100D02*
X107550D01*
G01X108675D02*
X109425D01*
G01X110550D02*
X111675D01*
G01X112125D02*
X112650D01*
G01X112875D02*
X113175D01*
G01X114225D02*
X114525D01*
G01X115725D02*
X116550D01*
G01X117825D02*
X118575D01*
G01X119925D02*
X120300D01*
G01X121350D02*
X122175D01*
G01X123375D02*
X124125D01*
G01X126225D02*
X126975D01*
G01X128325D02*
X129075D01*
G01X131325D02*
X132075D01*
G01X80175Y136375D02*
X80850D01*
G01X83775D02*
X84075D01*
G01X86550D02*
X89250D01*
G01X90375D02*
X90675D01*
G01X92475D02*
X92775D01*
G01X93900D02*
X94425D01*
G01X96150D02*
X96750D01*
G01X98550D02*
X99075D01*
G01X101025D02*
X101550D01*
G01X103500D02*
X104025D01*
G01X105750D02*
X106500D01*
G01X107250D02*
X107550D01*
G01X108600D02*
X109200D01*
G01X110775D02*
X111525D01*
G01X112275D02*
X112650D01*
G01X112875D02*
X113175D01*
G01X114225D02*
X114525D01*
G01X115650D02*
X116250D01*
G01X118125D02*
X118650D01*
G01X119925D02*
X120300D01*
G01X121350D02*
X121950D01*
G01X123600D02*
X124200D01*
G01X126150D02*
X126675D01*
G01X128625D02*
X129225D01*
G01X131175D02*
X131700D01*
G01X80250Y136300D02*
X80925D01*
G01X83625D02*
X84000D01*
G01X86625D02*
X89250D01*
G01X90375D02*
X90675D01*
G01X92475D02*
X92775D01*
G01X93900D02*
X94350D01*
G01X96300D02*
X96750D01*
G01X98400D02*
X99000D01*
G01X101100D02*
X101625D01*
G01X103425D02*
X103950D01*
G01X105825D02*
X106425D01*
G01X107250D02*
X107550D01*
G01X108525D02*
X109050D01*
G01X110850D02*
X111525D01*
G01X112350D02*
X112725D01*
G01X112875D02*
X113175D01*
G01X114225D02*
X114525D01*
G01X115575D02*
X116100D01*
G01X118275D02*
X118800D01*
G01X119925D02*
X120300D01*
G01X121350D02*
X121800D01*
G01X123750D02*
X124275D01*
G01X126075D02*
X126600D01*
G01X128700D02*
X129300D01*
G01X131100D02*
X131700D01*
G01X80250Y136225D02*
X81075D01*
G01X83625D02*
X83925D01*
G01X86850D02*
X89325D01*
G01X90300D02*
X90675D01*
G01X92475D02*
X92775D01*
G01X93900D02*
X94200D01*
G01X96375D02*
X96825D01*
G01X98400D02*
X98850D01*
G01X101175D02*
X101775D01*
G01X103350D02*
X103800D01*
G01X105825D02*
X106425D01*
G01X107325D02*
X107625D01*
G01X108525D02*
X108900D01*
G01X110925D02*
X111450D01*
G01X112425D02*
X112725D01*
G01X112875D02*
X113175D01*
G01X114225D02*
X114525D01*
G01X115500D02*
X116025D01*
G01X118350D02*
X118875D01*
G01X119925D02*
X120300D01*
G01X121350D02*
X121725D01*
G01X123900D02*
X124275D01*
G01X126000D02*
X126525D01*
G01X128850D02*
X129375D01*
G01X131025D02*
X131550D01*
G01X80325Y136150D02*
X81225D01*
G01X83400D02*
X83850D01*
G01X87000D02*
X89325D01*
G01X90300D02*
X90675D01*
G01X92475D02*
X92775D01*
G01X93900D02*
X94125D01*
G01X96450D02*
X96900D01*
G01X98325D02*
X98775D01*
G01X101325D02*
X101775D01*
G01X103275D02*
X103800D01*
G01X105900D02*
X106350D01*
G01X107325D02*
X107625D01*
G01X108450D02*
X108825D01*
G01X111000D02*
X111450D01*
G01X112425D02*
X112725D01*
G01X112875D02*
X113175D01*
G01X114225D02*
X114525D01*
G01X115425D02*
X115875D01*
G01X118425D02*
X118950D01*
G01X119925D02*
X120300D01*
G01X121350D02*
X121650D01*
G01X123975D02*
X124350D01*
G01X126000D02*
X126375D01*
G01X128925D02*
X129375D01*
G01X131025D02*
X131475D01*
G01X80475Y136075D02*
X81750D01*
G01X83025D02*
X83775D01*
G01X87225D02*
X89475D01*
G01X90225D02*
X90675D01*
G01X92475D02*
X92775D01*
G01X93900D02*
X93975D01*
G01X96525D02*
X97050D01*
G01X98175D02*
X98700D01*
G01X101400D02*
X101925D01*
G01X103125D02*
X103650D01*
G01X105975D02*
X106350D01*
G01X107325D02*
X107625D01*
G01X108300D02*
X108825D01*
G01X111075D02*
X111450D01*
G01X112425D02*
X112800D01*
G01X112875D02*
X113175D01*
G01X114225D02*
X114525D01*
G01X115275D02*
X115875D01*
G01X118575D02*
X119025D01*
G01X119925D02*
X120300D01*
G01X121350D02*
X121575D01*
G01X123975D02*
X124500D01*
G01X125850D02*
X126300D01*
G01X129000D02*
X129525D01*
G01X130875D02*
X131400D01*
G01X80625Y136000D02*
X83475D01*
G01X88050D02*
X89550D01*
G01X90150D02*
X90600D01*
G01X92475D02*
X92775D01*
G01X93900D02*
X93975D01*
G01X96675D02*
X97050D01*
G01X98100D02*
X98550D01*
G01X101475D02*
X101925D01*
G01X103125D02*
X103500D01*
G01X106125D02*
X106350D01*
G01X107325D02*
X107625D01*
G01X108225D02*
X108600D01*
G01X111150D02*
X111375D01*
G01X112500D02*
X112800D01*
G01X112875D02*
X113175D01*
G01X114225D02*
X114525D01*
G01X115275D02*
X115725D01*
G01X118650D02*
X119100D01*
G01X119925D02*
X120300D01*
G01X121350D02*
X121425D01*
G01X124125D02*
X124575D01*
G01X125775D02*
X126225D01*
G01X129150D02*
X129600D01*
G01X130875D02*
X131250D01*
G01X79875Y135925D02*
X80325D01*
G01X80775D02*
X83250D01*
G01X88200D02*
X89625D01*
G01X90075D02*
X90600D01*
G01X92475D02*
X92775D01*
G01X96750D02*
X97050D01*
G01X98100D02*
X98475D01*
G01X101625D02*
X102000D01*
G01X103125D02*
X103425D01*
G01X106125D02*
X106350D01*
G01X107325D02*
X107625D01*
G01X108150D02*
X108600D01*
G01X111150D02*
X111375D01*
G01X112500D02*
X112800D01*
G01X112875D02*
X113175D01*
G01X114225D02*
X114525D01*
G01X115200D02*
X115575D01*
G01X118725D02*
X119175D01*
G01X119925D02*
X120300D01*
G01X124200D02*
X124575D01*
G01X125700D02*
X126150D01*
G01X129225D02*
X129675D01*
G01X130800D02*
X131175D01*
G01X79800Y135850D02*
X80400D01*
G01X80925D02*
X83025D01*
G01X87975D02*
X90525D01*
G01X92475D02*
X92775D01*
G01X96750D02*
X97125D01*
G01X98100D02*
X98400D01*
G01X101700D02*
X102075D01*
G01X103050D02*
X103425D01*
G01X106125D02*
X106200D01*
G01X107325D02*
X107625D01*
G01X108150D02*
X108525D01*
G01X111225D02*
X111300D01*
G01X112500D02*
X112800D01*
G01X112875D02*
X113175D01*
G01X114225D02*
X114525D01*
G01X115200D02*
X115575D01*
G01X118800D02*
X119250D01*
G01X119925D02*
X120300D01*
G01X124275D02*
X124650D01*
G01X125625D02*
X126075D01*
G01X129300D02*
X129675D01*
G01X130725D02*
X131100D01*
G01X79650Y135775D02*
X80550D01*
G01X81150D02*
X81900D01*
G01X82275D02*
X82575D01*
G01X85425D02*
X85950D01*
G01X87300D02*
X88950D01*
G01X89100D02*
X90525D01*
G01X92475D02*
X92775D01*
G01X96750D02*
X97200D01*
G01X97950D02*
X98400D01*
G01X99900D02*
X100200D01*
G01X101700D02*
X102150D01*
G01X102975D02*
X103425D01*
G01X106200D02*
X106275D01*
G01X107325D02*
X107625D01*
G01X108075D02*
X108525D01*
G01X111225D02*
X111300D01*
G01X112500D02*
X112800D01*
G01X112875D02*
X113175D01*
G01X114225D02*
X114525D01*
G01X115125D02*
X115575D01*
G01X117075D02*
X117300D01*
G01X118875D02*
X119250D01*
G01X119925D02*
X120300D01*
G01X124275D02*
X124650D01*
G01X125625D02*
X126000D01*
G01X129375D02*
X129750D01*
G01X130725D02*
X131025D01*
G01X79650Y135700D02*
X80025D01*
G01X80250D02*
X80550D01*
G01X81525D02*
X81900D01*
G01X85425D02*
X88575D01*
G01X89250D02*
X90375D01*
G01X92475D02*
X92775D01*
G01X96900D02*
X97275D01*
G01X97950D02*
X98325D01*
G01X99675D02*
X100425D01*
G01X101775D02*
X102150D01*
G01X102900D02*
X103275D01*
G01X107325D02*
X107625D01*
G01X108075D02*
X108375D01*
G01X112500D02*
X112800D01*
G01X112875D02*
X113175D01*
G01X114225D02*
X114525D01*
G01X115050D02*
X115425D01*
G01X116775D02*
X117600D01*
G01X118950D02*
X119325D01*
G01X119925D02*
X120300D01*
G01X124350D02*
X124725D01*
G01X125550D02*
X125925D01*
G01X129450D02*
X129825D01*
G01X130650D02*
X131025D01*
G01X79575Y135625D02*
X79950D01*
G01X80325D02*
X80550D01*
G01X81525D02*
X81900D01*
G01X85425D02*
X88425D01*
G01X89325D02*
X90300D01*
G01X92475D02*
X92775D01*
G01X94950D02*
X95250D01*
G01X96900D02*
X97275D01*
G01X97875D02*
X98250D01*
G01X99525D02*
X100575D01*
G01X101850D02*
X102225D01*
G01X102900D02*
X103200D01*
G01X104925D02*
X105225D01*
G01X107325D02*
X107625D01*
G01X108000D02*
X108375D01*
G01X110100D02*
X110400D01*
G01X112500D02*
X112800D01*
G01X112875D02*
X113175D01*
G01X114225D02*
X114525D01*
G01X114975D02*
X115350D01*
G01X116625D02*
X117750D01*
G01X118950D02*
X119325D01*
G01X119925D02*
X120300D01*
G01X122400D02*
X122700D01*
G01X124425D02*
X124725D01*
G01X125475D02*
X125850D01*
G01X127500D02*
X127875D01*
G01X129450D02*
X129825D01*
G01X130575D02*
X130950D01*
G01X79575Y135550D02*
X79950D01*
G01X80325D02*
X80550D01*
G01X81525D02*
X81900D01*
G01X85875D02*
X87450D01*
G01X87750D02*
X88275D01*
G01X89325D02*
X90225D01*
G01X92475D02*
X92775D01*
G01X94725D02*
X95475D01*
G01X96975D02*
X97350D01*
G01X97800D02*
X98175D01*
G01X99375D02*
X100725D01*
G01X101925D02*
X102300D01*
G01X102825D02*
X103200D01*
G01X104700D02*
X105450D01*
G01X107325D02*
X107625D01*
G01X107925D02*
X108300D01*
G01X109800D02*
X110550D01*
G01X112500D02*
X112800D01*
G01X112875D02*
X113175D01*
G01X114225D02*
X114525D01*
G01X114975D02*
X115350D01*
G01X116550D02*
X117900D01*
G01X119025D02*
X119400D01*
G01X119925D02*
X120300D01*
G01X122175D02*
X123000D01*
G01X124425D02*
X124800D01*
G01X125475D02*
X125850D01*
G01X127275D02*
X128025D01*
G01X129525D02*
X129900D01*
G01X130575D02*
X130950D01*
G01X79575Y135475D02*
X79950D01*
G01X80400D02*
X80475D01*
G01X81450D02*
X81825D01*
G01X86400D02*
X86475D01*
G01X87825D02*
X88050D01*
G01X89475D02*
X90075D01*
G01X92475D02*
X92775D01*
G01X94500D02*
X95625D01*
G01X97050D02*
X97350D01*
G01X97800D02*
X98175D01*
G01X99300D02*
X100800D01*
G01X101925D02*
X102300D01*
G01X102825D02*
X103125D01*
G01X104550D02*
X105600D01*
G01X107325D02*
X107625D01*
G01X107925D02*
X108300D01*
G01X109650D02*
X110775D01*
G01X112500D02*
X112800D01*
G01X112875D02*
X113175D01*
G01X114225D02*
X114525D01*
G01X114900D02*
X115275D01*
G01X116475D02*
X117900D01*
G01X119100D02*
X119475D01*
G01X119925D02*
X120300D01*
G01X121950D02*
X123075D01*
G01X124500D02*
X124800D01*
G01X125400D02*
X125775D01*
G01X127125D02*
X128250D01*
G01X129600D02*
X129900D01*
G01X130500D02*
X130875D01*
G01X79575Y135400D02*
X79950D01*
G01X80400D02*
X80625D01*
G01X81450D02*
X81825D01*
G01X87825D02*
X88050D01*
G01X89625D02*
X89850D01*
G01X92475D02*
X92775D01*
G01X94350D02*
X95775D01*
G01X97050D02*
X97425D01*
G01X97725D02*
X98100D01*
G01X99150D02*
X99975D01*
G01X100125D02*
X100950D01*
G01X102000D02*
X102375D01*
G01X102750D02*
X103125D01*
G01X104400D02*
X105825D01*
G01X107325D02*
X107625D01*
G01X107850D02*
X108225D01*
G01X109500D02*
X110850D01*
G01X112500D02*
X112800D01*
G01X112875D02*
X113175D01*
G01X114225D02*
X114525D01*
G01X114900D02*
X115200D01*
G01X116250D02*
X117150D01*
G01X117225D02*
X118050D01*
G01X119100D02*
X119550D01*
G01X119925D02*
X120300D01*
G01X121800D02*
X123300D01*
G01X124500D02*
X124875D01*
G01X125325D02*
X125700D01*
G01X126975D02*
X128400D01*
G01X129600D02*
X129975D01*
G01X130500D02*
X130875D01*
G01X132075D02*
X133500D01*
G01X79575Y135325D02*
X79950D01*
G01X80475D02*
X80550D01*
G01X81375D02*
X81750D01*
G01X87900D02*
X88125D01*
G01X92475D02*
X92775D01*
G01X94275D02*
X94875D01*
G01X95250D02*
X95850D01*
G01X97050D02*
X97425D01*
G01X97725D02*
X98100D01*
G01X99075D02*
X99600D01*
G01X100500D02*
X101025D01*
G01X102075D02*
X102450D01*
G01X102750D02*
X103125D01*
G01X104325D02*
X104925D01*
G01X105225D02*
X105825D01*
G01X107325D02*
X107625D01*
G01X107850D02*
X108150D01*
G01X109425D02*
X110025D01*
G01X110400D02*
X110925D01*
G01X112500D02*
X112800D01*
G01X112875D02*
X113175D01*
G01X114225D02*
X114525D01*
G01X114900D02*
X115200D01*
G01X116250D02*
X116700D01*
G01X117675D02*
X118125D01*
G01X119250D02*
X119550D01*
G01X119925D02*
X120300D01*
G01X121725D02*
X122400D01*
G01X122700D02*
X123300D01*
G01X124575D02*
X124950D01*
G01X125325D02*
X125625D01*
G01X126900D02*
X127500D01*
G01X127875D02*
X128475D01*
G01X129675D02*
X130050D01*
G01X130425D02*
X130800D01*
G01X132075D02*
X132675D01*
G01X79575Y135250D02*
X79950D01*
G01X80475D02*
X80700D01*
G01X81375D02*
X81750D01*
G01X87900D02*
X88125D01*
G01X92475D02*
X92775D01*
G01X94200D02*
X94725D01*
G01X95400D02*
X95925D01*
G01X97050D02*
X97425D01*
G01X97725D02*
X98025D01*
G01X99075D02*
X99450D01*
G01X100650D02*
X101100D01*
G01X102075D02*
X102450D01*
G01X102750D02*
X103050D01*
G01X104250D02*
X104775D01*
G01X105450D02*
X105900D01*
G01X107325D02*
X107625D01*
G01X107850D02*
X108150D01*
G01X109350D02*
X109875D01*
G01X110550D02*
X111000D01*
G01X112500D02*
X112800D01*
G01X112875D02*
X113175D01*
G01X114225D02*
X114525D01*
G01X114825D02*
X115200D01*
G01X116250D02*
X116625D01*
G01X117750D02*
X118200D01*
G01X119250D02*
X119550D01*
G01X119925D02*
X120300D01*
G01X121650D02*
X122250D01*
G01X122925D02*
X123375D01*
G01X124650D02*
X124950D01*
G01X125325D02*
X125625D01*
G01X126825D02*
X127350D01*
G01X128025D02*
X128550D01*
G01X129675D02*
X130050D01*
G01X130425D02*
X130725D01*
G01X132000D02*
X132450D01*
G01X79575Y135175D02*
X79950D01*
G01X80475D02*
X80700D01*
G01X81375D02*
X81750D01*
G01X87975D02*
X88050D01*
G01X92475D02*
X92775D01*
G01X94125D02*
X94650D01*
G01X95475D02*
X95925D01*
G01X97125D02*
X97425D01*
G01X97725D02*
X98025D01*
G01X99075D02*
X99375D01*
G01X100725D02*
X101100D01*
G01X102075D02*
X102450D01*
G01X102750D02*
X103050D01*
G01X104175D02*
X104625D01*
G01X105525D02*
X105975D01*
G01X107325D02*
X107625D01*
G01X107850D02*
X108150D01*
G01X109350D02*
X109800D01*
G01X110625D02*
X111075D01*
G01X112500D02*
X112800D01*
G01X112875D02*
X113175D01*
G01X114225D02*
X114525D01*
G01X114825D02*
X115125D01*
G01X116175D02*
X116550D01*
G01X117825D02*
X118275D01*
G01X119250D02*
X119625D01*
G01X119925D02*
X120300D01*
G01X121650D02*
X122100D01*
G01X123000D02*
X123450D01*
G01X124650D02*
X124950D01*
G01X125325D02*
X125625D01*
G01X126750D02*
X127200D01*
G01X128100D02*
X128550D01*
G01X129675D02*
X130050D01*
G01X130350D02*
X130725D01*
G01X131925D02*
X132375D01*
G01X79575Y135100D02*
X80025D01*
G01X80550D02*
X80775D01*
G01X81300D02*
X81675D01*
G01X87975D02*
X88200D01*
G01X92475D02*
X92775D01*
G01X94050D02*
X94500D01*
G01X95625D02*
X96075D01*
G01X97125D02*
X97500D01*
G01X97650D02*
X97950D01*
G01X99000D02*
X99375D01*
G01X100725D02*
X101100D01*
G01X102150D02*
X102450D01*
G01X102675D02*
X102975D01*
G01X104100D02*
X104550D01*
G01X105600D02*
X106050D01*
G01X107325D02*
X107625D01*
G01X107775D02*
X108150D01*
G01X109200D02*
X109650D01*
G01X110700D02*
X111150D01*
G01X112500D02*
X112800D01*
G01X112875D02*
X113175D01*
G01X114225D02*
X114525D01*
G01X114750D02*
X115125D01*
G01X116100D02*
X116475D01*
G01X117900D02*
X118275D01*
G01X119250D02*
X119625D01*
G01X119925D02*
X120300D01*
G01X121575D02*
X121950D01*
G01X123075D02*
X123525D01*
G01X124650D02*
X124950D01*
G01X125250D02*
X125625D01*
G01X126675D02*
X127125D01*
G01X128250D02*
X128700D01*
G01X129750D02*
X130050D01*
G01X130350D02*
X130725D01*
G01X131850D02*
X132300D01*
G01X79575Y135025D02*
X80025D01*
G01X80550D02*
X80775D01*
G01X81300D02*
X81675D01*
G01X87975D02*
X88200D01*
G01X92475D02*
X92775D01*
G01X94050D02*
X94350D01*
G01X95700D02*
X96075D01*
G01X97200D02*
X97500D01*
G01X97575D02*
X97950D01*
G01X98925D02*
X99300D01*
G01X100800D02*
X101175D01*
G01X102150D02*
X102525D01*
G01X102675D02*
X102975D01*
G01X104100D02*
X104475D01*
G01X105750D02*
X106125D01*
G01X107325D02*
X107625D01*
G01X107775D02*
X108075D01*
G01X109200D02*
X109575D01*
G01X110850D02*
X111150D01*
G01X112500D02*
X112800D01*
G01X112875D02*
X113175D01*
G01X114225D02*
X114525D01*
G01X114750D02*
X115050D01*
G01X116100D02*
X116400D01*
G01X117975D02*
X118275D01*
G01X119325D02*
X119625D01*
G01X119925D02*
X120300D01*
G01X121575D02*
X121950D01*
G01X123225D02*
X123600D01*
G01X124650D02*
X124950D01*
G01X125250D02*
X125550D01*
G01X126675D02*
X126975D01*
G01X128325D02*
X128700D01*
G01X129825D02*
X130125D01*
G01X130350D02*
X130725D01*
G01X131775D02*
X132150D01*
G01X79575Y134950D02*
X80025D01*
G01X80550D02*
X80775D01*
G01X81300D02*
X81675D01*
G01X87975D02*
X88200D01*
G01X92475D02*
X92775D01*
G01X94050D02*
X94350D01*
G01X95700D02*
X96075D01*
G01X97200D02*
X97500D01*
G01X97575D02*
X97875D01*
G01X98925D02*
X99225D01*
G01X100875D02*
X101175D01*
G01X102225D02*
X102525D01*
G01X102600D02*
X102900D01*
G01X104100D02*
X104400D01*
G01X105825D02*
X106125D01*
G01X107325D02*
X107625D01*
G01X107775D02*
X108075D01*
G01X109200D02*
X109500D01*
G01X110850D02*
X111225D01*
G01X112500D02*
X112800D01*
G01X112875D02*
X113175D01*
G01X114225D02*
X114525D01*
G01X114750D02*
X115050D01*
G01X116025D02*
X116325D01*
G01X117975D02*
X118275D01*
G01X119325D02*
X119625D01*
G01X119925D02*
X120300D01*
G01X121500D02*
X121875D01*
G01X123225D02*
X123600D01*
G01X124650D02*
X124950D01*
G01X125250D02*
X125550D01*
G01X126675D02*
X126975D01*
G01X128325D02*
X128700D01*
G01X129825D02*
X130125D01*
G01X130350D02*
X130650D01*
G01X131775D02*
X132075D01*
G01X79650Y134875D02*
X80025D01*
G01X80550D02*
X80850D01*
G01X81300D02*
X81600D01*
G01X87975D02*
X88200D01*
G01X92475D02*
X92775D01*
G01X94050D02*
X94350D01*
G01X95775D02*
X96075D01*
G01X97200D02*
X97875D01*
G01X98850D02*
X99225D01*
G01X100875D02*
X101175D01*
G01X102225D02*
X102900D01*
G01X104025D02*
X104400D01*
G01X105825D02*
X106125D01*
G01X107325D02*
X107625D01*
G01X107700D02*
X108075D01*
G01X109200D02*
X109500D01*
G01X110925D02*
X111225D01*
G01X112500D02*
X112800D01*
G01X112875D02*
X113175D01*
G01X114225D02*
X114525D01*
G01X114675D02*
X114975D01*
G01X116025D02*
X116325D01*
G01X117975D02*
X118350D01*
G01X119400D02*
X119700D01*
G01X119925D02*
X120300D01*
G01X121500D02*
X121800D01*
G01X123300D02*
X123600D01*
G01X124725D02*
X125025D01*
G01X125175D02*
X125475D01*
G01X126600D02*
X126975D01*
G01X128400D02*
X128700D01*
G01X129825D02*
X130125D01*
G01X130350D02*
X130650D01*
G01X131700D02*
X132075D01*
G01X79650Y134800D02*
X80100D01*
G01X80550D02*
X80850D01*
G01X81225D02*
X81600D01*
G01X87975D02*
X88200D01*
G01X92475D02*
X92775D01*
G01X93975D02*
X94350D01*
G01X95775D02*
X96150D01*
G01X97275D02*
X97875D01*
G01X98850D02*
X99150D01*
G01X100875D02*
X101250D01*
G01X102225D02*
X102900D01*
G01X104025D02*
X104325D01*
G01X105825D02*
X106125D01*
G01X107325D02*
X107625D01*
G01X107700D02*
X108000D01*
G01X109125D02*
X109500D01*
G01X110925D02*
X111225D01*
G01X112500D02*
X112800D01*
G01X112875D02*
X113175D01*
G01X114225D02*
X114525D01*
G01X114675D02*
X114975D01*
G01X116025D02*
X116325D01*
G01X118050D02*
X118350D01*
G01X119400D02*
X119700D01*
G01X119925D02*
X120300D01*
G01X121425D02*
X121800D01*
G01X123300D02*
X123600D01*
G01X124725D02*
X125025D01*
G01X125175D02*
X125475D01*
G01X126600D02*
X126900D01*
G01X128400D02*
X128775D01*
G01X129825D02*
X130125D01*
G01X130350D02*
X130650D01*
G01X131700D02*
X132075D01*
G01X79650Y134725D02*
X80100D01*
G01X80625D02*
X80925D01*
G01X81225D02*
X81600D01*
G01X87975D02*
X88275D01*
G01X92475D02*
X92775D01*
G01X93975D02*
X94275D01*
G01X95850D02*
X96150D01*
G01X97275D02*
X97800D01*
G01X98850D02*
X101250D01*
G01X102300D02*
X102900D01*
G01X103950D02*
X104325D01*
G01X105825D02*
X106200D01*
G01X107325D02*
X108000D01*
G01X109050D02*
X109425D01*
G01X111000D02*
X111300D01*
G01X112500D02*
X112800D01*
G01X112875D02*
X113175D01*
G01X114225D02*
X114525D01*
G01X114600D02*
X114975D01*
G01X115950D02*
X118425D01*
G01X119400D02*
X119700D01*
G01X119925D02*
X120300D01*
G01X121425D02*
X121725D01*
G01X123300D02*
X123675D01*
G01X124725D02*
X125025D01*
G01X125175D02*
X125475D01*
G01X126525D02*
X126900D01*
G01X128475D02*
X128775D01*
G01X129900D02*
X130200D01*
G01X130275D02*
X130575D01*
G01X131700D02*
X132075D01*
G01X79725Y134650D02*
X80175D01*
G01X80625D02*
X80925D01*
G01X81225D02*
X81600D01*
G01X88050D02*
X88275D01*
G01X92475D02*
X92775D01*
G01X93900D02*
X94200D01*
G01X95925D02*
X96225D01*
G01X97275D02*
X97800D01*
G01X98775D02*
X101250D01*
G01X102300D02*
X102825D01*
G01X103950D02*
X104250D01*
G01X105900D02*
X106200D01*
G01X107325D02*
X108000D01*
G01X109050D02*
X109350D01*
G01X111000D02*
X111300D01*
G01X112500D02*
X112800D01*
G01X112875D02*
X113175D01*
G01X114225D02*
X114525D01*
G01X114600D02*
X114900D01*
G01X115950D02*
X118425D01*
G01X119400D02*
X119700D01*
G01X119925D02*
X120300D01*
G01X121425D02*
X121725D01*
G01X123375D02*
X123675D01*
G01X124725D02*
X125025D01*
G01X125100D02*
X125400D01*
G01X126525D02*
X126825D01*
G01X128550D02*
X128850D01*
G01X129900D02*
X130200D01*
G01X130275D02*
X130575D01*
G01X131700D02*
X132000D01*
G01X79725Y134575D02*
X80175D01*
G01X80700D02*
X80925D01*
G01X81225D02*
X81600D01*
G01X88050D02*
X88275D01*
G01X92475D02*
X92775D01*
G01X93900D02*
X94200D01*
G01X95925D02*
X96225D01*
G01X97275D02*
X97800D01*
G01X98775D02*
X101250D01*
G01X102300D02*
X102825D01*
G01X103950D02*
X104250D01*
G01X105900D02*
X106200D01*
G01X107325D02*
X107925D01*
G01X109050D02*
X109350D01*
G01X111075D02*
X111375D01*
G01X112500D02*
X112800D01*
G01X112875D02*
X113175D01*
G01X114225D02*
X114525D01*
G01X114600D02*
X114900D01*
G01X115950D02*
X118425D01*
G01X119475D02*
X119775D01*
G01X119925D02*
X120300D01*
G01X121350D02*
X121650D01*
G01X123375D02*
X123675D01*
G01X124800D02*
X125400D01*
G01X126525D02*
X126825D01*
G01X128550D02*
X128850D01*
G01X129900D02*
X130575D01*
G01X131625D02*
X131925D01*
G01X79725Y134500D02*
X80175D01*
G01X80700D02*
X80925D01*
G01X81225D02*
X81600D01*
G01X88050D02*
X88275D01*
G01X92475D02*
X92775D01*
G01X93900D02*
X94200D01*
G01X95925D02*
X96225D01*
G01X97275D02*
X97800D01*
G01X98775D02*
X101325D01*
G01X102300D02*
X102825D01*
G01X103875D02*
X104175D01*
G01X105900D02*
X106275D01*
G01X107325D02*
X107925D01*
G01X109050D02*
X109350D01*
G01X111075D02*
X111375D01*
G01X112500D02*
X112800D01*
G01X112875D02*
X113175D01*
G01X114225D02*
X114525D01*
G01X114600D02*
X114900D01*
G01X115875D02*
X118425D01*
G01X119475D02*
X119775D01*
G01X119925D02*
X120300D01*
G01X121350D02*
X121650D01*
G01X123375D02*
X123675D01*
G01X124800D02*
X125400D01*
G01X126450D02*
X126750D01*
G01X128550D02*
X128850D01*
G01X129900D02*
X130575D01*
G01X131625D02*
X131925D01*
G01X79800Y134425D02*
X80250D01*
G01X80700D02*
X81000D01*
G01X81225D02*
X81600D01*
G01X88050D02*
X88275D01*
G01X92475D02*
X92775D01*
G01X93825D02*
X94200D01*
G01X95925D02*
X96300D01*
G01X97350D02*
X97725D01*
G01X98775D02*
X101325D01*
G01X102300D02*
X102825D01*
G01X103875D02*
X104175D01*
G01X105975D02*
X106275D01*
G01X107325D02*
X107925D01*
G01X108975D02*
X109275D01*
G01X111075D02*
X111375D01*
G01X112500D02*
X112800D01*
G01X112875D02*
X113175D01*
G01X114225D02*
X114525D01*
G01X114600D02*
X114900D01*
G01X115875D02*
X118425D01*
G01X119475D02*
X119775D01*
G01X119925D02*
X120300D01*
G01X121350D02*
X121650D01*
G01X123450D02*
X123750D01*
G01X124800D02*
X125400D01*
G01X126450D02*
X126750D01*
G01X128550D02*
X128850D01*
G01X129975D02*
X130575D01*
G01X131625D02*
X131925D01*
G01X79800Y134350D02*
X80250D01*
G01X80775D02*
X81000D01*
G01X81225D02*
X81600D01*
G01X88050D02*
X88275D01*
G01X92475D02*
X92775D01*
G01X93825D02*
X94125D01*
G01X96000D02*
X96300D01*
G01X97350D02*
X97725D01*
G01X102375D02*
X102825D01*
G01X103875D02*
X104175D01*
G01X105975D02*
X106275D01*
G01X107325D02*
X107925D01*
G01X108975D02*
X109275D01*
G01X111075D02*
X111375D01*
G01X112500D02*
X112800D01*
G01X112875D02*
X113175D01*
G01X114225D02*
X114900D01*
G01X119475D02*
X119775D01*
G01X119925D02*
X120300D01*
G01X121350D02*
X121650D01*
G01X123450D02*
X123750D01*
G01X124800D02*
X125400D01*
G01X126450D02*
X126750D01*
G01X128625D02*
X128925D01*
G01X129975D02*
X130500D01*
G01X131625D02*
X131925D01*
G01X79875Y134275D02*
X80250D01*
G01X80850D02*
X81075D01*
G01X81225D02*
X81600D01*
G01X88050D02*
X88275D01*
G01X92475D02*
X92775D01*
G01X93825D02*
X94125D01*
G01X96000D02*
X96300D01*
G01X97350D02*
X97725D01*
G01X102375D02*
X102750D01*
G01X103875D02*
X104175D01*
G01X105975D02*
X106275D01*
G01X107325D02*
X107925D01*
G01X108975D02*
X109275D01*
G01X111075D02*
X111450D01*
G01X112500D02*
X112800D01*
G01X112875D02*
X113175D01*
G01X114225D02*
X114900D01*
G01X119475D02*
X119775D01*
G01X119925D02*
X120300D01*
G01X121350D02*
X121650D01*
G01X123450D02*
X123750D01*
G01X124800D02*
X125400D01*
G01X126450D02*
X126750D01*
G01X128625D02*
X128925D01*
G01X129975D02*
X130500D01*
G01X131625D02*
X131925D01*
G01X79875Y134200D02*
X80250D01*
G01X80850D02*
X81075D01*
G01X81150D02*
X81600D01*
G01X88125D02*
X88200D01*
G01X92475D02*
X92775D01*
G01X93825D02*
X94125D01*
G01X96000D02*
X96300D01*
G01X97350D02*
X97725D01*
G01X102375D02*
X102750D01*
G01X103875D02*
X104175D01*
G01X105975D02*
X106275D01*
G01X107325D02*
X107925D01*
G01X108975D02*
X109275D01*
G01X111150D02*
X111450D01*
G01X112500D02*
X112800D01*
G01X112875D02*
X113175D01*
G01X114225D02*
X114900D01*
G01X119475D02*
X119775D01*
G01X119925D02*
X120300D01*
G01X121275D02*
X121650D01*
G01X123450D02*
X123750D01*
G01X124800D02*
X125400D01*
G01X126450D02*
X126750D01*
G01X128625D02*
X128925D01*
G01X129975D02*
X130500D01*
G01X131550D02*
X131850D01*
G01X79875Y134125D02*
X80325D01*
G01X80925D02*
X81600D01*
G01X87000D02*
X87075D01*
G01X88125D02*
X88200D01*
G01X92475D02*
X92775D01*
G01X93825D02*
X94125D01*
G01X96000D02*
X96300D01*
G01X97350D02*
X97725D01*
G01X102300D02*
X102750D01*
G01X103875D02*
X104175D01*
G01X105975D02*
X106275D01*
G01X107325D02*
X107925D01*
G01X108975D02*
X109275D01*
G01X111150D02*
X111450D01*
G01X112500D02*
X112800D01*
G01X112875D02*
X113175D01*
G01X114225D02*
X114900D01*
G01X119475D02*
X119775D01*
G01X119925D02*
X120300D01*
G01X121275D02*
X121650D01*
G01X123450D02*
X123750D01*
G01X124800D02*
X125400D01*
G01X126450D02*
X126750D01*
G01X128625D02*
X128925D01*
G01X129975D02*
X130500D01*
G01X131550D02*
X131850D01*
G01X79875Y134050D02*
X80325D01*
G01X80925D02*
X81525D01*
G01X87000D02*
X87075D01*
G01X88125D02*
X88200D01*
G01X92475D02*
X92775D01*
G01X93825D02*
X94125D01*
G01X96000D02*
X96300D01*
G01X97350D02*
X97725D01*
G01X102300D02*
X102750D01*
G01X103875D02*
X104175D01*
G01X105975D02*
X106275D01*
G01X107325D02*
X107925D01*
G01X108975D02*
X109275D01*
G01X111150D02*
X111450D01*
G01X112500D02*
X112800D01*
G01X112875D02*
X113175D01*
G01X114225D02*
X114900D01*
G01X119475D02*
X119775D01*
G01X119925D02*
X120300D01*
G01X121350D02*
X121650D01*
G01X123450D02*
X123750D01*
G01X124800D02*
X125400D01*
G01X126450D02*
X126750D01*
G01X128625D02*
X128925D01*
G01X129975D02*
X130500D01*
G01X131550D02*
X131850D01*
G01X79950Y133975D02*
X80400D01*
G01X81000D02*
X81525D01*
G01X82500D02*
X82575D01*
G01X87000D02*
X87225D01*
G01X88125D02*
X88350D01*
G01X92475D02*
X92775D01*
G01X93825D02*
X94125D01*
G01X96000D02*
X96300D01*
G01X97350D02*
X97725D01*
G01X102300D02*
X102750D01*
G01X103875D02*
X104175D01*
G01X105975D02*
X106275D01*
G01X107325D02*
X107925D01*
G01X108975D02*
X109275D01*
G01X111150D02*
X111450D01*
G01X112500D02*
X112800D01*
G01X112875D02*
X113175D01*
G01X114225D02*
X114900D01*
G01X119400D02*
X119700D01*
G01X119925D02*
X120300D01*
G01X121350D02*
X121650D01*
G01X123450D02*
X123750D01*
G01X124800D02*
X125400D01*
G01X126450D02*
X126750D01*
G01X128625D02*
X128925D01*
G01X129975D02*
X130500D01*
G01X131625D02*
X131925D01*
G01X79950Y133900D02*
X80400D01*
G01X81000D02*
X81525D01*
G01X82425D02*
X82500D01*
G01X87000D02*
X87225D01*
G01X88125D02*
X88350D01*
G01X92475D02*
X92775D01*
G01X93900D02*
X94125D01*
G01X96000D02*
X96300D01*
G01X97350D02*
X97725D01*
G01X102225D02*
X102750D01*
G01X103875D02*
X104175D01*
G01X105975D02*
X106275D01*
G01X107325D02*
X107925D01*
G01X108975D02*
X109275D01*
G01X111150D02*
X111450D01*
G01X112500D02*
X112800D01*
G01X112875D02*
X113175D01*
G01X114225D02*
X114900D01*
G01X119400D02*
X119700D01*
G01X119925D02*
X120300D01*
G01X121350D02*
X121650D01*
G01X123450D02*
X123750D01*
G01X124800D02*
X125400D01*
G01X126450D02*
X126750D01*
G01X128625D02*
X128925D01*
G01X129975D02*
X130500D01*
G01X131625D02*
X131925D01*
G01X80025Y133825D02*
X80475D01*
G01X81075D02*
X81525D01*
G01X82425D02*
X82500D01*
G01X87000D02*
X87225D01*
G01X88125D02*
X88350D01*
G01X92475D02*
X92775D01*
G01X93900D02*
X94200D01*
G01X96000D02*
X96300D01*
G01X97350D02*
X97725D01*
G01X102150D02*
X102750D01*
G01X103875D02*
X104175D01*
G01X105975D02*
X106275D01*
G01X107325D02*
X107925D01*
G01X108975D02*
X109275D01*
G01X111150D02*
X111450D01*
G01X112500D02*
X112800D01*
G01X112875D02*
X113175D01*
G01X114225D02*
X114525D01*
G01X114600D02*
X114900D01*
G01X119250D02*
X119700D01*
G01X119925D02*
X120300D01*
G01X121350D02*
X121650D01*
G01X123450D02*
X123750D01*
G01X124800D02*
X125400D01*
G01X126450D02*
X126750D01*
G01X128625D02*
X128925D01*
G01X129975D02*
X130500D01*
G01X131625D02*
X131925D01*
G01X80025Y133750D02*
X80550D01*
G01X81150D02*
X81525D01*
G01X82425D02*
X82500D01*
G01X87000D02*
X87225D01*
G01X88125D02*
X88350D01*
G01X92475D02*
X92775D01*
G01X93900D02*
X94200D01*
G01X95925D02*
X96300D01*
G01X97350D02*
X97725D01*
G01X98850D02*
X102825D01*
G01X103875D02*
X104175D01*
G01X105975D02*
X106275D01*
G01X107325D02*
X107925D01*
G01X108975D02*
X109350D01*
G01X111075D02*
X111375D01*
G01X112500D02*
X112800D01*
G01X112875D02*
X113175D01*
G01X114225D02*
X114525D01*
G01X114600D02*
X114900D01*
G01X115950D02*
X119625D01*
G01X119925D02*
X120300D01*
G01X121350D02*
X121650D01*
G01X123450D02*
X123750D01*
G01X124800D02*
X125400D01*
G01X126450D02*
X126750D01*
G01X128550D02*
X128850D01*
G01X129975D02*
X130575D01*
G01X131625D02*
X131925D01*
G01X80100Y133675D02*
X80550D01*
G01X81225D02*
X81525D01*
G01X82425D02*
X82500D01*
G01X87000D02*
X87225D01*
G01X88125D02*
X88350D01*
G01X92475D02*
X92775D01*
G01X93900D02*
X94200D01*
G01X95925D02*
X96225D01*
G01X97350D02*
X97800D01*
G01X98850D02*
X102450D01*
G01X102525D02*
X102825D01*
G01X103875D02*
X104175D01*
G01X105900D02*
X106200D01*
G01X107325D02*
X107925D01*
G01X109050D02*
X109350D01*
G01X111075D02*
X111375D01*
G01X112500D02*
X112800D01*
G01X112875D02*
X113175D01*
G01X114225D02*
X114525D01*
G01X114600D02*
X114900D01*
G01X115950D02*
X119625D01*
G01X119925D02*
X120300D01*
G01X121350D02*
X121650D01*
G01X123375D02*
X123675D01*
G01X124800D02*
X125400D01*
G01X126525D02*
X126825D01*
G01X128550D02*
X128850D01*
G01X129900D02*
X130575D01*
G01X131625D02*
X131925D01*
G01X80100Y133600D02*
X80550D01*
G01X81225D02*
X81525D01*
G01X82425D02*
X82500D01*
G01X87000D02*
X87300D01*
G01X88125D02*
X88350D01*
G01X92475D02*
X92775D01*
G01X93900D02*
X94200D01*
G01X95925D02*
X96225D01*
G01X97275D02*
X97800D01*
G01X98850D02*
X102375D01*
G01X102525D02*
X102825D01*
G01X103950D02*
X104250D01*
G01X105900D02*
X106200D01*
G01X107325D02*
X107925D01*
G01X109050D02*
X109350D01*
G01X111075D02*
X111375D01*
G01X112500D02*
X112800D01*
G01X112875D02*
X113175D01*
G01X114225D02*
X114525D01*
G01X114600D02*
X114900D01*
G01X115950D02*
X119475D01*
G01X119925D02*
X120300D01*
G01X121425D02*
X121725D01*
G01X123375D02*
X123675D01*
G01X124800D02*
X125400D01*
G01X126525D02*
X126825D01*
G01X128550D02*
X128850D01*
G01X129900D02*
X130575D01*
G01X131625D02*
X132000D01*
G01X80175Y133525D02*
X80550D01*
G01X81300D02*
X81525D01*
G01X82425D02*
X82500D01*
G01X87000D02*
X87300D01*
G01X88125D02*
X88350D01*
G01X92475D02*
X92775D01*
G01X93975D02*
X94275D01*
G01X95850D02*
X96225D01*
G01X97275D02*
X97800D01*
G01X98850D02*
X102225D01*
G01X102525D02*
X102825D01*
G01X103950D02*
X104250D01*
G01X105900D02*
X106200D01*
G01X107325D02*
X108000D01*
G01X109050D02*
X109350D01*
G01X111000D02*
X111375D01*
G01X112500D02*
X112800D01*
G01X112875D02*
X113175D01*
G01X114225D02*
X114525D01*
G01X114600D02*
X114900D01*
G01X116025D02*
X119325D01*
G01X119925D02*
X120300D01*
G01X121425D02*
X121725D01*
G01X123375D02*
X123675D01*
G01X124800D02*
X125400D01*
G01X126525D02*
X126825D01*
G01X128475D02*
X128850D01*
G01X129900D02*
X130575D01*
G01X131700D02*
X132000D01*
G01X80175Y133450D02*
X80625D01*
G01X81300D02*
X81525D01*
G01X82350D02*
X82575D01*
G01X87000D02*
X87300D01*
G01X88125D02*
X88350D01*
G01X92475D02*
X92775D01*
G01X93975D02*
X94350D01*
G01X95850D02*
X96150D01*
G01X97275D02*
X97800D01*
G01X98925D02*
X99225D01*
G01X102525D02*
X102900D01*
G01X103950D02*
X104325D01*
G01X105825D02*
X106200D01*
G01X107325D02*
X108000D01*
G01X109125D02*
X109425D01*
G01X111000D02*
X111300D01*
G01X112500D02*
X112800D01*
G01X112875D02*
X113175D01*
G01X114225D02*
X114525D01*
G01X114600D02*
X114975D01*
G01X116025D02*
X116400D01*
G01X119925D02*
X120300D01*
G01X121425D02*
X121800D01*
G01X123300D02*
X123600D01*
G01X124725D02*
X125475D01*
G01X126525D02*
X126900D01*
G01X128475D02*
X128775D01*
G01X129900D02*
X130200D01*
G01X130275D02*
X130575D01*
G01X131700D02*
X132075D01*
G01X80250Y133375D02*
X80700D01*
G01X81450D02*
X81525D01*
G01X82350D02*
X82575D01*
G01X87000D02*
X87300D01*
G01X88125D02*
X88350D01*
G01X92475D02*
X92775D01*
G01X94050D02*
X94350D01*
G01X95775D02*
X96150D01*
G01X97275D02*
X97875D01*
G01X98925D02*
X99300D01*
G01X101700D02*
X102000D01*
G01X102600D02*
X102900D01*
G01X104025D02*
X104325D01*
G01X105825D02*
X106125D01*
G01X107325D02*
X108000D01*
G01X109125D02*
X109500D01*
G01X110925D02*
X111300D01*
G01X112500D02*
X112800D01*
G01X112875D02*
X113175D01*
G01X114225D02*
X114525D01*
G01X114675D02*
X114975D01*
G01X116100D02*
X116400D01*
G01X118800D02*
X119100D01*
G01X119925D02*
X120300D01*
G01X121500D02*
X121800D01*
G01X123300D02*
X123600D01*
G01X124725D02*
X125025D01*
G01X125175D02*
X125475D01*
G01X126600D02*
X126900D01*
G01X128400D02*
X128775D01*
G01X129900D02*
X130200D01*
G01X130350D02*
X130650D01*
G01X131700D02*
X132075D01*
G01X80250Y133300D02*
X80700D01*
G01X82350D02*
X82575D01*
G01X87000D02*
X87300D01*
G01X88125D02*
X88350D01*
G01X92475D02*
X92775D01*
G01X94050D02*
X94350D01*
G01X95775D02*
X96075D01*
G01X97275D02*
X97875D01*
G01X99000D02*
X99300D01*
G01X101475D02*
X102075D01*
G01X102600D02*
X102900D01*
G01X104025D02*
X104400D01*
G01X105825D02*
X106125D01*
G01X107325D02*
X107625D01*
G01X107700D02*
X108000D01*
G01X109200D02*
X109500D01*
G01X110925D02*
X111225D01*
G01X112500D02*
X112800D01*
G01X112875D02*
X113175D01*
G01X114225D02*
X114525D01*
G01X114675D02*
X114975D01*
G01X116100D02*
X116475D01*
G01X118575D02*
X119250D01*
G01X119925D02*
X120300D01*
G01X121500D02*
X121875D01*
G01X123300D02*
X123600D01*
G01X124725D02*
X125025D01*
G01X125175D02*
X125475D01*
G01X126600D02*
X126975D01*
G01X128325D02*
X128700D01*
G01X129825D02*
X130125D01*
G01X130350D02*
X130650D01*
G01X131700D02*
X132075D01*
G01X80250Y133225D02*
X80775D01*
G01X82350D02*
X82575D01*
G01X87000D02*
X87300D01*
G01X88125D02*
X88350D01*
G01X92475D02*
X92775D01*
G01X94050D02*
X94350D01*
G01X95700D02*
X96075D01*
G01X97200D02*
X97875D01*
G01X99000D02*
X99375D01*
G01X101400D02*
X102225D01*
G01X102600D02*
X102900D01*
G01X104100D02*
X104475D01*
G01X105750D02*
X106125D01*
G01X107325D02*
X107625D01*
G01X107700D02*
X108000D01*
G01X109200D02*
X109500D01*
G01X110850D02*
X111225D01*
G01X112500D02*
X112800D01*
G01X112875D02*
X113175D01*
G01X114225D02*
X114525D01*
G01X114750D02*
X114975D01*
G01X116100D02*
X116475D01*
G01X118500D02*
X119325D01*
G01X119925D02*
X120300D01*
G01X121575D02*
X121950D01*
G01X123225D02*
X123600D01*
G01X124650D02*
X125025D01*
G01X125250D02*
X125550D01*
G01X126675D02*
X126975D01*
G01X128325D02*
X128700D01*
G01X129825D02*
X130125D01*
G01X130350D02*
X130650D01*
G01X131775D02*
X132075D01*
G01X80325Y133150D02*
X80775D01*
G01X82350D02*
X82575D01*
G01X87000D02*
X87300D01*
G01X88125D02*
X88350D01*
G01X92475D02*
X92775D01*
G01X94050D02*
X94425D01*
G01X95700D02*
X96075D01*
G01X97200D02*
X97500D01*
G01X97575D02*
X97875D01*
G01X99075D02*
X99375D01*
G01X101250D02*
X102300D01*
G01X102600D02*
X102975D01*
G01X104100D02*
X104475D01*
G01X105750D02*
X106125D01*
G01X107325D02*
X107625D01*
G01X107775D02*
X108075D01*
G01X109200D02*
X109575D01*
G01X110850D02*
X111150D01*
G01X112500D02*
X112800D01*
G01X112875D02*
X113175D01*
G01X114225D02*
X114525D01*
G01X114750D02*
X115050D01*
G01X116175D02*
X116550D01*
G01X118350D02*
X119400D01*
G01X119925D02*
X120300D01*
G01X121575D02*
X121950D01*
G01X123150D02*
X123525D01*
G01X124650D02*
X124950D01*
G01X125250D02*
X125550D01*
G01X126675D02*
X126975D01*
G01X128325D02*
X128700D01*
G01X129825D02*
X130125D01*
G01X130350D02*
X130650D01*
G01X131775D02*
X132150D01*
G01X80325Y133075D02*
X80925D01*
G01X82350D02*
X82575D01*
G01X87000D02*
X87300D01*
G01X88125D02*
X88350D01*
G01X92475D02*
X92775D01*
G01X94125D02*
X94575D01*
G01X95550D02*
X96075D01*
G01X97125D02*
X97500D01*
G01X97650D02*
X97950D01*
G01X99075D02*
X99525D01*
G01X101025D02*
X102450D01*
G01X102675D02*
X102975D01*
G01X104100D02*
X104550D01*
G01X105600D02*
X106050D01*
G01X107325D02*
X107625D01*
G01X107775D02*
X108075D01*
G01X109200D02*
X109650D01*
G01X110700D02*
X111150D01*
G01X112500D02*
X112800D01*
G01X112875D02*
X113175D01*
G01X114225D02*
X114525D01*
G01X114750D02*
X115125D01*
G01X116250D02*
X116625D01*
G01X118125D02*
X119550D01*
G01X119925D02*
X120300D01*
G01X121650D02*
X122025D01*
G01X123000D02*
X123525D01*
G01X124650D02*
X124950D01*
G01X125250D02*
X125625D01*
G01X126675D02*
X127200D01*
G01X128175D02*
X128700D01*
G01X129750D02*
X130125D01*
G01X130350D02*
X130725D01*
G01X131850D02*
X132300D01*
G01X80400Y133000D02*
X80925D01*
G01X82350D02*
X82575D01*
G01X83850D02*
X83925D01*
G01X85725D02*
X85800D01*
G01X87075D02*
X87300D01*
G01X88125D02*
X88350D01*
G01X92475D02*
X92775D01*
G01X94200D02*
X94650D01*
G01X95475D02*
X95925D01*
G01X97125D02*
X97425D01*
G01X97650D02*
X98025D01*
G01X99150D02*
X99675D01*
G01X100875D02*
X101550D01*
G01X102075D02*
X102450D01*
G01X102675D02*
X103050D01*
G01X104175D02*
X104700D01*
G01X105450D02*
X105975D01*
G01X107325D02*
X107625D01*
G01X107775D02*
X108150D01*
G01X109350D02*
X109800D01*
G01X110625D02*
X111075D01*
G01X112500D02*
X112800D01*
G01X112875D02*
X113175D01*
G01X114225D02*
X114525D01*
G01X114825D02*
X115125D01*
G01X116250D02*
X116775D01*
G01X117975D02*
X118650D01*
G01X119175D02*
X119625D01*
G01X119925D02*
X120300D01*
G01X121650D02*
X122175D01*
G01X123000D02*
X123375D01*
G01X124650D02*
X124950D01*
G01X125325D02*
X125625D01*
G01X126750D02*
X127275D01*
G01X128100D02*
X128550D01*
G01X129675D02*
X130050D01*
G01X130350D02*
X130725D01*
G01X131925D02*
X132375D01*
G01X80475Y132925D02*
X80925D01*
G01X82350D02*
X82575D01*
G01X83850D02*
X83925D01*
G01X85725D02*
X85800D01*
G01X87075D02*
X87300D01*
G01X88125D02*
X88350D01*
G01X92475D02*
X92775D01*
G01X94275D02*
X94725D01*
G01X95400D02*
X95850D01*
G01X97050D02*
X97425D01*
G01X97725D02*
X98025D01*
G01X99225D02*
X99750D01*
G01X100725D02*
X101400D01*
G01X102075D02*
X102450D01*
G01X102750D02*
X103050D01*
G01X104250D02*
X104775D01*
G01X105375D02*
X105900D01*
G01X107325D02*
X107625D01*
G01X107850D02*
X108150D01*
G01X109350D02*
X109875D01*
G01X110550D02*
X111000D01*
G01X112500D02*
X112800D01*
G01X112875D02*
X113175D01*
G01X114225D02*
X114525D01*
G01X114825D02*
X115200D01*
G01X116325D02*
X116925D01*
G01X117900D02*
X118575D01*
G01X119250D02*
X119625D01*
G01X119925D02*
X120300D01*
G01X121725D02*
X122325D01*
G01X122850D02*
X123300D01*
G01X124650D02*
X124950D01*
G01X125325D02*
X125625D01*
G01X126825D02*
X127350D01*
G01X128025D02*
X128475D01*
G01X129675D02*
X130050D01*
G01X130425D02*
X130725D01*
G01X132000D02*
X132525D01*
G01X80550Y132850D02*
X81000D01*
G01X82350D02*
X82575D01*
G01X83850D02*
X83925D01*
G01X85725D02*
X85800D01*
G01X87075D02*
X87300D01*
G01X88125D02*
X88350D01*
G01X92475D02*
X92775D01*
G01X94350D02*
X95775D01*
G01X97050D02*
X97425D01*
G01X97725D02*
X98100D01*
G01X99300D02*
X99975D01*
G01X100500D02*
X101325D01*
G01X102150D02*
X102450D01*
G01X102750D02*
X103125D01*
G01X104325D02*
X105825D01*
G01X107325D02*
X107625D01*
G01X107850D02*
X108150D01*
G01X109425D02*
X110925D01*
G01X112500D02*
X112800D01*
G01X112875D02*
X113175D01*
G01X114225D02*
X114525D01*
G01X114900D02*
X115200D01*
G01X116400D02*
X117150D01*
G01X117675D02*
X118425D01*
G01X119250D02*
X119625D01*
G01X119925D02*
X120300D01*
G01X121800D02*
X123300D01*
G01X124575D02*
X124875D01*
G01X125325D02*
X125625D01*
G01X126900D02*
X128400D01*
G01X129675D02*
X130050D01*
G01X130425D02*
X130725D01*
G01X132075D02*
X133575D01*
G01X80550Y132775D02*
X81075D01*
G01X82350D02*
X82575D01*
G01X83775D02*
X83925D01*
G01X85650D02*
X85875D01*
G01X87075D02*
X87300D01*
G01X88125D02*
X88350D01*
G01X92475D02*
X92775D01*
G01X94350D02*
X95700D01*
G01X97050D02*
X97425D01*
G01X97725D02*
X98100D01*
G01X99375D02*
X101175D01*
G01X102150D02*
X102525D01*
G01X102750D02*
X103125D01*
G01X104400D02*
X105825D01*
G01X107325D02*
X107625D01*
G01X107850D02*
X108150D01*
G01X109500D02*
X110850D01*
G01X112500D02*
X112800D01*
G01X112875D02*
X113175D01*
G01X114225D02*
X114525D01*
G01X114900D02*
X115200D01*
G01X116475D02*
X118350D01*
G01X119325D02*
X119625D01*
G01X119925D02*
X120300D01*
G01X121875D02*
X123225D01*
G01X124500D02*
X124875D01*
G01X125325D02*
X125700D01*
G01X126975D02*
X128325D01*
G01X129600D02*
X130050D01*
G01X130425D02*
X130800D01*
G01X132075D02*
X133500D01*
G01X80550Y132700D02*
X81150D01*
G01X82350D02*
X82575D01*
G01X83775D02*
X83850D01*
G01X85650D02*
X85875D01*
G01X87075D02*
X87300D01*
G01X88125D02*
X88200D01*
G01X92475D02*
X92775D01*
G01X94575D02*
X95550D01*
G01X96975D02*
X97350D01*
G01X97800D02*
X98100D01*
G01X99525D02*
X100950D01*
G01X102225D02*
X102525D01*
G01X102825D02*
X103125D01*
G01X104625D02*
X105525D01*
G01X107325D02*
X107625D01*
G01X107850D02*
X108225D01*
G01X109725D02*
X110700D01*
G01X112500D02*
X112800D01*
G01X112875D02*
X113175D01*
G01X114225D02*
X114525D01*
G01X114900D02*
X115275D01*
G01X116700D02*
X118050D01*
G01X119325D02*
X119625D01*
G01X119925D02*
X120300D01*
G01X122025D02*
X123000D01*
G01X124425D02*
X124800D01*
G01X125400D02*
X125775D01*
G01X127200D02*
X128175D01*
G01X129600D02*
X129975D01*
G01X130500D02*
X130875D01*
G01X80625Y132625D02*
X81150D01*
G01X82350D02*
X82575D01*
G01X83775D02*
X83850D01*
G01X85650D02*
X85875D01*
G01X87075D02*
X87300D01*
G01X88125D02*
X88200D01*
G01X92475D02*
X92775D01*
G01X94725D02*
X95400D01*
G01X96975D02*
X97275D01*
G01X97800D02*
X98175D01*
G01X99750D02*
X100725D01*
G01X102225D02*
X102525D01*
G01X102825D02*
X103200D01*
G01X104775D02*
X105450D01*
G01X107325D02*
X107625D01*
G01X107925D02*
X108225D01*
G01X109875D02*
X110550D01*
G01X112500D02*
X112800D01*
G01X112875D02*
X113175D01*
G01X114225D02*
X114525D01*
G01X114975D02*
X115275D01*
G01X116925D02*
X117900D01*
G01X119325D02*
X119625D01*
G01X119925D02*
X120300D01*
G01X122250D02*
X122850D01*
G01X124425D02*
X124800D01*
G01X125475D02*
X125850D01*
G01X127350D02*
X128025D01*
G01X129525D02*
X129900D01*
G01X130575D02*
X130950D01*
G01X80700Y132550D02*
X81225D01*
G01X82350D02*
X82575D01*
G01X83775D02*
X83850D01*
G01X85650D02*
X85875D01*
G01X87075D02*
X87300D01*
G01X88125D02*
X88200D01*
G01X92475D02*
X92775D01*
G01X96900D02*
X97275D01*
G01X97875D02*
X98250D01*
G01X99975D02*
X100500D01*
G01X102225D02*
X102525D01*
G01X102900D02*
X103200D01*
G01X107325D02*
X107625D01*
G01X107925D02*
X108300D01*
G01X112500D02*
X112800D01*
G01X112875D02*
X113175D01*
G01X114225D02*
X114525D01*
G01X114975D02*
X115350D01*
G01X117150D02*
X117675D01*
G01X119325D02*
X119625D01*
G01X119925D02*
X120300D01*
G01X124350D02*
X124725D01*
G01X125475D02*
X125850D01*
G01X129450D02*
X129825D01*
G01X130575D02*
X130950D01*
G01X80700Y132475D02*
X81225D01*
G01X82350D02*
X82575D01*
G01X83775D02*
X83850D01*
G01X85650D02*
X85875D01*
G01X87075D02*
X87300D01*
G01X88125D02*
X88200D01*
G01X92475D02*
X92775D01*
G01X96825D02*
X97200D01*
G01X97875D02*
X98250D01*
G01X102150D02*
X102525D01*
G01X102900D02*
X103275D01*
G01X107325D02*
X107625D01*
G01X108000D02*
X108300D01*
G01X112500D02*
X112800D01*
G01X112875D02*
X113175D01*
G01X114225D02*
X114525D01*
G01X115050D02*
X115425D01*
G01X119325D02*
X119625D01*
G01X119925D02*
X120300D01*
G01X124350D02*
X124650D01*
G01X125550D02*
X125925D01*
G01X129450D02*
X129825D01*
G01X130650D02*
X131025D01*
G01X80775Y132400D02*
X81300D01*
G01X82350D02*
X82575D01*
G01X83775D02*
X83850D01*
G01X85650D02*
X85875D01*
G01X87075D02*
X87300D01*
G01X88050D02*
X88275D01*
G01X92475D02*
X92775D01*
G01X93975D02*
X94050D01*
G01X96750D02*
X97200D01*
G01X97950D02*
X98400D01*
G01X102075D02*
X102450D01*
G01X102975D02*
X103350D01*
G01X106200D02*
X106275D01*
G01X107325D02*
X107625D01*
G01X108000D02*
X108450D01*
G01X112500D02*
X112800D01*
G01X112875D02*
X113175D01*
G01X114225D02*
X114525D01*
G01X115050D02*
X115575D01*
G01X119250D02*
X119625D01*
G01X119925D02*
X120300D01*
G01X121425D02*
X121500D01*
G01X124275D02*
X124650D01*
G01X125550D02*
X126000D01*
G01X129375D02*
X129750D01*
G01X130725D02*
X131025D01*
G01X80925Y132325D02*
X81375D01*
G01X82350D02*
X82575D01*
G01X83775D02*
X83850D01*
G01X85650D02*
X85875D01*
G01X87075D02*
X87300D01*
G01X88050D02*
X88275D01*
G01X92475D02*
X92775D01*
G01X93900D02*
X93975D01*
G01X96750D02*
X97050D01*
G01X98025D02*
X98400D01*
G01X102075D02*
X102450D01*
G01X103050D02*
X103425D01*
G01X106125D02*
X106200D01*
G01X107325D02*
X107625D01*
G01X108075D02*
X108450D01*
G01X112500D02*
X112800D01*
G01X112875D02*
X113175D01*
G01X114225D02*
X114525D01*
G01X115200D02*
X115575D01*
G01X119250D02*
X119625D01*
G01X119925D02*
X120300D01*
G01X121425D02*
X121500D01*
G01X124200D02*
X124650D01*
G01X125625D02*
X126000D01*
G01X129300D02*
X129675D01*
G01X130725D02*
X131100D01*
G01X80925Y132250D02*
X81450D01*
G01X82350D02*
X82575D01*
G01X83775D02*
X83850D01*
G01X85650D02*
X85875D01*
G01X87075D02*
X87300D01*
G01X88050D02*
X88275D01*
G01X92475D02*
X92775D01*
G01X93900D02*
X93975D01*
G01X96675D02*
X97050D01*
G01X98100D02*
X98475D01*
G01X102000D02*
X102450D01*
G01X103125D02*
X103425D01*
G01X106125D02*
X106200D01*
G01X107325D02*
X107625D01*
G01X108150D02*
X108525D01*
G01X111150D02*
X111375D01*
G01X112500D02*
X112800D01*
G01X112875D02*
X113175D01*
G01X114225D02*
X114525D01*
G01X115200D02*
X115575D01*
G01X119175D02*
X119550D01*
G01X119925D02*
X120300D01*
G01X121350D02*
X121575D01*
G01X124125D02*
X124575D01*
G01X125700D02*
X126075D01*
G01X129225D02*
X129675D01*
G01X130800D02*
X131175D01*
G01X80925Y132175D02*
X81525D01*
G01X82350D02*
X82575D01*
G01X83775D02*
X83850D01*
G01X85650D02*
X85875D01*
G01X87075D02*
X87300D01*
G01X88050D02*
X88275D01*
G01X92475D02*
X92775D01*
G01X93900D02*
X94125D01*
G01X96600D02*
X97050D01*
G01X98100D02*
X98550D01*
G01X101925D02*
X102375D01*
G01X103125D02*
X103500D01*
G01X106050D02*
X106350D01*
G01X107325D02*
X107625D01*
G01X108150D02*
X108525D01*
G01X111150D02*
X111375D01*
G01X112500D02*
X112800D01*
G01X112875D02*
X113175D01*
G01X114225D02*
X114525D01*
G01X115200D02*
X115725D01*
G01X119025D02*
X119475D01*
G01X119925D02*
X120300D01*
G01X121350D02*
X121650D01*
G01X124050D02*
X124500D01*
G01X125775D02*
X126225D01*
G01X129150D02*
X129600D01*
G01X130800D02*
X131250D01*
G01X81000Y132100D02*
X81600D01*
G01X82350D02*
X82575D01*
G01X83775D02*
X83925D01*
G01X85575D02*
X85875D01*
G01X87075D02*
X87300D01*
G01X87975D02*
X88275D01*
G01X92475D02*
X92850D01*
G01X93825D02*
X94200D01*
G01X96450D02*
X96975D01*
G01X98175D02*
X98700D01*
G01X101775D02*
X102300D01*
G01X103125D02*
X103650D01*
G01X105975D02*
X106350D01*
G01X107325D02*
X107625D01*
G01X108150D02*
X108675D01*
G01X111000D02*
X111375D01*
G01X112500D02*
X112800D01*
G01X112875D02*
X113175D01*
G01X114225D02*
X114525D01*
G01X115275D02*
X115875D01*
G01X118875D02*
X119475D01*
G01X120000D02*
X120300D01*
G01X121350D02*
X121650D01*
G01X123975D02*
X124425D01*
G01X125775D02*
X126300D01*
G01X129000D02*
X129525D01*
G01X130875D02*
X131400D01*
G01X81075Y132025D02*
X81600D01*
G01X82350D02*
X82575D01*
G01X83850D02*
X83925D01*
G01X85575D02*
X85875D01*
G01X87075D02*
X87300D01*
G01X87975D02*
X88275D01*
G01X92550D02*
X92850D01*
G01X93825D02*
X94275D01*
G01X96375D02*
X96825D01*
G01X98325D02*
X98775D01*
G01X101625D02*
X102150D01*
G01X103275D02*
X103800D01*
G01X105900D02*
X106425D01*
G01X107325D02*
X107625D01*
G01X108300D02*
X108750D01*
G01X110925D02*
X111375D01*
G01X112500D02*
X112800D01*
G01X112875D02*
X113175D01*
G01X114225D02*
X114525D01*
G01X115425D02*
X115950D01*
G01X118800D02*
X119325D01*
G01X120000D02*
X120300D01*
G01X121275D02*
X121725D01*
G01X123900D02*
X124275D01*
G01X125925D02*
X126375D01*
G01X128925D02*
X129375D01*
G01X131025D02*
X131475D01*
G01X81150Y131950D02*
X81600D01*
G01X82350D02*
X82575D01*
G01X83850D02*
X83925D01*
G01X85575D02*
X85875D01*
G01X87075D02*
X87300D01*
G01X87975D02*
X88275D01*
G01X92550D02*
X92850D01*
G01X93750D02*
X94350D01*
G01X96300D02*
X96750D01*
G01X98400D02*
X98925D01*
G01X101475D02*
X102075D01*
G01X103350D02*
X103800D01*
G01X105825D02*
X106425D01*
G01X107325D02*
X107625D01*
G01X108375D02*
X108825D01*
G01X110850D02*
X111375D01*
G01X112500D02*
X112800D01*
G01X112875D02*
X113250D01*
G01X114150D02*
X114525D01*
G01X115500D02*
X116025D01*
G01X118650D02*
X119250D01*
G01X120000D02*
X120375D01*
G01X121275D02*
X121800D01*
G01X123750D02*
X124275D01*
G01X126000D02*
X126525D01*
G01X128850D02*
X129375D01*
G01X131025D02*
X131550D01*
G01X81225Y131875D02*
X81675D01*
G01X82350D02*
X82575D01*
G01X83850D02*
X83925D01*
G01X85575D02*
X85875D01*
G01X87075D02*
X87300D01*
G01X87975D02*
X88200D01*
G01X92550D02*
X92925D01*
G01X93750D02*
X94425D01*
G01X96225D02*
X96750D01*
G01X98400D02*
X99075D01*
G01X101400D02*
X102075D01*
G01X103425D02*
X103950D01*
G01X105750D02*
X106500D01*
G01X107250D02*
X107550D01*
G01X108450D02*
X108900D01*
G01X110850D02*
X111375D01*
G01X112500D02*
X112800D01*
G01X112950D02*
X113250D01*
G01X114150D02*
X114450D01*
G01X115575D02*
X116175D01*
G01X118575D02*
X119175D01*
G01X120075D02*
X120375D01*
G01X121275D02*
X121950D01*
G01X123675D02*
X124200D01*
G01X126075D02*
X126675D01*
G01X128700D02*
X129300D01*
G01X131100D02*
X131700D01*
G01X81225Y131800D02*
X81675D01*
G01X82350D02*
X82575D01*
G01X83850D02*
X83925D01*
G01X85575D02*
X85875D01*
G01X87075D02*
X87300D01*
G01X87975D02*
X88200D01*
G01X92625D02*
X93000D01*
G01X93675D02*
X94500D01*
G01X96075D02*
X96675D01*
G01X98550D02*
X99150D01*
G01X101250D02*
X101925D01*
G01X103425D02*
X104100D01*
G01X105600D02*
X106500D01*
G01X107175D02*
X107550D01*
G01X108525D02*
X109050D01*
G01X110700D02*
X111375D01*
G01X112500D02*
X112800D01*
G01X112950D02*
X113325D01*
G01X114075D02*
X114450D01*
G01X115650D02*
X116250D01*
G01X118350D02*
X119025D01*
G01X120075D02*
X120450D01*
G01X121200D02*
X121950D01*
G01X123600D02*
X124125D01*
G01X126150D02*
X126750D01*
G01X128625D02*
X129225D01*
G01X131175D02*
X131775D01*
G01X81225Y131725D02*
X81750D01*
G01X82275D02*
X82575D01*
G01X83850D02*
X83925D01*
G01X85575D02*
X85875D01*
G01X87075D02*
X87300D01*
G01X87975D02*
X88200D01*
G01X92625D02*
X93225D01*
G01X93450D02*
X94800D01*
G01X95775D02*
X96600D01*
G01X98625D02*
X99525D01*
G01X100725D02*
X101775D01*
G01X103575D02*
X104400D01*
G01X105375D02*
X106800D01*
G01X106875D02*
X107550D01*
G01X108525D02*
X109350D01*
G01X110400D02*
X111375D01*
G01X112500D02*
X112800D01*
G01X113025D02*
X113550D01*
G01X113850D02*
X114375D01*
G01X115725D02*
X116625D01*
G01X117900D02*
X118950D01*
G01X120150D02*
X120675D01*
G01X120975D02*
X122325D01*
G01X123300D02*
X124050D01*
G01X126225D02*
X127050D01*
G01X128250D02*
X129075D01*
G01X131325D02*
X132075D01*
G01X81300Y131650D02*
X81750D01*
G01X82275D02*
X82575D01*
G01X83850D02*
X83925D01*
G01X85575D02*
X85800D01*
G01X87075D02*
X87300D01*
G01X87975D02*
X88050D01*
G01X92700D02*
X93975D01*
G01X94275D02*
X95100D01*
G01X95400D02*
X96375D01*
G01X98850D02*
X100050D01*
G01X100350D02*
X101550D01*
G01X103800D02*
X104850D01*
G01X105000D02*
X105900D01*
G01X106200D02*
X107475D01*
G01X108750D02*
X111000D01*
G01X111075D02*
X111375D01*
G01X112425D02*
X112800D01*
G01X113100D02*
X114300D01*
G01X115950D02*
X117150D01*
G01X117450D02*
X118725D01*
G01X120225D02*
X121425D01*
G01X121725D02*
X122625D01*
G01X122925D02*
X123900D01*
G01X126450D02*
X127500D01*
G01X127800D02*
X128925D01*
G01X131475D02*
X132600D01*
G01X81300Y131575D02*
X81750D01*
G01X82275D02*
X82575D01*
G01X83850D02*
X83925D01*
G01X85575D02*
X85800D01*
G01X87075D02*
X87300D01*
G01X87975D02*
X88050D01*
G01X92775D02*
X93900D01*
G01X94350D02*
X96300D01*
G01X99000D02*
X101400D01*
G01X103875D02*
X105825D01*
G01X106275D02*
X107400D01*
G01X108825D02*
X110850D01*
G01X111075D02*
X111375D01*
G01X112425D02*
X112725D01*
G01X113175D02*
X114225D01*
G01X116100D02*
X118575D01*
G01X120300D02*
X121350D01*
G01X121800D02*
X123750D01*
G01X126525D02*
X128775D01*
G01X131550D02*
X133500D01*
G01X81375Y131500D02*
X81750D01*
G01X82275D02*
X82500D01*
G01X83850D02*
X83925D01*
G01X85575D02*
X85800D01*
G01X87075D02*
X87300D01*
G01X87900D02*
X88125D01*
G01X92850D02*
X93825D01*
G01X94425D02*
X96150D01*
G01X99075D02*
X101250D01*
G01X104025D02*
X105750D01*
G01X106350D02*
X107325D01*
G01X108975D02*
X110775D01*
G01X111075D02*
X111375D01*
G01X112425D02*
X112725D01*
G01X113250D02*
X114225D01*
G01X116250D02*
X118350D01*
G01X120375D02*
X121275D01*
G01X121950D02*
X123600D01*
G01X126675D02*
X128700D01*
G01X131700D02*
X133425D01*
G01X81375Y131425D02*
X81825D01*
G01X82275D02*
X82500D01*
G01X83850D02*
X83925D01*
G01X85575D02*
X85800D01*
G01X87150D02*
X87225D01*
G01X87900D02*
X88125D01*
G01X93000D02*
X93675D01*
G01X94575D02*
X96000D01*
G01X99300D02*
X101100D01*
G01X104175D02*
X105525D01*
G01X106500D02*
X107175D01*
G01X109125D02*
X110625D01*
G01X111000D02*
X111375D01*
G01X112425D02*
X112725D01*
G01X113400D02*
X114075D01*
G01X116475D02*
X118200D01*
G01X120525D02*
X121200D01*
G01X122100D02*
X123450D01*
G01X126900D02*
X128475D01*
G01X131850D02*
X133275D01*
G01X81375Y131350D02*
X81825D01*
G01X82275D02*
X82500D01*
G01X83850D02*
X83925D01*
G01X85575D02*
X85800D01*
G01X87150D02*
X87225D01*
G01X87825D02*
X88125D01*
G01X95175D02*
X95400D01*
G01X99975D02*
X100350D01*
G01X104775D02*
X105075D01*
G01X109725D02*
X110025D01*
G01X111000D02*
X111300D01*
G01X112425D02*
X112725D01*
G01X117075D02*
X117450D01*
G01X122625D02*
X122925D01*
G01X127500D02*
X127800D01*
G01X81375Y131275D02*
X81900D01*
G01X82275D02*
X82500D01*
G01X83850D02*
X83925D01*
G01X85575D02*
X85800D01*
G01X87150D02*
X87225D01*
G01X87825D02*
X88200D01*
G01X108150D02*
X108750D01*
G01X110925D02*
X111300D01*
G01X112350D02*
X112725D01*
G01X81225Y131200D02*
X81825D01*
G01X82275D02*
X82500D01*
G01X83850D02*
X83925D01*
G01X85575D02*
X85800D01*
G01X87150D02*
X87225D01*
G01X87825D02*
X88275D01*
G01X108075D02*
X108900D01*
G01X110850D02*
X111225D01*
G01X112350D02*
X112650D01*
G01X81225Y131125D02*
X81675D01*
G01X82275D02*
X82500D01*
G01X83850D02*
X83925D01*
G01X85575D02*
X85800D01*
G01X87150D02*
X87225D01*
G01X87975D02*
X88350D01*
G01X108000D02*
X109050D01*
G01X110850D02*
X111225D01*
G01X112350D02*
X112650D01*
G01X81000Y131050D02*
X81600D01*
G01X82275D02*
X82500D01*
G01X83850D02*
X83925D01*
G01X85575D02*
X85800D01*
G01X87150D02*
X87225D01*
G01X88125D02*
X88575D01*
G01X107850D02*
X109425D01*
G01X110625D02*
X111150D01*
G01X112275D02*
X112650D01*
G01X80925Y130975D02*
X81375D01*
G01X82275D02*
X82500D01*
G01X83850D02*
X84075D01*
G01X85575D02*
X85800D01*
G01X87150D02*
X87225D01*
G01X88275D02*
X88650D01*
G01X107850D02*
X108225D01*
G01X108675D02*
X109575D01*
G01X110550D02*
X111075D01*
G01X112275D02*
X112575D01*
G01X80925Y130900D02*
X81300D01*
G01X82275D02*
X82500D01*
G01X83850D02*
X84075D01*
G01X85575D02*
X85800D01*
G01X87150D02*
X87225D01*
G01X88350D02*
X88650D01*
G01X107850D02*
X108150D01*
G01X108825D02*
X111000D01*
G01X112200D02*
X112575D01*
G01X80925Y130825D02*
X81225D01*
G01X82275D02*
X82500D01*
G01X83850D02*
X84075D01*
G01X85575D02*
X85650D01*
G01X87150D02*
X87225D01*
G01X88425D02*
X88650D01*
G01X107775D02*
X108150D01*
G01X109050D02*
X110925D01*
G01X112200D02*
X112500D01*
G01X80775Y130750D02*
X81225D01*
G01X82275D02*
X82500D01*
G01X83850D02*
X84075D01*
G01X85575D02*
X85650D01*
G01X87150D02*
X87225D01*
G01X88500D02*
X88800D01*
G01X107775D02*
X108075D01*
G01X109200D02*
X110850D01*
G01X112200D02*
X112500D01*
G01X80775Y130675D02*
X81150D01*
G01X82275D02*
X82500D01*
G01X83925D02*
X84000D01*
G01X85575D02*
X85650D01*
G01X87150D02*
X87225D01*
G01X88575D02*
X88800D01*
G01X107700D02*
X108000D01*
G01X109575D02*
X110550D01*
G01X112125D02*
X112500D01*
G01X80700Y130600D02*
X81075D01*
G01X82275D02*
X82350D01*
G01X83925D02*
X84000D01*
G01X85575D02*
X85650D01*
G01X87150D02*
X87375D01*
G01X88650D02*
X88875D01*
G01X107700D02*
X108000D01*
G01X109950D02*
X110175D01*
G01X112125D02*
X112425D01*
G01X80700Y130525D02*
X81000D01*
G01X82275D02*
X82350D01*
G01X83925D02*
X84000D01*
G01X85575D02*
X85650D01*
G01X87225D02*
X87300D01*
G01X88650D02*
X88875D01*
G01X107700D02*
X108000D01*
G01X112050D02*
X112425D01*
G01X80625Y130450D02*
X81000D01*
G01X82275D02*
X82350D01*
G01X83925D02*
X84000D01*
G01X85575D02*
X85650D01*
G01X87225D02*
X87300D01*
G01X88650D02*
X88875D01*
G01X107700D02*
X108000D01*
G01X111975D02*
X112350D01*
G01X80550Y130375D02*
X81000D01*
G01X82200D02*
X82425D01*
G01X83925D02*
X84000D01*
G01X85575D02*
X85650D01*
G01X87225D02*
X87450D01*
G01X88650D02*
X88950D01*
G01X107775D02*
X108075D01*
G01X111825D02*
X112350D01*
G01X80550Y130300D02*
X80925D01*
G01X82125D02*
X82350D01*
G01X83925D02*
X84000D01*
G01X85575D02*
X85650D01*
G01X87300D02*
X87375D01*
G01X88650D02*
X88950D01*
G01X107775D02*
X108150D01*
G01X111825D02*
X112200D01*
G01X80550Y130225D02*
X80925D01*
G01X82125D02*
X82350D01*
G01X83925D02*
X84000D01*
G01X85500D02*
X85725D01*
G01X87300D02*
X87525D01*
G01X88725D02*
X88950D01*
G01X107850D02*
X108150D01*
G01X111750D02*
X112200D01*
G01X80550Y130150D02*
X80925D01*
G01X82125D02*
X82200D01*
G01X83925D02*
X85650D01*
G01X87300D02*
X87525D01*
G01X88725D02*
X88950D01*
G01X107850D02*
X108225D01*
G01X111675D02*
X112125D01*
G01X80550Y130075D02*
X80925D01*
G01X82050D02*
X82275D01*
G01X83925D02*
X85650D01*
G01X87300D02*
X87600D01*
G01X88650D02*
X88950D01*
G01X107850D02*
X108525D01*
G01X111525D02*
X112050D01*
G01X80550Y130000D02*
X80925D01*
G01X81975D02*
X82275D01*
G01X83925D02*
X85650D01*
G01X87375D02*
X87600D01*
G01X88650D02*
X88950D01*
G01X108000D02*
X108600D01*
G01X111375D02*
X111900D01*
G01X80550Y129925D02*
X80925D01*
G01X81975D02*
X82200D01*
G01X83925D02*
X85650D01*
G01X87450D02*
X87525D01*
G01X88650D02*
X88950D01*
G01X108075D02*
X108750D01*
G01X111225D02*
X111825D01*
G01X80550Y129850D02*
X81000D01*
G01X81900D02*
X82200D01*
G01X83925D02*
X85650D01*
G01X87450D02*
X87675D01*
G01X88650D02*
X88950D01*
G01X108150D02*
X108900D01*
G01X111075D02*
X111750D01*
G01X80550Y129775D02*
X81000D01*
G01X81900D02*
X82125D01*
G01X83925D02*
X84300D01*
G01X85200D02*
X85650D01*
G01X87525D02*
X87600D01*
G01X88650D02*
X88875D01*
G01X108300D02*
X109200D01*
G01X110850D02*
X111675D01*
G01X80625Y129700D02*
X81225D01*
G01X81900D02*
X82125D01*
G01X83925D02*
X84300D01*
G01X85200D02*
X85650D01*
G01X87525D02*
X87750D01*
G01X88500D02*
X88875D01*
G01X108450D02*
X111525D01*
G01X80625Y129625D02*
X81525D01*
G01X81825D02*
X82050D01*
G01X83925D02*
X84300D01*
G01X85200D02*
X85650D01*
G01X87600D02*
X87825D01*
G01X88275D02*
X88800D01*
G01X108750D02*
X111225D01*
G01X80700Y129550D02*
X82050D01*
G01X83925D02*
X84300D01*
G01X85200D02*
X85725D01*
G01X87600D02*
X88800D01*
G01X108900D02*
X111150D01*
G01X80775Y129475D02*
X81975D01*
G01X83925D02*
X84300D01*
G01X85200D02*
X85725D01*
G01X87600D02*
X88725D01*
G01X109200D02*
X110850D01*
G01X80850Y129400D02*
X81975D01*
G01X83775D02*
X84225D01*
G01X85275D02*
X85875D01*
G01X87600D02*
X88650D01*
G01X109500D02*
X110550D01*
G01X81000Y129325D02*
X81975D01*
G01X83775D02*
X84225D01*
G01X85275D02*
X85950D01*
G01X87675D02*
X88425D01*
G01X81225Y129250D02*
X81975D01*
G01X83625D02*
X84150D01*
G01X85275D02*
X85950D01*
G01X87675D02*
X88275D01*
G01X81525Y129175D02*
X81975D01*
G01X83625D02*
X84150D01*
G01X85275D02*
X86025D01*
G01X87600D02*
X87975D01*
G01X81525Y129100D02*
X81975D01*
G01X83550D02*
X84075D01*
G01X85350D02*
X86175D01*
G01X87600D02*
X87975D01*
G01X81525Y129025D02*
X82200D01*
G01X83250D02*
X84000D01*
G01X85425D02*
X86475D01*
G01X87525D02*
X87975D01*
G01X81525Y128950D02*
X82500D01*
G01X82800D02*
X83925D01*
G01X85500D02*
X86850D01*
G01X87150D02*
X87975D01*
G01X81600Y128875D02*
X83925D01*
G01X85575D02*
X87975D01*
G01X81600Y128800D02*
X83850D01*
G01X85650D02*
X87900D01*
G01X81600Y128725D02*
X83700D01*
G01X85725D02*
X87900D01*
G01X81750Y128650D02*
X83550D01*
G01X85950D02*
X87750D01*
G01X81900Y128575D02*
X83325D01*
G01X86100D02*
X87600D01*
G01X81975Y128500D02*
X83175D01*
G01X86250D02*
X87450D01*
G01X165920Y37600D02*
X173960D01*
G01X165800Y37480D02*
X174080D01*
G01X165680Y37360D02*
X174080D01*
G01X165680Y37240D02*
X174080D01*
G01X165680Y37120D02*
X174200D01*
G01X165560Y37000D02*
X174320D01*
G01X165440Y36880D02*
X174440D01*
G01X165440Y36760D02*
X174440D01*
G01X165320Y36640D02*
X174440D01*
G01X165320Y36520D02*
X174560D01*
G01X165200Y36400D02*
X174680D01*
G01X165080Y36280D02*
X174680D01*
G01X165080Y36160D02*
X174800D01*
G01X164960Y36040D02*
X174920D01*
G01X164840Y35920D02*
X174920D01*
G01X164840Y35800D02*
X175160D01*
G01X164720Y35680D02*
X175280D01*
G01X164600Y35560D02*
X175160D01*
G01X164600Y35440D02*
X175160D01*
G01X164480Y35320D02*
X174920D01*
G01X164480Y35200D02*
X174920D01*
G01X164480Y35080D02*
X174680D01*
G01X164360Y34960D02*
X174560D01*
G01X164240Y34840D02*
X174320D01*
G01X164240Y34720D02*
X174080D01*
G01X164120Y34600D02*
X173960D01*
G01X164000Y34480D02*
X173840D01*
G01X164000Y34360D02*
X173600D01*
G01X163880Y34240D02*
X173120D01*
G01X163760Y34120D02*
X173000D01*
G01X163760Y34000D02*
X172760D01*
G01X163640Y33880D02*
X172400D01*
G01X163520Y33760D02*
X171440D01*
G01X163520Y33640D02*
X170600D01*
G01X163400Y33520D02*
X170120D01*
G01X163400Y33400D02*
X168920D01*
G01X163400Y33280D02*
X168560D01*
G01X163280Y33160D02*
X167600D01*
G01X163160Y33040D02*
X167000D01*
G01X163160Y32920D02*
X166280D01*
G01X163160Y32800D02*
X166040D01*
G01X163160Y32680D02*
X165680D01*
G01X163400Y32560D02*
X165680D01*
G01X163520Y32440D02*
X165560D01*
G01X163760Y32320D02*
X165440D01*
G01X163880Y32200D02*
X165440D01*
G01X164240Y32080D02*
X165200D01*
G01X164240Y31960D02*
X165200D01*
G01X164600Y31840D02*
X164960D01*
G01X164600Y31720D02*
X165080D01*
G01X161960Y31000D02*
X162080D01*
G01X177680D02*
X177800D01*
G01X161840Y30880D02*
X162440D01*
G01X177560D02*
X178040D01*
G01X161840Y30760D02*
X162560D01*
G01X177440D02*
X178040D01*
G01X161720Y30640D02*
X162800D01*
G01X177320D02*
X178160D01*
G01X161600Y30520D02*
X163040D01*
G01X177320D02*
X178160D01*
G01X161600Y30400D02*
X163160D01*
G01X177200D02*
X178160D01*
G01X161480Y30280D02*
X163520D01*
G01X177080D02*
X178400D01*
G01X161360Y30160D02*
X163520D01*
G01X176960D02*
X178400D01*
G01X161360Y30040D02*
X163760D01*
G01X176840D02*
X178520D01*
G01X161240Y29920D02*
X164000D01*
G01X176720D02*
X178520D01*
G01X161240Y29800D02*
X163880D01*
G01X176600D02*
X178640D01*
G01X161240Y29680D02*
X163880D01*
G01X176480D02*
X178760D01*
G01X161120Y29560D02*
X164000D01*
G01X176360D02*
X178760D01*
G01X161000Y29440D02*
X163640D01*
G01X176240D02*
X178760D01*
G01X161000Y29320D02*
X163640D01*
G01X176120D02*
X178880D01*
G01X160880Y29200D02*
X163640D01*
G01X176000D02*
X179000D01*
G01X160760Y29080D02*
X163520D01*
G01X175880D02*
X179000D01*
G01X160760Y28960D02*
X163400D01*
G01X175760D02*
X179120D01*
G01X160640Y28840D02*
X163280D01*
G01X175640D02*
X179240D01*
G01X160640Y28720D02*
X163280D01*
G01X175520D02*
X179240D01*
G01X160520Y28600D02*
X163160D01*
G01X175400D02*
X179360D01*
G01X160520Y28480D02*
X163160D01*
G01X166160D02*
X166280D01*
G01X175400D02*
X179480D01*
G01X160400Y28360D02*
X163040D01*
G01X166040D02*
X166880D01*
G01X175280D02*
X179480D01*
G01X160280Y28240D02*
X162920D01*
G01X165800D02*
X166880D01*
G01X175160D02*
X179600D01*
G01X160280Y28120D02*
X162800D01*
G01X165680D02*
X167120D01*
G01X175040D02*
X179600D01*
G01X160160Y28000D02*
X162800D01*
G01X165680D02*
X167360D01*
G01X174920D02*
X179600D01*
G01X160160Y27880D02*
X162680D01*
G01X165680D02*
X166280D01*
G01X166520D02*
X167600D01*
G01X174800D02*
X179840D01*
G01X160040Y27760D02*
X162560D01*
G01X165560D02*
X166160D01*
G01X166520D02*
X167720D01*
G01X174680D02*
X179840D01*
G01X160040Y27640D02*
X162560D01*
G01X165560D02*
X166040D01*
G01X166520D02*
X167960D01*
G01X174560D02*
X179960D01*
G01X159920Y27520D02*
X162440D01*
G01X165440D02*
X165920D01*
G01X166520D02*
X168080D01*
G01X174440D02*
X179960D01*
G01X159800Y27400D02*
X162440D01*
G01X165320D02*
X165800D01*
G01X166400D02*
X167000D01*
G01X167120D02*
X168320D01*
G01X174320D02*
X180080D01*
G01X159680Y27280D02*
X162320D01*
G01X165200D02*
X165800D01*
G01X166400D02*
X166880D01*
G01X167240D02*
X168680D01*
G01X174200D02*
X180080D01*
G01X159680Y27160D02*
X162200D01*
G01X165080D02*
X165680D01*
G01X166280D02*
X166760D01*
G01X167240D02*
X167600D01*
G01X167840D02*
X168680D01*
G01X174080D02*
X180200D01*
G01X159560Y27040D02*
X162200D01*
G01X164960D02*
X165680D01*
G01X166160D02*
X166760D01*
G01X167240D02*
X167600D01*
G01X167840D02*
X168920D01*
G01X173960D02*
X180320D01*
G01X159440Y26920D02*
X162200D01*
G01X164840D02*
X165440D01*
G01X166040D02*
X166640D01*
G01X167120D02*
X167480D01*
G01X167840D02*
X169160D01*
G01X173840D02*
X180320D01*
G01X159440Y26800D02*
X162320D01*
G01X164840D02*
X165440D01*
G01X166040D02*
X166640D01*
G01X167000D02*
X167480D01*
G01X167840D02*
X169040D01*
G01X173720D02*
X180440D01*
G01X159440Y26680D02*
X162200D01*
G01X164720D02*
X165320D01*
G01X166040D02*
X166520D01*
G01X166880D02*
X167360D01*
G01X167840D02*
X169040D01*
G01X173720D02*
X180560D01*
G01X159320Y26560D02*
X162200D01*
G01X164720D02*
X165320D01*
G01X166040D02*
X166520D01*
G01X166880D02*
X167360D01*
G01X167840D02*
X168920D01*
G01X173720D02*
X180560D01*
G01X159200Y26440D02*
X162320D01*
G01X164720D02*
X165320D01*
G01X165920D02*
X166520D01*
G01X166880D02*
X167360D01*
G01X167840D02*
X168920D01*
G01X173840D02*
X180680D01*
G01X159200Y26320D02*
X162200D01*
G01X164720D02*
X165440D01*
G01X165920D02*
X166400D01*
G01X166880D02*
X167360D01*
G01X167840D02*
X168920D01*
G01X174080D02*
X180680D01*
G01X159080Y26200D02*
X162320D01*
G01X164840D02*
X165440D01*
G01X165920D02*
X166400D01*
G01X166880D02*
X167360D01*
G01X167840D02*
X168800D01*
G01X174320D02*
X180800D01*
G01X159080Y26080D02*
X162320D01*
G01X164840D02*
X165440D01*
G01X165920D02*
X166400D01*
G01X166880D02*
X167360D01*
G01X167840D02*
X168680D01*
G01X174440D02*
X180920D01*
G01X158960Y25960D02*
X162320D01*
G01X164840D02*
X165440D01*
G01X165920D02*
X166400D01*
G01X166880D02*
X167240D01*
G01X167360D02*
X167480D01*
G01X167840D02*
X168560D01*
G01X174680D02*
X180920D01*
G01X158840Y25840D02*
X162440D01*
G01X164840D02*
X165440D01*
G01X165920D02*
X166400D01*
G01X167000D02*
X167360D01*
G01X167720D02*
X168440D01*
G01X174920D02*
X180920D01*
G01X158840Y25720D02*
X162440D01*
G01X164840D02*
X165440D01*
G01X165920D02*
X166400D01*
G01X167000D02*
X167480D01*
G01X167720D02*
X168320D01*
G01X175040D02*
X181160D01*
G01X158720Y25600D02*
X162440D01*
G01X164840D02*
X165560D01*
G01X165920D02*
X166400D01*
G01X167000D02*
X168200D01*
G01X175400D02*
X181160D01*
G01X158720Y25480D02*
X162440D01*
G01X164840D02*
X165440D01*
G01X166040D02*
X166400D01*
G01X167000D02*
X168080D01*
G01X175400D02*
X181160D01*
G01X158600Y25360D02*
X162440D01*
G01X164840D02*
X165440D01*
G01X166160D02*
X166520D01*
G01X167000D02*
X167960D01*
G01X175640D02*
X181280D01*
G01X158600Y25240D02*
X162560D01*
G01X164840D02*
X165560D01*
G01X166160D02*
X166640D01*
G01X167000D02*
X167840D01*
G01X172040D02*
X172160D01*
G01X175880D02*
X181400D01*
G01X158480Y25120D02*
X162560D01*
G01X164840D02*
X165440D01*
G01X166280D02*
X166520D01*
G01X166640D02*
X166760D01*
G01X167000D02*
X167720D01*
G01X171680D02*
X172280D01*
G01X176120D02*
X181520D01*
G01X158360Y25000D02*
X162680D01*
G01X164840D02*
X165440D01*
G01X166400D02*
X166640D01*
G01X167000D02*
X167600D01*
G01X171560D02*
X172520D01*
G01X176480D02*
X181520D01*
G01X158360Y24880D02*
X162680D01*
G01X164720D02*
X165440D01*
G01X166400D02*
X167600D01*
G01X171440D02*
X172760D01*
G01X176480D02*
X181640D01*
G01X158240Y24760D02*
X162560D01*
G01X164720D02*
X165320D01*
G01X166400D02*
X167360D01*
G01X171320D02*
X172880D01*
G01X176840D02*
X181760D01*
G01X158120Y24640D02*
X162680D01*
G01X164720D02*
X165320D01*
G01X166400D02*
X167360D01*
G01X171200D02*
X173120D01*
G01X176960D02*
X181760D01*
G01X158120Y24520D02*
X162560D01*
G01X164720D02*
X165320D01*
G01X166400D02*
X167240D01*
G01X171080D02*
X173240D01*
G01X177200D02*
X181760D01*
G01X158120Y24400D02*
X162680D01*
G01X164720D02*
X165320D01*
G01X166400D02*
X167120D01*
G01X170960D02*
X173480D01*
G01X177320D02*
X181880D01*
G01X158000Y24280D02*
X162680D01*
G01X164720D02*
X165200D01*
G01X166280D02*
X167000D01*
G01X170840D02*
X173600D01*
G01X177560D02*
X182000D01*
G01X158000Y24160D02*
X162680D01*
G01X164720D02*
X165320D01*
G01X166280D02*
X167000D01*
G01X170720D02*
X173840D01*
G01X177800D02*
X182000D01*
G01X157880Y24040D02*
X162800D01*
G01X164840D02*
X165440D01*
G01X166160D02*
X166880D01*
G01X170480D02*
X171200D01*
G01X171320D02*
X174200D01*
G01X178040D02*
X182120D01*
G01X157760Y23920D02*
X162800D01*
G01X164840D02*
X165440D01*
G01X166160D02*
X166760D01*
G01X170360D02*
X170840D01*
G01X171440D02*
X174200D01*
G01X178400D02*
X182240D01*
G01X157760Y23800D02*
X162800D01*
G01X164960D02*
X165560D01*
G01X166160D02*
X166880D01*
G01X170120D02*
X170960D01*
G01X171440D02*
X174560D01*
G01X178400D02*
X182240D01*
G01X157640Y23680D02*
X162800D01*
G01X164960D02*
X165560D01*
G01X166040D02*
X166880D01*
G01X170000D02*
X170600D01*
G01X171440D02*
X174680D01*
G01X178640D02*
X182360D01*
G01X157520Y23560D02*
X162800D01*
G01X165080D02*
X165680D01*
G01X165800D02*
X166760D01*
G01X169880D02*
X170600D01*
G01X171440D02*
X174920D01*
G01X178880D02*
X182480D01*
G01X157520Y23440D02*
X162920D01*
G01X165080D02*
X166760D01*
G01X169880D02*
X170360D01*
G01X171440D02*
X175040D01*
G01X179120D02*
X182480D01*
G01X157400Y23320D02*
X162920D01*
G01X165200D02*
X166640D01*
G01X169760D02*
X170360D01*
G01X171440D02*
X175280D01*
G01X179360D02*
X182480D01*
G01X157400Y23200D02*
X163040D01*
G01X165200D02*
X166640D01*
G01X169640D02*
X170240D01*
G01X171440D02*
X175520D01*
G01X179600D02*
X182600D01*
G01X157280Y23080D02*
X163040D01*
G01X165320D02*
X166520D01*
G01X167960D02*
X168320D01*
G01X169640D02*
X170240D01*
G01X171440D02*
X175760D01*
G01X179720D02*
X182720D01*
G01X157160Y22960D02*
X163160D01*
G01X165320D02*
X166520D01*
G01X167600D02*
X168680D01*
G01X169520D02*
X170240D01*
G01X171440D02*
X176000D01*
G01X179960D02*
X182840D01*
G01X157040Y22840D02*
X163280D01*
G01X165440D02*
X166520D01*
G01X167480D02*
X168800D01*
G01X169400D02*
X170360D01*
G01X171440D02*
X176120D01*
G01X180200D02*
X182840D01*
G01X157040Y22720D02*
X164120D01*
G01X165440D02*
X166640D01*
G01X167360D02*
X168920D01*
G01X169280D02*
X170360D01*
G01X171440D02*
X176360D01*
G01X180440D02*
X182840D01*
G01X156920Y22600D02*
X164120D01*
G01X165560D02*
X166520D01*
G01X167240D02*
X167960D01*
G01X168440D02*
X169040D01*
G01X169160D02*
X169760D01*
G01X170000D02*
X170480D01*
G01X171440D02*
X176480D01*
G01X180560D02*
X182960D01*
G01X156920Y22480D02*
X164240D01*
G01X165560D02*
X166520D01*
G01X167120D02*
X167720D01*
G01X168440D02*
X169760D01*
G01X170000D02*
X170480D01*
G01X171440D02*
X176720D01*
G01X180680D02*
X183080D01*
G01X156920Y22360D02*
X163400D01*
G01X163880D02*
X164360D01*
G01X165560D02*
X166640D01*
G01X167000D02*
X167600D01*
G01X168560D02*
X169520D01*
G01X170120D02*
X170480D01*
G01X170600D02*
X170720D01*
G01X171320D02*
X176840D01*
G01X181040D02*
X183080D01*
G01X156800Y22240D02*
X163280D01*
G01X163880D02*
X164480D01*
G01X165560D02*
X166640D01*
G01X167000D02*
X167480D01*
G01X168680D02*
X169400D01*
G01X170120D02*
X177080D01*
G01X181160D02*
X183200D01*
G01X156680Y22120D02*
X163400D01*
G01X164000D02*
X164360D01*
G01X165560D02*
X166520D01*
G01X166880D02*
X167360D01*
G01X168680D02*
X169280D01*
G01X170240D02*
X177320D01*
G01X181520D02*
X183320D01*
G01X156680Y22000D02*
X163400D01*
G01X164000D02*
X164360D01*
G01X164480D02*
X164600D01*
G01X165560D02*
X166640D01*
G01X166760D02*
X167360D01*
G01X168680D02*
X169280D01*
G01X170240D02*
X177560D01*
G01X181640D02*
X183320D01*
G01X156560Y21880D02*
X163400D01*
G01X164120D02*
X164600D01*
G01X165560D02*
X166640D01*
G01X166760D02*
X167240D01*
G01X168680D02*
X169280D01*
G01X170240D02*
X177800D01*
G01X181880D02*
X183440D01*
G01X156440Y21760D02*
X163520D01*
G01X164120D02*
X164720D01*
G01X165440D02*
X166520D01*
G01X166760D02*
X167120D01*
G01X168680D02*
X169160D01*
G01X170240D02*
X177920D01*
G01X182120D02*
X183560D01*
G01X156440Y21640D02*
X163520D01*
G01X164120D02*
X164720D01*
G01X165440D02*
X167120D01*
G01X168680D02*
X169160D01*
G01X170240D02*
X178160D01*
G01X182240D02*
X183560D01*
G01X156320Y21520D02*
X163520D01*
G01X164240D02*
X164720D01*
G01X165320D02*
X167000D01*
G01X168560D02*
X169040D01*
G01X170240D02*
X178400D01*
G01X182600D02*
X183680D01*
G01X156320Y21400D02*
X163520D01*
G01X164240D02*
X164840D01*
G01X165320D02*
X166880D01*
G01X168560D02*
X169040D01*
G01X170120D02*
X178520D01*
G01X182720D02*
X183800D01*
G01X156200Y21280D02*
X163640D01*
G01X164240D02*
X164840D01*
G01X165320D02*
X167000D01*
G01X168440D02*
X169040D01*
G01X170120D02*
X178640D01*
G01X182960D02*
X183800D01*
G01X156200Y21160D02*
X163640D01*
G01X164240D02*
X164840D01*
G01X165320D02*
X166880D01*
G01X168440D02*
X168920D01*
G01X170120D02*
X179000D01*
G01X183080D02*
X183920D01*
G01X156080Y21040D02*
X163760D01*
G01X164360D02*
X164840D01*
G01X165200D02*
X166880D01*
G01X168320D02*
X168920D01*
G01X170000D02*
X179120D01*
G01X183320D02*
X184040D01*
G01X155960Y20920D02*
X163880D01*
G01X164360D02*
X164720D01*
G01X164840D02*
X164960D01*
G01X165200D02*
X167000D01*
G01X168200D02*
X169040D01*
G01X169760D02*
X179360D01*
G01X183440D02*
X184040D01*
G01X155960Y20800D02*
X164000D01*
G01X164360D02*
X167000D01*
G01X167960D02*
X179600D01*
G01X183920D02*
X184040D01*
G01X155840Y20680D02*
X167120D01*
G01X167840D02*
X179720D01*
G01X155840Y20560D02*
X179960D01*
G01X155720Y20440D02*
X180080D01*
G01X155720Y20320D02*
X180320D01*
G01X155600Y20200D02*
X180560D01*
G01X155600Y20080D02*
X180680D01*
G01X155480Y19960D02*
X180920D01*
G01X155360Y19840D02*
X181160D01*
G01X155360Y19720D02*
X181400D01*
G01X155240Y19600D02*
X181640D01*
G01X155120Y19480D02*
X181760D01*
G01X155120Y19360D02*
X182120D01*
G01X155000Y19240D02*
X182240D01*
G01X155000Y19120D02*
X182360D01*
G01X155000Y19000D02*
X182360D01*
G01X169880Y44080D02*
X170120D01*
G01X169640Y43960D02*
X170000D01*
G01X169640Y43840D02*
X170000D01*
G01X170120D02*
X170240D01*
G01X169640Y43720D02*
X170120D01*
G01X169520Y43600D02*
X170240D01*
G01X169400Y43480D02*
X170360D01*
G01X169400Y43360D02*
X170360D01*
G01X169280Y43240D02*
X170480D01*
G01X169160Y43120D02*
X170600D01*
G01X169160Y43000D02*
X170600D01*
G01X169040Y42880D02*
X170720D01*
G01X168920Y42760D02*
X170840D01*
G01X168920Y42640D02*
X170840D01*
G01X168920Y42520D02*
X170960D01*
G01X168800Y42400D02*
X170960D01*
G01X168680Y42280D02*
X171080D01*
G01X168680Y42160D02*
X171200D01*
G01X168560Y42040D02*
X171200D01*
G01X168560Y41920D02*
X171320D01*
G01X168440Y41800D02*
X171320D01*
G01X168320Y41680D02*
X171440D01*
G01X168320Y41560D02*
X171440D01*
G01X168200Y41440D02*
X171560D01*
G01X168080Y41320D02*
X171680D01*
G01X168080Y41200D02*
X171680D01*
G01X167960Y41080D02*
X171800D01*
G01X167840Y40960D02*
X171920D01*
G01X167840Y40840D02*
X171920D01*
G01X167720Y40720D02*
X172040D01*
G01X167720Y40600D02*
X172040D01*
G01X167600Y40480D02*
X172160D01*
G01X167600Y40360D02*
X172280D01*
G01X167480Y40240D02*
X172280D01*
G01X167360Y40120D02*
X172400D01*
G01X167360Y40000D02*
X172520D01*
G01X167240Y39880D02*
X172520D01*
G01X167240Y39760D02*
X172640D01*
G01X167120Y39640D02*
X172760D01*
G01X167000Y39520D02*
X172760D01*
G01X167000Y39400D02*
X172760D01*
G01X166880Y39280D02*
X173000D01*
G01X166760Y39160D02*
X173000D01*
G01X166760Y39040D02*
X173120D01*
G01X166760Y38920D02*
X173120D01*
G01X166640Y38800D02*
X173120D01*
G01X166520Y38680D02*
X173360D01*
G01X166400Y38560D02*
X173360D01*
G01X166400Y38440D02*
X173360D01*
G01X166400Y38320D02*
X173480D01*
G01X166280Y38200D02*
X173600D01*
G01X166160Y38080D02*
X173600D01*
G01X166160Y37960D02*
X173720D01*
G01X166040Y37840D02*
X173840D01*
G01X165920Y37720D02*
X173840D01*
G01X159450Y139600D02*
X160125D01*
G01X159300Y139525D02*
X160350D01*
G01X159000Y139450D02*
X160650D01*
G01X159000Y139375D02*
X159300D01*
G01X160350D02*
X160650D01*
G01X158850Y139300D02*
X159225D01*
G01X160425D02*
X160725D01*
G01X158775Y139225D02*
X159075D01*
G01X160500D02*
X160800D01*
G01X158625Y139150D02*
X159000D01*
G01X160650D02*
X160950D01*
G01X158625Y139075D02*
X158925D01*
G01X159375D02*
X159975D01*
G01X160725D02*
X161025D01*
G01X142500Y139000D02*
X142725D01*
G01X158625D02*
X158850D01*
G01X159300D02*
X160125D01*
G01X160800D02*
X161025D01*
G01X142275Y138925D02*
X142950D01*
G01X158625D02*
X158700D01*
G01X159300D02*
X160200D01*
G01X160800D02*
X161025D01*
G01X142125Y138850D02*
X143100D01*
G01X158550D02*
X158625D01*
G01X159300D02*
X159525D01*
G01X159975D02*
X160275D01*
G01X160875D02*
X161100D01*
G01X141975Y138775D02*
X143175D01*
G01X158475D02*
X158625D01*
G01X159300D02*
X159525D01*
G01X160050D02*
X160350D01*
G01X160950D02*
X161025D01*
G01X141975Y138700D02*
X142500D01*
G01X142725D02*
X143250D01*
G01X158475D02*
X158550D01*
G01X159300D02*
X159525D01*
G01X160050D02*
X160350D01*
G01X160950D02*
X161025D01*
G01X141900Y138625D02*
X142350D01*
G01X142875D02*
X143325D01*
G01X158475D02*
X158550D01*
G01X159300D02*
X159525D01*
G01X160050D02*
X160350D01*
G01X161025D02*
X161100D01*
G01X141825Y138550D02*
X142275D01*
G01X142950D02*
X143325D01*
G01X158400D02*
X158625D01*
G01X159300D02*
X159525D01*
G01X160050D02*
X160275D01*
G01X161025D02*
X161100D01*
G01X141825Y138475D02*
X142200D01*
G01X143025D02*
X143400D01*
G01X158400D02*
X158625D01*
G01X159300D02*
X159525D01*
G01X159975D02*
X160275D01*
G01X161025D02*
X161100D01*
G01X141825Y138400D02*
X142125D01*
G01X143100D02*
X143400D01*
G01X158400D02*
X158625D01*
G01X159300D02*
X159525D01*
G01X159900D02*
X160200D01*
G01X161025D02*
X161100D01*
G01X141825Y138325D02*
X142125D01*
G01X143175D02*
X143475D01*
G01X158400D02*
X158625D01*
G01X159300D02*
X160050D01*
G01X161025D02*
X161100D01*
G01X141825Y138250D02*
X142125D01*
G01X143175D02*
X143475D01*
G01X158400D02*
X158625D01*
G01X159300D02*
X160050D01*
G01X161025D02*
X161100D01*
G01X141825Y138175D02*
X142125D01*
G01X143175D02*
X143475D01*
G01X158400D02*
X158625D01*
G01X159300D02*
X159525D01*
G01X159825D02*
X160125D01*
G01X161025D02*
X161100D01*
G01X141825Y138100D02*
X142125D01*
G01X143175D02*
X143475D01*
G01X158400D02*
X158625D01*
G01X159300D02*
X159525D01*
G01X159975D02*
X160200D01*
G01X161025D02*
X161100D01*
G01X141825Y138025D02*
X142125D01*
G01X143175D02*
X143475D01*
G01X158475D02*
X158550D01*
G01X159300D02*
X159525D01*
G01X159975D02*
X160275D01*
G01X161025D02*
X161100D01*
G01X141825Y137950D02*
X142125D01*
G01X143175D02*
X143475D01*
G01X158475D02*
X158550D01*
G01X159300D02*
X159525D01*
G01X159975D02*
X160275D01*
G01X160950D02*
X161025D01*
G01X141825Y137875D02*
X142125D01*
G01X143175D02*
X143475D01*
G01X158475D02*
X158700D01*
G01X159300D02*
X159525D01*
G01X160050D02*
X160275D01*
G01X160950D02*
X161025D01*
G01X141825Y137800D02*
X142125D01*
G01X143175D02*
X143475D01*
G01X158550D02*
X158775D01*
G01X159300D02*
X159525D01*
G01X160050D02*
X160350D01*
G01X160875D02*
X161100D01*
G01X141825Y137725D02*
X142125D01*
G01X143175D02*
X143475D01*
G01X158625D02*
X158700D01*
G01X159300D02*
X159525D01*
G01X160050D02*
X160350D01*
G01X160800D02*
X161025D01*
G01X141825Y137650D02*
X142125D01*
G01X143175D02*
X143475D01*
G01X158625D02*
X158850D01*
G01X159300D02*
X159525D01*
G01X160125D02*
X160350D01*
G01X160800D02*
X161025D01*
G01X141825Y137575D02*
X142125D01*
G01X143175D02*
X143475D01*
G01X158625D02*
X158925D01*
G01X160725D02*
X161025D01*
G01X141825Y137500D02*
X142125D01*
G01X143175D02*
X143475D01*
G01X158700D02*
X159000D01*
G01X160650D02*
X160950D01*
G01X141825Y137425D02*
X142125D01*
G01X143175D02*
X143475D01*
G01X158775D02*
X159150D01*
G01X160500D02*
X160875D01*
G01X141825Y137350D02*
X142125D01*
G01X143175D02*
X143475D01*
G01X158925D02*
X159225D01*
G01X160350D02*
X160725D01*
G01X141825Y137275D02*
X142125D01*
G01X143175D02*
X143475D01*
G01X159000D02*
X159300D01*
G01X160275D02*
X160650D01*
G01X141825Y137200D02*
X142125D01*
G01X143175D02*
X143475D01*
G01X159000D02*
X159525D01*
G01X160050D02*
X160575D01*
G01X141825Y137125D02*
X142125D01*
G01X143175D02*
X143475D01*
G01X159150D02*
X160500D01*
G01X141825Y137050D02*
X142125D01*
G01X143175D02*
X143475D01*
G01X159525D02*
X160050D01*
G01X141825Y136975D02*
X142125D01*
G01X143175D02*
X143475D01*
G01X141825Y136900D02*
X142125D01*
G01X143175D02*
X143475D01*
G01X132300Y136825D02*
X132975D01*
G01X140325D02*
X141000D01*
G01X141825D02*
X142125D01*
G01X143175D02*
X143475D01*
G01X147525D02*
X148275D01*
G01X155400D02*
X156075D01*
G01X134175Y136750D02*
X135000D01*
G01X135825D02*
X136725D01*
G01X137400D02*
X138300D01*
G01X139800D02*
X141450D01*
G01X141825D02*
X142125D01*
G01X143175D02*
X143475D01*
G01X147075D02*
X148800D01*
G01X150900D02*
X151875D01*
G01X152475D02*
X153375D01*
G01X154950D02*
X156525D01*
G01X157275D02*
X158100D01*
G01X134100Y136675D02*
X135075D01*
G01X135750D02*
X136800D01*
G01X137325D02*
X138450D01*
G01X139725D02*
X141600D01*
G01X141825D02*
X142125D01*
G01X143175D02*
X143475D01*
G01X146850D02*
X148950D01*
G01X150900D02*
X151875D01*
G01X152400D02*
X153450D01*
G01X154875D02*
X156600D01*
G01X157200D02*
X158250D01*
G01X134025Y136600D02*
X135150D01*
G01X135675D02*
X136875D01*
G01X137175D02*
X138450D01*
G01X139575D02*
X141750D01*
G01X141825D02*
X142125D01*
G01X143175D02*
X143475D01*
G01X146775D02*
X149100D01*
G01X150750D02*
X151950D01*
G01X152250D02*
X153600D01*
G01X154725D02*
X156750D01*
G01X157125D02*
X158325D01*
G01X132975Y136525D02*
X133725D01*
G01X133950D02*
X135225D01*
G01X135600D02*
X136950D01*
G01X137100D02*
X138525D01*
G01X139425D02*
X140250D01*
G01X141000D02*
X142125D01*
G01X143175D02*
X143475D01*
G01X146625D02*
X147525D01*
G01X148275D02*
X149175D01*
G01X150675D02*
X152025D01*
G01X152250D02*
X153600D01*
G01X154575D02*
X155400D01*
G01X156075D02*
X156825D01*
G01X157050D02*
X158325D01*
G01X133125Y136450D02*
X134400D01*
G01X134775D02*
X135300D01*
G01X135525D02*
X136050D01*
G01X136575D02*
X137625D01*
G01X138075D02*
X138600D01*
G01X139275D02*
X140025D01*
G01X141225D02*
X142125D01*
G01X143175D02*
X143475D01*
G01X146475D02*
X147225D01*
G01X148575D02*
X149325D01*
G01X150600D02*
X151200D01*
G01X151575D02*
X152700D01*
G01X153225D02*
X153675D01*
G01X154425D02*
X155175D01*
G01X156300D02*
X157500D01*
G01X157950D02*
X158400D01*
G01X133425Y136375D02*
X134175D01*
G01X135000D02*
X135300D01*
G01X135450D02*
X135825D01*
G01X136725D02*
X137400D01*
G01X138300D02*
X138675D01*
G01X139200D02*
X139800D01*
G01X141450D02*
X142125D01*
G01X143175D02*
X143475D01*
G01X146400D02*
X146925D01*
G01X148875D02*
X149475D01*
G01X150525D02*
X150900D01*
G01X151800D02*
X152475D01*
G01X153375D02*
X153675D01*
G01X154350D02*
X154950D01*
G01X156600D02*
X157275D01*
G01X158100D02*
X158475D01*
G01X133500Y136300D02*
X134100D01*
G01X135000D02*
X135300D01*
G01X135450D02*
X135825D01*
G01X136725D02*
X137325D01*
G01X138375D02*
X138675D01*
G01X139125D02*
X139650D01*
G01X141600D02*
X142125D01*
G01X143175D02*
X143475D01*
G01X146325D02*
X146850D01*
G01X148950D02*
X149550D01*
G01X150525D02*
X150900D01*
G01X151875D02*
X152400D01*
G01X153375D02*
X153750D01*
G01X154275D02*
X154800D01*
G01X156600D02*
X157275D01*
G01X158175D02*
X158475D01*
G01X133575Y136225D02*
X134100D01*
G01X135075D02*
X135375D01*
G01X135450D02*
X135750D01*
G01X136725D02*
X137250D01*
G01X138375D02*
X138675D01*
G01X139125D02*
X139575D01*
G01X141750D02*
X142125D01*
G01X143175D02*
X143475D01*
G01X146250D02*
X146775D01*
G01X149100D02*
X149550D01*
G01X150525D02*
X150900D01*
G01X151875D02*
X152325D01*
G01X153450D02*
X153750D01*
G01X154275D02*
X154725D01*
G01X156750D02*
X157275D01*
G01X158175D02*
X158475D01*
G01X133650Y136150D02*
X134100D01*
G01X135075D02*
X135375D01*
G01X135450D02*
X135750D01*
G01X136725D02*
X137175D01*
G01X138450D02*
X138750D01*
G01X139050D02*
X139425D01*
G01X141825D02*
X142125D01*
G01X143175D02*
X143475D01*
G01X146175D02*
X146625D01*
G01X149175D02*
X149625D01*
G01X150525D02*
X150825D01*
G01X151875D02*
X152250D01*
G01X153450D02*
X153750D01*
G01X154200D02*
X154575D01*
G01X156825D02*
X157200D01*
G01X158250D02*
X158550D01*
G01X133725Y136075D02*
X134100D01*
G01X135075D02*
X135375D01*
G01X135450D02*
X135750D01*
G01X136725D02*
X137100D01*
G01X138450D02*
X138750D01*
G01X138900D02*
X139425D01*
G01X141825D02*
X142125D01*
G01X143175D02*
X143475D01*
G01X146100D02*
X146550D01*
G01X149250D02*
X149775D01*
G01X150525D02*
X150825D01*
G01X151875D02*
X152250D01*
G01X153525D02*
X153825D01*
G01X154050D02*
X154575D01*
G01X156825D02*
X157200D01*
G01X158250D02*
X158550D01*
G01X133800Y136000D02*
X134100D01*
G01X135075D02*
X135375D01*
G01X135450D02*
X135750D01*
G01X136800D02*
X137025D01*
G01X138450D02*
X138750D01*
G01X138900D02*
X139275D01*
G01X142050D02*
X142125D01*
G01X143175D02*
X143475D01*
G01X146025D02*
X146475D01*
G01X149400D02*
X149850D01*
G01X150525D02*
X150825D01*
G01X151875D02*
X152175D01*
G01X153525D02*
X153825D01*
G01X153975D02*
X154425D01*
G01X156975D02*
X157050D01*
G01X158250D02*
X158550D01*
G01X133875Y135925D02*
X133950D01*
G01X135075D02*
X135375D01*
G01X135450D02*
X135750D01*
G01X138450D02*
X138750D01*
G01X138825D02*
X139200D01*
G01X143175D02*
X143475D01*
G01X145950D02*
X146400D01*
G01X149475D02*
X149850D01*
G01X150525D02*
X150825D01*
G01X153525D02*
X153825D01*
G01X153975D02*
X154350D01*
G01X156975D02*
X157050D01*
G01X158250D02*
X158550D01*
G01X133875Y135850D02*
X133950D01*
G01X135075D02*
X135375D01*
G01X135450D02*
X135750D01*
G01X138450D02*
X139125D01*
G01X143175D02*
X143475D01*
G01X145875D02*
X146325D01*
G01X149550D02*
X149850D01*
G01X150525D02*
X150825D01*
G01X153525D02*
X153825D01*
G01X153900D02*
X154275D01*
G01X156975D02*
X157050D01*
G01X158250D02*
X158550D01*
G01X133950Y135775D02*
X134025D01*
G01X135075D02*
X135375D01*
G01X135450D02*
X135750D01*
G01X138375D02*
X139125D01*
G01X143175D02*
X143475D01*
G01X145875D02*
X146250D01*
G01X149550D02*
X150000D01*
G01X150525D02*
X150825D01*
G01X153450D02*
X153825D01*
G01X153900D02*
X154275D01*
G01X157050D02*
X157125D01*
G01X158250D02*
X158550D01*
G01X135075Y135700D02*
X135375D01*
G01X135450D02*
X135750D01*
G01X138300D02*
X139050D01*
G01X143175D02*
X143475D01*
G01X145800D02*
X146175D01*
G01X149700D02*
X150075D01*
G01X150525D02*
X150825D01*
G01X153375D02*
X153750D01*
G01X153825D02*
X154200D01*
G01X158250D02*
X158550D01*
G01X132675Y135625D02*
X132975D01*
G01X135075D02*
X135375D01*
G01X135450D02*
X135750D01*
G01X138225D02*
X139050D01*
G01X140700D02*
X141000D01*
G01X143175D02*
X143475D01*
G01X145725D02*
X146100D01*
G01X147750D02*
X148125D01*
G01X149700D02*
X150075D01*
G01X150525D02*
X150825D01*
G01X153300D02*
X153750D01*
G01X153825D02*
X154125D01*
G01X155850D02*
X156150D01*
G01X158250D02*
X158550D01*
G01X132375Y135550D02*
X133200D01*
G01X135075D02*
X135375D01*
G01X135450D02*
X135750D01*
G01X138075D02*
X138975D01*
G01X140475D02*
X141300D01*
G01X143175D02*
X143475D01*
G01X145725D02*
X146100D01*
G01X147525D02*
X148350D01*
G01X149775D02*
X150150D01*
G01X150525D02*
X150825D01*
G01X153150D02*
X153675D01*
G01X153750D02*
X154125D01*
G01X155625D02*
X156375D01*
G01X158250D02*
X158550D01*
G01X132300Y135475D02*
X133350D01*
G01X135075D02*
X135375D01*
G01X135450D02*
X135750D01*
G01X137925D02*
X138975D01*
G01X140325D02*
X141450D01*
G01X143175D02*
X143475D01*
G01X145650D02*
X146025D01*
G01X147375D02*
X148500D01*
G01X149850D02*
X150150D01*
G01X150525D02*
X150825D01*
G01X153000D02*
X153600D01*
G01X153750D02*
X154050D01*
G01X155475D02*
X156525D01*
G01X158250D02*
X158550D01*
G01X135075Y135400D02*
X135375D01*
G01X135450D02*
X135750D01*
G01X137625D02*
X138450D01*
G01X138525D02*
X138900D01*
G01X140175D02*
X141600D01*
G01X143175D02*
X143475D01*
G01X145575D02*
X146025D01*
G01X147225D02*
X148650D01*
G01X149850D02*
X150225D01*
G01X150525D02*
X150825D01*
G01X152700D02*
X153600D01*
G01X153675D02*
X154050D01*
G01X155250D02*
X156675D01*
G01X158250D02*
X158550D01*
G01X132975Y135325D02*
X133575D01*
G01X135075D02*
X135375D01*
G01X135450D02*
X135750D01*
G01X137475D02*
X138300D01*
G01X138525D02*
X138825D01*
G01X140100D02*
X140700D01*
G01X141075D02*
X141675D01*
G01X143175D02*
X143475D01*
G01X145575D02*
X145875D01*
G01X147150D02*
X147750D01*
G01X148125D02*
X148725D01*
G01X149850D02*
X150225D01*
G01X150525D02*
X150825D01*
G01X152550D02*
X153300D01*
G01X153600D02*
X153975D01*
G01X155250D02*
X155850D01*
G01X156150D02*
X156750D01*
G01X158250D02*
X158550D01*
G01X133125Y135250D02*
X133650D01*
G01X135075D02*
X135375D01*
G01X135450D02*
X135750D01*
G01X137400D02*
X138075D01*
G01X138450D02*
X138825D01*
G01X140100D02*
X140550D01*
G01X141225D02*
X141750D01*
G01X143175D02*
X143475D01*
G01X145500D02*
X145875D01*
G01X147075D02*
X147525D01*
G01X148275D02*
X148800D01*
G01X149925D02*
X150225D01*
G01X150525D02*
X150825D01*
G01X152475D02*
X153225D01*
G01X153600D02*
X153900D01*
G01X155175D02*
X155625D01*
G01X156300D02*
X156825D01*
G01X158250D02*
X158550D01*
G01X133275Y135175D02*
X133725D01*
G01X135075D02*
X135375D01*
G01X135450D02*
X135750D01*
G01X137250D02*
X138000D01*
G01X138450D02*
X138750D01*
G01X140025D02*
X140475D01*
G01X141375D02*
X141825D01*
G01X143175D02*
X143475D01*
G01X145500D02*
X145875D01*
G01X147000D02*
X147450D01*
G01X148350D02*
X148800D01*
G01X149925D02*
X150300D01*
G01X150525D02*
X150825D01*
G01X152325D02*
X153075D01*
G01X153600D02*
X153900D01*
G01X155100D02*
X155550D01*
G01X156450D02*
X156900D01*
G01X158250D02*
X158550D01*
G01X133350Y135100D02*
X133725D01*
G01X135075D02*
X135375D01*
G01X135450D02*
X135750D01*
G01X137100D02*
X137850D01*
G01X138450D02*
X138750D01*
G01X139875D02*
X140400D01*
G01X141450D02*
X141825D01*
G01X143175D02*
X143475D01*
G01X145500D02*
X145875D01*
G01X146925D02*
X147375D01*
G01X148500D02*
X148875D01*
G01X150000D02*
X150300D01*
G01X150525D02*
X150825D01*
G01X152250D02*
X152925D01*
G01X153600D02*
X153900D01*
G01X155025D02*
X155475D01*
G01X156525D02*
X156975D01*
G01X158250D02*
X158550D01*
G01X133425Y135025D02*
X133800D01*
G01X135075D02*
X135375D01*
G01X135450D02*
X135750D01*
G01X137100D02*
X137550D01*
G01X138450D02*
X138750D01*
G01X139875D02*
X140250D01*
G01X141525D02*
X141900D01*
G01X143175D02*
X143475D01*
G01X145500D02*
X145800D01*
G01X146850D02*
X147225D01*
G01X148575D02*
X148875D01*
G01X150075D02*
X150375D01*
G01X150525D02*
X150825D01*
G01X152175D02*
X152625D01*
G01X153600D02*
X153900D01*
G01X154950D02*
X155325D01*
G01X156600D02*
X156975D01*
G01X158250D02*
X158550D01*
G01X133425Y134950D02*
X133800D01*
G01X135075D02*
X135375D01*
G01X135450D02*
X135750D01*
G01X137025D02*
X137400D01*
G01X138450D02*
X138750D01*
G01X139800D02*
X140175D01*
G01X141525D02*
X141900D01*
G01X143175D02*
X143475D01*
G01X145500D02*
X145800D01*
G01X146850D02*
X147225D01*
G01X148575D02*
X148950D01*
G01X150075D02*
X150375D01*
G01X150525D02*
X150825D01*
G01X152100D02*
X152550D01*
G01X153525D02*
X153825D01*
G01X154950D02*
X155250D01*
G01X156600D02*
X156975D01*
G01X158250D02*
X158550D01*
G01X133500Y134875D02*
X133875D01*
G01X135075D02*
X135375D01*
G01X135450D02*
X135750D01*
G01X136950D02*
X137400D01*
G01X138450D02*
X138750D01*
G01X139800D02*
X140100D01*
G01X141600D02*
X141900D01*
G01X143175D02*
X143475D01*
G01X145425D02*
X145725D01*
G01X146850D02*
X147225D01*
G01X148650D02*
X148950D01*
G01X150075D02*
X150375D01*
G01X150525D02*
X150825D01*
G01X152025D02*
X152475D01*
G01X153525D02*
X153825D01*
G01X154950D02*
X155250D01*
G01X156675D02*
X156975D01*
G01X158250D02*
X158550D01*
G01X133575Y134800D02*
X133875D01*
G01X135075D02*
X135375D01*
G01X135450D02*
X135750D01*
G01X136875D02*
X137325D01*
G01X138375D02*
X138675D01*
G01X139800D02*
X140100D01*
G01X141675D02*
X141975D01*
G01X143175D02*
X143475D01*
G01X145425D02*
X145725D01*
G01X146850D02*
X147150D01*
G01X148650D02*
X149025D01*
G01X150075D02*
X150450D01*
G01X150525D02*
X150825D01*
G01X151950D02*
X152400D01*
G01X153525D02*
X153825D01*
G01X154950D02*
X155250D01*
G01X156750D02*
X157050D01*
G01X158250D02*
X158550D01*
G01X133575Y134725D02*
X133950D01*
G01X135075D02*
X135375D01*
G01X135450D02*
X135750D01*
G01X136875D02*
X137250D01*
G01X138375D02*
X138675D01*
G01X139800D02*
X140100D01*
G01X141675D02*
X142050D01*
G01X143175D02*
X143475D01*
G01X145425D02*
X145725D01*
G01X146775D02*
X147150D01*
G01X148725D02*
X149025D01*
G01X150150D02*
X150450D01*
G01X150525D02*
X150825D01*
G01X151875D02*
X152325D01*
G01X153450D02*
X153825D01*
G01X154875D02*
X155250D01*
G01X156750D02*
X157125D01*
G01X158250D02*
X158550D01*
G01X133650Y134650D02*
X133950D01*
G01X135075D02*
X135375D01*
G01X135450D02*
X135750D01*
G01X136800D02*
X137100D01*
G01X138375D02*
X138675D01*
G01X139725D02*
X140100D01*
G01X141750D02*
X142050D01*
G01X143175D02*
X143475D01*
G01X145350D02*
X145650D01*
G01X146775D02*
X147075D01*
G01X148800D02*
X149100D01*
G01X150150D02*
X150450D01*
G01X150525D02*
X150825D01*
G01X151875D02*
X152250D01*
G01X153450D02*
X153750D01*
G01X154875D02*
X155175D01*
G01X156825D02*
X157125D01*
G01X158250D02*
X158550D01*
G01X133650Y134575D02*
X133950D01*
G01X135075D02*
X135375D01*
G01X135450D02*
X135750D01*
G01X136800D02*
X137100D01*
G01X138375D02*
X138675D01*
G01X139725D02*
X140025D01*
G01X141750D02*
X142050D01*
G01X143175D02*
X143475D01*
G01X145350D02*
X145650D01*
G01X146775D02*
X147075D01*
G01X148800D02*
X149100D01*
G01X150150D02*
X150825D01*
G01X151875D02*
X152250D01*
G01X153450D02*
X153750D01*
G01X154800D02*
X155100D01*
G01X156825D02*
X157125D01*
G01X158250D02*
X158550D01*
G01X133650Y134500D02*
X133950D01*
G01X135075D02*
X135375D01*
G01X135450D02*
X135750D01*
G01X136800D02*
X137100D01*
G01X138375D02*
X138600D01*
G01X139725D02*
X140025D01*
G01X141750D02*
X142050D01*
G01X143175D02*
X143475D01*
G01X145350D02*
X145650D01*
G01X146700D02*
X147000D01*
G01X148800D02*
X149100D01*
G01X150150D02*
X150825D01*
G01X151875D02*
X152250D01*
G01X153450D02*
X153750D01*
G01X154800D02*
X155100D01*
G01X156825D02*
X157125D01*
G01X158250D02*
X158550D01*
G01X133725Y134425D02*
X134025D01*
G01X135075D02*
X135375D01*
G01X135450D02*
X135750D01*
G01X136800D02*
X137100D01*
G01X138300D02*
X138600D01*
G01X139725D02*
X140025D01*
G01X141750D02*
X142125D01*
G01X143175D02*
X143475D01*
G01X145350D02*
X145650D01*
G01X146700D02*
X147000D01*
G01X148800D02*
X149175D01*
G01X150225D02*
X150825D01*
G01X151875D02*
X152175D01*
G01X153450D02*
X153750D01*
G01X154800D02*
X155100D01*
G01X156900D02*
X157200D01*
G01X158250D02*
X158550D01*
G01X133725Y134350D02*
X134025D01*
G01X135075D02*
X135375D01*
G01X135450D02*
X135750D01*
G01X136725D02*
X137100D01*
G01X138300D02*
X138600D01*
G01X139650D02*
X139950D01*
G01X141825D02*
X142125D01*
G01X143175D02*
X143475D01*
G01X145350D02*
X145650D01*
G01X146700D02*
X147000D01*
G01X148875D02*
X149175D01*
G01X150225D02*
X150825D01*
G01X151875D02*
X152175D01*
G01X153375D02*
X153675D01*
G01X154800D02*
X155100D01*
G01X156900D02*
X157200D01*
G01X158250D02*
X158550D01*
G01X133725Y134275D02*
X134025D01*
G01X135075D02*
X135375D01*
G01X135450D02*
X135750D01*
G01X136725D02*
X137100D01*
G01X138300D02*
X138600D01*
G01X139650D02*
X139950D01*
G01X141825D02*
X142125D01*
G01X143175D02*
X143475D01*
G01X145350D02*
X145650D01*
G01X146700D02*
X147000D01*
G01X148875D02*
X149175D01*
G01X150225D02*
X150825D01*
G01X151875D02*
X152175D01*
G01X153375D02*
X153675D01*
G01X154800D02*
X155100D01*
G01X156900D02*
X157200D01*
G01X158250D02*
X158550D01*
G01X133725Y134200D02*
X134025D01*
G01X135075D02*
X135375D01*
G01X135450D02*
X135750D01*
G01X136800D02*
X137100D01*
G01X138300D02*
X138600D01*
G01X139650D02*
X139950D01*
G01X141825D02*
X142125D01*
G01X143175D02*
X143475D01*
G01X145350D02*
X145650D01*
G01X146700D02*
X147000D01*
G01X148875D02*
X149175D01*
G01X150225D02*
X150825D01*
G01X151875D02*
X152175D01*
G01X153375D02*
X153675D01*
G01X154725D02*
X155100D01*
G01X156900D02*
X157200D01*
G01X158250D02*
X158550D01*
G01X133725Y134125D02*
X134025D01*
G01X135075D02*
X135375D01*
G01X135450D02*
X135750D01*
G01X136800D02*
X137100D01*
G01X138300D02*
X138600D01*
G01X139650D02*
X139950D01*
G01X141825D02*
X142125D01*
G01X143175D02*
X143475D01*
G01X145350D02*
X145650D01*
G01X146700D02*
X147000D01*
G01X148875D02*
X149175D01*
G01X150225D02*
X150825D01*
G01X151875D02*
X152175D01*
G01X153375D02*
X153675D01*
G01X154725D02*
X155025D01*
G01X156900D02*
X157200D01*
G01X158250D02*
X158550D01*
G01X133725Y134050D02*
X134025D01*
G01X135075D02*
X135375D01*
G01X135450D02*
X135750D01*
G01X136800D02*
X137100D01*
G01X138300D02*
X138600D01*
G01X139650D02*
X139950D01*
G01X141825D02*
X142125D01*
G01X143175D02*
X143475D01*
G01X145350D02*
X145650D01*
G01X146700D02*
X147000D01*
G01X148875D02*
X149175D01*
G01X150225D02*
X150825D01*
G01X151875D02*
X152175D01*
G01X153375D02*
X153675D01*
G01X154725D02*
X155025D01*
G01X156900D02*
X157200D01*
G01X158250D02*
X158550D01*
G01X133725Y133975D02*
X134025D01*
G01X135075D02*
X135375D01*
G01X135450D02*
X135750D01*
G01X136800D02*
X137100D01*
G01X138300D02*
X138600D01*
G01X139650D02*
X139950D01*
G01X141825D02*
X142125D01*
G01X143175D02*
X143475D01*
G01X145350D02*
X145650D01*
G01X146700D02*
X147000D01*
G01X148875D02*
X149175D01*
G01X150225D02*
X150825D01*
G01X151875D02*
X152175D01*
G01X153375D02*
X153675D01*
G01X154800D02*
X155100D01*
G01X156900D02*
X157200D01*
G01X158250D02*
X158550D01*
G01X133725Y133900D02*
X134025D01*
G01X135075D02*
X135375D01*
G01X135450D02*
X135750D01*
G01X136800D02*
X137100D01*
G01X138300D02*
X138600D01*
G01X139650D02*
X139950D01*
G01X141825D02*
X142125D01*
G01X143175D02*
X143475D01*
G01X145350D02*
X145650D01*
G01X146700D02*
X147000D01*
G01X148875D02*
X149175D01*
G01X150225D02*
X150825D01*
G01X151875D02*
X152175D01*
G01X153375D02*
X153675D01*
G01X154800D02*
X155100D01*
G01X156900D02*
X157200D01*
G01X158250D02*
X158550D01*
G01X133725Y133825D02*
X134025D01*
G01X135075D02*
X135375D01*
G01X135450D02*
X135750D01*
G01X136800D02*
X137100D01*
G01X138300D02*
X138600D01*
G01X139650D02*
X139950D01*
G01X141825D02*
X142125D01*
G01X143175D02*
X143475D01*
G01X145350D02*
X145650D01*
G01X146700D02*
X147000D01*
G01X148875D02*
X149175D01*
G01X150225D02*
X150825D01*
G01X151875D02*
X152175D01*
G01X153375D02*
X153675D01*
G01X154800D02*
X155100D01*
G01X156900D02*
X157200D01*
G01X158250D02*
X158550D01*
G01X133725Y133750D02*
X134025D01*
G01X135075D02*
X135375D01*
G01X135450D02*
X135750D01*
G01X136800D02*
X137100D01*
G01X138300D02*
X138600D01*
G01X139725D02*
X140025D01*
G01X141750D02*
X142050D01*
G01X143175D02*
X143475D01*
G01X145350D02*
X145650D01*
G01X146700D02*
X147000D01*
G01X148800D02*
X149175D01*
G01X150225D02*
X150825D01*
G01X151875D02*
X152175D01*
G01X153375D02*
X153750D01*
G01X154800D02*
X155100D01*
G01X156900D02*
X157200D01*
G01X158250D02*
X158550D01*
G01X133650Y133675D02*
X133950D01*
G01X135075D02*
X135375D01*
G01X135450D02*
X135750D01*
G01X136800D02*
X137100D01*
G01X138300D02*
X138600D01*
G01X139725D02*
X140025D01*
G01X141750D02*
X142050D01*
G01X143175D02*
X143475D01*
G01X145350D02*
X145650D01*
G01X146775D02*
X147075D01*
G01X148800D02*
X149100D01*
G01X150150D02*
X150825D01*
G01X151875D02*
X152175D01*
G01X153450D02*
X153750D01*
G01X154800D02*
X155100D01*
G01X156900D02*
X157125D01*
G01X158250D02*
X158550D01*
G01X133650Y133600D02*
X133950D01*
G01X135075D02*
X135375D01*
G01X135450D02*
X135750D01*
G01X136800D02*
X137100D01*
G01X138375D02*
X138675D01*
G01X139725D02*
X140025D01*
G01X141750D02*
X142050D01*
G01X143175D02*
X143475D01*
G01X145350D02*
X145650D01*
G01X146775D02*
X147075D01*
G01X148800D02*
X149100D01*
G01X150150D02*
X150825D01*
G01X151875D02*
X152175D01*
G01X153450D02*
X153750D01*
G01X154800D02*
X155100D01*
G01X156825D02*
X157125D01*
G01X158250D02*
X158550D01*
G01X133650Y133525D02*
X133950D01*
G01X135075D02*
X135375D01*
G01X135450D02*
X135750D01*
G01X136800D02*
X137100D01*
G01X138375D02*
X138675D01*
G01X139725D02*
X140100D01*
G01X141675D02*
X141975D01*
G01X143175D02*
X143475D01*
G01X145350D02*
X145650D01*
G01X146775D02*
X147075D01*
G01X148725D02*
X149100D01*
G01X150150D02*
X150450D01*
G01X150525D02*
X150825D01*
G01X151875D02*
X152175D01*
G01X153450D02*
X153750D01*
G01X154875D02*
X155175D01*
G01X156825D02*
X157125D01*
G01X158250D02*
X158550D01*
G01X133575Y133450D02*
X133950D01*
G01X135075D02*
X135375D01*
G01X135450D02*
X135750D01*
G01X136800D02*
X137100D01*
G01X138375D02*
X138675D01*
G01X139800D02*
X140100D01*
G01X141600D02*
X141975D01*
G01X143175D02*
X143475D01*
G01X145425D02*
X145725D01*
G01X146775D02*
X147150D01*
G01X148725D02*
X149025D01*
G01X150150D02*
X150450D01*
G01X150525D02*
X150825D01*
G01X151875D02*
X152175D01*
G01X153450D02*
X153750D01*
G01X154875D02*
X155250D01*
G01X156750D02*
X157125D01*
G01X158250D02*
X158550D01*
G01X133500Y133375D02*
X133875D01*
G01X135075D02*
X135375D01*
G01X135450D02*
X135750D01*
G01X136800D02*
X137100D01*
G01X138375D02*
X138675D01*
G01X139800D02*
X140100D01*
G01X141600D02*
X141900D01*
G01X143175D02*
X143475D01*
G01X145425D02*
X145725D01*
G01X146850D02*
X147225D01*
G01X148650D02*
X148950D01*
G01X150150D02*
X150450D01*
G01X150525D02*
X150825D01*
G01X151875D02*
X152175D01*
G01X153450D02*
X153750D01*
G01X154950D02*
X155250D01*
G01X156750D02*
X157050D01*
G01X158250D02*
X158550D01*
G01X133500Y133300D02*
X133800D01*
G01X135075D02*
X135375D01*
G01X135450D02*
X135750D01*
G01X136800D02*
X137100D01*
G01X138450D02*
X138750D01*
G01X139800D02*
X140175D01*
G01X141525D02*
X141900D01*
G01X143175D02*
X143475D01*
G01X145425D02*
X145725D01*
G01X146850D02*
X147225D01*
G01X148650D02*
X148950D01*
G01X150075D02*
X150375D01*
G01X150525D02*
X150825D01*
G01X151875D02*
X152175D01*
G01X153525D02*
X153825D01*
G01X154950D02*
X155250D01*
G01X156675D02*
X157050D01*
G01X158250D02*
X158550D01*
G01X133425Y133225D02*
X133800D01*
G01X135075D02*
X135375D01*
G01X135450D02*
X135750D01*
G01X136800D02*
X137100D01*
G01X138450D02*
X138750D01*
G01X139800D02*
X140175D01*
G01X141525D02*
X141900D01*
G01X143175D02*
X143475D01*
G01X145500D02*
X145800D01*
G01X146850D02*
X147225D01*
G01X148575D02*
X148950D01*
G01X150075D02*
X150375D01*
G01X150525D02*
X150825D01*
G01X151875D02*
X152175D01*
G01X153525D02*
X153825D01*
G01X154950D02*
X155250D01*
G01X156600D02*
X156975D01*
G01X158250D02*
X158550D01*
G01X133425Y133150D02*
X133725D01*
G01X135075D02*
X135375D01*
G01X135450D02*
X135750D01*
G01X136800D02*
X137100D01*
G01X138450D02*
X138750D01*
G01X139875D02*
X140250D01*
G01X141450D02*
X141825D01*
G01X143175D02*
X143475D01*
G01X145500D02*
X145800D01*
G01X146850D02*
X147300D01*
G01X148575D02*
X148875D01*
G01X150075D02*
X150375D01*
G01X150525D02*
X150825D01*
G01X151875D02*
X152175D01*
G01X153525D02*
X153825D01*
G01X154950D02*
X155325D01*
G01X156600D02*
X156975D01*
G01X158250D02*
X158550D01*
G01X133275Y133075D02*
X133725D01*
G01X135075D02*
X135375D01*
G01X135450D02*
X135750D01*
G01X136800D02*
X137100D01*
G01X138450D02*
X138750D01*
G01X139950D02*
X140400D01*
G01X141375D02*
X141825D01*
G01X143175D02*
X143475D01*
G01X144225D02*
X144900D01*
G01X145500D02*
X145875D01*
G01X146925D02*
X147375D01*
G01X148425D02*
X148875D01*
G01X150000D02*
X150300D01*
G01X150525D02*
X150825D01*
G01X151875D02*
X152175D01*
G01X153525D02*
X153900D01*
G01X155025D02*
X155475D01*
G01X156525D02*
X156975D01*
G01X158250D02*
X158550D01*
G01X133200Y133000D02*
X133650D01*
G01X135075D02*
X135375D01*
G01X135450D02*
X135750D01*
G01X136800D02*
X137100D01*
G01X138450D02*
X138750D01*
G01X140025D02*
X140475D01*
G01X141300D02*
X141750D01*
G01X143175D02*
X143475D01*
G01X144150D02*
X145050D01*
G01X145500D02*
X145875D01*
G01X147075D02*
X147525D01*
G01X148350D02*
X148800D01*
G01X149925D02*
X150300D01*
G01X150525D02*
X150825D01*
G01X151875D02*
X152175D01*
G01X153600D02*
X153900D01*
G01X155100D02*
X155550D01*
G01X156375D02*
X156900D01*
G01X158250D02*
X158550D01*
G01X133050Y132925D02*
X133650D01*
G01X135075D02*
X135375D01*
G01X135450D02*
X135750D01*
G01X136800D02*
X137100D01*
G01X138450D02*
X138825D01*
G01X140100D02*
X140550D01*
G01X141150D02*
X141675D01*
G01X143175D02*
X143475D01*
G01X144075D02*
X145200D01*
G01X145500D02*
X145875D01*
G01X147075D02*
X147600D01*
G01X148200D02*
X148725D01*
G01X149925D02*
X150225D01*
G01X150525D02*
X150825D01*
G01X151875D02*
X152175D01*
G01X153600D02*
X153900D01*
G01X155175D02*
X155625D01*
G01X156300D02*
X156825D01*
G01X158250D02*
X158550D01*
G01X135075Y132850D02*
X135375D01*
G01X135450D02*
X135750D01*
G01X136800D02*
X137100D01*
G01X138525D02*
X138825D01*
G01X140100D02*
X141600D01*
G01X143175D02*
X143475D01*
G01X144000D02*
X145200D01*
G01X145575D02*
X145875D01*
G01X147150D02*
X148650D01*
G01X149850D02*
X150225D01*
G01X150525D02*
X150825D01*
G01X151875D02*
X152175D01*
G01X153600D02*
X153900D01*
G01X155250D02*
X156750D01*
G01X158250D02*
X158550D01*
G01X135075Y132775D02*
X135375D01*
G01X135450D02*
X135750D01*
G01X136725D02*
X137100D01*
G01X138525D02*
X138900D01*
G01X140175D02*
X141525D01*
G01X143175D02*
X143475D01*
G01X143850D02*
X144525D01*
G01X144750D02*
X145350D01*
G01X145575D02*
X145950D01*
G01X147225D02*
X148575D01*
G01X149850D02*
X150225D01*
G01X150525D02*
X150825D01*
G01X151875D02*
X152175D01*
G01X153600D02*
X153975D01*
G01X155250D02*
X156675D01*
G01X158250D02*
X158550D01*
G01X132300Y132700D02*
X133275D01*
G01X135075D02*
X135375D01*
G01X135450D02*
X135750D01*
G01X136725D02*
X137100D01*
G01X138600D02*
X138975D01*
G01X140400D02*
X141375D01*
G01X143175D02*
X143475D01*
G01X143850D02*
X144225D01*
G01X144975D02*
X145350D01*
G01X145650D02*
X146025D01*
G01X147450D02*
X148425D01*
G01X149850D02*
X150225D01*
G01X150525D02*
X150825D01*
G01X151875D02*
X152175D01*
G01X153675D02*
X153975D01*
G01X155475D02*
X156450D01*
G01X158250D02*
X158550D01*
G01X132450Y132625D02*
X133125D01*
G01X135075D02*
X135375D01*
G01X135450D02*
X135750D01*
G01X136725D02*
X137100D01*
G01X138675D02*
X138975D01*
G01X140550D02*
X141150D01*
G01X143175D02*
X143475D01*
G01X143850D02*
X144150D01*
G01X145050D02*
X145425D01*
G01X145725D02*
X146100D01*
G01X147525D02*
X148200D01*
G01X149775D02*
X150150D01*
G01X150525D02*
X150825D01*
G01X151875D02*
X152175D01*
G01X153675D02*
X154050D01*
G01X155700D02*
X156300D01*
G01X158250D02*
X158550D01*
G01X135075Y132550D02*
X135375D01*
G01X135450D02*
X135750D01*
G01X136725D02*
X137100D01*
G01X138675D02*
X139050D01*
G01X143175D02*
X143475D01*
G01X143775D02*
X144150D01*
G01X145125D02*
X145425D01*
G01X145725D02*
X146100D01*
G01X149700D02*
X150075D01*
G01X150525D02*
X150825D01*
G01X151875D02*
X152175D01*
G01X153750D02*
X154050D01*
G01X158250D02*
X158550D01*
G01X135075Y132475D02*
X135375D01*
G01X135450D02*
X135750D01*
G01X136725D02*
X137100D01*
G01X138750D02*
X139125D01*
G01X143175D02*
X143475D01*
G01X143775D02*
X144075D01*
G01X145125D02*
X145500D01*
G01X145800D02*
X146175D01*
G01X149700D02*
X150075D01*
G01X150525D02*
X150825D01*
G01X151875D02*
X152175D01*
G01X153750D02*
X154125D01*
G01X158250D02*
X158550D01*
G01X133950Y132400D02*
X134025D01*
G01X135075D02*
X135375D01*
G01X135450D02*
X135750D01*
G01X136725D02*
X137100D01*
G01X138750D02*
X139125D01*
G01X141900D02*
X141975D01*
G01X143175D02*
X143475D01*
G01X143700D02*
X144075D01*
G01X145200D02*
X145500D01*
G01X145875D02*
X146250D01*
G01X149550D02*
X150000D01*
G01X150525D02*
X150825D01*
G01X151875D02*
X152175D01*
G01X153825D02*
X154200D01*
G01X158250D02*
X158550D01*
G01X133875Y132325D02*
X133950D01*
G01X135075D02*
X135375D01*
G01X135450D02*
X135750D01*
G01X136725D02*
X137100D01*
G01X138825D02*
X139200D01*
G01X141900D02*
X141975D01*
G01X143175D02*
X143475D01*
G01X143700D02*
X144000D01*
G01X145200D02*
X145500D01*
G01X145875D02*
X146325D01*
G01X149550D02*
X149925D01*
G01X150525D02*
X150825D01*
G01X151875D02*
X152175D01*
G01X153900D02*
X154275D01*
G01X158250D02*
X158550D01*
G01X133800Y132250D02*
X134025D01*
G01X135075D02*
X135375D01*
G01X135450D02*
X135750D01*
G01X136725D02*
X137100D01*
G01X138900D02*
X139275D01*
G01X141825D02*
X142050D01*
G01X143175D02*
X143475D01*
G01X143700D02*
X144000D01*
G01X145200D02*
X145500D01*
G01X145950D02*
X146400D01*
G01X149475D02*
X149850D01*
G01X150525D02*
X150825D01*
G01X151875D02*
X152175D01*
G01X153900D02*
X154275D01*
G01X156975D02*
X157200D01*
G01X158250D02*
X158550D01*
G01X133725Y132175D02*
X134100D01*
G01X135075D02*
X135375D01*
G01X135450D02*
X135750D01*
G01X136725D02*
X137100D01*
G01X138900D02*
X139350D01*
G01X141825D02*
X142050D01*
G01X143175D02*
X143475D01*
G01X143700D02*
X144000D01*
G01X145200D02*
X145500D01*
G01X146025D02*
X146475D01*
G01X149400D02*
X149850D01*
G01X150525D02*
X150825D01*
G01X151875D02*
X152175D01*
G01X153900D02*
X154275D01*
G01X156900D02*
X157200D01*
G01X158250D02*
X158550D01*
G01X133725Y132100D02*
X134100D01*
G01X135075D02*
X135375D01*
G01X135450D02*
X135750D01*
G01X136725D02*
X137100D01*
G01X138975D02*
X139425D01*
G01X141750D02*
X142125D01*
G01X143100D02*
X143475D01*
G01X143700D02*
X144075D01*
G01X145200D02*
X145500D01*
G01X146025D02*
X146550D01*
G01X149250D02*
X149775D01*
G01X150525D02*
X150825D01*
G01X151875D02*
X152175D01*
G01X153975D02*
X154500D01*
G01X156825D02*
X157200D01*
G01X158250D02*
X158550D01*
G01X133575Y132025D02*
X134100D01*
G01X135075D02*
X135375D01*
G01X135450D02*
X135750D01*
G01X136725D02*
X137100D01*
G01X139125D02*
X139575D01*
G01X141675D02*
X142125D01*
G01X143100D02*
X143400D01*
G01X143775D02*
X144075D01*
G01X145200D02*
X145500D01*
G01X146175D02*
X146625D01*
G01X149175D02*
X149625D01*
G01X150525D02*
X150900D01*
G01X151800D02*
X152175D01*
G01X154125D02*
X154575D01*
G01X156750D02*
X157200D01*
G01X158250D02*
X158550D01*
G01X133500Y131950D02*
X134100D01*
G01X135000D02*
X135300D01*
G01X135450D02*
X135750D01*
G01X136725D02*
X137100D01*
G01X139125D02*
X139650D01*
G01X141600D02*
X142125D01*
G01X143100D02*
X143400D01*
G01X143775D02*
X144075D01*
G01X145125D02*
X145500D01*
G01X146250D02*
X146775D01*
G01X149100D02*
X149550D01*
G01X150525D02*
X150900D01*
G01X151800D02*
X152100D01*
G01X154125D02*
X154575D01*
G01X156600D02*
X157200D01*
G01X158250D02*
X158550D01*
G01X133425Y131875D02*
X134100D01*
G01X135000D02*
X135300D01*
G01X135450D02*
X135825D01*
G01X136725D02*
X137025D01*
G01X139200D02*
X139725D01*
G01X141525D02*
X142125D01*
G01X143025D02*
X143400D01*
G01X143775D02*
X144150D01*
G01X145125D02*
X145425D01*
G01X146325D02*
X146850D01*
G01X148950D02*
X149550D01*
G01X150525D02*
X150900D01*
G01X151725D02*
X152100D01*
G01X154200D02*
X154725D01*
G01X156600D02*
X157200D01*
G01X158250D02*
X158550D01*
G01X133350Y131800D02*
X134175D01*
G01X134925D02*
X135300D01*
G01X135525D02*
X135900D01*
G01X136650D02*
X137025D01*
G01X139275D02*
X139800D01*
G01X141450D02*
X142200D01*
G01X142950D02*
X143325D01*
G01X143850D02*
X144150D01*
G01X145050D02*
X145425D01*
G01X146400D02*
X147000D01*
G01X148875D02*
X149475D01*
G01X150600D02*
X150975D01*
G01X151650D02*
X152100D01*
G01X154275D02*
X154800D01*
G01X156450D02*
X157200D01*
G01X158250D02*
X158550D01*
G01X133050Y131725D02*
X133725D01*
G01X133875D02*
X134400D01*
G01X134625D02*
X135225D01*
G01X135525D02*
X136125D01*
G01X136425D02*
X136950D01*
G01X139350D02*
X140100D01*
G01X141150D02*
X142500D01*
G01X142725D02*
X143325D01*
G01X143850D02*
X144300D01*
G01X144825D02*
X145350D01*
G01X146475D02*
X147300D01*
G01X148500D02*
X149325D01*
G01X150600D02*
X151200D01*
G01X151425D02*
X152025D01*
G01X154350D02*
X155100D01*
G01X156225D02*
X157200D01*
G01X158250D02*
X158550D01*
G01X132750Y131650D02*
X133650D01*
G01X133950D02*
X135150D01*
G01X135675D02*
X136875D01*
G01X139500D02*
X140550D01*
G01X140700D02*
X141675D01*
G01X141975D02*
X143175D01*
G01X143925D02*
X144525D01*
G01X144675D02*
X145275D01*
G01X146700D02*
X147750D01*
G01X148050D02*
X149175D01*
G01X150750D02*
X151950D01*
G01X154500D02*
X155625D01*
G01X155700D02*
X156750D01*
G01X156900D02*
X157200D01*
G01X158250D02*
X158550D01*
G01X134025Y131575D02*
X135075D01*
G01X135750D02*
X136800D01*
G01X139650D02*
X141600D01*
G01X142050D02*
X143175D01*
G01X144000D02*
X145200D01*
G01X146850D02*
X149025D01*
G01X150825D02*
X151875D01*
G01X154575D02*
X156600D01*
G01X156900D02*
X157200D01*
G01X158250D02*
X158550D01*
G01X134100Y131500D02*
X135075D01*
G01X135750D02*
X136725D01*
G01X139800D02*
X141450D01*
G01X142125D02*
X143100D01*
G01X144075D02*
X145200D01*
G01X146925D02*
X148875D01*
G01X150900D02*
X151800D01*
G01X154725D02*
X156600D01*
G01X156825D02*
X157125D01*
G01X158250D02*
X158550D01*
G01X134175Y131425D02*
X134925D01*
G01X135900D02*
X136575D01*
G01X139950D02*
X141375D01*
G01X142200D02*
X142950D01*
G01X144150D02*
X145050D01*
G01X147150D02*
X148725D01*
G01X150975D02*
X151650D01*
G01X154950D02*
X156375D01*
G01X156750D02*
X157125D01*
G01X158175D02*
X158550D01*
G01X132525Y131350D02*
X132750D01*
G01X140550D02*
X140775D01*
G01X144525D02*
X144600D01*
G01X147825D02*
X148050D01*
G01X155550D02*
X155850D01*
G01X156750D02*
X157050D01*
G01X158175D02*
X158475D01*
G01X153900Y131275D02*
X154500D01*
G01X156675D02*
X157050D01*
G01X158175D02*
X158475D01*
G01X153900Y131200D02*
X154650D01*
G01X156675D02*
X157050D01*
G01X158175D02*
X158475D01*
G01X153825Y131125D02*
X154875D01*
G01X156600D02*
X156975D01*
G01X158100D02*
X158400D01*
G01X153675Y131050D02*
X155175D01*
G01X156450D02*
X156975D01*
G01X158100D02*
X158400D01*
G01X153600Y130975D02*
X154050D01*
G01X154425D02*
X155400D01*
G01X156300D02*
X156900D01*
G01X158025D02*
X158400D01*
G01X153600Y130900D02*
X153900D01*
G01X154650D02*
X156825D01*
G01X158025D02*
X158325D01*
G01X153600Y130825D02*
X153900D01*
G01X154800D02*
X156675D01*
G01X157950D02*
X158325D01*
G01X153525Y130750D02*
X153900D01*
G01X154950D02*
X156600D01*
G01X157950D02*
X158325D01*
G01X153525Y130675D02*
X153825D01*
G01X155325D02*
X156300D01*
G01X157950D02*
X158250D01*
G01X153525Y130600D02*
X153825D01*
G01X155775D02*
X155850D01*
G01X157875D02*
X158250D01*
G01X153525Y130525D02*
X153825D01*
G01X157800D02*
X158175D01*
G01X153525Y130450D02*
X153825D01*
G01X157725D02*
X158175D01*
G01X153525Y130375D02*
X153900D01*
G01X157650D02*
X158100D01*
G01X153600Y130300D02*
X153900D01*
G01X157650D02*
X157950D01*
G01X153600Y130225D02*
X153975D01*
G01X157575D02*
X157950D01*
G01X153600Y130150D02*
X154050D01*
G01X157425D02*
X157950D01*
G01X153675Y130075D02*
X154275D01*
G01X157275D02*
X157875D01*
G01X153825Y130000D02*
X154350D01*
G01X157125D02*
X157650D01*
G01X153900Y129925D02*
X154575D01*
G01X156975D02*
X157650D01*
G01X153900Y129850D02*
X154725D01*
G01X156900D02*
X157575D01*
G01X154050Y129775D02*
X154950D01*
G01X156600D02*
X157425D01*
G01X154200Y129700D02*
X157275D01*
G01X154500Y129625D02*
X157050D01*
G01X154725Y129550D02*
X156900D01*
G01X154950Y129475D02*
X156600D01*
G01X155250Y129400D02*
X156375D01*
G54D11*
G01X-26367Y-5000D02*
Y-2200D01*
X-25500Y-4533D01*
X-24633Y-2200D01*
Y-5000D01*
G01X-23500D02*
Y-2200D01*
G01X-22100D02*
Y-5000D01*
G01Y-3600D02*
X-23500D01*
G01X-20100Y-5000D02*
Y-2200D01*
X-20500Y-2760D01*
G01Y-5000D02*
X-19700D01*
G01X-24167Y22560D02*
X-24000Y22280D01*
X-23800Y22093D01*
X-23567Y22000D01*
X-23300Y22093D01*
X-23100Y22280D01*
X-22900Y22560D01*
X-22833Y22933D01*
Y24800D01*
G01X-21433Y24333D02*
X-21233Y24613D01*
X-21000Y24753D01*
X-20733Y24800D01*
X-20400Y24707D01*
X-20167Y24473D01*
X-20100Y24193D01*
X-20133Y23913D01*
X-20267Y23680D01*
X-20933Y23213D01*
X-21233Y22887D01*
X-21433Y22420D01*
X-21500Y22000D01*
X-20100D01*
G01X-25200Y6373D02*
X-24933Y6140D01*
X-24633Y6000D01*
X-24367D01*
X-24100Y6140D01*
X-23900Y6373D01*
X-23800Y6700D01*
X-23867Y7027D01*
X-24033Y7307D01*
X-24333Y7493D01*
X-24733Y7587D01*
X-24967Y7773D01*
X-25067Y8100D01*
X-25000Y8427D01*
X-24833Y8660D01*
X-24600Y8800D01*
X-24367D01*
X-24133Y8707D01*
X-23933Y8473D01*
G01X-21800Y6000D02*
Y8800D01*
X-22200Y8240D01*
G01Y6000D02*
X-21400D01*
G01X4440Y22833D02*
X4720Y23000D01*
X4907Y23200D01*
X5000Y23433D01*
X4907Y23700D01*
X4720Y23900D01*
X4440Y24100D01*
X4067Y24167D01*
X2200D01*
G01X4067Y25767D02*
Y26633D01*
G01X2200Y28233D02*
X5000D01*
Y29567D01*
G01X3133Y31600D02*
X5000D01*
G01X2387D02*
X2340Y31533D01*
X2247D01*
X2200Y31600D01*
X2247Y31667D01*
X2340D01*
X2387Y31600D01*
G01X5000Y33733D02*
X3133D01*
G01X3600D02*
X3367Y33867D01*
X3180Y34067D01*
X3133Y34333D01*
X3180Y34567D01*
X3367Y34767D01*
X3693Y34867D01*
X5000D01*
G01Y36433D02*
X2200D01*
G01X3133Y37500D02*
X4207Y36433D01*
G01X3787Y36867D02*
X5000Y37567D01*
G01X4067Y39267D02*
Y40133D01*
G01X3833Y41767D02*
X3507Y42000D01*
X3320Y42200D01*
X3227Y42467D01*
X3320Y42700D01*
X3507Y42867D01*
X3787Y43000D01*
X4113Y43033D01*
X4393Y43000D01*
X4673Y42867D01*
X4907Y42667D01*
X5000Y42433D01*
X4907Y42167D01*
X4627Y41933D01*
X4207Y41800D01*
X3740Y41767D01*
X3133Y41833D01*
X2807Y41933D01*
X2480Y42100D01*
X2247Y42333D01*
X2200Y42567D01*
X2293Y42800D01*
X2527Y42967D01*
G01X5000Y44433D02*
X2200D01*
Y45233D01*
X2340Y45500D01*
X2667Y45700D01*
X3040Y45767D01*
X3413Y45700D01*
X3693Y45533D01*
X3833Y45233D01*
Y44433D01*
G01X2200Y47400D02*
Y48200D01*
G01Y47800D02*
X5000D01*
G01Y47400D02*
Y48200D01*
G01Y49733D02*
X2200D01*
X5000Y51267D01*
X2200D01*
G01X4067Y52767D02*
Y53633D01*
G01X4440Y55233D02*
X4720Y55400D01*
X4907Y55600D01*
X5000Y55833D01*
X4907Y56100D01*
X4720Y56300D01*
X4440Y56500D01*
X4067Y56567D01*
X2200D01*
G01Y58600D02*
X5000D01*
G01X2200Y57833D02*
Y59367D01*
G01X5000Y60467D02*
X2200Y61300D01*
X5000Y62133D01*
G01X4020Y61833D02*
Y60767D01*
G01X3600Y64200D02*
Y64867D01*
X4440D01*
X4720Y64667D01*
X4907Y64433D01*
X5000Y64100D01*
X4907Y63767D01*
X4720Y63533D01*
X4440Y63333D01*
X4113Y63200D01*
X3740Y63133D01*
X3413D01*
X3133Y63200D01*
X2807Y63333D01*
X2527Y63533D01*
X2340Y63733D01*
X2200Y64000D01*
Y64233D01*
X2293Y64500D01*
X2480Y64700D01*
G01X12167Y17500D02*
X13000Y20300D01*
X13833Y17500D01*
G01X13533Y18480D02*
X12467D01*
G01X-1333Y-5500D02*
X-500Y-2700D01*
X333Y-5500D01*
G01X33Y-4520D02*
X-1033D01*
G01X43000Y-1200D02*
Y-4000D01*
G01X42233Y-1200D02*
X43767D01*
G01X45033Y-4000D02*
Y-1200D01*
X45833D01*
X46100Y-1340D01*
X46300Y-1667D01*
X46367Y-2040D01*
X46300Y-2413D01*
X46133Y-2693D01*
X45833Y-2833D01*
X45033D01*
G01X47767D02*
X48000Y-2507D01*
X48200Y-2320D01*
X48467Y-2227D01*
X48700Y-2320D01*
X48867Y-2507D01*
X49000Y-2787D01*
X49033Y-3113D01*
X49000Y-3393D01*
X48867Y-3673D01*
X48667Y-3907D01*
X48433Y-4000D01*
X48167Y-3907D01*
X47933Y-3627D01*
X47800Y-3207D01*
X47767Y-2740D01*
X47833Y-2133D01*
X47933Y-1807D01*
X48100Y-1480D01*
X48333Y-1247D01*
X48567Y-1200D01*
X48800Y-1293D01*
X48967Y-1527D01*
G01X53500Y-1200D02*
Y-4000D01*
G01X52733Y-1200D02*
X54267D01*
G01X55533Y-4000D02*
Y-1200D01*
X56333D01*
X56600Y-1340D01*
X56800Y-1667D01*
X56867Y-2040D01*
X56800Y-2413D01*
X56633Y-2693D01*
X56333Y-2833D01*
X55533D01*
G01X58833Y-4000D02*
X58900Y-3393D01*
X59000Y-2880D01*
X59133Y-2413D01*
X59300Y-1900D01*
X59567Y-1200D01*
X58233D01*
G01X31000D02*
Y-4000D01*
G01X30233Y-1200D02*
X31767D01*
G01X33033Y-4000D02*
Y-1200D01*
X33833D01*
X34100Y-1340D01*
X34300Y-1667D01*
X34367Y-2040D01*
X34300Y-2413D01*
X34133Y-2693D01*
X33833Y-2833D01*
X33033D01*
G01X36400Y-4000D02*
X36633Y-3953D01*
X36900Y-3813D01*
X37067Y-3580D01*
X37133Y-3253D01*
X37067Y-2927D01*
X36867Y-2647D01*
X36567Y-2507D01*
X36233D01*
X36033Y-2413D01*
X35867Y-2180D01*
X35800Y-1853D01*
X35900Y-1527D01*
X36133Y-1293D01*
X36400Y-1200D01*
X36667Y-1293D01*
X36900Y-1527D01*
X37000Y-1853D01*
X36933Y-2180D01*
X36767Y-2413D01*
X36567Y-2507D01*
X36233D01*
X35933Y-2647D01*
X35733Y-2927D01*
X35667Y-3253D01*
X35733Y-3580D01*
X35900Y-3813D01*
X36167Y-3953D01*
X36400Y-4000D01*
G01X17500Y-1200D02*
Y-4000D01*
G01X16733Y-1200D02*
X18267D01*
G01X19533Y-4000D02*
Y-1200D01*
X20333D01*
X20600Y-1340D01*
X20800Y-1667D01*
X20867Y-2040D01*
X20800Y-2413D01*
X20633Y-2693D01*
X20333Y-2833D01*
X19533D01*
G01X22900Y-4000D02*
Y-1200D01*
X22500Y-1760D01*
G01Y-4000D02*
X23300D01*
G01X24967Y-1667D02*
X25167Y-1387D01*
X25400Y-1247D01*
X25667Y-1200D01*
X26000Y-1293D01*
X26233Y-1527D01*
X26300Y-1807D01*
X26267Y-2087D01*
X26133Y-2320D01*
X25467Y-2787D01*
X25167Y-3113D01*
X24967Y-3580D01*
X24900Y-4000D01*
X26300D01*
G01X-10000Y8800D02*
Y6000D01*
G01X-10767Y8800D02*
X-9233D01*
G01X-7967Y6000D02*
Y8800D01*
X-7167D01*
X-6900Y8660D01*
X-6700Y8333D01*
X-6633Y7960D01*
X-6700Y7587D01*
X-6867Y7307D01*
X-7167Y7167D01*
X-7967D01*
G01X-4600Y6000D02*
Y8800D01*
X-5000Y8240D01*
G01Y6000D02*
X-4200D01*
G01X-2633Y6560D02*
X-2433Y6233D01*
X-2167Y6047D01*
X-1867Y6000D01*
X-1600Y6047D01*
X-1333Y6280D01*
X-1167Y6560D01*
X-1133Y6840D01*
X-1200Y7167D01*
X-1433Y7400D01*
X-1667Y7493D01*
X-1967D01*
G01X-1667D02*
X-1467Y7633D01*
X-1300Y7867D01*
X-1233Y8147D01*
X-1300Y8427D01*
X-1467Y8660D01*
X-1767Y8800D01*
X-2067Y8753D01*
X-2367Y8567D01*
G01X9500Y5300D02*
Y2500D01*
G01X8733Y5300D02*
X10267D01*
G01X11533Y2500D02*
Y5300D01*
X12333D01*
X12600Y5160D01*
X12800Y4833D01*
X12867Y4460D01*
X12800Y4087D01*
X12633Y3807D01*
X12333Y3667D01*
X11533D01*
G01X14900Y2500D02*
Y5300D01*
X14500Y4740D01*
G01Y2500D02*
X15300D01*
G01X18000D02*
Y5300D01*
X16767Y3293D01*
X18433D01*
G01X-10000Y2300D02*
Y-500D01*
G01X-10767Y2300D02*
X-9233D01*
G01X-7967Y-500D02*
Y2300D01*
X-7167D01*
X-6900Y2160D01*
X-6700Y1833D01*
X-6633Y1460D01*
X-6700Y1087D01*
X-6867Y807D01*
X-7167Y667D01*
X-7967D01*
G01X-4600Y-500D02*
Y2300D01*
X-5000Y1740D01*
G01Y-500D02*
X-4200D01*
G01X-2633Y-80D02*
X-2433Y-313D01*
X-2200Y-453D01*
X-1900Y-500D01*
X-1600Y-407D01*
X-1367Y-220D01*
X-1200Y107D01*
X-1167Y480D01*
X-1233Y853D01*
X-1400Y1087D01*
X-1633Y1273D01*
X-1867Y1320D01*
X-2100Y1273D01*
X-2400Y1087D01*
X-2300Y2300D01*
X-1400D01*
G01X10000Y-21200D02*
Y-24000D01*
G01X9233Y-21200D02*
X10767D01*
G01X12033Y-24000D02*
Y-21200D01*
X12833D01*
X13100Y-21340D01*
X13300Y-21667D01*
X13367Y-22040D01*
X13300Y-22413D01*
X13133Y-22693D01*
X12833Y-22833D01*
X12033D01*
G01X15400Y-24000D02*
Y-21200D01*
X15000Y-21760D01*
G01Y-24000D02*
X15800D01*
G01X17467Y-22833D02*
X17700Y-22507D01*
X17900Y-22320D01*
X18167Y-22227D01*
X18400Y-22320D01*
X18567Y-22507D01*
X18700Y-22787D01*
X18733Y-23113D01*
X18700Y-23393D01*
X18567Y-23673D01*
X18367Y-23907D01*
X18133Y-24000D01*
X17867Y-23907D01*
X17633Y-23627D01*
X17500Y-23207D01*
X17467Y-22740D01*
X17533Y-22133D01*
X17633Y-21807D01*
X17800Y-21480D01*
X18033Y-21247D01*
X18267Y-21200D01*
X18500Y-21293D01*
X18667Y-21527D01*
G01X42000Y-27667D02*
X39200D01*
Y-26833D01*
X39340Y-26567D01*
X39527Y-26400D01*
X39900Y-26333D01*
X40273Y-26400D01*
X40507Y-26600D01*
X40647Y-26833D01*
Y-27667D01*
G01Y-26833D02*
X42000Y-26333D01*
G01Y-24300D02*
X39200D01*
X39760Y-24700D01*
G01X42000D02*
Y-23900D01*
G01X40833Y-22233D02*
X40507Y-22000D01*
X40320Y-21800D01*
X40227Y-21533D01*
X40320Y-21300D01*
X40507Y-21133D01*
X40787Y-21000D01*
X41113Y-20967D01*
X41393Y-21000D01*
X41673Y-21133D01*
X41907Y-21333D01*
X42000Y-21567D01*
X41907Y-21833D01*
X41627Y-22067D01*
X41207Y-22200D01*
X40740Y-22233D01*
X40133Y-22167D01*
X39807Y-22067D01*
X39480Y-21900D01*
X39247Y-21667D01*
X39200Y-21433D01*
X39293Y-21200D01*
X39527Y-21033D01*
G01X28500Y-27667D02*
X25700D01*
Y-26833D01*
X25840Y-26567D01*
X26027Y-26400D01*
X26400Y-26333D01*
X26773Y-26400D01*
X27007Y-26600D01*
X27147Y-26833D01*
Y-27667D01*
G01Y-26833D02*
X28500Y-26333D01*
G01Y-24300D02*
X25700D01*
X26260Y-24700D01*
G01X28500D02*
Y-23900D01*
G01X28080Y-22333D02*
X28313Y-22133D01*
X28453Y-21900D01*
X28500Y-21600D01*
X28407Y-21300D01*
X28220Y-21067D01*
X27893Y-20900D01*
X27520Y-20867D01*
X27147Y-20933D01*
X26913Y-21100D01*
X26727Y-21333D01*
X26680Y-21567D01*
X26727Y-21800D01*
X26913Y-22100D01*
X25700Y-22000D01*
Y-21100D01*
G01X37500Y-27667D02*
X34700D01*
Y-26833D01*
X34840Y-26567D01*
X35027Y-26400D01*
X35400Y-26333D01*
X35773Y-26400D01*
X36007Y-26600D01*
X36147Y-26833D01*
Y-27667D01*
G01Y-26833D02*
X37500Y-26333D01*
G01Y-24300D02*
X34700D01*
X35260Y-24700D01*
G01X37500D02*
Y-23900D01*
G01Y-21200D02*
X34700D01*
X36707Y-22433D01*
Y-20767D01*
G01X33000Y-27667D02*
X30200D01*
Y-26833D01*
X30340Y-26567D01*
X30527Y-26400D01*
X30900Y-26333D01*
X31273Y-26400D01*
X31507Y-26600D01*
X31647Y-26833D01*
Y-27667D01*
G01Y-26833D02*
X33000Y-26333D01*
G01Y-24300D02*
X30200D01*
X30760Y-24700D01*
G01X33000D02*
Y-23900D01*
G01X32440Y-22333D02*
X32767Y-22133D01*
X32953Y-21867D01*
X33000Y-21567D01*
X32953Y-21300D01*
X32720Y-21033D01*
X32440Y-20867D01*
X32160Y-20833D01*
X31833Y-20900D01*
X31600Y-21133D01*
X31507Y-21367D01*
Y-21667D01*
G01Y-21367D02*
X31367Y-21167D01*
X31133Y-21000D01*
X30853Y-20933D01*
X30573Y-21000D01*
X30340Y-21167D01*
X30200Y-21467D01*
X30247Y-21767D01*
X30433Y-22067D01*
G01X2833Y-11000D02*
Y-8200D01*
X3667D01*
X3933Y-8340D01*
X4100Y-8527D01*
X4167Y-8900D01*
X4100Y-9273D01*
X3900Y-9507D01*
X3667Y-9647D01*
X2833D01*
G01X3667D02*
X4167Y-11000D01*
G01X5633Y-10673D02*
X5867Y-10907D01*
X6133Y-11000D01*
X6400Y-10907D01*
X6633Y-10627D01*
X6800Y-10207D01*
X6867Y-9787D01*
Y-9273D01*
X6800Y-8853D01*
X6633Y-8480D01*
X6433Y-8293D01*
X6200Y-8200D01*
X5933Y-8293D01*
X5733Y-8480D01*
X5600Y-8760D01*
X5533Y-9133D01*
X5600Y-9460D01*
X5767Y-9787D01*
X5967Y-9973D01*
X6200Y-10020D01*
X6467Y-9927D01*
X6667Y-9693D01*
X6867Y-9273D01*
G01X2833Y-18000D02*
Y-15200D01*
X3667D01*
X3933Y-15340D01*
X4100Y-15527D01*
X4167Y-15900D01*
X4100Y-16273D01*
X3900Y-16507D01*
X3667Y-16647D01*
X2833D01*
G01X3667D02*
X4167Y-18000D01*
G01X6200D02*
Y-15200D01*
X5800Y-15760D01*
G01Y-18000D02*
X6600D01*
G01X8900D02*
Y-15200D01*
X8500Y-15760D01*
G01Y-18000D02*
X9300D01*
G01X2833Y-14500D02*
Y-11700D01*
X3667D01*
X3933Y-11840D01*
X4100Y-12027D01*
X4167Y-12400D01*
X4100Y-12773D01*
X3900Y-13007D01*
X3667Y-13147D01*
X2833D01*
G01X3667D02*
X4167Y-14500D01*
G01X6200D02*
Y-11700D01*
X5800Y-12260D01*
G01Y-14500D02*
X6600D01*
G01X8900Y-11700D02*
X8633Y-11793D01*
X8433Y-12027D01*
X8300Y-12307D01*
X8200Y-12680D01*
X8167Y-13100D01*
X8200Y-13520D01*
X8300Y-13893D01*
X8433Y-14173D01*
X8633Y-14407D01*
X8900Y-14500D01*
X9167Y-14407D01*
X9367Y-14173D01*
X9500Y-13893D01*
X9600Y-13520D01*
X9633Y-13100D01*
X9600Y-12680D01*
X9500Y-12307D01*
X9367Y-12027D01*
X9167Y-11793D01*
X8900Y-11700D01*
G01X24000Y-28667D02*
X21200D01*
Y-27833D01*
X21340Y-27567D01*
X21527Y-27400D01*
X21900Y-27333D01*
X22273Y-27400D01*
X22507Y-27600D01*
X22647Y-27833D01*
Y-28667D01*
G01Y-27833D02*
X24000Y-27333D01*
G01Y-25300D02*
X21200D01*
X21760Y-25700D01*
G01X24000D02*
Y-24900D01*
G01Y-22200D02*
X21200D01*
X23207Y-23433D01*
Y-21767D01*
G01X21200Y-19900D02*
X21293Y-20167D01*
X21527Y-20367D01*
X21807Y-20500D01*
X22180Y-20600D01*
X22600Y-20633D01*
X23020Y-20600D01*
X23393Y-20500D01*
X23673Y-20367D01*
X23907Y-20167D01*
X24000Y-19900D01*
X23907Y-19633D01*
X23673Y-19433D01*
X23393Y-19300D01*
X23020Y-19200D01*
X22600Y-19167D01*
X22180Y-19200D01*
X21807Y-19300D01*
X21527Y-19433D01*
X21293Y-19633D01*
X21200Y-19900D01*
G01X2833Y-7500D02*
Y-4700D01*
X3667D01*
X3933Y-4840D01*
X4100Y-5027D01*
X4167Y-5400D01*
X4100Y-5773D01*
X3900Y-6007D01*
X3667Y-6147D01*
X2833D01*
G01X3667D02*
X4167Y-7500D01*
G01X6200D02*
Y-4700D01*
X5800Y-5260D01*
G01Y-7500D02*
X6600D01*
G01X9300D02*
Y-4700D01*
X8067Y-6707D01*
X9733D01*
G01X11600Y-7500D02*
Y-4700D01*
X11200Y-5260D01*
G01Y-7500D02*
X12000D01*
G01X2833Y-4000D02*
Y-1200D01*
X3667D01*
X3933Y-1340D01*
X4100Y-1527D01*
X4167Y-1900D01*
X4100Y-2273D01*
X3900Y-2507D01*
X3667Y-2647D01*
X2833D01*
G01X3667D02*
X4167Y-4000D01*
G01X6200D02*
Y-1200D01*
X5800Y-1760D01*
G01Y-4000D02*
X6600D01*
G01X9300D02*
Y-1200D01*
X8067Y-3207D01*
X9733D01*
G01X10967Y-1667D02*
X11167Y-1387D01*
X11400Y-1247D01*
X11667Y-1200D01*
X12000Y-1293D01*
X12233Y-1527D01*
X12300Y-1807D01*
X12267Y-2087D01*
X12133Y-2320D01*
X11467Y-2787D01*
X11167Y-3113D01*
X10967Y-3580D01*
X10900Y-4000D01*
X12300D01*
G01X4267Y74993D02*
X4400Y75133D01*
X4500Y75367D01*
X4567Y75693D01*
X4500Y75973D01*
X4367Y76160D01*
X4133Y76300D01*
X3233D01*
Y73500D01*
X4333D01*
X4567Y73687D01*
X4700Y73967D01*
X4767Y74293D01*
X4700Y74620D01*
X4500Y74900D01*
X4267Y74993D01*
X3233D01*
G01X4267Y90993D02*
X4400Y91133D01*
X4500Y91367D01*
X4567Y91693D01*
X4500Y91973D01*
X4367Y92160D01*
X4133Y92300D01*
X3233D01*
Y89500D01*
X4333D01*
X4567Y89687D01*
X4700Y89967D01*
X4767Y90293D01*
X4700Y90620D01*
X4500Y90900D01*
X4267Y90993D01*
X3233D01*
G01X1433Y68733D02*
X1293Y68533D01*
X1200Y68300D01*
Y68033D01*
X1340Y67733D01*
X1573Y67500D01*
X1853Y67333D01*
X2320Y67200D01*
X2740Y67167D01*
X3160Y67233D01*
X3440Y67333D01*
X3720Y67533D01*
X3907Y67767D01*
X4000Y68000D01*
Y68233D01*
X3907Y68467D01*
X3767Y68667D01*
X3580Y68833D01*
G01X4000Y70700D02*
X1200D01*
X1760Y70300D01*
G01X4000D02*
Y71100D01*
G01X-967Y99567D02*
X-1167Y99707D01*
X-1400Y99800D01*
X-1667D01*
X-1967Y99660D01*
X-2200Y99427D01*
X-2367Y99147D01*
X-2500Y98680D01*
X-2533Y98260D01*
X-2467Y97840D01*
X-2367Y97560D01*
X-2167Y97280D01*
X-1933Y97093D01*
X-1700Y97000D01*
X-1467D01*
X-1233Y97093D01*
X-1033Y97233D01*
X-867Y97420D01*
G01X1400Y97000D02*
Y99800D01*
X167Y97793D01*
X1833D01*
G01X3633Y97000D02*
X3700Y97607D01*
X3800Y98120D01*
X3933Y98587D01*
X4100Y99100D01*
X4367Y99800D01*
X3033D01*
G01X-967Y111567D02*
X-1167Y111707D01*
X-1400Y111800D01*
X-1667D01*
X-1967Y111660D01*
X-2200Y111427D01*
X-2367Y111147D01*
X-2500Y110680D01*
X-2533Y110260D01*
X-2467Y109840D01*
X-2367Y109560D01*
X-2167Y109280D01*
X-1933Y109093D01*
X-1700Y109000D01*
X-1467D01*
X-1233Y109093D01*
X-1033Y109233D01*
X-867Y109420D01*
G01X267D02*
X467Y109187D01*
X700Y109047D01*
X1000Y109000D01*
X1300Y109093D01*
X1533Y109280D01*
X1700Y109607D01*
X1733Y109980D01*
X1667Y110353D01*
X1500Y110587D01*
X1267Y110773D01*
X1033Y110820D01*
X800Y110773D01*
X500Y110587D01*
X600Y111800D01*
X1500D01*
G01X3700Y109000D02*
Y111800D01*
X3300Y111240D01*
G01Y109000D02*
X4100D01*
G01X19917Y109300D02*
Y107293D01*
X20050Y106873D01*
X20317Y106593D01*
X20650Y106500D01*
X20983Y106593D01*
X21250Y106873D01*
X21383Y107293D01*
Y109300D01*
G01X23350Y106500D02*
Y109300D01*
X22950Y108740D01*
G01Y106500D02*
X23750D01*
G01X7333Y77500D02*
Y80300D01*
X8167D01*
X8433Y80160D01*
X8600Y79973D01*
X8667Y79600D01*
X8600Y79227D01*
X8400Y78993D01*
X8167Y78853D01*
X7333D01*
G01X8167D02*
X8667Y77500D01*
G01X10633D02*
X10700Y78107D01*
X10800Y78620D01*
X10933Y79087D01*
X11100Y79600D01*
X11367Y80300D01*
X10033D01*
G01X7333Y84500D02*
Y87300D01*
X8167D01*
X8433Y87160D01*
X8600Y86973D01*
X8667Y86600D01*
X8600Y86227D01*
X8400Y85993D01*
X8167Y85853D01*
X7333D01*
G01X8167D02*
X8667Y84500D01*
G01X10067Y85667D02*
X10300Y85993D01*
X10500Y86180D01*
X10767Y86273D01*
X11000Y86180D01*
X11167Y85993D01*
X11300Y85713D01*
X11333Y85387D01*
X11300Y85107D01*
X11167Y84827D01*
X10967Y84593D01*
X10733Y84500D01*
X10467Y84593D01*
X10233Y84873D01*
X10100Y85293D01*
X10067Y85760D01*
X10133Y86367D01*
X10233Y86693D01*
X10400Y87020D01*
X10633Y87253D01*
X10867Y87300D01*
X11100Y87207D01*
X11267Y86973D01*
G01X7333Y88000D02*
Y90800D01*
X8167D01*
X8433Y90660D01*
X8600Y90473D01*
X8667Y90100D01*
X8600Y89727D01*
X8400Y89493D01*
X8167Y89353D01*
X7333D01*
G01X8167D02*
X8667Y88000D01*
G01X9967Y88420D02*
X10167Y88187D01*
X10400Y88047D01*
X10700Y88000D01*
X11000Y88093D01*
X11233Y88280D01*
X11400Y88607D01*
X11433Y88980D01*
X11367Y89353D01*
X11200Y89587D01*
X10967Y89773D01*
X10733Y89820D01*
X10500Y89773D01*
X10200Y89587D01*
X10300Y90800D01*
X11200D01*
G01X7333Y91500D02*
Y94300D01*
X8167D01*
X8433Y94160D01*
X8600Y93973D01*
X8667Y93600D01*
X8600Y93227D01*
X8400Y92993D01*
X8167Y92853D01*
X7333D01*
G01X8167D02*
X8667Y91500D01*
G01X9967Y92060D02*
X10167Y91733D01*
X10433Y91547D01*
X10733Y91500D01*
X11000Y91547D01*
X11267Y91780D01*
X11433Y92060D01*
X11467Y92340D01*
X11400Y92667D01*
X11167Y92900D01*
X10933Y92993D01*
X10633D01*
G01X10933D02*
X11133Y93133D01*
X11300Y93367D01*
X11367Y93647D01*
X11300Y93927D01*
X11133Y94160D01*
X10833Y94300D01*
X10533Y94253D01*
X10233Y94067D01*
G01X7333Y81000D02*
Y83800D01*
X8167D01*
X8433Y83660D01*
X8600Y83473D01*
X8667Y83100D01*
X8600Y82727D01*
X8400Y82493D01*
X8167Y82353D01*
X7333D01*
G01X8167D02*
X8667Y81000D01*
G01X10067Y83333D02*
X10267Y83613D01*
X10500Y83753D01*
X10767Y83800D01*
X11100Y83707D01*
X11333Y83473D01*
X11400Y83193D01*
X11367Y82913D01*
X11233Y82680D01*
X10567Y82213D01*
X10267Y81887D01*
X10067Y81420D01*
X10000Y81000D01*
X11400D01*
G01X7333Y74000D02*
Y76800D01*
X8167D01*
X8433Y76660D01*
X8600Y76473D01*
X8667Y76100D01*
X8600Y75727D01*
X8400Y75493D01*
X8167Y75353D01*
X7333D01*
G01X8167D02*
X8667Y74000D01*
G01X10700D02*
Y76800D01*
X10300Y76240D01*
G01Y74000D02*
X11100D01*
G01X2700Y102333D02*
X5500D01*
Y103667D01*
G01X3167Y105067D02*
X2887Y105267D01*
X2747Y105500D01*
X2700Y105767D01*
X2793Y106100D01*
X3027Y106333D01*
X3307Y106400D01*
X3587Y106367D01*
X3820Y106233D01*
X4287Y105567D01*
X4613Y105267D01*
X5080Y105067D01*
X5500Y105000D01*
Y106400D01*
G01X-17167Y97560D02*
X-17000Y97280D01*
X-16800Y97093D01*
X-16567Y97000D01*
X-16300Y97093D01*
X-16100Y97280D01*
X-15900Y97560D01*
X-15833Y97933D01*
Y99800D01*
G01X-13800Y97000D02*
Y99800D01*
X-14200Y99240D01*
G01Y97000D02*
X-13400D01*
G01X-4867Y136000D02*
Y138800D01*
X-4000Y136467D01*
X-3133Y138800D01*
Y136000D01*
G01X-2000D02*
Y138800D01*
G01X-600D02*
Y136000D01*
G01Y137400D02*
X-2000D01*
G01X1800Y136000D02*
Y138800D01*
X567Y136793D01*
X2233D01*
G01X11667Y142500D02*
X12500Y145300D01*
X13333Y142500D01*
G01X13033Y143480D02*
X11967D01*
G01X14433Y142500D02*
Y145300D01*
X15967Y142500D01*
Y145300D01*
G01X17900D02*
Y142500D01*
G01X17133Y145300D02*
X18667D01*
G01X20600Y142500D02*
Y145300D01*
X20200Y144740D01*
G01Y142500D02*
X21000D01*
G01X89933Y-8117D02*
X89793Y-8317D01*
X89700Y-8550D01*
Y-8817D01*
X89840Y-9117D01*
X90073Y-9350D01*
X90353Y-9517D01*
X90820Y-9650D01*
X91240Y-9683D01*
X91660Y-9617D01*
X91940Y-9517D01*
X92220Y-9317D01*
X92407Y-9083D01*
X92500Y-8850D01*
Y-8617D01*
X92407Y-8383D01*
X92267Y-8183D01*
X92080Y-8017D01*
G01X92500Y-6150D02*
X92453Y-5917D01*
X92313Y-5650D01*
X92080Y-5483D01*
X91753Y-5417D01*
X91427Y-5483D01*
X91147Y-5683D01*
X91007Y-5983D01*
Y-6317D01*
X90913Y-6517D01*
X90680Y-6683D01*
X90353Y-6750D01*
X90027Y-6650D01*
X89793Y-6417D01*
X89700Y-6150D01*
X89793Y-5883D01*
X90027Y-5650D01*
X90353Y-5550D01*
X90680Y-5617D01*
X90913Y-5783D01*
X91007Y-5983D01*
Y-6317D01*
X91147Y-6617D01*
X91427Y-6817D01*
X91753Y-6883D01*
X92080Y-6817D01*
X92313Y-6650D01*
X92453Y-6383D01*
X92500Y-6150D01*
G01X117933Y15883D02*
X117793Y15683D01*
X117700Y15450D01*
Y15183D01*
X117840Y14883D01*
X118073Y14650D01*
X118353Y14483D01*
X118820Y14350D01*
X119240Y14317D01*
X119660Y14383D01*
X119940Y14483D01*
X120220Y14683D01*
X120407Y14917D01*
X120500Y15150D01*
Y15383D01*
X120407Y15617D01*
X120267Y15817D01*
X120080Y15983D01*
G01X120500Y17783D02*
X119893Y17850D01*
X119380Y17950D01*
X118913Y18083D01*
X118400Y18250D01*
X117700Y18517D01*
Y17183D01*
G01X78933Y-18617D02*
X78793Y-18817D01*
X78700Y-19050D01*
Y-19317D01*
X78840Y-19617D01*
X79073Y-19850D01*
X79353Y-20017D01*
X79820Y-20150D01*
X80240Y-20183D01*
X80660Y-20117D01*
X80940Y-20017D01*
X81220Y-19817D01*
X81407Y-19583D01*
X81500Y-19350D01*
Y-19117D01*
X81407Y-18883D01*
X81267Y-18683D01*
X81080Y-18517D01*
G01X80940Y-17383D02*
X81267Y-17183D01*
X81453Y-16917D01*
X81500Y-16617D01*
X81453Y-16350D01*
X81220Y-16083D01*
X80940Y-15917D01*
X80660Y-15883D01*
X80333Y-15950D01*
X80100Y-16183D01*
X80007Y-16417D01*
Y-16717D01*
G01Y-16417D02*
X79867Y-16217D01*
X79633Y-16050D01*
X79353Y-15983D01*
X79073Y-16050D01*
X78840Y-16217D01*
X78700Y-16517D01*
X78747Y-16817D01*
X78933Y-17117D01*
G01X72933Y-18617D02*
X72793Y-18817D01*
X72700Y-19050D01*
Y-19317D01*
X72840Y-19617D01*
X73073Y-19850D01*
X73353Y-20017D01*
X73820Y-20150D01*
X74240Y-20183D01*
X74660Y-20117D01*
X74940Y-20017D01*
X75220Y-19817D01*
X75407Y-19583D01*
X75500Y-19350D01*
Y-19117D01*
X75407Y-18883D01*
X75267Y-18683D01*
X75080Y-18517D01*
G01X73167Y-17283D02*
X72887Y-17083D01*
X72747Y-16850D01*
X72700Y-16583D01*
X72793Y-16250D01*
X73027Y-16017D01*
X73307Y-15950D01*
X73587Y-15983D01*
X73820Y-16117D01*
X74287Y-16783D01*
X74613Y-17083D01*
X75080Y-17283D01*
X75500Y-17350D01*
Y-15950D01*
G01X102933Y-8117D02*
X102793Y-8317D01*
X102700Y-8550D01*
Y-8817D01*
X102840Y-9117D01*
X103073Y-9350D01*
X103353Y-9517D01*
X103820Y-9650D01*
X104240Y-9683D01*
X104660Y-9617D01*
X104940Y-9517D01*
X105220Y-9317D01*
X105407Y-9083D01*
X105500Y-8850D01*
Y-8617D01*
X105407Y-8383D01*
X105267Y-8183D01*
X105080Y-8017D01*
G01X105173Y-6717D02*
X105407Y-6483D01*
X105500Y-6217D01*
X105407Y-5950D01*
X105127Y-5717D01*
X104707Y-5550D01*
X104287Y-5483D01*
X103773D01*
X103353Y-5550D01*
X102980Y-5717D01*
X102793Y-5917D01*
X102700Y-6150D01*
X102793Y-6417D01*
X102980Y-6617D01*
X103260Y-6750D01*
X103633Y-6817D01*
X103960Y-6750D01*
X104287Y-6583D01*
X104473Y-6383D01*
X104520Y-6150D01*
X104427Y-5883D01*
X104193Y-5683D01*
X103773Y-5483D01*
G01X100533Y25067D02*
X100333Y25207D01*
X100100Y25300D01*
X99833D01*
X99533Y25160D01*
X99300Y24927D01*
X99133Y24647D01*
X99000Y24180D01*
X98967Y23760D01*
X99033Y23340D01*
X99133Y23060D01*
X99333Y22780D01*
X99567Y22593D01*
X99800Y22500D01*
X100033D01*
X100267Y22593D01*
X100467Y22733D01*
X100633Y22920D01*
G01X101767D02*
X101967Y22687D01*
X102200Y22547D01*
X102500Y22500D01*
X102800Y22593D01*
X103033Y22780D01*
X103200Y23107D01*
X103233Y23480D01*
X103167Y23853D01*
X103000Y24087D01*
X102767Y24273D01*
X102533Y24320D01*
X102300Y24273D01*
X102000Y24087D01*
X102100Y25300D01*
X103000D01*
G01X104567Y24833D02*
X104767Y25113D01*
X105000Y25253D01*
X105267Y25300D01*
X105600Y25207D01*
X105833Y24973D01*
X105900Y24693D01*
X105867Y24413D01*
X105733Y24180D01*
X105067Y23713D01*
X104767Y23387D01*
X104567Y22920D01*
X104500Y22500D01*
X105900D01*
G01X95917Y-6700D02*
Y-8707D01*
X96050Y-9127D01*
X96317Y-9407D01*
X96650Y-9500D01*
X96983Y-9407D01*
X97250Y-9127D01*
X97383Y-8707D01*
Y-6700D01*
G01X98617Y-8940D02*
X98817Y-9267D01*
X99083Y-9453D01*
X99383Y-9500D01*
X99650Y-9453D01*
X99917Y-9220D01*
X100083Y-8940D01*
X100117Y-8660D01*
X100050Y-8333D01*
X99817Y-8100D01*
X99583Y-8007D01*
X99283D01*
G01X99583D02*
X99783Y-7867D01*
X99950Y-7633D01*
X100017Y-7353D01*
X99950Y-7073D01*
X99783Y-6840D01*
X99483Y-6700D01*
X99183Y-6747D01*
X98883Y-6933D01*
G01X89700Y12917D02*
X91707D01*
X92127Y13050D01*
X92407Y13317D01*
X92500Y13650D01*
X92407Y13983D01*
X92127Y14250D01*
X91707Y14383D01*
X89700D01*
G01X90167Y15717D02*
X89887Y15917D01*
X89747Y16150D01*
X89700Y16417D01*
X89793Y16750D01*
X90027Y16983D01*
X90307Y17050D01*
X90587Y17017D01*
X90820Y16883D01*
X91287Y16217D01*
X91613Y15917D01*
X92080Y15717D01*
X92500Y15650D01*
Y17050D01*
G01X110000Y29800D02*
Y27000D01*
G01X109233Y29800D02*
X110767D01*
G01X112033Y27000D02*
Y29800D01*
X112833D01*
X113100Y29660D01*
X113300Y29333D01*
X113367Y28960D01*
X113300Y28587D01*
X113133Y28307D01*
X112833Y28167D01*
X112033D01*
G01X115400Y27000D02*
Y29800D01*
X115000Y29240D01*
G01Y27000D02*
X115800D01*
G01X64000Y-1200D02*
Y-4000D01*
G01X63233Y-1200D02*
X64767D01*
G01X66033Y-4000D02*
Y-1200D01*
X66833D01*
X67100Y-1340D01*
X67300Y-1667D01*
X67367Y-2040D01*
X67300Y-2413D01*
X67133Y-2693D01*
X66833Y-2833D01*
X66033D01*
G01X69400Y-4000D02*
Y-1200D01*
X69000Y-1760D01*
G01Y-4000D02*
X69800D01*
G01X72100Y-1200D02*
X71833Y-1293D01*
X71633Y-1527D01*
X71500Y-1807D01*
X71400Y-2180D01*
X71367Y-2600D01*
X71400Y-3020D01*
X71500Y-3393D01*
X71633Y-3673D01*
X71833Y-3907D01*
X72100Y-4000D01*
X72367Y-3907D01*
X72567Y-3673D01*
X72700Y-3393D01*
X72800Y-3020D01*
X72833Y-2600D01*
X72800Y-2180D01*
X72700Y-1807D01*
X72567Y-1527D01*
X72367Y-1293D01*
X72100Y-1200D01*
G01X130000Y20800D02*
Y18000D01*
G01X129233Y20800D02*
X130767D01*
G01X132033Y18000D02*
Y20800D01*
X132833D01*
X133100Y20660D01*
X133300Y20333D01*
X133367Y19960D01*
X133300Y19587D01*
X133133Y19307D01*
X132833Y19167D01*
X132033D01*
G01X135400Y18000D02*
Y20800D01*
X135000Y20240D01*
G01Y18000D02*
X135800D01*
G01X138100D02*
Y20800D01*
X137700Y20240D01*
G01Y18000D02*
X138500D01*
G01X110500Y-9667D02*
X107700D01*
Y-8833D01*
X107840Y-8567D01*
X108027Y-8400D01*
X108400Y-8333D01*
X108773Y-8400D01*
X109007Y-8600D01*
X109147Y-8833D01*
Y-9667D01*
G01Y-8833D02*
X110500Y-8333D01*
G01Y-6300D02*
X107700D01*
X108260Y-6700D01*
G01X110500D02*
Y-5900D01*
G01Y-3600D02*
X110453Y-3367D01*
X110313Y-3100D01*
X110080Y-2933D01*
X109753Y-2867D01*
X109427Y-2933D01*
X109147Y-3133D01*
X109007Y-3433D01*
Y-3767D01*
X108913Y-3967D01*
X108680Y-4133D01*
X108353Y-4200D01*
X108027Y-4100D01*
X107793Y-3867D01*
X107700Y-3600D01*
X107793Y-3333D01*
X108027Y-3100D01*
X108353Y-3000D01*
X108680Y-3067D01*
X108913Y-3233D01*
X109007Y-3433D01*
Y-3767D01*
X109147Y-4067D01*
X109427Y-4267D01*
X109753Y-4333D01*
X110080Y-4267D01*
X110313Y-4100D01*
X110453Y-3833D01*
X110500Y-3600D01*
G01X98833Y36000D02*
Y38800D01*
X99667D01*
X99933Y38660D01*
X100100Y38473D01*
X100167Y38100D01*
X100100Y37727D01*
X99900Y37493D01*
X99667Y37353D01*
X98833D01*
G01X99667D02*
X100167Y36000D01*
G01X102200D02*
Y38800D01*
X101800Y38240D01*
G01Y36000D02*
X102600D01*
G01X104167Y36560D02*
X104367Y36233D01*
X104633Y36047D01*
X104933Y36000D01*
X105200Y36047D01*
X105467Y36280D01*
X105633Y36560D01*
X105667Y36840D01*
X105600Y37167D01*
X105367Y37400D01*
X105133Y37493D01*
X104833D01*
G01X105133D02*
X105333Y37633D01*
X105500Y37867D01*
X105567Y38147D01*
X105500Y38427D01*
X105333Y38660D01*
X105033Y38800D01*
X104733Y38753D01*
X104433Y38567D01*
G01X107600Y36000D02*
X107833Y36047D01*
X108100Y36187D01*
X108267Y36420D01*
X108333Y36747D01*
X108267Y37073D01*
X108067Y37353D01*
X107767Y37493D01*
X107433D01*
X107233Y37587D01*
X107067Y37820D01*
X107000Y38147D01*
X107100Y38473D01*
X107333Y38707D01*
X107600Y38800D01*
X107867Y38707D01*
X108100Y38473D01*
X108200Y38147D01*
X108133Y37820D01*
X107967Y37587D01*
X107767Y37493D01*
X107433D01*
X107133Y37353D01*
X106933Y37073D01*
X106867Y36747D01*
X106933Y36420D01*
X107100Y36187D01*
X107367Y36047D01*
X107600Y36000D01*
G01X114700Y-9667D02*
X117500D01*
Y-8333D01*
G01Y-6300D02*
X114700D01*
X115260Y-6700D01*
G01X117500D02*
Y-5900D01*
G01X125500Y-13233D02*
X122700D01*
Y-12567D01*
X122840Y-12300D01*
X123027Y-12100D01*
X123307Y-11933D01*
X123633Y-11800D01*
X124100Y-11767D01*
X124567Y-11800D01*
X124893Y-11933D01*
X125173Y-12100D01*
X125360Y-12300D01*
X125500Y-12567D01*
Y-13233D01*
G01Y-9800D02*
X122700D01*
X123260Y-10200D01*
G01X125500D02*
Y-9400D01*
G01X87000Y-20133D02*
X84200D01*
Y-18867D01*
G01X85553Y-19333D02*
Y-20133D01*
G01X85507Y-16533D02*
X85367Y-16400D01*
X85133Y-16300D01*
X84807Y-16233D01*
X84527Y-16300D01*
X84340Y-16433D01*
X84200Y-16667D01*
Y-17567D01*
X87000D01*
Y-16467D01*
X86813Y-16233D01*
X86533Y-16100D01*
X86207Y-16033D01*
X85880Y-16100D01*
X85600Y-16300D01*
X85507Y-16533D01*
Y-17567D01*
G01X87000Y-14100D02*
X84200D01*
X84760Y-14500D01*
G01X87000D02*
Y-13700D01*
G01X87500Y69800D02*
Y67000D01*
G01X86733Y69800D02*
X88267D01*
G01X89533Y67000D02*
Y69800D01*
X90333D01*
X90600Y69660D01*
X90800Y69333D01*
X90867Y68960D01*
X90800Y68587D01*
X90633Y68307D01*
X90333Y68167D01*
X89533D01*
G01X92167Y67560D02*
X92367Y67233D01*
X92633Y67047D01*
X92933Y67000D01*
X93200Y67047D01*
X93467Y67280D01*
X93633Y67560D01*
X93667Y67840D01*
X93600Y68167D01*
X93367Y68400D01*
X93133Y68493D01*
X92833D01*
G01X93133D02*
X93333Y68633D01*
X93500Y68867D01*
X93567Y69147D01*
X93500Y69427D01*
X93333Y69660D01*
X93033Y69800D01*
X92733Y69753D01*
X92433Y69567D01*
G01X86333Y93000D02*
Y95800D01*
X87167D01*
X87433Y95660D01*
X87600Y95473D01*
X87667Y95100D01*
X87600Y94727D01*
X87400Y94493D01*
X87167Y94353D01*
X86333D01*
G01X87167D02*
X87667Y93000D01*
G01X90100D02*
Y95800D01*
X88867Y93793D01*
X90533D01*
G01X86833Y104500D02*
Y107300D01*
X87667D01*
X87933Y107160D01*
X88100Y106973D01*
X88167Y106600D01*
X88100Y106227D01*
X87900Y105993D01*
X87667Y105853D01*
X86833D01*
G01X87667D02*
X88167Y104500D01*
G01X90200D02*
Y107300D01*
X89800Y106740D01*
G01Y104500D02*
X90600D01*
G01X92833D02*
X92900Y105107D01*
X93000Y105620D01*
X93133Y106087D01*
X93300Y106600D01*
X93567Y107300D01*
X92233D01*
G01X86833Y96500D02*
Y99300D01*
X87667D01*
X87933Y99160D01*
X88100Y98973D01*
X88167Y98600D01*
X88100Y98227D01*
X87900Y97993D01*
X87667Y97853D01*
X86833D01*
G01X87667D02*
X88167Y96500D01*
G01X89567Y98833D02*
X89767Y99113D01*
X90000Y99253D01*
X90267Y99300D01*
X90600Y99207D01*
X90833Y98973D01*
X90900Y98693D01*
X90867Y98413D01*
X90733Y98180D01*
X90067Y97713D01*
X89767Y97387D01*
X89567Y96920D01*
X89500Y96500D01*
X90900D01*
G01X92833D02*
X92900Y97107D01*
X93000Y97620D01*
X93133Y98087D01*
X93300Y98600D01*
X93567Y99300D01*
X92233D01*
G01X86833Y81000D02*
Y83800D01*
X87667D01*
X87933Y83660D01*
X88100Y83473D01*
X88167Y83100D01*
X88100Y82727D01*
X87900Y82493D01*
X87667Y82353D01*
X86833D01*
G01X87667D02*
X88167Y81000D01*
G01X89467Y81560D02*
X89667Y81233D01*
X89933Y81047D01*
X90233Y81000D01*
X90500Y81047D01*
X90767Y81280D01*
X90933Y81560D01*
X90967Y81840D01*
X90900Y82167D01*
X90667Y82400D01*
X90433Y82493D01*
X90133D01*
G01X90433D02*
X90633Y82633D01*
X90800Y82867D01*
X90867Y83147D01*
X90800Y83427D01*
X90633Y83660D01*
X90333Y83800D01*
X90033Y83753D01*
X89733Y83567D01*
G01X92900Y81000D02*
Y83800D01*
X92500Y83240D01*
G01Y81000D02*
X93300D01*
G01X86833Y85000D02*
Y87800D01*
X87667D01*
X87933Y87660D01*
X88100Y87473D01*
X88167Y87100D01*
X88100Y86727D01*
X87900Y86493D01*
X87667Y86353D01*
X86833D01*
G01X87667D02*
X88167Y85000D01*
G01X90200D02*
Y87800D01*
X89800Y87240D01*
G01Y85000D02*
X90600D01*
G01X93300D02*
Y87800D01*
X92067Y85793D01*
X93733D01*
G01X96000Y85000D02*
Y87800D01*
X94767Y85793D01*
X96433D01*
G01X86833Y89000D02*
Y91800D01*
X87667D01*
X87933Y91660D01*
X88100Y91473D01*
X88167Y91100D01*
X88100Y90727D01*
X87900Y90493D01*
X87667Y90353D01*
X86833D01*
G01X87667D02*
X88167Y89000D01*
G01X90200D02*
Y91800D01*
X89800Y91240D01*
G01Y89000D02*
X90600D01*
G01X92167Y89560D02*
X92367Y89233D01*
X92633Y89047D01*
X92933Y89000D01*
X93200Y89047D01*
X93467Y89280D01*
X93633Y89560D01*
X93667Y89840D01*
X93600Y90167D01*
X93367Y90400D01*
X93133Y90493D01*
X92833D01*
G01X93133D02*
X93333Y90633D01*
X93500Y90867D01*
X93567Y91147D01*
X93500Y91427D01*
X93333Y91660D01*
X93033Y91800D01*
X92733Y91753D01*
X92433Y91567D01*
G01X95033Y89327D02*
X95267Y89093D01*
X95533Y89000D01*
X95800Y89093D01*
X96033Y89373D01*
X96200Y89793D01*
X96267Y90213D01*
Y90727D01*
X96200Y91147D01*
X96033Y91520D01*
X95833Y91707D01*
X95600Y91800D01*
X95333Y91707D01*
X95133Y91520D01*
X95000Y91240D01*
X94933Y90867D01*
X95000Y90540D01*
X95167Y90213D01*
X95367Y90027D01*
X95600Y89980D01*
X95867Y90073D01*
X96067Y90307D01*
X96267Y90727D01*
G01X86833Y108500D02*
Y111300D01*
X87667D01*
X87933Y111160D01*
X88100Y110973D01*
X88167Y110600D01*
X88100Y110227D01*
X87900Y109993D01*
X87667Y109853D01*
X86833D01*
G01X87667D02*
X88167Y108500D01*
G01X90200D02*
Y111300D01*
X89800Y110740D01*
G01Y108500D02*
X90600D01*
G01X93300D02*
Y111300D01*
X92067Y109293D01*
X93733D01*
G01X94867Y109060D02*
X95067Y108733D01*
X95333Y108547D01*
X95633Y108500D01*
X95900Y108547D01*
X96167Y108780D01*
X96333Y109060D01*
X96367Y109340D01*
X96300Y109667D01*
X96067Y109900D01*
X95833Y109993D01*
X95533D01*
G01X95833D02*
X96033Y110133D01*
X96200Y110367D01*
X96267Y110647D01*
X96200Y110927D01*
X96033Y111160D01*
X95733Y111300D01*
X95433Y111253D01*
X95133Y111067D01*
G01X86833Y103300D02*
Y100500D01*
X88167D01*
G01X90867D02*
X89533D01*
Y103300D01*
X90867D01*
G01X90333Y101947D02*
X89533D01*
G01X92167Y100500D02*
Y103300D01*
X92833D01*
X93100Y103160D01*
X93300Y102973D01*
X93467Y102693D01*
X93600Y102367D01*
X93633Y101900D01*
X93600Y101433D01*
X93467Y101107D01*
X93300Y100827D01*
X93100Y100640D01*
X92833Y100500D01*
X92167D01*
G01X95600D02*
Y103300D01*
X95200Y102740D01*
G01Y100500D02*
X96000D01*
G01X143500Y24000D02*
X148500D01*
G01X146000Y26500D02*
Y21500D01*
G01X158833Y8560D02*
X159000Y8280D01*
X159200Y8093D01*
X159433Y8000D01*
X159700Y8093D01*
X159900Y8280D01*
X160100Y8560D01*
X160167Y8933D01*
Y10800D01*
G01X161467Y8420D02*
X161667Y8187D01*
X161900Y8047D01*
X162200Y8000D01*
X162500Y8093D01*
X162733Y8280D01*
X162900Y8607D01*
X162933Y8980D01*
X162867Y9353D01*
X162700Y9587D01*
X162467Y9773D01*
X162233Y9820D01*
X162000Y9773D01*
X161700Y9587D01*
X161800Y10800D01*
X162700D01*
G01X175633Y-5500D02*
Y-2700D01*
X176500Y-5033D01*
X177367Y-2700D01*
Y-5500D01*
G01X178500D02*
Y-2700D01*
G01X179900D02*
Y-5500D01*
G01Y-4100D02*
X178500D01*
G01X181167Y-4940D02*
X181367Y-5267D01*
X181633Y-5453D01*
X181933Y-5500D01*
X182200Y-5453D01*
X182467Y-5220D01*
X182633Y-4940D01*
X182667Y-4660D01*
X182600Y-4333D01*
X182367Y-4100D01*
X182133Y-4007D01*
X181833D01*
G01X182133D02*
X182333Y-3867D01*
X182500Y-3633D01*
X182567Y-3353D01*
X182500Y-3073D01*
X182333Y-2840D01*
X182033Y-2700D01*
X181733Y-2747D01*
X181433Y-2933D01*
G01X168333Y47560D02*
X168500Y47280D01*
X168700Y47093D01*
X168933Y47000D01*
X169200Y47093D01*
X169400Y47280D01*
X169600Y47560D01*
X169667Y47933D01*
Y49800D01*
G01X171067Y48167D02*
X171300Y48493D01*
X171500Y48680D01*
X171767Y48773D01*
X172000Y48680D01*
X172167Y48493D01*
X172300Y48213D01*
X172333Y47887D01*
X172300Y47607D01*
X172167Y47327D01*
X171967Y47093D01*
X171733Y47000D01*
X171467Y47093D01*
X171233Y47373D01*
X171100Y47793D01*
X171067Y48260D01*
X171133Y48867D01*
X171233Y49193D01*
X171400Y49520D01*
X171633Y49753D01*
X171867Y49800D01*
X172100Y49707D01*
X172267Y49473D01*
G01X156133Y124000D02*
Y126800D01*
X157000Y124467D01*
X157867Y126800D01*
Y124000D01*
G01X159000D02*
Y126800D01*
G01X160400D02*
Y124000D01*
G01Y125400D02*
X159000D01*
G01X161767Y126333D02*
X161967Y126613D01*
X162200Y126753D01*
X162467Y126800D01*
X162800Y126707D01*
X163033Y126473D01*
X163100Y126193D01*
X163067Y125913D01*
X162933Y125680D01*
X162267Y125213D01*
X161967Y124887D01*
X161767Y124420D01*
X161700Y124000D01*
X163100D01*
G54D12*
G01X-26748Y88465D02*
Y92402D01*
X-24780Y90433D01*
X-26748Y88465D01*
G01X48090Y-25367D02*
X48310Y-25167D01*
X48475Y-24833D01*
X48585Y-24367D01*
X48475Y-23967D01*
X48255Y-23700D01*
X47870Y-23500D01*
X46385D01*
Y-27500D01*
X48200D01*
X48585Y-27233D01*
X48805Y-26833D01*
X48915Y-26367D01*
X48805Y-25900D01*
X48475Y-25500D01*
X48090Y-25367D01*
X46385D01*
G01X50825Y-25700D02*
X52585D01*
X52420Y-25233D01*
X52145Y-24967D01*
X51760Y-24833D01*
X51375Y-24900D01*
X51045Y-25100D01*
X50825Y-25567D01*
X50715Y-25967D01*
Y-26367D01*
X50825Y-26767D01*
X51100Y-27167D01*
X51430Y-27433D01*
X51815Y-27500D01*
X52200Y-27367D01*
X52585Y-26967D01*
G01X56640Y-27500D02*
Y-24833D01*
G01Y-25300D02*
X56420Y-25033D01*
X56090Y-24900D01*
X55705Y-24833D01*
X55320Y-24967D01*
X54990Y-25233D01*
X54770Y-25633D01*
X54660Y-26167D01*
X54770Y-26700D01*
X54990Y-27100D01*
X55320Y-27367D01*
X55705Y-27500D01*
X56090Y-27433D01*
X56420Y-27233D01*
X56640Y-26967D01*
G01X58880Y-28500D02*
X59265Y-28767D01*
X59705Y-28833D01*
X60090Y-28767D01*
X60420Y-28433D01*
X60640Y-27967D01*
Y-24833D01*
G01Y-25367D02*
X60420Y-25100D01*
X60090Y-24900D01*
X59705Y-24833D01*
X59265Y-24967D01*
X58990Y-25233D01*
X58770Y-25700D01*
X58660Y-26167D01*
X58715Y-26567D01*
X58935Y-27033D01*
X59265Y-27367D01*
X59705Y-27500D01*
X60035Y-27433D01*
X60420Y-27167D01*
X60640Y-26900D01*
G01X63650Y-27500D02*
Y-23500D01*
G01X66825Y-25700D02*
X68585D01*
X68420Y-25233D01*
X68145Y-24967D01*
X67760Y-24833D01*
X67375Y-24900D01*
X67045Y-25100D01*
X66825Y-25567D01*
X66715Y-25967D01*
Y-26367D01*
X66825Y-26767D01*
X67100Y-27167D01*
X67430Y-27433D01*
X67815Y-27500D01*
X68200Y-27367D01*
X68585Y-26967D01*
G01X70440Y-27500D02*
Y-23500D01*
X71540D01*
X71980Y-23700D01*
X72310Y-23967D01*
X72585Y-24367D01*
X72805Y-24833D01*
X72860Y-25500D01*
X72805Y-26167D01*
X72585Y-26633D01*
X72310Y-27033D01*
X71980Y-27300D01*
X71540Y-27500D01*
X70440D01*
G01X74715Y-24833D02*
Y-26700D01*
X74935Y-27167D01*
X75265Y-27433D01*
X75650Y-27500D01*
X76035Y-27433D01*
X76365Y-27167D01*
X76585Y-26700D01*
G01Y-27500D02*
Y-24833D01*
G01X78825Y-27033D02*
X79100Y-27300D01*
X79485Y-27500D01*
X79815D01*
X80145Y-27367D01*
X80365Y-27167D01*
X80475Y-26900D01*
X80420Y-26500D01*
X80200Y-26300D01*
X79210Y-25900D01*
X78990Y-25433D01*
X79100Y-25100D01*
X79320Y-24900D01*
X79650Y-24833D01*
X79980Y-24900D01*
X80310Y-25100D01*
G01X83650Y-23500D02*
Y-27500D01*
G01X82880Y-24833D02*
X84420D01*
G01X90550Y-27500D02*
Y-23500D01*
X91925D01*
X92365Y-23700D01*
X92640Y-23967D01*
X92750Y-24500D01*
X92640Y-25033D01*
X92310Y-25367D01*
X91925Y-25567D01*
X90550D01*
G01X91925D02*
X92750Y-27500D01*
G01X94825Y-25700D02*
X96585D01*
X96420Y-25233D01*
X96145Y-24967D01*
X95760Y-24833D01*
X95375Y-24900D01*
X95045Y-25100D01*
X94825Y-25567D01*
X94715Y-25967D01*
Y-26367D01*
X94825Y-26767D01*
X95100Y-27167D01*
X95430Y-27433D01*
X95815Y-27500D01*
X96200Y-27367D01*
X96585Y-26967D01*
G01X98660Y-24833D02*
X99650Y-27500D01*
X100640Y-24833D01*
G01X106275Y-27500D02*
X107650Y-23500D01*
X109025Y-27500D01*
G01X108530Y-26100D02*
X106770D01*
G01X111650Y-23500D02*
X111210Y-23633D01*
X110880Y-23967D01*
X110660Y-24367D01*
X110495Y-24900D01*
X110440Y-25500D01*
X110495Y-26100D01*
X110660Y-26633D01*
X110880Y-27033D01*
X111210Y-27367D01*
X111650Y-27500D01*
X112090Y-27367D01*
X112420Y-27033D01*
X112640Y-26633D01*
X112805Y-26100D01*
X112860Y-25500D01*
X112805Y-24900D01*
X112640Y-24367D01*
X112420Y-23967D01*
X112090Y-23633D01*
X111650Y-23500D01*
G01X38750Y-18550D02*
Y-11450D01*
X42250D01*
Y-18550D01*
X38800D01*
G01X25250D02*
Y-11450D01*
X28750D01*
Y-18550D01*
X25300D01*
G01X34250D02*
Y-11450D01*
X37750D01*
Y-18550D01*
X34300D01*
G01X29750D02*
Y-11450D01*
X33250D01*
Y-18550D01*
X29800D01*
G01X6950Y34750D02*
X14050D01*
Y31250D01*
X6950D01*
Y34700D01*
G01Y25750D02*
X14050D01*
Y22250D01*
X6950D01*
Y25700D01*
G01Y30250D02*
X14050D01*
Y26750D01*
X6950D01*
Y30200D01*
G01X20750Y-18550D02*
Y-11450D01*
X24250D01*
Y-18550D01*
X20800D01*
G01X6950Y39250D02*
X14050D01*
Y35750D01*
X6950D01*
Y39200D01*
G01X-6488Y10488D02*
Y21512D01*
X-17512D01*
Y10488D01*
X-6488D01*
G01X-8063Y12850D02*
Y19150D01*
X-15937D01*
Y12850D01*
X-8063D01*
G01X30860Y114167D02*
X30530Y114367D01*
X30145Y114500D01*
X29705D01*
X29210Y114300D01*
X28825Y113967D01*
X28550Y113567D01*
X28330Y112900D01*
X28275Y112300D01*
X28385Y111700D01*
X28550Y111300D01*
X28880Y110900D01*
X29265Y110633D01*
X29650Y110500D01*
X30035D01*
X30420Y110633D01*
X30750Y110833D01*
X31025Y111100D01*
G01X34860Y114167D02*
X34530Y114367D01*
X34145Y114500D01*
X33705D01*
X33210Y114300D01*
X32825Y113967D01*
X32550Y113567D01*
X32330Y112900D01*
X32275Y112300D01*
X32385Y111700D01*
X32550Y111300D01*
X32880Y110900D01*
X33265Y110633D01*
X33650Y110500D01*
X34035D01*
X34420Y110633D01*
X34750Y110833D01*
X35025Y111100D01*
G01X37650Y110500D02*
Y114500D01*
X36990Y113700D01*
G01Y110500D02*
X38310D01*
G01X40440Y111300D02*
X40770Y110833D01*
X41210Y110567D01*
X41705Y110500D01*
X42145Y110567D01*
X42585Y110900D01*
X42860Y111300D01*
X42915Y111700D01*
X42805Y112167D01*
X42420Y112500D01*
X42035Y112633D01*
X41540D01*
G01X42035D02*
X42365Y112833D01*
X42640Y113167D01*
X42750Y113567D01*
X42640Y113967D01*
X42365Y114300D01*
X41870Y114500D01*
X41375Y114433D01*
X40880Y114167D01*
G01X45650Y110500D02*
Y114500D01*
X44990Y113700D01*
G01Y110500D02*
X46310D01*
G01X49650Y114500D02*
X49210Y114367D01*
X48880Y114033D01*
X48660Y113633D01*
X48495Y113100D01*
X48440Y112500D01*
X48495Y111900D01*
X48660Y111367D01*
X48880Y110967D01*
X49210Y110633D01*
X49650Y110500D01*
X50090Y110633D01*
X50420Y110967D01*
X50640Y111367D01*
X50805Y111900D01*
X50860Y112500D01*
X50805Y113100D01*
X50640Y113633D01*
X50420Y114033D01*
X50090Y114367D01*
X49650Y114500D01*
G01X56220Y110500D02*
Y114500D01*
X57650Y111167D01*
X59080Y114500D01*
Y110500D01*
G01X61650D02*
X61320Y110567D01*
X60990Y110833D01*
X60770Y111300D01*
X60660Y111833D01*
X60770Y112367D01*
X60990Y112833D01*
X61320Y113100D01*
X61650Y113167D01*
X61980Y113100D01*
X62310Y112833D01*
X62530Y112367D01*
X62585Y111833D01*
X62530Y111300D01*
X62310Y110833D01*
X61980Y110567D01*
X61650Y110500D01*
G01X66640Y114500D02*
Y110500D01*
G01Y111100D02*
X66420Y110767D01*
X66090Y110567D01*
X65705Y110500D01*
X65265Y110633D01*
X64935Y110967D01*
X64715Y111367D01*
X64660Y111833D01*
X64715Y112300D01*
X64935Y112700D01*
X65265Y113033D01*
X65705Y113167D01*
X66090Y113100D01*
X66365Y112967D01*
X66640Y112700D01*
G01X68715Y113167D02*
Y111300D01*
X68935Y110833D01*
X69265Y110567D01*
X69650Y110500D01*
X70035Y110567D01*
X70365Y110833D01*
X70585Y111300D01*
G01Y110500D02*
Y113167D01*
G01X73650Y110500D02*
Y114500D01*
G01X76825Y112300D02*
X78585D01*
X78420Y112767D01*
X78145Y113033D01*
X77760Y113167D01*
X77375Y113100D01*
X77045Y112900D01*
X76825Y112433D01*
X76715Y112033D01*
Y111633D01*
X76825Y111233D01*
X77100Y110833D01*
X77430Y110567D01*
X77815Y110500D01*
X78200Y110633D01*
X78585Y111033D01*
G01X-3750Y64541D02*
Y66700D01*
Y68300D01*
Y70459D01*
G02X-3159Y71050I591J0D01*
G01X-841D01*
G02X-250Y70459I0J-591D01*
G01Y64541D01*
G02X-841Y63950I-591J0D01*
G01X-3159D01*
G02X-3750Y64541I0J591D01*
G01X12959Y96950D02*
X10800D01*
X9200D01*
X7041D01*
G02X6450Y97541I0J591D01*
G01Y99859D01*
G02X7041Y100450I591J0D01*
G01X12959D01*
G02X13550Y99859I0J-591D01*
G01Y97541D01*
G02X12959Y96950I-591J0D01*
G01Y108550D02*
X10800D01*
X9200D01*
X7041D01*
G02X6450Y109141I0J591D01*
G01Y111459D01*
G02X7041Y112050I591J0D01*
G01X12959D01*
G02X13550Y111459I0J-591D01*
G01Y109141D01*
G02X12959Y108550I-591J0D01*
G01X6950Y52750D02*
X14050D01*
Y49250D01*
X6950D01*
Y52700D01*
G01Y61750D02*
X14050D01*
Y58250D01*
X6950D01*
Y61700D01*
G01Y66250D02*
X14050D01*
Y62750D01*
X6950D01*
Y66200D01*
G01Y70750D02*
X14050D01*
Y67250D01*
X6950D01*
Y70700D01*
G01Y57250D02*
X14050D01*
Y53750D01*
X6950D01*
Y57200D01*
G01Y48250D02*
X14050D01*
Y44750D01*
X6950D01*
Y48200D01*
G01Y43750D02*
X14050D01*
Y40250D01*
X6950D01*
Y43700D01*
G01X13650Y108050D02*
Y100950D01*
X10150D01*
Y108050D01*
X13600D01*
G01X-5291Y83543D02*
Y95551D01*
X-16709D01*
Y92598D01*
G01X-5291Y76457D02*
Y64449D01*
X-16709D01*
Y67402D01*
G01X131545Y13833D02*
X132865D01*
G01X132150Y14700D02*
Y12967D01*
G01X134940Y13300D02*
X135270Y12833D01*
X135710Y12567D01*
X136205Y12500D01*
X136645Y12567D01*
X137085Y12900D01*
X137360Y13300D01*
X137415Y13700D01*
X137305Y14167D01*
X136920Y14500D01*
X136535Y14633D01*
X136040D01*
G01X136535D02*
X136865Y14833D01*
X137140Y15167D01*
X137250Y15567D01*
X137140Y15967D01*
X136865Y16300D01*
X136370Y16500D01*
X135875Y16433D01*
X135380Y16167D01*
G01X138775Y16500D02*
X140150Y12500D01*
X141525Y16500D01*
G01X88500Y-2113D02*
Y7113D01*
G02X89287Y7900I787J0D01*
G01X92713D01*
G02X93500Y7113I0J-787D01*
G01Y-2113D01*
G02X92713Y-2900I-787J0D01*
G01X89287D01*
G02X88500Y-2113I0J787D01*
G01X111500Y14387D02*
Y23613D01*
G02X112287Y24400I787J0D01*
G01X115713D01*
G02X116500Y23613I0J-787D01*
G01Y14387D01*
G02X115713Y13600I-787J0D01*
G01X112287D01*
G02X111500Y14387I0J787D01*
G01X82000Y-3387D02*
Y-12613D01*
G02X81213Y-13400I-787J0D01*
G01X77787D01*
G02X77000Y-12613I0J787D01*
G01Y-3387D01*
G02X77787Y-2600I787J0D01*
G01X81213D01*
G02X82000Y-3387I0J-787D01*
G01X75750Y-5041D02*
Y-7200D01*
Y-8800D01*
Y-10959D01*
G02X75159Y-11550I-591J0D01*
G01X72841D01*
G02X72250Y-10959I0J591D01*
G01Y-5041D01*
G02X72841Y-4450I591J0D01*
G01X75159D01*
G02X75750Y-5041I0J-591D01*
G01X102250Y41D02*
Y2200D01*
Y3800D01*
Y5959D01*
G02X102841Y6550I591J0D01*
G01X105159D01*
G02X105750Y5959I0J-591D01*
G01Y41D01*
G02X105159Y-550I-591J0D01*
G01X102841D01*
G02X102250Y41I0J591D01*
G01X104959Y26750D02*
X102800D01*
X101200D01*
X99041D01*
G02X98450Y27341I0J591D01*
G01Y29659D01*
G02X99041Y30250I591J0D01*
G01X104959D01*
G02X105550Y29659I0J-591D01*
G01Y27341D01*
G02X104959Y26750I-591J0D01*
G01X89950Y39250D02*
X97050D01*
Y35750D01*
X89950D01*
Y39200D01*
G01X110250Y6550D02*
Y-550D01*
X106750D01*
Y6550D01*
X110200D01*
G01X89950Y25750D02*
X97050D01*
Y22250D01*
X89950D01*
Y25700D01*
G01Y30250D02*
X97050D01*
Y26750D01*
X89950D01*
Y30200D01*
G01X105550Y31250D02*
X98450D01*
Y34750D01*
X105550D01*
Y31300D01*
G01X89950Y34750D02*
X97050D01*
Y31250D01*
X89950D01*
Y34700D01*
G01X120724Y7421D02*
Y-2421D01*
G01X111276Y7421D02*
Y-2421D01*
G01X122531Y-846D02*
X121941D01*
Y5846D01*
X122531D01*
G01X126469Y-846D02*
X127059D01*
Y5846D01*
X126469D01*
G01X83250Y-11550D02*
Y-4450D01*
X86750D01*
Y-11550D01*
X83300D01*
G01X137307Y5429D02*
X128449D01*
Y-15043D01*
G01X88030Y56333D02*
X87645Y56600D01*
X87315Y56667D01*
X86875Y56533D01*
X86545Y56267D01*
X86325Y55800D01*
X86270Y55333D01*
X86325Y54867D01*
X86545Y54467D01*
X86875Y54133D01*
X87315Y54000D01*
X87700Y54133D01*
X88030Y54400D01*
G01X92530Y76833D02*
X92145Y77100D01*
X91815Y77167D01*
X91375Y77033D01*
X91045Y76767D01*
X90825Y76300D01*
X90770Y75833D01*
X90825Y75367D01*
X91045Y74967D01*
X91375Y74633D01*
X91815Y74500D01*
X92200Y74633D01*
X92530Y74900D01*
G01X89950Y53750D02*
X97050D01*
Y50250D01*
X89950D01*
Y53700D01*
G01Y43750D02*
X97050D01*
Y40250D01*
X89950D01*
Y43700D01*
G01Y58250D02*
X97050D01*
Y54750D01*
X89950D01*
Y58200D01*
G01X89685Y44638D02*
X100315D01*
Y49362D01*
X89685D01*
Y44638D01*
G01X147980Y14500D02*
X149080D01*
Y13300D01*
X148750Y12900D01*
X148365Y12633D01*
X147815Y12500D01*
X147265Y12633D01*
X146880Y12900D01*
X146550Y13300D01*
X146330Y13767D01*
X146220Y14300D01*
Y14767D01*
X146330Y15167D01*
X146550Y15633D01*
X146880Y16033D01*
X147210Y16300D01*
X147650Y16500D01*
X148035D01*
X148475Y16367D01*
X148805Y16100D01*
G01X150385Y12500D02*
Y16500D01*
X152915Y12500D01*
Y16500D01*
G01X154440Y12500D02*
Y16500D01*
X155540D01*
X155980Y16300D01*
X156310Y16033D01*
X156585Y15633D01*
X156805Y15167D01*
X156860Y14500D01*
X156805Y13833D01*
X156585Y13367D01*
X156310Y12967D01*
X155980Y12700D01*
X155540Y12500D01*
X154440D01*
G01X154236Y-28429D02*
X133764D01*
G01X159551Y-15043D02*
Y5429D01*
X150693D01*
G01X177833Y53360D02*
X177633Y53030D01*
X177500Y52645D01*
Y52205D01*
X177700Y51710D01*
X178033Y51325D01*
X178433Y51050D01*
X179100Y50830D01*
X179700Y50775D01*
X180300Y50885D01*
X180700Y51050D01*
X181100Y51380D01*
X181367Y51765D01*
X181500Y52150D01*
Y52535D01*
X181367Y52920D01*
X181167Y53250D01*
X180900Y53525D01*
G01X181500Y55050D02*
X177500D01*
Y56425D01*
X177700Y56865D01*
X177967Y57140D01*
X178500Y57250D01*
X179033Y57140D01*
X179367Y56810D01*
X179567Y56425D01*
Y55050D01*
G01Y56425D02*
X181500Y57250D01*
G01X178167Y59105D02*
X177767Y59435D01*
X177567Y59820D01*
X177500Y60260D01*
X177633Y60810D01*
X177967Y61195D01*
X178367Y61305D01*
X178767Y61250D01*
X179100Y61030D01*
X179767Y59930D01*
X180233Y59435D01*
X180900Y59105D01*
X181500Y58995D01*
Y61305D01*
G01X177500Y64150D02*
X177633Y63710D01*
X177967Y63380D01*
X178367Y63160D01*
X178900Y62995D01*
X179500Y62940D01*
X180100Y62995D01*
X180633Y63160D01*
X181033Y63380D01*
X181367Y63710D01*
X181500Y64150D01*
X181367Y64590D01*
X181033Y64920D01*
X180633Y65140D01*
X180100Y65305D01*
X179500Y65360D01*
X178900Y65305D01*
X178367Y65140D01*
X177967Y64920D01*
X177633Y64590D01*
X177500Y64150D01*
G01X180700Y66940D02*
X181167Y67270D01*
X181433Y67710D01*
X181500Y68205D01*
X181433Y68645D01*
X181100Y69085D01*
X180700Y69360D01*
X180300Y69415D01*
X179833Y69305D01*
X179500Y68920D01*
X179367Y68535D01*
Y68040D01*
G01Y68535D02*
X179167Y68865D01*
X178833Y69140D01*
X178433Y69250D01*
X178033Y69140D01*
X177700Y68865D01*
X177500Y68370D01*
X177567Y67875D01*
X177833Y67380D01*
G01X178167Y71105D02*
X177767Y71435D01*
X177567Y71820D01*
X177500Y72260D01*
X177633Y72810D01*
X177967Y73195D01*
X178367Y73305D01*
X178767Y73250D01*
X179100Y73030D01*
X179767Y71930D01*
X180233Y71435D01*
X180900Y71105D01*
X181500Y70995D01*
Y73305D01*
G01X179367Y80590D02*
X179167Y80810D01*
X178833Y80975D01*
X178367Y81085D01*
X177967Y80975D01*
X177700Y80755D01*
X177500Y80370D01*
Y78885D01*
X181500D01*
Y80700D01*
X181233Y81085D01*
X180833Y81305D01*
X180367Y81415D01*
X179900Y81305D01*
X179500Y80975D01*
X179367Y80590D01*
Y78885D01*
G01X181500Y85140D02*
X178833D01*
G01X179300D02*
X179033Y84920D01*
X178900Y84590D01*
X178833Y84205D01*
X178967Y83820D01*
X179233Y83490D01*
X179633Y83270D01*
X180167Y83160D01*
X180700Y83270D01*
X181100Y83490D01*
X181367Y83820D01*
X181500Y84205D01*
X181433Y84590D01*
X181233Y84920D01*
X180967Y85140D01*
G01X177500Y88150D02*
X181500D01*
G01X178833Y87380D02*
Y88920D01*
G01X177500Y92150D02*
X181500D01*
G01X178833Y91380D02*
Y92920D01*
G01X179700Y95325D02*
Y97085D01*
X179233Y96920D01*
X178967Y96645D01*
X178833Y96260D01*
X178900Y95875D01*
X179100Y95545D01*
X179567Y95325D01*
X179967Y95215D01*
X180367D01*
X180767Y95325D01*
X181167Y95600D01*
X181433Y95930D01*
X181500Y96315D01*
X181367Y96700D01*
X180967Y97085D01*
G01X181500Y99380D02*
X178833D01*
G01X179367D02*
X179100Y99655D01*
X178900Y99930D01*
X178833Y100315D01*
X178900Y100590D01*
X179100Y100920D01*
G01X182700Y102995D02*
X182833Y103325D01*
X182700Y103765D01*
X182433Y104040D01*
X182100Y104260D01*
X181033Y104590D01*
X178833Y105305D01*
G01Y103545D02*
X181033Y104590D01*
G01X-22406Y147406D02*
X178119D01*
G02X186119Y139406I0J-8000D01*
G01Y-21748D01*
G02X178119Y-29748I-8000J0D01*
G01X-22406D01*
G02X-30406Y-21748I0J8000D01*
G01Y139406D01*
G02X-22406Y147406I8000J0D01*
G01X25985Y129034D02*
X23426Y126475D01*
X28544D01*
X25985Y129034D01*
G54D13*
G01X5000Y17000D02*
X4000D01*
X1500Y14500D01*
Y9500D01*
X-500Y7500D01*
G01X6500Y41500D02*
X6000D01*
Y21500D01*
X15000D01*
Y41500D01*
X14500D01*
G01X15000Y21500D02*
X14000Y20500D01*
G01X2000Y-2000D02*
Y-500D01*
X13000D01*
Y-19000D01*
X2000D01*
Y-2000D01*
G01Y-500D02*
X0Y-2500D01*
G01X6500Y47000D02*
X6000D01*
Y71500D01*
X15000D01*
Y47000D01*
X14500D01*
G01X6000Y71500D02*
X4500Y73000D01*
G01X6000Y94500D02*
Y73000D01*
X12500D01*
Y95000D01*
X6000D01*
Y94500D01*
G01Y95000D02*
X4500Y93500D01*
G01X89000Y59000D02*
Y21500D01*
X98000D01*
Y43500D01*
X101500D01*
Y50000D01*
X98000D01*
Y59000D01*
X89000D01*
X87500Y57500D01*
G01X86000Y100500D02*
Y112000D01*
X97000D01*
Y91000D01*
G01X86000Y88500D02*
Y80000D01*
X95000D01*
X93000Y78000D01*
G54D14*
G01X12088Y105036D02*
G02X11239I-424J-424D01*
G01X12688D02*
G02X11839I-424J-424D01*
G01X84812Y-8536D02*
G02X85661I425J424D01*
G01X84212D02*
G02X85061I425J424D01*
G54D15*
G01X-992Y36823D02*
Y26193D01*
X-25008D01*
Y36823D01*
G01X-992Y59854D02*
Y62807D01*
X-25008D01*
Y59854D01*
G01X25803Y2319D02*
X19504D01*
Y11374D01*
G01Y99957D02*
Y104681D01*
X82496D01*
Y99957D01*
G01X19504Y81059D02*
Y90114D01*
G01X100650Y244D02*
Y5756D01*
G01X94350Y244D02*
Y5362D01*
G01X93559Y20012D02*
Y16469D01*
X95331Y18240D01*
X93559Y20012D01*
G01X101728Y8791D02*
Y20209D01*
X105272D01*
Y8791D01*
X101728D01*
G01X75409Y2319D02*
X82496D01*
Y11374D01*
G01X123319Y-6161D02*
X125681D01*
G01X124500Y-7343D02*
Y-4980D01*
G01X82496Y81059D02*
Y90114D01*
G01X87535Y45031D02*
Y47969D01*
G01X86067Y46500D02*
X89004D01*
G01X96130Y80547D02*
G02X96406Y83421I48421J-3200D01*
G01X96524Y73106D02*
G02X96091Y76453I19598J4237D01*
G01X97902Y66610D02*
G02X96996Y69996I15366J5926D01*
G01X100776Y59720D02*
G02X99319Y63067I149024J66863D01*
G01X104319Y54406D02*
G02X102783Y56768I12119J9561D01*
G01X102665Y99996D02*
G02X104398Y102476I6190J-2480D01*
G01X98886Y93106D02*
G02X100224Y96020I29078J-11587D01*
G01X97114Y87476D02*
G02X97823Y90035I57297J-14497D01*
G01X142228Y10547D02*
X138291D01*
X140260Y8579D01*
X142228Y10547D01*
G01X168295Y56728D02*
G02X166563Y54248I-6190J2478D01*
G01X172075Y63618D02*
G02X170736Y60705I-29073J11599D01*
G01X174831Y76177D02*
G02X174555Y73303I-48421J3200D01*
G01X173846Y69248D02*
G02X173138Y66689I-57302J14476D01*
G01X173059Y90114D02*
G02X173965Y86728I-15367J-5926D01*
G01X174437Y83618D02*
G02X174870Y80272I-19598J-4237D01*
G01X166642Y102319D02*
G02X168177Y99957I-12122J-9557D01*
G01X170185Y97004D02*
G02X171642Y93657I-149024J-66863D01*
G54D16*
G01X73719Y129042D02*
X26081D01*
G01Y146758D02*
X73719D01*
G01X94744Y-2118D02*
X96319D01*
X95531Y-1331D01*
X94744Y-2118D01*
G01X127626Y30469D02*
X116012D01*
Y38146D01*
G02X105579Y48579I4777J15210D01*
G01Y108421D01*
G02X165421Y108618I30008J-26329D01*
G01Y48382D01*
G02X155185Y38146I-16673J6437D01*
G01X154988D01*
Y30469D01*
X143374D01*
G01X131957Y49563D02*
X139240D01*
G01X135500Y45823D02*
Y53303D01*
M02*
