G04 ================== begin FILE IDENTIFICATION RECORD ==================*
G04 Layout Name:  BeagleDust Rev A0_20180905.brd*
G04 Film Name:    solder_bot*
G04 File Format:  Gerber RS274X*
G04 File Origin:  Cadence Allegro 16.6-2015-S100*
G04 Origin Date:  Thu Sep 06 16:59:25 2018*
G04 *
G04 Layer:  VIA CLASS/SOLDERMASK_BOTTOM*
G04 Layer:  PIN/SOLDERMASK_BOTTOM*
G04 Layer:  PACKAGE GEOMETRY/SOLDERMASK_BOTTOM*
G04 Layer:  BOARD GEOMETRY/OUTLINE*
G04 Layer:  BOARD GEOMETRY/SOLDERMASK_BOTTOM*
G04 *
G04 Offset:    (0.00 0.00)*
G04 Mirror:    No*
G04 Mode:      Positive*
G04 Rotation:  0*
G04 FullContactRelief:  No*
G04 UndefLineWidth:     5.00*
G04 ================== end FILE IDENTIFICATION RECORD ====================*
%FSLAX25Y25*MOIN*%
%IR0*IPPOS*OFA0.00000B0.00000*MIA0B0*SFA1.00000B1.00000*%
%ADD13C,.08*%
%ADD12C,.04331*%
%ADD17R,.036X.036*%
%ADD11C,.09843*%
%ADD15C,.06299*%
%ADD16R,.024X.022*%
%ADD14R,.022X.024*%
%ADD19R,.039X.034*%
%ADD20R,.034X.039*%
%ADD10C,.23622*%
%ADD18R,.04409X.09449*%
%ADD21C,.005*%
%ADD22C,.008*%
G75*
%LPD*%
G75*
G54D10*
X-18406Y-17748D03*
Y135406D03*
X174119Y-17748D03*
Y135406D03*
G54D20*
X71300Y94000D03*
X65700D03*
G54D11*
X-23000Y42000D03*
Y54500D03*
X-3000Y42000D03*
Y54500D03*
G54D21*
G01X-22406Y147406D02*
X178119D01*
G02X186119Y139406I0J-8000D01*
G01Y-21748D01*
G02X178119Y-29748I-8000J0D01*
G01X-22406D01*
G02X-30406Y-21748I0J8000D01*
G01Y139406D01*
G02X-22406Y147406I8000J0D01*
G54D12*
X-17000Y34500D03*
X-9000D03*
X-13000Y54500D03*
G54D22*
G01X175500Y-43667D02*
X174167Y-44500D01*
X172667Y-45000D01*
X171333D01*
X170000Y-44500D01*
X169000Y-43667D01*
X168500Y-42500D01*
X168833Y-41334D01*
X169667Y-40333D01*
X171167Y-39667D01*
X173167Y-39333D01*
X174333Y-38667D01*
X174833Y-37500D01*
X174500Y-36333D01*
X173667Y-35500D01*
X172500Y-35000D01*
X171333D01*
X170167Y-35333D01*
X169167Y-36167D01*
G01X161000Y-45000D02*
X162334Y-44833D01*
X163500Y-44167D01*
X164500Y-43167D01*
X165167Y-42000D01*
X165500Y-40667D01*
Y-39333D01*
X165167Y-38000D01*
X164500Y-36833D01*
X163500Y-35833D01*
X162334Y-35167D01*
X161000Y-35000D01*
X159667Y-35167D01*
X158500Y-35833D01*
X157500Y-36833D01*
X156833Y-38000D01*
X156500Y-39333D01*
Y-40667D01*
X156833Y-42000D01*
X157500Y-43167D01*
X158500Y-44167D01*
X159667Y-44833D01*
X161000Y-45000D01*
G01X153333Y-35000D02*
Y-45000D01*
X146667D01*
G01X142667D02*
Y-35000D01*
X139333D01*
X138000Y-35500D01*
X137000Y-36167D01*
X136167Y-37167D01*
X135500Y-38334D01*
X135333Y-40000D01*
X135500Y-41667D01*
X136167Y-42833D01*
X137000Y-43834D01*
X138000Y-44500D01*
X139333Y-45000D01*
X142667D01*
G01X124667D02*
X131333D01*
Y-35000D01*
X124667D01*
G01X127333Y-39833D02*
X131333D01*
G01X120333Y-45000D02*
Y-35000D01*
X116167D01*
X114833Y-35500D01*
X114000Y-36167D01*
X113667Y-37500D01*
X114000Y-38833D01*
X115000Y-39667D01*
X116167Y-40167D01*
X120333D01*
G01X116167D02*
X113667Y-45000D01*
G01X110333D02*
Y-35000D01*
X106000Y-43333D01*
X101667Y-35000D01*
Y-45000D01*
G01X99167D02*
X95000Y-35000D01*
X90833Y-45000D01*
G01X92333Y-41500D02*
X97667D01*
G01X87500Y-43667D02*
X86167Y-44500D01*
X84667Y-45000D01*
X83333D01*
X82000Y-44500D01*
X81000Y-43667D01*
X80500Y-42500D01*
X80833Y-41334D01*
X81667Y-40333D01*
X83167Y-39667D01*
X85167Y-39333D01*
X86333Y-38667D01*
X86833Y-37500D01*
X86500Y-36333D01*
X85667Y-35500D01*
X84500Y-35000D01*
X83333D01*
X82167Y-35333D01*
X81167Y-36167D01*
G01X76667Y-45000D02*
Y-35000D01*
G01X70333D02*
X76667Y-41167D01*
G01X69333Y-45000D02*
X73833Y-38334D01*
G01X49667Y-39667D02*
X49000Y-39167D01*
X48500Y-38334D01*
X48167Y-37167D01*
X48500Y-36167D01*
X49167Y-35500D01*
X50333Y-35000D01*
X54833D01*
Y-45000D01*
X49333D01*
X48167Y-44333D01*
X47500Y-43333D01*
X47167Y-42167D01*
X47500Y-41000D01*
X48500Y-40000D01*
X49667Y-39667D01*
X54833D01*
G01X40000Y-45000D02*
X41334Y-44833D01*
X42500Y-44167D01*
X43500Y-43167D01*
X44167Y-42000D01*
X44500Y-40667D01*
Y-39333D01*
X44167Y-38000D01*
X43500Y-36833D01*
X42500Y-35833D01*
X41334Y-35167D01*
X40000Y-35000D01*
X38667Y-35167D01*
X37500Y-35833D01*
X36500Y-36833D01*
X35833Y-38000D01*
X35500Y-39333D01*
Y-40667D01*
X35833Y-42000D01*
X36500Y-43167D01*
X37500Y-44167D01*
X38667Y-44833D01*
X40000Y-45000D01*
G01X29000Y-35000D02*
Y-45000D01*
G01X32833Y-35000D02*
X25167D01*
G01X18000D02*
Y-45000D01*
G01X21833Y-35000D02*
X14167D01*
G01X7000Y-45000D02*
X8334Y-44833D01*
X9500Y-44167D01*
X10500Y-43167D01*
X11167Y-42000D01*
X11500Y-40667D01*
Y-39333D01*
X11167Y-38000D01*
X10500Y-36833D01*
X9500Y-35833D01*
X8334Y-35167D01*
X7000Y-35000D01*
X5667Y-35167D01*
X4500Y-35833D01*
X3500Y-36833D01*
X2833Y-38000D01*
X2500Y-39333D01*
Y-40667D01*
X2833Y-42000D01*
X3500Y-43167D01*
X4500Y-44167D01*
X5667Y-44833D01*
X7000Y-45000D01*
G01X333D02*
Y-35000D01*
X-4000Y-43333D01*
X-8333Y-35000D01*
Y-45000D01*
G54D13*
X1000Y-23500D03*
X177500Y13000D03*
Y117500D03*
G54D14*
X55900Y14500D03*
X52100D03*
X95100Y87500D03*
X98900D03*
X69900Y99500D03*
X66100D03*
G54D15*
X46000Y-7500D03*
X122000Y-14500D03*
G54D16*
X44000Y-18400D03*
Y-14600D03*
X109000Y-15900D03*
Y-12100D03*
X133000Y-17900D03*
Y-14100D03*
G54D17*
X49000Y-13547D03*
Y-19453D03*
X138000Y-13047D03*
Y-18953D03*
G54D18*
X44329Y12640D03*
X24329D03*
X4329D03*
X-15671D03*
X54329Y-352D03*
X34329D03*
X14329D03*
X-5671D03*
X44329Y102640D03*
X24329D03*
X4329D03*
X-15671D03*
X54329Y89648D03*
X34329D03*
X14329D03*
X-5671D03*
X109329Y-352D03*
X129329D03*
X99329Y12640D03*
X119329D03*
X109329Y89648D03*
X129329D03*
X99329Y102640D03*
X119329D03*
X149329Y-352D03*
X169329D03*
X139329Y12640D03*
X159329D03*
X149329Y89648D03*
X169329D03*
X139329Y102640D03*
X159329D03*
G54D19*
X103500Y-16800D03*
Y-11200D03*
M02*
