<?xml version="1.0" encoding="utf-8"?>
<!-- Generator: Adobe Illustrator 23.0.4, SVG Export Plug-In . SVG Version: 6.00 Build 0)  -->
<svg version="1.1" id="beagle_x5F_logo_x5F_full_x5F_dog_x5F_with_x5F_r300mono_xA0_Image_1_"
	 xmlns="http://www.w3.org/2000/svg" xmlns:xlink="http://www.w3.org/1999/xlink" x="0px" y="0px" viewBox="0 0 455.9 82.9"
	 style="enable-background:new 0 0 455.9 82.9;" xml:space="preserve">
<style type="text/css">
	.st0{fill:#FFFFFF;}
</style>
<path class="st0" d="M19.7,30.7c0-10.2,0-20.5,0-30.7c145.4,0,290.8,0,436.2,0c0,9.5,0,19,0,28.6c0-0.1-0.1-0.1-0.1-0.2
	c-0.2-0.8-0.6-1.6-1.1-2.2c-2.5-3.3-7.3-4-10.7-1.5c-3.9,2.9-3.8,8.6,0.2,11.3c1.4,1,3,1.4,4.7,1.3c3-0.2,5.2-1.5,6.5-4.2
	c0.2-0.4,0.3-0.8,0.5-1.2c0,17,0,34.1,0,51.1c-131.5,0-263,0-394.6,0c0.5-0.1,1-0.3,1.5-0.4c1.3-0.5,2.1-1.4,2.4-2.7
	c0.1-0.3,0.1-0.6,0.2-1c0.2,0,0.4,0,0.7-0.1c0.6-0.1,1.1-0.2,1.7-0.4c0.9-0.3,1.6-0.9,2-1.9c0.6-1.4,0.7-2.8,0.3-4.2
	c-0.6-2-2-3.4-3.7-4.5c-0.2-0.1-0.4-0.2-0.6-0.3c2-7.4,2.1-14.8-0.2-22.1c1.8-0.7,3.6-1.3,5.4-2c0.2,0.2,0.3,0.4,0.5,0.7
	c1.9,2.4,5,1.9,6.5,0.3c1.6-1.7,2-3.7,1.7-6c-0.1-0.9-0.6-1.7-1.1-2.4c0-0.1,0-0.1,0-0.1c0.1-0.2,0.2-0.4,0.2-0.6
	c0.9-2.3,1.3-4.6,0.9-7c0-0.3,0-0.5,0.2-0.7c0.9-1.9,0.4-3.9-1.2-5.2c-0.7-0.6-1.6-1-2.5-1.2c-0.4-0.1-0.6-0.2-0.9-0.5
	c-1-0.8-2-1.6-3-2.3C70.3,17,68,16,65.7,15.1c-0.5-0.2-0.8-0.5-0.9-1C64.1,12,63.2,10,62,8.1c-2.1-3.3-4.9-5.8-8.7-7
	c-3.5-1.2-7-1.2-10.5-0.4c-2.9,0.7-5.6,1.9-7.9,3.9c-0.5,0.5-1,0.7-1.7,0.9C32,5.7,31,6.3,30.1,7.1c-0.8,0.8-1.5,1.8-2,2.8
	c-0.6,1.3-1.2,2.6-1.8,4c-1.5,3.7-3,7.4-4.8,11c-0.8,1.6-1.4,3.4-1.6,5.2C19.9,30.3,19.7,30.5,19.7,30.7z M188.5,65.6
	c0,0.1,0.1,0.1,0.1,0.1c0,0.1,0,0.2,0,0.3c-0.3,1.7-1.3,2.9-3,3.5c-1.3,0.4-2.6,0.4-3.9,0.2c-1.4-0.2-2.8-0.8-4.1-1.3
	c-0.7-0.3-1.5-0.5-2.2-0.7c-1.3-0.3-2.4,0.1-3.4,1c-0.5,0.4-0.8,1-1.1,1.6c-0.5,1.1-0.4,2.1,0.1,3.2c0.4,0.6,0.8,1.2,1.4,1.6
	c0.7,0.5,1.4,0.9,2.2,1.2c1.6,0.7,3.3,1.1,5,1.4c3.1,0.5,6.1,0.4,9.1-0.6c3.6-1.2,6.3-3.4,7.7-6.9c0.8-1.9,1.1-3.8,1.1-5.9
	c0-7.1,0-14.1,0-21.2c0-0.5,0-0.9-0.1-1.4c-0.4-1.8-1.5-3-3.3-3.4c-1.9-0.4-3.5,0.1-4.7,1.7c-0.1,0.1-0.1,0.1-0.2,0.2
	c-0.1,0-0.1,0-0.1,0c-0.1-0.1-0.2-0.1-0.3-0.2c-1.6-1.3-3.4-2-5.4-2.1c-3.8-0.2-6.9,1.2-9.5,4.1c-1.7,1.9-2.8,4.2-3.4,6.7
	c-0.1,0.2-0.1,0.4-0.2,0.6c0,0-0.1,0-0.1,0c0-0.2,0-0.4,0-0.7c0-1.7,0-3.4,0-5.2c0-0.8-0.1-1.6-0.2-2.3c-0.2-1-0.7-1.9-1.7-2.4
	c-1.7-1-4.4-0.9-5.9,1.1c-0.1,0.1-0.2,0.3-0.3,0.4c-0.1-0.1-0.2-0.2-0.4-0.3c-1.6-1.3-3.5-2-5.6-2.1c-3.4-0.2-6.3,1-8.8,3.3
	c-2.1,1.9-3.3,4.4-4.1,7.1c0,0.1-0.1,0.3-0.2,0.5c-0.1-0.2-0.1-0.4-0.2-0.5c-0.7-2.4-1.9-4.5-3.7-6.3c-4-4.2-10.2-5.4-15.3-2.9
	c-3.7,1.8-6,4.7-7.3,8.5c-0.1,0.3-0.2,0.6-0.3,1c-0.1-0.3-0.1-0.5-0.2-0.7c-0.5-1.8-1.3-3.5-2.4-5.1c-1.3-1.8-2.9-3.2-5-4.1
	c-3.3-1.3-6.6-1.2-9.9,0.4c-0.2,0.1-0.4,0.2-0.6,0.3c0-0.3,0-0.5,0-0.8c0-2.3,0-4.6,0-7c0-0.5,0-1.1-0.1-1.6
	c-0.4-2.1-2.1-3.6-4.3-3.6c-2.1-0.1-3.8,1.3-4.4,3.3c-0.2,0.6-0.2,1.2-0.2,1.8c0,10.1,0,20.2,0,30.4c0,0.2,0,0.4,0,0.5
	c0.1,1.1,0.3,2.1,1,3c1,1.3,2.5,1.8,4.1,1.6c1.2-0.1,2.2-0.6,3-1.6c0.1-0.1,0.2-0.3,0.3-0.4c0.1,0.1,0.2,0.2,0.3,0.2
	c1.6,1.4,3.5,2.1,5.6,2.1c2.9,0.1,5.5-0.8,7.8-2.6c2.3-1.8,3.8-4.2,4.6-7c0.1-0.2,0.2-0.5,0.3-0.8c0.1,0.3,0.2,0.5,0.2,0.7
	c1.7,4.9,5,8.1,10.1,9.3c3.1,0.8,6.2,0.5,9.2-0.5c1.7-0.5,3.4-1.3,4.9-2.4c0.7-0.5,1.3-1.1,1.7-1.9c0.5-0.8,0.6-1.7,0.4-2.7
	c-0.5-2-2.7-4-5.4-2.7c-0.6,0.3-1.2,0.6-1.8,0.9c-0.7,0.4-1.5,0.8-2.2,1.1c-1.8,0.7-3.6,0.7-5.4,0c-1.2-0.5-2.1-1.3-2.7-2.5
	c-0.1-0.1-0.1-0.3-0.1-0.5c0.3,0,0.5,0,0.8,0c4.5,0,8.9,0,13.4,0c1.3,0,2.4-0.3,3.3-1.2c0,0,0.1,0,0.1,0c0,0.2,0.1,0.3,0.1,0.5
	c0.1,1.2,0.4,2.4,0.9,3.6c1.9,4.9,5.3,8.1,10.7,8.7c2.6,0.3,5-0.4,7-2c0.2-0.1,0.4-0.3,0.6-0.5c0.1,0.2,0.3,0.4,0.4,0.6
	c0.7,1,1.6,1.5,2.7,1.6c0.4,0,0.8,0,1.3,0c1.9-0.1,3.2-1.2,3.6-3.1c0.2-0.8,0.2-1.5,0.2-2.3c0-1.5,0-3.1,0-4.6c0-0.2,0-0.4,0-0.6
	c0,0,0.1,0,0.1,0c0,0.1,0,0.1,0,0.2c0.3,1,0.5,2,0.9,3c0.9,2.3,2.2,4.3,4.2,5.8c2.2,1.6,4.7,2.1,7.4,2c1.9-0.1,3.7-0.6,5.3-1.8
	C188.3,65.7,188.4,65.6,188.5,65.6z M310,40.3C309.9,40.3,309.9,40.3,310,40.3c-0.2-0.1-0.3-0.2-0.4-0.3c-1.5-1.3-3.3-1.9-5.3-2.1
	c-3.6-0.2-6.6,1-9.1,3.4c-2.4,2.3-3.7,5.2-4.3,8.4c0,0.2-0.1,0.3-0.1,0.5c-0.1-0.1-0.1-0.2-0.1-0.2c-0.5-2.8-1.7-5.4-3.6-7.5
	c-4.8-5.4-12.8-6.1-18.4-1.6c-2.8,2.3-4.5,5.3-5.2,8.9c0,0.2-0.1,0.4-0.1,0.6c-0.1-0.3-0.2-0.6-0.2-0.9c-0.5-2.4-1.3-4.7-2.8-6.7
	c-3.8-5.4-10.4-5.9-14.9-3.5c-0.2,0.1-0.3,0.2-0.6,0.3c0-0.3,0-0.5,0-0.7c0-2.3,0-4.6,0-6.9c0-0.6,0-1.3-0.2-1.9
	c-0.5-2.1-2.1-3.4-4.2-3.4c-2-0.1-3.8,1.2-4.3,3.2c-0.2,0.6-0.2,1.3-0.2,2c0,10.1,0,20.2,0,30.2c0,0.4,0,0.7,0,1.1
	c0.1,1,0.5,2,1.2,2.8c1,1.1,2.4,1.5,3.9,1.3c1.2-0.1,2.2-0.6,3-1.6c0.1-0.1,0.2-0.3,0.3-0.4c0.1,0.1,0.2,0.2,0.3,0.3
	c1.6,1.4,3.5,2,5.6,2.1c2.8,0.1,5.4-0.7,7.6-2.4c2.2-1.7,3.7-4,4.7-6.6c0.3-1,0.6-2,0.9-3.1c0.1,0.4,0.2,0.7,0.2,1.1
	c1.3,5.9,5.8,10.5,12.2,11c3.5,0.3,6.6-0.5,9.4-2.7c2.8-2.2,4.5-5.1,5.2-8.6c0.1-0.3,0.1-0.5,0.2-0.8c0.1,0.1,0.2,0.2,0.2,0.3
	c0.2,1,0.4,2,0.7,2.9c1.9,5,5.3,8.2,10.8,8.8c2.6,0.3,4.9-0.3,6.9-2c0.2-0.2,0.4-0.3,0.6-0.5c0.1,0,0.1,0,0.1,0
	c0.1,0.1,0.2,0.3,0.3,0.4c0.6,0.9,1.4,1.5,2.5,1.7c0.7,0.1,1.4,0.1,2.1,0c1.6-0.3,2.6-1.2,3-2.8c0.2-0.7,0.3-1.3,0.3-2
	c0-6.4,0-12.8,0-19.3c0-0.7-0.1-1.4-0.3-2.1c-0.4-1.4-1.3-2.3-2.8-2.7c-0.3-0.1-0.7-0.1-1.1-0.1c-1.5,0-2.7,0.5-3.7,1.7
	C310.2,40,310.1,40.2,310,40.3z M352.9,65.2c0.1,0.1,0.1,0.1,0.1,0.2c1,1.5,2.4,2,4.1,1.9c1.6-0.1,2.7-0.8,3.5-2.2
	c0.5-0.9,0.7-1.8,0.7-2.8c0-10.3,0-20.5,0-30.8c0-0.5,0-1-0.2-1.5c-0.5-2.1-2.2-3.5-4.3-3.5c-2.1,0-3.8,1.3-4.3,3.4
	c-0.1,0.5-0.2,1.1-0.2,1.6c0,2.4,0,4.8,0,7.3c0,0.2,0,0.4,0,0.6c-0.1,0-0.1,0-0.1,0c-0.2-0.1-0.4-0.2-0.5-0.3
	c-3.5-1.7-7.1-1.7-10.6,0c-1.9,0.9-3.4,2.4-4.5,4.2c-0.1,0.2-0.2,0.3-0.3,0.5c-0.1-0.6,0-1.1-0.1-1.7c-0.2-2.1-1.7-3.7-3.7-3.9
	c-1.8-0.2-3.4,0.3-4.8,1.5c-0.1,0.1-0.3,0.3-0.4,0.4c-0.8-1.1-1.3-1.4-2.2-1.7c-0.6-0.1-1.1-0.3-1.7-0.3c-2.6,0-4.7,1.7-4.7,4.5
	c0,6.6,0,13.1,0,19.7c0,0.7,0.1,1.4,0.4,2c0.6,1.8,2.2,2.8,4.1,2.9c1.9,0,3.5-1,4.1-2.8c0.3-0.7,0.4-1.4,0.4-2.1c0-3.7,0-7.3,0-11
	c0-1.2,0.5-2.1,1.4-2.8c0.4-0.2,0.7-0.5,1.1-0.7c1-0.5,2-0.9,3-1.3c0.7-0.3,1.5-0.6,2.1-1.2c0.1-0.1,0.2-0.2,0.3-0.3
	c0,0.2-0.1,0.2-0.1,0.3c-0.9,2-1.3,4.1-1.5,6.3c-0.2,3,0.2,5.8,1.6,8.4c2.1,4.2,5.3,6.9,10.1,7.4c2.6,0.3,5-0.4,7.1-2.1
	C352.6,65.3,352.7,65.2,352.9,65.2z M398.8,55.1C398.8,55.1,398.8,55.1,398.8,55.1C398.8,55.1,398.8,55.2,398.8,55.1
	c0.1,2.4,0.1,4.7,0.1,7c0,0.6,0,1.1,0.2,1.7c0.5,2.1,2.1,3.5,4.3,3.5c2.2,0,3.8-1.3,4.3-3.4c0.1-0.6,0.2-1.2,0.2-1.8
	c0-3.5,0-6.9,0-10.4c0-0.2,0-0.4,0-0.7c0-0.8,0.4-1.5,1-2c0.4-0.3,0.9-0.7,1.3-0.9c1.1-0.5,2.2-1,3.3-1.5c0.5-0.2,1.1-0.5,1.6-0.8
	c0.9-0.6,1.4-1.5,1.5-2.5c0-0.5,0-1-0.1-1.5c-0.4-1.9-1.8-3.2-3.6-3.5c-1.8-0.2-3.4,0.3-4.8,1.4c-0.2,0.1-0.3,0.3-0.5,0.4
	c-0.1-0.1-0.1-0.2-0.2-0.2c-0.5-0.8-1.3-1.3-2.3-1.5c-0.8-0.2-1.7-0.2-2.5-0.1c-1.8,0.3-3.2,1.6-3.6,3.5c-0.1,0.4-0.1,0.8-0.1,1.3
	c0,2.3,0,4.6,0,6.9c0,0.2,0,0.4,0,0.6c-0.1-0.2-0.2-0.4-0.2-0.6c-0.5-2.7-1.6-5.1-3.3-7.2c-3.3-3.8-7.4-5.4-12.4-4.6
	c-3.8,0.6-6.8,2.6-8.9,5.8c-2.7,3.9-3.4,8.3-2.3,12.9c0.8,3.3,2.5,6.1,5.2,8.2c2.8,2.1,6,2.9,9.4,2.6c3.3-0.3,6.2-1.6,8.5-4.1
	c1.9-2,3.1-4.4,3.7-7.1C398.6,55.9,398.7,55.5,398.8,55.1z M433.5,40.3c-0.2-0.1-0.3-0.2-0.4-0.3c-0.7-0.6-1.4-1-2.2-1.3
	c-2.1-0.9-4.3-1-6.5-0.4c-3.2,0.8-5.6,2.6-7.3,5.3c-1.5,2.3-2.3,4.8-2.6,7.5c-0.3,3.2,0.1,6.3,1.3,9.3c0.9,2.2,2.3,4,4.2,5.3
	c2.2,1.5,4.7,2,7.3,1.9c1.9-0.1,3.7-0.7,5.3-1.9c0.1,0,0.1-0.1,0.2-0.1c0,0.1,0,0.1,0,0.2c-0.3,1.9-1.3,3.1-3.1,3.7
	c-1.3,0.4-2.6,0.4-3.9,0.2c-1.3-0.2-2.6-0.7-3.8-1.2c-0.9-0.3-1.7-0.6-2.6-0.8c-1.1-0.3-2,0-2.9,0.7c-0.3,0.3-0.6,0.6-0.9,0.9
	c-1.3,1.7-1.2,3.6,0.3,5.1c0.9,0.9,1.9,1.5,3.1,1.9c1.8,0.7,3.6,1.1,5.5,1.4c3,0.4,5.9,0.2,8.8-0.8c3.8-1.3,6.4-3.9,7.7-7.8
	c0.6-1.7,0.8-3.5,0.8-5.3c0-6.8,0-13.6,0-20.5c0-0.3,0-0.6,0-0.8c-0.2-3.1-3-5-6-4.1C434.8,38.7,434.1,39.3,433.5,40.3z M216.6,56
	c0.3,0,0.5,0,0.8,0c4.4,0,8.8,0,13.3,0c0.4,0,0.8,0,1.3-0.1c1.6-0.2,2.7-1.3,2.9-2.9c0.2-1,0.1-2-0.1-3c-0.5-3.1-1.9-5.8-4.1-8
	c-3.4-3.4-7.5-4.7-12.3-3.8c-3.4,0.6-6.1,2.5-8.1,5.3c-3.5,4.9-4,10.3-1.7,15.8c1.6,3.9,4.5,6.4,8.6,7.6c2.5,0.8,5,0.8,7.6,0.4
	c2.3-0.4,4.4-1.1,6.4-2.3c0.9-0.5,1.6-1.1,2.3-1.9c2-2.4,0.5-5-1.2-6c-0.9-0.5-1.8-0.6-2.8-0.3c-0.6,0.2-1.2,0.5-1.8,0.8
	c-0.8,0.4-1.7,0.9-2.5,1.3c-1.5,0.7-3,0.8-4.6,0.4c-1.1-0.3-2.2-0.7-3-1.6C217.1,57.2,216.8,56.7,216.6,56z M207,46.9
	c0-5,0-10,0-15.1c0-0.6,0-1.2-0.2-1.8c-0.5-2.1-2.2-3.4-4.3-3.5c-2,0-3.8,1.3-4.3,3.3c-0.2,0.6-0.2,1.2-0.2,1.8
	c0,10.2,0,20.4,0,30.5c0,0.6,0.1,1.2,0.2,1.7c0.5,2,2.1,3.3,4.2,3.3c2.1,0,3.7-1.2,4.4-3.2c0.2-0.7,0.2-1.4,0.2-2.1
	C207,57,207,51.9,207,46.9z M362.6,62.7c0,2.6,2.1,4.8,4.7,4.9c2.7,0,4.9-2.1,4.9-4.8c0-2.6-2.1-4.8-4.7-4.8
	C364.8,57.9,362.6,60,362.6,62.7z"/>
<path d="M19.7,30.7c0.1-0.2,0.2-0.4,0.2-0.6c0.2-1.8,0.8-3.6,1.6-5.2c1.8-3.6,3.3-7.3,4.8-11c0.5-1.4,1.1-2.7,1.8-4
	c0.5-1,1.2-2,2-2.8C31,6.3,32,5.7,33.2,5.4C33.9,5.3,34.4,5,35,4.5c2.3-2,4.9-3.2,7.9-3.9c3.5-0.8,7.1-0.8,10.5,0.4
	c3.7,1.3,6.6,3.8,8.7,7c1.2,1.9,2.1,3.9,2.8,6.1c0.2,0.5,0.4,0.8,0.9,1c2.3,0.8,4.6,1.9,6.6,3.2c1,0.7,2,1.5,3,2.3
	c0.3,0.2,0.6,0.4,0.9,0.5c0.9,0.2,1.8,0.6,2.5,1.2c1.6,1.3,2.1,3.4,1.2,5.2c-0.1,0.2-0.2,0.5-0.2,0.7c0.4,2.4-0.1,4.7-0.9,7
	c-0.1,0.2-0.2,0.4-0.2,0.6c0,0,0,0,0,0.1c0.5,0.7,0.9,1.5,1.1,2.4c0.3,2.2-0.1,4.3-1.7,6c-1.5,1.5-4.6,2.1-6.5-0.3
	c-0.2-0.2-0.4-0.5-0.5-0.7c-1.8,0.7-3.6,1.3-5.4,2c2.3,7.3,2.2,14.7,0.2,22.1c0.2,0.1,0.4,0.2,0.6,0.3c1.8,1,3.1,2.5,3.7,4.5
	c0.4,1.4,0.2,2.9-0.3,4.2c-0.4,0.9-1.1,1.5-2,1.9c-0.5,0.2-1.1,0.3-1.7,0.4c-0.2,0-0.4,0.1-0.7,0.1c-0.1,0.3-0.2,0.7-0.2,1
	c-0.3,1.4-1.1,2.2-2.4,2.7c-0.5,0.2-1,0.3-1.5,0.4c-1.2,0-2.3,0-3.5,0c-0.1,0-0.3-0.1-0.5-0.1c-1.4-0.2-2.8-0.6-4-1.4
	c-1.6-1.1-2.7-2.5-3.1-4.4c-0.1-0.4-0.1-0.9-0.1-1.4c-1.5-0.1-3.1-0.1-4.6,0c0,0.3-0.1,0.6-0.1,0.8c-0.3,1.9-1.1,3.5-2.7,4.7
	c-0.9,0.7-2,1.2-3.1,1.5c-0.5,0.1-1.1,0.2-1.6,0.4c-1.2,0-2.3,0-3.5,0c-0.1,0-0.3-0.1-0.4-0.1c-0.6-0.2-1.2-0.3-1.7-0.6
	c-1.2-0.6-1.8-1.6-1.9-2.9c0-0.2,0-0.3-0.1-0.5c-0.2,0-0.5,0-0.7-0.1c-0.5-0.1-1.1-0.2-1.6-0.4c-1.3-0.5-2.1-1.4-2.4-2.8
	c-0.2-1.2-0.1-2.3,0.3-3.4c0.7-1.8,2-3.1,3.6-4.1c0.2-0.1,0.3-0.2,0.5-0.3c-0.2-0.7-0.4-1.4-0.6-2.1c-0.1-0.3-0.2-0.6-0.4-0.8
	C28,63.5,27,62,26,60.4c-2.1-3.4-3.8-6.9-4.9-10.7c-0.4-1.4-0.7-2.9-0.6-4.4c0.2-1.6,1-2.5,2.7-2.6c0.9-0.1,1.6,0.3,2,1
	c0.2,0.4,0.4,0.8,0.6,1.2c0.2,0.6,0.4,1.3,0.6,1.9c0.5,1.9,1.2,3.7,2.1,5.4c0.1,0.1,0.2,0.2,0.3,0.5c0.3-3,1-5.7,2-8.4
	c-0.2,0-0.3-0.1-0.4-0.1c-1.2-0.3-2.4-0.6-3.6-1.2c-3.9-1.9-6.3-4.8-6.9-9.1c0-0.2-0.1-0.5-0.2-0.7C19.7,32.3,19.7,31.5,19.7,30.7z
	 M48,1.5c0.1,0.2,0.2,0.3,0.2,0.5c1.5,2.4,2.9,4.8,4.2,7.3c0.9,1.8,1.8,3.7,2.4,5.7c0.4,1.3,0.4,2.7-0.4,3.9
	c-0.3,0.4-0.5,0.8-0.9,1.2c-0.7,0.7-1.4,1.5-2.1,2.2c-2.1,2.1-2.9,4.6-2.7,7.5c0.1,1.9,0.6,3.7,1.2,5.5c0.4,1.1,0.8,2.2,1.2,3.3
	c0.8,2.2,0.1,4.3-1.7,5.5c-0.8,0.6-1.8,0.9-2.8,1.1c-1.2,0.2-2.5,0.1-3.7,0c-2.2-0.3-4.1,0.4-5.5,2.1c-1.2,1.5-1.6,3.2-1.8,5.1
	c0,0.1,0,0.3,0.1,0.3c0.3,0.2,0.3,0.5,0.4,0.8c0.1,0.9,0.3,1.8,0.3,2.7c0,1.8-0.1,3.6-0.2,5.4c-0.1,2.6-0.3,5.3-0.4,7.9
	c-0.1,1.8-0.4,3.5-1.3,5c-0.1,0.2-0.2,0.4-0.3,0.5c-0.4,1-0.9,1.9-1.1,3c-0.2,1.1,0.2,1.8,1.3,2.1c0.1,0,0.2,0,0.3,0.1
	c1.7,0.3,3.4,0.2,5.1-0.3c1.1-0.3,2.2-0.9,2.9-2c0.4-0.6,0.7-1.2,0.7-2c-0.1-0.6-0.1-1.3-0.1-1.9c-0.1-1.8-0.3-3.5-0.4-5.3
	c-0.1-2.6-0.2-5.3-0.3-7.9c0-0.8,0.2-1.5,0.3-2.3c0-0.1,0.1-0.2,0.2-0.4c0.1,0.2,0.2,0.3,0.2,0.5c0.2,0.7,0.4,1.3,0.5,2
	c0.1,0.5,0,1.1,0,1.7c0,1.1,0.1,2.1,0.2,3.2c0.1,1.9,0.2,3.9,0.3,5.8c0,0.8,0.1,1.5,0.2,2.2c0.1,0.1,0.2,0.1,0.2,0.1
	c2.2,0,4.4,0,6.7,0c0.1,0,0.3,0,0.4,0c0-0.1,0.1-0.3,0.1-0.4c0.1-1.5,0.2-3.1,0.3-4.6c0.1-1.5,0.1-2.9,0.2-4.4
	c0.1-1.1,0.2-2.2,0.2-3.3c0-0.8,0.2-1.5,0.5-2.3c0.1-0.1,0.1-0.3,0.3-0.5c0.3,0.7,0.4,1.4,0.4,2.1c0,1.1,0,2.3-0.1,3.4
	c-0.2,2.6-0.3,5.3-0.5,7.9c-0.1,1.1-0.2,2.3-0.3,3.4c-0.1,0.8,0,1.6,0.4,2.4c0.4,0.7,0.9,1.3,1.6,1.7c2.2,1.4,4.7,1.6,7.2,1.1
	c0.2,0,0.4-0.1,0.6-0.2c0.5-0.2,0.7-0.6,0.7-1.2c0-0.7-0.2-1.3-0.5-2c-0.5-1.1-1-2.2-1.6-3.2c-0.3-0.7-0.6-1.4-0.7-2.2
	c-0.1-2.5-0.3-5.1-0.4-7.6c0-0.8,0-1.7-0.1-2.5c-0.1-2.6-0.1-5.2-0.2-7.8c0-0.3,0.1-0.6,0.1-1c0-0.5,0.1-1,0-1.5
	c-0.5-1.9-1.5-3.6-2.7-5.2c-0.2-0.2-0.4-0.3-0.7-0.3c-1.5-0.1-2.9-0.3-4.4-0.4c-0.3,0-0.6-0.1-0.9-0.2c0.1-0.4,0.1-0.7,0.2-1.1
	c0.2,0,0.4,0,0.6,0c2.3,0.4,4.7,0.6,7,0.5c2.1-0.1,4.3-0.4,6.3-0.9c0.2-0.1,0.5-0.2,0.7-0.2c-0.2-0.1-0.3-0.2-0.5-0.2
	c-0.1,0-0.2,0-0.4,0c-2.5-0.1-4.9-0.6-7.2-1.5c-0.4-0.2-0.8-0.4-1.1-0.6c-0.5-0.4-0.5-1,0-1.3c0.3-0.2,0.6-0.3,0.9-0.4
	c0.7-0.1,1.4-0.3,2.1-0.3c3.1-0.3,6.2-0.8,9.2-1.7c1.9-0.6,3.7-1.3,5.4-2.4c1.5-1,2.7-2.1,3.6-3.6c0.2-0.4,0.3-0.8,0.1-1.3
	c-0.2,0.1-0.3,0.1-0.4,0.2c-0.4,0.2-0.7,0.4-1.1,0.6c-2.1,0.9-4.1,1-6.1-0.1c-2.7-1.4-3.4-4.6-1.5-6.9c0.9-1.1,2-1.8,3.3-2.1
	c0.3-0.1,0.6-0.1,0.9-0.4c-0.3-0.2-0.5-0.5-0.8-0.7c-2.5-1.8-5.2-3.1-8.1-4.1c-0.3-0.1-0.7-0.3-1-0.3c-1.4-0.2-2.7-0.6-3.9-1
	c-1.6-0.6-3-1.5-3.9-3c-2.1-3.3-4.2-6.5-6.2-9.8C49.1,1.3,48.9,1.2,48,1.5z M35.5,42.5c2,0,3.3-0.2,4.8-0.7c1.6-0.5,2.9-1.3,4.1-2.6
	c1.8-2,2.4-4.5,2.3-7.1c-0.1-2.4-0.7-4.7-1.5-6.9c-0.4-1.2-0.9-2.4-1.3-3.7c-0.7-2.4-1.3-4.9-1.9-7.3c-0.4-1.7-0.9-3.4-1.7-5
	c-0.7-1.3-1.6-2.3-3.1-2.7c-0.7-0.2-1.5-0.2-2.2-0.2c-1,0.1-1.9,0.4-2.7,1c-0.9,0.6-1.5,1.5-2.1,2.5c-0.9,1.6-1.6,3.3-2.3,5
	c-1.3,3.4-2.7,6.7-4.3,9.9c-0.9,1.8-1.6,3.8-1.7,5.8c-0.2,2.1,0.2,4.1,1.2,5.9c1.2,2.2,3.1,3.7,5.4,4.7
	C30.7,42.1,33.1,42.5,35.5,42.5z M32.7,68.2c-0.2,0.1-0.4,0.2-0.6,0.3c-1.7,0.7-3,1.8-3.8,3.5c-0.4,0.9-0.5,1.8-0.4,2.7
	c0.2,1,0.8,1.6,1.7,1.7c0.8,0.2,1.6,0.2,2.4,0.3c0.2,0,0.4-0.1,0.5-0.3c0.6-1.4,1.2-2.7,1.8-4.1c0.2-0.4,0.3-0.8,0.3-1.3
	c0.1-1.7,0.2-3.5,0.3-5.2c0.1-1.3,0.1-2.6,0.1-3.8c0.1-2.1,0.1-4.2,0.2-6.2c0-0.7,0.1-1.3,0.2-2c0.1-0.4,0.3-0.8,0-1.1
	c-0.1-0.1,0-0.3,0-0.4c0.1-1.4,0.4-2.8,1-4.1c1.3-2.8,4.3-3.8,6.7-3.4c1.7,0.3,3.4,0.3,5-0.4c1.1-0.5,2.1-1.1,2.6-2.2
	c0.6-1.2,0.6-2.4,0.1-3.6c-0.4-1.2-0.9-2.3-1.3-3.5c-0.7-2.1-1.1-4.2-1.1-6.5c0-2.5,0.9-4.7,2.7-6.5c0.7-0.7,1.5-1.5,2.2-2.2
	c1.3-1.4,1.7-3,1.1-4.8c-0.5-1.8-1.3-3.6-2.2-5.2c-1.3-2.6-2.8-5.1-4.3-7.5c-0.2-0.3-0.3-0.6-0.5-0.9c-0.2,0-0.4,0-0.6,0
	c-1,0.1-2.1,0.2-3.1,0.4c-2.4,0.5-4.7,1.4-6.6,2.9c-0.2,0.1-0.4,0.2-0.4,0.5c0.2,0.1,0.4,0.1,0.6,0.2c1,0.3,1.8,0.7,2.6,1.5
	c0.8,0.8,1.3,1.7,1.7,2.6c0.8,1.9,1.3,3.9,1.8,5.8c0.7,2.7,1.3,5.5,2.3,8.1c0.4,1.2,0.9,2.4,1.2,3.7c0.7,2.5,1.1,5,0.7,7.6
	c-0.4,2.7-1.6,5-3.8,6.6c-1.5,1.1-3.2,1.8-5.1,2.2c-1.7,0.3-3.4,0.3-5.1,0.2c-0.6,0-0.6-0.1-0.8,0.5c-0.7,1.9-1.2,3.8-1.6,5.8
	c-0.4,2.2-0.6,4.4-0.6,6.6c0,0.2,0,0.3-0.1,0.6c-0.2-0.2-0.3-0.2-0.4-0.3c-2.1-2.2-3.6-4.8-4.5-7.7c-0.4-1.2-0.7-2.3-1.1-3.5
	c-0.2-0.4-0.4-0.9-0.6-1.3c-0.2-0.3-0.5-0.4-0.8-0.4c-0.3,0.1-0.5,0.3-0.5,0.6c-0.1,0.4-0.1,0.8-0.1,1.2c0.1,1.6,0.5,3.2,1.1,4.7
	c1.7,4.8,4.2,9.1,7.5,13c0.2,0.2,0.3,0.5,0.4,0.8c0.3,1.1,0.6,2.2,0.9,3.3C32.6,67.8,32.6,68,32.7,68.2z M57.7,45.4
	c0.1,0.2,0.2,0.3,0.3,0.5c0.5,0.9,1.1,1.7,1.6,2.6c0.5,1,1,2.1,1,3.4c0,0.2,0.1,0.3,0.2,0.5c0.2,0.6,0.4,1.3,0.5,2
	c0.1,0.8,0.1,1.7,0.1,2.6c0.1,2.8,0.2,5.5,0.2,8.3c0.1,1.7,0.1,3.4,0.3,5.1c0,0.6,0.1,1.3,0.4,1.9c0.6,1.4,1.3,2.8,2,4.2
	c0.1,0.1,0.2,0.3,0.3,0.3c1,0,2,0,3-0.3c0.7-0.2,1.1-0.7,1.3-1.4c0.2-0.8,0.2-1.6-0.1-2.4c-0.7-2-2-3.2-3.9-4.1
	c-0.2-0.1-0.5-0.2-0.8-0.3c1.3-3.8,1.8-7.7,1.8-11.7c0-4-0.5-7.9-1.9-11.6C61.9,45.1,59.8,45.2,57.7,45.4z M63.4,14
	c-0.2,0.1-0.3,0.2-0.4,0.2c-1.1,0.6-2.7,0.4-3.6-0.4c-0.9-0.8-0.9-1.9,0-2.7c0.5-0.5,1.1-0.7,1.8-0.8c0.2,0,0.4,0,0.7-0.1
	c-1.4-2.6-3.2-4.8-5.5-6.4c-2-1.4-4.2-2.1-6.7-2.4c0.1,0.2,0.1,0.3,0.2,0.4c0.7,1.1,1.4,2.3,2.1,3.4c1.5,2.3,3,4.6,4.6,6.9
	c0.4,0.6,0.9,1,1.5,1.4c1.7,1,3.6,1.5,5.5,1.9c0.1,0,0.2,0,0.4,0C63.7,15,63.6,14.5,63.4,14z M76.6,35.7c-0.2,0.2-0.4,0.3-0.6,0.5
	c-0.6,0.5-1.2,1-1.9,1.3c-1,0.5-2.1,0.8-3.1,1.1c-0.2,0.1-0.3,0.1-0.5,0.2c0.1,0.1,0.1,0.2,0.2,0.2c0.5,0.7,1.1,1.4,1.6,2.1
	c0.4,0.5,0.7,0.9,1.1,1.3c0.5,0.5,1,0.7,1.7,0.7c1.4,0,2.2-0.8,2.8-2c0.5-1.1,0.5-2.2,0.2-3.3C77.8,37,77.3,36.3,76.6,35.7z
	 M76.5,21.9c-0.4,0.1-0.8,0.1-1.1,0.2c-1.5,0.3-3,0.9-4.3,1.8c-0.3,0.2-0.5,0.4-0.7,0.7c-0.3,0.4-0.1,0.7,0.3,0.8
	c0.3,0.1,0.6,0.1,0.8,0.1c2-0.2,3.8-0.8,5.4-2c0.2-0.2,0.4-0.4,0.6-0.6c0.3-0.4,0.2-0.7-0.3-0.8C77,22,76.7,22,76.5,21.9z
	 M60.4,12.6c0.4,0,0.8-0.3,0.8-0.7c0-0.4-0.3-0.7-0.8-0.7c-0.4,0-0.8,0.3-0.8,0.6C59.6,12.3,60,12.6,60.4,12.6z"/>
<path class="st0" d="M19.7,33.1c0.1,0.2,0.2,0.4,0.2,0.7c0.7,4.3,3.1,7.3,6.9,9.1c1.1,0.6,2.3,0.9,3.6,1.2c0.1,0,0.2,0.1,0.4,0.1
	c-1,2.7-1.6,5.5-2,8.4c-0.2-0.2-0.3-0.3-0.3-0.5c-1-1.7-1.6-3.5-2.1-5.4c-0.2-0.7-0.4-1.3-0.6-1.9c-0.1-0.4-0.3-0.8-0.6-1.2
	c-0.5-0.7-1.2-1.1-2-1c-1.6,0.1-2.5,1-2.7,2.6c-0.1,1.5,0.2,2.9,0.6,4.4c1.1,3.8,2.8,7.3,4.9,10.7c1,1.6,2.1,3.1,3.3,4.5
	c0.2,0.2,0.3,0.5,0.4,0.8c0.2,0.7,0.4,1.3,0.6,2.1c-0.2,0.1-0.3,0.2-0.5,0.3c-1.6,1-2.9,2.3-3.6,4.1c-0.4,1.1-0.5,2.3-0.3,3.4
	c0.3,1.4,1.1,2.3,2.4,2.8c0.5,0.2,1.1,0.3,1.6,0.4c0.2,0,0.4,0.1,0.7,0.1c0,0.2,0.1,0.3,0.1,0.5c0.1,1.3,0.7,2.3,1.9,2.9
	c0.5,0.3,1.1,0.4,1.7,0.6c0.1,0,0.3,0.1,0.4,0.1c-5,0-9.9,0-14.9,0C19.7,66.3,19.7,49.7,19.7,33.1z"/>
<path class="st0" d="M38,82.9c0.5-0.1,1.1-0.2,1.6-0.4c1.1-0.3,2.2-0.7,3.1-1.5c1.6-1.2,2.4-2.8,2.7-4.7c0-0.3,0.1-0.5,0.1-0.8
	c1.5-0.1,3.1-0.1,4.6,0c0,0.5,0,1,0.1,1.4c0.4,1.9,1.5,3.4,3.1,4.4c1.2,0.8,2.6,1.2,4,1.4c0.2,0,0.3,0.1,0.5,0.1
	C51.2,82.9,44.6,82.9,38,82.9z"/>
<path d="M455.9,31.8c-0.1,0.4-0.3,0.8-0.5,1.2c-1.3,2.7-3.5,4.1-6.5,4.2c-1.7,0.1-3.3-0.3-4.7-1.3c-4-2.7-4.2-8.4-0.2-11.3
	c3.4-2.5,8.2-1.8,10.7,1.5c0.5,0.7,0.9,1.4,1.1,2.2c0,0.1,0.1,0.1,0.1,0.2C455.9,29.6,455.9,30.7,455.9,31.8z M442.3,30.1
	c0,1.4,0.5,2.7,1.4,3.7c2.3,2.8,6.8,3,9.4,0.4c2.3-2.3,2.4-5.7,0.2-8.1c-2.1-2.3-5.8-2.7-8.3-0.9C443.2,26.5,442.3,28.1,442.3,30.1z
	"/>
<path d="M188.5,65.6c-0.1,0-0.2,0.1-0.3,0.1c-1.6,1.2-3.4,1.7-5.3,1.8c-2.7,0.2-5.2-0.4-7.4-2c-2-1.5-3.4-3.4-4.2-5.8
	c-0.4-1-0.6-2-0.9-3c0-0.1,0-0.1,0-0.2c0,0-0.1,0-0.1,0c0,0.2,0,0.4,0,0.6c0,1.5,0,3.1,0,4.6c0,0.8-0.1,1.6-0.2,2.3
	c-0.4,1.9-1.7,2.9-3.6,3.1c-0.4,0-0.8,0-1.3,0c-1.2-0.1-2.1-0.7-2.7-1.6c-0.1-0.2-0.2-0.4-0.4-0.6c-0.2,0.2-0.4,0.3-0.6,0.5
	c-2.1,1.7-4.4,2.3-7,2c-5.4-0.6-8.8-3.7-10.7-8.7c-0.5-1.2-0.7-2.4-0.9-3.6c0-0.2-0.1-0.3-0.1-0.5c-0.1,0-0.1,0-0.1,0
	c-0.9,1-2.1,1.2-3.3,1.2c-4.5,0-8.9,0-13.4,0c-0.2,0-0.5,0-0.8,0c0.1,0.2,0.1,0.3,0.1,0.5c0.5,1.2,1.5,2,2.7,2.5
	c1.8,0.7,3.6,0.7,5.4,0c0.8-0.3,1.5-0.7,2.2-1.1c0.6-0.3,1.2-0.6,1.8-0.9c2.7-1.3,4.9,0.8,5.4,2.7c0.2,0.9,0.1,1.8-0.4,2.7
	c-0.4,0.8-1,1.4-1.7,1.9c-1.5,1.1-3.1,1.9-4.9,2.4c-3,0.9-6.1,1.2-9.2,0.5c-5.1-1.2-8.4-4.4-10.1-9.3c-0.1-0.2-0.1-0.4-0.2-0.7
	c-0.1,0.3-0.2,0.6-0.3,0.8c-0.9,2.8-2.4,5.2-4.6,7c-2.3,1.8-4.9,2.7-7.8,2.6c-2.1-0.1-4-0.8-5.6-2.1c-0.1-0.1-0.2-0.1-0.3-0.2
	c-0.1,0.2-0.2,0.3-0.3,0.4c-0.7,1-1.7,1.5-3,1.6c-1.6,0.2-3-0.3-4.1-1.6c-0.7-0.9-0.9-1.9-1-3c0-0.2,0-0.4,0-0.5
	c0-10.1,0-20.2,0-30.4c0-0.6,0.1-1.2,0.2-1.8c0.5-2.1,2.3-3.4,4.4-3.3c2.1,0.1,3.8,1.5,4.3,3.6c0.1,0.5,0.1,1.1,0.1,1.6
	c0,2.3,0,4.6,0,7c0,0.2,0,0.4,0,0.8c0.3-0.1,0.4-0.2,0.6-0.3c3.2-1.6,6.5-1.8,9.9-0.4c2.1,0.8,3.7,2.3,5,4.1
	c1.1,1.5,1.8,3.3,2.4,5.1c0.1,0.2,0.1,0.4,0.2,0.7c0.1-0.4,0.2-0.7,0.3-1c1.3-3.8,3.7-6.7,7.3-8.5c5.2-2.5,11.3-1.3,15.3,2.9
	c1.7,1.8,2.9,3.9,3.7,6.3c0,0.1,0.1,0.3,0.2,0.5c0.1-0.2,0.1-0.4,0.2-0.5c0.7-2.7,2-5.1,4.1-7.1c2.5-2.3,5.4-3.5,8.8-3.3
	c2.1,0.1,3.9,0.8,5.6,2.1c0.1,0.1,0.2,0.2,0.4,0.3c0.1-0.1,0.2-0.3,0.3-0.4c1.5-2,4.2-2.1,5.9-1.1c0.9,0.5,1.5,1.4,1.7,2.4
	c0.1,0.8,0.2,1.5,0.2,2.3c0,1.7,0,3.4,0,5.2c0,0.2,0,0.4,0,0.7c0,0,0.1,0,0.1,0c0.1-0.2,0.1-0.4,0.2-0.6c0.6-2.5,1.7-4.8,3.4-6.7
	c2.5-2.8,5.7-4.2,9.5-4.1c2,0.1,3.9,0.8,5.4,2.1c0.1,0.1,0.2,0.2,0.3,0.2c0,0,0,0,0.1,0c0-0.1,0.1-0.1,0.2-0.2
	c1.2-1.7,2.8-2.1,4.7-1.7c1.8,0.4,2.9,1.6,3.3,3.4c0.1,0.4,0.1,0.9,0.1,1.4c0,7.1,0,14.1,0,21.2c0,2-0.3,4-1.1,5.9
	c-1.5,3.5-4.1,5.8-7.7,6.9c-3,0.9-6,1.1-9.1,0.6c-1.7-0.3-3.4-0.7-5-1.4c-0.8-0.3-1.5-0.8-2.2-1.2c-0.6-0.4-1.1-0.9-1.4-1.6
	c-0.6-1-0.6-2.1-0.1-3.2c0.3-0.6,0.6-1.1,1.1-1.6c0.9-0.9,2.1-1.3,3.4-1c0.8,0.2,1.5,0.4,2.2,0.7c1.3,0.5,2.7,1.1,4.1,1.3
	c1.3,0.2,2.6,0.2,3.9-0.2c1.7-0.6,2.7-1.7,3-3.5c0-0.1,0-0.2,0-0.3C188.5,65.7,188.5,65.6,188.5,65.6z M190.2,62.4
	c0,0.2,0.1,0.3,0.1,0.3c0,0.9,0,1.8,0,2.6c-0.1,1-0.3,2-0.8,2.9c-1,1.8-2.6,2.8-4.6,3.1c-2.1,0.4-4.1,0-6.1-0.7
	c-1.1-0.4-2.2-0.8-3.3-1.2c-0.4-0.1-1-0.3-1.4-0.2c-0.9,0.2-1.5,0.9-1.8,1.8c-0.3,0.8,0.1,1.4,0.6,1.9c0.8,0.8,1.8,1.3,2.8,1.7
	c2.6,0.9,5.3,1.5,8.1,1.3c1.9-0.1,3.7-0.4,5.5-1.2c2.3-1,4-2.5,5.1-4.8c0.9-1.7,1.3-3.6,1.3-5.5c0-7.2,0-14.4,0-21.6
	c0-0.2,0-0.4,0-0.6c-0.1-1.3-1.1-2.3-2.3-2.5c-1.4-0.2-2.5,0.5-3,1.7c-0.2,0.5-0.3,1-0.4,1.4c-0.1,0.3-0.2,0.6-0.3,1.1
	c-0.2-0.3-0.3-0.5-0.5-0.7c-0.4-0.6-0.7-1.2-1.2-1.7c-1.3-1.5-3.1-2.1-5-2.2c-2.9-0.1-5.4,0.9-7.5,3c-1.6,1.6-2.6,3.5-3.2,5.6
	c-0.5,1.9-0.8,3.7-0.6,5.7c0.1,2.4,0.7,4.8,1.8,6.9c1,1.8,2.4,3.3,4.3,4.1c1.5,0.7,3.1,0.9,4.7,0.8c2.5-0.1,4.6-1,6-3.1
	c0.1-0.1,0.3-0.3,0.4-0.3C189.4,62.4,189.8,62.4,190.2,62.4z M97,61.4c0.1,0,0.1,0,0.2,0c0.3,0.5,0.6,1,0.9,1.5
	c0.5,0.8,1.1,1.4,1.8,1.8c1.7,1.1,3.6,1.4,5.6,1.1c2.6-0.4,4.7-1.6,6.4-3.6c1.7-2,2.7-4.4,3-7c0.3-2.5,0.1-4.9-0.6-7.3
	c-0.7-2.3-1.9-4.3-3.7-5.9c-3.5-3-8.9-3-12.4-0.1c-0.4,0.3-0.8,0.7-1.2,1c-0.1,0.1-0.2,0.1-0.4,0.2c0-0.3,0-0.5,0-0.7
	c0-3.5,0-7,0-10.6c0-0.6-0.1-1.2-0.3-1.8c-0.4-0.9-1.1-1.5-2.1-1.6c-1-0.1-1.9,0.2-2.5,1.1c-0.4,0.6-0.6,1.3-0.6,2
	c0,10.3,0,20.7,0,31c0,0.1,0,0.3,0,0.4c0.1,1.4,1.1,2.5,2.4,2.7c1.5,0.2,2.5-0.6,3-2c0.1-0.2,0.1-0.4,0.1-0.6
	C96.7,62.4,96.9,61.9,97,61.4z M162.8,61.5c0.1,0.2,0.1,0.3,0.2,0.5c0.2,0.6,0.3,1.3,0.6,1.9c0.4,1.1,1.1,1.6,2.3,1.6
	c0.3,0,0.6,0,0.8-0.1c0.8-0.2,1.3-0.6,1.5-1.4c0.1-0.6,0.2-1.2,0.2-1.8c0-6.2,0-12.4,0-18.5c0-0.6,0-1.2-0.1-1.9
	c-0.1-1.1-0.7-1.7-1.7-1.9c-2-0.4-3.3,1-3.3,2.3c0,0.3-0.1,0.6-0.1,0.9c0,0.3-0.1,0.6-0.2,1.1c-0.2-0.2-0.3-0.3-0.4-0.4
	c-0.3-0.5-0.7-0.9-1-1.4c-0.7-0.9-1.6-1.7-2.7-2.1c-2.6-1.1-5.1-0.9-7.5,0.3c-2.7,1.3-4.6,3.5-5.7,6.3c-1.6,3.9-1.6,7.8-0.1,11.8
	c0.7,1.7,1.7,3.2,3,4.5c1.9,1.7,4,2.6,6.6,2.7c1.9,0.1,3.6-0.4,5-1.6c0.7-0.6,1.3-1.3,1.9-1.9C162.3,62.1,162.5,61.9,162.8,61.5z
	 M123.1,54.3c0.3,0,0.6,0,0.8,0c5.1,0,10.3,0,15.4,0c0.2,0,0.4,0,0.7,0c1.1-0.1,1.7-0.7,1.7-1.7c0-0.7,0-1.3-0.1-2
	c-0.5-3.3-2-6-4.5-8.1c-2-1.7-4.3-2.6-6.9-2.8c-3.4-0.2-6.4,1-8.8,3.4c-2.7,2.7-3.9,6.1-3.9,9.9c0,1.7,0.3,3.4,0.9,5
	c1.5,3.7,4.1,6.2,8,7.4c1.9,0.6,3.9,0.6,5.9,0.4c2.3-0.3,4.4-1,6.4-2.2c0.8-0.5,1.5-1,2-1.8c0.3-0.5,0.5-1,0.4-1.5
	c-0.3-1.5-1.7-2.2-3.1-1.5c-0.7,0.3-1.4,0.7-2.1,1.1c-2.1,1.2-4.3,1.8-6.7,1.3c-1.7-0.3-3.2-0.9-4.4-2.2
	C123.7,57.6,123.2,56.1,123.1,54.3z"/>
<path d="M310,40.3c0.1-0.1,0.2-0.3,0.3-0.4c0.9-1.2,2.2-1.7,3.7-1.7c0.4,0,0.7,0.1,1.1,0.1c1.5,0.3,2.4,1.2,2.8,2.7
	c0.2,0.7,0.3,1.4,0.3,2.1c0,6.4,0,12.8,0,19.3c0,0.7-0.1,1.4-0.3,2c-0.4,1.5-1.4,2.5-3,2.8c-0.7,0.1-1.4,0.1-2.1,0
	c-1.1-0.1-1.9-0.7-2.5-1.7c-0.1-0.1-0.2-0.3-0.3-0.4c0,0,0,0-0.1,0c-0.2,0.2-0.4,0.3-0.6,0.5c-2,1.6-4.4,2.2-6.9,2
	c-5.5-0.6-8.9-3.8-10.8-8.8c-0.3-0.9-0.5-1.9-0.7-2.9c0-0.1-0.1-0.2-0.2-0.3c-0.1,0.3-0.1,0.5-0.2,0.8c-0.8,3.5-2.4,6.4-5.2,8.6
	c-2.8,2.1-5.9,3-9.4,2.7c-6.4-0.5-10.9-5.2-12.2-11c-0.1-0.3-0.2-0.7-0.2-1.1c-0.3,1.1-0.5,2.1-0.9,3.1c-0.9,2.6-2.4,4.9-4.7,6.6
	c-2.2,1.7-4.8,2.5-7.6,2.4c-2.1-0.1-4-0.8-5.6-2.1c-0.1-0.1-0.2-0.2-0.3-0.3c-0.1,0.2-0.2,0.3-0.3,0.4c-0.7,1-1.7,1.5-3,1.6
	c-1.5,0.1-2.8-0.2-3.9-1.3c-0.7-0.8-1.1-1.7-1.2-2.8c0-0.4,0-0.7,0-1.1c0-10.1,0-20.2,0-30.2c0-0.7,0.1-1.4,0.2-2
	c0.6-2,2.3-3.3,4.3-3.2c2.1,0.1,3.7,1.4,4.2,3.4c0.1,0.6,0.2,1.3,0.2,1.9c0,2.3,0,4.6,0,6.9c0,0.2,0,0.4,0,0.7
	c0.3-0.1,0.4-0.2,0.6-0.3c4.4-2.4,11-1.9,14.9,3.5c1.4,2,2.3,4.3,2.8,6.7c0.1,0.3,0.1,0.6,0.2,0.9c0-0.2,0.1-0.4,0.1-0.6
	c0.7-3.6,2.4-6.6,5.2-8.9c5.5-4.5,13.6-3.9,18.4,1.6c1.9,2.2,3.1,4.7,3.6,7.5c0,0.1,0,0.2,0.1,0.2c0-0.2,0.1-0.3,0.1-0.5
	c0.6-3.2,1.9-6.1,4.3-8.4c2.5-2.5,5.6-3.7,9.1-3.4c2,0.1,3.7,0.8,5.3,2.1C309.7,40.1,309.8,40.2,310,40.3
	C309.9,40.3,309.9,40.3,310,40.3z M243.4,43c-0.1,0-0.1-0.1-0.2-0.1c0-0.2,0-0.4,0-0.6c0-3.5,0-7,0-10.4c0-0.6-0.1-1.2-0.2-1.7
	c-0.3-1.1-1.3-1.8-2.3-1.8c-1.2-0.1-2.2,0.5-2.7,1.6c-0.3,0.6-0.3,1.2-0.3,1.8c0,10.1,0,20.3,0,30.4c0,0.4,0,0.8,0.1,1.2
	c0.2,0.8,0.6,1.4,1.3,1.8c1.6,0.9,3.4,0.2,4-1.5c0.2-0.6,0.3-1.2,0.5-1.9c0-0.2,0.1-0.3,0.1-0.5c0,0,0.1,0,0.1,0
	c0.3,0.5,0.6,0.9,0.8,1.4c0.5,0.9,1.3,1.6,2.2,2.1c1.3,0.7,2.8,1,4.3,1c2.3-0.1,4.2-0.9,6-2.3c2-1.6,3.2-3.8,3.9-6.2
	c0.9-2.9,0.8-5.8,0-8.7c-0.6-2.4-1.7-4.5-3.4-6.2c-1.8-1.7-3.9-2.6-6.4-2.7c-2.7-0.1-5,0.7-7,2.5C244.1,42.5,243.7,42.7,243.4,43z
	 M310.7,61.5c0.2,0.8,0.4,1.4,0.6,2.1c0.5,1.6,1.4,2.1,3.1,1.9c0.1,0,0.2,0,0.2,0c0.9-0.2,1.4-0.7,1.6-1.6c0.1-0.5,0.1-1.1,0.1-1.6
	c0-6.3,0-12.7,0-19c0-0.5-0.1-1.1-0.2-1.6c-0.1-0.6-0.4-1.1-1-1.4c-1.7-0.8-3.8,0-4.1,2.1c0,0.4-0.1,0.9-0.1,1.3
	c0,0.2-0.1,0.4-0.2,0.7c-0.5-0.7-0.9-1.2-1.2-1.7c-0.6-0.9-1.4-1.5-2.3-2c-2.3-1.2-4.8-1.2-7.2-0.3c-3,1.1-5.1,3.3-6.4,6.2
	c-1.4,3.2-1.7,6.5-1,9.8c0.5,2.2,1.4,4.3,2.9,6c2,2.2,4.4,3.4,7.3,3.6c2.1,0.1,4-0.5,5.5-1.9c0.6-0.6,1.2-1.2,1.7-1.8
	C310.3,61.9,310.5,61.8,310.7,61.5z M289.1,52.8c0-0.5,0.1-1,0-1.5c-0.4-3.5-1.8-6.5-4.4-8.8c-2.7-2.4-5.8-3.3-9.4-2.7
	c-3.3,0.5-5.9,2.3-7.8,5c-2.4,3.5-3,7.4-2,11.5c0.6,2.7,2,5,4.1,6.8c2.3,2,5.1,2.8,8.1,2.6c3.9-0.2,6.9-1.9,9.1-5.1
	C288.4,58.3,289.1,55.7,289.1,52.8z"/>
<path d="M352.9,65.2c-0.1,0.1-0.2,0.2-0.3,0.3c-2.1,1.7-4.4,2.3-7.1,2.1c-4.8-0.5-8-3.2-10.1-7.4c-1.3-2.7-1.8-5.5-1.6-8.4
	c0.2-2.2,0.6-4.3,1.5-6.3c0-0.1,0-0.1,0.1-0.3c-0.2,0.1-0.3,0.2-0.3,0.3c-0.6,0.5-1.3,0.8-2.1,1.2c-1,0.4-2,0.9-3,1.3
	c-0.4,0.2-0.8,0.4-1.1,0.7c-1,0.7-1.4,1.6-1.4,2.8c0,3.7,0,7.3,0,11c0,0.7-0.1,1.4-0.4,2.1c-0.7,1.8-2.2,2.8-4.1,2.8
	c-1.9,0-3.5-1.1-4.1-2.9c-0.2-0.6-0.4-1.3-0.4-2c0-6.6,0-13.1,0-19.7c0-2.8,2.1-4.5,4.7-4.5c0.6,0,1.2,0.1,1.7,0.3
	c0.9,0.2,1.3,0.6,2.2,1.7c0.1-0.1,0.3-0.3,0.4-0.4c1.4-1.2,3-1.7,4.8-1.5c2.1,0.3,3.5,1.8,3.7,3.9c0,0.5,0,1.1,0.1,1.7
	c0.1-0.2,0.2-0.3,0.3-0.5c1.2-1.8,2.6-3.3,4.5-4.2c3.5-1.7,7.1-1.7,10.6,0c0.2,0.1,0.4,0.2,0.5,0.3c0,0,0,0,0.1,0c0-0.2,0-0.4,0-0.6
	c0-2.4,0-4.8,0-7.3c0-0.5,0-1.1,0.2-1.6c0.5-2.1,2.2-3.4,4.3-3.4c2.1,0,3.8,1.4,4.3,3.5c0.1,0.5,0.2,1,0.2,1.5c0,10.3,0,20.5,0,30.8
	c0,1-0.2,1.9-0.7,2.8c-0.8,1.3-2,2.1-3.5,2.2c-1.7,0.1-3.1-0.4-4.1-1.9C352.9,65.3,352.9,65.2,352.9,65.2z M354,43
	c-0.2,0-0.2,0-0.2,0c-0.4-0.3-0.8-0.7-1.2-1c-2.4-1.9-5-2.6-8-2.1c-2.9,0.5-5.2,2.1-6.7,4.6c-2.3,3.7-2.9,7.8-1.9,12.1
	c0.7,3,2.2,5.6,4.8,7.5c2,1.5,4.3,2.1,6.7,1.8c2.2-0.3,4.1-1.3,5.3-3.3c0.2-0.4,0.5-0.7,0.8-1.2c0.1,0.4,0.2,0.7,0.3,1
	c0.2,0.6,0.3,1.2,0.5,1.7c0.4,1.1,1.3,1.6,2.4,1.6c1.1,0,1.9-0.4,2.5-1.4c0.3-0.6,0.3-1.2,0.3-1.8c0-10.2,0-20.5,0-30.7
	c0-0.3,0-0.6,0-0.8c-0.1-1.2-1-2.2-2.2-2.4c-1.2-0.2-2.4,0.4-2.9,1.5c-0.2,0.6-0.3,1.1-0.3,1.8c0,3.5,0,7.1,0,10.6
	C354,42.5,354,42.7,354,43z M325.7,42.9c0-0.5-0.1-0.9-0.1-1.4c-0.1-0.8-0.6-1.3-1.3-1.5c-0.5-0.1-1.1-0.2-1.7-0.1
	c-1.5,0.1-2.5,1.2-2.5,2.6c0,6.7,0,13.3,0,20c0,0.4,0.1,0.9,0.3,1.3c0.4,1.1,1.2,1.6,2.4,1.7c1.1,0,2-0.5,2.5-1.5
	c0.3-0.6,0.4-1.2,0.4-1.9c0-3.6,0-7.2,0-10.9c0-1.8,0.8-3.2,2.3-4.2c1.2-0.8,2.5-1.4,3.9-1.9c0.6-0.2,1.1-0.5,1.7-0.7
	c0.4-0.2,0.8-0.6,0.8-1.1c0-0.3,0-0.7,0-1c-0.1-1.2-1-2.2-2.2-2.3c-1-0.1-2,0.1-2.9,0.6c-0.8,0.5-1.3,1.2-1.9,1.9
	c-0.1,0.2-0.3,0.4-0.5,0.4C326.5,43,326.1,42.9,325.7,42.9z"/>
<path d="M398.8,55.1c-0.1,0.4-0.2,0.8-0.2,1.2c-0.6,2.7-1.8,5.1-3.7,7.1c-2.3,2.4-5.1,3.8-8.5,4.1c-3.5,0.3-6.6-0.5-9.4-2.6
	c-2.7-2.1-4.4-4.8-5.2-8.2c-1.1-4.6-0.4-8.9,2.3-12.9c2.1-3.2,5.1-5.2,8.9-5.8c5-0.7,9.1,0.8,12.4,4.6c1.8,2.1,2.8,4.5,3.3,7.2
	c0,0.2,0.1,0.4,0.2,0.6c0-0.2,0-0.4,0-0.6c0-2.3,0-4.6,0-6.9c0-0.4,0-0.8,0.1-1.3c0.4-1.8,1.7-3.1,3.6-3.5c0.8-0.2,1.7-0.1,2.5,0.1
	c1,0.2,1.7,0.7,2.3,1.5c0,0.1,0.1,0.1,0.2,0.2c0.2-0.2,0.3-0.3,0.5-0.4c1.4-1.2,3-1.7,4.8-1.4c1.9,0.2,3.3,1.6,3.6,3.5
	c0.1,0.5,0.1,1,0.1,1.5c0,1.1-0.5,2-1.5,2.5c-0.5,0.3-1.1,0.5-1.6,0.8c-1.1,0.5-2.2,0.9-3.3,1.5c-0.5,0.2-0.9,0.6-1.3,0.9
	c-0.6,0.5-0.9,1.2-1,2c0,0.2,0,0.4,0,0.7c0,3.5,0,6.9,0,10.4c0,0.6-0.1,1.2-0.2,1.8c-0.5,2.1-2.2,3.4-4.3,3.4
	c-2.1,0-3.8-1.4-4.3-3.5c-0.1-0.5-0.2-1.1-0.2-1.7C398.8,59.8,398.8,57.5,398.8,55.1C398.8,55.2,398.8,55.1,398.8,55.1
	C398.8,55.1,398.8,55.1,398.8,55.1z M397.1,52.8c-0.1-0.7-0.1-1.5-0.2-2.2c-0.5-3.3-1.9-6-4.4-8.2c-2.7-2.3-5.8-3.2-9.2-2.6
	c-3.1,0.5-5.6,2-7.5,4.5c-2.7,3.6-3.5,7.6-2.5,12c0.6,2.7,1.9,5,4,6.8c2.6,2.2,5.6,3.1,9,2.7c3.4-0.3,6.1-1.9,8.1-4.6
	C396.3,58.7,397.1,55.9,397.1,52.8z M406.1,42.9c0-0.4,0-0.7,0-1c-0.1-1.1-0.5-1.6-1.5-1.8c-0.5-0.1-1-0.2-1.5-0.1
	c-1.5,0.2-2.4,1.2-2.4,2.7c0,6.6,0,13.1,0,19.7c0,0.5,0.1,1,0.3,1.5c0.4,1.1,1.3,1.6,2.4,1.6c1.1,0,2-0.5,2.5-1.5
	c0.3-0.6,0.4-1.2,0.4-1.8c0-3.7,0-7.3,0-11c0-0.5,0.1-1,0.2-1.4c0.3-1.3,1.2-2.3,2.4-3c1.3-0.8,2.7-1.4,4.2-1.9
	c0.4-0.1,0.7-0.3,1-0.5c0.6-0.3,0.9-0.8,0.9-1.5c0-0.2,0-0.4,0-0.6c-0.2-1.4-1-2.3-2.3-2.4c-1.2-0.1-2.2,0.2-3.2,0.9
	c-0.6,0.5-1.1,1.1-1.5,1.7c-0.1,0.2-0.3,0.4-0.6,0.4C406.9,42.9,406.5,42.9,406.1,42.9z"/>
<path d="M433.5,40.3c0.6-1,1.4-1.6,2.4-1.9c3-0.9,5.7,1,6,4.1c0,0.3,0,0.6,0,0.8c0,6.8,0,13.6,0,20.5c0,1.8-0.2,3.6-0.8,5.3
	c-1.3,3.9-3.9,6.5-7.7,7.8c-2.8,1-5.8,1.2-8.8,0.8c-1.9-0.3-3.7-0.7-5.5-1.4c-1.1-0.5-2.2-1-3.1-1.9c-1.5-1.5-1.6-3.4-0.3-5.1
	c0.3-0.3,0.6-0.6,0.9-0.9c0.8-0.7,1.8-0.9,2.9-0.7c0.9,0.2,1.8,0.5,2.6,0.8c1.3,0.5,2.5,1,3.8,1.2c1.3,0.2,2.6,0.2,3.9-0.2
	c1.8-0.6,2.8-1.9,3.1-3.7c0-0.1,0-0.1,0-0.2c-0.1,0-0.2,0-0.2,0.1c-1.6,1.2-3.4,1.7-5.3,1.9c-2.6,0.2-5.1-0.3-7.3-1.9
	c-2-1.3-3.3-3.2-4.2-5.3c-1.2-3-1.6-6.1-1.3-9.3c0.3-2.7,1.1-5.2,2.6-7.5c1.8-2.7,4.2-4.6,7.3-5.3c2.2-0.5,4.4-0.5,6.5,0.4
	c0.8,0.3,1.5,0.8,2.2,1.3C433.2,40.1,433.3,40.2,433.5,40.3z M434.1,44.1c-0.1,0-0.1,0-0.2,0c-0.3-0.4-0.5-0.8-0.8-1.2
	c-0.8-1.4-2-2.3-3.5-2.8c-3.1-1-6-0.3-8.6,1.6c-2.2,1.6-3.5,3.9-4.3,6.5c-0.8,2.5-0.9,5.1-0.5,7.8c0.3,1.9,0.9,3.7,1.9,5.3
	c1,1.7,2.3,3,4.1,3.8c1.5,0.7,3,0.9,4.6,0.8c2.5-0.1,4.6-0.9,6-3c0.1-0.1,0.2-0.3,0.4-0.3c0.4,0,0.9-0.1,1.4,0.1
	c0,1.1,0,2.3-0.1,3.4c-0.3,2.5-1.6,4.2-3.9,5.1c-1.7,0.7-3.5,0.6-5.3,0.3c-1.3-0.2-2.5-0.7-3.8-1.2c-0.8-0.3-1.6-0.6-2.4-0.8
	c-0.5-0.2-1,0-1.4,0.4c-0.3,0.3-0.6,0.6-0.8,0.9c-0.5,0.7-0.4,1.4,0.1,2.1c0.2,0.3,0.4,0.5,0.7,0.7c0.6,0.4,1.1,0.8,1.7,1
	c2.8,1.2,5.8,1.8,8.9,1.6c1.7-0.1,3.3-0.4,4.9-1c2.9-1.1,5-3.1,6.2-6.1c0.6-1.5,0.8-3.1,0.8-4.8c0-7.1,0-14.1,0-21.2
	c0-0.2,0-0.3,0-0.5c-0.1-0.4-0.1-0.8-0.3-1.2c-0.4-1-1.2-1.5-2.4-1.6c-1.1,0-2,0.4-2.5,1.5c-0.2,0.4-0.3,0.8-0.4,1.1
	C434.4,43.1,434.3,43.6,434.1,44.1z"/>
<path d="M216.6,56c0.2,0.7,0.5,1.2,0.9,1.7c0.8,0.9,1.8,1.4,3,1.6c1.6,0.4,3.1,0.2,4.6-0.4c0.9-0.4,1.7-0.9,2.5-1.3
	c0.6-0.3,1.2-0.6,1.8-0.8c1-0.4,1.9-0.2,2.8,0.3c1.7,0.9,3.1,3.5,1.2,6c-0.6,0.8-1.4,1.4-2.3,1.9c-2,1.2-4.1,1.9-6.4,2.3
	c-2.6,0.5-5.1,0.4-7.6-0.4c-4-1.2-7-3.7-8.6-7.6c-2.3-5.5-1.8-10.9,1.7-15.8c2-2.8,4.7-4.6,8.1-5.3c4.8-0.9,8.9,0.4,12.3,3.8
	c2.2,2.2,3.6,4.9,4.1,8c0.2,1,0.2,2,0.1,3c-0.3,1.6-1.3,2.7-2.9,2.9c-0.4,0.1-0.8,0.1-1.3,0.1c-4.4,0-8.8,0-13.3,0
	C217.1,56,216.9,56,216.6,56z M214.5,54.3c0.3,0,0.6,0,0.8,0c5.1,0,10.3,0,15.4,0c0.2,0,0.4,0,0.7,0c1-0.1,1.7-0.7,1.7-1.7
	c0-0.7,0-1.3-0.1-2c-0.5-3.3-2-6-4.6-8.1c-2.7-2.3-5.9-3.2-9.4-2.6c-3.7,0.6-6.4,2.7-8.2,5.9c-1.5,2.5-2.1,5.3-1.9,8.2
	c0.3,3.3,1.4,6.1,3.7,8.5c2.5,2.5,5.6,3.4,9,3.4c1.5,0,3-0.2,4.4-0.7c1.7-0.5,3.3-1.1,4.7-2.2c0.5-0.4,0.9-0.8,1.3-1.3
	c0.3-0.4,0.4-0.9,0.3-1.4c-0.3-1.5-1.7-2.2-3.1-1.5c-0.7,0.3-1.4,0.7-2.1,1.1c-2.1,1.1-4.3,1.7-6.7,1.3c-1.7-0.3-3.2-0.9-4.4-2.2
	C215.1,57.6,214.6,56.1,214.5,54.3z"/>
<path d="M207,46.9c0,5,0,10,0,15.1c0,0.7,0,1.4-0.2,2.1c-0.6,2-2.2,3.2-4.4,3.2c-2,0-3.7-1.3-4.2-3.3c-0.1-0.6-0.2-1.1-0.2-1.7
	c0-10.2,0-20.4,0-30.5c0-0.6,0.1-1.2,0.2-1.8c0.5-2,2.3-3.3,4.3-3.3c2.1,0,3.8,1.4,4.3,3.5c0.1,0.6,0.2,1.2,0.2,1.8
	C207,36.9,207,41.9,207,46.9z M205.2,46.9c0-5.1,0-10.3,0-15.4c0-0.4,0-0.8-0.1-1.1c-0.2-1.2-1.2-2-2.3-2.1
	c-1.3-0.1-2.3,0.5-2.7,1.6c-0.2,0.6-0.3,1.2-0.3,1.8c0,10.1,0,20.2,0,30.4c0,0.2,0,0.3,0,0.5c0,0.6,0.2,1.1,0.5,1.7
	c0.9,1.7,3.4,1.8,4.5,0.2c0.4-0.6,0.5-1.2,0.5-1.9C205.2,57.3,205.2,52.1,205.2,46.9z"/>
<path d="M362.6,62.7c0-2.7,2.2-4.8,4.9-4.7c2.6,0,4.7,2.2,4.7,4.8c0,2.7-2.2,4.8-4.9,4.8C364.7,67.5,362.6,65.3,362.6,62.7z
	 M367.4,65.8c1.7,0,3.1-1.4,3.1-3c0-1.6-1.4-3.1-3-3.1c-1.9,0-3.1,1.6-3.1,3C364.4,64.4,365.7,65.8,367.4,65.8z"/>
<path class="st0" d="M48,1.5c0.9-0.3,1.1-0.2,1.6,0.5c2.1,3.3,4.2,6.5,6.2,9.8c0.9,1.5,2.3,2.4,3.9,3c1.3,0.5,2.6,0.8,3.9,1
	c0.3,0,0.7,0.2,1,0.3c2.9,1,5.6,2.3,8.1,4.1c0.3,0.2,0.5,0.4,0.8,0.7c-0.3,0.3-0.6,0.3-0.9,0.4c-1.3,0.4-2.4,1.1-3.3,2.1
	c-1.9,2.3-1.3,5.5,1.5,6.9c2,1,4.1,1,6.1,0.1c0.4-0.2,0.7-0.4,1.1-0.6c0.1-0.1,0.3-0.1,0.4-0.2c0.1,0.5,0.1,0.9-0.1,1.3
	c-0.9,1.5-2.1,2.7-3.6,3.6c-1.7,1.1-3.5,1.8-5.4,2.4c-3,0.9-6.1,1.4-9.2,1.7c-0.7,0.1-1.4,0.2-2.1,0.3c-0.3,0.1-0.6,0.2-0.9,0.4
	c-0.5,0.4-0.5,0.9,0,1.3c0.3,0.2,0.7,0.5,1.1,0.6c2.3,0.9,4.7,1.5,7.2,1.5c0.1,0,0.2,0,0.4,0c0.2,0,0.3,0.1,0.5,0.2
	c-0.2,0.1-0.5,0.2-0.7,0.2c-2.1,0.5-4.2,0.8-6.3,0.9c-2.4,0.1-4.7-0.1-7-0.5c-0.2,0-0.3,0-0.6,0c-0.1,0.4-0.1,0.7-0.2,1.1
	c0.4,0.1,0.6,0.1,0.9,0.2c1.5,0.1,2.9,0.3,4.4,0.4c0.3,0,0.5,0.1,0.7,0.3c1.2,1.6,2.2,3.2,2.7,5.2c0.1,0.5,0,1,0,1.5
	c0,0.3-0.1,0.6-0.1,1c0.1,2.6,0.1,5.2,0.2,7.8c0,0.8,0,1.7,0.1,2.5c0.1,2.5,0.3,5.1,0.4,7.6c0,0.8,0.3,1.5,0.7,2.2
	c0.5,1.1,1.1,2.1,1.6,3.2c0.3,0.6,0.5,1.3,0.5,2c0,0.5-0.3,0.9-0.7,1.2c-0.2,0.1-0.4,0.2-0.6,0.2c-2.5,0.5-5,0.3-7.2-1.1
	c-0.7-0.4-1.2-1-1.6-1.7c-0.4-0.8-0.5-1.5-0.4-2.4c0.2-1.1,0.3-2.3,0.3-3.4c0.2-2.6,0.4-5.3,0.5-7.9c0.1-1.1,0.1-2.3,0.1-3.4
	c0-0.7-0.1-1.4-0.4-2.1c-0.1,0.2-0.2,0.3-0.3,0.5c-0.3,0.7-0.4,1.5-0.5,2.3c0,1.1-0.2,2.2-0.2,3.3c-0.1,1.5-0.1,2.9-0.2,4.4
	c-0.1,1.5-0.2,3.1-0.3,4.6c0,0.1-0.1,0.3-0.1,0.4c-0.2,0-0.3,0-0.4,0c-2.2,0-4.4,0-6.7,0c-0.1,0-0.1,0-0.2-0.1
	c-0.1-0.7-0.2-1.5-0.2-2.2c-0.1-1.9-0.2-3.9-0.3-5.8c-0.1-1.1-0.1-2.1-0.2-3.2c0-0.6,0-1.1,0-1.7c-0.1-0.7-0.3-1.3-0.5-2
	c0-0.1-0.1-0.3-0.2-0.5c-0.1,0.2-0.2,0.3-0.2,0.4c-0.1,0.8-0.3,1.5-0.3,2.3c0,2.6,0.1,5.3,0.3,7.9c0.1,1.8,0.2,3.5,0.4,5.3
	c0,0.6,0.1,1.3,0.1,1.9c0.1,0.8-0.2,1.4-0.7,2c-0.7,1-1.7,1.6-2.9,2c-1.7,0.5-3.4,0.6-5.1,0.3c-0.1,0-0.2,0-0.3-0.1
	c-1.1-0.3-1.5-0.9-1.3-2.1c0.2-1.1,0.7-2,1.1-3c0.1-0.2,0.2-0.4,0.3-0.5c0.9-1.6,1.3-3.3,1.3-5c0.1-2.6,0.2-5.3,0.4-7.9
	c0.1-1.8,0.2-3.6,0.2-5.4c0-0.9-0.2-1.8-0.3-2.7c0-0.3-0.1-0.6-0.4-0.8c-0.1-0.1-0.1-0.2-0.1-0.3c0.2-1.8,0.6-3.6,1.8-5.1
	c1.4-1.8,3.3-2.4,5.5-2.1c1.2,0.2,2.5,0.2,3.7,0c1-0.2,1.9-0.5,2.8-1.1c1.9-1.3,2.5-3.3,1.7-5.5c-0.4-1.1-0.8-2.2-1.2-3.3
	c-0.6-1.8-1.1-3.6-1.2-5.5c-0.2-2.9,0.6-5.5,2.7-7.5c0.7-0.7,1.4-1.4,2.1-2.2c0.3-0.4,0.6-0.8,0.9-1.2c0.7-1.2,0.7-2.6,0.4-3.9
	c-0.5-2-1.4-3.9-2.4-5.7c-1.3-2.5-2.7-4.9-4.2-7.3C48.2,1.8,48.1,1.7,48,1.5z"/>
<path class="st0" d="M35.5,42.5c-2.4,0-4.8-0.4-7-1.3c-2.3-1-4.1-2.5-5.4-4.7c-1-1.8-1.4-3.8-1.2-5.9c0.2-2.1,0.8-4,1.7-5.8
	c1.7-3.2,3-6.6,4.3-9.9c0.7-1.7,1.3-3.4,2.3-5c0.5-0.9,1.2-1.8,2.1-2.5c0.8-0.6,1.7-0.9,2.7-1c0.7-0.1,1.5,0,2.2,0.2
	c1.5,0.4,2.4,1.4,3.1,2.7c0.8,1.6,1.3,3.3,1.7,5c0.6,2.4,1.2,4.9,1.9,7.3c0.4,1.2,0.8,2.5,1.3,3.7c0.8,2.2,1.4,4.5,1.5,6.9
	c0.1,2.6-0.5,5.1-2.3,7.1c-1.1,1.2-2.5,2-4.1,2.6C38.8,42.3,37.4,42.5,35.5,42.5z M44.9,29.5c-0.2,0.2-0.3,0.3-0.4,0.4
	c-0.7,0.9-1.4,1.7-2.1,2.6c-1.5,1.8-3.2,3.4-5.3,4.6c-1.6,0.9-3.2,1.8-4.8,2.7c-0.2,0.1-0.4,0.2-0.5,0.3c0.2,0.1,0.4,0.2,0.5,0.2
	c0.7,0.1,1.3,0.1,2,0.1c1.9,0.1,3.7-0.1,5.5-0.7c1.6-0.6,2.9-1.5,3.8-2.9c1.4-2.1,1.6-4.4,1.4-6.8C45,29.8,45,29.7,44.9,29.5z"/>
<path class="st0" d="M32.7,68.2c0-0.2-0.1-0.4-0.1-0.5c-0.3-1.1-0.6-2.2-0.9-3.3c-0.1-0.3-0.2-0.6-0.4-0.8c-3.3-3.9-5.8-8.2-7.5-13
	c-0.6-1.5-1-3.1-1.1-4.7c0-0.4,0-0.8,0.1-1.2c0-0.3,0.2-0.6,0.5-0.6c0.3-0.1,0.7,0.1,0.8,0.4c0.2,0.4,0.5,0.8,0.6,1.3
	c0.4,1.2,0.7,2.3,1.1,3.5c0.9,2.9,2.4,5.5,4.5,7.7c0.1,0.1,0.2,0.2,0.4,0.3c0-0.3,0.1-0.4,0.1-0.6c0-2.2,0.2-4.4,0.6-6.6
	c0.3-2,0.9-3.9,1.6-5.8c0.2-0.6,0.3-0.6,0.8-0.5c1.7,0.1,3.4,0.1,5.1-0.2c1.8-0.4,3.6-1,5.1-2.2c2.2-1.7,3.4-3.9,3.8-6.6
	c0.4-2.6,0-5.1-0.7-7.6c-0.4-1.2-0.8-2.5-1.2-3.7c-0.9-2.7-1.6-5.4-2.3-8.1c-0.5-2-1-4-1.8-5.8c-0.4-1-1-1.9-1.7-2.6
	c-0.7-0.7-1.6-1.2-2.6-1.5c-0.2-0.1-0.4-0.1-0.6-0.2c0-0.3,0.3-0.4,0.4-0.5c2-1.5,4.2-2.5,6.6-2.9C45,1.5,46,1.4,47,1.3
	c0.2,0,0.4,0,0.6,0c0.2,0.3,0.3,0.7,0.5,0.9c1.5,2.5,3,4.9,4.3,7.5c0.9,1.7,1.7,3.4,2.2,5.2c0.5,1.8,0.1,3.4-1.1,4.8
	c-0.7,0.8-1.4,1.5-2.2,2.2c-1.8,1.8-2.7,4-2.7,6.5c0,2.2,0.5,4.4,1.1,6.5c0.4,1.2,0.8,2.4,1.3,3.5c0.5,1.2,0.5,2.4-0.1,3.6
	c-0.6,1.1-1.5,1.8-2.6,2.2c-1.6,0.7-3.3,0.7-5,0.4c-2.4-0.4-5.3,0.6-6.7,3.4c-0.6,1.3-1,2.7-1,4.1c0,0.1,0,0.3,0,0.4
	c0.3,0.4,0.1,0.8,0,1.1c-0.1,0.7-0.2,1.3-0.2,2c-0.1,2.1-0.2,4.2-0.2,6.2c0,1.3-0.1,2.6-0.1,3.8c-0.1,1.7-0.2,3.5-0.3,5.2
	c0,0.4-0.2,0.9-0.3,1.3c-0.6,1.4-1.2,2.7-1.8,4.1c-0.1,0.2-0.2,0.3-0.5,0.3c-0.8-0.1-1.6-0.1-2.4-0.3c-0.9-0.2-1.5-0.8-1.7-1.7
	c-0.2-1-0.1-1.9,0.4-2.7c0.8-1.7,2.1-2.8,3.8-3.5C32.2,68.4,32.4,68.3,32.7,68.2z M48.4,12c-1.1,0-2.1,0.2-2.8,0.9
	c-1.1,1-1,2.4,0.2,3.3c0.9,0.7,2,0.9,3.1,0.7c0.8-0.1,1.6-0.4,2.2-1c1-1,0.9-2.3-0.1-3.1C50.1,12.2,49.2,12,48.4,12z"/>
<path class="st0" d="M57.7,45.4c2.2-0.2,4.3-0.3,6.5-0.5c1.4,3.7,1.9,7.6,1.9,11.6c0,4-0.5,7.8-1.8,11.7c0.3,0.1,0.5,0.2,0.8,0.3
	c1.9,0.8,3.3,2.1,3.9,4.1c0.3,0.8,0.2,1.6,0.1,2.4c-0.1,0.7-0.6,1.2-1.3,1.4c-1,0.4-2,0.4-3,0.3c-0.1,0-0.3-0.1-0.3-0.3
	c-0.7-1.4-1.4-2.8-2-4.2c-0.3-0.6-0.3-1.3-0.4-1.9c-0.1-1.7-0.2-3.4-0.3-5.1c-0.1-2.8-0.2-5.5-0.2-8.3c0-0.9,0-1.7-0.1-2.6
	c-0.1-0.7-0.4-1.3-0.5-2c0-0.2-0.2-0.3-0.2-0.5c0-1.2-0.5-2.3-1-3.4c-0.5-0.9-1.1-1.7-1.6-2.6C57.9,45.7,57.8,45.6,57.7,45.4z"/>
<path class="st0" d="M63.4,14c0.2,0.5,0.3,0.9,0.5,1.4c-0.2,0-0.3,0-0.4,0c-1.9-0.4-3.8-0.9-5.5-1.9c-0.6-0.4-1.1-0.8-1.5-1.4
	c-1.5-2.3-3.1-4.6-4.6-6.9c-0.7-1.1-1.4-2.3-2.1-3.4c-0.1-0.1-0.1-0.2-0.2-0.4c2.5,0.3,4.7,1.1,6.7,2.4c2.4,1.6,4.2,3.8,5.5,6.4
	c-0.3,0-0.5,0.1-0.7,0.1c-0.7,0.1-1.3,0.3-1.8,0.8c-0.9,0.8-0.8,1.9,0,2.7c0.9,0.8,2.5,1,3.6,0.4C63.1,14.2,63.2,14.1,63.4,14z"/>
<path class="st0" d="M76.6,35.7c0.7,0.6,1.2,1.3,1.5,2.2c0.3,1.1,0.3,2.3-0.2,3.3c-0.5,1.2-1.4,1.9-2.8,2c-0.7,0-1.3-0.2-1.7-0.7
	c-0.4-0.4-0.7-0.9-1.1-1.3c-0.5-0.7-1.1-1.4-1.6-2.1c0-0.1-0.1-0.1-0.2-0.2c0.2-0.1,0.3-0.1,0.5-0.2c1-0.4,2.1-0.7,3.1-1.1
	c0.7-0.3,1.3-0.9,1.9-1.3C76.2,36,76.3,35.9,76.6,35.7z M76.7,41.9c0-1.3-1.2-3.5-2.4-4C75.3,39.1,76.3,40.3,76.7,41.9z"/>
<path class="st0" d="M76.5,21.9c0.2,0,0.5,0.1,0.7,0.1c0.5,0.2,0.6,0.4,0.3,0.8c-0.2,0.2-0.3,0.5-0.6,0.6c-1.6,1.2-3.4,1.9-5.4,2
	c-0.3,0-0.6,0-0.8-0.1c-0.4-0.1-0.6-0.5-0.3-0.8c0.2-0.3,0.4-0.5,0.7-0.7c1.3-1,2.7-1.5,4.3-1.8C75.7,22,76.1,22,76.5,21.9z"/>
<path class="st0" d="M60.4,12.6c-0.4,0-0.8-0.3-0.8-0.7c0-0.4,0.4-0.7,0.8-0.6c0.4,0,0.8,0.3,0.8,0.7C61.2,12.3,60.8,12.6,60.4,12.6
	z"/>
<path class="st0" d="M442.3,30.1c0-2.1,1-3.7,2.7-4.8c2.5-1.8,6.2-1.4,8.3,0.9c2.2,2.4,2.1,5.8-0.2,8.1c-2.6,2.6-7.1,2.4-9.4-0.4
	C442.7,32.8,442.2,31.6,442.3,30.1z M451.4,34.1c-0.1-0.5-0.3-1-0.4-1.5c-0.2-0.9-0.4-1.8-1.3-2.3c0.2-0.1,0.2-0.2,0.3-0.2
	c0.8-0.5,1.2-1.2,1.1-2.1c-0.1-1-0.8-1.5-1.7-1.8c-0.9-0.2-1.9-0.2-2.8-0.1c-0.6,0-0.7,0.1-0.7,0.7c0,2.2,0,4.4,0,6.6
	c0,0.2,0,0.4,0,0.6c0.4,0,0.7,0,1,0c0.1-1.1,0-2.3,0.1-3.4c0.3,0,0.5,0,0.7,0c1.2,0,1.7,0.4,1.9,1.5c0.1,0.4,0.2,0.9,0.3,1.3
	c0.2,0.6,0.2,0.6,0.8,0.6C451,34.2,451.2,34.1,451.4,34.1z"/>
<path class="st0" d="M190.2,62.4c-0.4,0-0.8,0-1.2,0c-0.1,0-0.3,0.2-0.4,0.3c-1.5,2.1-3.5,2.9-6,3.1c-1.6,0.1-3.2-0.2-4.7-0.8
	c-1.9-0.9-3.3-2.3-4.3-4.1c-1.2-2.1-1.7-4.5-1.8-6.9c-0.1-1.9,0.1-3.8,0.6-5.7c0.6-2.1,1.7-4,3.2-5.6c2.1-2.1,4.6-3.1,7.5-3
	c1.9,0.1,3.7,0.7,5,2.2c0.5,0.5,0.8,1.1,1.2,1.7c0.1,0.2,0.3,0.4,0.5,0.7c0.1-0.5,0.2-0.8,0.3-1.1c0.1-0.5,0.2-1,0.4-1.4
	c0.5-1.3,1.6-1.9,3-1.7c1.2,0.2,2.2,1.2,2.3,2.5c0,0.2,0,0.4,0,0.6c0,7.2,0,14.4,0,21.6c0,1.9-0.4,3.8-1.3,5.5
	c-1.1,2.2-2.9,3.8-5.1,4.8c-1.7,0.8-3.6,1.1-5.5,1.2c-2.8,0.2-5.5-0.4-8.1-1.3c-1-0.4-2-0.9-2.8-1.7c-0.5-0.5-0.9-1.2-0.6-1.9
	c0.3-0.9,0.8-1.6,1.8-1.8c0.4-0.1,1,0,1.4,0.2c1.1,0.4,2.2,0.8,3.3,1.2c2,0.7,4,1,6.1,0.7c2-0.4,3.6-1.3,4.6-3.1
	c0.5-0.9,0.7-1.9,0.8-2.9c0-0.9,0-1.8,0-2.6C190.3,62.7,190.3,62.6,190.2,62.4z M177.3,52.6c0,1.9,0.3,3.5,1.1,5
	c1.5,2.8,4.2,3.9,7.2,3c1.9-0.6,3.2-1.9,3.9-3.8c1.2-3.1,1-6.1-0.5-9c-1.1-2.1-2.9-3.3-5.3-3.3c-2.4,0-4.1,1.2-5.3,3.3
	C177.6,49.4,177.2,51,177.3,52.6z"/>
<path class="st0" d="M97,61.4c-0.1,0.5-0.3,1-0.4,1.5c0,0.2-0.1,0.4-0.1,0.6c-0.4,1.5-1.5,2.2-3,2c-1.4-0.2-2.4-1.2-2.4-2.7
	c0-0.1,0-0.3,0-0.4c0-10.3,0-20.7,0-31c0-0.7,0.1-1.4,0.6-2c0.6-0.9,1.5-1.2,2.5-1.1c1,0.1,1.7,0.7,2.1,1.6c0.2,0.6,0.3,1.2,0.3,1.8
	c0,3.5,0,7,0,10.6c0,0.2,0,0.4,0,0.7c0.2-0.1,0.3-0.1,0.4-0.2c0.4-0.3,0.8-0.7,1.2-1c3.5-2.9,8.9-2.9,12.4,0.1
	c1.8,1.6,3,3.6,3.7,5.9c0.8,2.4,0.9,4.9,0.6,7.3c-0.3,2.6-1.3,5-3,7c-1.7,2-3.8,3.3-6.4,3.6c-2,0.3-3.9,0-5.6-1.1
	c-0.7-0.5-1.3-1.1-1.8-1.8c-0.3-0.5-0.6-1-0.9-1.5C97.1,61.3,97,61.4,97,61.4z M109.5,52.8c0-2-0.6-4-1.5-5.4
	c-1.6-2.6-4.6-3.5-7.4-2.4c-1.6,0.7-2.7,1.9-3.3,3.5c-1.1,2.7-1,5.3-0.1,8c0.4,1,0.9,2,1.7,2.8c2.3,2.3,6.5,2.2,8.7-0.7
	C109,56.9,109.5,54.9,109.5,52.8z"/>
<path class="st0" d="M162.8,61.5c-0.3,0.3-0.5,0.6-0.7,0.8c-0.6,0.6-1.2,1.3-1.9,1.9c-1.5,1.2-3.2,1.6-5,1.6c-2.5-0.1-4.7-1-6.6-2.7
	c-1.4-1.2-2.4-2.7-3-4.5c-1.5-3.9-1.5-7.9,0.1-11.8c1.1-2.8,3-5,5.7-6.3c2.5-1.2,5-1.4,7.5-0.3c1.1,0.5,2,1.2,2.7,2.1
	c0.4,0.5,0.7,0.9,1,1.4c0.1,0.1,0.2,0.2,0.4,0.4c0.1-0.4,0.1-0.8,0.2-1.1c0-0.3,0.1-0.6,0.1-0.9c0-1.3,1.4-2.7,3.3-2.3
	c1.1,0.2,1.6,0.8,1.7,1.9c0.1,0.6,0.1,1.2,0.1,1.9c0,6.2,0,12.4,0,18.5c0,0.6-0.1,1.2-0.2,1.8c-0.2,0.8-0.8,1.2-1.5,1.4
	c-0.3,0.1-0.6,0.1-0.8,0.1c-1.2,0-1.9-0.5-2.3-1.6c-0.2-0.6-0.4-1.3-0.6-1.9C162.9,61.9,162.9,61.8,162.8,61.5z M163,52.8
	c0-2-0.4-3.8-1.5-5.5c-1.6-2.5-4.5-3.4-7.2-2.3c-1.6,0.7-2.7,1.9-3.4,3.5c-0.7,1.5-0.9,3.2-0.9,4.9c0.1,1.9,0.6,3.6,1.7,5.2
	c2.3,3.1,7.3,3.3,9.7-0.2C162.5,56.6,162.9,54.8,163,52.8z"/>
<path class="st0" d="M123.1,54.3c0.1,1.8,0.6,3.4,1.8,4.6c1.2,1.3,2.7,1.9,4.4,2.2c2.4,0.4,4.6-0.2,6.7-1.3c0.7-0.4,1.4-0.8,2.1-1.1
	c1.4-0.7,2.8,0,3.1,1.5c0.1,0.6,0,1.1-0.4,1.5c-0.5,0.8-1.2,1.3-2,1.8c-2,1.2-4.1,1.9-6.4,2.2c-2,0.3-4,0.2-5.9-0.4
	c-3.9-1.1-6.5-3.6-8-7.4c-0.6-1.6-0.9-3.3-0.9-5c0-3.8,1.2-7.2,3.9-9.9c2.4-2.4,5.4-3.6,8.8-3.4c2.6,0.1,4.9,1.1,6.9,2.8
	c2.5,2.2,4.1,4.9,4.5,8.1c0.1,0.6,0.1,1.3,0.1,2c-0.1,1.1-0.7,1.6-1.7,1.7c-0.2,0-0.4,0-0.7,0c-5.1,0-10.3,0-15.4,0
	C123.7,54.3,123.4,54.3,123.1,54.3z M136.3,51.1c-0.1-1.3-0.3-2.4-0.9-3.6c-1.9-4-6.7-4.3-9.3-2.6c-1.6,1-2.5,2.5-2.9,4.3
	c-0.2,0.6-0.3,1.2-0.2,1.9C123.5,51.2,135.7,51.2,136.3,51.1z"/>
<path class="st0" d="M243.4,43c0.3-0.3,0.7-0.5,1-0.8c2-1.8,4.3-2.6,7-2.5c2.5,0.1,4.6,1,6.4,2.7c1.8,1.7,2.8,3.9,3.4,6.2
	c0.8,2.9,0.8,5.8,0,8.7c-0.7,2.4-2,4.5-3.9,6.2c-1.7,1.4-3.7,2.2-6,2.3c-1.5,0.1-3-0.2-4.3-1c-0.9-0.5-1.7-1.2-2.2-2.1
	c-0.3-0.5-0.6-0.9-0.8-1.4c0,0-0.1,0-0.1,0c0,0.2-0.1,0.3-0.1,0.5c-0.2,0.6-0.3,1.3-0.5,1.9c-0.6,1.7-2.4,2.3-4,1.5
	c-0.7-0.4-1.1-1-1.3-1.8c-0.1-0.4-0.1-0.8-0.1-1.2c0-10.1,0-20.3,0-30.4c0-0.6,0.1-1.2,0.3-1.8c0.5-1.1,1.4-1.6,2.7-1.6
	c1,0.1,2,0.8,2.3,1.8c0.2,0.5,0.2,1.1,0.2,1.7c0,3.5,0,7,0,10.4c0,0.2,0,0.4,0,0.6C243.3,42.9,243.3,43,243.4,43z M256.2,53.1
	c0-1.9-0.3-3.4-1-4.8c-1.4-3-4.1-4.3-7.1-3.6c-1.9,0.5-3.2,1.8-4,3.5c-0.7,1.5-0.9,3.1-0.9,4.7c0.1,1.8,0.5,3.6,1.5,5.2
	c2.2,3.6,7.3,3.6,9.7,0.4C255.7,56.8,256.2,54.9,256.2,53.1z"/>
<path class="st0" d="M310.7,61.5c-0.2,0.3-0.4,0.4-0.5,0.6c-0.6,0.6-1.1,1.3-1.7,1.8c-1.6,1.4-3.4,2-5.5,1.9c-3-0.2-5.4-1.4-7.3-3.6
	c-1.5-1.7-2.4-3.7-2.9-6c-0.7-3.4-0.4-6.7,1-9.8c1.3-2.9,3.4-5.1,6.4-6.2c2.4-0.9,4.9-0.9,7.2,0.3c0.9,0.5,1.7,1.2,2.3,2
	c0.4,0.5,0.8,1.1,1.2,1.7c0.1-0.3,0.1-0.5,0.2-0.7c0.1-0.4,0.1-0.9,0.1-1.3c0.2-2.1,2.4-2.9,4.1-2.1c0.6,0.3,0.9,0.8,1,1.4
	c0.1,0.5,0.2,1.1,0.2,1.6c0,6.3,0,12.7,0,19c0,0.5-0.1,1.1-0.1,1.6c-0.1,0.9-0.7,1.4-1.6,1.6c-0.1,0-0.2,0-0.2,0
	c-1.6,0.2-2.6-0.3-3.1-1.9C311.1,63,310.9,62.3,310.7,61.5z M304.5,61c0.6-0.1,1.2-0.1,1.8-0.3c1.8-0.6,3-1.8,3.7-3.5
	c0.9-1.9,1.1-4,0.8-6.1c-0.2-1.5-0.7-2.9-1.6-4.1c-1.1-1.5-2.6-2.4-4.5-2.4c-2.5,0-4.4,1.1-5.5,3.3c-1.1,2-1.4,4.2-1.1,6.5
	c0.2,1.3,0.6,2.5,1.3,3.6C300.5,59.9,302.2,60.9,304.5,61z"/>
<path class="st0" d="M289.1,52.8c0.1,2.9-0.7,5.5-2.3,7.9c-2.2,3.2-5.2,4.9-9.1,5.1c-3,0.1-5.8-0.7-8.1-2.6
	c-2.1-1.8-3.5-4.1-4.1-6.8c-1-4.1-0.4-8,2-11.5c1.9-2.8,4.5-4.5,7.8-5c3.5-0.5,6.7,0.4,9.4,2.7c2.6,2.3,4,5.3,4.4,8.8
	C289.1,51.8,289.1,52.3,289.1,52.8z M270.5,52.5c0,2.1,0.4,3.8,1.3,5.4c2.1,3.6,6.4,3.7,8.8,1.8c1.2-0.9,1.9-2.1,2.4-3.4
	c0.6-1.7,0.7-3.4,0.5-5.1c-0.2-1.4-0.6-2.7-1.4-3.9c-1.2-1.8-2.8-2.7-4.9-2.7c-2.4,0-4.1,1-5.4,3C270.9,49.1,270.5,50.9,270.5,52.5z
	"/>
<path class="st0" d="M354,43c0-0.3,0-0.5,0-0.8c0-3.5,0-7.1,0-10.6c0-0.6,0.1-1.2,0.3-1.8c0.5-1.1,1.7-1.7,2.9-1.5
	c1.2,0.2,2.1,1.2,2.2,2.4c0,0.3,0,0.6,0,0.8c0,10.2,0,20.5,0,30.7c0,0.6,0,1.2-0.3,1.8c-0.5,1-1.4,1.4-2.5,1.4c-1.1,0-2-0.5-2.4-1.6
	c-0.2-0.6-0.3-1.2-0.5-1.7c-0.1-0.3-0.2-0.6-0.3-1c-0.3,0.5-0.6,0.8-0.8,1.2c-1.1,2.1-3,3.1-5.3,3.3c-2.5,0.3-4.7-0.3-6.7-1.8
	c-2.6-1.9-4.1-4.4-4.8-7.5c-1-4.3-0.4-8.3,1.9-12.1c1.5-2.5,3.7-4.2,6.7-4.6c3-0.5,5.7,0.2,8,2.1c0.4,0.3,0.8,0.7,1.2,1
	C353.8,43,353.8,43,354,43z M341,52.1c0,2.5,0.4,4.2,1.4,5.8c1.5,2.5,3.9,3.5,6.7,2.8c1.7-0.4,2.9-1.6,3.8-3.1
	c1-1.8,1.3-3.8,1.2-5.9c-0.1-1.3-0.4-2.6-1.1-3.8c-0.9-1.6-2.2-2.8-4-3.2c-2.4-0.5-4.4,0.1-6,2.1C341.5,48.5,341,50.6,341,52.1z"/>
<path class="st0" d="M325.7,42.9c0.4,0,0.8,0,1.2,0c0.2,0,0.4-0.2,0.5-0.4c0.5-0.7,1.1-1.4,1.9-1.9c0.9-0.6,1.9-0.7,2.9-0.6
	c1.2,0.1,2.1,1.1,2.2,2.3c0,0.3,0,0.7,0,1c0,0.5-0.3,0.9-0.8,1.1c-0.6,0.3-1.1,0.5-1.7,0.7c-1.3,0.5-2.7,1.1-3.9,1.9
	c-1.5,1-2.3,2.4-2.3,4.2c0,3.6,0,7.2,0,10.9c0,0.6-0.1,1.3-0.4,1.9c-0.5,1-1.3,1.5-2.5,1.5c-1.2,0-2-0.6-2.4-1.7
	c-0.2-0.4-0.3-0.9-0.3-1.3c0-6.7,0-13.3,0-20c0-1.4,1-2.5,2.5-2.6c0.5,0,1.1,0,1.7,0.1c0.8,0.2,1.2,0.7,1.3,1.5
	C325.6,42,325.6,42.4,325.7,42.9z"/>
<path class="st0" d="M397.1,52.8c0,3.1-0.9,5.8-2.7,8.3c-2,2.7-4.7,4.3-8.1,4.6c-3.4,0.3-6.4-0.5-9-2.7c-2.1-1.8-3.4-4.1-4-6.8
	c-1-4.4-0.2-8.4,2.5-12c1.9-2.5,4.4-4,7.5-4.5c3.5-0.5,6.6,0.4,9.2,2.6c2.5,2.2,3.9,4.9,4.4,8.2C397.1,51.3,397.1,52.1,397.1,52.8z
	 M378.5,52.8c0,1.4,0.2,2.7,0.7,3.9c1.1,2.7,3.3,4.4,6.1,4.2c2.4-0.1,4.1-1.3,5.2-3.3c1.7-3.3,1.6-6.6-0.1-9.8
	c-1.1-2.1-2.9-3.2-5.2-3.2c-2.5,0-4.3,1.2-5.5,3.3C378.8,49.4,378.5,51,378.5,52.8z"/>
<path class="st0" d="M406.1,42.9c0.4,0,0.8,0,1.1,0c0.3,0,0.4-0.2,0.6-0.4c0.4-0.6,0.9-1.2,1.5-1.7c0.9-0.7,2-1,3.2-0.9
	c1.2,0.1,2.1,1.1,2.3,2.4c0,0.2,0,0.4,0,0.6c0,0.7-0.3,1.2-0.9,1.5c-0.3,0.2-0.7,0.3-1,0.5c-1.4,0.6-2.9,1.1-4.2,1.9
	c-1.1,0.7-2,1.6-2.4,3c-0.1,0.5-0.2,0.9-0.2,1.4c0,3.7,0,7.3,0,11c0,0.6-0.1,1.2-0.4,1.8c-0.5,1-1.4,1.5-2.5,1.5
	c-1.1,0-2-0.6-2.4-1.6c-0.2-0.5-0.3-1-0.3-1.5c0-6.6,0-13.1,0-19.7c0-1.5,0.9-2.6,2.4-2.7c0.5-0.1,1,0,1.5,0.1
	c1,0.2,1.5,0.8,1.5,1.8C406.1,42.2,406.1,42.5,406.1,42.9z"/>
<path class="st0" d="M434.1,44.1c0.1-0.5,0.2-1,0.4-1.6c0.1-0.4,0.2-0.8,0.4-1.1c0.5-1.1,1.4-1.5,2.5-1.5c1.1,0,1.9,0.6,2.4,1.6
	c0.2,0.4,0.2,0.8,0.3,1.2c0,0.2,0,0.3,0,0.5c0,7.1,0,14.1,0,21.2c0,1.6-0.2,3.2-0.8,4.8c-1.1,3-3.2,4.9-6.2,6.1
	c-1.6,0.6-3.2,0.9-4.9,1c-3.1,0.2-6-0.4-8.9-1.6c-0.6-0.3-1.2-0.7-1.7-1c-0.3-0.2-0.5-0.4-0.7-0.7c-0.5-0.7-0.5-1.4-0.1-2.1
	c0.2-0.3,0.5-0.7,0.8-0.9c0.4-0.4,0.9-0.5,1.4-0.4c0.8,0.3,1.6,0.5,2.4,0.8c1.2,0.5,2.5,0.9,3.8,1.2c1.8,0.3,3.5,0.4,5.3-0.3
	c2.3-0.9,3.7-2.6,3.9-5.1c0.1-1.1,0.1-2.3,0.1-3.4c-0.5-0.2-0.9-0.1-1.4-0.1c-0.1,0-0.3,0.2-0.4,0.3c-1.5,2.1-3.5,2.9-6,3
	c-1.6,0.1-3.1-0.1-4.6-0.8c-1.8-0.8-3.1-2.1-4.1-3.8c-1-1.6-1.5-3.4-1.9-5.3c-0.4-2.6-0.3-5.2,0.5-7.8c0.8-2.6,2.1-4.8,4.3-6.5
	c2.6-1.9,5.5-2.6,8.6-1.6c1.5,0.5,2.7,1.4,3.5,2.8c0.2,0.4,0.5,0.8,0.8,1.2C434,44.1,434.1,44.1,434.1,44.1z M428.1,60.9
	c1.1,0,1.9-0.2,2.7-0.6c1.6-0.8,2.5-2,3.2-3.6c0.7-1.8,0.8-3.7,0.5-5.7c-0.2-1.3-0.6-2.6-1.3-3.7c-1.7-2.7-5-3.6-7.8-2.1
	c-1.4,0.7-2.3,1.9-2.9,3.4c-0.8,1.9-1,3.9-0.7,6c0.2,1.2,0.6,2.4,1.2,3.4C424.1,59.9,425.8,60.9,428.1,60.9z"/>
<path class="st0" d="M214.5,54.3c0.1,1.8,0.6,3.4,1.8,4.6c1.2,1.3,2.7,1.9,4.4,2.2c2.4,0.4,4.6-0.2,6.7-1.3c0.7-0.4,1.4-0.8,2.1-1.1
	c1.4-0.7,2.8,0,3.1,1.5c0.1,0.5,0,1-0.3,1.4c-0.3,0.5-0.8,1-1.3,1.3c-1.4,1.1-3.1,1.7-4.7,2.2c-1.4,0.4-2.9,0.7-4.4,0.7
	c-3.4,0-6.5-1-9-3.4c-2.4-2.3-3.5-5.2-3.7-8.5c-0.2-2.9,0.4-5.7,1.9-8.2c1.9-3.2,4.5-5.2,8.2-5.9c3.5-0.6,6.7,0.3,9.4,2.6
	c2.5,2.1,4.1,4.9,4.6,8.1c0.1,0.6,0.1,1.3,0.1,2c-0.1,1-0.7,1.6-1.7,1.7c-0.2,0-0.4,0-0.7,0c-5.1,0-10.3,0-15.4,0
	C215.1,54.3,214.9,54.3,214.5,54.3z M214.4,51c0.1,0.1,0.1,0.1,0.2,0.1c0.1,0,0.2,0,0.2,0c4.2,0,8.4,0,12.5,0c0.1,0,0.2,0,0.3,0
	c0,0,0,0,0,0c0,0,0,0,0.1-0.1c-0.1-1.2-0.3-2.4-0.9-3.6c-1.9-3.9-6.6-4.3-9.3-2.5c-1.7,1.1-2.6,2.8-3,4.8
	C214.5,50.2,214.4,50.6,214.4,51z"/>
<path class="st0" d="M205.2,46.9c0,5.2,0,10.4,0,15.5c0,0.7-0.1,1.4-0.5,1.9c-1.1,1.6-3.5,1.5-4.5-0.2c-0.3-0.5-0.4-1.1-0.5-1.7
	c0-0.2,0-0.3,0-0.5c0-10.1,0-20.2,0-30.4c0-0.6,0.1-1.2,0.3-1.8c0.5-1.1,1.5-1.7,2.7-1.6c1.1,0.1,2,0.9,2.3,2.1
	c0.1,0.4,0.1,0.7,0.1,1.1C205.2,36.6,205.2,41.8,205.2,46.9z"/>
<path class="st0" d="M367.4,65.8c-1.7,0-3-1.4-3-3.1c0-1.5,1.2-3,3.1-3c1.7,0,3.1,1.4,3,3.1C370.4,64.4,369,65.8,367.4,65.8z"/>
<path d="M44.9,29.5c0.1,0.2,0.1,0.3,0.1,0.4c0.2,2.4,0,4.7-1.4,6.8c-0.9,1.4-2.3,2.4-3.8,2.9c-1.8,0.6-3.6,0.8-5.5,0.7
	c-0.7,0-1.3-0.1-2-0.1c-0.2,0-0.3-0.1-0.5-0.2c0.2-0.1,0.4-0.2,0.5-0.3c1.6-0.9,3.2-1.8,4.8-2.7c2.1-1.2,3.8-2.8,5.3-4.6
	c0.7-0.8,1.4-1.7,2.1-2.6C44.6,29.8,44.8,29.7,44.9,29.5z"/>
<path d="M48.4,12c0.8,0,1.7,0.2,2.4,0.8C51.9,13.7,52,15,51,16c-0.6,0.6-1.3,0.9-2.2,1c-1.1,0.1-2.2-0.1-3.1-0.7
	c-1.2-0.9-1.2-2.3-0.2-3.3C46.4,12.2,47.3,12,48.4,12z M47.2,14.3c0.5,0,0.9-0.3,0.9-0.7c0-0.4-0.4-0.7-0.9-0.7
	c-0.5,0-0.9,0.3-1,0.7C46.2,14,46.6,14.3,47.2,14.3z"/>
<path d="M76.7,41.9c-0.4-1.5-1.4-2.7-2.4-4C75.5,38.3,76.8,40.5,76.7,41.9z"/>
<path d="M451.4,34.1c-0.2,0-0.4,0-0.5,0c-0.6,0-0.6,0-0.8-0.6c-0.1-0.4-0.2-0.9-0.3-1.3c-0.3-1.1-0.8-1.5-1.9-1.5
	c-0.2,0-0.4,0-0.7,0c-0.1,1.2,0,2.3-0.1,3.4c-0.3,0-0.7,0-1,0c0-0.2,0-0.4,0-0.6c0-2.2,0-4.4,0-6.6c0-0.6,0-0.7,0.7-0.7
	c0.9-0.1,1.9-0.2,2.8,0.1c0.9,0.2,1.6,0.8,1.7,1.8c0.1,0.9-0.3,1.6-1.1,2.1c-0.1,0-0.2,0.1-0.3,0.2c0.9,0.5,1.1,1.4,1.3,2.3
	C451.1,33.1,451.2,33.6,451.4,34.1z M447.1,29.9c0.6,0,1.1,0,1.6,0c0.3,0,0.5-0.2,0.7-0.4c0.7-0.6,0.7-1.8-0.2-2.2
	c-0.7-0.4-1.4-0.3-2.2-0.2C447.1,28,447.1,28.9,447.1,29.9z"/>
<path d="M177.3,52.6c-0.1-1.6,0.3-3.3,1.2-4.8c1.2-2.1,2.9-3.3,5.3-3.3c2.4,0,4.2,1.2,5.3,3.3c1.5,2.9,1.7,6,0.5,9
	c-0.7,1.8-2,3.2-3.9,3.8c-3,0.8-5.7-0.2-7.2-3C177.6,56.1,177.3,54.5,177.3,52.6z M188.6,52.9c-0.1-0.6-0.1-1.3-0.2-1.9
	c-0.2-1.3-0.7-2.4-1.5-3.4c-1.5-1.7-4.3-1.9-5.9-0.2c-0.4,0.4-0.7,0.9-1,1.4c-0.9,1.8-1.1,3.8-0.7,5.8c0.2,1.1,0.6,2,1.2,2.9
	c1,1.3,2.4,1.8,4.1,1.6c1.6-0.2,2.6-1.2,3.2-2.6C188.3,55.4,188.6,54.2,188.6,52.9z"/>
<path d="M109.5,52.8c0,2.1-0.6,4.1-1.9,5.8c-2.2,2.9-6.4,3-8.7,0.7c-0.8-0.8-1.4-1.7-1.7-2.8c-1-2.7-1-5.4,0.1-8
	c0.7-1.6,1.7-2.8,3.3-3.5c2.8-1.2,5.7-0.2,7.4,2.4C108.9,48.7,109.6,50.7,109.5,52.8z M107.8,52.5c0-0.3-0.1-0.9-0.2-1.5
	c-0.3-1.3-0.8-2.5-1.7-3.5c-1.6-1.7-4.3-1.5-5.7-0.1c-0.7,0.6-1.1,1.4-1.4,2.3c-0.5,1.6-0.6,3.2-0.3,4.8c0.2,1.2,0.6,2.3,1.4,3.2
	c1.1,1.3,2.6,1.8,4.3,1.4c1.1-0.3,1.8-0.9,2.4-1.8C107.4,55.9,107.8,54.4,107.8,52.5z"/>
<path d="M163,52.8c0,1.9-0.5,3.8-1.6,5.5c-2.3,3.5-7.4,3.4-9.7,0.2c-1.1-1.6-1.6-3.3-1.7-5.2c-0.1-1.7,0.2-3.3,0.9-4.9
	c0.7-1.6,1.8-2.8,3.4-3.5c2.7-1.1,5.6-0.1,7.2,2.3C162.6,49,163,50.8,163,52.8z M151.7,52.9c0,0.2,0,0.6,0.1,1
	c0.2,1.5,0.6,2.8,1.7,3.9c1.7,1.9,4.7,1.8,6.3-0.2c0.2-0.3,0.4-0.6,0.6-1c0.9-1.8,1.1-3.7,0.8-5.7c-0.2-1.2-0.7-2.4-1.5-3.4
	c-1.1-1.2-2.4-1.6-4-1.3c-1.3,0.3-2.2,1.1-2.8,2.2C152,49.8,151.7,51.2,151.7,52.9z"/>
<path d="M136.3,51.1c-0.6,0.1-12.8,0.1-13.3,0c-0.1-0.6,0.1-1.3,0.2-1.9c0.4-1.8,1.3-3.2,2.9-4.3c2.7-1.8,7.4-1.4,9.3,2.6
	C136,48.6,136.2,49.8,136.3,51.1z M134.2,49.4c-0.2-2.3-2.6-3.9-5.2-3.7c-1.9,0.2-4.1,2.2-3.9,3.7C128.1,49.4,131.2,49.4,134.2,49.4
	z"/>
<path d="M256.2,53.1c0,1.8-0.5,3.7-1.8,5.5c-2.4,3.2-7.4,3.2-9.7-0.4c-1-1.6-1.4-3.3-1.5-5.2c-0.1-1.6,0.2-3.2,0.9-4.7
	c0.8-1.7,2.1-3,4-3.5c3-0.8,5.7,0.6,7.1,3.6C255.9,49.7,256.2,51.2,256.2,53.1z M254.5,52.6c0-0.3-0.1-0.8-0.1-1.2
	c-0.2-1.5-0.7-2.8-1.8-3.9c-1.6-1.6-4.2-1.6-5.8-0.1c-0.7,0.7-1.1,1.5-1.4,2.3c-0.6,1.7-0.6,3.4-0.2,5.1c0.3,1.1,0.7,2.1,1.5,3
	c1.1,1.2,2.4,1.6,4,1.2c1.1-0.2,2-1,2.6-1.9C254.1,55.8,254.5,54.3,254.5,52.6z"/>
<path d="M304.5,61c-2.3-0.1-4-1.1-5.2-3c-0.7-1.1-1.1-2.3-1.3-3.6c-0.3-2.3,0-4.5,1.1-6.5c1.2-2.2,3-3.4,5.5-3.3
	c1.9,0,3.4,0.9,4.5,2.4c0.9,1.2,1.4,2.6,1.6,4.1c0.3,2.1,0.1,4.1-0.8,6.1c-0.8,1.7-1.9,2.9-3.7,3.5C305.6,60.8,305,60.8,304.5,61z
	 M309.1,52.7c0-1.6-0.4-3.3-1.5-4.7c-1.6-2.2-4.8-2.1-6.3-0.3c-0.4,0.5-0.8,1-1,1.6c-0.8,1.8-0.9,3.7-0.5,5.6
	c0.2,1.2,0.7,2.2,1.5,3.1c1.1,1.2,2.4,1.6,4,1.3c1.1-0.2,2-0.9,2.6-1.8C308.8,55.9,309.1,54.4,309.1,52.7z"/>
<path d="M270.5,52.5c0-1.6,0.4-3.3,1.3-4.9c1.2-2,3-3.1,5.4-3c2.1,0,3.8,1,4.9,2.7c0.8,1.2,1.2,2.5,1.4,3.9c0.2,1.7,0.1,3.4-0.5,5.1
	c-0.5,1.4-1.2,2.6-2.4,3.4c-2.4,1.8-6.7,1.7-8.8-1.8C270.9,56.3,270.5,54.6,270.5,52.5z M272.2,52.9c0,0.2,0,0.6,0.1,0.9
	c0.2,1.3,0.5,2.5,1.3,3.6c1.8,2.4,5.1,2.4,6.9,0c0.3-0.4,0.6-0.9,0.8-1.4c0.7-1.7,0.8-3.4,0.4-5.2c-0.2-1-0.6-2-1.2-2.8
	c-1.1-1.5-2.9-2.1-4.7-1.6c-1.3,0.4-2.1,1.2-2.7,2.4C272.5,50.1,272.2,51.4,272.2,52.9z"/>
<path d="M341,52.1c0-1.6,0.5-3.6,1.9-5.4c1.5-1.9,3.6-2.6,6-2.1c1.8,0.4,3.1,1.6,4,3.2c0.6,1.2,1,2.5,1.1,3.8c0.1,2-0.2,4-1.2,5.9
	c-0.8,1.5-2,2.7-3.8,3.1c-2.7,0.7-5.1-0.3-6.7-2.8C341.4,56.3,341,54.6,341,52.1z M352.3,52.6c0-0.4,0-0.8-0.1-1.1
	c-0.2-1.3-0.6-2.5-1.4-3.6c-1.5-2-4.8-2.3-6.5,0c-0.3,0.4-0.6,0.8-0.8,1.3c-0.8,1.7-1,3.4-0.7,5.3c0.2,1.3,0.7,2.5,1.7,3.5
	c1.6,1.7,4.3,1.7,5.9,0c0.4-0.5,0.8-1,1-1.6C352,55.1,352.2,53.9,352.3,52.6z"/>
<path d="M378.5,52.8c0-1.7,0.3-3.4,1.2-5c1.2-2.1,3-3.3,5.5-3.3c2.4,0,4.2,1.1,5.2,3.2c1.7,3.2,1.8,6.5,0.1,9.8
	c-1.1,2.1-2.8,3.2-5.2,3.3c-2.8,0.1-5-1.5-6.1-4.2C378.7,55.4,378.5,54.2,378.5,52.8z M380.2,52.7c0,0.3,0,0.7,0.1,1
	c0.2,1.5,0.6,2.8,1.6,3.9c1.7,2,4.7,2,6.4,0c0.4-0.5,0.8-1.1,1-1.7c0.7-1.7,0.8-3.4,0.4-5.2c-0.2-1.1-0.7-2.1-1.4-3
	c-1.1-1.3-2.6-1.7-4.2-1.4c-1.3,0.3-2.2,1.1-2.8,2.2C380.5,49.9,380.2,51.3,380.2,52.7z"/>
<path d="M428.1,60.9c-2.2,0-3.9-1-5.1-2.9c-0.7-1-1-2.2-1.2-3.4c-0.3-2.1-0.2-4.1,0.7-6c0.6-1.4,1.5-2.6,2.9-3.4
	c2.8-1.5,6.1-0.6,7.8,2.1c0.7,1.1,1.1,2.4,1.3,3.7c0.3,1.9,0.2,3.8-0.5,5.7c-0.6,1.6-1.6,2.9-3.2,3.6
	C429.9,60.7,429.1,60.9,428.1,60.9z M432.9,52.9c-0.1-0.6-0.1-1.2-0.2-1.7c-0.2-1.2-0.6-2.3-1.4-3.3c-1.6-2.1-4.7-2.1-6.4-0.1
	c-0.4,0.4-0.7,1-0.9,1.5c-0.7,1.5-0.9,3.1-0.6,4.8c0.1,1.1,0.4,2.1,1,3.1c0.6,1,1.4,1.7,2.6,1.9c2,0.5,3.8-0.3,4.9-2.2
	C432.6,55.7,432.9,54.3,432.9,52.9z"/>
<path d="M214.4,51c0-0.4,0.1-0.9,0.2-1.3c0.4-2,1.3-3.6,3-4.8c2.7-1.8,7.4-1.4,9.3,2.5c0.6,1.1,0.8,2.3,0.9,3.6c0,0,0,0.1-0.1,0.1
	c0,0,0,0,0,0c-0.1,0-0.2,0-0.3,0c-4.2,0-8.4,0-12.5,0c-0.1,0-0.2,0-0.2,0C214.5,51.1,214.5,51.1,214.4,51z M225.7,49.4
	c-0.3-1.8-1.9-3.9-4.9-3.7c-2.1,0.1-4.2,1.9-4.2,3.7C219.5,49.4,222.6,49.4,225.7,49.4z"/>
<path class="st0" d="M47.2,14.3c-0.5,0-0.9-0.3-0.9-0.7c0-0.4,0.5-0.7,1-0.7c0.5,0,0.9,0.3,0.9,0.7C48.1,14,47.7,14.3,47.2,14.3z"/>
<path class="st0" d="M447.1,29.9c0-0.9,0-1.8,0-2.8c0.8-0.1,1.5-0.2,2.2,0.2c0.8,0.4,0.9,1.6,0.2,2.2c-0.2,0.2-0.5,0.3-0.7,0.4
	C448.2,29.9,447.7,29.9,447.1,29.9z"/>
<path class="st0" d="M188.6,52.9c0,1.3-0.3,2.5-0.8,3.6c-0.7,1.4-1.7,2.3-3.2,2.6c-1.6,0.3-3-0.2-4.1-1.6c-0.7-0.9-1-1.8-1.2-2.9
	c-0.4-2-0.2-3.9,0.7-5.8c0.3-0.5,0.6-1,1-1.4c1.6-1.7,4.4-1.6,5.9,0.2c0.8,1,1.3,2.1,1.5,3.4C188.5,51.7,188.5,52.3,188.6,52.9z"/>
<path class="st0" d="M107.8,52.5c0,1.9-0.4,3.4-1.3,4.7c-0.6,0.9-1.4,1.6-2.4,1.8c-1.7,0.4-3.1,0-4.3-1.4c-0.8-0.9-1.2-2-1.4-3.2
	c-0.3-1.6-0.3-3.2,0.3-4.8c0.3-0.9,0.7-1.6,1.4-2.3c1.4-1.4,4.1-1.6,5.7,0.1c0.9,1,1.5,2.2,1.7,3.5
	C107.7,51.6,107.8,52.2,107.8,52.5z"/>
<path class="st0" d="M151.7,52.9c0-1.6,0.3-3.1,1.1-4.3c0.6-1.1,1.5-1.9,2.8-2.2c1.6-0.3,2.9,0.1,4,1.3c0.8,1,1.3,2.1,1.5,3.4
	c0.4,2,0.2,3.9-0.8,5.7c-0.2,0.3-0.4,0.7-0.6,1c-1.6,2-4.5,2.1-6.3,0.2c-1-1.1-1.5-2.5-1.7-3.9C151.7,53.5,151.7,53.1,151.7,52.9z"
	/>
<path class="st0" d="M134.2,49.4c-3,0-6.1,0-9.1,0c-0.1-1.5,2-3.5,3.9-3.7C131.7,45.5,134,47.1,134.2,49.4z"/>
<path class="st0" d="M254.5,52.6c-0.1,1.7-0.4,3.2-1.3,4.5c-0.6,1-1.4,1.7-2.6,1.9c-1.6,0.3-2.9-0.1-4-1.2c-0.8-0.8-1.2-1.9-1.5-3
	c-0.4-1.7-0.4-3.4,0.2-5.1c0.3-0.9,0.7-1.7,1.4-2.3c1.6-1.6,4.2-1.5,5.8,0.1c1.1,1.1,1.6,2.4,1.8,3.9
	C254.5,51.9,254.5,52.3,254.5,52.6z"/>
<path class="st0" d="M309.1,52.7c0,1.7-0.4,3.3-1.3,4.6c-0.6,0.9-1.4,1.6-2.6,1.8c-1.5,0.3-2.9-0.1-4-1.3c-0.8-0.9-1.3-1.9-1.5-3.1
	c-0.4-1.9-0.3-3.8,0.5-5.6c0.3-0.6,0.6-1.1,1-1.6c1.5-1.7,4.6-1.9,6.3,0.3C308.7,49.4,309.1,51,309.1,52.7z"/>
<path class="st0" d="M272.2,52.9c0-1.5,0.3-2.8,0.9-4.1c0.6-1.1,1.4-2,2.7-2.4c1.8-0.5,3.6,0.1,4.7,1.6c0.6,0.8,1,1.8,1.2,2.8
	c0.4,1.8,0.3,3.5-0.4,5.2c-0.2,0.5-0.5,1-0.8,1.4c-1.8,2.4-5.1,2.3-6.9,0c-0.8-1.1-1.2-2.3-1.3-3.6
	C272.2,53.5,272.2,53.1,272.2,52.9z"/>
<path class="st0" d="M352.3,52.6c0,1.3-0.2,2.6-0.8,3.7c-0.3,0.6-0.6,1.1-1,1.6c-1.6,1.7-4.3,1.7-5.9,0c-0.9-1-1.4-2.2-1.7-3.5
	c-0.3-1.8-0.1-3.6,0.7-5.3c0.2-0.4,0.5-0.9,0.8-1.3c1.7-2.2,5-2,6.5,0c0.8,1.1,1.2,2.3,1.4,3.6C352.2,51.8,352.2,52.2,352.3,52.6z"
	/>
<path class="st0" d="M380.2,52.7c0-1.5,0.3-2.9,1-4.1c0.6-1.1,1.5-2,2.8-2.2c1.7-0.3,3.1,0.1,4.2,1.4c0.7,0.9,1.2,1.9,1.4,3
	c0.4,1.8,0.3,3.5-0.4,5.2c-0.3,0.6-0.6,1.2-1,1.7c-1.7,2-4.7,2-6.4,0c-1-1.1-1.4-2.5-1.6-3.9C380.2,53.4,380.2,53.1,380.2,52.7z"/>
<path class="st0" d="M432.9,52.9c0,1.4-0.3,2.7-1,4c-1,1.8-2.9,2.6-4.9,2.2c-1.1-0.3-2-1-2.6-1.9c-0.6-0.9-0.9-2-1-3.1
	c-0.2-1.7-0.1-3.3,0.6-4.8c0.2-0.5,0.6-1,0.9-1.5c1.6-2,4.8-2,6.4,0.1c0.8,1,1.2,2.1,1.4,3.3C432.8,51.8,432.8,52.3,432.9,52.9z"/>
<path class="st0" d="M225.7,49.4c-3.1,0-6.1,0-9.2,0c0.1-1.8,2.1-3.6,4.2-3.7C223.8,45.5,225.4,47.6,225.7,49.4z"/>
</svg>

