G04 #@! TF.GenerationSoftware,KiCad,Pcbnew,(5.0.0)*
G04 #@! TF.CreationDate,2020-08-24T16:31:51+08:00*
G04 #@! TF.ProjectId,LeashPCB,4C656173685043422E6B696361645F70,B*
G04 #@! TF.SameCoordinates,Original*
G04 #@! TF.FileFunction,Copper,L3,Inr,Plane*
G04 #@! TF.FilePolarity,Positive*
%FSLAX46Y46*%
G04 Gerber Fmt 4.6, Leading zero omitted, Abs format (unit mm)*
G04 Created by KiCad (PCBNEW (5.0.0)) date 08/24/20 16:31:51*
%MOMM*%
%LPD*%
G01*
G04 APERTURE LIST*
G04 #@! TA.AperFunction,NonConductor*
%ADD10C,0.025400*%
G04 #@! TD*
G04 #@! TA.AperFunction,ViaPad*
%ADD11R,1.700000X1.700000*%
G04 #@! TD*
G04 #@! TA.AperFunction,ViaPad*
%ADD12O,1.700000X0.900000*%
G04 #@! TD*
G04 #@! TA.AperFunction,ViaPad*
%ADD13O,2.000000X0.900000*%
G04 #@! TD*
G04 #@! TA.AperFunction,ViaPad*
%ADD14C,0.200000*%
G04 #@! TD*
G04 #@! TA.AperFunction,ViaPad*
%ADD15C,0.700000*%
G04 #@! TD*
G04 #@! TA.AperFunction,ViaPad*
%ADD16C,4.400000*%
G04 #@! TD*
G04 #@! TA.AperFunction,ViaPad*
%ADD17C,0.500000*%
G04 #@! TD*
G04 #@! TA.AperFunction,Conductor*
%ADD18C,0.127000*%
G04 #@! TD*
G04 #@! TA.AperFunction,Conductor*
%ADD19C,0.500000*%
G04 #@! TD*
G04 #@! TA.AperFunction,Conductor*
%ADD20C,0.300000*%
G04 #@! TD*
G04 #@! TA.AperFunction,Conductor*
%ADD21C,0.400000*%
G04 #@! TD*
G04 #@! TA.AperFunction,Conductor*
%ADD22C,0.254000*%
G04 #@! TD*
G04 APERTURE END LIST*
D10*
X41500007Y1000000D02*
X41500007Y32300000D01*
X24114006Y33300010D02*
X21714004Y33300010D01*
X12113998Y33300010D02*
X9714004Y33300010D01*
X16114006Y33300010D02*
X13714004Y33300010D01*
X20114006Y33300010D02*
X17714004Y33300010D01*
X0Y32300009D02*
G75*
G02X999999Y33300010I1000000J1D01*
G01*
X1000000Y0D02*
G75*
G02X0Y1000000I0J1000000D01*
G01*
X25714004Y31800010D02*
G75*
G02X25214004Y31300010I-500000J0D01*
G01*
X24614006Y31300010D02*
G75*
G02X24114006Y31800010I0J500000D01*
G01*
X21714004Y31800010D02*
G75*
G02X21214004Y31300010I-500000J0D01*
G01*
X20614006Y31300010D02*
G75*
G02X20114006Y31800010I0J500000D01*
G01*
X17714004Y31800010D02*
G75*
G02X17214004Y31300010I-500000J0D01*
G01*
X9714004Y31800010D02*
G75*
G02X9214004Y31300010I-500000J0D01*
G01*
X8614006Y31300010D02*
G75*
G02X8114006Y31800010I0J500000D01*
G01*
X41500007Y1000000D02*
G75*
G02X40500007Y0I-1000000J0D01*
G01*
X40500007Y33300010D02*
G75*
G02X41500007Y32300000I0J-1000000D01*
G01*
X12613998Y31300010D02*
G75*
G02X12113998Y31800010I0J500000D01*
G01*
X13714004Y31800010D02*
G75*
G02X13214004Y31300010I-500000J0D01*
G01*
X16614006Y31300010D02*
G75*
G02X16114006Y31800010I0J500000D01*
G01*
X25714004Y31800010D02*
X25714004Y33300010D01*
X24114006Y33300010D02*
X24114006Y31800010D01*
X21714004Y31800010D02*
X21714004Y33300010D01*
X20614006Y31300010D02*
X21214004Y31300010D01*
X20114006Y33300010D02*
X20114006Y31800010D01*
X17714004Y31800010D02*
X17714004Y33300010D01*
X16114006Y33300010D02*
X16114006Y31800010D01*
X40500007Y33300010D02*
X25714004Y33300010D01*
X8113998Y33300010D02*
X1000000Y33300010D01*
X24614006Y31300010D02*
X25214004Y31300010D01*
X8113998Y33300010D02*
X8113998Y31800010D01*
X8614006Y31300010D02*
X9214004Y31300010D01*
X9714004Y31800010D02*
X9714004Y33300010D01*
X16614006Y31300010D02*
X17214004Y31300010D01*
X13714004Y31800010D02*
X13714004Y33300010D01*
X12613998Y31300010D02*
X13214004Y31300010D01*
X1000000Y0D02*
X40500007Y0D01*
X0Y32300010D02*
X0Y1000000D01*
X12113998Y33300010D02*
X12113998Y31800010D01*
D11*
G04 #@! TO.N,Net-(AE2-Pad1)*
G04 #@! TO.C,AE2*
X7600000Y12450000D03*
G04 #@! TD*
D12*
G04 #@! TO.N,GND*
G04 #@! TO.C,P1*
X39743505Y25174105D03*
X39743505Y16534105D03*
D13*
X35573505Y25174105D03*
X35573505Y16534105D03*
G04 #@! TD*
D14*
G04 #@! TO.N,N/C*
G04 #@! TO.C,U7*
X30797500Y31223000D03*
X30797500Y32023000D03*
G04 #@! TD*
D15*
G04 #@! TO.N,GND*
G04 #@! TO.C,H3*
X39666726Y31966726D03*
X38500000Y32450000D03*
X37333274Y31966726D03*
X36850000Y30800000D03*
X37333274Y29633274D03*
X38500000Y29150000D03*
X39666726Y29633274D03*
X40150000Y30800000D03*
D16*
X38500000Y30800000D03*
G04 #@! TD*
D15*
G04 #@! TO.N,GND*
G04 #@! TO.C,H4*
X39666726Y3566726D03*
X38500000Y4050000D03*
X37333274Y3566726D03*
X36850000Y2400000D03*
X37333274Y1233274D03*
X38500000Y750000D03*
X39666726Y1233274D03*
X40150000Y2400000D03*
D16*
X38500000Y2400000D03*
G04 #@! TD*
D15*
G04 #@! TO.N,GND*
G04 #@! TO.C,H2*
X4166726Y31966726D03*
X3000000Y32450000D03*
X1833274Y31966726D03*
X1350000Y30800000D03*
X1833274Y29633274D03*
X3000000Y29150000D03*
X4166726Y29633274D03*
X4650000Y30800000D03*
D16*
X3000000Y30800000D03*
G04 #@! TD*
D15*
G04 #@! TO.N,GND*
G04 #@! TO.C,H1*
X4166726Y3566726D03*
X3000000Y4050000D03*
X1833274Y3566726D03*
X1350000Y2400000D03*
X1833274Y1233274D03*
X3000000Y750000D03*
X4166726Y1233274D03*
X4650000Y2400000D03*
D16*
X3000000Y2400000D03*
G04 #@! TD*
D17*
G04 #@! TO.N,GND*
X2324505Y7632105D03*
X3277005Y7632105D03*
X2261005Y12712105D03*
X3277005Y12712105D03*
X34074505Y24523105D03*
X29033505Y19101105D03*
X34113505Y17654105D03*
X12484505Y11061105D03*
X28954972Y9818560D03*
X25239458Y8621641D03*
X20462505Y8752105D03*
X25244005Y11573095D03*
X24467005Y11573095D03*
X24105005Y19506605D03*
X17310505Y21411605D03*
X12738505Y25102093D03*
X15100899Y23405023D03*
X14008505Y19760605D03*
X24168501Y13029605D03*
X16294505Y18178605D03*
X17374005Y18178605D03*
X18961505Y13728109D03*
X32267790Y31168710D03*
X11557000Y31877000D03*
X19685000Y31940500D03*
X23685500Y31940500D03*
X22404172Y25064946D03*
X35467727Y8283773D03*
X37143405Y9783095D03*
X38710005Y10565995D03*
X33528000Y1460500D03*
X24193500Y3556000D03*
X29662490Y15633105D03*
X31305500Y12698059D03*
X31305500Y12192000D03*
X7493000Y1714500D03*
X12742400Y13652500D03*
X7239000Y31877000D03*
X19914438Y13728538D03*
X23876000Y27051000D03*
X33337500Y30543500D03*
X36258500Y14859000D03*
X29972000Y761998D03*
X14478000Y8699500D03*
X28738512Y5913512D03*
X32325000Y4500000D03*
X30770000Y6775000D03*
X33750000Y20150000D03*
X31000000Y22600000D03*
X29023901Y22723443D03*
X29775000Y28275000D03*
X29125000Y28050000D03*
X28650000Y30575000D03*
X38050000Y18575000D03*
X23200000Y11550000D03*
X575000Y27375000D03*
X525000Y24250000D03*
X525000Y22500000D03*
X2775000Y22400000D03*
X4375000Y22325000D03*
X4400000Y21325000D03*
X4375000Y20125000D03*
X4400000Y18775000D03*
X4375000Y17675000D03*
X4400000Y16000000D03*
X3475000Y15125000D03*
X2300000Y15125000D03*
X1150000Y15125000D03*
X400000Y15100000D03*
X400000Y13875000D03*
X500000Y12600000D03*
X1900000Y13800000D03*
X3625000Y14125000D03*
X550000Y11275000D03*
X525000Y8875000D03*
X475000Y6675000D03*
X475000Y4500000D03*
X2775000Y5425000D03*
X5175000Y4750000D03*
X5025000Y7275000D03*
X6725000Y9275000D03*
X6325000Y12150000D03*
X5675000Y13100000D03*
X4850000Y14925000D03*
X6200000Y16525000D03*
X7025000Y17400000D03*
X8150000Y18450000D03*
X9375000Y18125000D03*
X10675000Y18100000D03*
X10700000Y19450000D03*
X9275000Y20750000D03*
X8500000Y21375000D03*
X7425000Y22525000D03*
X6400000Y23525000D03*
X5550000Y24600000D03*
X4250000Y23150000D03*
X6750000Y20625000D03*
X7675000Y19600000D03*
X5775000Y19725000D03*
X5800000Y18375000D03*
X5475000Y17025000D03*
X6800000Y18725000D03*
X9600000Y22400000D03*
X7325000Y24475000D03*
X6125000Y26100000D03*
X4775000Y27500000D03*
X1625000Y28175000D03*
X6400000Y10750000D03*
X5175000Y8650000D03*
X5450000Y10025000D03*
X4300000Y6050000D03*
X7775000Y8500000D03*
X7650000Y15200000D03*
X8700000Y16425000D03*
X10250000Y16400000D03*
X10075000Y15075000D03*
X9850000Y13200000D03*
X11425000Y16525000D03*
X8275000Y23200000D03*
X5675000Y28875000D03*
X6250000Y30600000D03*
X23787100Y21945600D03*
X23812500Y20294600D03*
X14400000Y31100000D03*
X13081000Y20301515D03*
X7400000Y14100000D03*
X8500000Y13800000D03*
G04 #@! TO.N,/RF/VDDR*
X16548505Y20459105D03*
X14897503Y19760603D03*
X25491967Y24218561D03*
G04 #@! TO.N,/Boost Converters/3V3_BUCK_VOUT*
X28500000Y28425000D03*
G04 #@! TO.N,/USB Input/MSP430_TCK*
X21653500Y25336500D03*
X35433000Y7620000D03*
G04 #@! TO.N,/USB Input/MSP430_TDO*
X20295005Y22491105D03*
X35275000Y1450000D03*
G04 #@! TO.N,/USB Input/MSP430_TMS*
X21700102Y24494098D03*
X27900000Y1945855D03*
G04 #@! TO.N,/USB Input/MSP430_TDI*
X20320000Y24447500D03*
X31877000Y1524000D03*
G04 #@! TO.N,/USB Input/D-*
X31331390Y22024696D03*
G04 #@! TO.N,/USB Input/D+*
X30679011Y22031295D03*
G04 #@! TO.N,RESET_N*
X20320000Y23756987D03*
X37147500Y17399000D03*
X22161500Y11620500D03*
X34276587Y3094369D03*
G04 #@! TO.N,VDDS*
X17310505Y20459105D03*
X19596503Y10299105D03*
X12040003Y25094605D03*
X14326005Y11378605D03*
X21653500Y26035000D03*
G04 #@! TO.N,3V3*
X32512000Y32575500D03*
X32829500Y1460502D03*
X23851005Y25348605D03*
X26454505Y13537605D03*
X15621000Y31305500D03*
X22733000Y5334000D03*
X22161500Y12319000D03*
X9525000Y8763000D03*
X9525000Y8128000D03*
X27241500Y31877000D03*
X22479000Y31301500D03*
X23050500Y31305500D03*
X27241500Y31369000D03*
X28925000Y7575000D03*
X27225000Y29700000D03*
X27900000Y29725000D03*
X38710005Y22360005D03*
X36100000Y27475000D03*
X23775000Y8675000D03*
G04 #@! TO.N,LED1*
X19596507Y10942094D03*
X22987000Y31940500D03*
G04 #@! TO.N,LED2*
X23152505Y14236105D03*
X18923006Y31940500D03*
X21830993Y29273500D03*
G04 #@! TO.N,900M*
X9715500Y28321002D03*
X13625000Y15100000D03*
G04 #@! TO.N,2.4G*
X10541000Y28321000D03*
X13650000Y14375000D03*
G04 #@! TO.N,5V*
X28931005Y10870605D03*
X18732500Y29972002D03*
X29850000Y23650000D03*
X30425004Y23650000D03*
G04 #@! TO.N,CC1352_TDI*
X23484536Y13002760D03*
X27554780Y6380452D03*
G04 #@! TO.N,CC1352_TDO*
X22858749Y12963571D03*
X28450000Y4284490D03*
G04 #@! TO.N,CC1352_TCK*
X22207992Y12966105D03*
X27200004Y4250000D03*
G04 #@! TO.N,MISO*
X17628005Y8076607D03*
X17271005Y11696105D03*
G04 #@! TO.N,CS_MB2*
X18707505Y21030605D03*
X19304000Y6473000D03*
G04 #@! TO.N,SCK*
X16637000Y10223500D03*
X16637000Y3619500D03*
G04 #@! TO.N,AN_MB2*
X24422505Y6870105D03*
X20295007Y21795626D03*
G04 #@! TO.N,RST_MB2*
X14478000Y5274490D03*
G04 #@! TO.N,MOSI*
X16358005Y10934105D03*
X16065500Y4826000D03*
X20129502Y4826000D03*
G04 #@! TO.N,INT_MB2*
X26543000Y14414500D03*
X23939500Y26289000D03*
G04 #@! TO.N,CC1352_RX_MB2_TX*
X21330550Y27683128D03*
G04 #@! TO.N,SDA*
X27246751Y12502725D03*
X18669000Y28701996D03*
X31011517Y2956836D03*
X23622000Y29202843D03*
G04 #@! TO.N,PWM_MB2*
X23152505Y15061605D03*
X24312991Y29202843D03*
G04 #@! TO.N,CC1352_TX_MB2_RX*
X21018500Y29273500D03*
G04 #@! TO.N,SCL*
X16065500Y29908500D03*
X31400000Y6250000D03*
X29264738Y31233238D03*
G04 #@! TO.N,CC1352_TX_MB1_RX*
X11556996Y29210000D03*
X11684000Y26670000D03*
G04 #@! TO.N,RST_MB1*
X10731500Y4762500D03*
X13805231Y5274490D03*
G04 #@! TO.N,AN_MB1*
X20285153Y23122957D03*
X7468005Y5358995D03*
G04 #@! TO.N,CS_MB1*
X11493500Y6858000D03*
X18655386Y20221637D03*
G04 #@! TO.N,CC1352_TX_MSP430_RX*
X12994491Y21182527D03*
G04 #@! TO.N,CC1352_RX_MSP430_TX*
X11684000Y21082000D03*
G04 #@! TO.N,/USB Input/VBUS*
X28850000Y20600000D03*
X29373000Y20600000D03*
X33502600Y24028400D03*
X33870900Y23660100D03*
G04 #@! TO.N,/USB Input/MSP_PUR*
X29000004Y21575000D03*
X28600000Y23624996D03*
G04 #@! TO.N,/USB Input/D_N*
X33566505Y22237105D03*
G04 #@! TO.N,/USB Input/D_P*
X33553328Y21210385D03*
G04 #@! TO.N,INT_SENSOR*
X15221178Y8646943D03*
G04 #@! TO.N,INT_HDC2010*
X26064835Y2062189D03*
X22504562Y8665510D03*
G04 #@! TO.N,INT_LIS2DE12_2*
X24549505Y8648105D03*
G04 #@! TO.N,ALT_IN*
X33249407Y7920898D03*
X33250000Y8425000D03*
X35075000Y32375000D03*
G04 #@! TO.N,~CHG*
X31305500Y11112500D03*
X28003500Y31877000D03*
G04 #@! TO.N,~FLASH_CS*
X14199005Y7695605D03*
X18707511Y21729105D03*
G04 #@! TO.N,Net-(C13-Pad2)*
X32510000Y30010000D03*
G04 #@! TO.N,USER_BOOT*
X19597003Y11569603D03*
X34036000Y15176500D03*
X26324998Y28075002D03*
X33600000Y26750000D03*
G04 #@! TO.N,Net-(D2-Pad1)*
X18168987Y31940500D03*
G04 #@! TO.N,Net-(D3-Pad1)*
X22288500Y32131000D03*
G04 #@! TO.N,Net-(D4-Pad1)*
X14349005Y31942495D03*
G04 #@! TO.N,Net-(D5-Pad1)*
X10477500Y32004000D03*
G04 #@! TO.N,Net-(D6-Pad1)*
X6477000Y31877000D03*
G04 #@! TO.N,Net-(D7-Pad1)*
X26499992Y32000000D03*
G04 #@! TO.N,Net-(J3-Pad5)*
X28795653Y3199866D03*
G04 #@! TO.N,/USB Input/~MSP430_RST*
X36807000Y8151000D03*
X33202510Y13208000D03*
G04 #@! TO.N,Net-(J3-Pad3)*
X31638512Y2961488D03*
G04 #@! TO.N,Net-(R28-Pad2)*
X24867005Y24967605D03*
G04 #@! TO.N,Net-(R29-Pad2)*
X24867005Y24269105D03*
G04 #@! TO.N,Net-(R51-Pad1)*
X28892500Y12763500D03*
X32300000Y2950000D03*
G04 #@! TO.N,MB1_CTRL*
X14008505Y24205605D03*
G04 #@! TO.N,Net-(R49-Pad1)*
X25629005Y15506099D03*
X26149437Y28726932D03*
G04 #@! TO.N,INT_LIS2DE12_1*
X25946505Y8648105D03*
G04 #@! TO.N,Net-(R39-Pad2)*
X18505017Y7579359D03*
X10499994Y24300000D03*
G04 #@! TO.N,Net-(R40-Pad2)*
X13310005Y23380105D03*
X18505009Y6935986D03*
G04 #@! TD*
D18*
G04 #@! TO.N,/USB Input/MSP430_TCK*
X26987511Y9524989D02*
X26987511Y9588500D01*
X21903499Y25086501D02*
X21653500Y25336500D01*
X21903499Y24934599D02*
X21903499Y25086501D01*
X24892000Y21946098D02*
X21903499Y24934599D01*
X24892000Y13779500D02*
X24892000Y21946098D01*
X26987511Y9588500D02*
X26987511Y11683989D01*
X26987511Y11683989D02*
X24892000Y13779500D01*
X26987511Y7437511D02*
X26987511Y9588500D01*
X26430488Y6880488D02*
X26987511Y7437511D01*
X26430488Y3144512D02*
X26430488Y6880488D01*
X27162000Y2413000D02*
X26430488Y3144512D01*
X33800000Y3625000D02*
X32375000Y2200000D01*
X32375000Y2200000D02*
X28525000Y2200000D01*
X28525000Y2200000D02*
X28312000Y2413000D01*
X28312000Y2413000D02*
X27162000Y2413000D01*
X35433000Y6508000D02*
X33800000Y4875000D01*
X35433000Y7620000D02*
X35433000Y6508000D01*
X33800000Y4875000D02*
X33800000Y3625000D01*
G04 #@! TO.N,/USB Input/MSP430_TDO*
X35025001Y1200001D02*
X35275000Y1450000D01*
X31469500Y725000D02*
X34550000Y725000D01*
X34550000Y725000D02*
X35025001Y1200001D01*
X21463011Y11979714D02*
X21717033Y11725692D01*
X20295005Y22491105D02*
X20942895Y22491105D01*
X21717033Y11725692D02*
X21717033Y8318467D01*
X21780500Y13654326D02*
X21463011Y13336837D01*
X21780500Y21653500D02*
X21780500Y13654326D01*
X20942895Y22491105D02*
X21780500Y21653500D01*
X21717033Y8318467D02*
X22542489Y7493011D01*
X22542489Y7493011D02*
X24574489Y7493011D01*
X24574489Y7493011D02*
X25082500Y6985000D01*
X25082500Y6985000D02*
X25082500Y1867500D01*
X26125000Y825000D02*
X28675000Y825000D01*
X25082500Y1867500D02*
X26125000Y825000D01*
X28675000Y825000D02*
X29175000Y1325000D01*
X29175000Y1325000D02*
X30869500Y1325000D01*
X21463011Y13336837D02*
X21463011Y11979714D01*
X30869500Y1325000D02*
X31469500Y725000D01*
G04 #@! TO.N,/USB Input/MSP430_TMS*
X24638000Y21759342D02*
X24638000Y13589000D01*
X27546447Y1945855D02*
X27900000Y1945855D01*
X21950101Y24244099D02*
X22153243Y24244099D01*
X22153243Y24244099D02*
X24638000Y21759342D01*
X24638000Y13589000D02*
X26700000Y11527000D01*
X21700102Y24494098D02*
X21950101Y24244099D01*
X26176477Y2998523D02*
X27229145Y1945855D01*
X26700000Y7586500D02*
X26176477Y7062977D01*
X27229145Y1945855D02*
X27546447Y1945855D01*
X26700000Y11527000D02*
X26700000Y7586500D01*
X26176477Y7062977D02*
X26176477Y2998523D01*
G04 #@! TO.N,/USB Input/MSP430_TDI*
X20320000Y24447500D02*
X20569999Y24197501D01*
X20569999Y24197501D02*
X20573990Y24193510D01*
X31627001Y1773999D02*
X31877000Y1524000D01*
X25922466Y7168191D02*
X25922466Y2827534D01*
X25922466Y2827534D02*
X27244647Y1505353D01*
X27244647Y1505353D02*
X28305353Y1505353D01*
X28305353Y1505353D02*
X28700000Y1900000D01*
X22352000Y22415500D02*
X22352000Y14097000D01*
X31501000Y1900000D02*
X31627001Y1773999D01*
X22796500Y13652500D02*
X24197548Y13652500D01*
X20569999Y24197501D02*
X22352000Y22415500D01*
X28700000Y1900000D02*
X31501000Y1900000D01*
X26445989Y7691714D02*
X25922466Y7168191D01*
X26445989Y11404059D02*
X26445989Y7691714D01*
X24197548Y13652500D02*
X26445989Y11404059D01*
X22352000Y14097000D02*
X22796500Y13652500D01*
G04 #@! TO.N,RESET_N*
X22161500Y11640450D02*
X22161500Y11620500D01*
X21717022Y12084928D02*
X22161500Y11640450D01*
X21717022Y13231623D02*
X21717022Y12084928D01*
X22098000Y21978987D02*
X22098000Y13612601D01*
X20320000Y23756987D02*
X22098000Y21978987D01*
X22098000Y13612601D02*
X21717022Y13231623D01*
X33923034Y3094369D02*
X34276587Y3094369D01*
X33728816Y3094369D02*
X33923034Y3094369D01*
X24828478Y7747022D02*
X25400000Y7175500D01*
X22669478Y7747022D02*
X24828478Y7747022D01*
X31039000Y1600000D02*
X31559489Y1079511D01*
X21971044Y8445456D02*
X22669478Y7747022D01*
X21971044Y11076491D02*
X21971044Y8445456D01*
X25400000Y7175500D02*
X25400000Y2075082D01*
X28510043Y1175000D02*
X28935043Y1600000D01*
X22161500Y11266947D02*
X21971044Y11076491D01*
X22161500Y11620500D02*
X22161500Y11266947D01*
X31559489Y1079511D02*
X32229511Y1079511D01*
X25400000Y2075082D02*
X26300082Y1175000D01*
X26300082Y1175000D02*
X28510043Y1175000D01*
X28935043Y1600000D02*
X31039000Y1600000D01*
X32229511Y1079511D02*
X32350000Y1200000D01*
X32350000Y1200000D02*
X32350000Y1715553D01*
X32350000Y1715553D02*
X33728816Y3094369D01*
X37719000Y16827500D02*
X37147500Y17399000D01*
X37719000Y8100000D02*
X37719000Y16827500D01*
X34276587Y4657587D02*
X37719000Y8100000D01*
X34276587Y3094369D02*
X34276587Y4657587D01*
D19*
G04 #@! TO.N,3V3*
X23851005Y25348605D02*
X24101004Y25598604D01*
X24101004Y25598604D02*
X24963604Y25598604D01*
X24963604Y25598604D02*
X26026896Y25598604D01*
X27241500Y24384000D02*
X27241500Y13779500D01*
X26999605Y13537605D02*
X26454505Y13537605D01*
X27241500Y13779500D02*
X26999605Y13537605D01*
X22483000Y31305500D02*
X22479000Y31301500D01*
X23050500Y31305500D02*
X22483000Y31305500D01*
X21911500Y30734000D02*
X22479000Y31301500D01*
X15875000Y30734000D02*
X21911500Y30734000D01*
X15621000Y30988000D02*
X15875000Y30734000D01*
X15621000Y31305500D02*
X15621000Y30988000D01*
X27241500Y24384000D02*
X27241500Y24955500D01*
X27178000Y25019000D02*
X27241500Y24955500D01*
X26606500Y25019000D02*
X27178000Y25019000D01*
X26606500Y25019000D02*
X27241500Y24384000D01*
X26026896Y25598604D02*
X26606500Y25019000D01*
X14795500Y30480000D02*
X15621000Y31305500D01*
X15303500Y30734000D02*
X14795500Y30226000D01*
X15875000Y30734000D02*
X15303500Y30734000D01*
X14795500Y30226000D02*
X14795500Y30480000D01*
D20*
X26999605Y13537605D02*
X29007395Y13537605D01*
X29419502Y13125498D02*
X29419502Y12510538D01*
X28003500Y11094536D02*
X28003500Y8496500D01*
X29007395Y13537605D02*
X29419502Y13125498D01*
X29419502Y12510538D02*
X28003500Y11094536D01*
X28003500Y8496500D02*
X28675001Y7824999D01*
X28675001Y7824999D02*
X28925000Y7575000D01*
D19*
X27225000Y31352500D02*
X27241500Y31369000D01*
X27225000Y29700000D02*
X27225000Y31352500D01*
X27474999Y25315999D02*
X27178000Y25019000D01*
X27474999Y29450001D02*
X27474999Y25315999D01*
X27225000Y29700000D02*
X27474999Y29450001D01*
D21*
X23777001Y9030554D02*
X23775000Y9028553D01*
X23775000Y9028553D02*
X23775000Y8675000D01*
X23777001Y11826961D02*
X23777001Y9030554D01*
X23284962Y12319000D02*
X23777001Y11826961D01*
X22161500Y12319000D02*
X23284962Y12319000D01*
D19*
X14922500Y9588500D02*
X10350500Y9588500D01*
X15557500Y16192500D02*
X15557500Y10223500D01*
X12367490Y19382510D02*
X15557500Y16192500D01*
X10350500Y9588500D02*
X9774999Y9012999D01*
X12367490Y21326472D02*
X12367490Y19382510D01*
X14795500Y28595500D02*
X12066500Y25866500D01*
X14795500Y30226000D02*
X14795500Y28595500D01*
X9774999Y9012999D02*
X9525000Y8763000D01*
X10766500Y25866500D02*
X9872993Y24972993D01*
X15557500Y10223500D02*
X14922500Y9588500D01*
X12066500Y25866500D02*
X10766500Y25866500D01*
X9872993Y24972993D02*
X9872993Y23820969D01*
X9872993Y23820969D02*
X12367490Y21326472D01*
D18*
G04 #@! TO.N,LED1*
X23050500Y31940500D02*
X22987000Y31940500D01*
X23495000Y31496000D02*
X23050500Y31940500D01*
X20066011Y30289511D02*
X22669511Y30289511D01*
X17907000Y12631601D02*
X17907000Y28957000D01*
X23495000Y31115000D02*
X23495000Y31496000D01*
X22669511Y30289511D02*
X23495000Y31115000D01*
X19596507Y10942094D02*
X17907000Y12631601D01*
X17907000Y28957000D02*
X18375000Y29425000D01*
X18375000Y29425000D02*
X19201500Y29425000D01*
X19201500Y29425000D02*
X20066011Y30289511D01*
G04 #@! TO.N,LED2*
X21830993Y29230993D02*
X21830993Y29273500D01*
X20828000Y28228000D02*
X21830993Y29230993D01*
X20828000Y24384000D02*
X20828000Y28228000D01*
X22640506Y22571494D02*
X20828000Y24384000D01*
X23152505Y14236105D02*
X22640506Y14748104D01*
X22640506Y14748104D02*
X22640506Y22571494D01*
D19*
G04 #@! TO.N,5V*
X28931005Y10870605D02*
X30289500Y12229100D01*
X30289500Y12229100D02*
X30289500Y21086540D01*
X30289500Y21086540D02*
X29850000Y21526040D01*
X29850000Y23074996D02*
X30425004Y23650000D01*
X29850000Y22975000D02*
X29850000Y23074996D01*
X29850000Y22975000D02*
X29850000Y23650000D01*
X29850000Y21526040D02*
X29850000Y22975000D01*
X29850000Y23650000D02*
X30425004Y23650000D01*
D18*
G04 #@! TO.N,CS_MB2*
X19553999Y6722999D02*
X19304000Y6473000D01*
X19748500Y6917500D02*
X19553999Y6722999D01*
X19748500Y8826500D02*
X19748500Y6917500D01*
X18769395Y21030605D02*
X19900000Y19900000D01*
X18707505Y21030605D02*
X18769395Y21030605D01*
X19900000Y19900000D02*
X19900000Y14771000D01*
X19900000Y14771000D02*
X20446967Y14224033D01*
X20446967Y14224033D02*
X20446967Y9524967D01*
X20446967Y9524967D02*
X19748500Y8826500D01*
G04 #@! TO.N,AN_MB2*
X24422505Y6882995D02*
X24422505Y6870105D01*
X24130000Y7175500D02*
X24422505Y6882995D01*
X22479000Y7175500D02*
X24130000Y7175500D01*
X21463022Y8191478D02*
X22479000Y7175500D01*
X21463022Y11620478D02*
X21463022Y8191478D01*
X20295007Y21795626D02*
X21003374Y21795626D01*
X21463000Y21336000D02*
X21463000Y13696051D01*
X21463000Y13696051D02*
X21209000Y13442051D01*
X21003374Y21795626D02*
X21463000Y21336000D01*
X21209000Y13442051D02*
X21209000Y11874500D01*
X21209000Y11874500D02*
X21463022Y11620478D01*
G04 #@! TO.N,INT_MB2*
X26543000Y21822224D02*
X26543000Y14768053D01*
X26543000Y14768053D02*
X26543000Y14414500D01*
X23368011Y24997213D02*
X26543000Y21822224D01*
X23939500Y26289000D02*
X23368011Y25717511D01*
X23368011Y25717511D02*
X23368011Y24997213D01*
G04 #@! TO.N,SDA*
X22844673Y25336500D02*
X22844673Y25923327D01*
X25146010Y22161490D02*
X25146010Y13969990D01*
X22844673Y24462827D02*
X25146010Y22161490D01*
X22844673Y25336500D02*
X22844673Y24462827D01*
X26613275Y12502725D02*
X26893198Y12502725D01*
X25146010Y13969990D02*
X26613275Y12502725D01*
X26893198Y12502725D02*
X27246751Y12502725D01*
X30761518Y2706837D02*
X31011517Y2956836D01*
X27293163Y2706837D02*
X30761518Y2706837D01*
X26684499Y3315501D02*
X27293163Y2706837D01*
X26684499Y6709499D02*
X26684499Y3315501D01*
X27246751Y12502725D02*
X27246751Y7271751D01*
X27246751Y7271751D02*
X26684499Y6709499D01*
X18669000Y28701996D02*
X19251996Y28701996D01*
X19251996Y28701996D02*
X20264003Y29714003D01*
X20264003Y29714003D02*
X23110840Y29714003D01*
X23110840Y29714003D02*
X23372001Y29452842D01*
X23372001Y29452842D02*
X23622000Y29202843D01*
X23871999Y29452842D02*
X23622000Y29202843D01*
X24069656Y29650499D02*
X23871999Y29452842D01*
X24574502Y29650499D02*
X24069656Y29650499D01*
X22844673Y27353173D02*
X23707711Y28216211D01*
X22844673Y25336500D02*
X22844673Y27353173D01*
X23707711Y28216211D02*
X24216211Y28216211D01*
X24216211Y28216211D02*
X24870504Y28870504D01*
X24870504Y28870504D02*
X24870504Y29354497D01*
X24870504Y29354497D02*
X24574502Y29650499D01*
G04 #@! TO.N,PWM_MB2*
X24300000Y29189852D02*
X24312991Y29202843D01*
X24300000Y28800000D02*
X24300000Y29189852D01*
X23152505Y22418719D02*
X21124504Y24446720D01*
X23152505Y15061605D02*
X23152505Y22418719D01*
X21124504Y24446720D02*
X21124504Y26240557D01*
X21124504Y26240557D02*
X23483947Y28600000D01*
X23483947Y28600000D02*
X24100000Y28600000D01*
X24100000Y28600000D02*
X24300000Y28800000D01*
G04 #@! TO.N,SCL*
X32067510Y6917510D02*
X31400000Y6250000D01*
X32067510Y28932490D02*
X32067510Y6917510D01*
X29264738Y31233238D02*
X29766762Y31233238D01*
X29766762Y31233238D02*
X32067510Y28932490D01*
G04 #@! TO.N,AN_MB1*
X7718004Y5608994D02*
X7468005Y5358995D01*
X21172029Y21182471D02*
X21172029Y13764304D01*
X20285153Y23122957D02*
X19812000Y22649804D01*
X21209011Y6985011D02*
X19939000Y5715000D01*
X19812000Y21590000D02*
X20066000Y21336000D01*
X20954989Y11662236D02*
X21209011Y11408214D01*
X21209011Y11408214D02*
X21209011Y6985011D01*
X19812000Y22649804D02*
X19812000Y21590000D01*
X7824010Y5715000D02*
X7718004Y5608994D01*
X20066000Y21336000D02*
X21018500Y21336000D01*
X21018500Y21336000D02*
X21172029Y21182471D01*
X21172029Y13764304D02*
X20954989Y13547265D01*
X19939000Y5715000D02*
X7824010Y5715000D01*
X20954989Y13547265D02*
X20954989Y11662236D01*
G04 #@! TO.N,CS_MB1*
X19431000Y7239000D02*
X19431000Y8890000D01*
X19431000Y19446023D02*
X18905385Y19971638D01*
X12771606Y8136106D02*
X14723894Y8136106D01*
X18905385Y19971638D02*
X18655386Y20221637D01*
X20100000Y11800000D02*
X19431000Y12469000D01*
X20100000Y9559000D02*
X20100000Y11800000D01*
X19431000Y12469000D02*
X19431000Y19446023D01*
X19431000Y8890000D02*
X20100000Y9559000D01*
X16510000Y6350000D02*
X18542000Y6350000D01*
X18542000Y6350000D02*
X19431000Y7239000D01*
X14723894Y8136106D02*
X16510000Y6350000D01*
X11493500Y6858000D02*
X12771606Y8136106D01*
G04 #@! TO.N,INT_HDC2010*
X26064835Y2062189D02*
X25668455Y2458569D01*
X25668455Y7393269D02*
X24997224Y8064500D01*
X22754561Y8415511D02*
X22504562Y8665510D01*
X24997224Y8064500D02*
X23105572Y8064500D01*
X23105572Y8064500D02*
X22754561Y8415511D01*
X25668455Y2458569D02*
X25668455Y7393269D01*
D19*
G04 #@! TO.N,ALT_IN*
X33250000Y8425000D02*
X32575500Y9099500D01*
X35075000Y31096447D02*
X35075000Y32021447D01*
X35075000Y32021447D02*
X35075000Y32375000D01*
X32575500Y28596947D02*
X35075000Y31096447D01*
X32575500Y9099500D02*
X32575500Y28596947D01*
D18*
G04 #@! TO.N,~CHG*
X28253499Y31627001D02*
X28003500Y31877000D01*
X31813500Y11620500D02*
X31813500Y28786500D01*
X31305500Y11112500D02*
X31813500Y11620500D01*
X31813500Y28786500D02*
X29850000Y30750000D01*
X29850000Y30750000D02*
X29125000Y30750000D01*
X29125000Y30750000D02*
X28253499Y31621501D01*
X28253499Y31621501D02*
X28253499Y31627001D01*
G04 #@! TO.N,~FLASH_CS*
X20955000Y11303000D02*
X20700978Y11557022D01*
X19812000Y6032500D02*
X20955000Y7175500D01*
X15862110Y6032500D02*
X19812000Y6032500D01*
X14199005Y7695605D02*
X15862110Y6032500D01*
X20955000Y7175500D02*
X20955000Y11303000D01*
X18957510Y21479106D02*
X18707511Y21729105D01*
X20700978Y11557022D02*
X20700978Y19735638D01*
X20700978Y19735638D02*
X18957510Y21479106D01*
G04 #@! TO.N,USER_BOOT*
X34036000Y15176500D02*
X33016011Y16196489D01*
X33016011Y16196489D02*
X33016011Y24543064D01*
X18224500Y24447500D02*
X18224500Y24574500D01*
X18480213Y29170989D02*
X19306714Y29170989D01*
X19306714Y29170989D02*
X20171224Y30035500D01*
X20171224Y30035500D02*
X25527000Y30035500D01*
X25527000Y30035500D02*
X26602501Y28959999D01*
X18224500Y28915276D02*
X18480213Y29170989D01*
X18224500Y24447500D02*
X18224500Y28915276D01*
X33016011Y26166011D02*
X33600000Y26750000D01*
X33016011Y24543064D02*
X33016011Y26166011D01*
X26602501Y28352505D02*
X26324998Y28075002D01*
X26602501Y28959999D02*
X26602501Y28352505D01*
X18224500Y20442695D02*
X18224500Y24447500D01*
X19597003Y11569603D02*
X18214884Y12951722D01*
X18214884Y12951722D02*
X18214884Y20433079D01*
X18214884Y20433079D02*
X18224500Y20442695D01*
G04 #@! TO.N,/USB Input/~MSP430_RST*
X36807000Y8151000D02*
X33202510Y11755490D01*
X33202510Y12854447D02*
X33202510Y13208000D01*
X33202510Y11755490D02*
X33202510Y12854447D01*
G04 #@! TO.N,Net-(R51-Pad1)*
X27559000Y11430000D02*
X28892500Y12763500D01*
X27559000Y7716000D02*
X27559000Y11430000D01*
X32300000Y2975000D02*
X27559000Y7716000D01*
X32300000Y2950000D02*
X32300000Y2975000D01*
G04 #@! TO.N,Net-(R49-Pad1)*
X25629005Y22376995D02*
X23114000Y24892000D01*
X23114000Y24892000D02*
X23114000Y27178000D01*
X25200000Y28700000D02*
X26122505Y28700000D01*
X23114000Y27178000D02*
X23876000Y27940000D01*
X23876000Y27940000D02*
X24440000Y27940000D01*
X24440000Y27940000D02*
X25200000Y28700000D01*
X26122505Y28700000D02*
X26149437Y28726932D01*
X25629005Y15506099D02*
X25629005Y22376995D01*
G04 #@! TO.N,Net-(R39-Pad2)*
X10749993Y24050001D02*
X10499994Y24300000D01*
X13521501Y21278493D02*
X10749993Y24050001D01*
X13521501Y19177378D02*
X13521501Y21278493D01*
X13500000Y19155877D02*
X13521501Y19177378D01*
X17272000Y15383877D02*
X13500000Y19155877D01*
X17272000Y12446000D02*
X17272000Y15383877D01*
X18255018Y11462982D02*
X17272000Y12446000D01*
X18255018Y7829358D02*
X18255018Y11462982D01*
X18505017Y7579359D02*
X18255018Y7829358D01*
G04 #@! TO.N,Net-(R40-Pad2)*
X14449006Y18634494D02*
X14449006Y22241104D01*
X17653000Y15430500D02*
X14449006Y18634494D01*
X18505009Y6935986D02*
X18982499Y7413476D01*
X18982499Y7413476D02*
X18982499Y8068501D01*
X18982499Y8068501D02*
X18732500Y8318500D01*
X18732500Y8318500D02*
X18732500Y11430000D01*
X14449006Y22241104D02*
X13560004Y23130106D01*
X18732500Y11430000D02*
X17653000Y12509500D01*
X13560004Y23130106D02*
X13310005Y23380105D01*
X17653000Y12509500D02*
X17653000Y15430500D01*
G04 #@! TD*
D22*
G04 #@! TO.N,GND*
G36*
X7874299Y31788242D02*
X7875325Y31777823D01*
X7875304Y31774795D01*
X7875631Y31771464D01*
X7885831Y31674415D01*
X7890199Y31653136D01*
X7894270Y31631794D01*
X7895238Y31628590D01*
X7924094Y31535371D01*
X7932502Y31515368D01*
X7940651Y31495199D01*
X7942223Y31492244D01*
X7988636Y31406406D01*
X8000765Y31388424D01*
X8012680Y31370217D01*
X8014795Y31367623D01*
X8076997Y31292434D01*
X8092396Y31277143D01*
X8107611Y31261605D01*
X8110190Y31259472D01*
X8185811Y31197796D01*
X8203882Y31185789D01*
X8221834Y31173497D01*
X8224771Y31171910D01*
X8224776Y31171907D01*
X8224781Y31171905D01*
X8310940Y31126094D01*
X8331018Y31117818D01*
X8350992Y31109257D01*
X8354187Y31108269D01*
X8354191Y31108267D01*
X8354195Y31108266D01*
X8447607Y31080063D01*
X8468897Y31075847D01*
X8490171Y31071325D01*
X8493495Y31070976D01*
X8493499Y31070976D01*
X8590617Y31061454D01*
X8590623Y31061454D01*
X8602238Y31060310D01*
X9225772Y31060310D01*
X9236124Y31061330D01*
X9239219Y31061308D01*
X9242550Y31061635D01*
X9339599Y31071835D01*
X9360878Y31076203D01*
X9382220Y31080274D01*
X9385424Y31081242D01*
X9478643Y31110098D01*
X9498649Y31118508D01*
X9518815Y31126655D01*
X9521765Y31128224D01*
X9521769Y31128226D01*
X9521772Y31128228D01*
X9607608Y31174640D01*
X9625590Y31186769D01*
X9643797Y31198684D01*
X9646391Y31200799D01*
X9721580Y31263001D01*
X9736871Y31278400D01*
X9752409Y31293615D01*
X9754542Y31296194D01*
X9816218Y31371815D01*
X9828225Y31389886D01*
X9840517Y31407838D01*
X9842104Y31410775D01*
X9842107Y31410780D01*
X9842109Y31410785D01*
X9887920Y31496944D01*
X9896196Y31517022D01*
X9904757Y31536996D01*
X9905746Y31540193D01*
X9933951Y31633611D01*
X9938167Y31654901D01*
X9942689Y31676175D01*
X9943038Y31679503D01*
X9952560Y31776621D01*
X9952560Y31776627D01*
X9953704Y31788242D01*
X9953704Y32053640D01*
X9973500Y32053640D01*
X9973500Y31954360D01*
X9992868Y31856989D01*
X10030861Y31765266D01*
X10086017Y31682718D01*
X10156218Y31612517D01*
X10238766Y31557361D01*
X10330489Y31519368D01*
X10427860Y31500000D01*
X10527140Y31500000D01*
X10624511Y31519368D01*
X10716234Y31557361D01*
X10798782Y31612517D01*
X10868983Y31682718D01*
X10924139Y31765266D01*
X10962132Y31856989D01*
X10981500Y31954360D01*
X10981500Y32053640D01*
X10962132Y32151011D01*
X10924139Y32242734D01*
X10868983Y32325282D01*
X10798782Y32395483D01*
X10716234Y32450639D01*
X10624511Y32488632D01*
X10527140Y32508000D01*
X10427860Y32508000D01*
X10330489Y32488632D01*
X10238766Y32450639D01*
X10156218Y32395483D01*
X10086017Y32325282D01*
X10030861Y32242734D01*
X9992868Y32151011D01*
X9973500Y32053640D01*
X9953704Y32053640D01*
X9953704Y33060310D01*
X11874298Y33060310D01*
X11874299Y31788242D01*
X11875318Y31777899D01*
X11875296Y31774795D01*
X11875623Y31771464D01*
X11885823Y31674415D01*
X11890191Y31653136D01*
X11894262Y31631794D01*
X11895230Y31628590D01*
X11924086Y31535371D01*
X11932494Y31515368D01*
X11940643Y31495199D01*
X11942215Y31492244D01*
X11988628Y31406406D01*
X12000757Y31388424D01*
X12012672Y31370217D01*
X12014787Y31367623D01*
X12076989Y31292434D01*
X12092388Y31277143D01*
X12107603Y31261605D01*
X12110182Y31259472D01*
X12185803Y31197796D01*
X12203874Y31185789D01*
X12221826Y31173497D01*
X12224763Y31171910D01*
X12224768Y31171907D01*
X12224773Y31171905D01*
X12310932Y31126094D01*
X12331010Y31117818D01*
X12350984Y31109257D01*
X12354179Y31108269D01*
X12354183Y31108267D01*
X12354187Y31108266D01*
X12447599Y31080063D01*
X12468889Y31075847D01*
X12490163Y31071325D01*
X12493487Y31070976D01*
X12493491Y31070976D01*
X12590609Y31061454D01*
X12590615Y31061454D01*
X12602230Y31060310D01*
X13225772Y31060310D01*
X13236124Y31061330D01*
X13239219Y31061308D01*
X13242550Y31061635D01*
X13339599Y31071835D01*
X13360878Y31076203D01*
X13382220Y31080274D01*
X13385424Y31081242D01*
X13478643Y31110098D01*
X13498649Y31118508D01*
X13518815Y31126655D01*
X13521765Y31128224D01*
X13521769Y31128226D01*
X13521772Y31128228D01*
X13607608Y31174640D01*
X13625590Y31186769D01*
X13643797Y31198684D01*
X13646391Y31200799D01*
X13721580Y31263001D01*
X13736871Y31278400D01*
X13752409Y31293615D01*
X13754542Y31296194D01*
X13816218Y31371815D01*
X13828225Y31389886D01*
X13840517Y31407838D01*
X13842104Y31410775D01*
X13842107Y31410780D01*
X13842109Y31410785D01*
X13887920Y31496944D01*
X13896196Y31517022D01*
X13904757Y31536996D01*
X13905746Y31540193D01*
X13933951Y31633611D01*
X13937446Y31651260D01*
X13957522Y31621213D01*
X14027723Y31551012D01*
X14110271Y31495856D01*
X14201994Y31457863D01*
X14299365Y31438495D01*
X14398645Y31438495D01*
X14496016Y31457863D01*
X14587739Y31495856D01*
X14670287Y31551012D01*
X14740488Y31621213D01*
X14795644Y31703761D01*
X14833637Y31795484D01*
X14853005Y31892855D01*
X14853005Y31992135D01*
X14833637Y32089506D01*
X14795644Y32181229D01*
X14740488Y32263777D01*
X14670287Y32333978D01*
X14587739Y32389134D01*
X14496016Y32427127D01*
X14398645Y32446495D01*
X14299365Y32446495D01*
X14201994Y32427127D01*
X14110271Y32389134D01*
X14027723Y32333978D01*
X13957522Y32263777D01*
X13953704Y32258063D01*
X13953704Y33060310D01*
X15874306Y33060310D01*
X15874307Y31788242D01*
X15875326Y31777899D01*
X15875304Y31774795D01*
X15875631Y31771464D01*
X15879016Y31739255D01*
X15859734Y31752139D01*
X15836737Y31761664D01*
X15814804Y31773388D01*
X15791007Y31780607D01*
X15768011Y31790132D01*
X15743598Y31794988D01*
X15719800Y31802207D01*
X15695049Y31804645D01*
X15670640Y31809500D01*
X15645753Y31809500D01*
X15621000Y31811938D01*
X15620999Y31811938D01*
X15611268Y31810979D01*
X15596246Y31809500D01*
X15571360Y31809500D01*
X15546951Y31804645D01*
X15522199Y31802207D01*
X15498399Y31794987D01*
X15473989Y31790132D01*
X15450996Y31780608D01*
X15427195Y31773388D01*
X15405259Y31761663D01*
X15382266Y31752139D01*
X15361572Y31738312D01*
X15339638Y31726588D01*
X15320415Y31710812D01*
X15299718Y31696983D01*
X15282116Y31679381D01*
X15262894Y31663606D01*
X15247119Y31644384D01*
X15229517Y31626782D01*
X15229515Y31626779D01*
X14456623Y30853886D01*
X14437395Y30838106D01*
X14421615Y30818878D01*
X14410056Y30804793D01*
X14374413Y30761362D01*
X14327612Y30673805D01*
X14298793Y30578801D01*
X14293499Y30525045D01*
X14289062Y30480000D01*
X14291500Y30455249D01*
X14291500Y30250754D01*
X14289062Y30226000D01*
X14291500Y30201247D01*
X14291501Y28804264D01*
X12188000Y26700763D01*
X12188000Y26719640D01*
X12168632Y26817011D01*
X12130639Y26908734D01*
X12075483Y26991282D01*
X12005282Y27061483D01*
X11922734Y27116639D01*
X11831011Y27154632D01*
X11733640Y27174000D01*
X11634360Y27174000D01*
X11536989Y27154632D01*
X11445266Y27116639D01*
X11362718Y27061483D01*
X11292517Y26991282D01*
X11237361Y26908734D01*
X11199368Y26817011D01*
X11180000Y26719640D01*
X11180000Y26620360D01*
X11199368Y26522989D01*
X11237361Y26431266D01*
X11277963Y26370500D01*
X10791254Y26370500D01*
X10766500Y26372938D01*
X10667698Y26363207D01*
X10652238Y26358517D01*
X10572695Y26334388D01*
X10485138Y26287588D01*
X10408394Y26224606D01*
X10392610Y26205373D01*
X9534120Y25346883D01*
X9514887Y25331099D01*
X9451905Y25254355D01*
X9405105Y25166797D01*
X9399628Y25148741D01*
X9376286Y25071794D01*
X9366555Y24972993D01*
X9368993Y24948239D01*
X9368994Y23845732D01*
X9366555Y23820969D01*
X9376286Y23722168D01*
X9398179Y23650000D01*
X9405106Y23627164D01*
X9451906Y23539607D01*
X9514888Y23462863D01*
X9534116Y23447083D01*
X11450423Y21530775D01*
X11445266Y21528639D01*
X11362718Y21473483D01*
X11292517Y21403282D01*
X11237361Y21320734D01*
X11199368Y21229011D01*
X11180000Y21131640D01*
X11180000Y21032360D01*
X11199368Y20934989D01*
X11237361Y20843266D01*
X11292517Y20760718D01*
X11362718Y20690517D01*
X11445266Y20635361D01*
X11536989Y20597368D01*
X11634360Y20578000D01*
X11733640Y20578000D01*
X11831011Y20597368D01*
X11863490Y20610821D01*
X11863491Y19407273D01*
X11861052Y19382510D01*
X11870783Y19283709D01*
X11889979Y19220431D01*
X11899603Y19188705D01*
X11946403Y19101148D01*
X12009385Y19024404D01*
X12028613Y19008624D01*
X15053500Y15983736D01*
X15053501Y10432264D01*
X14713737Y10092500D01*
X10375250Y10092500D01*
X10350499Y10094938D01*
X10325748Y10092500D01*
X10325746Y10092500D01*
X10251699Y10085207D01*
X10156695Y10056388D01*
X10069138Y10009588D01*
X9992394Y9946606D01*
X9976614Y9927378D01*
X9436121Y9386884D01*
X9203724Y9154487D01*
X9203718Y9154483D01*
X9133517Y9084282D01*
X9119684Y9063579D01*
X9103913Y9044362D01*
X9092193Y9022435D01*
X9078361Y9001734D01*
X9068833Y8978732D01*
X9057113Y8956805D01*
X9049895Y8933011D01*
X9040368Y8910011D01*
X9035512Y8885599D01*
X9028293Y8861801D01*
X9025855Y8837049D01*
X9021000Y8812640D01*
X9021000Y8787754D01*
X9018562Y8763000D01*
X9021000Y8738246D01*
X9021000Y8713360D01*
X9025855Y8688951D01*
X9028293Y8664199D01*
X9035512Y8640401D01*
X9040368Y8615989D01*
X9049895Y8592989D01*
X9057113Y8569195D01*
X9068833Y8547268D01*
X9078361Y8524266D01*
X9092193Y8503565D01*
X9103913Y8481638D01*
X9119683Y8462423D01*
X9130990Y8445500D01*
X9078361Y8366734D01*
X9040368Y8275011D01*
X9021000Y8177640D01*
X9021000Y8078360D01*
X9040368Y7980989D01*
X9078361Y7889266D01*
X9133517Y7806718D01*
X9203718Y7736517D01*
X9286266Y7681361D01*
X9377989Y7643368D01*
X9475360Y7624000D01*
X9574640Y7624000D01*
X9672011Y7643368D01*
X9763734Y7681361D01*
X9846282Y7736517D01*
X9916483Y7806718D01*
X9971639Y7889266D01*
X10009632Y7980989D01*
X10029000Y8078360D01*
X10029000Y8177640D01*
X10009632Y8275011D01*
X9971639Y8366734D01*
X9919512Y8444749D01*
X10148884Y8674121D01*
X10559264Y9084500D01*
X14897746Y9084500D01*
X14922500Y9082062D01*
X14972586Y9086995D01*
X14899896Y9038426D01*
X14829695Y8968225D01*
X14774539Y8885677D01*
X14736546Y8793954D01*
X14717178Y8696583D01*
X14717178Y8597303D01*
X14736546Y8499932D01*
X14756426Y8451938D01*
X14739490Y8453606D01*
X14723894Y8455142D01*
X14708298Y8453606D01*
X12787202Y8453606D01*
X12771606Y8455142D01*
X12756010Y8453606D01*
X12709365Y8449012D01*
X12649516Y8430857D01*
X12594359Y8401375D01*
X12546013Y8361699D01*
X12536069Y8349582D01*
X11547601Y7361113D01*
X11543140Y7362000D01*
X11443860Y7362000D01*
X11346489Y7342632D01*
X11254766Y7304639D01*
X11172218Y7249483D01*
X11102017Y7179282D01*
X11046861Y7096734D01*
X11008868Y7005011D01*
X10989500Y6907640D01*
X10989500Y6808360D01*
X11008868Y6710989D01*
X11046861Y6619266D01*
X11102017Y6536718D01*
X11172218Y6466517D01*
X11254766Y6411361D01*
X11346489Y6373368D01*
X11443860Y6354000D01*
X11543140Y6354000D01*
X11640511Y6373368D01*
X11732234Y6411361D01*
X11814782Y6466517D01*
X11884983Y6536718D01*
X11940139Y6619266D01*
X11978132Y6710989D01*
X11997500Y6808360D01*
X11997500Y6907640D01*
X11996613Y6912101D01*
X12903119Y7818606D01*
X13709597Y7818606D01*
X13695005Y7745245D01*
X13695005Y7645965D01*
X13714373Y7548594D01*
X13752366Y7456871D01*
X13807522Y7374323D01*
X13877723Y7304122D01*
X13960271Y7248966D01*
X14051994Y7210973D01*
X14149365Y7191605D01*
X14248645Y7191605D01*
X14253106Y7192492D01*
X15413097Y6032500D01*
X7839602Y6032500D01*
X7824009Y6034036D01*
X7808416Y6032500D01*
X7808414Y6032500D01*
X7761769Y6027906D01*
X7701920Y6009751D01*
X7646763Y5980269D01*
X7598417Y5940593D01*
X7588468Y5928470D01*
X7522106Y5862108D01*
X7517645Y5862995D01*
X7418365Y5862995D01*
X7320994Y5843627D01*
X7229271Y5805634D01*
X7146723Y5750478D01*
X7076522Y5680277D01*
X7021366Y5597729D01*
X6983373Y5506006D01*
X6964005Y5408635D01*
X6964005Y5309355D01*
X6983373Y5211984D01*
X7021366Y5120261D01*
X7076522Y5037713D01*
X7146723Y4967512D01*
X7229271Y4912356D01*
X7320994Y4874363D01*
X7418365Y4854995D01*
X7517645Y4854995D01*
X7615016Y4874363D01*
X7706739Y4912356D01*
X7789287Y4967512D01*
X7859488Y5037713D01*
X7914644Y5120261D01*
X7952637Y5211984D01*
X7972005Y5309355D01*
X7972005Y5397500D01*
X13315825Y5397500D01*
X13301231Y5324130D01*
X13301231Y5224850D01*
X13320599Y5127479D01*
X13358592Y5035756D01*
X13413748Y4953208D01*
X13483949Y4883007D01*
X13566497Y4827851D01*
X13658220Y4789858D01*
X13755591Y4770490D01*
X13854871Y4770490D01*
X13952242Y4789858D01*
X14043965Y4827851D01*
X14126513Y4883007D01*
X14141616Y4898110D01*
X14156718Y4883007D01*
X14239266Y4827851D01*
X14330989Y4789858D01*
X14428360Y4770490D01*
X14527640Y4770490D01*
X14625011Y4789858D01*
X14716734Y4827851D01*
X14788256Y4875640D01*
X15561500Y4875640D01*
X15561500Y4776360D01*
X15580868Y4678989D01*
X15618861Y4587266D01*
X15674017Y4504718D01*
X15744218Y4434517D01*
X15826766Y4379361D01*
X15918489Y4341368D01*
X16015860Y4322000D01*
X16115140Y4322000D01*
X16212511Y4341368D01*
X16304234Y4379361D01*
X16386782Y4434517D01*
X16456983Y4504718D01*
X16512139Y4587266D01*
X16550132Y4678989D01*
X16569500Y4776360D01*
X16569500Y4875640D01*
X19625502Y4875640D01*
X19625502Y4776360D01*
X19644870Y4678989D01*
X19682863Y4587266D01*
X19738019Y4504718D01*
X19808220Y4434517D01*
X19890768Y4379361D01*
X19982491Y4341368D01*
X20079862Y4322000D01*
X20179142Y4322000D01*
X20276513Y4341368D01*
X20368236Y4379361D01*
X20450784Y4434517D01*
X20520985Y4504718D01*
X20576141Y4587266D01*
X20614134Y4678989D01*
X20633502Y4776360D01*
X20633502Y4875640D01*
X20614134Y4973011D01*
X20576141Y5064734D01*
X20520985Y5147282D01*
X20450784Y5217483D01*
X20368236Y5272639D01*
X20276513Y5310632D01*
X20179142Y5330000D01*
X20079862Y5330000D01*
X19982491Y5310632D01*
X19890768Y5272639D01*
X19808220Y5217483D01*
X19738019Y5147282D01*
X19682863Y5064734D01*
X19644870Y4973011D01*
X19625502Y4875640D01*
X16569500Y4875640D01*
X16550132Y4973011D01*
X16512139Y5064734D01*
X16456983Y5147282D01*
X16386782Y5217483D01*
X16304234Y5272639D01*
X16212511Y5310632D01*
X16115140Y5330000D01*
X16015860Y5330000D01*
X15918489Y5310632D01*
X15826766Y5272639D01*
X15744218Y5217483D01*
X15674017Y5147282D01*
X15618861Y5064734D01*
X15580868Y4973011D01*
X15561500Y4875640D01*
X14788256Y4875640D01*
X14799282Y4883007D01*
X14869483Y4953208D01*
X14924639Y5035756D01*
X14962632Y5127479D01*
X14982000Y5224850D01*
X14982000Y5324130D01*
X14970163Y5383640D01*
X22229000Y5383640D01*
X22229000Y5284360D01*
X22248368Y5186989D01*
X22286361Y5095266D01*
X22341517Y5012718D01*
X22411718Y4942517D01*
X22494266Y4887361D01*
X22585989Y4849368D01*
X22683360Y4830000D01*
X22782640Y4830000D01*
X22880011Y4849368D01*
X22971734Y4887361D01*
X23054282Y4942517D01*
X23124483Y5012718D01*
X23179639Y5095266D01*
X23217632Y5186989D01*
X23237000Y5284360D01*
X23237000Y5383640D01*
X23217632Y5481011D01*
X23179639Y5572734D01*
X23124483Y5655282D01*
X23054282Y5725483D01*
X22971734Y5780639D01*
X22880011Y5818632D01*
X22782640Y5838000D01*
X22683360Y5838000D01*
X22585989Y5818632D01*
X22494266Y5780639D01*
X22411718Y5725483D01*
X22341517Y5655282D01*
X22286361Y5572734D01*
X22248368Y5481011D01*
X22229000Y5383640D01*
X14970163Y5383640D01*
X14967406Y5397500D01*
X19923404Y5397500D01*
X19939000Y5395964D01*
X19954596Y5397500D01*
X20001241Y5402094D01*
X20061090Y5420249D01*
X20116247Y5449731D01*
X20164593Y5489407D01*
X20174542Y5501530D01*
X21422487Y6749474D01*
X21434604Y6759418D01*
X21474280Y6807764D01*
X21503762Y6862921D01*
X21521917Y6922770D01*
X21526511Y6969415D01*
X21528047Y6985011D01*
X21526511Y7000607D01*
X21526511Y7678977D01*
X22243463Y6962024D01*
X22253407Y6949907D01*
X22292896Y6917500D01*
X22301753Y6910231D01*
X22356910Y6880749D01*
X22416759Y6862594D01*
X22479000Y6856464D01*
X22494596Y6858000D01*
X23918505Y6858000D01*
X23918505Y6820465D01*
X23937873Y6723094D01*
X23975866Y6631371D01*
X24031022Y6548823D01*
X24101223Y6478622D01*
X24183771Y6423466D01*
X24275494Y6385473D01*
X24372865Y6366105D01*
X24472145Y6366105D01*
X24569516Y6385473D01*
X24661239Y6423466D01*
X24743787Y6478622D01*
X24765000Y6499835D01*
X24765001Y1883106D01*
X24763464Y1867500D01*
X24769594Y1805260D01*
X24787749Y1745411D01*
X24795481Y1730946D01*
X24817232Y1690253D01*
X24856908Y1641907D01*
X24869025Y1631963D01*
X25889463Y611524D01*
X25899407Y599407D01*
X25928151Y575818D01*
X25947753Y559731D01*
X26002910Y530249D01*
X26062759Y512094D01*
X26125000Y505964D01*
X26140596Y507500D01*
X28659404Y507500D01*
X28675000Y505964D01*
X28690596Y507500D01*
X28737241Y512094D01*
X28797090Y530249D01*
X28852247Y559731D01*
X28900593Y599407D01*
X28910542Y611530D01*
X29306513Y1007500D01*
X30737988Y1007500D01*
X31233963Y511524D01*
X31243907Y499407D01*
X31292253Y459731D01*
X31347410Y430249D01*
X31407259Y412094D01*
X31453904Y407500D01*
X31453906Y407500D01*
X31469499Y405964D01*
X31485092Y407500D01*
X34534404Y407500D01*
X34550000Y405964D01*
X34565596Y407500D01*
X34612241Y412094D01*
X34672090Y430249D01*
X34727247Y459731D01*
X34775593Y499407D01*
X34785542Y511529D01*
X35220900Y946887D01*
X35225360Y946000D01*
X35324640Y946000D01*
X35422011Y965368D01*
X35513734Y1003361D01*
X35596282Y1058517D01*
X35666483Y1128718D01*
X35721639Y1211266D01*
X35759632Y1302989D01*
X35779000Y1400360D01*
X35779000Y1499640D01*
X35759632Y1597011D01*
X35721639Y1688734D01*
X35666483Y1771282D01*
X35596282Y1841483D01*
X35513734Y1896639D01*
X35422011Y1934632D01*
X35324640Y1954000D01*
X35225360Y1954000D01*
X35127989Y1934632D01*
X35036266Y1896639D01*
X34953718Y1841483D01*
X34883517Y1771282D01*
X34828361Y1688734D01*
X34790368Y1597011D01*
X34771000Y1499640D01*
X34771000Y1400360D01*
X34771887Y1395900D01*
X34418488Y1042500D01*
X33111093Y1042500D01*
X33150782Y1069019D01*
X33220983Y1139220D01*
X33276139Y1221768D01*
X33314132Y1313491D01*
X33333500Y1410862D01*
X33333500Y1510142D01*
X33314132Y1607513D01*
X33276139Y1699236D01*
X33220983Y1781784D01*
X33150782Y1851985D01*
X33068234Y1907141D01*
X33013339Y1929879D01*
X33860329Y2776869D01*
X33882577Y2776869D01*
X33885104Y2773087D01*
X33955305Y2702886D01*
X34037853Y2647730D01*
X34129576Y2609737D01*
X34226947Y2590369D01*
X34326227Y2590369D01*
X34423598Y2609737D01*
X34515321Y2647730D01*
X34597869Y2702886D01*
X34668070Y2773087D01*
X34723226Y2855635D01*
X34761219Y2947358D01*
X34780587Y3044729D01*
X34780587Y3144009D01*
X34761219Y3241380D01*
X34723226Y3333103D01*
X34668070Y3415651D01*
X34597869Y3485852D01*
X34594087Y3488379D01*
X34594087Y4526075D01*
X34834246Y4766234D01*
X34814500Y4718563D01*
X34785705Y4573800D01*
X34785705Y4426200D01*
X34814500Y4281437D01*
X34870984Y4145073D01*
X34952985Y4022349D01*
X35057354Y3917980D01*
X35180078Y3835979D01*
X35316442Y3779495D01*
X35461205Y3750700D01*
X35608805Y3750700D01*
X35753568Y3779495D01*
X35889932Y3835979D01*
X36012656Y3917980D01*
X36117025Y4022349D01*
X36199026Y4145073D01*
X36255510Y4281437D01*
X36284305Y4426200D01*
X36284305Y4573800D01*
X36255510Y4718563D01*
X36199026Y4854927D01*
X36117025Y4977651D01*
X36012656Y5082020D01*
X35889932Y5164021D01*
X35753568Y5220505D01*
X35608805Y5249300D01*
X35461205Y5249300D01*
X35316442Y5220505D01*
X35268771Y5200759D01*
X37932477Y7864464D01*
X37944593Y7874407D01*
X37984269Y7922753D01*
X38013751Y7977910D01*
X38031906Y8037759D01*
X38036500Y8084404D01*
X38036500Y8084406D01*
X38038036Y8099999D01*
X38036500Y8115592D01*
X38036500Y16811905D01*
X38038036Y16827501D01*
X38031906Y16889741D01*
X38013751Y16949590D01*
X38012270Y16952361D01*
X37984269Y17004747D01*
X37944593Y17053093D01*
X37932476Y17063037D01*
X37650613Y17344900D01*
X37651500Y17349360D01*
X37651500Y17448640D01*
X37632132Y17546011D01*
X37594139Y17637734D01*
X37538983Y17720282D01*
X37468782Y17790483D01*
X37386234Y17845639D01*
X37294511Y17883632D01*
X37197140Y17903000D01*
X37097860Y17903000D01*
X37000489Y17883632D01*
X36908766Y17845639D01*
X36826218Y17790483D01*
X36756017Y17720282D01*
X36700861Y17637734D01*
X36662868Y17546011D01*
X36643500Y17448640D01*
X36643500Y17349360D01*
X36662868Y17251989D01*
X36700861Y17160266D01*
X36756017Y17077718D01*
X36826218Y17007517D01*
X36908766Y16952361D01*
X37000489Y16914368D01*
X37097860Y16895000D01*
X37197140Y16895000D01*
X37201600Y16895887D01*
X37401501Y16695986D01*
X37401500Y8231513D01*
X37311000Y8141013D01*
X37311000Y8200640D01*
X37291632Y8298011D01*
X37253639Y8389734D01*
X37198483Y8472282D01*
X37128282Y8542483D01*
X37045734Y8597639D01*
X36954011Y8635632D01*
X36856640Y8655000D01*
X36757360Y8655000D01*
X36752900Y8654113D01*
X33520010Y11887002D01*
X33520010Y12813990D01*
X33523792Y12816517D01*
X33593993Y12886718D01*
X33649149Y12969266D01*
X33687142Y13060989D01*
X33706510Y13158360D01*
X33706510Y13257640D01*
X33687142Y13355011D01*
X33649149Y13446734D01*
X33593993Y13529282D01*
X33523792Y13599483D01*
X33441244Y13654639D01*
X33349521Y13692632D01*
X33252150Y13712000D01*
X33152870Y13712000D01*
X33079500Y13697406D01*
X33079500Y15683988D01*
X33532887Y15230600D01*
X33532000Y15226140D01*
X33532000Y15126860D01*
X33551368Y15029489D01*
X33589361Y14937766D01*
X33644517Y14855218D01*
X33714718Y14785017D01*
X33797266Y14729861D01*
X33888989Y14691868D01*
X33986360Y14672500D01*
X34085640Y14672500D01*
X34183011Y14691868D01*
X34274734Y14729861D01*
X34357282Y14785017D01*
X34427483Y14855218D01*
X34482639Y14937766D01*
X34520632Y15029489D01*
X34540000Y15126860D01*
X34540000Y15226140D01*
X34520632Y15323511D01*
X34482639Y15415234D01*
X34427483Y15497782D01*
X34357282Y15567983D01*
X34274734Y15623139D01*
X34183011Y15661132D01*
X34085640Y15680500D01*
X33986360Y15680500D01*
X33981900Y15679613D01*
X33333511Y16328001D01*
X33333511Y18018669D01*
X35499505Y18018669D01*
X35499505Y17909541D01*
X35520794Y17802509D01*
X35562556Y17701687D01*
X35623185Y17610950D01*
X35700350Y17533785D01*
X35791087Y17473156D01*
X35891909Y17431394D01*
X35998941Y17410105D01*
X36108069Y17410105D01*
X36215101Y17431394D01*
X36315923Y17473156D01*
X36406660Y17533785D01*
X36483825Y17610950D01*
X36544454Y17701687D01*
X36586216Y17802509D01*
X36607505Y17909541D01*
X36607505Y18018669D01*
X36586216Y18125701D01*
X36544454Y18226523D01*
X36483825Y18317260D01*
X36406660Y18394425D01*
X36315923Y18455054D01*
X36215101Y18496816D01*
X36108069Y18518105D01*
X35998941Y18518105D01*
X35891909Y18496816D01*
X35791087Y18455054D01*
X35700350Y18394425D01*
X35623185Y18317260D01*
X35562556Y18226523D01*
X35520794Y18125701D01*
X35499505Y18018669D01*
X33333511Y18018669D01*
X33333511Y20755910D01*
X33406317Y20725753D01*
X33503688Y20706385D01*
X33602968Y20706385D01*
X33700339Y20725753D01*
X33792062Y20763746D01*
X33874610Y20818902D01*
X33944811Y20889103D01*
X33999967Y20971651D01*
X34037960Y21063374D01*
X34057328Y21160745D01*
X34057328Y21260025D01*
X34037960Y21357396D01*
X33999967Y21449119D01*
X33944811Y21531667D01*
X33874610Y21601868D01*
X33792062Y21657024D01*
X33700339Y21695017D01*
X33602968Y21714385D01*
X33503688Y21714385D01*
X33406317Y21695017D01*
X33333511Y21664860D01*
X33333511Y21788088D01*
X33419494Y21752473D01*
X33516865Y21733105D01*
X33616145Y21733105D01*
X33713516Y21752473D01*
X33805239Y21790466D01*
X33887787Y21845622D01*
X33957988Y21915823D01*
X34013144Y21998371D01*
X34051137Y22090094D01*
X34070505Y22187465D01*
X34070505Y22286745D01*
X34051137Y22384116D01*
X34040563Y22409645D01*
X38206005Y22409645D01*
X38206005Y22310365D01*
X38225373Y22212994D01*
X38263366Y22121271D01*
X38318522Y22038723D01*
X38388723Y21968522D01*
X38471271Y21913366D01*
X38562994Y21875373D01*
X38660365Y21856005D01*
X38759645Y21856005D01*
X38857016Y21875373D01*
X38948739Y21913366D01*
X39031287Y21968522D01*
X39101488Y22038723D01*
X39156644Y22121271D01*
X39194637Y22212994D01*
X39214005Y22310365D01*
X39214005Y22409645D01*
X39194637Y22507016D01*
X39156644Y22598739D01*
X39101488Y22681287D01*
X39031287Y22751488D01*
X38948739Y22806644D01*
X38857016Y22844637D01*
X38759645Y22864005D01*
X38660365Y22864005D01*
X38562994Y22844637D01*
X38471271Y22806644D01*
X38388723Y22751488D01*
X38318522Y22681287D01*
X38263366Y22598739D01*
X38225373Y22507016D01*
X38206005Y22409645D01*
X34040563Y22409645D01*
X34013144Y22475839D01*
X33957988Y22558387D01*
X33887787Y22628588D01*
X33805239Y22683744D01*
X33713516Y22721737D01*
X33616145Y22741105D01*
X33516865Y22741105D01*
X33419494Y22721737D01*
X33333511Y22686122D01*
X33333511Y23552913D01*
X33355589Y23543768D01*
X33381178Y23538678D01*
X33386268Y23513089D01*
X33424261Y23421366D01*
X33479417Y23338818D01*
X33549618Y23268617D01*
X33632166Y23213461D01*
X33723889Y23175468D01*
X33821260Y23156100D01*
X33920540Y23156100D01*
X34017911Y23175468D01*
X34109634Y23213461D01*
X34192182Y23268617D01*
X34262383Y23338818D01*
X34317539Y23421366D01*
X34355532Y23513089D01*
X34374900Y23610460D01*
X34374900Y23709740D01*
X34357212Y23798669D01*
X35499505Y23798669D01*
X35499505Y23689541D01*
X35520794Y23582509D01*
X35562556Y23481687D01*
X35623185Y23390950D01*
X35700350Y23313785D01*
X35791087Y23253156D01*
X35891909Y23211394D01*
X35998941Y23190105D01*
X36108069Y23190105D01*
X36215101Y23211394D01*
X36315923Y23253156D01*
X36406660Y23313785D01*
X36483825Y23390950D01*
X36544454Y23481687D01*
X36586216Y23582509D01*
X36607505Y23689541D01*
X36607505Y23798669D01*
X36586216Y23905701D01*
X36544454Y24006523D01*
X36483825Y24097260D01*
X36406660Y24174425D01*
X36315923Y24235054D01*
X36215101Y24276816D01*
X36108069Y24298105D01*
X35998941Y24298105D01*
X35891909Y24276816D01*
X35791087Y24235054D01*
X35700350Y24174425D01*
X35623185Y24097260D01*
X35562556Y24006523D01*
X35520794Y23905701D01*
X35499505Y23798669D01*
X34357212Y23798669D01*
X34355532Y23807111D01*
X34317539Y23898834D01*
X34262383Y23981382D01*
X34192182Y24051583D01*
X34109634Y24106739D01*
X34017911Y24144732D01*
X33992322Y24149822D01*
X33987232Y24175411D01*
X33949239Y24267134D01*
X33894083Y24349682D01*
X33823882Y24419883D01*
X33741334Y24475039D01*
X33649611Y24513032D01*
X33552240Y24532400D01*
X33452960Y24532400D01*
X33355589Y24513032D01*
X33333511Y24503887D01*
X33333511Y26034499D01*
X33545900Y26246887D01*
X33550360Y26246000D01*
X33649640Y26246000D01*
X33747011Y26265368D01*
X33838734Y26303361D01*
X33921282Y26358517D01*
X33991483Y26428718D01*
X34046639Y26511266D01*
X34084632Y26602989D01*
X34104000Y26700360D01*
X34104000Y26799640D01*
X34084632Y26897011D01*
X34046639Y26988734D01*
X33991483Y27071282D01*
X33921282Y27141483D01*
X33838734Y27196639D01*
X33747011Y27234632D01*
X33649640Y27254000D01*
X33550360Y27254000D01*
X33452989Y27234632D01*
X33361266Y27196639D01*
X33278718Y27141483D01*
X33208517Y27071282D01*
X33153361Y26988734D01*
X33115368Y26897011D01*
X33096000Y26799640D01*
X33096000Y26700360D01*
X33096887Y26695900D01*
X33079500Y26678512D01*
X33079500Y27524640D01*
X35596000Y27524640D01*
X35596000Y27425360D01*
X35615368Y27327989D01*
X35653361Y27236266D01*
X35708517Y27153718D01*
X35778718Y27083517D01*
X35861266Y27028361D01*
X35952989Y26990368D01*
X36050360Y26971000D01*
X36149640Y26971000D01*
X36247011Y26990368D01*
X36338734Y27028361D01*
X36421282Y27083517D01*
X36491483Y27153718D01*
X36546639Y27236266D01*
X36584632Y27327989D01*
X36604000Y27425360D01*
X36604000Y27524640D01*
X36584632Y27622011D01*
X36546639Y27713734D01*
X36491483Y27796282D01*
X36421282Y27866483D01*
X36338734Y27921639D01*
X36247011Y27959632D01*
X36149640Y27979000D01*
X36050360Y27979000D01*
X35952989Y27959632D01*
X35861266Y27921639D01*
X35778718Y27866483D01*
X35708517Y27796282D01*
X35653361Y27713734D01*
X35615368Y27622011D01*
X35596000Y27524640D01*
X33079500Y27524640D01*
X33079500Y28388184D01*
X35413873Y30722557D01*
X35433106Y30738341D01*
X35496088Y30815085D01*
X35542888Y30902642D01*
X35568781Y30988000D01*
X35571707Y30997645D01*
X35581438Y31096447D01*
X35579000Y31121201D01*
X35579000Y32424640D01*
X35574145Y32449050D01*
X35571707Y32473800D01*
X35564488Y32497599D01*
X35559632Y32522011D01*
X35550108Y32545005D01*
X35542888Y32568805D01*
X35531163Y32590741D01*
X35521639Y32613734D01*
X35507812Y32634428D01*
X35496088Y32656362D01*
X35480312Y32675585D01*
X35466483Y32696282D01*
X35448881Y32713884D01*
X35433106Y32733106D01*
X35413884Y32748881D01*
X35396282Y32766483D01*
X35375585Y32780312D01*
X35356362Y32796088D01*
X35334428Y32807812D01*
X35313734Y32821639D01*
X35290741Y32831163D01*
X35268805Y32842888D01*
X35245004Y32850108D01*
X35222011Y32859632D01*
X35197601Y32864487D01*
X35173801Y32871707D01*
X35149049Y32874145D01*
X35124640Y32879000D01*
X35099754Y32879000D01*
X35075000Y32881438D01*
X35050247Y32879000D01*
X35025360Y32879000D01*
X35000951Y32874145D01*
X34976200Y32871707D01*
X34952402Y32864488D01*
X34927989Y32859632D01*
X34904993Y32850107D01*
X34881196Y32842888D01*
X34859264Y32831165D01*
X34836266Y32821639D01*
X34815568Y32807809D01*
X34793639Y32796088D01*
X34774420Y32780315D01*
X34753718Y32766483D01*
X34736112Y32748877D01*
X34716895Y32733106D01*
X34701124Y32713889D01*
X34683517Y32696282D01*
X34669684Y32675579D01*
X34653913Y32656362D01*
X34642193Y32634435D01*
X34628361Y32613734D01*
X34618833Y32590732D01*
X34607113Y32568805D01*
X34599895Y32545011D01*
X34590368Y32522011D01*
X34585512Y32497599D01*
X34578293Y32473801D01*
X34575855Y32449049D01*
X34571000Y32424640D01*
X34571000Y31996694D01*
X34571001Y31996684D01*
X34571000Y31305210D01*
X32347669Y29081879D01*
X32332779Y29109737D01*
X32293103Y29158083D01*
X32280987Y29168026D01*
X31389373Y30059640D01*
X32006000Y30059640D01*
X32006000Y29960360D01*
X32025368Y29862989D01*
X32063361Y29771266D01*
X32118517Y29688718D01*
X32188718Y29618517D01*
X32271266Y29563361D01*
X32362989Y29525368D01*
X32460360Y29506000D01*
X32559640Y29506000D01*
X32657011Y29525368D01*
X32748734Y29563361D01*
X32831282Y29618517D01*
X32901483Y29688718D01*
X32956639Y29771266D01*
X32994632Y29862989D01*
X33014000Y29960360D01*
X33014000Y30059640D01*
X32994632Y30157011D01*
X32956639Y30248734D01*
X32901483Y30331282D01*
X32831282Y30401483D01*
X32748734Y30456639D01*
X32657011Y30494632D01*
X32559640Y30514000D01*
X32460360Y30514000D01*
X32362989Y30494632D01*
X32271266Y30456639D01*
X32188718Y30401483D01*
X32118517Y30331282D01*
X32063361Y30248734D01*
X32025368Y30157011D01*
X32006000Y30059640D01*
X31389373Y30059640D01*
X30191147Y31257866D01*
X30443500Y31257866D01*
X30443500Y31188134D01*
X30457104Y31119742D01*
X30483789Y31055318D01*
X30522530Y30997338D01*
X30571838Y30948030D01*
X30629818Y30909289D01*
X30694242Y30882604D01*
X30762634Y30869000D01*
X30832366Y30869000D01*
X30900758Y30882604D01*
X30965182Y30909289D01*
X31023162Y30948030D01*
X31072470Y30997338D01*
X31111211Y31055318D01*
X31137896Y31119742D01*
X31151500Y31188134D01*
X31151500Y31257866D01*
X31137896Y31326258D01*
X31111211Y31390682D01*
X31072470Y31448662D01*
X31023162Y31497970D01*
X30965182Y31536711D01*
X30900758Y31563396D01*
X30832366Y31577000D01*
X30762634Y31577000D01*
X30694242Y31563396D01*
X30629818Y31536711D01*
X30571838Y31497970D01*
X30522530Y31448662D01*
X30483789Y31390682D01*
X30457104Y31326258D01*
X30443500Y31257866D01*
X30191147Y31257866D01*
X30002304Y31446708D01*
X29992355Y31458831D01*
X29944009Y31498507D01*
X29888852Y31527989D01*
X29829003Y31546144D01*
X29782358Y31550738D01*
X29766762Y31552274D01*
X29751166Y31550738D01*
X29658748Y31550738D01*
X29656221Y31554520D01*
X29586020Y31624721D01*
X29503472Y31679877D01*
X29411749Y31717870D01*
X29314378Y31737238D01*
X29215098Y31737238D01*
X29117727Y31717870D01*
X29026004Y31679877D01*
X28943456Y31624721D01*
X28873255Y31554520D01*
X28831694Y31492319D01*
X28514209Y31809803D01*
X28505998Y31819808D01*
X28507500Y31827360D01*
X28507500Y31926640D01*
X28488132Y32024011D01*
X28474109Y32057866D01*
X30443500Y32057866D01*
X30443500Y31988134D01*
X30457104Y31919742D01*
X30483789Y31855318D01*
X30522530Y31797338D01*
X30571838Y31748030D01*
X30629818Y31709289D01*
X30694242Y31682604D01*
X30762634Y31669000D01*
X30832366Y31669000D01*
X30900758Y31682604D01*
X30965182Y31709289D01*
X31023162Y31748030D01*
X31072470Y31797338D01*
X31111211Y31855318D01*
X31137896Y31919742D01*
X31151500Y31988134D01*
X31151500Y32057866D01*
X31137896Y32126258D01*
X31111211Y32190682D01*
X31072470Y32248662D01*
X31023162Y32297970D01*
X30965182Y32336711D01*
X30900758Y32363396D01*
X30832366Y32377000D01*
X30762634Y32377000D01*
X30694242Y32363396D01*
X30629818Y32336711D01*
X30571838Y32297970D01*
X30522530Y32248662D01*
X30483789Y32190682D01*
X30457104Y32126258D01*
X30443500Y32057866D01*
X28474109Y32057866D01*
X28450139Y32115734D01*
X28394983Y32198282D01*
X28324782Y32268483D01*
X28242234Y32323639D01*
X28150511Y32361632D01*
X28053140Y32381000D01*
X27953860Y32381000D01*
X27856489Y32361632D01*
X27764766Y32323639D01*
X27682218Y32268483D01*
X27622500Y32208765D01*
X27562782Y32268483D01*
X27480234Y32323639D01*
X27388511Y32361632D01*
X27291140Y32381000D01*
X27191860Y32381000D01*
X27094489Y32361632D01*
X27002766Y32323639D01*
X26924736Y32271502D01*
X26891475Y32321282D01*
X26821274Y32391483D01*
X26738726Y32446639D01*
X26647003Y32484632D01*
X26549632Y32504000D01*
X26450352Y32504000D01*
X26352981Y32484632D01*
X26261258Y32446639D01*
X26178710Y32391483D01*
X26108509Y32321282D01*
X26053353Y32238734D01*
X26015360Y32147011D01*
X25995992Y32049640D01*
X25995992Y31950360D01*
X26015360Y31852989D01*
X26053353Y31761266D01*
X26108509Y31678718D01*
X26178710Y31608517D01*
X26261258Y31553361D01*
X26352981Y31515368D01*
X26450352Y31496000D01*
X26549632Y31496000D01*
X26647003Y31515368D01*
X26738726Y31553361D01*
X26773195Y31576392D01*
X26757113Y31546305D01*
X26728293Y31451301D01*
X26718562Y31352500D01*
X26721001Y31327737D01*
X26721000Y29749640D01*
X26721000Y29724754D01*
X26718562Y29700000D01*
X26721000Y29675247D01*
X26721000Y29650360D01*
X26725855Y29625951D01*
X26728293Y29601199D01*
X26732219Y29588258D01*
X26735512Y29577402D01*
X26740368Y29552989D01*
X26749893Y29529993D01*
X26757112Y29506196D01*
X26768836Y29484263D01*
X26778361Y29461266D01*
X26792189Y29440571D01*
X26803912Y29418638D01*
X26819688Y29399415D01*
X26833517Y29378718D01*
X26851119Y29361116D01*
X26866894Y29341894D01*
X26886116Y29326119D01*
X26903718Y29308517D01*
X26903724Y29308513D01*
X26970999Y29241238D01*
X26971000Y25524763D01*
X26969237Y25523000D01*
X26815263Y25523000D01*
X26400786Y25937477D01*
X26385002Y25956710D01*
X26308258Y26019692D01*
X26220701Y26066492D01*
X26125697Y26095311D01*
X26051650Y26102604D01*
X26026896Y26105042D01*
X26002142Y26102604D01*
X24407818Y26102604D01*
X24424132Y26141989D01*
X24443500Y26239360D01*
X24443500Y26338640D01*
X24424132Y26436011D01*
X24386139Y26527734D01*
X24330983Y26610282D01*
X24260782Y26680483D01*
X24178234Y26735639D01*
X24086511Y26773632D01*
X23989140Y26793000D01*
X23889860Y26793000D01*
X23792489Y26773632D01*
X23700766Y26735639D01*
X23618218Y26680483D01*
X23548017Y26610282D01*
X23492861Y26527734D01*
X23454868Y26436011D01*
X23435500Y26338640D01*
X23435500Y26239360D01*
X23436387Y26234900D01*
X23431500Y26230013D01*
X23431500Y27046488D01*
X24007513Y27622500D01*
X24424404Y27622500D01*
X24440000Y27620964D01*
X24455596Y27622500D01*
X24502241Y27627094D01*
X24562090Y27645249D01*
X24617247Y27674731D01*
X24665593Y27714407D01*
X24675542Y27726530D01*
X25331513Y28382500D01*
X25781104Y28382500D01*
X25828155Y28335449D01*
X25874520Y28304469D01*
X25840366Y28222013D01*
X25820998Y28124642D01*
X25820998Y28025362D01*
X25840366Y27927991D01*
X25878359Y27836268D01*
X25933515Y27753720D01*
X26003716Y27683519D01*
X26086264Y27628363D01*
X26177987Y27590370D01*
X26275358Y27571002D01*
X26374638Y27571002D01*
X26472009Y27590370D01*
X26563732Y27628363D01*
X26646280Y27683519D01*
X26716481Y27753720D01*
X26771637Y27836268D01*
X26809630Y27927991D01*
X26828998Y28025362D01*
X26828998Y28124642D01*
X26828458Y28127356D01*
X26867770Y28175258D01*
X26897252Y28230415D01*
X26915407Y28290264D01*
X26916883Y28305249D01*
X26921538Y28352505D01*
X26920001Y28368108D01*
X26920001Y28944407D01*
X26921537Y28960000D01*
X26919359Y28982114D01*
X26915407Y29022240D01*
X26897252Y29082089D01*
X26867770Y29137246D01*
X26828094Y29185592D01*
X26815978Y29195535D01*
X25762542Y30248970D01*
X25752593Y30261093D01*
X25704247Y30300769D01*
X25649090Y30330251D01*
X25589241Y30348406D01*
X25542596Y30353000D01*
X25527000Y30354536D01*
X25511404Y30353000D01*
X23182012Y30353000D01*
X23708477Y30879464D01*
X23720593Y30889407D01*
X23760269Y30937753D01*
X23789751Y30992910D01*
X23807906Y31052759D01*
X23812500Y31099404D01*
X23812500Y31099405D01*
X23814036Y31115000D01*
X23812500Y31130596D01*
X23812500Y31480404D01*
X23814036Y31496000D01*
X23812129Y31515368D01*
X23807906Y31558241D01*
X23789751Y31618090D01*
X23760269Y31673247D01*
X23720593Y31721593D01*
X23708476Y31731537D01*
X23491000Y31949012D01*
X23491000Y31990140D01*
X23471632Y32087511D01*
X23433639Y32179234D01*
X23378483Y32261782D01*
X23308282Y32331983D01*
X23225734Y32387139D01*
X23134011Y32425132D01*
X23036640Y32444500D01*
X22937360Y32444500D01*
X22839989Y32425132D01*
X22748266Y32387139D01*
X22731151Y32375703D01*
X22679983Y32452282D01*
X22609782Y32522483D01*
X22527234Y32577639D01*
X22435511Y32615632D01*
X22338140Y32635000D01*
X22238860Y32635000D01*
X22141489Y32615632D01*
X22049766Y32577639D01*
X21967218Y32522483D01*
X21953704Y32508969D01*
X21953704Y33060310D01*
X23874306Y33060310D01*
X23874307Y31788242D01*
X23875326Y31777899D01*
X23875304Y31774795D01*
X23875631Y31771464D01*
X23885831Y31674415D01*
X23890199Y31653136D01*
X23894270Y31631794D01*
X23895238Y31628590D01*
X23924094Y31535371D01*
X23932502Y31515368D01*
X23940651Y31495199D01*
X23942223Y31492244D01*
X23988636Y31406406D01*
X24000765Y31388424D01*
X24012680Y31370217D01*
X24014795Y31367623D01*
X24076997Y31292434D01*
X24092396Y31277143D01*
X24107611Y31261605D01*
X24110190Y31259472D01*
X24185811Y31197796D01*
X24203882Y31185789D01*
X24221834Y31173497D01*
X24224771Y31171910D01*
X24224776Y31171907D01*
X24224781Y31171905D01*
X24310940Y31126094D01*
X24331018Y31117818D01*
X24350992Y31109257D01*
X24354187Y31108269D01*
X24354191Y31108267D01*
X24354195Y31108266D01*
X24447607Y31080063D01*
X24468897Y31075847D01*
X24490171Y31071325D01*
X24493495Y31070976D01*
X24493499Y31070976D01*
X24590617Y31061454D01*
X24590623Y31061454D01*
X24602238Y31060310D01*
X25225772Y31060310D01*
X25236124Y31061330D01*
X25239219Y31061308D01*
X25242550Y31061635D01*
X25339599Y31071835D01*
X25360878Y31076203D01*
X25382220Y31080274D01*
X25385424Y31081242D01*
X25478643Y31110098D01*
X25498649Y31118508D01*
X25518815Y31126655D01*
X25521765Y31128224D01*
X25521769Y31128226D01*
X25521772Y31128228D01*
X25607608Y31174640D01*
X25625590Y31186769D01*
X25643797Y31198684D01*
X25646391Y31200799D01*
X25721580Y31263001D01*
X25736871Y31278400D01*
X25752409Y31293615D01*
X25754542Y31296194D01*
X25816218Y31371815D01*
X25828225Y31389886D01*
X25840517Y31407838D01*
X25842104Y31410775D01*
X25842107Y31410780D01*
X25842109Y31410785D01*
X25887920Y31496944D01*
X25896196Y31517022D01*
X25904757Y31536996D01*
X25905746Y31540193D01*
X25933951Y31633611D01*
X25938167Y31654901D01*
X25942689Y31676175D01*
X25943038Y31679503D01*
X25952560Y31776621D01*
X25952560Y31776627D01*
X25953704Y31788242D01*
X25953704Y33060310D01*
X32365884Y33060310D01*
X32364989Y33060132D01*
X32273266Y33022139D01*
X32190718Y32966983D01*
X32120517Y32896782D01*
X32065361Y32814234D01*
X32027368Y32722511D01*
X32008000Y32625140D01*
X32008000Y32525860D01*
X32027368Y32428489D01*
X32065361Y32336766D01*
X32120517Y32254218D01*
X32190718Y32184017D01*
X32273266Y32128861D01*
X32364989Y32090868D01*
X32462360Y32071500D01*
X32561640Y32071500D01*
X32659011Y32090868D01*
X32750734Y32128861D01*
X32833282Y32184017D01*
X32903483Y32254218D01*
X32958639Y32336766D01*
X32996632Y32428489D01*
X33016000Y32525860D01*
X33016000Y32625140D01*
X32996632Y32722511D01*
X32958639Y32814234D01*
X32903483Y32896782D01*
X32833282Y32966983D01*
X32750734Y33022139D01*
X32659011Y33060132D01*
X32658116Y33060310D01*
X40488283Y33060310D01*
X40647457Y33044703D01*
X40789298Y33001879D01*
X40920118Y32932320D01*
X41034928Y32838684D01*
X41129372Y32724521D01*
X41199841Y32594191D01*
X41243652Y32452660D01*
X41260308Y32294189D01*
X41260307Y1011723D01*
X41244699Y852546D01*
X41201875Y710706D01*
X41132318Y579890D01*
X41038681Y465079D01*
X40924518Y370635D01*
X40794188Y300166D01*
X40652657Y256355D01*
X40494196Y239700D01*
X1011723Y239700D01*
X852546Y255308D01*
X710706Y298132D01*
X579890Y367689D01*
X465079Y461326D01*
X370635Y575489D01*
X300166Y705819D01*
X256355Y847350D01*
X239700Y1005811D01*
X239700Y3669140D01*
X16133000Y3669140D01*
X16133000Y3569860D01*
X16152368Y3472489D01*
X16190361Y3380766D01*
X16245517Y3298218D01*
X16315718Y3228017D01*
X16398266Y3172861D01*
X16489989Y3134868D01*
X16587360Y3115500D01*
X16686640Y3115500D01*
X16784011Y3134868D01*
X16875734Y3172861D01*
X16958282Y3228017D01*
X17028483Y3298218D01*
X17083639Y3380766D01*
X17121632Y3472489D01*
X17141000Y3569860D01*
X17141000Y3669140D01*
X17121632Y3766511D01*
X17083639Y3858234D01*
X17028483Y3940782D01*
X16958282Y4010983D01*
X16875734Y4066139D01*
X16784011Y4104132D01*
X16686640Y4123500D01*
X16587360Y4123500D01*
X16489989Y4104132D01*
X16398266Y4066139D01*
X16315718Y4010983D01*
X16245517Y3940782D01*
X16190361Y3858234D01*
X16152368Y3766511D01*
X16133000Y3669140D01*
X239700Y3669140D01*
X239700Y4812140D01*
X10227500Y4812140D01*
X10227500Y4712860D01*
X10246868Y4615489D01*
X10284861Y4523766D01*
X10340017Y4441218D01*
X10410218Y4371017D01*
X10492766Y4315861D01*
X10584489Y4277868D01*
X10681860Y4258500D01*
X10781140Y4258500D01*
X10878511Y4277868D01*
X10970234Y4315861D01*
X11052782Y4371017D01*
X11122983Y4441218D01*
X11178139Y4523766D01*
X11216132Y4615489D01*
X11235500Y4712860D01*
X11235500Y4812140D01*
X11216132Y4909511D01*
X11178139Y5001234D01*
X11122983Y5083782D01*
X11052782Y5153983D01*
X10970234Y5209139D01*
X10878511Y5247132D01*
X10781140Y5266500D01*
X10681860Y5266500D01*
X10584489Y5247132D01*
X10492766Y5209139D01*
X10410218Y5153983D01*
X10340017Y5083782D01*
X10284861Y5001234D01*
X10246868Y4909511D01*
X10227500Y4812140D01*
X239700Y4812140D01*
X239700Y13300000D01*
X6494772Y13300000D01*
X6494772Y11600000D01*
X6499676Y11550207D01*
X6514200Y11502328D01*
X6537786Y11458203D01*
X6569527Y11419527D01*
X6608203Y11387786D01*
X6652328Y11364200D01*
X6700207Y11349676D01*
X6750000Y11344772D01*
X8450000Y11344772D01*
X8499793Y11349676D01*
X8547672Y11364200D01*
X8591797Y11387786D01*
X8630473Y11419527D01*
X8637627Y11428245D01*
X13822005Y11428245D01*
X13822005Y11328965D01*
X13841373Y11231594D01*
X13879366Y11139871D01*
X13934522Y11057323D01*
X14004723Y10987122D01*
X14087271Y10931966D01*
X14178994Y10893973D01*
X14276365Y10874605D01*
X14375645Y10874605D01*
X14473016Y10893973D01*
X14564739Y10931966D01*
X14647287Y10987122D01*
X14717488Y11057323D01*
X14772644Y11139871D01*
X14810637Y11231594D01*
X14830005Y11328965D01*
X14830005Y11428245D01*
X14810637Y11525616D01*
X14772644Y11617339D01*
X14717488Y11699887D01*
X14647287Y11770088D01*
X14564739Y11825244D01*
X14473016Y11863237D01*
X14375645Y11882605D01*
X14276365Y11882605D01*
X14178994Y11863237D01*
X14087271Y11825244D01*
X14004723Y11770088D01*
X13934522Y11699887D01*
X13879366Y11617339D01*
X13841373Y11525616D01*
X13822005Y11428245D01*
X8637627Y11428245D01*
X8662214Y11458203D01*
X8685800Y11502328D01*
X8700324Y11550207D01*
X8705228Y11600000D01*
X8705228Y13300000D01*
X8700324Y13349793D01*
X8685800Y13397672D01*
X8662214Y13441797D01*
X8630473Y13480473D01*
X8591797Y13512214D01*
X8547672Y13535800D01*
X8499793Y13550324D01*
X8450000Y13555228D01*
X6750000Y13555228D01*
X6700207Y13550324D01*
X6652328Y13535800D01*
X6608203Y13512214D01*
X6569527Y13480473D01*
X6537786Y13441797D01*
X6514200Y13397672D01*
X6499676Y13349793D01*
X6494772Y13300000D01*
X239700Y13300000D01*
X239700Y15149640D01*
X13121000Y15149640D01*
X13121000Y15050360D01*
X13140368Y14952989D01*
X13178361Y14861266D01*
X13233517Y14778718D01*
X13287235Y14725000D01*
X13258517Y14696282D01*
X13203361Y14613734D01*
X13165368Y14522011D01*
X13146000Y14424640D01*
X13146000Y14325360D01*
X13165368Y14227989D01*
X13203361Y14136266D01*
X13258517Y14053718D01*
X13328718Y13983517D01*
X13411266Y13928361D01*
X13502989Y13890368D01*
X13600360Y13871000D01*
X13699640Y13871000D01*
X13797011Y13890368D01*
X13888734Y13928361D01*
X13971282Y13983517D01*
X14041483Y14053718D01*
X14096639Y14136266D01*
X14134632Y14227989D01*
X14154000Y14325360D01*
X14154000Y14424640D01*
X14134632Y14522011D01*
X14096639Y14613734D01*
X14041483Y14696282D01*
X13987765Y14750000D01*
X14016483Y14778718D01*
X14071639Y14861266D01*
X14109632Y14952989D01*
X14129000Y15050360D01*
X14129000Y15149640D01*
X14109632Y15247011D01*
X14071639Y15338734D01*
X14016483Y15421282D01*
X13946282Y15491483D01*
X13863734Y15546639D01*
X13772011Y15584632D01*
X13674640Y15604000D01*
X13575360Y15604000D01*
X13477989Y15584632D01*
X13386266Y15546639D01*
X13303718Y15491483D01*
X13233517Y15421282D01*
X13178361Y15338734D01*
X13140368Y15247011D01*
X13121000Y15149640D01*
X239700Y15149640D01*
X239700Y15326121D01*
X4075000Y15326121D01*
X4123601Y15335788D01*
X4164803Y15363318D01*
X4192333Y15404520D01*
X4202000Y15453121D01*
X4202000Y22057121D01*
X4192333Y22105722D01*
X4164803Y22146924D01*
X4123601Y22174454D01*
X4075000Y22184121D01*
X239700Y22184121D01*
X239700Y28370642D01*
X9211500Y28370642D01*
X9211500Y28271362D01*
X9230868Y28173991D01*
X9268861Y28082268D01*
X9324017Y27999720D01*
X9394218Y27929519D01*
X9476766Y27874363D01*
X9568489Y27836370D01*
X9665860Y27817002D01*
X9765140Y27817002D01*
X9862511Y27836370D01*
X9954234Y27874363D01*
X10036782Y27929519D01*
X10106983Y27999720D01*
X10128249Y28031548D01*
X10149517Y27999718D01*
X10219718Y27929517D01*
X10302266Y27874361D01*
X10393989Y27836368D01*
X10491360Y27817000D01*
X10590640Y27817000D01*
X10688011Y27836368D01*
X10779734Y27874361D01*
X10862282Y27929517D01*
X10932483Y27999718D01*
X10987639Y28082266D01*
X11025632Y28173989D01*
X11045000Y28271360D01*
X11045000Y28370640D01*
X11025632Y28468011D01*
X10987639Y28559734D01*
X10932483Y28642282D01*
X10862282Y28712483D01*
X10779734Y28767639D01*
X10688011Y28805632D01*
X10590640Y28825000D01*
X10491360Y28825000D01*
X10393989Y28805632D01*
X10302266Y28767639D01*
X10219718Y28712483D01*
X10149517Y28642282D01*
X10128251Y28610454D01*
X10106983Y28642284D01*
X10036782Y28712485D01*
X9954234Y28767641D01*
X9862511Y28805634D01*
X9765140Y28825002D01*
X9665860Y28825002D01*
X9568489Y28805634D01*
X9476766Y28767641D01*
X9394218Y28712485D01*
X9324017Y28642284D01*
X9268861Y28559736D01*
X9230868Y28468013D01*
X9211500Y28370642D01*
X239700Y28370642D01*
X239700Y29259640D01*
X11052996Y29259640D01*
X11052996Y29160360D01*
X11072364Y29062989D01*
X11110357Y28971266D01*
X11165513Y28888718D01*
X11235714Y28818517D01*
X11318262Y28763361D01*
X11409985Y28725368D01*
X11507356Y28706000D01*
X11606636Y28706000D01*
X11704007Y28725368D01*
X11795730Y28763361D01*
X11878278Y28818517D01*
X11948479Y28888718D01*
X12003635Y28971266D01*
X12041628Y29062989D01*
X12060996Y29160360D01*
X12060996Y29259640D01*
X12041628Y29357011D01*
X12003635Y29448734D01*
X11948479Y29531282D01*
X11878278Y29601483D01*
X11795730Y29656639D01*
X11704007Y29694632D01*
X11606636Y29714000D01*
X11507356Y29714000D01*
X11409985Y29694632D01*
X11318262Y29656639D01*
X11235714Y29601483D01*
X11165513Y29531282D01*
X11110357Y29448734D01*
X11072364Y29357011D01*
X11052996Y29259640D01*
X239700Y29259640D01*
X239700Y31926640D01*
X5973000Y31926640D01*
X5973000Y31827360D01*
X5992368Y31729989D01*
X6030361Y31638266D01*
X6085517Y31555718D01*
X6155718Y31485517D01*
X6238266Y31430361D01*
X6329989Y31392368D01*
X6427360Y31373000D01*
X6526640Y31373000D01*
X6624011Y31392368D01*
X6715734Y31430361D01*
X6798282Y31485517D01*
X6868483Y31555718D01*
X6923639Y31638266D01*
X6961632Y31729989D01*
X6981000Y31827360D01*
X6981000Y31926640D01*
X6961632Y32024011D01*
X6923639Y32115734D01*
X6868483Y32198282D01*
X6798282Y32268483D01*
X6715734Y32323639D01*
X6624011Y32361632D01*
X6526640Y32381000D01*
X6427360Y32381000D01*
X6329989Y32361632D01*
X6238266Y32323639D01*
X6155718Y32268483D01*
X6085517Y32198282D01*
X6030361Y32115734D01*
X5992368Y32024011D01*
X5973000Y31926640D01*
X239700Y31926640D01*
X239700Y32288285D01*
X255307Y32447459D01*
X298132Y32589303D01*
X367686Y32720116D01*
X461329Y32834933D01*
X575490Y32929376D01*
X705816Y32999843D01*
X847349Y33043655D01*
X1005810Y33060310D01*
X7874298Y33060310D01*
X7874299Y31788242D01*
X7874299Y31788242D01*
G37*
X7874299Y31788242D02*
X7875325Y31777823D01*
X7875304Y31774795D01*
X7875631Y31771464D01*
X7885831Y31674415D01*
X7890199Y31653136D01*
X7894270Y31631794D01*
X7895238Y31628590D01*
X7924094Y31535371D01*
X7932502Y31515368D01*
X7940651Y31495199D01*
X7942223Y31492244D01*
X7988636Y31406406D01*
X8000765Y31388424D01*
X8012680Y31370217D01*
X8014795Y31367623D01*
X8076997Y31292434D01*
X8092396Y31277143D01*
X8107611Y31261605D01*
X8110190Y31259472D01*
X8185811Y31197796D01*
X8203882Y31185789D01*
X8221834Y31173497D01*
X8224771Y31171910D01*
X8224776Y31171907D01*
X8224781Y31171905D01*
X8310940Y31126094D01*
X8331018Y31117818D01*
X8350992Y31109257D01*
X8354187Y31108269D01*
X8354191Y31108267D01*
X8354195Y31108266D01*
X8447607Y31080063D01*
X8468897Y31075847D01*
X8490171Y31071325D01*
X8493495Y31070976D01*
X8493499Y31070976D01*
X8590617Y31061454D01*
X8590623Y31061454D01*
X8602238Y31060310D01*
X9225772Y31060310D01*
X9236124Y31061330D01*
X9239219Y31061308D01*
X9242550Y31061635D01*
X9339599Y31071835D01*
X9360878Y31076203D01*
X9382220Y31080274D01*
X9385424Y31081242D01*
X9478643Y31110098D01*
X9498649Y31118508D01*
X9518815Y31126655D01*
X9521765Y31128224D01*
X9521769Y31128226D01*
X9521772Y31128228D01*
X9607608Y31174640D01*
X9625590Y31186769D01*
X9643797Y31198684D01*
X9646391Y31200799D01*
X9721580Y31263001D01*
X9736871Y31278400D01*
X9752409Y31293615D01*
X9754542Y31296194D01*
X9816218Y31371815D01*
X9828225Y31389886D01*
X9840517Y31407838D01*
X9842104Y31410775D01*
X9842107Y31410780D01*
X9842109Y31410785D01*
X9887920Y31496944D01*
X9896196Y31517022D01*
X9904757Y31536996D01*
X9905746Y31540193D01*
X9933951Y31633611D01*
X9938167Y31654901D01*
X9942689Y31676175D01*
X9943038Y31679503D01*
X9952560Y31776621D01*
X9952560Y31776627D01*
X9953704Y31788242D01*
X9953704Y32053640D01*
X9973500Y32053640D01*
X9973500Y31954360D01*
X9992868Y31856989D01*
X10030861Y31765266D01*
X10086017Y31682718D01*
X10156218Y31612517D01*
X10238766Y31557361D01*
X10330489Y31519368D01*
X10427860Y31500000D01*
X10527140Y31500000D01*
X10624511Y31519368D01*
X10716234Y31557361D01*
X10798782Y31612517D01*
X10868983Y31682718D01*
X10924139Y31765266D01*
X10962132Y31856989D01*
X10981500Y31954360D01*
X10981500Y32053640D01*
X10962132Y32151011D01*
X10924139Y32242734D01*
X10868983Y32325282D01*
X10798782Y32395483D01*
X10716234Y32450639D01*
X10624511Y32488632D01*
X10527140Y32508000D01*
X10427860Y32508000D01*
X10330489Y32488632D01*
X10238766Y32450639D01*
X10156218Y32395483D01*
X10086017Y32325282D01*
X10030861Y32242734D01*
X9992868Y32151011D01*
X9973500Y32053640D01*
X9953704Y32053640D01*
X9953704Y33060310D01*
X11874298Y33060310D01*
X11874299Y31788242D01*
X11875318Y31777899D01*
X11875296Y31774795D01*
X11875623Y31771464D01*
X11885823Y31674415D01*
X11890191Y31653136D01*
X11894262Y31631794D01*
X11895230Y31628590D01*
X11924086Y31535371D01*
X11932494Y31515368D01*
X11940643Y31495199D01*
X11942215Y31492244D01*
X11988628Y31406406D01*
X12000757Y31388424D01*
X12012672Y31370217D01*
X12014787Y31367623D01*
X12076989Y31292434D01*
X12092388Y31277143D01*
X12107603Y31261605D01*
X12110182Y31259472D01*
X12185803Y31197796D01*
X12203874Y31185789D01*
X12221826Y31173497D01*
X12224763Y31171910D01*
X12224768Y31171907D01*
X12224773Y31171905D01*
X12310932Y31126094D01*
X12331010Y31117818D01*
X12350984Y31109257D01*
X12354179Y31108269D01*
X12354183Y31108267D01*
X12354187Y31108266D01*
X12447599Y31080063D01*
X12468889Y31075847D01*
X12490163Y31071325D01*
X12493487Y31070976D01*
X12493491Y31070976D01*
X12590609Y31061454D01*
X12590615Y31061454D01*
X12602230Y31060310D01*
X13225772Y31060310D01*
X13236124Y31061330D01*
X13239219Y31061308D01*
X13242550Y31061635D01*
X13339599Y31071835D01*
X13360878Y31076203D01*
X13382220Y31080274D01*
X13385424Y31081242D01*
X13478643Y31110098D01*
X13498649Y31118508D01*
X13518815Y31126655D01*
X13521765Y31128224D01*
X13521769Y31128226D01*
X13521772Y31128228D01*
X13607608Y31174640D01*
X13625590Y31186769D01*
X13643797Y31198684D01*
X13646391Y31200799D01*
X13721580Y31263001D01*
X13736871Y31278400D01*
X13752409Y31293615D01*
X13754542Y31296194D01*
X13816218Y31371815D01*
X13828225Y31389886D01*
X13840517Y31407838D01*
X13842104Y31410775D01*
X13842107Y31410780D01*
X13842109Y31410785D01*
X13887920Y31496944D01*
X13896196Y31517022D01*
X13904757Y31536996D01*
X13905746Y31540193D01*
X13933951Y31633611D01*
X13937446Y31651260D01*
X13957522Y31621213D01*
X14027723Y31551012D01*
X14110271Y31495856D01*
X14201994Y31457863D01*
X14299365Y31438495D01*
X14398645Y31438495D01*
X14496016Y31457863D01*
X14587739Y31495856D01*
X14670287Y31551012D01*
X14740488Y31621213D01*
X14795644Y31703761D01*
X14833637Y31795484D01*
X14853005Y31892855D01*
X14853005Y31992135D01*
X14833637Y32089506D01*
X14795644Y32181229D01*
X14740488Y32263777D01*
X14670287Y32333978D01*
X14587739Y32389134D01*
X14496016Y32427127D01*
X14398645Y32446495D01*
X14299365Y32446495D01*
X14201994Y32427127D01*
X14110271Y32389134D01*
X14027723Y32333978D01*
X13957522Y32263777D01*
X13953704Y32258063D01*
X13953704Y33060310D01*
X15874306Y33060310D01*
X15874307Y31788242D01*
X15875326Y31777899D01*
X15875304Y31774795D01*
X15875631Y31771464D01*
X15879016Y31739255D01*
X15859734Y31752139D01*
X15836737Y31761664D01*
X15814804Y31773388D01*
X15791007Y31780607D01*
X15768011Y31790132D01*
X15743598Y31794988D01*
X15719800Y31802207D01*
X15695049Y31804645D01*
X15670640Y31809500D01*
X15645753Y31809500D01*
X15621000Y31811938D01*
X15620999Y31811938D01*
X15611268Y31810979D01*
X15596246Y31809500D01*
X15571360Y31809500D01*
X15546951Y31804645D01*
X15522199Y31802207D01*
X15498399Y31794987D01*
X15473989Y31790132D01*
X15450996Y31780608D01*
X15427195Y31773388D01*
X15405259Y31761663D01*
X15382266Y31752139D01*
X15361572Y31738312D01*
X15339638Y31726588D01*
X15320415Y31710812D01*
X15299718Y31696983D01*
X15282116Y31679381D01*
X15262894Y31663606D01*
X15247119Y31644384D01*
X15229517Y31626782D01*
X15229515Y31626779D01*
X14456623Y30853886D01*
X14437395Y30838106D01*
X14421615Y30818878D01*
X14410056Y30804793D01*
X14374413Y30761362D01*
X14327612Y30673805D01*
X14298793Y30578801D01*
X14293499Y30525045D01*
X14289062Y30480000D01*
X14291500Y30455249D01*
X14291500Y30250754D01*
X14289062Y30226000D01*
X14291500Y30201247D01*
X14291501Y28804264D01*
X12188000Y26700763D01*
X12188000Y26719640D01*
X12168632Y26817011D01*
X12130639Y26908734D01*
X12075483Y26991282D01*
X12005282Y27061483D01*
X11922734Y27116639D01*
X11831011Y27154632D01*
X11733640Y27174000D01*
X11634360Y27174000D01*
X11536989Y27154632D01*
X11445266Y27116639D01*
X11362718Y27061483D01*
X11292517Y26991282D01*
X11237361Y26908734D01*
X11199368Y26817011D01*
X11180000Y26719640D01*
X11180000Y26620360D01*
X11199368Y26522989D01*
X11237361Y26431266D01*
X11277963Y26370500D01*
X10791254Y26370500D01*
X10766500Y26372938D01*
X10667698Y26363207D01*
X10652238Y26358517D01*
X10572695Y26334388D01*
X10485138Y26287588D01*
X10408394Y26224606D01*
X10392610Y26205373D01*
X9534120Y25346883D01*
X9514887Y25331099D01*
X9451905Y25254355D01*
X9405105Y25166797D01*
X9399628Y25148741D01*
X9376286Y25071794D01*
X9366555Y24972993D01*
X9368993Y24948239D01*
X9368994Y23845732D01*
X9366555Y23820969D01*
X9376286Y23722168D01*
X9398179Y23650000D01*
X9405106Y23627164D01*
X9451906Y23539607D01*
X9514888Y23462863D01*
X9534116Y23447083D01*
X11450423Y21530775D01*
X11445266Y21528639D01*
X11362718Y21473483D01*
X11292517Y21403282D01*
X11237361Y21320734D01*
X11199368Y21229011D01*
X11180000Y21131640D01*
X11180000Y21032360D01*
X11199368Y20934989D01*
X11237361Y20843266D01*
X11292517Y20760718D01*
X11362718Y20690517D01*
X11445266Y20635361D01*
X11536989Y20597368D01*
X11634360Y20578000D01*
X11733640Y20578000D01*
X11831011Y20597368D01*
X11863490Y20610821D01*
X11863491Y19407273D01*
X11861052Y19382510D01*
X11870783Y19283709D01*
X11889979Y19220431D01*
X11899603Y19188705D01*
X11946403Y19101148D01*
X12009385Y19024404D01*
X12028613Y19008624D01*
X15053500Y15983736D01*
X15053501Y10432264D01*
X14713737Y10092500D01*
X10375250Y10092500D01*
X10350499Y10094938D01*
X10325748Y10092500D01*
X10325746Y10092500D01*
X10251699Y10085207D01*
X10156695Y10056388D01*
X10069138Y10009588D01*
X9992394Y9946606D01*
X9976614Y9927378D01*
X9436121Y9386884D01*
X9203724Y9154487D01*
X9203718Y9154483D01*
X9133517Y9084282D01*
X9119684Y9063579D01*
X9103913Y9044362D01*
X9092193Y9022435D01*
X9078361Y9001734D01*
X9068833Y8978732D01*
X9057113Y8956805D01*
X9049895Y8933011D01*
X9040368Y8910011D01*
X9035512Y8885599D01*
X9028293Y8861801D01*
X9025855Y8837049D01*
X9021000Y8812640D01*
X9021000Y8787754D01*
X9018562Y8763000D01*
X9021000Y8738246D01*
X9021000Y8713360D01*
X9025855Y8688951D01*
X9028293Y8664199D01*
X9035512Y8640401D01*
X9040368Y8615989D01*
X9049895Y8592989D01*
X9057113Y8569195D01*
X9068833Y8547268D01*
X9078361Y8524266D01*
X9092193Y8503565D01*
X9103913Y8481638D01*
X9119683Y8462423D01*
X9130990Y8445500D01*
X9078361Y8366734D01*
X9040368Y8275011D01*
X9021000Y8177640D01*
X9021000Y8078360D01*
X9040368Y7980989D01*
X9078361Y7889266D01*
X9133517Y7806718D01*
X9203718Y7736517D01*
X9286266Y7681361D01*
X9377989Y7643368D01*
X9475360Y7624000D01*
X9574640Y7624000D01*
X9672011Y7643368D01*
X9763734Y7681361D01*
X9846282Y7736517D01*
X9916483Y7806718D01*
X9971639Y7889266D01*
X10009632Y7980989D01*
X10029000Y8078360D01*
X10029000Y8177640D01*
X10009632Y8275011D01*
X9971639Y8366734D01*
X9919512Y8444749D01*
X10148884Y8674121D01*
X10559264Y9084500D01*
X14897746Y9084500D01*
X14922500Y9082062D01*
X14972586Y9086995D01*
X14899896Y9038426D01*
X14829695Y8968225D01*
X14774539Y8885677D01*
X14736546Y8793954D01*
X14717178Y8696583D01*
X14717178Y8597303D01*
X14736546Y8499932D01*
X14756426Y8451938D01*
X14739490Y8453606D01*
X14723894Y8455142D01*
X14708298Y8453606D01*
X12787202Y8453606D01*
X12771606Y8455142D01*
X12756010Y8453606D01*
X12709365Y8449012D01*
X12649516Y8430857D01*
X12594359Y8401375D01*
X12546013Y8361699D01*
X12536069Y8349582D01*
X11547601Y7361113D01*
X11543140Y7362000D01*
X11443860Y7362000D01*
X11346489Y7342632D01*
X11254766Y7304639D01*
X11172218Y7249483D01*
X11102017Y7179282D01*
X11046861Y7096734D01*
X11008868Y7005011D01*
X10989500Y6907640D01*
X10989500Y6808360D01*
X11008868Y6710989D01*
X11046861Y6619266D01*
X11102017Y6536718D01*
X11172218Y6466517D01*
X11254766Y6411361D01*
X11346489Y6373368D01*
X11443860Y6354000D01*
X11543140Y6354000D01*
X11640511Y6373368D01*
X11732234Y6411361D01*
X11814782Y6466517D01*
X11884983Y6536718D01*
X11940139Y6619266D01*
X11978132Y6710989D01*
X11997500Y6808360D01*
X11997500Y6907640D01*
X11996613Y6912101D01*
X12903119Y7818606D01*
X13709597Y7818606D01*
X13695005Y7745245D01*
X13695005Y7645965D01*
X13714373Y7548594D01*
X13752366Y7456871D01*
X13807522Y7374323D01*
X13877723Y7304122D01*
X13960271Y7248966D01*
X14051994Y7210973D01*
X14149365Y7191605D01*
X14248645Y7191605D01*
X14253106Y7192492D01*
X15413097Y6032500D01*
X7839602Y6032500D01*
X7824009Y6034036D01*
X7808416Y6032500D01*
X7808414Y6032500D01*
X7761769Y6027906D01*
X7701920Y6009751D01*
X7646763Y5980269D01*
X7598417Y5940593D01*
X7588468Y5928470D01*
X7522106Y5862108D01*
X7517645Y5862995D01*
X7418365Y5862995D01*
X7320994Y5843627D01*
X7229271Y5805634D01*
X7146723Y5750478D01*
X7076522Y5680277D01*
X7021366Y5597729D01*
X6983373Y5506006D01*
X6964005Y5408635D01*
X6964005Y5309355D01*
X6983373Y5211984D01*
X7021366Y5120261D01*
X7076522Y5037713D01*
X7146723Y4967512D01*
X7229271Y4912356D01*
X7320994Y4874363D01*
X7418365Y4854995D01*
X7517645Y4854995D01*
X7615016Y4874363D01*
X7706739Y4912356D01*
X7789287Y4967512D01*
X7859488Y5037713D01*
X7914644Y5120261D01*
X7952637Y5211984D01*
X7972005Y5309355D01*
X7972005Y5397500D01*
X13315825Y5397500D01*
X13301231Y5324130D01*
X13301231Y5224850D01*
X13320599Y5127479D01*
X13358592Y5035756D01*
X13413748Y4953208D01*
X13483949Y4883007D01*
X13566497Y4827851D01*
X13658220Y4789858D01*
X13755591Y4770490D01*
X13854871Y4770490D01*
X13952242Y4789858D01*
X14043965Y4827851D01*
X14126513Y4883007D01*
X14141616Y4898110D01*
X14156718Y4883007D01*
X14239266Y4827851D01*
X14330989Y4789858D01*
X14428360Y4770490D01*
X14527640Y4770490D01*
X14625011Y4789858D01*
X14716734Y4827851D01*
X14788256Y4875640D01*
X15561500Y4875640D01*
X15561500Y4776360D01*
X15580868Y4678989D01*
X15618861Y4587266D01*
X15674017Y4504718D01*
X15744218Y4434517D01*
X15826766Y4379361D01*
X15918489Y4341368D01*
X16015860Y4322000D01*
X16115140Y4322000D01*
X16212511Y4341368D01*
X16304234Y4379361D01*
X16386782Y4434517D01*
X16456983Y4504718D01*
X16512139Y4587266D01*
X16550132Y4678989D01*
X16569500Y4776360D01*
X16569500Y4875640D01*
X19625502Y4875640D01*
X19625502Y4776360D01*
X19644870Y4678989D01*
X19682863Y4587266D01*
X19738019Y4504718D01*
X19808220Y4434517D01*
X19890768Y4379361D01*
X19982491Y4341368D01*
X20079862Y4322000D01*
X20179142Y4322000D01*
X20276513Y4341368D01*
X20368236Y4379361D01*
X20450784Y4434517D01*
X20520985Y4504718D01*
X20576141Y4587266D01*
X20614134Y4678989D01*
X20633502Y4776360D01*
X20633502Y4875640D01*
X20614134Y4973011D01*
X20576141Y5064734D01*
X20520985Y5147282D01*
X20450784Y5217483D01*
X20368236Y5272639D01*
X20276513Y5310632D01*
X20179142Y5330000D01*
X20079862Y5330000D01*
X19982491Y5310632D01*
X19890768Y5272639D01*
X19808220Y5217483D01*
X19738019Y5147282D01*
X19682863Y5064734D01*
X19644870Y4973011D01*
X19625502Y4875640D01*
X16569500Y4875640D01*
X16550132Y4973011D01*
X16512139Y5064734D01*
X16456983Y5147282D01*
X16386782Y5217483D01*
X16304234Y5272639D01*
X16212511Y5310632D01*
X16115140Y5330000D01*
X16015860Y5330000D01*
X15918489Y5310632D01*
X15826766Y5272639D01*
X15744218Y5217483D01*
X15674017Y5147282D01*
X15618861Y5064734D01*
X15580868Y4973011D01*
X15561500Y4875640D01*
X14788256Y4875640D01*
X14799282Y4883007D01*
X14869483Y4953208D01*
X14924639Y5035756D01*
X14962632Y5127479D01*
X14982000Y5224850D01*
X14982000Y5324130D01*
X14970163Y5383640D01*
X22229000Y5383640D01*
X22229000Y5284360D01*
X22248368Y5186989D01*
X22286361Y5095266D01*
X22341517Y5012718D01*
X22411718Y4942517D01*
X22494266Y4887361D01*
X22585989Y4849368D01*
X22683360Y4830000D01*
X22782640Y4830000D01*
X22880011Y4849368D01*
X22971734Y4887361D01*
X23054282Y4942517D01*
X23124483Y5012718D01*
X23179639Y5095266D01*
X23217632Y5186989D01*
X23237000Y5284360D01*
X23237000Y5383640D01*
X23217632Y5481011D01*
X23179639Y5572734D01*
X23124483Y5655282D01*
X23054282Y5725483D01*
X22971734Y5780639D01*
X22880011Y5818632D01*
X22782640Y5838000D01*
X22683360Y5838000D01*
X22585989Y5818632D01*
X22494266Y5780639D01*
X22411718Y5725483D01*
X22341517Y5655282D01*
X22286361Y5572734D01*
X22248368Y5481011D01*
X22229000Y5383640D01*
X14970163Y5383640D01*
X14967406Y5397500D01*
X19923404Y5397500D01*
X19939000Y5395964D01*
X19954596Y5397500D01*
X20001241Y5402094D01*
X20061090Y5420249D01*
X20116247Y5449731D01*
X20164593Y5489407D01*
X20174542Y5501530D01*
X21422487Y6749474D01*
X21434604Y6759418D01*
X21474280Y6807764D01*
X21503762Y6862921D01*
X21521917Y6922770D01*
X21526511Y6969415D01*
X21528047Y6985011D01*
X21526511Y7000607D01*
X21526511Y7678977D01*
X22243463Y6962024D01*
X22253407Y6949907D01*
X22292896Y6917500D01*
X22301753Y6910231D01*
X22356910Y6880749D01*
X22416759Y6862594D01*
X22479000Y6856464D01*
X22494596Y6858000D01*
X23918505Y6858000D01*
X23918505Y6820465D01*
X23937873Y6723094D01*
X23975866Y6631371D01*
X24031022Y6548823D01*
X24101223Y6478622D01*
X24183771Y6423466D01*
X24275494Y6385473D01*
X24372865Y6366105D01*
X24472145Y6366105D01*
X24569516Y6385473D01*
X24661239Y6423466D01*
X24743787Y6478622D01*
X24765000Y6499835D01*
X24765001Y1883106D01*
X24763464Y1867500D01*
X24769594Y1805260D01*
X24787749Y1745411D01*
X24795481Y1730946D01*
X24817232Y1690253D01*
X24856908Y1641907D01*
X24869025Y1631963D01*
X25889463Y611524D01*
X25899407Y599407D01*
X25928151Y575818D01*
X25947753Y559731D01*
X26002910Y530249D01*
X26062759Y512094D01*
X26125000Y505964D01*
X26140596Y507500D01*
X28659404Y507500D01*
X28675000Y505964D01*
X28690596Y507500D01*
X28737241Y512094D01*
X28797090Y530249D01*
X28852247Y559731D01*
X28900593Y599407D01*
X28910542Y611530D01*
X29306513Y1007500D01*
X30737988Y1007500D01*
X31233963Y511524D01*
X31243907Y499407D01*
X31292253Y459731D01*
X31347410Y430249D01*
X31407259Y412094D01*
X31453904Y407500D01*
X31453906Y407500D01*
X31469499Y405964D01*
X31485092Y407500D01*
X34534404Y407500D01*
X34550000Y405964D01*
X34565596Y407500D01*
X34612241Y412094D01*
X34672090Y430249D01*
X34727247Y459731D01*
X34775593Y499407D01*
X34785542Y511529D01*
X35220900Y946887D01*
X35225360Y946000D01*
X35324640Y946000D01*
X35422011Y965368D01*
X35513734Y1003361D01*
X35596282Y1058517D01*
X35666483Y1128718D01*
X35721639Y1211266D01*
X35759632Y1302989D01*
X35779000Y1400360D01*
X35779000Y1499640D01*
X35759632Y1597011D01*
X35721639Y1688734D01*
X35666483Y1771282D01*
X35596282Y1841483D01*
X35513734Y1896639D01*
X35422011Y1934632D01*
X35324640Y1954000D01*
X35225360Y1954000D01*
X35127989Y1934632D01*
X35036266Y1896639D01*
X34953718Y1841483D01*
X34883517Y1771282D01*
X34828361Y1688734D01*
X34790368Y1597011D01*
X34771000Y1499640D01*
X34771000Y1400360D01*
X34771887Y1395900D01*
X34418488Y1042500D01*
X33111093Y1042500D01*
X33150782Y1069019D01*
X33220983Y1139220D01*
X33276139Y1221768D01*
X33314132Y1313491D01*
X33333500Y1410862D01*
X33333500Y1510142D01*
X33314132Y1607513D01*
X33276139Y1699236D01*
X33220983Y1781784D01*
X33150782Y1851985D01*
X33068234Y1907141D01*
X33013339Y1929879D01*
X33860329Y2776869D01*
X33882577Y2776869D01*
X33885104Y2773087D01*
X33955305Y2702886D01*
X34037853Y2647730D01*
X34129576Y2609737D01*
X34226947Y2590369D01*
X34326227Y2590369D01*
X34423598Y2609737D01*
X34515321Y2647730D01*
X34597869Y2702886D01*
X34668070Y2773087D01*
X34723226Y2855635D01*
X34761219Y2947358D01*
X34780587Y3044729D01*
X34780587Y3144009D01*
X34761219Y3241380D01*
X34723226Y3333103D01*
X34668070Y3415651D01*
X34597869Y3485852D01*
X34594087Y3488379D01*
X34594087Y4526075D01*
X34834246Y4766234D01*
X34814500Y4718563D01*
X34785705Y4573800D01*
X34785705Y4426200D01*
X34814500Y4281437D01*
X34870984Y4145073D01*
X34952985Y4022349D01*
X35057354Y3917980D01*
X35180078Y3835979D01*
X35316442Y3779495D01*
X35461205Y3750700D01*
X35608805Y3750700D01*
X35753568Y3779495D01*
X35889932Y3835979D01*
X36012656Y3917980D01*
X36117025Y4022349D01*
X36199026Y4145073D01*
X36255510Y4281437D01*
X36284305Y4426200D01*
X36284305Y4573800D01*
X36255510Y4718563D01*
X36199026Y4854927D01*
X36117025Y4977651D01*
X36012656Y5082020D01*
X35889932Y5164021D01*
X35753568Y5220505D01*
X35608805Y5249300D01*
X35461205Y5249300D01*
X35316442Y5220505D01*
X35268771Y5200759D01*
X37932477Y7864464D01*
X37944593Y7874407D01*
X37984269Y7922753D01*
X38013751Y7977910D01*
X38031906Y8037759D01*
X38036500Y8084404D01*
X38036500Y8084406D01*
X38038036Y8099999D01*
X38036500Y8115592D01*
X38036500Y16811905D01*
X38038036Y16827501D01*
X38031906Y16889741D01*
X38013751Y16949590D01*
X38012270Y16952361D01*
X37984269Y17004747D01*
X37944593Y17053093D01*
X37932476Y17063037D01*
X37650613Y17344900D01*
X37651500Y17349360D01*
X37651500Y17448640D01*
X37632132Y17546011D01*
X37594139Y17637734D01*
X37538983Y17720282D01*
X37468782Y17790483D01*
X37386234Y17845639D01*
X37294511Y17883632D01*
X37197140Y17903000D01*
X37097860Y17903000D01*
X37000489Y17883632D01*
X36908766Y17845639D01*
X36826218Y17790483D01*
X36756017Y17720282D01*
X36700861Y17637734D01*
X36662868Y17546011D01*
X36643500Y17448640D01*
X36643500Y17349360D01*
X36662868Y17251989D01*
X36700861Y17160266D01*
X36756017Y17077718D01*
X36826218Y17007517D01*
X36908766Y16952361D01*
X37000489Y16914368D01*
X37097860Y16895000D01*
X37197140Y16895000D01*
X37201600Y16895887D01*
X37401501Y16695986D01*
X37401500Y8231513D01*
X37311000Y8141013D01*
X37311000Y8200640D01*
X37291632Y8298011D01*
X37253639Y8389734D01*
X37198483Y8472282D01*
X37128282Y8542483D01*
X37045734Y8597639D01*
X36954011Y8635632D01*
X36856640Y8655000D01*
X36757360Y8655000D01*
X36752900Y8654113D01*
X33520010Y11887002D01*
X33520010Y12813990D01*
X33523792Y12816517D01*
X33593993Y12886718D01*
X33649149Y12969266D01*
X33687142Y13060989D01*
X33706510Y13158360D01*
X33706510Y13257640D01*
X33687142Y13355011D01*
X33649149Y13446734D01*
X33593993Y13529282D01*
X33523792Y13599483D01*
X33441244Y13654639D01*
X33349521Y13692632D01*
X33252150Y13712000D01*
X33152870Y13712000D01*
X33079500Y13697406D01*
X33079500Y15683988D01*
X33532887Y15230600D01*
X33532000Y15226140D01*
X33532000Y15126860D01*
X33551368Y15029489D01*
X33589361Y14937766D01*
X33644517Y14855218D01*
X33714718Y14785017D01*
X33797266Y14729861D01*
X33888989Y14691868D01*
X33986360Y14672500D01*
X34085640Y14672500D01*
X34183011Y14691868D01*
X34274734Y14729861D01*
X34357282Y14785017D01*
X34427483Y14855218D01*
X34482639Y14937766D01*
X34520632Y15029489D01*
X34540000Y15126860D01*
X34540000Y15226140D01*
X34520632Y15323511D01*
X34482639Y15415234D01*
X34427483Y15497782D01*
X34357282Y15567983D01*
X34274734Y15623139D01*
X34183011Y15661132D01*
X34085640Y15680500D01*
X33986360Y15680500D01*
X33981900Y15679613D01*
X33333511Y16328001D01*
X33333511Y18018669D01*
X35499505Y18018669D01*
X35499505Y17909541D01*
X35520794Y17802509D01*
X35562556Y17701687D01*
X35623185Y17610950D01*
X35700350Y17533785D01*
X35791087Y17473156D01*
X35891909Y17431394D01*
X35998941Y17410105D01*
X36108069Y17410105D01*
X36215101Y17431394D01*
X36315923Y17473156D01*
X36406660Y17533785D01*
X36483825Y17610950D01*
X36544454Y17701687D01*
X36586216Y17802509D01*
X36607505Y17909541D01*
X36607505Y18018669D01*
X36586216Y18125701D01*
X36544454Y18226523D01*
X36483825Y18317260D01*
X36406660Y18394425D01*
X36315923Y18455054D01*
X36215101Y18496816D01*
X36108069Y18518105D01*
X35998941Y18518105D01*
X35891909Y18496816D01*
X35791087Y18455054D01*
X35700350Y18394425D01*
X35623185Y18317260D01*
X35562556Y18226523D01*
X35520794Y18125701D01*
X35499505Y18018669D01*
X33333511Y18018669D01*
X33333511Y20755910D01*
X33406317Y20725753D01*
X33503688Y20706385D01*
X33602968Y20706385D01*
X33700339Y20725753D01*
X33792062Y20763746D01*
X33874610Y20818902D01*
X33944811Y20889103D01*
X33999967Y20971651D01*
X34037960Y21063374D01*
X34057328Y21160745D01*
X34057328Y21260025D01*
X34037960Y21357396D01*
X33999967Y21449119D01*
X33944811Y21531667D01*
X33874610Y21601868D01*
X33792062Y21657024D01*
X33700339Y21695017D01*
X33602968Y21714385D01*
X33503688Y21714385D01*
X33406317Y21695017D01*
X33333511Y21664860D01*
X33333511Y21788088D01*
X33419494Y21752473D01*
X33516865Y21733105D01*
X33616145Y21733105D01*
X33713516Y21752473D01*
X33805239Y21790466D01*
X33887787Y21845622D01*
X33957988Y21915823D01*
X34013144Y21998371D01*
X34051137Y22090094D01*
X34070505Y22187465D01*
X34070505Y22286745D01*
X34051137Y22384116D01*
X34040563Y22409645D01*
X38206005Y22409645D01*
X38206005Y22310365D01*
X38225373Y22212994D01*
X38263366Y22121271D01*
X38318522Y22038723D01*
X38388723Y21968522D01*
X38471271Y21913366D01*
X38562994Y21875373D01*
X38660365Y21856005D01*
X38759645Y21856005D01*
X38857016Y21875373D01*
X38948739Y21913366D01*
X39031287Y21968522D01*
X39101488Y22038723D01*
X39156644Y22121271D01*
X39194637Y22212994D01*
X39214005Y22310365D01*
X39214005Y22409645D01*
X39194637Y22507016D01*
X39156644Y22598739D01*
X39101488Y22681287D01*
X39031287Y22751488D01*
X38948739Y22806644D01*
X38857016Y22844637D01*
X38759645Y22864005D01*
X38660365Y22864005D01*
X38562994Y22844637D01*
X38471271Y22806644D01*
X38388723Y22751488D01*
X38318522Y22681287D01*
X38263366Y22598739D01*
X38225373Y22507016D01*
X38206005Y22409645D01*
X34040563Y22409645D01*
X34013144Y22475839D01*
X33957988Y22558387D01*
X33887787Y22628588D01*
X33805239Y22683744D01*
X33713516Y22721737D01*
X33616145Y22741105D01*
X33516865Y22741105D01*
X33419494Y22721737D01*
X33333511Y22686122D01*
X33333511Y23552913D01*
X33355589Y23543768D01*
X33381178Y23538678D01*
X33386268Y23513089D01*
X33424261Y23421366D01*
X33479417Y23338818D01*
X33549618Y23268617D01*
X33632166Y23213461D01*
X33723889Y23175468D01*
X33821260Y23156100D01*
X33920540Y23156100D01*
X34017911Y23175468D01*
X34109634Y23213461D01*
X34192182Y23268617D01*
X34262383Y23338818D01*
X34317539Y23421366D01*
X34355532Y23513089D01*
X34374900Y23610460D01*
X34374900Y23709740D01*
X34357212Y23798669D01*
X35499505Y23798669D01*
X35499505Y23689541D01*
X35520794Y23582509D01*
X35562556Y23481687D01*
X35623185Y23390950D01*
X35700350Y23313785D01*
X35791087Y23253156D01*
X35891909Y23211394D01*
X35998941Y23190105D01*
X36108069Y23190105D01*
X36215101Y23211394D01*
X36315923Y23253156D01*
X36406660Y23313785D01*
X36483825Y23390950D01*
X36544454Y23481687D01*
X36586216Y23582509D01*
X36607505Y23689541D01*
X36607505Y23798669D01*
X36586216Y23905701D01*
X36544454Y24006523D01*
X36483825Y24097260D01*
X36406660Y24174425D01*
X36315923Y24235054D01*
X36215101Y24276816D01*
X36108069Y24298105D01*
X35998941Y24298105D01*
X35891909Y24276816D01*
X35791087Y24235054D01*
X35700350Y24174425D01*
X35623185Y24097260D01*
X35562556Y24006523D01*
X35520794Y23905701D01*
X35499505Y23798669D01*
X34357212Y23798669D01*
X34355532Y23807111D01*
X34317539Y23898834D01*
X34262383Y23981382D01*
X34192182Y24051583D01*
X34109634Y24106739D01*
X34017911Y24144732D01*
X33992322Y24149822D01*
X33987232Y24175411D01*
X33949239Y24267134D01*
X33894083Y24349682D01*
X33823882Y24419883D01*
X33741334Y24475039D01*
X33649611Y24513032D01*
X33552240Y24532400D01*
X33452960Y24532400D01*
X33355589Y24513032D01*
X33333511Y24503887D01*
X33333511Y26034499D01*
X33545900Y26246887D01*
X33550360Y26246000D01*
X33649640Y26246000D01*
X33747011Y26265368D01*
X33838734Y26303361D01*
X33921282Y26358517D01*
X33991483Y26428718D01*
X34046639Y26511266D01*
X34084632Y26602989D01*
X34104000Y26700360D01*
X34104000Y26799640D01*
X34084632Y26897011D01*
X34046639Y26988734D01*
X33991483Y27071282D01*
X33921282Y27141483D01*
X33838734Y27196639D01*
X33747011Y27234632D01*
X33649640Y27254000D01*
X33550360Y27254000D01*
X33452989Y27234632D01*
X33361266Y27196639D01*
X33278718Y27141483D01*
X33208517Y27071282D01*
X33153361Y26988734D01*
X33115368Y26897011D01*
X33096000Y26799640D01*
X33096000Y26700360D01*
X33096887Y26695900D01*
X33079500Y26678512D01*
X33079500Y27524640D01*
X35596000Y27524640D01*
X35596000Y27425360D01*
X35615368Y27327989D01*
X35653361Y27236266D01*
X35708517Y27153718D01*
X35778718Y27083517D01*
X35861266Y27028361D01*
X35952989Y26990368D01*
X36050360Y26971000D01*
X36149640Y26971000D01*
X36247011Y26990368D01*
X36338734Y27028361D01*
X36421282Y27083517D01*
X36491483Y27153718D01*
X36546639Y27236266D01*
X36584632Y27327989D01*
X36604000Y27425360D01*
X36604000Y27524640D01*
X36584632Y27622011D01*
X36546639Y27713734D01*
X36491483Y27796282D01*
X36421282Y27866483D01*
X36338734Y27921639D01*
X36247011Y27959632D01*
X36149640Y27979000D01*
X36050360Y27979000D01*
X35952989Y27959632D01*
X35861266Y27921639D01*
X35778718Y27866483D01*
X35708517Y27796282D01*
X35653361Y27713734D01*
X35615368Y27622011D01*
X35596000Y27524640D01*
X33079500Y27524640D01*
X33079500Y28388184D01*
X35413873Y30722557D01*
X35433106Y30738341D01*
X35496088Y30815085D01*
X35542888Y30902642D01*
X35568781Y30988000D01*
X35571707Y30997645D01*
X35581438Y31096447D01*
X35579000Y31121201D01*
X35579000Y32424640D01*
X35574145Y32449050D01*
X35571707Y32473800D01*
X35564488Y32497599D01*
X35559632Y32522011D01*
X35550108Y32545005D01*
X35542888Y32568805D01*
X35531163Y32590741D01*
X35521639Y32613734D01*
X35507812Y32634428D01*
X35496088Y32656362D01*
X35480312Y32675585D01*
X35466483Y32696282D01*
X35448881Y32713884D01*
X35433106Y32733106D01*
X35413884Y32748881D01*
X35396282Y32766483D01*
X35375585Y32780312D01*
X35356362Y32796088D01*
X35334428Y32807812D01*
X35313734Y32821639D01*
X35290741Y32831163D01*
X35268805Y32842888D01*
X35245004Y32850108D01*
X35222011Y32859632D01*
X35197601Y32864487D01*
X35173801Y32871707D01*
X35149049Y32874145D01*
X35124640Y32879000D01*
X35099754Y32879000D01*
X35075000Y32881438D01*
X35050247Y32879000D01*
X35025360Y32879000D01*
X35000951Y32874145D01*
X34976200Y32871707D01*
X34952402Y32864488D01*
X34927989Y32859632D01*
X34904993Y32850107D01*
X34881196Y32842888D01*
X34859264Y32831165D01*
X34836266Y32821639D01*
X34815568Y32807809D01*
X34793639Y32796088D01*
X34774420Y32780315D01*
X34753718Y32766483D01*
X34736112Y32748877D01*
X34716895Y32733106D01*
X34701124Y32713889D01*
X34683517Y32696282D01*
X34669684Y32675579D01*
X34653913Y32656362D01*
X34642193Y32634435D01*
X34628361Y32613734D01*
X34618833Y32590732D01*
X34607113Y32568805D01*
X34599895Y32545011D01*
X34590368Y32522011D01*
X34585512Y32497599D01*
X34578293Y32473801D01*
X34575855Y32449049D01*
X34571000Y32424640D01*
X34571000Y31996694D01*
X34571001Y31996684D01*
X34571000Y31305210D01*
X32347669Y29081879D01*
X32332779Y29109737D01*
X32293103Y29158083D01*
X32280987Y29168026D01*
X31389373Y30059640D01*
X32006000Y30059640D01*
X32006000Y29960360D01*
X32025368Y29862989D01*
X32063361Y29771266D01*
X32118517Y29688718D01*
X32188718Y29618517D01*
X32271266Y29563361D01*
X32362989Y29525368D01*
X32460360Y29506000D01*
X32559640Y29506000D01*
X32657011Y29525368D01*
X32748734Y29563361D01*
X32831282Y29618517D01*
X32901483Y29688718D01*
X32956639Y29771266D01*
X32994632Y29862989D01*
X33014000Y29960360D01*
X33014000Y30059640D01*
X32994632Y30157011D01*
X32956639Y30248734D01*
X32901483Y30331282D01*
X32831282Y30401483D01*
X32748734Y30456639D01*
X32657011Y30494632D01*
X32559640Y30514000D01*
X32460360Y30514000D01*
X32362989Y30494632D01*
X32271266Y30456639D01*
X32188718Y30401483D01*
X32118517Y30331282D01*
X32063361Y30248734D01*
X32025368Y30157011D01*
X32006000Y30059640D01*
X31389373Y30059640D01*
X30191147Y31257866D01*
X30443500Y31257866D01*
X30443500Y31188134D01*
X30457104Y31119742D01*
X30483789Y31055318D01*
X30522530Y30997338D01*
X30571838Y30948030D01*
X30629818Y30909289D01*
X30694242Y30882604D01*
X30762634Y30869000D01*
X30832366Y30869000D01*
X30900758Y30882604D01*
X30965182Y30909289D01*
X31023162Y30948030D01*
X31072470Y30997338D01*
X31111211Y31055318D01*
X31137896Y31119742D01*
X31151500Y31188134D01*
X31151500Y31257866D01*
X31137896Y31326258D01*
X31111211Y31390682D01*
X31072470Y31448662D01*
X31023162Y31497970D01*
X30965182Y31536711D01*
X30900758Y31563396D01*
X30832366Y31577000D01*
X30762634Y31577000D01*
X30694242Y31563396D01*
X30629818Y31536711D01*
X30571838Y31497970D01*
X30522530Y31448662D01*
X30483789Y31390682D01*
X30457104Y31326258D01*
X30443500Y31257866D01*
X30191147Y31257866D01*
X30002304Y31446708D01*
X29992355Y31458831D01*
X29944009Y31498507D01*
X29888852Y31527989D01*
X29829003Y31546144D01*
X29782358Y31550738D01*
X29766762Y31552274D01*
X29751166Y31550738D01*
X29658748Y31550738D01*
X29656221Y31554520D01*
X29586020Y31624721D01*
X29503472Y31679877D01*
X29411749Y31717870D01*
X29314378Y31737238D01*
X29215098Y31737238D01*
X29117727Y31717870D01*
X29026004Y31679877D01*
X28943456Y31624721D01*
X28873255Y31554520D01*
X28831694Y31492319D01*
X28514209Y31809803D01*
X28505998Y31819808D01*
X28507500Y31827360D01*
X28507500Y31926640D01*
X28488132Y32024011D01*
X28474109Y32057866D01*
X30443500Y32057866D01*
X30443500Y31988134D01*
X30457104Y31919742D01*
X30483789Y31855318D01*
X30522530Y31797338D01*
X30571838Y31748030D01*
X30629818Y31709289D01*
X30694242Y31682604D01*
X30762634Y31669000D01*
X30832366Y31669000D01*
X30900758Y31682604D01*
X30965182Y31709289D01*
X31023162Y31748030D01*
X31072470Y31797338D01*
X31111211Y31855318D01*
X31137896Y31919742D01*
X31151500Y31988134D01*
X31151500Y32057866D01*
X31137896Y32126258D01*
X31111211Y32190682D01*
X31072470Y32248662D01*
X31023162Y32297970D01*
X30965182Y32336711D01*
X30900758Y32363396D01*
X30832366Y32377000D01*
X30762634Y32377000D01*
X30694242Y32363396D01*
X30629818Y32336711D01*
X30571838Y32297970D01*
X30522530Y32248662D01*
X30483789Y32190682D01*
X30457104Y32126258D01*
X30443500Y32057866D01*
X28474109Y32057866D01*
X28450139Y32115734D01*
X28394983Y32198282D01*
X28324782Y32268483D01*
X28242234Y32323639D01*
X28150511Y32361632D01*
X28053140Y32381000D01*
X27953860Y32381000D01*
X27856489Y32361632D01*
X27764766Y32323639D01*
X27682218Y32268483D01*
X27622500Y32208765D01*
X27562782Y32268483D01*
X27480234Y32323639D01*
X27388511Y32361632D01*
X27291140Y32381000D01*
X27191860Y32381000D01*
X27094489Y32361632D01*
X27002766Y32323639D01*
X26924736Y32271502D01*
X26891475Y32321282D01*
X26821274Y32391483D01*
X26738726Y32446639D01*
X26647003Y32484632D01*
X26549632Y32504000D01*
X26450352Y32504000D01*
X26352981Y32484632D01*
X26261258Y32446639D01*
X26178710Y32391483D01*
X26108509Y32321282D01*
X26053353Y32238734D01*
X26015360Y32147011D01*
X25995992Y32049640D01*
X25995992Y31950360D01*
X26015360Y31852989D01*
X26053353Y31761266D01*
X26108509Y31678718D01*
X26178710Y31608517D01*
X26261258Y31553361D01*
X26352981Y31515368D01*
X26450352Y31496000D01*
X26549632Y31496000D01*
X26647003Y31515368D01*
X26738726Y31553361D01*
X26773195Y31576392D01*
X26757113Y31546305D01*
X26728293Y31451301D01*
X26718562Y31352500D01*
X26721001Y31327737D01*
X26721000Y29749640D01*
X26721000Y29724754D01*
X26718562Y29700000D01*
X26721000Y29675247D01*
X26721000Y29650360D01*
X26725855Y29625951D01*
X26728293Y29601199D01*
X26732219Y29588258D01*
X26735512Y29577402D01*
X26740368Y29552989D01*
X26749893Y29529993D01*
X26757112Y29506196D01*
X26768836Y29484263D01*
X26778361Y29461266D01*
X26792189Y29440571D01*
X26803912Y29418638D01*
X26819688Y29399415D01*
X26833517Y29378718D01*
X26851119Y29361116D01*
X26866894Y29341894D01*
X26886116Y29326119D01*
X26903718Y29308517D01*
X26903724Y29308513D01*
X26970999Y29241238D01*
X26971000Y25524763D01*
X26969237Y25523000D01*
X26815263Y25523000D01*
X26400786Y25937477D01*
X26385002Y25956710D01*
X26308258Y26019692D01*
X26220701Y26066492D01*
X26125697Y26095311D01*
X26051650Y26102604D01*
X26026896Y26105042D01*
X26002142Y26102604D01*
X24407818Y26102604D01*
X24424132Y26141989D01*
X24443500Y26239360D01*
X24443500Y26338640D01*
X24424132Y26436011D01*
X24386139Y26527734D01*
X24330983Y26610282D01*
X24260782Y26680483D01*
X24178234Y26735639D01*
X24086511Y26773632D01*
X23989140Y26793000D01*
X23889860Y26793000D01*
X23792489Y26773632D01*
X23700766Y26735639D01*
X23618218Y26680483D01*
X23548017Y26610282D01*
X23492861Y26527734D01*
X23454868Y26436011D01*
X23435500Y26338640D01*
X23435500Y26239360D01*
X23436387Y26234900D01*
X23431500Y26230013D01*
X23431500Y27046488D01*
X24007513Y27622500D01*
X24424404Y27622500D01*
X24440000Y27620964D01*
X24455596Y27622500D01*
X24502241Y27627094D01*
X24562090Y27645249D01*
X24617247Y27674731D01*
X24665593Y27714407D01*
X24675542Y27726530D01*
X25331513Y28382500D01*
X25781104Y28382500D01*
X25828155Y28335449D01*
X25874520Y28304469D01*
X25840366Y28222013D01*
X25820998Y28124642D01*
X25820998Y28025362D01*
X25840366Y27927991D01*
X25878359Y27836268D01*
X25933515Y27753720D01*
X26003716Y27683519D01*
X26086264Y27628363D01*
X26177987Y27590370D01*
X26275358Y27571002D01*
X26374638Y27571002D01*
X26472009Y27590370D01*
X26563732Y27628363D01*
X26646280Y27683519D01*
X26716481Y27753720D01*
X26771637Y27836268D01*
X26809630Y27927991D01*
X26828998Y28025362D01*
X26828998Y28124642D01*
X26828458Y28127356D01*
X26867770Y28175258D01*
X26897252Y28230415D01*
X26915407Y28290264D01*
X26916883Y28305249D01*
X26921538Y28352505D01*
X26920001Y28368108D01*
X26920001Y28944407D01*
X26921537Y28960000D01*
X26919359Y28982114D01*
X26915407Y29022240D01*
X26897252Y29082089D01*
X26867770Y29137246D01*
X26828094Y29185592D01*
X26815978Y29195535D01*
X25762542Y30248970D01*
X25752593Y30261093D01*
X25704247Y30300769D01*
X25649090Y30330251D01*
X25589241Y30348406D01*
X25542596Y30353000D01*
X25527000Y30354536D01*
X25511404Y30353000D01*
X23182012Y30353000D01*
X23708477Y30879464D01*
X23720593Y30889407D01*
X23760269Y30937753D01*
X23789751Y30992910D01*
X23807906Y31052759D01*
X23812500Y31099404D01*
X23812500Y31099405D01*
X23814036Y31115000D01*
X23812500Y31130596D01*
X23812500Y31480404D01*
X23814036Y31496000D01*
X23812129Y31515368D01*
X23807906Y31558241D01*
X23789751Y31618090D01*
X23760269Y31673247D01*
X23720593Y31721593D01*
X23708476Y31731537D01*
X23491000Y31949012D01*
X23491000Y31990140D01*
X23471632Y32087511D01*
X23433639Y32179234D01*
X23378483Y32261782D01*
X23308282Y32331983D01*
X23225734Y32387139D01*
X23134011Y32425132D01*
X23036640Y32444500D01*
X22937360Y32444500D01*
X22839989Y32425132D01*
X22748266Y32387139D01*
X22731151Y32375703D01*
X22679983Y32452282D01*
X22609782Y32522483D01*
X22527234Y32577639D01*
X22435511Y32615632D01*
X22338140Y32635000D01*
X22238860Y32635000D01*
X22141489Y32615632D01*
X22049766Y32577639D01*
X21967218Y32522483D01*
X21953704Y32508969D01*
X21953704Y33060310D01*
X23874306Y33060310D01*
X23874307Y31788242D01*
X23875326Y31777899D01*
X23875304Y31774795D01*
X23875631Y31771464D01*
X23885831Y31674415D01*
X23890199Y31653136D01*
X23894270Y31631794D01*
X23895238Y31628590D01*
X23924094Y31535371D01*
X23932502Y31515368D01*
X23940651Y31495199D01*
X23942223Y31492244D01*
X23988636Y31406406D01*
X24000765Y31388424D01*
X24012680Y31370217D01*
X24014795Y31367623D01*
X24076997Y31292434D01*
X24092396Y31277143D01*
X24107611Y31261605D01*
X24110190Y31259472D01*
X24185811Y31197796D01*
X24203882Y31185789D01*
X24221834Y31173497D01*
X24224771Y31171910D01*
X24224776Y31171907D01*
X24224781Y31171905D01*
X24310940Y31126094D01*
X24331018Y31117818D01*
X24350992Y31109257D01*
X24354187Y31108269D01*
X24354191Y31108267D01*
X24354195Y31108266D01*
X24447607Y31080063D01*
X24468897Y31075847D01*
X24490171Y31071325D01*
X24493495Y31070976D01*
X24493499Y31070976D01*
X24590617Y31061454D01*
X24590623Y31061454D01*
X24602238Y31060310D01*
X25225772Y31060310D01*
X25236124Y31061330D01*
X25239219Y31061308D01*
X25242550Y31061635D01*
X25339599Y31071835D01*
X25360878Y31076203D01*
X25382220Y31080274D01*
X25385424Y31081242D01*
X25478643Y31110098D01*
X25498649Y31118508D01*
X25518815Y31126655D01*
X25521765Y31128224D01*
X25521769Y31128226D01*
X25521772Y31128228D01*
X25607608Y31174640D01*
X25625590Y31186769D01*
X25643797Y31198684D01*
X25646391Y31200799D01*
X25721580Y31263001D01*
X25736871Y31278400D01*
X25752409Y31293615D01*
X25754542Y31296194D01*
X25816218Y31371815D01*
X25828225Y31389886D01*
X25840517Y31407838D01*
X25842104Y31410775D01*
X25842107Y31410780D01*
X25842109Y31410785D01*
X25887920Y31496944D01*
X25896196Y31517022D01*
X25904757Y31536996D01*
X25905746Y31540193D01*
X25933951Y31633611D01*
X25938167Y31654901D01*
X25942689Y31676175D01*
X25943038Y31679503D01*
X25952560Y31776621D01*
X25952560Y31776627D01*
X25953704Y31788242D01*
X25953704Y33060310D01*
X32365884Y33060310D01*
X32364989Y33060132D01*
X32273266Y33022139D01*
X32190718Y32966983D01*
X32120517Y32896782D01*
X32065361Y32814234D01*
X32027368Y32722511D01*
X32008000Y32625140D01*
X32008000Y32525860D01*
X32027368Y32428489D01*
X32065361Y32336766D01*
X32120517Y32254218D01*
X32190718Y32184017D01*
X32273266Y32128861D01*
X32364989Y32090868D01*
X32462360Y32071500D01*
X32561640Y32071500D01*
X32659011Y32090868D01*
X32750734Y32128861D01*
X32833282Y32184017D01*
X32903483Y32254218D01*
X32958639Y32336766D01*
X32996632Y32428489D01*
X33016000Y32525860D01*
X33016000Y32625140D01*
X32996632Y32722511D01*
X32958639Y32814234D01*
X32903483Y32896782D01*
X32833282Y32966983D01*
X32750734Y33022139D01*
X32659011Y33060132D01*
X32658116Y33060310D01*
X40488283Y33060310D01*
X40647457Y33044703D01*
X40789298Y33001879D01*
X40920118Y32932320D01*
X41034928Y32838684D01*
X41129372Y32724521D01*
X41199841Y32594191D01*
X41243652Y32452660D01*
X41260308Y32294189D01*
X41260307Y1011723D01*
X41244699Y852546D01*
X41201875Y710706D01*
X41132318Y579890D01*
X41038681Y465079D01*
X40924518Y370635D01*
X40794188Y300166D01*
X40652657Y256355D01*
X40494196Y239700D01*
X1011723Y239700D01*
X852546Y255308D01*
X710706Y298132D01*
X579890Y367689D01*
X465079Y461326D01*
X370635Y575489D01*
X300166Y705819D01*
X256355Y847350D01*
X239700Y1005811D01*
X239700Y3669140D01*
X16133000Y3669140D01*
X16133000Y3569860D01*
X16152368Y3472489D01*
X16190361Y3380766D01*
X16245517Y3298218D01*
X16315718Y3228017D01*
X16398266Y3172861D01*
X16489989Y3134868D01*
X16587360Y3115500D01*
X16686640Y3115500D01*
X16784011Y3134868D01*
X16875734Y3172861D01*
X16958282Y3228017D01*
X17028483Y3298218D01*
X17083639Y3380766D01*
X17121632Y3472489D01*
X17141000Y3569860D01*
X17141000Y3669140D01*
X17121632Y3766511D01*
X17083639Y3858234D01*
X17028483Y3940782D01*
X16958282Y4010983D01*
X16875734Y4066139D01*
X16784011Y4104132D01*
X16686640Y4123500D01*
X16587360Y4123500D01*
X16489989Y4104132D01*
X16398266Y4066139D01*
X16315718Y4010983D01*
X16245517Y3940782D01*
X16190361Y3858234D01*
X16152368Y3766511D01*
X16133000Y3669140D01*
X239700Y3669140D01*
X239700Y4812140D01*
X10227500Y4812140D01*
X10227500Y4712860D01*
X10246868Y4615489D01*
X10284861Y4523766D01*
X10340017Y4441218D01*
X10410218Y4371017D01*
X10492766Y4315861D01*
X10584489Y4277868D01*
X10681860Y4258500D01*
X10781140Y4258500D01*
X10878511Y4277868D01*
X10970234Y4315861D01*
X11052782Y4371017D01*
X11122983Y4441218D01*
X11178139Y4523766D01*
X11216132Y4615489D01*
X11235500Y4712860D01*
X11235500Y4812140D01*
X11216132Y4909511D01*
X11178139Y5001234D01*
X11122983Y5083782D01*
X11052782Y5153983D01*
X10970234Y5209139D01*
X10878511Y5247132D01*
X10781140Y5266500D01*
X10681860Y5266500D01*
X10584489Y5247132D01*
X10492766Y5209139D01*
X10410218Y5153983D01*
X10340017Y5083782D01*
X10284861Y5001234D01*
X10246868Y4909511D01*
X10227500Y4812140D01*
X239700Y4812140D01*
X239700Y13300000D01*
X6494772Y13300000D01*
X6494772Y11600000D01*
X6499676Y11550207D01*
X6514200Y11502328D01*
X6537786Y11458203D01*
X6569527Y11419527D01*
X6608203Y11387786D01*
X6652328Y11364200D01*
X6700207Y11349676D01*
X6750000Y11344772D01*
X8450000Y11344772D01*
X8499793Y11349676D01*
X8547672Y11364200D01*
X8591797Y11387786D01*
X8630473Y11419527D01*
X8637627Y11428245D01*
X13822005Y11428245D01*
X13822005Y11328965D01*
X13841373Y11231594D01*
X13879366Y11139871D01*
X13934522Y11057323D01*
X14004723Y10987122D01*
X14087271Y10931966D01*
X14178994Y10893973D01*
X14276365Y10874605D01*
X14375645Y10874605D01*
X14473016Y10893973D01*
X14564739Y10931966D01*
X14647287Y10987122D01*
X14717488Y11057323D01*
X14772644Y11139871D01*
X14810637Y11231594D01*
X14830005Y11328965D01*
X14830005Y11428245D01*
X14810637Y11525616D01*
X14772644Y11617339D01*
X14717488Y11699887D01*
X14647287Y11770088D01*
X14564739Y11825244D01*
X14473016Y11863237D01*
X14375645Y11882605D01*
X14276365Y11882605D01*
X14178994Y11863237D01*
X14087271Y11825244D01*
X14004723Y11770088D01*
X13934522Y11699887D01*
X13879366Y11617339D01*
X13841373Y11525616D01*
X13822005Y11428245D01*
X8637627Y11428245D01*
X8662214Y11458203D01*
X8685800Y11502328D01*
X8700324Y11550207D01*
X8705228Y11600000D01*
X8705228Y13300000D01*
X8700324Y13349793D01*
X8685800Y13397672D01*
X8662214Y13441797D01*
X8630473Y13480473D01*
X8591797Y13512214D01*
X8547672Y13535800D01*
X8499793Y13550324D01*
X8450000Y13555228D01*
X6750000Y13555228D01*
X6700207Y13550324D01*
X6652328Y13535800D01*
X6608203Y13512214D01*
X6569527Y13480473D01*
X6537786Y13441797D01*
X6514200Y13397672D01*
X6499676Y13349793D01*
X6494772Y13300000D01*
X239700Y13300000D01*
X239700Y15149640D01*
X13121000Y15149640D01*
X13121000Y15050360D01*
X13140368Y14952989D01*
X13178361Y14861266D01*
X13233517Y14778718D01*
X13287235Y14725000D01*
X13258517Y14696282D01*
X13203361Y14613734D01*
X13165368Y14522011D01*
X13146000Y14424640D01*
X13146000Y14325360D01*
X13165368Y14227989D01*
X13203361Y14136266D01*
X13258517Y14053718D01*
X13328718Y13983517D01*
X13411266Y13928361D01*
X13502989Y13890368D01*
X13600360Y13871000D01*
X13699640Y13871000D01*
X13797011Y13890368D01*
X13888734Y13928361D01*
X13971282Y13983517D01*
X14041483Y14053718D01*
X14096639Y14136266D01*
X14134632Y14227989D01*
X14154000Y14325360D01*
X14154000Y14424640D01*
X14134632Y14522011D01*
X14096639Y14613734D01*
X14041483Y14696282D01*
X13987765Y14750000D01*
X14016483Y14778718D01*
X14071639Y14861266D01*
X14109632Y14952989D01*
X14129000Y15050360D01*
X14129000Y15149640D01*
X14109632Y15247011D01*
X14071639Y15338734D01*
X14016483Y15421282D01*
X13946282Y15491483D01*
X13863734Y15546639D01*
X13772011Y15584632D01*
X13674640Y15604000D01*
X13575360Y15604000D01*
X13477989Y15584632D01*
X13386266Y15546639D01*
X13303718Y15491483D01*
X13233517Y15421282D01*
X13178361Y15338734D01*
X13140368Y15247011D01*
X13121000Y15149640D01*
X239700Y15149640D01*
X239700Y15326121D01*
X4075000Y15326121D01*
X4123601Y15335788D01*
X4164803Y15363318D01*
X4192333Y15404520D01*
X4202000Y15453121D01*
X4202000Y22057121D01*
X4192333Y22105722D01*
X4164803Y22146924D01*
X4123601Y22174454D01*
X4075000Y22184121D01*
X239700Y22184121D01*
X239700Y28370642D01*
X9211500Y28370642D01*
X9211500Y28271362D01*
X9230868Y28173991D01*
X9268861Y28082268D01*
X9324017Y27999720D01*
X9394218Y27929519D01*
X9476766Y27874363D01*
X9568489Y27836370D01*
X9665860Y27817002D01*
X9765140Y27817002D01*
X9862511Y27836370D01*
X9954234Y27874363D01*
X10036782Y27929519D01*
X10106983Y27999720D01*
X10128249Y28031548D01*
X10149517Y27999718D01*
X10219718Y27929517D01*
X10302266Y27874361D01*
X10393989Y27836368D01*
X10491360Y27817000D01*
X10590640Y27817000D01*
X10688011Y27836368D01*
X10779734Y27874361D01*
X10862282Y27929517D01*
X10932483Y27999718D01*
X10987639Y28082266D01*
X11025632Y28173989D01*
X11045000Y28271360D01*
X11045000Y28370640D01*
X11025632Y28468011D01*
X10987639Y28559734D01*
X10932483Y28642282D01*
X10862282Y28712483D01*
X10779734Y28767639D01*
X10688011Y28805632D01*
X10590640Y28825000D01*
X10491360Y28825000D01*
X10393989Y28805632D01*
X10302266Y28767639D01*
X10219718Y28712483D01*
X10149517Y28642282D01*
X10128251Y28610454D01*
X10106983Y28642284D01*
X10036782Y28712485D01*
X9954234Y28767641D01*
X9862511Y28805634D01*
X9765140Y28825002D01*
X9665860Y28825002D01*
X9568489Y28805634D01*
X9476766Y28767641D01*
X9394218Y28712485D01*
X9324017Y28642284D01*
X9268861Y28559736D01*
X9230868Y28468013D01*
X9211500Y28370642D01*
X239700Y28370642D01*
X239700Y29259640D01*
X11052996Y29259640D01*
X11052996Y29160360D01*
X11072364Y29062989D01*
X11110357Y28971266D01*
X11165513Y28888718D01*
X11235714Y28818517D01*
X11318262Y28763361D01*
X11409985Y28725368D01*
X11507356Y28706000D01*
X11606636Y28706000D01*
X11704007Y28725368D01*
X11795730Y28763361D01*
X11878278Y28818517D01*
X11948479Y28888718D01*
X12003635Y28971266D01*
X12041628Y29062989D01*
X12060996Y29160360D01*
X12060996Y29259640D01*
X12041628Y29357011D01*
X12003635Y29448734D01*
X11948479Y29531282D01*
X11878278Y29601483D01*
X11795730Y29656639D01*
X11704007Y29694632D01*
X11606636Y29714000D01*
X11507356Y29714000D01*
X11409985Y29694632D01*
X11318262Y29656639D01*
X11235714Y29601483D01*
X11165513Y29531282D01*
X11110357Y29448734D01*
X11072364Y29357011D01*
X11052996Y29259640D01*
X239700Y29259640D01*
X239700Y31926640D01*
X5973000Y31926640D01*
X5973000Y31827360D01*
X5992368Y31729989D01*
X6030361Y31638266D01*
X6085517Y31555718D01*
X6155718Y31485517D01*
X6238266Y31430361D01*
X6329989Y31392368D01*
X6427360Y31373000D01*
X6526640Y31373000D01*
X6624011Y31392368D01*
X6715734Y31430361D01*
X6798282Y31485517D01*
X6868483Y31555718D01*
X6923639Y31638266D01*
X6961632Y31729989D01*
X6981000Y31827360D01*
X6981000Y31926640D01*
X6961632Y32024011D01*
X6923639Y32115734D01*
X6868483Y32198282D01*
X6798282Y32268483D01*
X6715734Y32323639D01*
X6624011Y32361632D01*
X6526640Y32381000D01*
X6427360Y32381000D01*
X6329989Y32361632D01*
X6238266Y32323639D01*
X6155718Y32268483D01*
X6085517Y32198282D01*
X6030361Y32115734D01*
X5992368Y32024011D01*
X5973000Y31926640D01*
X239700Y31926640D01*
X239700Y32288285D01*
X255307Y32447459D01*
X298132Y32589303D01*
X367686Y32720116D01*
X461329Y32834933D01*
X575490Y32929376D01*
X705816Y32999843D01*
X847349Y33043655D01*
X1005810Y33060310D01*
X7874298Y33060310D01*
X7874299Y31788242D01*
G36*
X31412564Y3413423D02*
X31399778Y3408127D01*
X31321533Y3355846D01*
X31250251Y3403475D01*
X31158528Y3441468D01*
X31061157Y3460836D01*
X30961877Y3460836D01*
X30864506Y3441468D01*
X30772783Y3403475D01*
X30690235Y3348319D01*
X30620034Y3278118D01*
X30564878Y3195570D01*
X30526885Y3103847D01*
X30511070Y3024337D01*
X29268472Y3024337D01*
X29280285Y3052855D01*
X29299653Y3150226D01*
X29299653Y3249506D01*
X29280285Y3346877D01*
X29242292Y3438600D01*
X29187136Y3521148D01*
X29116935Y3591349D01*
X29034387Y3646505D01*
X28942664Y3684498D01*
X28845293Y3703866D01*
X28746013Y3703866D01*
X28648642Y3684498D01*
X28639829Y3680848D01*
X28635510Y3702563D01*
X28595346Y3799527D01*
X28597011Y3799858D01*
X28688734Y3837851D01*
X28771282Y3893007D01*
X28841483Y3963208D01*
X28896639Y4045756D01*
X28934632Y4137479D01*
X28954000Y4234850D01*
X28954000Y4334130D01*
X28934632Y4431501D01*
X28896639Y4523224D01*
X28841483Y4605772D01*
X28771282Y4675973D01*
X28688734Y4731129D01*
X28597011Y4769122D01*
X28499640Y4788490D01*
X28400360Y4788490D01*
X28302989Y4769122D01*
X28211266Y4731129D01*
X28128718Y4675973D01*
X28058517Y4605772D01*
X28003361Y4523224D01*
X27965368Y4431501D01*
X27946000Y4334130D01*
X27946000Y4234850D01*
X27946308Y4233300D01*
X27841205Y4233300D01*
X27704004Y4206009D01*
X27704004Y4299640D01*
X27684636Y4397011D01*
X27646643Y4488734D01*
X27591487Y4571282D01*
X27521286Y4641483D01*
X27438738Y4696639D01*
X27347015Y4734632D01*
X27249644Y4754000D01*
X27150364Y4754000D01*
X27052993Y4734632D01*
X27001999Y4713510D01*
X27001999Y6430092D01*
X27050780Y6430092D01*
X27050780Y6330812D01*
X27070148Y6233441D01*
X27108141Y6141718D01*
X27163297Y6059170D01*
X27233498Y5988969D01*
X27300115Y5944457D01*
X27250984Y5870927D01*
X27194500Y5734563D01*
X27165705Y5589800D01*
X27165705Y5442200D01*
X27194500Y5297437D01*
X27250984Y5161073D01*
X27332985Y5038349D01*
X27437354Y4933980D01*
X27560078Y4851979D01*
X27696442Y4795495D01*
X27841205Y4766700D01*
X27988805Y4766700D01*
X28133568Y4795495D01*
X28269932Y4851979D01*
X28392656Y4933980D01*
X28497025Y5038349D01*
X28579026Y5161073D01*
X28635510Y5297437D01*
X28664305Y5442200D01*
X28664305Y5589800D01*
X28635510Y5734563D01*
X28579026Y5870927D01*
X28497025Y5993651D01*
X28392656Y6098020D01*
X28269932Y6180021D01*
X28133568Y6236505D01*
X28043582Y6254404D01*
X28058780Y6330812D01*
X28058780Y6430092D01*
X28039412Y6527463D01*
X28001419Y6619186D01*
X27946263Y6701734D01*
X27876062Y6771935D01*
X27793514Y6827091D01*
X27701791Y6865084D01*
X27604420Y6884452D01*
X27505140Y6884452D01*
X27407769Y6865084D01*
X27316046Y6827091D01*
X27233498Y6771935D01*
X27163297Y6701734D01*
X27108141Y6619186D01*
X27070148Y6527463D01*
X27050780Y6430092D01*
X27001999Y6430092D01*
X27001999Y6577987D01*
X27460227Y7036214D01*
X27472344Y7046158D01*
X27512020Y7094504D01*
X27541502Y7149661D01*
X27559657Y7209510D01*
X27564251Y7256155D01*
X27564251Y7256157D01*
X27564751Y7261237D01*
X31412564Y3413423D01*
X31412564Y3413423D01*
G37*
X31412564Y3413423D02*
X31399778Y3408127D01*
X31321533Y3355846D01*
X31250251Y3403475D01*
X31158528Y3441468D01*
X31061157Y3460836D01*
X30961877Y3460836D01*
X30864506Y3441468D01*
X30772783Y3403475D01*
X30690235Y3348319D01*
X30620034Y3278118D01*
X30564878Y3195570D01*
X30526885Y3103847D01*
X30511070Y3024337D01*
X29268472Y3024337D01*
X29280285Y3052855D01*
X29299653Y3150226D01*
X29299653Y3249506D01*
X29280285Y3346877D01*
X29242292Y3438600D01*
X29187136Y3521148D01*
X29116935Y3591349D01*
X29034387Y3646505D01*
X28942664Y3684498D01*
X28845293Y3703866D01*
X28746013Y3703866D01*
X28648642Y3684498D01*
X28639829Y3680848D01*
X28635510Y3702563D01*
X28595346Y3799527D01*
X28597011Y3799858D01*
X28688734Y3837851D01*
X28771282Y3893007D01*
X28841483Y3963208D01*
X28896639Y4045756D01*
X28934632Y4137479D01*
X28954000Y4234850D01*
X28954000Y4334130D01*
X28934632Y4431501D01*
X28896639Y4523224D01*
X28841483Y4605772D01*
X28771282Y4675973D01*
X28688734Y4731129D01*
X28597011Y4769122D01*
X28499640Y4788490D01*
X28400360Y4788490D01*
X28302989Y4769122D01*
X28211266Y4731129D01*
X28128718Y4675973D01*
X28058517Y4605772D01*
X28003361Y4523224D01*
X27965368Y4431501D01*
X27946000Y4334130D01*
X27946000Y4234850D01*
X27946308Y4233300D01*
X27841205Y4233300D01*
X27704004Y4206009D01*
X27704004Y4299640D01*
X27684636Y4397011D01*
X27646643Y4488734D01*
X27591487Y4571282D01*
X27521286Y4641483D01*
X27438738Y4696639D01*
X27347015Y4734632D01*
X27249644Y4754000D01*
X27150364Y4754000D01*
X27052993Y4734632D01*
X27001999Y4713510D01*
X27001999Y6430092D01*
X27050780Y6430092D01*
X27050780Y6330812D01*
X27070148Y6233441D01*
X27108141Y6141718D01*
X27163297Y6059170D01*
X27233498Y5988969D01*
X27300115Y5944457D01*
X27250984Y5870927D01*
X27194500Y5734563D01*
X27165705Y5589800D01*
X27165705Y5442200D01*
X27194500Y5297437D01*
X27250984Y5161073D01*
X27332985Y5038349D01*
X27437354Y4933980D01*
X27560078Y4851979D01*
X27696442Y4795495D01*
X27841205Y4766700D01*
X27988805Y4766700D01*
X28133568Y4795495D01*
X28269932Y4851979D01*
X28392656Y4933980D01*
X28497025Y5038349D01*
X28579026Y5161073D01*
X28635510Y5297437D01*
X28664305Y5442200D01*
X28664305Y5589800D01*
X28635510Y5734563D01*
X28579026Y5870927D01*
X28497025Y5993651D01*
X28392656Y6098020D01*
X28269932Y6180021D01*
X28133568Y6236505D01*
X28043582Y6254404D01*
X28058780Y6330812D01*
X28058780Y6430092D01*
X28039412Y6527463D01*
X28001419Y6619186D01*
X27946263Y6701734D01*
X27876062Y6771935D01*
X27793514Y6827091D01*
X27701791Y6865084D01*
X27604420Y6884452D01*
X27505140Y6884452D01*
X27407769Y6865084D01*
X27316046Y6827091D01*
X27233498Y6771935D01*
X27163297Y6701734D01*
X27108141Y6619186D01*
X27070148Y6527463D01*
X27050780Y6430092D01*
X27001999Y6430092D01*
X27001999Y6577987D01*
X27460227Y7036214D01*
X27472344Y7046158D01*
X27512020Y7094504D01*
X27541502Y7149661D01*
X27559657Y7209510D01*
X27564251Y7256155D01*
X27564251Y7256157D01*
X27564751Y7261237D01*
X31412564Y3413423D01*
G36*
X31010108Y21633213D02*
X31092656Y21578057D01*
X31184379Y21540064D01*
X31281750Y21520696D01*
X31381030Y21520696D01*
X31478401Y21540064D01*
X31496001Y21547354D01*
X31496000Y11752013D01*
X31359600Y11615613D01*
X31355140Y11616500D01*
X31255860Y11616500D01*
X31158489Y11597132D01*
X31066766Y11559139D01*
X30984218Y11503983D01*
X30914017Y11433782D01*
X30858861Y11351234D01*
X30820868Y11259511D01*
X30801500Y11162140D01*
X30801500Y11062860D01*
X30820868Y10965489D01*
X30858861Y10873766D01*
X30914017Y10791218D01*
X30984218Y10721017D01*
X31066766Y10665861D01*
X31158489Y10627868D01*
X31255860Y10608500D01*
X31355140Y10608500D01*
X31452511Y10627868D01*
X31544234Y10665861D01*
X31626782Y10721017D01*
X31696983Y10791218D01*
X31750011Y10870581D01*
X31750011Y7049024D01*
X31454100Y6753113D01*
X31449640Y6754000D01*
X31350360Y6754000D01*
X31252989Y6734632D01*
X31161266Y6696639D01*
X31078718Y6641483D01*
X31008517Y6571282D01*
X30953361Y6488734D01*
X30915368Y6397011D01*
X30896000Y6299640D01*
X30896000Y6200360D01*
X30915368Y6102989D01*
X30953361Y6011266D01*
X31008517Y5928718D01*
X31078718Y5858517D01*
X31161266Y5803361D01*
X31252989Y5765368D01*
X31350360Y5746000D01*
X31449640Y5746000D01*
X31547011Y5765368D01*
X31638734Y5803361D01*
X31721282Y5858517D01*
X31791483Y5928718D01*
X31846639Y6011266D01*
X31884632Y6102989D01*
X31904000Y6200360D01*
X31904000Y6299640D01*
X31903113Y6304100D01*
X32280986Y6681973D01*
X32293103Y6691917D01*
X32332779Y6740263D01*
X32362261Y6795420D01*
X32380416Y6855269D01*
X32385010Y6901914D01*
X32386546Y6917510D01*
X32385010Y6933106D01*
X32385010Y8577227D01*
X32802720Y8159516D01*
X32764775Y8067909D01*
X32745407Y7970538D01*
X32745407Y7871258D01*
X32764775Y7773887D01*
X32802768Y7682164D01*
X32857924Y7599616D01*
X32928125Y7529415D01*
X33010673Y7474259D01*
X33102396Y7436266D01*
X33199767Y7416898D01*
X33299047Y7416898D01*
X33396418Y7436266D01*
X33488141Y7474259D01*
X33570689Y7529415D01*
X33640890Y7599616D01*
X33696046Y7682164D01*
X33734039Y7773887D01*
X33753407Y7871258D01*
X33753407Y7970538D01*
X33734039Y8067909D01*
X33696046Y8159632D01*
X33687444Y8172505D01*
X33696639Y8186266D01*
X33706167Y8209269D01*
X33717887Y8231195D01*
X33725105Y8254989D01*
X33734632Y8277989D01*
X33739488Y8302401D01*
X33746707Y8326199D01*
X33749145Y8350951D01*
X33754000Y8375360D01*
X33754000Y8400247D01*
X33756438Y8425001D01*
X33754000Y8449755D01*
X33754000Y8474640D01*
X33749145Y8499048D01*
X33746707Y8523802D01*
X33739487Y8547602D01*
X33734632Y8572011D01*
X33725106Y8595008D01*
X33717887Y8618806D01*
X33706165Y8640737D01*
X33696639Y8663734D01*
X33682810Y8684431D01*
X33671087Y8706363D01*
X33655313Y8725584D01*
X33641483Y8746282D01*
X33571282Y8816483D01*
X33571279Y8816485D01*
X33079500Y9308263D01*
X33079500Y11429488D01*
X36303887Y8205100D01*
X36303000Y8200640D01*
X36303000Y8101360D01*
X36322368Y8003989D01*
X36360361Y7912266D01*
X36415517Y7829718D01*
X36485718Y7759517D01*
X36568266Y7704361D01*
X36659989Y7666368D01*
X36757360Y7647000D01*
X36816987Y7647000D01*
X35750500Y6580512D01*
X35750500Y7225990D01*
X35754282Y7228517D01*
X35824483Y7298718D01*
X35879639Y7381266D01*
X35917632Y7472989D01*
X35937000Y7570360D01*
X35937000Y7669640D01*
X35917632Y7767011D01*
X35879639Y7858734D01*
X35824483Y7941282D01*
X35754282Y8011483D01*
X35671734Y8066639D01*
X35580011Y8104632D01*
X35482640Y8124000D01*
X35383360Y8124000D01*
X35285989Y8104632D01*
X35194266Y8066639D01*
X35111718Y8011483D01*
X35041517Y7941282D01*
X34986361Y7858734D01*
X34948368Y7767011D01*
X34929000Y7669640D01*
X34929000Y7570360D01*
X34948368Y7472989D01*
X34986361Y7381266D01*
X35041517Y7298718D01*
X35111718Y7228517D01*
X35115500Y7225990D01*
X35115501Y6639514D01*
X33586530Y5110542D01*
X33574407Y5100593D01*
X33534731Y5052246D01*
X33513603Y5012718D01*
X33505249Y4997089D01*
X33487094Y4937240D01*
X33480964Y4875000D01*
X33482500Y4859404D01*
X33482501Y3756514D01*
X32790997Y3065010D01*
X32784632Y3097011D01*
X32746639Y3188734D01*
X32691483Y3271282D01*
X32621282Y3341483D01*
X32538734Y3396639D01*
X32447011Y3434632D01*
X32349640Y3454000D01*
X32270013Y3454000D01*
X27876500Y7847512D01*
X27876500Y8052158D01*
X28403358Y7525299D01*
X28403364Y7525294D01*
X28425395Y7503263D01*
X28440368Y7427989D01*
X28478361Y7336266D01*
X28533517Y7253718D01*
X28603718Y7183517D01*
X28686266Y7128361D01*
X28777989Y7090368D01*
X28875360Y7071000D01*
X28974640Y7071000D01*
X29072011Y7090368D01*
X29163734Y7128361D01*
X29246282Y7183517D01*
X29316483Y7253718D01*
X29371639Y7336266D01*
X29409632Y7427989D01*
X29429000Y7525360D01*
X29429000Y7624640D01*
X29409632Y7722011D01*
X29371639Y7813734D01*
X29316483Y7896282D01*
X29246282Y7966483D01*
X29163734Y8021639D01*
X29072011Y8059632D01*
X28996737Y8074605D01*
X28974706Y8096636D01*
X28974701Y8096642D01*
X28407500Y8663842D01*
X28407500Y10927194D01*
X28432614Y10952308D01*
X28431860Y10944654D01*
X28427005Y10920245D01*
X28427005Y10895359D01*
X28424567Y10870605D01*
X28427005Y10845851D01*
X28427005Y10820965D01*
X28431860Y10796556D01*
X28434298Y10771804D01*
X28441517Y10748006D01*
X28446373Y10723594D01*
X28455900Y10700594D01*
X28463118Y10676800D01*
X28474838Y10654873D01*
X28484366Y10631871D01*
X28498198Y10611170D01*
X28509918Y10589243D01*
X28525688Y10570028D01*
X28539522Y10549323D01*
X28557133Y10531712D01*
X28572900Y10512500D01*
X28592112Y10496733D01*
X28609723Y10479122D01*
X28630428Y10465288D01*
X28649643Y10449518D01*
X28671570Y10437798D01*
X28692271Y10423966D01*
X28715273Y10414438D01*
X28737200Y10402718D01*
X28760994Y10395500D01*
X28783994Y10385973D01*
X28808406Y10381117D01*
X28832204Y10373898D01*
X28856956Y10371460D01*
X28881365Y10366605D01*
X28906251Y10366605D01*
X28931005Y10364167D01*
X28955759Y10366605D01*
X28980645Y10366605D01*
X29005054Y10371460D01*
X29029806Y10373898D01*
X29053604Y10381117D01*
X29078016Y10385973D01*
X29101016Y10395500D01*
X29124810Y10402718D01*
X29146737Y10414438D01*
X29169739Y10423966D01*
X29190440Y10437798D01*
X29212367Y10449518D01*
X29231584Y10465289D01*
X29252287Y10479122D01*
X29322488Y10549323D01*
X29322492Y10549329D01*
X30628378Y11855214D01*
X30647606Y11870994D01*
X30710588Y11947738D01*
X30757388Y12035295D01*
X30777563Y12101803D01*
X30786207Y12130298D01*
X30795938Y12229099D01*
X30793500Y12253853D01*
X30793500Y21061786D01*
X30795938Y21086540D01*
X30786207Y21185342D01*
X30772960Y21229011D01*
X30757388Y21280345D01*
X30710588Y21367902D01*
X30647606Y21444646D01*
X30628373Y21460430D01*
X30544658Y21544145D01*
X30629371Y21527295D01*
X30728651Y21527295D01*
X30826022Y21546663D01*
X30917745Y21584656D01*
X31000293Y21639812D01*
X31001901Y21641420D01*
X31010108Y21633213D01*
X31010108Y21633213D01*
G37*
X31010108Y21633213D02*
X31092656Y21578057D01*
X31184379Y21540064D01*
X31281750Y21520696D01*
X31381030Y21520696D01*
X31478401Y21540064D01*
X31496001Y21547354D01*
X31496000Y11752013D01*
X31359600Y11615613D01*
X31355140Y11616500D01*
X31255860Y11616500D01*
X31158489Y11597132D01*
X31066766Y11559139D01*
X30984218Y11503983D01*
X30914017Y11433782D01*
X30858861Y11351234D01*
X30820868Y11259511D01*
X30801500Y11162140D01*
X30801500Y11062860D01*
X30820868Y10965489D01*
X30858861Y10873766D01*
X30914017Y10791218D01*
X30984218Y10721017D01*
X31066766Y10665861D01*
X31158489Y10627868D01*
X31255860Y10608500D01*
X31355140Y10608500D01*
X31452511Y10627868D01*
X31544234Y10665861D01*
X31626782Y10721017D01*
X31696983Y10791218D01*
X31750011Y10870581D01*
X31750011Y7049024D01*
X31454100Y6753113D01*
X31449640Y6754000D01*
X31350360Y6754000D01*
X31252989Y6734632D01*
X31161266Y6696639D01*
X31078718Y6641483D01*
X31008517Y6571282D01*
X30953361Y6488734D01*
X30915368Y6397011D01*
X30896000Y6299640D01*
X30896000Y6200360D01*
X30915368Y6102989D01*
X30953361Y6011266D01*
X31008517Y5928718D01*
X31078718Y5858517D01*
X31161266Y5803361D01*
X31252989Y5765368D01*
X31350360Y5746000D01*
X31449640Y5746000D01*
X31547011Y5765368D01*
X31638734Y5803361D01*
X31721282Y5858517D01*
X31791483Y5928718D01*
X31846639Y6011266D01*
X31884632Y6102989D01*
X31904000Y6200360D01*
X31904000Y6299640D01*
X31903113Y6304100D01*
X32280986Y6681973D01*
X32293103Y6691917D01*
X32332779Y6740263D01*
X32362261Y6795420D01*
X32380416Y6855269D01*
X32385010Y6901914D01*
X32386546Y6917510D01*
X32385010Y6933106D01*
X32385010Y8577227D01*
X32802720Y8159516D01*
X32764775Y8067909D01*
X32745407Y7970538D01*
X32745407Y7871258D01*
X32764775Y7773887D01*
X32802768Y7682164D01*
X32857924Y7599616D01*
X32928125Y7529415D01*
X33010673Y7474259D01*
X33102396Y7436266D01*
X33199767Y7416898D01*
X33299047Y7416898D01*
X33396418Y7436266D01*
X33488141Y7474259D01*
X33570689Y7529415D01*
X33640890Y7599616D01*
X33696046Y7682164D01*
X33734039Y7773887D01*
X33753407Y7871258D01*
X33753407Y7970538D01*
X33734039Y8067909D01*
X33696046Y8159632D01*
X33687444Y8172505D01*
X33696639Y8186266D01*
X33706167Y8209269D01*
X33717887Y8231195D01*
X33725105Y8254989D01*
X33734632Y8277989D01*
X33739488Y8302401D01*
X33746707Y8326199D01*
X33749145Y8350951D01*
X33754000Y8375360D01*
X33754000Y8400247D01*
X33756438Y8425001D01*
X33754000Y8449755D01*
X33754000Y8474640D01*
X33749145Y8499048D01*
X33746707Y8523802D01*
X33739487Y8547602D01*
X33734632Y8572011D01*
X33725106Y8595008D01*
X33717887Y8618806D01*
X33706165Y8640737D01*
X33696639Y8663734D01*
X33682810Y8684431D01*
X33671087Y8706363D01*
X33655313Y8725584D01*
X33641483Y8746282D01*
X33571282Y8816483D01*
X33571279Y8816485D01*
X33079500Y9308263D01*
X33079500Y11429488D01*
X36303887Y8205100D01*
X36303000Y8200640D01*
X36303000Y8101360D01*
X36322368Y8003989D01*
X36360361Y7912266D01*
X36415517Y7829718D01*
X36485718Y7759517D01*
X36568266Y7704361D01*
X36659989Y7666368D01*
X36757360Y7647000D01*
X36816987Y7647000D01*
X35750500Y6580512D01*
X35750500Y7225990D01*
X35754282Y7228517D01*
X35824483Y7298718D01*
X35879639Y7381266D01*
X35917632Y7472989D01*
X35937000Y7570360D01*
X35937000Y7669640D01*
X35917632Y7767011D01*
X35879639Y7858734D01*
X35824483Y7941282D01*
X35754282Y8011483D01*
X35671734Y8066639D01*
X35580011Y8104632D01*
X35482640Y8124000D01*
X35383360Y8124000D01*
X35285989Y8104632D01*
X35194266Y8066639D01*
X35111718Y8011483D01*
X35041517Y7941282D01*
X34986361Y7858734D01*
X34948368Y7767011D01*
X34929000Y7669640D01*
X34929000Y7570360D01*
X34948368Y7472989D01*
X34986361Y7381266D01*
X35041517Y7298718D01*
X35111718Y7228517D01*
X35115500Y7225990D01*
X35115501Y6639514D01*
X33586530Y5110542D01*
X33574407Y5100593D01*
X33534731Y5052246D01*
X33513603Y5012718D01*
X33505249Y4997089D01*
X33487094Y4937240D01*
X33480964Y4875000D01*
X33482500Y4859404D01*
X33482501Y3756514D01*
X32790997Y3065010D01*
X32784632Y3097011D01*
X32746639Y3188734D01*
X32691483Y3271282D01*
X32621282Y3341483D01*
X32538734Y3396639D01*
X32447011Y3434632D01*
X32349640Y3454000D01*
X32270013Y3454000D01*
X27876500Y7847512D01*
X27876500Y8052158D01*
X28403358Y7525299D01*
X28403364Y7525294D01*
X28425395Y7503263D01*
X28440368Y7427989D01*
X28478361Y7336266D01*
X28533517Y7253718D01*
X28603718Y7183517D01*
X28686266Y7128361D01*
X28777989Y7090368D01*
X28875360Y7071000D01*
X28974640Y7071000D01*
X29072011Y7090368D01*
X29163734Y7128361D01*
X29246282Y7183517D01*
X29316483Y7253718D01*
X29371639Y7336266D01*
X29409632Y7427989D01*
X29429000Y7525360D01*
X29429000Y7624640D01*
X29409632Y7722011D01*
X29371639Y7813734D01*
X29316483Y7896282D01*
X29246282Y7966483D01*
X29163734Y8021639D01*
X29072011Y8059632D01*
X28996737Y8074605D01*
X28974706Y8096636D01*
X28974701Y8096642D01*
X28407500Y8663842D01*
X28407500Y10927194D01*
X28432614Y10952308D01*
X28431860Y10944654D01*
X28427005Y10920245D01*
X28427005Y10895359D01*
X28424567Y10870605D01*
X28427005Y10845851D01*
X28427005Y10820965D01*
X28431860Y10796556D01*
X28434298Y10771804D01*
X28441517Y10748006D01*
X28446373Y10723594D01*
X28455900Y10700594D01*
X28463118Y10676800D01*
X28474838Y10654873D01*
X28484366Y10631871D01*
X28498198Y10611170D01*
X28509918Y10589243D01*
X28525688Y10570028D01*
X28539522Y10549323D01*
X28557133Y10531712D01*
X28572900Y10512500D01*
X28592112Y10496733D01*
X28609723Y10479122D01*
X28630428Y10465288D01*
X28649643Y10449518D01*
X28671570Y10437798D01*
X28692271Y10423966D01*
X28715273Y10414438D01*
X28737200Y10402718D01*
X28760994Y10395500D01*
X28783994Y10385973D01*
X28808406Y10381117D01*
X28832204Y10373898D01*
X28856956Y10371460D01*
X28881365Y10366605D01*
X28906251Y10366605D01*
X28931005Y10364167D01*
X28955759Y10366605D01*
X28980645Y10366605D01*
X29005054Y10371460D01*
X29029806Y10373898D01*
X29053604Y10381117D01*
X29078016Y10385973D01*
X29101016Y10395500D01*
X29124810Y10402718D01*
X29146737Y10414438D01*
X29169739Y10423966D01*
X29190440Y10437798D01*
X29212367Y10449518D01*
X29231584Y10465289D01*
X29252287Y10479122D01*
X29322488Y10549323D01*
X29322492Y10549329D01*
X30628378Y11855214D01*
X30647606Y11870994D01*
X30710588Y11947738D01*
X30757388Y12035295D01*
X30777563Y12101803D01*
X30786207Y12130298D01*
X30795938Y12229099D01*
X30793500Y12253853D01*
X30793500Y21061786D01*
X30795938Y21086540D01*
X30786207Y21185342D01*
X30772960Y21229011D01*
X30757388Y21280345D01*
X30710588Y21367902D01*
X30647606Y21444646D01*
X30628373Y21460430D01*
X30544658Y21544145D01*
X30629371Y21527295D01*
X30728651Y21527295D01*
X30826022Y21546663D01*
X30917745Y21584656D01*
X31000293Y21639812D01*
X31001901Y21641420D01*
X31010108Y21633213D01*
G36*
X20637500Y7307013D02*
X19808000Y6477512D01*
X19808000Y6522640D01*
X19807113Y6527101D01*
X19961970Y6681958D01*
X19974093Y6691907D01*
X20013769Y6740253D01*
X20043251Y6795410D01*
X20061406Y6855259D01*
X20066000Y6901904D01*
X20067536Y6917500D01*
X20066000Y6933096D01*
X20066000Y8694988D01*
X20637501Y9266488D01*
X20637500Y7307013D01*
X20637500Y7307013D01*
G37*
X20637500Y7307013D02*
X19808000Y6477512D01*
X19808000Y6522640D01*
X19807113Y6527101D01*
X19961970Y6681958D01*
X19974093Y6691907D01*
X20013769Y6740253D01*
X20043251Y6795410D01*
X20061406Y6855259D01*
X20066000Y6901904D01*
X20067536Y6917500D01*
X20066000Y6933096D01*
X20066000Y8694988D01*
X20637501Y9266488D01*
X20637500Y7307013D01*
G36*
X26128489Y11272546D02*
X26128490Y9118250D01*
X26093516Y9132737D01*
X25996145Y9152105D01*
X25896865Y9152105D01*
X25799494Y9132737D01*
X25707771Y9094744D01*
X25625223Y9039588D01*
X25555022Y8969387D01*
X25499866Y8886839D01*
X25461873Y8795116D01*
X25442505Y8697745D01*
X25442505Y8598465D01*
X25461873Y8501094D01*
X25499866Y8409371D01*
X25555022Y8326823D01*
X25625223Y8256622D01*
X25707771Y8201466D01*
X25799494Y8163473D01*
X25896865Y8144105D01*
X25996145Y8144105D01*
X26093516Y8163473D01*
X26128490Y8177960D01*
X26128490Y7823228D01*
X25907605Y7602342D01*
X25894048Y7618862D01*
X25881931Y7628806D01*
X25232766Y8277970D01*
X25222817Y8290093D01*
X25174471Y8329769D01*
X25119314Y8359251D01*
X25059465Y8377406D01*
X25012820Y8382000D01*
X24997224Y8383536D01*
X24981628Y8382000D01*
X24977856Y8382000D01*
X24996144Y8409371D01*
X25034137Y8501094D01*
X25053505Y8598465D01*
X25053505Y8697745D01*
X25034137Y8795116D01*
X24996144Y8886839D01*
X24940988Y8969387D01*
X24870787Y9039588D01*
X24788239Y9094744D01*
X24696516Y9132737D01*
X24599145Y9152105D01*
X24499865Y9152105D01*
X24402494Y9132737D01*
X24310771Y9094744D01*
X24232054Y9042148D01*
X24231001Y9052842D01*
X24231001Y11804674D01*
X24233196Y11826962D01*
X24231001Y11849250D01*
X24231001Y11849256D01*
X24224431Y11915960D01*
X24220926Y11927517D01*
X24198471Y12001540D01*
X24190613Y12016242D01*
X24156314Y12080410D01*
X24099580Y12149540D01*
X24082265Y12163750D01*
X23699669Y12546345D01*
X23723270Y12556121D01*
X23805818Y12611277D01*
X23876019Y12681478D01*
X23931175Y12764026D01*
X23969168Y12855749D01*
X23988536Y12953120D01*
X23988536Y13052400D01*
X23969168Y13149771D01*
X23931175Y13241494D01*
X23876019Y13324042D01*
X23865061Y13335000D01*
X24066036Y13335000D01*
X26128489Y11272546D01*
X26128489Y11272546D01*
G37*
X26128489Y11272546D02*
X26128490Y9118250D01*
X26093516Y9132737D01*
X25996145Y9152105D01*
X25896865Y9152105D01*
X25799494Y9132737D01*
X25707771Y9094744D01*
X25625223Y9039588D01*
X25555022Y8969387D01*
X25499866Y8886839D01*
X25461873Y8795116D01*
X25442505Y8697745D01*
X25442505Y8598465D01*
X25461873Y8501094D01*
X25499866Y8409371D01*
X25555022Y8326823D01*
X25625223Y8256622D01*
X25707771Y8201466D01*
X25799494Y8163473D01*
X25896865Y8144105D01*
X25996145Y8144105D01*
X26093516Y8163473D01*
X26128490Y8177960D01*
X26128490Y7823228D01*
X25907605Y7602342D01*
X25894048Y7618862D01*
X25881931Y7628806D01*
X25232766Y8277970D01*
X25222817Y8290093D01*
X25174471Y8329769D01*
X25119314Y8359251D01*
X25059465Y8377406D01*
X25012820Y8382000D01*
X24997224Y8383536D01*
X24981628Y8382000D01*
X24977856Y8382000D01*
X24996144Y8409371D01*
X25034137Y8501094D01*
X25053505Y8598465D01*
X25053505Y8697745D01*
X25034137Y8795116D01*
X24996144Y8886839D01*
X24940988Y8969387D01*
X24870787Y9039588D01*
X24788239Y9094744D01*
X24696516Y9132737D01*
X24599145Y9152105D01*
X24499865Y9152105D01*
X24402494Y9132737D01*
X24310771Y9094744D01*
X24232054Y9042148D01*
X24231001Y9052842D01*
X24231001Y11804674D01*
X24233196Y11826962D01*
X24231001Y11849250D01*
X24231001Y11849256D01*
X24224431Y11915960D01*
X24220926Y11927517D01*
X24198471Y12001540D01*
X24190613Y12016242D01*
X24156314Y12080410D01*
X24099580Y12149540D01*
X24082265Y12163750D01*
X23699669Y12546345D01*
X23723270Y12556121D01*
X23805818Y12611277D01*
X23876019Y12681478D01*
X23931175Y12764026D01*
X23969168Y12855749D01*
X23988536Y12953120D01*
X23988536Y13052400D01*
X23969168Y13149771D01*
X23931175Y13241494D01*
X23876019Y13324042D01*
X23865061Y13335000D01*
X24066036Y13335000D01*
X26128489Y11272546D01*
G36*
X23323001Y11638908D02*
X23323002Y9071173D01*
X23321000Y9050847D01*
X23321000Y9050841D01*
X23318805Y9028553D01*
X23321000Y9006265D01*
X23321000Y8895963D01*
X23290368Y8822011D01*
X23271000Y8724640D01*
X23271000Y8625360D01*
X23290368Y8527989D01*
X23328361Y8436266D01*
X23364620Y8382000D01*
X23237085Y8382000D01*
X23007675Y8611409D01*
X23008562Y8615870D01*
X23008562Y8715150D01*
X22989194Y8812521D01*
X22951201Y8904244D01*
X22896045Y8986792D01*
X22825844Y9056993D01*
X22743296Y9112149D01*
X22651573Y9150142D01*
X22554202Y9169510D01*
X22454922Y9169510D01*
X22357551Y9150142D01*
X22288544Y9121558D01*
X22288544Y10944979D01*
X22374970Y11031405D01*
X22387093Y11041354D01*
X22426769Y11089700D01*
X22456251Y11144857D01*
X22474406Y11204706D01*
X22476379Y11224739D01*
X22482782Y11229017D01*
X22552983Y11299218D01*
X22608139Y11381766D01*
X22646132Y11473489D01*
X22665500Y11570860D01*
X22665500Y11670140D01*
X22646132Y11767511D01*
X22608139Y11859234D01*
X22604286Y11865000D01*
X23096910Y11865000D01*
X23323001Y11638908D01*
X23323001Y11638908D01*
G37*
X23323001Y11638908D02*
X23323002Y9071173D01*
X23321000Y9050847D01*
X23321000Y9050841D01*
X23318805Y9028553D01*
X23321000Y9006265D01*
X23321000Y8895963D01*
X23290368Y8822011D01*
X23271000Y8724640D01*
X23271000Y8625360D01*
X23290368Y8527989D01*
X23328361Y8436266D01*
X23364620Y8382000D01*
X23237085Y8382000D01*
X23007675Y8611409D01*
X23008562Y8615870D01*
X23008562Y8715150D01*
X22989194Y8812521D01*
X22951201Y8904244D01*
X22896045Y8986792D01*
X22825844Y9056993D01*
X22743296Y9112149D01*
X22651573Y9150142D01*
X22554202Y9169510D01*
X22454922Y9169510D01*
X22357551Y9150142D01*
X22288544Y9121558D01*
X22288544Y10944979D01*
X22374970Y11031405D01*
X22387093Y11041354D01*
X22426769Y11089700D01*
X22456251Y11144857D01*
X22474406Y11204706D01*
X22476379Y11224739D01*
X22482782Y11229017D01*
X22552983Y11299218D01*
X22608139Y11381766D01*
X22646132Y11473489D01*
X22665500Y11570860D01*
X22665500Y11670140D01*
X22646132Y11767511D01*
X22608139Y11859234D01*
X22604286Y11865000D01*
X23096910Y11865000D01*
X23323001Y11638908D01*
G36*
X20129467Y14092520D02*
X20129467Y12219545D01*
X19748500Y12600512D01*
X19748500Y14473488D01*
X20129467Y14092520D01*
X20129467Y14092520D01*
G37*
X20129467Y14092520D02*
X20129467Y12219545D01*
X19748500Y12600512D01*
X19748500Y14473488D01*
X20129467Y14092520D01*
G36*
X18605746Y19717637D02*
X18705026Y19717637D01*
X18709487Y19718524D01*
X19113501Y19314509D01*
X19113500Y12502118D01*
X18532384Y13083234D01*
X18532384Y19732229D01*
X18605746Y19717637D01*
X18605746Y19717637D01*
G37*
X18605746Y19717637D02*
X18705026Y19717637D01*
X18709487Y19718524D01*
X19113501Y19314509D01*
X19113500Y12502118D01*
X18532384Y13083234D01*
X18532384Y19732229D01*
X18605746Y19717637D01*
G36*
X27764766Y31430361D02*
X27856489Y31392368D01*
X27953860Y31373000D01*
X28052988Y31373000D01*
X28889463Y30536524D01*
X28899407Y30524407D01*
X28939757Y30491293D01*
X28947753Y30484731D01*
X29002910Y30455249D01*
X29062759Y30437094D01*
X29125000Y30430963D01*
X29140603Y30432500D01*
X29718488Y30432500D01*
X31496001Y28654986D01*
X31496001Y22502038D01*
X31478401Y22509328D01*
X31381030Y22528696D01*
X31281750Y22528696D01*
X31184379Y22509328D01*
X31092656Y22471335D01*
X31010108Y22416179D01*
X31008500Y22414571D01*
X31000293Y22422778D01*
X30917745Y22477934D01*
X30826022Y22515927D01*
X30728651Y22535295D01*
X30629371Y22535295D01*
X30532000Y22515927D01*
X30440277Y22477934D01*
X30357729Y22422778D01*
X30354000Y22419049D01*
X30354000Y22866233D01*
X30746283Y23258515D01*
X30746286Y23258517D01*
X30763888Y23276119D01*
X30783110Y23291894D01*
X30798885Y23311116D01*
X30816487Y23328718D01*
X30830316Y23349415D01*
X30846092Y23368638D01*
X30857816Y23390572D01*
X30871643Y23411266D01*
X30881167Y23434259D01*
X30892892Y23456195D01*
X30900112Y23479996D01*
X30909636Y23502989D01*
X30914491Y23527399D01*
X30921711Y23551199D01*
X30924149Y23575951D01*
X30929004Y23600360D01*
X30929004Y23625246D01*
X30931442Y23650000D01*
X30929004Y23674754D01*
X30929004Y23699640D01*
X30924149Y23724049D01*
X30921711Y23748801D01*
X30914491Y23772601D01*
X30909636Y23797011D01*
X30900112Y23820004D01*
X30892892Y23843805D01*
X30881167Y23865741D01*
X30871643Y23888734D01*
X30857816Y23909428D01*
X30846092Y23931362D01*
X30830316Y23950585D01*
X30816487Y23971282D01*
X30798885Y23988884D01*
X30783110Y24008106D01*
X30763888Y24023881D01*
X30746286Y24041483D01*
X30725589Y24055312D01*
X30706366Y24071088D01*
X30684432Y24082812D01*
X30663738Y24096639D01*
X30640745Y24106163D01*
X30618809Y24117888D01*
X30595008Y24125108D01*
X30572015Y24134632D01*
X30547605Y24139487D01*
X30523805Y24146707D01*
X30499053Y24149145D01*
X30474644Y24154000D01*
X30449754Y24154000D01*
X30425003Y24156438D01*
X30400252Y24154000D01*
X29874754Y24154000D01*
X29850000Y24156438D01*
X29825247Y24154000D01*
X29800360Y24154000D01*
X29775951Y24149145D01*
X29751199Y24146707D01*
X29727399Y24139487D01*
X29702989Y24134632D01*
X29679996Y24125108D01*
X29656195Y24117888D01*
X29634259Y24106163D01*
X29611266Y24096639D01*
X29590572Y24082812D01*
X29568638Y24071088D01*
X29549415Y24055312D01*
X29528718Y24041483D01*
X29511116Y24023881D01*
X29491894Y24008106D01*
X29476119Y23988884D01*
X29458517Y23971282D01*
X29444688Y23950585D01*
X29428912Y23931362D01*
X29417188Y23909428D01*
X29403361Y23888734D01*
X29393837Y23865741D01*
X29382112Y23843805D01*
X29374892Y23820004D01*
X29365368Y23797011D01*
X29360513Y23772601D01*
X29353293Y23748801D01*
X29350855Y23724049D01*
X29346000Y23699640D01*
X29346000Y23674754D01*
X29343562Y23650000D01*
X29346000Y23625246D01*
X29346000Y23600360D01*
X29346001Y23600355D01*
X29346000Y23099752D01*
X29343562Y23074996D01*
X29346000Y23050241D01*
X29346000Y22950247D01*
X29346001Y22950237D01*
X29346000Y21941769D01*
X29321286Y21966483D01*
X29238738Y22021639D01*
X29147015Y22059632D01*
X29049644Y22079000D01*
X28950364Y22079000D01*
X28852993Y22059632D01*
X28761270Y22021639D01*
X28678722Y21966483D01*
X28608521Y21896282D01*
X28553365Y21813734D01*
X28515372Y21722011D01*
X28496004Y21624640D01*
X28496004Y21525360D01*
X28515372Y21427989D01*
X28553365Y21336266D01*
X28608521Y21253718D01*
X28678722Y21183517D01*
X28761270Y21128361D01*
X28820083Y21104000D01*
X28800360Y21104000D01*
X28702989Y21084632D01*
X28611266Y21046639D01*
X28528718Y20991483D01*
X28458517Y20921282D01*
X28403361Y20838734D01*
X28365368Y20747011D01*
X28346000Y20649640D01*
X28346000Y20550360D01*
X28365368Y20452989D01*
X28403361Y20361266D01*
X28458517Y20278718D01*
X28528718Y20208517D01*
X28611266Y20153361D01*
X28702989Y20115368D01*
X28800360Y20096000D01*
X28899640Y20096000D01*
X28997011Y20115368D01*
X29088734Y20153361D01*
X29111500Y20168573D01*
X29134266Y20153361D01*
X29225989Y20115368D01*
X29323360Y20096000D01*
X29422640Y20096000D01*
X29520011Y20115368D01*
X29611734Y20153361D01*
X29694282Y20208517D01*
X29764483Y20278718D01*
X29785501Y20310174D01*
X29785500Y13297790D01*
X29759019Y13347332D01*
X29757040Y13351035D01*
X29731420Y13382253D01*
X29706555Y13412551D01*
X29691143Y13425199D01*
X29307097Y13809245D01*
X29294448Y13824658D01*
X29232931Y13875143D01*
X29162747Y13912658D01*
X29086593Y13935759D01*
X29027235Y13941605D01*
X29027232Y13941605D01*
X29007395Y13943559D01*
X28987558Y13941605D01*
X27745500Y13941605D01*
X27745500Y23674636D01*
X28096000Y23674636D01*
X28096000Y23575356D01*
X28115368Y23477985D01*
X28153361Y23386262D01*
X28208517Y23303714D01*
X28278718Y23233513D01*
X28361266Y23178357D01*
X28452989Y23140364D01*
X28550360Y23120996D01*
X28649640Y23120996D01*
X28747011Y23140364D01*
X28838734Y23178357D01*
X28921282Y23233513D01*
X28991483Y23303714D01*
X29046639Y23386262D01*
X29084632Y23477985D01*
X29104000Y23575356D01*
X29104000Y23674636D01*
X29084632Y23772007D01*
X29046639Y23863730D01*
X28991483Y23946278D01*
X28921282Y24016479D01*
X28838734Y24071635D01*
X28747011Y24109628D01*
X28649640Y24128996D01*
X28550360Y24128996D01*
X28452989Y24109628D01*
X28361266Y24071635D01*
X28278718Y24016479D01*
X28208517Y23946278D01*
X28153361Y23863730D01*
X28115368Y23772007D01*
X28096000Y23674636D01*
X27745500Y23674636D01*
X27745500Y24359247D01*
X27747938Y24384000D01*
X27745500Y24408754D01*
X27745500Y24873737D01*
X27813872Y24942109D01*
X27833105Y24957893D01*
X27896087Y25034637D01*
X27942887Y25122194D01*
X27969837Y25211036D01*
X27971706Y25217197D01*
X27981437Y25315998D01*
X27978999Y25340752D01*
X27978999Y28474640D01*
X27996000Y28474640D01*
X27996000Y28375360D01*
X28015368Y28277989D01*
X28053361Y28186266D01*
X28108517Y28103718D01*
X28178718Y28033517D01*
X28261266Y27978361D01*
X28352989Y27940368D01*
X28450360Y27921000D01*
X28549640Y27921000D01*
X28647011Y27940368D01*
X28738734Y27978361D01*
X28821282Y28033517D01*
X28891483Y28103718D01*
X28946639Y28186266D01*
X28984632Y28277989D01*
X29004000Y28375360D01*
X29004000Y28474640D01*
X28984632Y28572011D01*
X28946639Y28663734D01*
X28891483Y28746282D01*
X28821282Y28816483D01*
X28738734Y28871639D01*
X28647011Y28909632D01*
X28549640Y28929000D01*
X28450360Y28929000D01*
X28352989Y28909632D01*
X28261266Y28871639D01*
X28178718Y28816483D01*
X28108517Y28746282D01*
X28053361Y28663734D01*
X28015368Y28572011D01*
X27996000Y28474640D01*
X27978999Y28474640D01*
X27978999Y29226840D01*
X28047011Y29240368D01*
X28138734Y29278361D01*
X28221282Y29333517D01*
X28291483Y29403718D01*
X28346639Y29486266D01*
X28384632Y29577989D01*
X28404000Y29675360D01*
X28404000Y29774640D01*
X28384632Y29872011D01*
X28346639Y29963734D01*
X28291483Y30046282D01*
X28221282Y30116483D01*
X28138734Y30171639D01*
X28047011Y30209632D01*
X27949640Y30229000D01*
X27850360Y30229000D01*
X27752989Y30209632D01*
X27729000Y30199695D01*
X27729000Y31236408D01*
X27730988Y31246403D01*
X27738207Y31270200D01*
X27740645Y31294951D01*
X27745500Y31319360D01*
X27745500Y31344247D01*
X27747938Y31369000D01*
X27745500Y31393754D01*
X27745500Y31418640D01*
X27740645Y31443049D01*
X27740283Y31446720D01*
X27764766Y31430361D01*
X27764766Y31430361D01*
G37*
X27764766Y31430361D02*
X27856489Y31392368D01*
X27953860Y31373000D01*
X28052988Y31373000D01*
X28889463Y30536524D01*
X28899407Y30524407D01*
X28939757Y30491293D01*
X28947753Y30484731D01*
X29002910Y30455249D01*
X29062759Y30437094D01*
X29125000Y30430963D01*
X29140603Y30432500D01*
X29718488Y30432500D01*
X31496001Y28654986D01*
X31496001Y22502038D01*
X31478401Y22509328D01*
X31381030Y22528696D01*
X31281750Y22528696D01*
X31184379Y22509328D01*
X31092656Y22471335D01*
X31010108Y22416179D01*
X31008500Y22414571D01*
X31000293Y22422778D01*
X30917745Y22477934D01*
X30826022Y22515927D01*
X30728651Y22535295D01*
X30629371Y22535295D01*
X30532000Y22515927D01*
X30440277Y22477934D01*
X30357729Y22422778D01*
X30354000Y22419049D01*
X30354000Y22866233D01*
X30746283Y23258515D01*
X30746286Y23258517D01*
X30763888Y23276119D01*
X30783110Y23291894D01*
X30798885Y23311116D01*
X30816487Y23328718D01*
X30830316Y23349415D01*
X30846092Y23368638D01*
X30857816Y23390572D01*
X30871643Y23411266D01*
X30881167Y23434259D01*
X30892892Y23456195D01*
X30900112Y23479996D01*
X30909636Y23502989D01*
X30914491Y23527399D01*
X30921711Y23551199D01*
X30924149Y23575951D01*
X30929004Y23600360D01*
X30929004Y23625246D01*
X30931442Y23650000D01*
X30929004Y23674754D01*
X30929004Y23699640D01*
X30924149Y23724049D01*
X30921711Y23748801D01*
X30914491Y23772601D01*
X30909636Y23797011D01*
X30900112Y23820004D01*
X30892892Y23843805D01*
X30881167Y23865741D01*
X30871643Y23888734D01*
X30857816Y23909428D01*
X30846092Y23931362D01*
X30830316Y23950585D01*
X30816487Y23971282D01*
X30798885Y23988884D01*
X30783110Y24008106D01*
X30763888Y24023881D01*
X30746286Y24041483D01*
X30725589Y24055312D01*
X30706366Y24071088D01*
X30684432Y24082812D01*
X30663738Y24096639D01*
X30640745Y24106163D01*
X30618809Y24117888D01*
X30595008Y24125108D01*
X30572015Y24134632D01*
X30547605Y24139487D01*
X30523805Y24146707D01*
X30499053Y24149145D01*
X30474644Y24154000D01*
X30449754Y24154000D01*
X30425003Y24156438D01*
X30400252Y24154000D01*
X29874754Y24154000D01*
X29850000Y24156438D01*
X29825247Y24154000D01*
X29800360Y24154000D01*
X29775951Y24149145D01*
X29751199Y24146707D01*
X29727399Y24139487D01*
X29702989Y24134632D01*
X29679996Y24125108D01*
X29656195Y24117888D01*
X29634259Y24106163D01*
X29611266Y24096639D01*
X29590572Y24082812D01*
X29568638Y24071088D01*
X29549415Y24055312D01*
X29528718Y24041483D01*
X29511116Y24023881D01*
X29491894Y24008106D01*
X29476119Y23988884D01*
X29458517Y23971282D01*
X29444688Y23950585D01*
X29428912Y23931362D01*
X29417188Y23909428D01*
X29403361Y23888734D01*
X29393837Y23865741D01*
X29382112Y23843805D01*
X29374892Y23820004D01*
X29365368Y23797011D01*
X29360513Y23772601D01*
X29353293Y23748801D01*
X29350855Y23724049D01*
X29346000Y23699640D01*
X29346000Y23674754D01*
X29343562Y23650000D01*
X29346000Y23625246D01*
X29346000Y23600360D01*
X29346001Y23600355D01*
X29346000Y23099752D01*
X29343562Y23074996D01*
X29346000Y23050241D01*
X29346000Y22950247D01*
X29346001Y22950237D01*
X29346000Y21941769D01*
X29321286Y21966483D01*
X29238738Y22021639D01*
X29147015Y22059632D01*
X29049644Y22079000D01*
X28950364Y22079000D01*
X28852993Y22059632D01*
X28761270Y22021639D01*
X28678722Y21966483D01*
X28608521Y21896282D01*
X28553365Y21813734D01*
X28515372Y21722011D01*
X28496004Y21624640D01*
X28496004Y21525360D01*
X28515372Y21427989D01*
X28553365Y21336266D01*
X28608521Y21253718D01*
X28678722Y21183517D01*
X28761270Y21128361D01*
X28820083Y21104000D01*
X28800360Y21104000D01*
X28702989Y21084632D01*
X28611266Y21046639D01*
X28528718Y20991483D01*
X28458517Y20921282D01*
X28403361Y20838734D01*
X28365368Y20747011D01*
X28346000Y20649640D01*
X28346000Y20550360D01*
X28365368Y20452989D01*
X28403361Y20361266D01*
X28458517Y20278718D01*
X28528718Y20208517D01*
X28611266Y20153361D01*
X28702989Y20115368D01*
X28800360Y20096000D01*
X28899640Y20096000D01*
X28997011Y20115368D01*
X29088734Y20153361D01*
X29111500Y20168573D01*
X29134266Y20153361D01*
X29225989Y20115368D01*
X29323360Y20096000D01*
X29422640Y20096000D01*
X29520011Y20115368D01*
X29611734Y20153361D01*
X29694282Y20208517D01*
X29764483Y20278718D01*
X29785501Y20310174D01*
X29785500Y13297790D01*
X29759019Y13347332D01*
X29757040Y13351035D01*
X29731420Y13382253D01*
X29706555Y13412551D01*
X29691143Y13425199D01*
X29307097Y13809245D01*
X29294448Y13824658D01*
X29232931Y13875143D01*
X29162747Y13912658D01*
X29086593Y13935759D01*
X29027235Y13941605D01*
X29027232Y13941605D01*
X29007395Y13943559D01*
X28987558Y13941605D01*
X27745500Y13941605D01*
X27745500Y23674636D01*
X28096000Y23674636D01*
X28096000Y23575356D01*
X28115368Y23477985D01*
X28153361Y23386262D01*
X28208517Y23303714D01*
X28278718Y23233513D01*
X28361266Y23178357D01*
X28452989Y23140364D01*
X28550360Y23120996D01*
X28649640Y23120996D01*
X28747011Y23140364D01*
X28838734Y23178357D01*
X28921282Y23233513D01*
X28991483Y23303714D01*
X29046639Y23386262D01*
X29084632Y23477985D01*
X29104000Y23575356D01*
X29104000Y23674636D01*
X29084632Y23772007D01*
X29046639Y23863730D01*
X28991483Y23946278D01*
X28921282Y24016479D01*
X28838734Y24071635D01*
X28747011Y24109628D01*
X28649640Y24128996D01*
X28550360Y24128996D01*
X28452989Y24109628D01*
X28361266Y24071635D01*
X28278718Y24016479D01*
X28208517Y23946278D01*
X28153361Y23863730D01*
X28115368Y23772007D01*
X28096000Y23674636D01*
X27745500Y23674636D01*
X27745500Y24359247D01*
X27747938Y24384000D01*
X27745500Y24408754D01*
X27745500Y24873737D01*
X27813872Y24942109D01*
X27833105Y24957893D01*
X27896087Y25034637D01*
X27942887Y25122194D01*
X27969837Y25211036D01*
X27971706Y25217197D01*
X27981437Y25315998D01*
X27978999Y25340752D01*
X27978999Y28474640D01*
X27996000Y28474640D01*
X27996000Y28375360D01*
X28015368Y28277989D01*
X28053361Y28186266D01*
X28108517Y28103718D01*
X28178718Y28033517D01*
X28261266Y27978361D01*
X28352989Y27940368D01*
X28450360Y27921000D01*
X28549640Y27921000D01*
X28647011Y27940368D01*
X28738734Y27978361D01*
X28821282Y28033517D01*
X28891483Y28103718D01*
X28946639Y28186266D01*
X28984632Y28277989D01*
X29004000Y28375360D01*
X29004000Y28474640D01*
X28984632Y28572011D01*
X28946639Y28663734D01*
X28891483Y28746282D01*
X28821282Y28816483D01*
X28738734Y28871639D01*
X28647011Y28909632D01*
X28549640Y28929000D01*
X28450360Y28929000D01*
X28352989Y28909632D01*
X28261266Y28871639D01*
X28178718Y28816483D01*
X28108517Y28746282D01*
X28053361Y28663734D01*
X28015368Y28572011D01*
X27996000Y28474640D01*
X27978999Y28474640D01*
X27978999Y29226840D01*
X28047011Y29240368D01*
X28138734Y29278361D01*
X28221282Y29333517D01*
X28291483Y29403718D01*
X28346639Y29486266D01*
X28384632Y29577989D01*
X28404000Y29675360D01*
X28404000Y29774640D01*
X28384632Y29872011D01*
X28346639Y29963734D01*
X28291483Y30046282D01*
X28221282Y30116483D01*
X28138734Y30171639D01*
X28047011Y30209632D01*
X27949640Y30229000D01*
X27850360Y30229000D01*
X27752989Y30209632D01*
X27729000Y30199695D01*
X27729000Y31236408D01*
X27730988Y31246403D01*
X27738207Y31270200D01*
X27740645Y31294951D01*
X27745500Y31319360D01*
X27745500Y31344247D01*
X27747938Y31369000D01*
X27745500Y31393754D01*
X27745500Y31418640D01*
X27740645Y31443049D01*
X27740283Y31446720D01*
X27764766Y31430361D01*
G36*
X24320500Y21627829D02*
X24320501Y13946790D01*
X24319638Y13947251D01*
X24259789Y13965406D01*
X24213144Y13970000D01*
X24197548Y13971536D01*
X24181952Y13970000D01*
X23580856Y13970000D01*
X23599144Y13997371D01*
X23637137Y14089094D01*
X23656505Y14186465D01*
X23656505Y14285745D01*
X23637137Y14383116D01*
X23599144Y14474839D01*
X23543988Y14557387D01*
X23473787Y14627588D01*
X23441958Y14648855D01*
X23473787Y14670122D01*
X23543988Y14740323D01*
X23599144Y14822871D01*
X23637137Y14914594D01*
X23656505Y15011965D01*
X23656505Y15111245D01*
X23637137Y15208616D01*
X23599144Y15300339D01*
X23543988Y15382887D01*
X23473787Y15453088D01*
X23470005Y15455615D01*
X23470005Y22403116D01*
X23471542Y22418719D01*
X23465411Y22480960D01*
X23464558Y22483771D01*
X24320500Y21627829D01*
X24320500Y21627829D01*
G37*
X24320500Y21627829D02*
X24320501Y13946790D01*
X24319638Y13947251D01*
X24259789Y13965406D01*
X24213144Y13970000D01*
X24197548Y13971536D01*
X24181952Y13970000D01*
X23580856Y13970000D01*
X23599144Y13997371D01*
X23637137Y14089094D01*
X23656505Y14186465D01*
X23656505Y14285745D01*
X23637137Y14383116D01*
X23599144Y14474839D01*
X23543988Y14557387D01*
X23473787Y14627588D01*
X23441958Y14648855D01*
X23473787Y14670122D01*
X23543988Y14740323D01*
X23599144Y14822871D01*
X23637137Y14914594D01*
X23656505Y15011965D01*
X23656505Y15111245D01*
X23637137Y15208616D01*
X23599144Y15300339D01*
X23543988Y15382887D01*
X23473787Y15453088D01*
X23470005Y15455615D01*
X23470005Y22403116D01*
X23471542Y22418719D01*
X23465411Y22480960D01*
X23464558Y22483771D01*
X24320500Y21627829D01*
G36*
X15674017Y30229782D02*
X15618861Y30147234D01*
X15580868Y30055511D01*
X15561500Y29958140D01*
X15561500Y29858860D01*
X15580868Y29761489D01*
X15618861Y29669766D01*
X15674017Y29587218D01*
X15744218Y29517017D01*
X15826766Y29461861D01*
X15918489Y29423868D01*
X16015860Y29404500D01*
X16115140Y29404500D01*
X16212511Y29423868D01*
X16304234Y29461861D01*
X16386782Y29517017D01*
X16456983Y29587218D01*
X16512139Y29669766D01*
X16550132Y29761489D01*
X16569500Y29858860D01*
X16569500Y29958140D01*
X16550132Y30055511D01*
X16512139Y30147234D01*
X16456983Y30229782D01*
X16456765Y30230000D01*
X18298733Y30230000D01*
X18285861Y30210736D01*
X18247868Y30119013D01*
X18228500Y30021642D01*
X18228500Y29922362D01*
X18247868Y29824991D01*
X18285861Y29733268D01*
X18287817Y29730340D01*
X18252910Y29719751D01*
X18197753Y29690269D01*
X18149407Y29650593D01*
X18139465Y29638478D01*
X17693525Y29192537D01*
X17681408Y29182593D01*
X17641732Y29134247D01*
X17633602Y29119036D01*
X17612249Y29079089D01*
X17594094Y29019240D01*
X17587964Y28957000D01*
X17589501Y28941394D01*
X17589501Y20878843D01*
X17549239Y20905744D01*
X17457516Y20943737D01*
X17360145Y20963105D01*
X17260865Y20963105D01*
X17163494Y20943737D01*
X17071771Y20905744D01*
X16989223Y20850588D01*
X16929505Y20790870D01*
X16869787Y20850588D01*
X16787239Y20905744D01*
X16695516Y20943737D01*
X16598145Y20963105D01*
X16498865Y20963105D01*
X16401494Y20943737D01*
X16309771Y20905744D01*
X16227223Y20850588D01*
X16157022Y20780387D01*
X16101866Y20697839D01*
X16063873Y20606116D01*
X16044505Y20508745D01*
X16044505Y20409465D01*
X16063873Y20312094D01*
X16101866Y20220371D01*
X16157022Y20137823D01*
X16227223Y20067622D01*
X16309771Y20012466D01*
X16401494Y19974473D01*
X16498865Y19955105D01*
X16598145Y19955105D01*
X16695516Y19974473D01*
X16787239Y20012466D01*
X16869787Y20067622D01*
X16929505Y20127340D01*
X16989223Y20067622D01*
X17071771Y20012466D01*
X17163494Y19974473D01*
X17260865Y19955105D01*
X17360145Y19955105D01*
X17457516Y19974473D01*
X17549239Y20012466D01*
X17589500Y20039367D01*
X17589500Y15943013D01*
X14766506Y18766006D01*
X14766506Y19272786D01*
X14847863Y19256603D01*
X14947143Y19256603D01*
X15044514Y19275971D01*
X15136237Y19313964D01*
X15218785Y19369120D01*
X15288986Y19439321D01*
X15344142Y19521869D01*
X15382135Y19613592D01*
X15401503Y19710963D01*
X15401503Y19810243D01*
X15382135Y19907614D01*
X15344142Y19999337D01*
X15288986Y20081885D01*
X15218785Y20152086D01*
X15136237Y20207242D01*
X15044514Y20245235D01*
X14947143Y20264603D01*
X14847863Y20264603D01*
X14766506Y20248420D01*
X14766506Y22225508D01*
X14768042Y22241104D01*
X14761912Y22303345D01*
X14743757Y22363194D01*
X14714275Y22418351D01*
X14703816Y22431095D01*
X14674599Y22466697D01*
X14662482Y22476641D01*
X13813118Y23326004D01*
X13814005Y23330465D01*
X13814005Y23429745D01*
X13794637Y23527116D01*
X13756644Y23618839D01*
X13701488Y23701387D01*
X13631287Y23771588D01*
X13548739Y23826744D01*
X13457016Y23864737D01*
X13359645Y23884105D01*
X13260365Y23884105D01*
X13162994Y23864737D01*
X13071271Y23826744D01*
X12988723Y23771588D01*
X12918522Y23701387D01*
X12863366Y23618839D01*
X12825373Y23527116D01*
X12806005Y23429745D01*
X12806005Y23330465D01*
X12825373Y23233094D01*
X12863366Y23141371D01*
X12918522Y23058823D01*
X12988723Y22988622D01*
X13071271Y22933466D01*
X13162994Y22895473D01*
X13260365Y22876105D01*
X13359645Y22876105D01*
X13364106Y22876992D01*
X14131507Y22109590D01*
X14131506Y18973383D01*
X13839001Y19265888D01*
X13839001Y21262901D01*
X13840537Y21278494D01*
X13838825Y21295874D01*
X13834407Y21340734D01*
X13816252Y21400583D01*
X13786770Y21455740D01*
X13747094Y21504086D01*
X13734977Y21514030D01*
X11003107Y24245899D01*
X11003994Y24250360D01*
X11003994Y24255245D01*
X13504505Y24255245D01*
X13504505Y24155965D01*
X13523873Y24058594D01*
X13561866Y23966871D01*
X13617022Y23884323D01*
X13687223Y23814122D01*
X13769771Y23758966D01*
X13861494Y23720973D01*
X13958865Y23701605D01*
X14058145Y23701605D01*
X14155516Y23720973D01*
X14247239Y23758966D01*
X14329787Y23814122D01*
X14399988Y23884323D01*
X14455144Y23966871D01*
X14493137Y24058594D01*
X14512505Y24155965D01*
X14512505Y24255245D01*
X14493137Y24352616D01*
X14455144Y24444339D01*
X14399988Y24526887D01*
X14329787Y24597088D01*
X14247239Y24652244D01*
X14155516Y24690237D01*
X14058145Y24709605D01*
X13958865Y24709605D01*
X13861494Y24690237D01*
X13769771Y24652244D01*
X13687223Y24597088D01*
X13617022Y24526887D01*
X13561866Y24444339D01*
X13523873Y24352616D01*
X13504505Y24255245D01*
X11003994Y24255245D01*
X11003994Y24349640D01*
X10984626Y24447011D01*
X10946633Y24538734D01*
X10891477Y24621282D01*
X10821276Y24691483D01*
X10738728Y24746639D01*
X10647005Y24784632D01*
X10549634Y24804000D01*
X10450354Y24804000D01*
X10408422Y24795659D01*
X10975263Y25362500D01*
X11612848Y25362500D01*
X11593364Y25333339D01*
X11555371Y25241616D01*
X11536003Y25144245D01*
X11536003Y25044965D01*
X11555371Y24947594D01*
X11593364Y24855871D01*
X11648520Y24773323D01*
X11718721Y24703122D01*
X11801269Y24647966D01*
X11892992Y24609973D01*
X11990363Y24590605D01*
X12089643Y24590605D01*
X12187014Y24609973D01*
X12278737Y24647966D01*
X12361285Y24703122D01*
X12431486Y24773323D01*
X12486642Y24855871D01*
X12524635Y24947594D01*
X12544003Y25044965D01*
X12544003Y25144245D01*
X12524635Y25241616D01*
X12486642Y25333339D01*
X12431486Y25415887D01*
X12377576Y25469797D01*
X12424606Y25508394D01*
X12440390Y25527627D01*
X15134373Y28221610D01*
X15153606Y28237394D01*
X15216588Y28314138D01*
X15263388Y28401695D01*
X15286051Y28476404D01*
X15292207Y28496698D01*
X15301938Y28595500D01*
X15299500Y28620254D01*
X15299500Y30017237D01*
X15512264Y30230000D01*
X15674235Y30230000D01*
X15674017Y30229782D01*
X15674017Y30229782D01*
G37*
X15674017Y30229782D02*
X15618861Y30147234D01*
X15580868Y30055511D01*
X15561500Y29958140D01*
X15561500Y29858860D01*
X15580868Y29761489D01*
X15618861Y29669766D01*
X15674017Y29587218D01*
X15744218Y29517017D01*
X15826766Y29461861D01*
X15918489Y29423868D01*
X16015860Y29404500D01*
X16115140Y29404500D01*
X16212511Y29423868D01*
X16304234Y29461861D01*
X16386782Y29517017D01*
X16456983Y29587218D01*
X16512139Y29669766D01*
X16550132Y29761489D01*
X16569500Y29858860D01*
X16569500Y29958140D01*
X16550132Y30055511D01*
X16512139Y30147234D01*
X16456983Y30229782D01*
X16456765Y30230000D01*
X18298733Y30230000D01*
X18285861Y30210736D01*
X18247868Y30119013D01*
X18228500Y30021642D01*
X18228500Y29922362D01*
X18247868Y29824991D01*
X18285861Y29733268D01*
X18287817Y29730340D01*
X18252910Y29719751D01*
X18197753Y29690269D01*
X18149407Y29650593D01*
X18139465Y29638478D01*
X17693525Y29192537D01*
X17681408Y29182593D01*
X17641732Y29134247D01*
X17633602Y29119036D01*
X17612249Y29079089D01*
X17594094Y29019240D01*
X17587964Y28957000D01*
X17589501Y28941394D01*
X17589501Y20878843D01*
X17549239Y20905744D01*
X17457516Y20943737D01*
X17360145Y20963105D01*
X17260865Y20963105D01*
X17163494Y20943737D01*
X17071771Y20905744D01*
X16989223Y20850588D01*
X16929505Y20790870D01*
X16869787Y20850588D01*
X16787239Y20905744D01*
X16695516Y20943737D01*
X16598145Y20963105D01*
X16498865Y20963105D01*
X16401494Y20943737D01*
X16309771Y20905744D01*
X16227223Y20850588D01*
X16157022Y20780387D01*
X16101866Y20697839D01*
X16063873Y20606116D01*
X16044505Y20508745D01*
X16044505Y20409465D01*
X16063873Y20312094D01*
X16101866Y20220371D01*
X16157022Y20137823D01*
X16227223Y20067622D01*
X16309771Y20012466D01*
X16401494Y19974473D01*
X16498865Y19955105D01*
X16598145Y19955105D01*
X16695516Y19974473D01*
X16787239Y20012466D01*
X16869787Y20067622D01*
X16929505Y20127340D01*
X16989223Y20067622D01*
X17071771Y20012466D01*
X17163494Y19974473D01*
X17260865Y19955105D01*
X17360145Y19955105D01*
X17457516Y19974473D01*
X17549239Y20012466D01*
X17589500Y20039367D01*
X17589500Y15943013D01*
X14766506Y18766006D01*
X14766506Y19272786D01*
X14847863Y19256603D01*
X14947143Y19256603D01*
X15044514Y19275971D01*
X15136237Y19313964D01*
X15218785Y19369120D01*
X15288986Y19439321D01*
X15344142Y19521869D01*
X15382135Y19613592D01*
X15401503Y19710963D01*
X15401503Y19810243D01*
X15382135Y19907614D01*
X15344142Y19999337D01*
X15288986Y20081885D01*
X15218785Y20152086D01*
X15136237Y20207242D01*
X15044514Y20245235D01*
X14947143Y20264603D01*
X14847863Y20264603D01*
X14766506Y20248420D01*
X14766506Y22225508D01*
X14768042Y22241104D01*
X14761912Y22303345D01*
X14743757Y22363194D01*
X14714275Y22418351D01*
X14703816Y22431095D01*
X14674599Y22466697D01*
X14662482Y22476641D01*
X13813118Y23326004D01*
X13814005Y23330465D01*
X13814005Y23429745D01*
X13794637Y23527116D01*
X13756644Y23618839D01*
X13701488Y23701387D01*
X13631287Y23771588D01*
X13548739Y23826744D01*
X13457016Y23864737D01*
X13359645Y23884105D01*
X13260365Y23884105D01*
X13162994Y23864737D01*
X13071271Y23826744D01*
X12988723Y23771588D01*
X12918522Y23701387D01*
X12863366Y23618839D01*
X12825373Y23527116D01*
X12806005Y23429745D01*
X12806005Y23330465D01*
X12825373Y23233094D01*
X12863366Y23141371D01*
X12918522Y23058823D01*
X12988723Y22988622D01*
X13071271Y22933466D01*
X13162994Y22895473D01*
X13260365Y22876105D01*
X13359645Y22876105D01*
X13364106Y22876992D01*
X14131507Y22109590D01*
X14131506Y18973383D01*
X13839001Y19265888D01*
X13839001Y21262901D01*
X13840537Y21278494D01*
X13838825Y21295874D01*
X13834407Y21340734D01*
X13816252Y21400583D01*
X13786770Y21455740D01*
X13747094Y21504086D01*
X13734977Y21514030D01*
X11003107Y24245899D01*
X11003994Y24250360D01*
X11003994Y24255245D01*
X13504505Y24255245D01*
X13504505Y24155965D01*
X13523873Y24058594D01*
X13561866Y23966871D01*
X13617022Y23884323D01*
X13687223Y23814122D01*
X13769771Y23758966D01*
X13861494Y23720973D01*
X13958865Y23701605D01*
X14058145Y23701605D01*
X14155516Y23720973D01*
X14247239Y23758966D01*
X14329787Y23814122D01*
X14399988Y23884323D01*
X14455144Y23966871D01*
X14493137Y24058594D01*
X14512505Y24155965D01*
X14512505Y24255245D01*
X14493137Y24352616D01*
X14455144Y24444339D01*
X14399988Y24526887D01*
X14329787Y24597088D01*
X14247239Y24652244D01*
X14155516Y24690237D01*
X14058145Y24709605D01*
X13958865Y24709605D01*
X13861494Y24690237D01*
X13769771Y24652244D01*
X13687223Y24597088D01*
X13617022Y24526887D01*
X13561866Y24444339D01*
X13523873Y24352616D01*
X13504505Y24255245D01*
X11003994Y24255245D01*
X11003994Y24349640D01*
X10984626Y24447011D01*
X10946633Y24538734D01*
X10891477Y24621282D01*
X10821276Y24691483D01*
X10738728Y24746639D01*
X10647005Y24784632D01*
X10549634Y24804000D01*
X10450354Y24804000D01*
X10408422Y24795659D01*
X10975263Y25362500D01*
X11612848Y25362500D01*
X11593364Y25333339D01*
X11555371Y25241616D01*
X11536003Y25144245D01*
X11536003Y25044965D01*
X11555371Y24947594D01*
X11593364Y24855871D01*
X11648520Y24773323D01*
X11718721Y24703122D01*
X11801269Y24647966D01*
X11892992Y24609973D01*
X11990363Y24590605D01*
X12089643Y24590605D01*
X12187014Y24609973D01*
X12278737Y24647966D01*
X12361285Y24703122D01*
X12431486Y24773323D01*
X12486642Y24855871D01*
X12524635Y24947594D01*
X12544003Y25044965D01*
X12544003Y25144245D01*
X12524635Y25241616D01*
X12486642Y25333339D01*
X12431486Y25415887D01*
X12377576Y25469797D01*
X12424606Y25508394D01*
X12440390Y25527627D01*
X15134373Y28221610D01*
X15153606Y28237394D01*
X15216588Y28314138D01*
X15263388Y28401695D01*
X15286051Y28476404D01*
X15292207Y28496698D01*
X15301938Y28595500D01*
X15299500Y28620254D01*
X15299500Y30017237D01*
X15512264Y30230000D01*
X15674235Y30230000D01*
X15674017Y30229782D01*
G36*
X13204001Y19273852D02*
X13200489Y19262274D01*
X12871490Y19591273D01*
X12871490Y20693119D01*
X12944851Y20678527D01*
X13044131Y20678527D01*
X13141502Y20697895D01*
X13204002Y20723783D01*
X13204001Y19273852D01*
X13204001Y19273852D01*
G37*
X13204001Y19273852D02*
X13200489Y19262274D01*
X12871490Y19591273D01*
X12871490Y20693119D01*
X12944851Y20678527D01*
X13044131Y20678527D01*
X13141502Y20697895D01*
X13204002Y20723783D01*
X13204001Y19273852D01*
G36*
X22527173Y25352096D02*
X22527173Y25352095D01*
X22527174Y24759936D01*
X22220999Y25066111D01*
X22220999Y25070905D01*
X22222535Y25086501D01*
X22216405Y25148742D01*
X22198250Y25208591D01*
X22168768Y25263748D01*
X22160141Y25274260D01*
X22155998Y25279309D01*
X22157500Y25286860D01*
X22157500Y25386140D01*
X22138132Y25483511D01*
X22100139Y25575234D01*
X22044983Y25657782D01*
X22017015Y25685750D01*
X22044983Y25713718D01*
X22100139Y25796266D01*
X22138132Y25887989D01*
X22157500Y25985360D01*
X22157500Y26084640D01*
X22138132Y26182011D01*
X22100139Y26273734D01*
X22044983Y26356282D01*
X21974782Y26426483D01*
X21892234Y26481639D01*
X21837337Y26504378D01*
X22527174Y27194214D01*
X22527173Y25352096D01*
X22527173Y25352096D01*
G37*
X22527173Y25352096D02*
X22527173Y25352095D01*
X22527174Y24759936D01*
X22220999Y25066111D01*
X22220999Y25070905D01*
X22222535Y25086501D01*
X22216405Y25148742D01*
X22198250Y25208591D01*
X22168768Y25263748D01*
X22160141Y25274260D01*
X22155998Y25279309D01*
X22157500Y25286860D01*
X22157500Y25386140D01*
X22138132Y25483511D01*
X22100139Y25575234D01*
X22044983Y25657782D01*
X22017015Y25685750D01*
X22044983Y25713718D01*
X22100139Y25796266D01*
X22138132Y25887989D01*
X22157500Y25985360D01*
X22157500Y26084640D01*
X22138132Y26182011D01*
X22100139Y26273734D01*
X22044983Y26356282D01*
X21974782Y26426483D01*
X21892234Y26481639D01*
X21837337Y26504378D01*
X22527174Y27194214D01*
X22527173Y25352096D01*
G36*
X19874307Y31788242D02*
X19875326Y31777899D01*
X19875304Y31774795D01*
X19875631Y31771464D01*
X19885831Y31674415D01*
X19890199Y31653136D01*
X19894270Y31631794D01*
X19895238Y31628590D01*
X19924094Y31535371D01*
X19932502Y31515368D01*
X19940651Y31495199D01*
X19942223Y31492244D01*
X19988636Y31406406D01*
X20000765Y31388424D01*
X20012680Y31370217D01*
X20014795Y31367623D01*
X20076997Y31292434D01*
X20092396Y31277143D01*
X20107611Y31261605D01*
X20110190Y31259472D01*
X20136517Y31238000D01*
X17691359Y31238000D01*
X17721580Y31263001D01*
X17736871Y31278400D01*
X17752409Y31293615D01*
X17754542Y31296194D01*
X17816218Y31371815D01*
X17828225Y31389886D01*
X17840517Y31407838D01*
X17842104Y31410775D01*
X17842107Y31410780D01*
X17842109Y31410785D01*
X17887920Y31496944D01*
X17896065Y31516704D01*
X17930253Y31493861D01*
X18021976Y31455868D01*
X18119347Y31436500D01*
X18218627Y31436500D01*
X18315998Y31455868D01*
X18407721Y31493861D01*
X18490269Y31549017D01*
X18545997Y31604745D01*
X18601724Y31549017D01*
X18684272Y31493861D01*
X18775995Y31455868D01*
X18873366Y31436500D01*
X18972646Y31436500D01*
X19070017Y31455868D01*
X19161740Y31493861D01*
X19244288Y31549017D01*
X19314489Y31619218D01*
X19369645Y31701766D01*
X19407638Y31793489D01*
X19427006Y31890860D01*
X19427006Y31990140D01*
X19407638Y32087511D01*
X19369645Y32179234D01*
X19314489Y32261782D01*
X19244288Y32331983D01*
X19161740Y32387139D01*
X19070017Y32425132D01*
X18972646Y32444500D01*
X18873366Y32444500D01*
X18775995Y32425132D01*
X18684272Y32387139D01*
X18601724Y32331983D01*
X18545997Y32276256D01*
X18490269Y32331983D01*
X18407721Y32387139D01*
X18315998Y32425132D01*
X18218627Y32444500D01*
X18119347Y32444500D01*
X18021976Y32425132D01*
X17953704Y32396853D01*
X17953704Y33060310D01*
X19874306Y33060310D01*
X19874307Y31788242D01*
X19874307Y31788242D01*
G37*
X19874307Y31788242D02*
X19875326Y31777899D01*
X19875304Y31774795D01*
X19875631Y31771464D01*
X19885831Y31674415D01*
X19890199Y31653136D01*
X19894270Y31631794D01*
X19895238Y31628590D01*
X19924094Y31535371D01*
X19932502Y31515368D01*
X19940651Y31495199D01*
X19942223Y31492244D01*
X19988636Y31406406D01*
X20000765Y31388424D01*
X20012680Y31370217D01*
X20014795Y31367623D01*
X20076997Y31292434D01*
X20092396Y31277143D01*
X20107611Y31261605D01*
X20110190Y31259472D01*
X20136517Y31238000D01*
X17691359Y31238000D01*
X17721580Y31263001D01*
X17736871Y31278400D01*
X17752409Y31293615D01*
X17754542Y31296194D01*
X17816218Y31371815D01*
X17828225Y31389886D01*
X17840517Y31407838D01*
X17842104Y31410775D01*
X17842107Y31410780D01*
X17842109Y31410785D01*
X17887920Y31496944D01*
X17896065Y31516704D01*
X17930253Y31493861D01*
X18021976Y31455868D01*
X18119347Y31436500D01*
X18218627Y31436500D01*
X18315998Y31455868D01*
X18407721Y31493861D01*
X18490269Y31549017D01*
X18545997Y31604745D01*
X18601724Y31549017D01*
X18684272Y31493861D01*
X18775995Y31455868D01*
X18873366Y31436500D01*
X18972646Y31436500D01*
X19070017Y31455868D01*
X19161740Y31493861D01*
X19244288Y31549017D01*
X19314489Y31619218D01*
X19369645Y31701766D01*
X19407638Y31793489D01*
X19427006Y31890860D01*
X19427006Y31990140D01*
X19407638Y32087511D01*
X19369645Y32179234D01*
X19314489Y32261782D01*
X19244288Y32331983D01*
X19161740Y32387139D01*
X19070017Y32425132D01*
X18972646Y32444500D01*
X18873366Y32444500D01*
X18775995Y32425132D01*
X18684272Y32387139D01*
X18601724Y32331983D01*
X18545997Y32276256D01*
X18490269Y32331983D01*
X18407721Y32387139D01*
X18315998Y32425132D01*
X18218627Y32444500D01*
X18119347Y32444500D01*
X18021976Y32425132D01*
X17953704Y32396853D01*
X17953704Y33060310D01*
X19874306Y33060310D01*
X19874307Y31788242D01*
G04 #@! TD*
M02*
