G04 #@! TF.GenerationSoftware,KiCad,Pcbnew,(5.0.0)*
G04 #@! TF.CreationDate,2020-08-24T16:31:51+08:00*
G04 #@! TF.ProjectId,LeashPCB,4C656173685043422E6B696361645F70,B*
G04 #@! TF.SameCoordinates,Original*
G04 #@! TF.FileFunction,Legend,Top*
G04 #@! TF.FilePolarity,Positive*
%FSLAX46Y46*%
G04 Gerber Fmt 4.6, Leading zero omitted, Abs format (unit mm)*
G04 Created by KiCad (PCBNEW (5.0.0)) date 08/24/20 16:31:51*
%MOMM*%
%LPD*%
G01*
G04 APERTURE LIST*
%ADD10C,0.025400*%
%ADD11C,0.120000*%
%ADD12C,0.150000*%
%ADD13C,0.127000*%
%ADD14C,0.080000*%
%ADD15C,0.100000*%
G04 APERTURE END LIST*
D10*
X41500007Y1000000D02*
X41500007Y32300000D01*
X24114006Y33300010D02*
X21714004Y33300010D01*
X12113998Y33300010D02*
X9714004Y33300010D01*
X16114006Y33300010D02*
X13714004Y33300010D01*
X20114006Y33300010D02*
X17714004Y33300010D01*
X0Y32300009D02*
G75*
G02X999999Y33300010I1000000J1D01*
G01*
X1000000Y0D02*
G75*
G02X0Y1000000I0J1000000D01*
G01*
X25714004Y31800010D02*
G75*
G02X25214004Y31300010I-500000J0D01*
G01*
X24614006Y31300010D02*
G75*
G02X24114006Y31800010I0J500000D01*
G01*
X21714004Y31800010D02*
G75*
G02X21214004Y31300010I-500000J0D01*
G01*
X20614006Y31300010D02*
G75*
G02X20114006Y31800010I0J500000D01*
G01*
X17714004Y31800010D02*
G75*
G02X17214004Y31300010I-500000J0D01*
G01*
X9714004Y31800010D02*
G75*
G02X9214004Y31300010I-500000J0D01*
G01*
X8614006Y31300010D02*
G75*
G02X8114006Y31800010I0J500000D01*
G01*
X41500007Y1000000D02*
G75*
G02X40500007Y0I-1000000J0D01*
G01*
X40500007Y33300010D02*
G75*
G02X41500007Y32300000I0J-1000000D01*
G01*
X12613998Y31300010D02*
G75*
G02X12113998Y31800010I0J500000D01*
G01*
X13714004Y31800010D02*
G75*
G02X13214004Y31300010I-500000J0D01*
G01*
X16614006Y31300010D02*
G75*
G02X16114006Y31800010I0J500000D01*
G01*
X25714004Y31800010D02*
X25714004Y33300010D01*
X24114006Y33300010D02*
X24114006Y31800010D01*
X21714004Y31800010D02*
X21714004Y33300010D01*
X20614006Y31300010D02*
X21214004Y31300010D01*
X20114006Y33300010D02*
X20114006Y31800010D01*
X17714004Y31800010D02*
X17714004Y33300010D01*
X16114006Y33300010D02*
X16114006Y31800010D01*
X40500007Y33300010D02*
X25714004Y33300010D01*
X8113998Y33300010D02*
X1000000Y33300010D01*
X24614006Y31300010D02*
X25214004Y31300010D01*
X8113998Y33300010D02*
X8113998Y31800010D01*
X8614006Y31300010D02*
X9214004Y31300010D01*
X9714004Y31800010D02*
X9714004Y33300010D01*
X16614006Y31300010D02*
X17214004Y31300010D01*
X13714004Y31800010D02*
X13714004Y33300010D01*
X12613998Y31300010D02*
X13214004Y31300010D01*
X1000000Y0D02*
X40500007Y0D01*
X0Y32300010D02*
X0Y1000000D01*
X12113998Y33300010D02*
X12113998Y31800010D01*
D11*
G04 #@! TO.C,U9*
X26094005Y9135605D02*
X26094005Y9135605D01*
X25594005Y9135605D02*
X26094005Y9135605D01*
X26094005Y10835605D02*
X26094005Y10835605D01*
X26094005Y11335605D02*
X26094005Y10835605D01*
X25594005Y11335605D02*
X26094005Y11335605D01*
X24394005Y11335605D02*
X24394005Y11335605D01*
X23894005Y11335605D02*
X24394005Y11335605D01*
X23894005Y10835605D02*
X23894005Y11335605D01*
X23894005Y9635605D02*
X23894005Y9635605D01*
X23894005Y9135605D02*
X23894005Y9635605D01*
X24394005Y9135605D02*
X23894005Y9135605D01*
G04 #@! TO.C,AE2*
X6270000Y11120000D02*
X6270000Y12450000D01*
X7600000Y11120000D02*
X6270000Y11120000D01*
X8870000Y11120000D02*
X8870000Y13780000D01*
X8870000Y13780000D02*
X8930000Y13780000D01*
X8870000Y11120000D02*
X8930000Y11120000D01*
X8930000Y11120000D02*
X8930000Y13780000D01*
D12*
G04 #@! TO.C,J6*
X3575574Y25650000D02*
G75*
G03X3575574Y25650000I-790569J0D01*
G01*
X3035005Y25650000D02*
G75*
G03X3035005Y25650000I-250000J0D01*
G01*
X1285005Y27150000D02*
X4285005Y27150000D01*
X4285005Y27150000D02*
X4285005Y24150000D01*
X4285005Y24150000D02*
X1285005Y24150000D01*
X1285005Y24150000D02*
X1285005Y27150000D01*
D11*
G04 #@! TO.C,C12*
X30862779Y26465000D02*
X30537221Y26465000D01*
X30862779Y27485000D02*
X30537221Y27485000D01*
D12*
G04 #@! TO.C,L2*
X30000000Y24550000D02*
X28000000Y24550000D01*
X28000000Y26150000D02*
X30000000Y26150000D01*
D13*
G04 #@! TO.C,U5*
X11040005Y21850000D02*
X11040005Y22350000D01*
X13040005Y22350000D02*
X13040005Y21850000D01*
X13040005Y23350000D02*
X13040005Y22850000D01*
X11040005Y23350000D02*
X11040005Y22850000D01*
D12*
X10940005Y21600000D02*
G75*
G03X10940005Y21600000I-150000J0D01*
G01*
D14*
G04 #@! TO.C,U3*
X31925000Y28300000D02*
X31925000Y29800000D01*
X29925000Y28300000D02*
X31925000Y28300000D01*
X29925000Y29800000D02*
X29925000Y28300000D01*
X31925000Y29800000D02*
X29925000Y29800000D01*
D11*
X32295000Y29685000D02*
G75*
G03X32295000Y29685000I-100000J0D01*
G01*
G04 #@! TO.C,P1*
X42343505Y25324105D02*
X42343505Y16384105D01*
X36833505Y25324105D02*
X38633505Y25324105D01*
X42343505Y25324105D02*
X40883505Y25324105D01*
X42343505Y16384105D02*
X40883505Y16384105D01*
X36833505Y16384105D02*
X38633505Y16384105D01*
G04 #@! TO.C,D1*
X33478505Y29817605D02*
X33478505Y32367605D01*
X35178505Y29817605D02*
X35178505Y32367605D01*
X33478505Y29817605D02*
X35178505Y29817605D01*
G04 #@! TO.C,D9*
X35178505Y29642605D02*
X35178505Y27092605D01*
X33478505Y29642605D02*
X33478505Y27092605D01*
X35178505Y29642605D02*
X33478505Y29642605D01*
G04 #@! TO.C,Y2*
X12732005Y13512105D02*
X10332005Y13512105D01*
X10332005Y13512105D02*
X10332005Y11912105D01*
X10332005Y11912105D02*
X12732005Y11912105D01*
G04 #@! TO.C,J4*
X8228005Y6538000D02*
X11788005Y6538000D01*
X6038005Y6538000D02*
X6708005Y6538000D01*
X26008005Y3878000D02*
X26678005Y3878000D01*
X6708005Y6538000D02*
X6708005Y7748000D01*
X20928005Y3878000D02*
X24488005Y3878000D01*
X10768005Y3878000D02*
X14328005Y3878000D01*
X6038005Y3878000D02*
X6038005Y6538000D01*
X23468005Y6538000D02*
X26678005Y6538000D01*
X18388005Y6538000D02*
X21948005Y6538000D01*
X6038005Y3878000D02*
X9248005Y3878000D01*
X15848005Y3878000D02*
X19408005Y3878000D01*
X26678005Y3878000D02*
X26678005Y6538000D01*
X13308005Y6538000D02*
X16868005Y6538000D01*
X6038005Y26738000D02*
X6038005Y29398000D01*
X6038005Y29398000D02*
X6708005Y29398000D01*
X8228005Y29398000D02*
X11788005Y29398000D01*
X13308005Y29398000D02*
X16868005Y29398000D01*
X18388005Y29398000D02*
X21948005Y29398000D01*
X23468005Y29398000D02*
X26678005Y29398000D01*
X26678005Y26738000D02*
X26678005Y29398000D01*
X6038005Y26738000D02*
X9248005Y26738000D01*
X10768005Y26738000D02*
X14328005Y26738000D01*
X15848005Y26738000D02*
X19408005Y26738000D01*
X20928005Y26738000D02*
X24488005Y26738000D01*
X26008005Y26738000D02*
X26678005Y26738000D01*
X6708005Y29398000D02*
X6708005Y30608000D01*
D15*
G04 #@! TO.C,D7*
X25922505Y32651105D02*
G75*
G03X25922505Y32651105I-50000J0D01*
G01*
D11*
G04 #@! TO.C,U4*
X14886005Y19615605D02*
X14411005Y19615605D01*
X21631005Y12395605D02*
X21631005Y12870605D01*
X21156005Y12395605D02*
X21631005Y12395605D01*
X14411005Y12395605D02*
X14411005Y12870605D01*
X14886005Y12395605D02*
X14411005Y12395605D01*
X21631005Y19615605D02*
X21631005Y19140605D01*
X21156005Y19615605D02*
X21631005Y19615605D01*
G04 #@! TO.C,J1*
X38140000Y6140000D02*
X33890000Y6140000D01*
X33890000Y6140000D02*
X33890000Y7160000D01*
X33890000Y7160000D02*
X35490000Y7160000D01*
X35490000Y7160000D02*
X35490000Y8440000D01*
X35490000Y8440000D02*
X32600000Y8440000D01*
X38140000Y14260000D02*
X33890000Y14260000D01*
X33890000Y14260000D02*
X33890000Y13240000D01*
X33890000Y13240000D02*
X35490000Y13240000D01*
X35490000Y13240000D02*
X35490000Y11960000D01*
X41710000Y7860000D02*
X41710000Y12540000D01*
D15*
G04 #@! TO.C,AE1*
G36*
X1450000Y16900000D02*
X1450000Y17350000D01*
X1750000Y17350000D01*
X1750000Y16900000D01*
X1450000Y16900000D01*
G37*
X1450000Y16900000D02*
X1450000Y17350000D01*
X1750000Y17350000D01*
X1750000Y16900000D01*
X1450000Y16900000D01*
D11*
X800000Y16450000D02*
X2400000Y16450000D01*
X800000Y19550000D02*
X800000Y16450000D01*
X2400000Y19550000D02*
X800000Y19550000D01*
X2400000Y16450000D02*
X2400000Y19550000D01*
G04 #@! TO.C,B1*
X12780000Y18350000D02*
X12780000Y18700000D01*
X12480000Y18350000D02*
X12780000Y18350000D01*
X12480000Y18700000D02*
X12480000Y18350000D01*
X12780000Y18700000D02*
X12480000Y18700000D01*
D14*
X12005000Y19000000D02*
X13255000Y19000000D01*
X12005000Y17000000D02*
X12005000Y19000000D01*
X13255000Y17000000D02*
X12005000Y17000000D01*
X13255000Y19000000D02*
X13255000Y17000000D01*
D11*
G04 #@! TO.C,L4*
X24778900Y19156178D02*
X24778900Y18639022D01*
X26198900Y19156178D02*
X26198900Y18639022D01*
D15*
G04 #@! TO.C,D3*
X21922005Y32651105D02*
G75*
G03X21922005Y32651105I-50000J0D01*
G01*
G04 #@! TO.C,D2*
X17858005Y32651105D02*
G75*
G03X17858005Y32651105I-50000J0D01*
G01*
G04 #@! TO.C,D4*
X13794005Y32651105D02*
G75*
G03X13794005Y32651105I-50000J0D01*
G01*
G04 #@! TO.C,D5*
X9920505Y32651105D02*
G75*
G03X9920505Y32651105I-50000J0D01*
G01*
G04 #@! TO.C,D6*
X5920005Y32651105D02*
G75*
G03X5920005Y32651105I-50000J0D01*
G01*
D11*
G04 #@! TO.C,C24*
X24538721Y20711700D02*
X24864279Y20711700D01*
X24538721Y21731700D02*
X24864279Y21731700D01*
D12*
G04 #@! TO.C,J7*
X3575574Y10121305D02*
G75*
G03X3575574Y10121305I-790569J0D01*
G01*
X3035005Y10121305D02*
G75*
G03X3035005Y10121305I-250000J0D01*
G01*
X1285005Y11621305D02*
X4285005Y11621305D01*
X4285005Y11621305D02*
X4285005Y8621305D01*
X4285005Y8621305D02*
X1285005Y8621305D01*
X1285005Y8621305D02*
X1285005Y11621305D01*
D11*
G04 #@! TO.C,Y3*
X17073005Y20833105D02*
X17073005Y23133105D01*
X17073005Y23133105D02*
X14373005Y23133105D01*
G04 #@! TD*
M02*
