M48
;DRILL file {KiCad (5.0.0)} date 08/24/20 16:31:53
;FORMAT={-:-/ absolute / metric / decimal}
FMAT,2
METRIC,TZ
T1C0.200
T2C0.250
T3C0.400
T4C0.600
T5C1.000
T6C2.200
%
G90
G05
M71
T1
X30.797Y32.023
X30.797Y31.223
T2
X0.4Y15.1
X0.4Y13.875
X0.475Y6.675
X0.475Y4.5
X0.5Y12.6
X0.525Y24.25
X0.525Y22.5
X0.525Y8.875
X0.55Y11.275
X0.575Y27.375
X1.15Y15.125
X1.625Y28.175
X1.9Y13.8
X2.261Y12.712
X2.3Y15.125
X2.325Y7.632
X2.775Y22.4
X2.775Y5.425
X3.277Y12.712
X3.277Y7.632
X3.475Y15.125
X3.625Y14.125
X4.25Y23.15
X4.3Y6.05
X4.375Y22.325
X4.375Y20.125
X4.375Y17.675
X4.4Y21.325
X4.4Y18.775
X4.4Y16.
X4.775Y27.5
X4.85Y14.925
X5.025Y7.275
X5.175Y8.65
X5.175Y4.75
X5.45Y10.025
X5.475Y17.025
X5.55Y24.6
X5.675Y28.875
X5.675Y13.1
X5.775Y19.725
X5.8Y18.375
X6.125Y26.1
X6.2Y16.525
X6.25Y30.6
X6.325Y12.15
X6.4Y23.525
X6.4Y10.75
X6.477Y31.877
X6.725Y9.275
X6.75Y20.625
X6.8Y18.725
X7.025Y17.4
X7.239Y31.877
X7.325Y24.475
X7.4Y14.1
X7.425Y22.525
X7.468Y5.359
X7.493Y1.714
X7.65Y15.2
X7.675Y19.6
X7.775Y8.5
X8.15Y18.45
X8.275Y23.2
X8.5Y21.375
X8.5Y13.8
X8.7Y16.425
X9.275Y20.75
X9.375Y18.125
X9.525Y8.763
X9.525Y8.128
X9.6Y22.4
X9.715Y28.321
X9.85Y13.2
X10.075Y15.075
X10.25Y16.4
X10.477Y32.004
X10.5Y24.3
X10.541Y28.321
X10.675Y18.1
X10.7Y19.45
X10.731Y4.763
X11.425Y16.525
X11.493Y6.858
X11.557Y29.21
X11.557Y31.877
X11.684Y26.67
X11.684Y21.082
X12.04Y25.095
X12.485Y11.061
X12.739Y25.102
X12.742Y13.652
X12.994Y21.183
X13.081Y20.302
X13.31Y23.38
X13.625Y15.1
X13.65Y14.375
X13.805Y5.274
X14.009Y24.206
X14.009Y19.761
X14.199Y7.696
X14.326Y11.379
X14.349Y31.942
X14.4Y31.1
X14.478Y8.7
X14.478Y5.274
X14.898Y19.761
X15.101Y23.405
X15.221Y8.647
X15.621Y31.305
X16.066Y29.909
X16.066Y4.826
X16.295Y18.179
X16.358Y10.934
X16.549Y20.459
X16.637Y10.223
X16.637Y3.619
X17.271Y11.696
X17.311Y21.412
X17.311Y20.459
X17.374Y18.179
X17.628Y8.077
X18.169Y31.941
X18.505Y6.936
X18.505Y7.579
X18.655Y20.222
X18.669Y28.702
X18.708Y21.031
X18.708Y21.729
X18.732Y29.972
X18.923Y31.941
X18.962Y13.728
X19.304Y6.473
X19.597Y10.299
X19.597Y10.942
X19.597Y11.57
X19.685Y31.941
X19.914Y13.729
X20.13Y4.826
X20.285Y23.123
X20.295Y22.491
X20.295Y21.796
X20.32Y24.447
X20.32Y23.757
X20.463Y8.752
X21.018Y29.273
X21.331Y27.683
X21.653Y26.035
X21.653Y25.336
X21.7Y24.494
X21.831Y29.273
X22.162Y12.319
X22.162Y11.62
X22.208Y12.966
X22.288Y32.131
X22.404Y25.065
X22.479Y31.301
X22.505Y8.666
X22.733Y5.334
X22.859Y12.964
X22.987Y31.941
X23.05Y31.305
X23.153Y15.062
X23.153Y14.236
X23.2Y11.55
X23.485Y13.003
X23.622Y29.203
X23.685Y31.941
X23.775Y8.675
X23.787Y21.946
X23.812Y20.295
X23.851Y25.349
X23.876Y27.051
X23.939Y26.289
X24.105Y19.507
X24.169Y13.03
X24.194Y3.556
X24.313Y29.203
X24.423Y6.87
X24.467Y11.573
X24.55Y8.648
X24.867Y24.968
X24.867Y24.269
X25.239Y8.622
X25.244Y11.573
X25.492Y24.219
X25.629Y15.506
X25.947Y8.648
X26.065Y2.062
X26.149Y28.727
X26.325Y28.075
X26.455Y13.538
X26.5Y32.
X26.543Y14.414
X27.2Y4.25
X27.225Y29.7
X27.241Y31.877
X27.241Y31.369
X27.247Y12.503
X27.555Y6.38
X27.9Y29.725
X27.9Y1.946
X28.003Y31.877
X28.45Y4.284
X28.5Y28.425
X28.6Y23.625
X28.65Y30.575
X28.739Y5.914
X28.796Y3.2
X28.85Y20.6
X28.892Y12.763
X28.925Y7.575
X28.931Y10.871
X28.955Y9.819
X29.Y21.575
X29.024Y22.723
X29.034Y19.101
X29.125Y28.05
X29.265Y31.233
X29.373Y20.6
X29.662Y15.633
X29.775Y28.275
X29.85Y23.65
X29.972Y0.762
X30.425Y23.65
X30.679Y22.031
X30.77Y6.775
X31.Y22.6
X31.012Y2.957
X31.305Y12.698
X31.305Y12.192
X31.305Y11.112
X31.331Y22.025
X31.4Y6.25
X31.639Y2.961
X31.877Y1.524
X32.268Y31.169
X32.3Y2.95
X32.325Y4.5
X32.51Y30.01
X32.512Y32.575
X32.829Y1.461
X33.203Y13.208
X33.249Y7.921
X33.25Y8.425
X33.337Y30.543
X33.503Y24.028
X33.528Y1.46
X33.553Y21.21
X33.567Y22.237
X33.6Y26.75
X33.75Y20.15
X33.871Y23.66
X34.036Y15.176
X34.075Y24.523
X34.114Y17.654
X34.277Y3.094
X35.075Y32.375
X35.275Y1.45
X35.433Y7.62
X35.468Y8.284
X36.1Y27.475
X36.258Y14.859
X36.807Y8.151
X37.143Y9.783
X37.148Y17.399
X38.05Y18.575
X38.71Y22.36
X38.71Y10.566
T3
X36.85Y2.4
X37.333Y3.567
X37.333Y1.233
X38.5Y4.05
X38.5Y0.75
X39.667Y3.567
X39.667Y1.233
X40.15Y2.4
X1.35Y30.8
X1.833Y31.967
X1.833Y29.633
X3.Y32.45
X3.Y29.15
X4.167Y31.967
X4.167Y29.633
X4.65Y30.8
X36.85Y30.8
X37.333Y31.967
X37.333Y29.633
X38.5Y32.45
X38.5Y29.15
X39.667Y31.967
X39.667Y29.633
X40.15Y30.8
X1.35Y2.4
X1.833Y3.567
X1.833Y1.233
X3.Y4.05
X3.Y0.75
X4.167Y3.567
X4.167Y1.233
X4.65Y2.4
T5
X7.6Y12.45
T6
X38.5Y2.4
X3.Y30.8
X38.5Y30.8
X3.Y2.4
T4
X36.124Y25.174G85X35.024Y25.174
G05
X36.124Y16.534G85X35.024Y16.534
G05
X40.144Y25.174G85X39.344Y25.174
G05
X40.144Y16.534G85X39.344Y16.534
G05
T0
M30
