G04 #@! TF.GenerationSoftware,KiCad,Pcbnew,(5.0.0)*
G04 #@! TF.CreationDate,2020-08-24T16:31:51+08:00*
G04 #@! TF.ProjectId,LeashPCB,4C656173685043422E6B696361645F70,B*
G04 #@! TF.SameCoordinates,Original*
G04 #@! TF.FileFunction,Legend,Bot*
G04 #@! TF.FilePolarity,Positive*
%FSLAX46Y46*%
G04 Gerber Fmt 4.6, Leading zero omitted, Abs format (unit mm)*
G04 Created by KiCad (PCBNEW (5.0.0)) date 08/24/20 16:31:51*
%MOMM*%
%LPD*%
G01*
G04 APERTURE LIST*
%ADD10C,0.025400*%
%ADD11C,0.120000*%
%ADD12C,0.100000*%
%ADD13C,0.050000*%
G04 APERTURE END LIST*
D10*
X41500007Y1000000D02*
X41500007Y32300000D01*
X24114006Y33300010D02*
X21714004Y33300010D01*
X12113998Y33300010D02*
X9714004Y33300010D01*
X16114006Y33300010D02*
X13714004Y33300010D01*
X20114006Y33300010D02*
X17714004Y33300010D01*
X0Y32300009D02*
G75*
G02X999999Y33300010I1000000J1D01*
G01*
X1000000Y0D02*
G75*
G02X0Y1000000I0J1000000D01*
G01*
X25714004Y31800010D02*
G75*
G02X25214004Y31300010I-500000J0D01*
G01*
X24614006Y31300010D02*
G75*
G02X24114006Y31800010I0J500000D01*
G01*
X21714004Y31800010D02*
G75*
G02X21214004Y31300010I-500000J0D01*
G01*
X20614006Y31300010D02*
G75*
G02X20114006Y31800010I0J500000D01*
G01*
X17714004Y31800010D02*
G75*
G02X17214004Y31300010I-500000J0D01*
G01*
X9714004Y31800010D02*
G75*
G02X9214004Y31300010I-500000J0D01*
G01*
X8614006Y31300010D02*
G75*
G02X8114006Y31800010I0J500000D01*
G01*
X41500007Y1000000D02*
G75*
G02X40500007Y0I-1000000J0D01*
G01*
X40500007Y33300010D02*
G75*
G02X41500007Y32300000I0J-1000000D01*
G01*
X12613998Y31300010D02*
G75*
G02X12113998Y31800010I0J500000D01*
G01*
X13714004Y31800010D02*
G75*
G02X13214004Y31300010I-500000J0D01*
G01*
X16614006Y31300010D02*
G75*
G02X16114006Y31800010I0J500000D01*
G01*
X25714004Y31800010D02*
X25714004Y33300010D01*
X24114006Y33300010D02*
X24114006Y31800010D01*
X21714004Y31800010D02*
X21714004Y33300010D01*
X20614006Y31300010D02*
X21214004Y31300010D01*
X20114006Y33300010D02*
X20114006Y31800010D01*
X17714004Y31800010D02*
X17714004Y33300010D01*
X16114006Y33300010D02*
X16114006Y31800010D01*
X40500007Y33300010D02*
X25714004Y33300010D01*
X8113998Y33300010D02*
X1000000Y33300010D01*
X24614006Y31300010D02*
X25214004Y31300010D01*
X8113998Y33300010D02*
X8113998Y31800010D01*
X8614006Y31300010D02*
X9214004Y31300010D01*
X9714004Y31800010D02*
X9714004Y33300010D01*
X16614006Y31300010D02*
X17214004Y31300010D01*
X13714004Y31800010D02*
X13714004Y33300010D01*
X12613998Y31300010D02*
X13214004Y31300010D01*
X1000000Y0D02*
X40500007Y0D01*
X0Y32300010D02*
X0Y1000000D01*
X12113998Y33300010D02*
X12113998Y31800010D01*
D11*
G04 #@! TO.C,SW1*
X37648405Y22697205D02*
X37768405Y22697205D01*
X35498405Y22697205D02*
X36638405Y22697205D01*
X34368405Y22697205D02*
X34488405Y22697205D01*
X34368405Y18297205D02*
X34368405Y22697205D01*
X34488405Y18297205D02*
X34368405Y18297205D01*
X36638405Y18297205D02*
X35498405Y18297205D01*
X37768405Y18297205D02*
X37648405Y18297205D01*
X37768405Y22697205D02*
X37768405Y18297205D01*
D12*
G04 #@! TO.C,D10*
X33627005Y22237105D02*
G75*
G03X33627005Y22237105I-50000J0D01*
G01*
G04 #@! TO.C,D8*
X33615000Y23275000D02*
G75*
G03X33615000Y23275000I-50000J0D01*
G01*
G04 #@! TO.C,D11*
X33627005Y21221105D02*
G75*
G03X33627005Y21221105I-50000J0D01*
G01*
D11*
G04 #@! TO.C,Q1*
X30320000Y27535000D02*
X30320000Y26075000D01*
X33480000Y27535000D02*
X33480000Y25375000D01*
X33480000Y27535000D02*
X32550000Y27535000D01*
X30320000Y27535000D02*
X31250000Y27535000D01*
G04 #@! TO.C,TP2*
X33504505Y14553605D02*
G75*
G03X33504505Y14553605I-700000J0D01*
G01*
G04 #@! TO.C,TP1*
X33441005Y12204105D02*
G75*
G03X33441005Y12204105I-700000J0D01*
G01*
G04 #@! TO.C,J5*
X24513000Y6549105D02*
X20953000Y6549105D01*
X26703000Y6549105D02*
X26033000Y6549105D01*
X6733000Y3889105D02*
X6063000Y3889105D01*
X26033000Y6549105D02*
X26033000Y7759105D01*
X11813000Y3889105D02*
X8253000Y3889105D01*
X21973000Y3889105D02*
X18413000Y3889105D01*
X26703000Y3889105D02*
X26703000Y6549105D01*
X9273000Y6549105D02*
X6063000Y6549105D01*
X14353000Y6549105D02*
X10793000Y6549105D01*
X26703000Y3889105D02*
X23493000Y3889105D01*
X16893000Y3889105D02*
X13333000Y3889105D01*
X6063000Y3889105D02*
X6063000Y6549105D01*
X19433000Y6549105D02*
X15873000Y6549105D01*
X26703000Y26749105D02*
X26703000Y29409105D01*
X26703000Y29409105D02*
X26033000Y29409105D01*
X24513000Y29409105D02*
X20953000Y29409105D01*
X19433000Y29409105D02*
X15873000Y29409105D01*
X14353000Y29409105D02*
X10793000Y29409105D01*
X9273000Y29409105D02*
X6063000Y29409105D01*
X6063000Y26749105D02*
X6063000Y29409105D01*
X26703000Y26749105D02*
X23493000Y26749105D01*
X21973000Y26749105D02*
X18413000Y26749105D01*
X16893000Y26749105D02*
X13333000Y26749105D01*
X11813000Y26749105D02*
X8253000Y26749105D01*
X6733000Y26749105D02*
X6063000Y26749105D01*
X26033000Y29409105D02*
X26033000Y30619105D01*
G04 #@! TO.C,U2*
X30067949Y11147105D02*
X32517949Y11147105D01*
X31867949Y7927105D02*
X30067949Y7927105D01*
G04 #@! TO.C,U7*
X32037500Y32963000D02*
G75*
G03X32037500Y32963000I-100000J0D01*
G01*
X31847500Y32673000D02*
X31847500Y32663000D01*
X29747500Y32673000D02*
X31847500Y32673000D01*
X29747500Y30573000D02*
X29747500Y32673000D01*
X31847500Y30573000D02*
X29747500Y30573000D01*
X31847500Y32673000D02*
X31847500Y30573000D01*
G04 #@! TO.C,U10*
X23144505Y9181605D02*
X21944505Y9181605D01*
X23144505Y10781605D02*
X22144505Y10781605D01*
G04 #@! TO.C,U8*
X31458310Y1292000D02*
G75*
G03X31458310Y1292000I-58310J0D01*
G01*
X29750000Y1302000D02*
X31210000Y1302000D01*
X29750000Y2762000D02*
X29750000Y1302000D01*
X31210000Y2762000D02*
X29750000Y2762000D01*
X31210000Y1302000D02*
X31210000Y2762000D01*
G04 #@! TO.C,Y1*
X33692505Y19538105D02*
X33692505Y15538105D01*
X30392505Y19538105D02*
X33692505Y19538105D01*
G04 #@! TO.C,SW2*
X34488405Y10549105D02*
X34368405Y10549105D01*
X36638405Y10549105D02*
X35498405Y10549105D01*
X37768405Y10549105D02*
X37648405Y10549105D01*
X37768405Y14949105D02*
X37768405Y10549105D01*
X37648405Y14949105D02*
X37768405Y14949105D01*
X35498405Y14949105D02*
X36638405Y14949105D01*
X34368405Y14949105D02*
X34488405Y14949105D01*
X34368405Y10549105D02*
X34368405Y14949105D01*
G04 #@! TO.C,U1*
X28314005Y16716105D02*
X28314005Y16241105D01*
X21094005Y23461105D02*
X21569005Y23461105D01*
X21094005Y22986105D02*
X21094005Y23461105D01*
X21094005Y16241105D02*
X21569005Y16241105D01*
X21094005Y16716105D02*
X21094005Y16241105D01*
X28314005Y23461105D02*
X27839005Y23461105D01*
X28314005Y22986105D02*
X28314005Y23461105D01*
D13*
G04 #@! TO.C,U6*
X12556216Y8845105D02*
G75*
G03X12556216Y8845105I-70711J0D01*
G01*
X12635505Y11045105D02*
X12635505Y9045105D01*
X15635505Y11045105D02*
X12635505Y11045105D01*
X15635505Y9045105D02*
X15635505Y11045105D01*
X12635505Y9045105D02*
X15635505Y9045105D01*
G04 #@! TD*
M02*
