G04 #@! TF.GenerationSoftware,KiCad,Pcbnew,(5.0.0)*
G04 #@! TF.CreationDate,2020-08-24T16:31:51+08:00*
G04 #@! TF.ProjectId,LeashPCB,4C656173685043422E6B696361645F70,B*
G04 #@! TF.SameCoordinates,Original*
G04 #@! TF.FileFunction,Other,Fab,Top*
%FSLAX46Y46*%
G04 Gerber Fmt 4.6, Leading zero omitted, Abs format (unit mm)*
G04 Created by KiCad (PCBNEW (5.0.0)) date 08/24/20 16:31:51*
%MOMM*%
%LPD*%
G01*
G04 APERTURE LIST*
%ADD10C,0.025400*%
%ADD11C,0.100000*%
%ADD12C,0.150000*%
G04 APERTURE END LIST*
D10*
X41500007Y1000000D02*
X41500007Y32300000D01*
X24114006Y33300010D02*
X21714004Y33300010D01*
X12113998Y33300010D02*
X9714004Y33300010D01*
X16114006Y33300010D02*
X13714004Y33300010D01*
X20114006Y33300010D02*
X17714004Y33300010D01*
X0Y32300009D02*
G75*
G02X999999Y33300010I1000000J1D01*
G01*
X1000000Y0D02*
G75*
G02X0Y1000000I0J1000000D01*
G01*
X25714004Y31800010D02*
G75*
G02X25214004Y31300010I-500000J0D01*
G01*
X24614006Y31300010D02*
G75*
G02X24114006Y31800010I0J500000D01*
G01*
X21714004Y31800010D02*
G75*
G02X21214004Y31300010I-500000J0D01*
G01*
X20614006Y31300010D02*
G75*
G02X20114006Y31800010I0J500000D01*
G01*
X17714004Y31800010D02*
G75*
G02X17214004Y31300010I-500000J0D01*
G01*
X9714004Y31800010D02*
G75*
G02X9214004Y31300010I-500000J0D01*
G01*
X8614006Y31300010D02*
G75*
G02X8114006Y31800010I0J500000D01*
G01*
X41500007Y1000000D02*
G75*
G02X40500007Y0I-1000000J0D01*
G01*
X40500007Y33300010D02*
G75*
G02X41500007Y32300000I0J-1000000D01*
G01*
X12613998Y31300010D02*
G75*
G02X12113998Y31800010I0J500000D01*
G01*
X13714004Y31800010D02*
G75*
G02X13214004Y31300010I-500000J0D01*
G01*
X16614006Y31300010D02*
G75*
G02X16114006Y31800010I0J500000D01*
G01*
X25714004Y31800010D02*
X25714004Y33300010D01*
X24114006Y33300010D02*
X24114006Y31800010D01*
X21714004Y31800010D02*
X21714004Y33300010D01*
X20614006Y31300010D02*
X21214004Y31300010D01*
X20114006Y33300010D02*
X20114006Y31800010D01*
X17714004Y31800010D02*
X17714004Y33300010D01*
X16114006Y33300010D02*
X16114006Y31800010D01*
X40500007Y33300010D02*
X25714004Y33300010D01*
X8113998Y33300010D02*
X1000000Y33300010D01*
X24614006Y31300010D02*
X25214004Y31300010D01*
X8113998Y33300010D02*
X8113998Y31800010D01*
X8614006Y31300010D02*
X9214004Y31300010D01*
X9714004Y31800010D02*
X9714004Y33300010D01*
X16614006Y31300010D02*
X17214004Y31300010D01*
X13714004Y31800010D02*
X13714004Y33300010D01*
X12613998Y31300010D02*
X13214004Y31300010D01*
X1000000Y0D02*
X40500007Y0D01*
X0Y32300010D02*
X0Y1000000D01*
X12113998Y33300010D02*
X12113998Y31800010D01*
D11*
G04 #@! TO.C,U9*
X25494005Y9235605D02*
X23994005Y9235605D01*
X25994005Y9735605D02*
X25494005Y9235605D01*
X25994005Y11235605D02*
X25994005Y9735605D01*
X23994005Y11235605D02*
X25994005Y11235605D01*
X23994005Y9235605D02*
X23994005Y11235605D01*
G04 #@! TO.C,C14*
X28775000Y26725000D02*
X27775000Y26725000D01*
X28775000Y27225000D02*
X28775000Y26725000D01*
X27775000Y27225000D02*
X28775000Y27225000D01*
X27775000Y26725000D02*
X27775000Y27225000D01*
G04 #@! TO.C,AE2*
X6965000Y11180000D02*
X6330000Y11815000D01*
X8870000Y11180000D02*
X6965000Y11180000D01*
X8870000Y13720000D02*
X8870000Y11180000D01*
X6330000Y13720000D02*
X8870000Y13720000D01*
X6330000Y11815000D02*
X6330000Y13720000D01*
G04 #@! TO.C,C12*
X31500000Y27375000D02*
X31500000Y26575000D01*
X31500000Y26575000D02*
X29900000Y26575000D01*
X29900000Y26575000D02*
X29900000Y27375000D01*
X29900000Y27375000D02*
X31500000Y27375000D01*
D12*
G04 #@! TO.C,U5*
X11040005Y21800000D02*
X11040005Y23400000D01*
X11040005Y23400000D02*
X13040005Y23400000D01*
X13040005Y23400000D02*
X13040005Y21800000D01*
X13040005Y21800000D02*
X11040005Y21800000D01*
X10881426Y21600000D02*
G75*
G03X10881426Y21600000I-141421J0D01*
G01*
D11*
G04 #@! TO.C,P1*
X35023505Y16384105D02*
X42343505Y16384105D01*
X42343505Y25324105D02*
X42343505Y16384105D01*
X35023505Y25324105D02*
X42343505Y25324105D01*
X35023505Y16384105D02*
X35023505Y25324105D01*
G04 #@! TO.C,D1*
X33628505Y30417605D02*
X33628505Y32217605D01*
X33628505Y32217605D02*
X35028505Y32217605D01*
X35028505Y32217605D02*
X35028505Y30417605D01*
X35028505Y30417605D02*
X33628505Y30417605D01*
X33978505Y31017605D02*
X34678505Y31017605D01*
X34328505Y31017605D02*
X34328505Y30817605D01*
X34328505Y31017605D02*
X33978505Y31517605D01*
X33978505Y31517605D02*
X34678505Y31517605D01*
X34678505Y31517605D02*
X34328505Y31017605D01*
X34328505Y31517605D02*
X34328505Y31767605D01*
G04 #@! TO.C,D9*
X35028505Y29042605D02*
X35028505Y27242605D01*
X35028505Y27242605D02*
X33628505Y27242605D01*
X33628505Y27242605D02*
X33628505Y29042605D01*
X33628505Y29042605D02*
X35028505Y29042605D01*
X34678505Y28442605D02*
X33978505Y28442605D01*
X34328505Y28442605D02*
X34328505Y28642605D01*
X34328505Y28442605D02*
X34678505Y27942605D01*
X34678505Y27942605D02*
X33978505Y27942605D01*
X33978505Y27942605D02*
X34328505Y28442605D01*
X34328505Y27942605D02*
X34328505Y27692605D01*
G04 #@! TO.C,F1*
X32987005Y24273105D02*
X31987005Y24273105D01*
X32987005Y24773105D02*
X32987005Y24273105D01*
X31987005Y24773105D02*
X32987005Y24773105D01*
X31987005Y24273105D02*
X31987005Y24773105D01*
G04 #@! TO.C,F2*
X27525000Y28150000D02*
X27525000Y29150000D01*
X28025000Y28150000D02*
X27525000Y28150000D01*
X28025000Y29150000D02*
X28025000Y28150000D01*
X27525000Y29150000D02*
X28025000Y29150000D01*
G04 #@! TO.C,C25*
X11921005Y24709605D02*
X12921005Y24709605D01*
X11921005Y24209605D02*
X11921005Y24709605D01*
X12921005Y24209605D02*
X11921005Y24209605D01*
X12921005Y24709605D02*
X12921005Y24209605D01*
G04 #@! TO.C,C41*
X29574005Y11946105D02*
X30574005Y11946105D01*
X29574005Y11446105D02*
X29574005Y11946105D01*
X30574005Y11446105D02*
X29574005Y11446105D01*
X30574005Y11946105D02*
X30574005Y11446105D01*
G04 #@! TO.C,C42*
X22839005Y9926105D02*
X22839005Y10926105D01*
X23339005Y9926105D02*
X22839005Y9926105D01*
X23339005Y10926105D02*
X23339005Y9926105D01*
X22839005Y10926105D02*
X23339005Y10926105D01*
G04 #@! TO.C,R53*
X26970505Y9977605D02*
X27970505Y9977605D01*
X26970505Y9477605D02*
X26970505Y9977605D01*
X27970505Y9477605D02*
X26970505Y9477605D01*
X27970505Y9977605D02*
X27970505Y9477605D01*
G04 #@! TO.C,R49*
X24176505Y15248105D02*
X25176505Y15248105D01*
X24176505Y14748105D02*
X24176505Y15248105D01*
X25176505Y14748105D02*
X24176505Y14748105D01*
X25176505Y15248105D02*
X25176505Y14748105D01*
G04 #@! TO.C,R42*
X12349505Y20145605D02*
X11349505Y20145605D01*
X12349505Y20645605D02*
X12349505Y20145605D01*
X11349505Y20645605D02*
X12349505Y20645605D01*
X11349505Y20145605D02*
X11349505Y20645605D01*
G04 #@! TO.C,R40*
X18584505Y9926105D02*
X18584505Y10926105D01*
X19084505Y9926105D02*
X18584505Y9926105D01*
X19084505Y10926105D02*
X19084505Y9926105D01*
X18584505Y10926105D02*
X19084505Y10926105D01*
G04 #@! TO.C,R39*
X17568505Y9926105D02*
X17568505Y10926105D01*
X18068505Y9926105D02*
X17568505Y9926105D01*
X18068505Y10926105D02*
X18068505Y9926105D01*
X17568505Y10926105D02*
X18068505Y10926105D01*
G04 #@! TO.C,R10*
X29075000Y2525000D02*
X30075000Y2525000D01*
X29075000Y2025000D02*
X29075000Y2525000D01*
X30075000Y2025000D02*
X29075000Y2025000D01*
X30075000Y2525000D02*
X30075000Y2025000D01*
G04 #@! TO.C,R9*
X31300000Y2500000D02*
X32300000Y2500000D01*
X31300000Y2000000D02*
X31300000Y2500000D01*
X32300000Y2000000D02*
X31300000Y2000000D01*
X32300000Y2500000D02*
X32300000Y2000000D01*
G04 #@! TO.C,Y2*
X10532005Y13312105D02*
X10532005Y12112105D01*
X10532005Y12112105D02*
X12532005Y12112105D01*
X12532005Y12112105D02*
X12532005Y13312105D01*
X12532005Y13312105D02*
X10532005Y13312105D01*
X10532005Y12612105D02*
X11032005Y12112105D01*
G04 #@! TO.C,J4*
X25548005Y3938000D02*
X25548005Y2938000D01*
X25548005Y2938000D02*
X24948005Y2938000D01*
X17328005Y7478000D02*
X17928005Y7478000D01*
X26618005Y3938000D02*
X6098005Y3938000D01*
X7168005Y6478000D02*
X7168005Y7478000D01*
X7768005Y7478000D02*
X7768005Y6478000D01*
X14788005Y2938000D02*
X14788005Y3938000D01*
X9708005Y2938000D02*
X9708005Y3938000D01*
X17928005Y7478000D02*
X17928005Y6478000D01*
X20468005Y2938000D02*
X19868005Y2938000D01*
X15388005Y3938000D02*
X15388005Y2938000D01*
X22408005Y6478000D02*
X22408005Y7478000D01*
X6098005Y5843000D02*
X6733005Y6478000D01*
X10308005Y3938000D02*
X10308005Y2938000D01*
X20468005Y3938000D02*
X20468005Y2938000D01*
X12248005Y6478000D02*
X12248005Y7478000D01*
X12848005Y7478000D02*
X12848005Y6478000D01*
X23008005Y7478000D02*
X23008005Y6478000D01*
X15388005Y2938000D02*
X14788005Y2938000D01*
X26618005Y6478000D02*
X26618005Y3938000D01*
X22408005Y7478000D02*
X23008005Y7478000D01*
X19868005Y2938000D02*
X19868005Y3938000D01*
X17328005Y6478000D02*
X17328005Y7478000D01*
X6733005Y6478000D02*
X26618005Y6478000D01*
X10308005Y2938000D02*
X9708005Y2938000D01*
X24948005Y2938000D02*
X24948005Y3938000D01*
X6098005Y3938000D02*
X6098005Y5843000D01*
X7168005Y7478000D02*
X7768005Y7478000D01*
X12248005Y7478000D02*
X12848005Y7478000D01*
X6098005Y26798000D02*
X6098005Y28703000D01*
X6098005Y28703000D02*
X6733005Y29338000D01*
X6733005Y29338000D02*
X26618005Y29338000D01*
X26618005Y29338000D02*
X26618005Y26798000D01*
X26618005Y26798000D02*
X6098005Y26798000D01*
X7168005Y29338000D02*
X7168005Y30338000D01*
X7168005Y30338000D02*
X7768005Y30338000D01*
X7768005Y30338000D02*
X7768005Y29338000D01*
X9708005Y25798000D02*
X9708005Y26798000D01*
X10308005Y26798000D02*
X10308005Y25798000D01*
X10308005Y25798000D02*
X9708005Y25798000D01*
X12248005Y29338000D02*
X12248005Y30338000D01*
X12248005Y30338000D02*
X12848005Y30338000D01*
X12848005Y30338000D02*
X12848005Y29338000D01*
X14788005Y25798000D02*
X14788005Y26798000D01*
X15388005Y26798000D02*
X15388005Y25798000D01*
X15388005Y25798000D02*
X14788005Y25798000D01*
X17328005Y29338000D02*
X17328005Y30338000D01*
X17328005Y30338000D02*
X17928005Y30338000D01*
X17928005Y30338000D02*
X17928005Y29338000D01*
X19868005Y25798000D02*
X19868005Y26798000D01*
X20468005Y26798000D02*
X20468005Y25798000D01*
X20468005Y25798000D02*
X19868005Y25798000D01*
X22408005Y29338000D02*
X22408005Y30338000D01*
X22408005Y30338000D02*
X23008005Y30338000D01*
X23008005Y30338000D02*
X23008005Y29338000D01*
X24948005Y25798000D02*
X24948005Y26798000D01*
X25548005Y26798000D02*
X25548005Y25798000D01*
X25548005Y25798000D02*
X24948005Y25798000D01*
G04 #@! TO.C,D7*
X26662505Y32401105D02*
X26662505Y32901105D01*
X26562505Y32401105D02*
X26562505Y32901105D01*
X27462505Y32401105D02*
X26462505Y32401105D01*
X27462505Y32901105D02*
X27462505Y32401105D01*
X26462505Y32901105D02*
X27462505Y32901105D01*
X26462505Y32401105D02*
X26462505Y32901105D01*
G04 #@! TO.C,R54*
X27970505Y10430105D02*
X26970505Y10430105D01*
X27970505Y10930105D02*
X27970505Y10430105D01*
X26970505Y10930105D02*
X27970505Y10930105D01*
X26970505Y10430105D02*
X26970505Y10930105D01*
G04 #@! TO.C,R51*
X30574005Y12525605D02*
X29574005Y12525605D01*
X30574005Y13025605D02*
X30574005Y12525605D01*
X29574005Y13025605D02*
X30574005Y13025605D01*
X29574005Y12525605D02*
X29574005Y13025605D01*
G04 #@! TO.C,U4*
X14521005Y18505605D02*
X15521005Y19505605D01*
X14521005Y12505605D02*
X14521005Y18505605D01*
X21521005Y12505605D02*
X14521005Y12505605D01*
X21521005Y19505605D02*
X21521005Y12505605D01*
X15521005Y19505605D02*
X21521005Y19505605D01*
G04 #@! TO.C,R52*
X26970505Y11882605D02*
X27970505Y11882605D01*
X26970505Y11382605D02*
X26970505Y11882605D01*
X27970505Y11382605D02*
X26970505Y11382605D01*
X27970505Y11882605D02*
X27970505Y11382605D01*
G04 #@! TO.C,R50*
X26970505Y9025105D02*
X27970505Y9025105D01*
X26970505Y8525105D02*
X26970505Y9025105D01*
X27970505Y8525105D02*
X26970505Y8525105D01*
X27970505Y9025105D02*
X27970505Y8525105D01*
G04 #@! TO.C,C40*
X29574005Y14105105D02*
X30574005Y14105105D01*
X29574005Y13605105D02*
X29574005Y14105105D01*
X30574005Y13605105D02*
X29574005Y13605105D01*
X30574005Y14105105D02*
X30574005Y13605105D01*
G04 #@! TO.C,J1*
X34000000Y6250000D02*
X34000000Y7050000D01*
X34000000Y7050000D02*
X35600000Y7050000D01*
X35600000Y7050000D02*
X35600000Y13350000D01*
X35600000Y13350000D02*
X34000000Y13350000D01*
X34000000Y13350000D02*
X34000000Y14150000D01*
X41600000Y6250000D02*
X41600000Y14150000D01*
X34000000Y6250000D02*
X41600000Y6250000D01*
X34000000Y14150000D02*
X41600000Y14150000D01*
X35600000Y8700000D02*
X36307107Y9200000D01*
X36307107Y9200000D02*
X35600000Y9700000D01*
G04 #@! TO.C,R29*
X24990005Y23499105D02*
X24990005Y22499105D01*
X24490005Y23499105D02*
X24990005Y23499105D01*
X24490005Y22499105D02*
X24490005Y23499105D01*
X24990005Y22499105D02*
X24490005Y22499105D01*
G04 #@! TO.C,R28*
X24037505Y23499105D02*
X24037505Y22499105D01*
X23537505Y23499105D02*
X24037505Y23499105D01*
X23537505Y22499105D02*
X23537505Y23499105D01*
X24037505Y22499105D02*
X23537505Y22499105D01*
G04 #@! TO.C,R30*
X31025000Y20975000D02*
X30025000Y20975000D01*
X31025000Y21475000D02*
X31025000Y20975000D01*
X30025000Y21475000D02*
X31025000Y21475000D01*
X30025000Y20975000D02*
X30025000Y21475000D01*
G04 #@! TO.C,R22*
X32975000Y19900000D02*
X31975000Y19900000D01*
X32975000Y20400000D02*
X32975000Y19900000D01*
X31975000Y20400000D02*
X32975000Y20400000D01*
X31975000Y19900000D02*
X31975000Y20400000D01*
G04 #@! TO.C,R21*
X32987005Y20971105D02*
X31987005Y20971105D01*
X32987005Y21471105D02*
X32987005Y20971105D01*
X31987005Y21471105D02*
X32987005Y21471105D01*
X31987005Y20971105D02*
X31987005Y21471105D01*
G04 #@! TO.C,R20*
X32987005Y21987105D02*
X31987005Y21987105D01*
X32987005Y22487105D02*
X32987005Y21987105D01*
X31987005Y22487105D02*
X32987005Y22487105D01*
X31987005Y21987105D02*
X31987005Y22487105D01*
G04 #@! TO.C,R19*
X31987005Y19312105D02*
X32987005Y19312105D01*
X31987005Y18812105D02*
X31987005Y19312105D01*
X32987005Y18812105D02*
X31987005Y18812105D01*
X32987005Y19312105D02*
X32987005Y18812105D01*
G04 #@! TO.C,R18*
X31987005Y23566605D02*
X32987005Y23566605D01*
X31987005Y23066605D02*
X31987005Y23566605D01*
X32987005Y23066605D02*
X31987005Y23066605D01*
X32987005Y23566605D02*
X32987005Y23066605D01*
G04 #@! TO.C,C20*
X23137505Y19058105D02*
X24137505Y19058105D01*
X23137505Y18558105D02*
X23137505Y19058105D01*
X24137505Y18558105D02*
X23137505Y18558105D01*
X24137505Y19058105D02*
X24137505Y18558105D01*
G04 #@! TO.C,C19*
X15592005Y10926105D02*
X15592005Y9926105D01*
X15092005Y10926105D02*
X15592005Y10926105D01*
X15092005Y9926105D02*
X15092005Y10926105D01*
X15592005Y9926105D02*
X15092005Y9926105D01*
G04 #@! TO.C,L6*
X7796835Y16343482D02*
X7089728Y15636375D01*
X7443282Y16697035D02*
X7796835Y16343482D01*
X6736175Y15989928D02*
X7443282Y16697035D01*
X7089728Y15636375D02*
X6736175Y15989928D01*
G04 #@! TO.C,C36*
X4719670Y13948223D02*
X5426777Y14655330D01*
X5073223Y13594670D02*
X4719670Y13948223D01*
X5780330Y14301777D02*
X5073223Y13594670D01*
X5426777Y14655330D02*
X5780330Y14301777D01*
G04 #@! TO.C,C35*
X6101777Y13594670D02*
X5394670Y14301777D01*
X6455330Y13948223D02*
X6101777Y13594670D01*
X5748223Y14655330D02*
X6455330Y13948223D01*
X5394670Y14301777D02*
X5748223Y14655330D01*
G04 #@! TO.C,C34*
X5594670Y21548223D02*
X6301777Y22255330D01*
X5948223Y21194670D02*
X5594670Y21548223D01*
X6655330Y21901777D02*
X5948223Y21194670D01*
X6301777Y22255330D02*
X6655330Y21901777D01*
G04 #@! TO.C,C37*
X1850000Y22355000D02*
X1850000Y21355000D01*
X1350000Y22355000D02*
X1850000Y22355000D01*
X1350000Y21355000D02*
X1350000Y22355000D01*
X1850000Y21355000D02*
X1350000Y21355000D01*
G04 #@! TO.C,C33*
X5948223Y22930330D02*
X6655330Y22223223D01*
X5594670Y22576777D02*
X5948223Y22930330D01*
X6301777Y21869670D02*
X5594670Y22576777D01*
X6655330Y22223223D02*
X6301777Y21869670D01*
G04 #@! TO.C,C28*
X9425000Y17500000D02*
X10425000Y17500000D01*
X9425000Y17000000D02*
X9425000Y17500000D01*
X10425000Y17000000D02*
X9425000Y17000000D01*
X10425000Y17500000D02*
X10425000Y17000000D01*
G04 #@! TO.C,C27*
X12225000Y15425000D02*
X11225000Y15425000D01*
X12225000Y15925000D02*
X12225000Y15425000D01*
X11225000Y15925000D02*
X12225000Y15925000D01*
X11225000Y15425000D02*
X11225000Y15925000D01*
G04 #@! TO.C,L4*
X24888900Y17897600D02*
X24888900Y19897600D01*
X26088900Y17897600D02*
X24888900Y17897600D01*
X26088900Y19897600D02*
X26088900Y17897600D01*
X24888900Y19897600D02*
X26088900Y19897600D01*
G04 #@! TO.C,C1*
X31425000Y7300000D02*
X32425000Y7300000D01*
X31425000Y6800000D02*
X31425000Y7300000D01*
X32425000Y6800000D02*
X31425000Y6800000D01*
X32425000Y7300000D02*
X32425000Y6800000D01*
G04 #@! TO.C,D3*
X22662005Y32401105D02*
X22662005Y32901105D01*
X22562005Y32401105D02*
X22562005Y32901105D01*
X23462005Y32401105D02*
X22462005Y32401105D01*
X23462005Y32901105D02*
X23462005Y32401105D01*
X22462005Y32901105D02*
X23462005Y32901105D01*
X22462005Y32401105D02*
X22462005Y32901105D01*
G04 #@! TO.C,D2*
X18598005Y32401105D02*
X18598005Y32901105D01*
X18498005Y32401105D02*
X18498005Y32901105D01*
X19398005Y32401105D02*
X18398005Y32401105D01*
X19398005Y32901105D02*
X19398005Y32401105D01*
X18398005Y32901105D02*
X19398005Y32901105D01*
X18398005Y32401105D02*
X18398005Y32901105D01*
G04 #@! TO.C,D4*
X14534005Y32401105D02*
X14534005Y32901105D01*
X14434005Y32401105D02*
X14434005Y32901105D01*
X15334005Y32401105D02*
X14334005Y32401105D01*
X15334005Y32901105D02*
X15334005Y32401105D01*
X14334005Y32901105D02*
X15334005Y32901105D01*
X14334005Y32401105D02*
X14334005Y32901105D01*
G04 #@! TO.C,D5*
X10660505Y32401105D02*
X10660505Y32901105D01*
X10560505Y32401105D02*
X10560505Y32901105D01*
X11460505Y32401105D02*
X10460505Y32401105D01*
X11460505Y32901105D02*
X11460505Y32401105D01*
X10460505Y32901105D02*
X11460505Y32901105D01*
X10460505Y32401105D02*
X10460505Y32901105D01*
G04 #@! TO.C,D6*
X6660005Y32401105D02*
X6660005Y32901105D01*
X6560005Y32401105D02*
X6560005Y32901105D01*
X7460005Y32401105D02*
X6460005Y32401105D01*
X7460005Y32901105D02*
X7460005Y32401105D01*
X6460005Y32901105D02*
X7460005Y32901105D01*
X6460005Y32401105D02*
X6460005Y32901105D01*
G04 #@! TO.C,C15*
X10016005Y14486105D02*
X11016005Y14486105D01*
X10016005Y13986105D02*
X10016005Y14486105D01*
X11016005Y13986105D02*
X10016005Y13986105D01*
X11016005Y14486105D02*
X11016005Y13986105D01*
G04 #@! TO.C,C16*
X12921005Y13986105D02*
X11921005Y13986105D01*
X12921005Y14486105D02*
X12921005Y13986105D01*
X11921005Y14486105D02*
X12921005Y14486105D01*
X11921005Y13986105D02*
X11921005Y14486105D01*
G04 #@! TO.C,C17*
X21624505Y10926105D02*
X21624505Y9926105D01*
X21124505Y10926105D02*
X21624505Y10926105D01*
X21124505Y9926105D02*
X21124505Y10926105D01*
X21624505Y9926105D02*
X21124505Y9926105D01*
G04 #@! TO.C,C18*
X20608505Y10926105D02*
X20608505Y9926105D01*
X20108505Y10926105D02*
X20608505Y10926105D01*
X20108505Y9926105D02*
X20108505Y10926105D01*
X20608505Y9926105D02*
X20108505Y9926105D01*
G04 #@! TO.C,C24*
X25501500Y20821700D02*
X23901500Y20821700D01*
X25501500Y21621700D02*
X25501500Y20821700D01*
X23901500Y21621700D02*
X25501500Y21621700D01*
X23901500Y20821700D02*
X23901500Y21621700D01*
G04 #@! TO.C,C29*
X9069670Y19473223D02*
X9776777Y20180330D01*
X9423223Y19119670D02*
X9069670Y19473223D01*
X10130330Y19826777D02*
X9423223Y19119670D01*
X9776777Y20180330D02*
X10130330Y19826777D01*
G04 #@! TO.C,C31*
X7119670Y21448223D02*
X7826777Y22155330D01*
X7473223Y21094670D02*
X7119670Y21448223D01*
X8180330Y21801777D02*
X7473223Y21094670D01*
X7826777Y22155330D02*
X8180330Y21801777D01*
G04 #@! TO.C,C30*
X7764728Y18072035D02*
X8471835Y17364928D01*
X7411175Y17718482D02*
X7764728Y18072035D01*
X8118282Y17011375D02*
X7411175Y17718482D01*
X8471835Y17364928D02*
X8118282Y17011375D01*
G04 #@! TO.C,C32*
X5739728Y16047035D02*
X6446835Y15339928D01*
X5386175Y15693482D02*
X5739728Y16047035D01*
X6093282Y14986375D02*
X5386175Y15693482D01*
X6446835Y15339928D02*
X6093282Y14986375D01*
G04 #@! TO.C,L5*
X8451777Y19769670D02*
X7744670Y20476777D01*
X8805330Y20123223D02*
X8451777Y19769670D01*
X8098223Y20830330D02*
X8805330Y20123223D01*
X7744670Y20476777D02*
X8098223Y20830330D01*
G04 #@! TO.C,R37*
X24097005Y15764105D02*
X23097005Y15764105D01*
X24097005Y16264105D02*
X24097005Y15764105D01*
X23097005Y16264105D02*
X24097005Y16264105D01*
X23097005Y15764105D02*
X23097005Y16264105D01*
G04 #@! TO.C,R38*
X24097005Y16780105D02*
X23097005Y16780105D01*
X24097005Y17280105D02*
X24097005Y16780105D01*
X23097005Y17280105D02*
X24097005Y17280105D01*
X23097005Y16780105D02*
X23097005Y17280105D01*
G04 #@! TO.C,Y3*
X16623005Y21183105D02*
X14823005Y21183105D01*
X14823005Y21183105D02*
X14723005Y21283105D01*
X14723005Y21283105D02*
X14723005Y22683105D01*
X14723005Y22683105D02*
X14823005Y22783105D01*
X14823005Y22783105D02*
X16623005Y22783105D01*
X16623005Y22783105D02*
X16723005Y22683105D01*
X16723005Y22683105D02*
X16723005Y21283105D01*
X16723005Y21283105D02*
X16623005Y21183105D01*
X16723005Y22283105D02*
X16223005Y22783105D01*
G04 #@! TD*
M02*
