G04 #@! TF.GenerationSoftware,KiCad,Pcbnew,(5.0.0)*
G04 #@! TF.CreationDate,2020-08-24T16:31:51+08:00*
G04 #@! TF.ProjectId,LeashPCB,4C656173685043422E6B696361645F70,B*
G04 #@! TF.SameCoordinates,Original*
G04 #@! TF.FileFunction,Other,Fab,Bot*
%FSLAX46Y46*%
G04 Gerber Fmt 4.6, Leading zero omitted, Abs format (unit mm)*
G04 Created by KiCad (PCBNEW (5.0.0)) date 08/24/20 16:31:51*
%MOMM*%
%LPD*%
G01*
G04 APERTURE LIST*
%ADD10C,0.025400*%
%ADD11C,0.100000*%
G04 APERTURE END LIST*
D10*
X41500007Y1000000D02*
X41500007Y32300000D01*
X24114006Y33300010D02*
X21714004Y33300010D01*
X12113998Y33300010D02*
X9714004Y33300010D01*
X16114006Y33300010D02*
X13714004Y33300010D01*
X20114006Y33300010D02*
X17714004Y33300010D01*
X0Y32300009D02*
G75*
G02X999999Y33300010I1000000J1D01*
G01*
X1000000Y0D02*
G75*
G02X0Y1000000I0J1000000D01*
G01*
X25714004Y31800010D02*
G75*
G02X25214004Y31300010I-500000J0D01*
G01*
X24614006Y31300010D02*
G75*
G02X24114006Y31800010I0J500000D01*
G01*
X21714004Y31800010D02*
G75*
G02X21214004Y31300010I-500000J0D01*
G01*
X20614006Y31300010D02*
G75*
G02X20114006Y31800010I0J500000D01*
G01*
X17714004Y31800010D02*
G75*
G02X17214004Y31300010I-500000J0D01*
G01*
X9714004Y31800010D02*
G75*
G02X9214004Y31300010I-500000J0D01*
G01*
X8614006Y31300010D02*
G75*
G02X8114006Y31800010I0J500000D01*
G01*
X41500007Y1000000D02*
G75*
G02X40500007Y0I-1000000J0D01*
G01*
X40500007Y33300010D02*
G75*
G02X41500007Y32300000I0J-1000000D01*
G01*
X12613998Y31300010D02*
G75*
G02X12113998Y31800010I0J500000D01*
G01*
X13714004Y31800010D02*
G75*
G02X13214004Y31300010I-500000J0D01*
G01*
X16614006Y31300010D02*
G75*
G02X16114006Y31800010I0J500000D01*
G01*
X25714004Y31800010D02*
X25714004Y33300010D01*
X24114006Y33300010D02*
X24114006Y31800010D01*
X21714004Y31800010D02*
X21714004Y33300010D01*
X20614006Y31300010D02*
X21214004Y31300010D01*
X20114006Y33300010D02*
X20114006Y31800010D01*
X17714004Y31800010D02*
X17714004Y33300010D01*
X16114006Y33300010D02*
X16114006Y31800010D01*
X40500007Y33300010D02*
X25714004Y33300010D01*
X8113998Y33300010D02*
X1000000Y33300010D01*
X24614006Y31300010D02*
X25214004Y31300010D01*
X8113998Y33300010D02*
X8113998Y31800010D01*
X8614006Y31300010D02*
X9214004Y31300010D01*
X9714004Y31800010D02*
X9714004Y33300010D01*
X16614006Y31300010D02*
X17214004Y31300010D01*
X13714004Y31800010D02*
X13714004Y33300010D01*
X12613998Y31300010D02*
X13214004Y31300010D01*
X1000000Y0D02*
X40500007Y0D01*
X0Y32300010D02*
X0Y1000000D01*
X12113998Y33300010D02*
X12113998Y31800010D01*
D11*
G04 #@! TO.C,C43*
X24240005Y9223605D02*
X25240005Y9223605D01*
X24240005Y9723605D02*
X24240005Y9223605D01*
X25240005Y9723605D02*
X24240005Y9723605D01*
X25240005Y9223605D02*
X25240005Y9723605D01*
G04 #@! TO.C,R14*
X28900000Y26300000D02*
X28900000Y27300000D01*
X28400000Y26300000D02*
X28900000Y26300000D01*
X28400000Y27300000D02*
X28400000Y26300000D01*
X28900000Y27300000D02*
X28400000Y27300000D01*
G04 #@! TO.C,R13*
X29425000Y27300000D02*
X29425000Y26300000D01*
X29925000Y27300000D02*
X29425000Y27300000D01*
X29925000Y26300000D02*
X29925000Y27300000D01*
X29425000Y26300000D02*
X29925000Y26300000D01*
G04 #@! TO.C,C44*
X30050000Y20100000D02*
X31050000Y20100000D01*
X30050000Y20600000D02*
X30050000Y20100000D01*
X31050000Y20600000D02*
X30050000Y20600000D01*
X31050000Y20100000D02*
X31050000Y20600000D01*
G04 #@! TO.C,C45*
X28400000Y29015000D02*
X28900000Y29015000D01*
X28900000Y29015000D02*
X28900000Y30015000D01*
X28900000Y30015000D02*
X28400000Y30015000D01*
X28400000Y30015000D02*
X28400000Y29015000D01*
G04 #@! TO.C,SW1*
X34968405Y20897205D02*
X34968405Y20097205D01*
X37168405Y20097205D02*
X37168405Y20897205D01*
X34468405Y18397205D02*
X34468405Y22597205D01*
X37668405Y18397205D02*
X34468405Y18397205D01*
X37668405Y22597205D02*
X37668405Y18397205D01*
X34468405Y22597205D02*
X37668405Y22597205D01*
X34968405Y20897205D02*
G75*
G02X37168405Y20897205I1100000J0D01*
G01*
X37168405Y20097205D02*
G75*
G02X34968405Y20097205I-1100000J0D01*
G01*
G04 #@! TO.C,D10*
X32987005Y21987105D02*
X32987005Y22487105D01*
X32987005Y22487105D02*
X31987005Y22487105D01*
X31987005Y22487105D02*
X31987005Y21987105D01*
X31987005Y21987105D02*
X32987005Y21987105D01*
X32887005Y21987105D02*
X32887005Y22487105D01*
X32787005Y21987105D02*
X32787005Y22487105D01*
G04 #@! TO.C,D8*
X32975000Y23025000D02*
X32975000Y23525000D01*
X32975000Y23525000D02*
X31975000Y23525000D01*
X31975000Y23525000D02*
X31975000Y23025000D01*
X31975000Y23025000D02*
X32975000Y23025000D01*
X32875000Y23025000D02*
X32875000Y23525000D01*
X32775000Y23025000D02*
X32775000Y23525000D01*
G04 #@! TO.C,D11*
X32987005Y20971105D02*
X32987005Y21471105D01*
X32987005Y21471105D02*
X31987005Y21471105D01*
X31987005Y21471105D02*
X31987005Y20971105D01*
X31987005Y20971105D02*
X32987005Y20971105D01*
X32887005Y20971105D02*
X32887005Y21471105D01*
X32787005Y20971105D02*
X32787005Y21471105D01*
G04 #@! TO.C,L1*
X25942505Y13482105D02*
X25942505Y14482105D01*
X25442505Y13482105D02*
X25942505Y13482105D01*
X25442505Y14482105D02*
X25442505Y13482105D01*
X25942505Y14482105D02*
X25442505Y14482105D01*
G04 #@! TO.C,L3*
X8555505Y10112605D02*
X9555505Y10112605D01*
X8555505Y10612605D02*
X8555505Y10112605D01*
X9555505Y10612605D02*
X8555505Y10612605D01*
X9555505Y10112605D02*
X9555505Y10612605D01*
G04 #@! TO.C,C2*
X29951005Y14609105D02*
X29951005Y13609105D01*
X30451005Y14609105D02*
X29951005Y14609105D01*
X30451005Y13609105D02*
X30451005Y14609105D01*
X29951005Y13609105D02*
X30451005Y13609105D01*
G04 #@! TO.C,Q1*
X30380000Y26075000D02*
X30380000Y27475000D01*
X33420000Y27475000D02*
X30380000Y27475000D01*
X32850000Y26075000D02*
X33420000Y26625000D01*
X33420000Y26625000D02*
X33420000Y27475000D01*
X32850000Y26075000D02*
X30400000Y26075000D01*
G04 #@! TO.C,R26*
X19664005Y15307605D02*
X19664005Y14307605D01*
X20164005Y15307605D02*
X19664005Y15307605D01*
X20164005Y14307605D02*
X20164005Y15307605D01*
X19664005Y14307605D02*
X20164005Y14307605D01*
G04 #@! TO.C,R32*
X33765005Y8652105D02*
X34765005Y8652105D01*
X33765005Y9152105D02*
X33765005Y8652105D01*
X34765005Y9152105D02*
X33765005Y9152105D01*
X34765005Y8652105D02*
X34765005Y9152105D01*
G04 #@! TO.C,R36*
X9555505Y9533105D02*
X8555505Y9533105D01*
X9555505Y9033105D02*
X9555505Y9533105D01*
X8555505Y9033105D02*
X9555505Y9033105D01*
X8555505Y9533105D02*
X8555505Y9033105D01*
G04 #@! TO.C,R7*
X34775000Y1200000D02*
X34775000Y2200000D01*
X34275000Y1200000D02*
X34775000Y1200000D01*
X34275000Y2200000D02*
X34275000Y1200000D01*
X34775000Y2200000D02*
X34275000Y2200000D01*
G04 #@! TO.C,R8*
X33400000Y2425000D02*
X32400000Y2425000D01*
X33400000Y1925000D02*
X33400000Y2425000D01*
X32400000Y1925000D02*
X33400000Y1925000D01*
X32400000Y2425000D02*
X32400000Y1925000D01*
G04 #@! TO.C,R11*
X31525000Y24150000D02*
X32525000Y24150000D01*
X31525000Y24650000D02*
X31525000Y24150000D01*
X32525000Y24650000D02*
X31525000Y24650000D01*
X32525000Y24150000D02*
X32525000Y24650000D01*
G04 #@! TO.C,R12*
X36822000Y7235000D02*
X35822000Y7235000D01*
X36822000Y6735000D02*
X36822000Y7235000D01*
X35822000Y6735000D02*
X36822000Y6735000D01*
X35822000Y7235000D02*
X35822000Y6735000D01*
G04 #@! TO.C,R15*
X31758000Y6735000D02*
X32758000Y6735000D01*
X31758000Y7235000D02*
X31758000Y6735000D01*
X32758000Y7235000D02*
X31758000Y7235000D01*
X32758000Y6735000D02*
X32758000Y7235000D01*
G04 #@! TO.C,R16*
X33790000Y6735000D02*
X34790000Y6735000D01*
X33790000Y7235000D02*
X33790000Y6735000D01*
X34790000Y7235000D02*
X33790000Y7235000D01*
X34790000Y6735000D02*
X34790000Y7235000D01*
G04 #@! TO.C,R17*
X29435005Y13609105D02*
X29435005Y14609105D01*
X28935005Y13609105D02*
X29435005Y13609105D01*
X28935005Y14609105D02*
X28935005Y13609105D01*
X29435005Y14609105D02*
X28935005Y14609105D01*
G04 #@! TO.C,R24*
X31030505Y14609105D02*
X31030505Y13609105D01*
X31530505Y14609105D02*
X31030505Y14609105D01*
X31530505Y13609105D02*
X31530505Y14609105D01*
X31030505Y13609105D02*
X31530505Y13609105D01*
G04 #@! TO.C,R27*
X18711505Y15307605D02*
X18711505Y14307605D01*
X19211505Y15307605D02*
X18711505Y15307605D01*
X19211505Y14307605D02*
X19211505Y15307605D01*
X18711505Y14307605D02*
X19211505Y14307605D01*
G04 #@! TO.C,R25*
X27784005Y24658105D02*
X27784005Y25658105D01*
X27284005Y24658105D02*
X27784005Y24658105D01*
X27284005Y25658105D02*
X27284005Y24658105D01*
X27784005Y25658105D02*
X27284005Y25658105D01*
G04 #@! TO.C,J5*
X7193000Y3949105D02*
X7193000Y2949105D01*
X7193000Y2949105D02*
X7793000Y2949105D01*
X15413000Y7489105D02*
X14813000Y7489105D01*
X6123000Y3949105D02*
X26643000Y3949105D01*
X25573000Y6489105D02*
X25573000Y7489105D01*
X24973000Y7489105D02*
X24973000Y6489105D01*
X17953000Y2949105D02*
X17953000Y3949105D01*
X23033000Y2949105D02*
X23033000Y3949105D01*
X14813000Y7489105D02*
X14813000Y6489105D01*
X12273000Y2949105D02*
X12873000Y2949105D01*
X17353000Y3949105D02*
X17353000Y2949105D01*
X10333000Y6489105D02*
X10333000Y7489105D01*
X26643000Y5854105D02*
X26008000Y6489105D01*
X22433000Y3949105D02*
X22433000Y2949105D01*
X12273000Y3949105D02*
X12273000Y2949105D01*
X20493000Y6489105D02*
X20493000Y7489105D01*
X19893000Y7489105D02*
X19893000Y6489105D01*
X9733000Y7489105D02*
X9733000Y6489105D01*
X17353000Y2949105D02*
X17953000Y2949105D01*
X6123000Y6489105D02*
X6123000Y3949105D01*
X10333000Y7489105D02*
X9733000Y7489105D01*
X12873000Y2949105D02*
X12873000Y3949105D01*
X15413000Y6489105D02*
X15413000Y7489105D01*
X26008000Y6489105D02*
X6123000Y6489105D01*
X22433000Y2949105D02*
X23033000Y2949105D01*
X7793000Y2949105D02*
X7793000Y3949105D01*
X26643000Y3949105D02*
X26643000Y5854105D01*
X25573000Y7489105D02*
X24973000Y7489105D01*
X20493000Y7489105D02*
X19893000Y7489105D01*
X26643000Y26809105D02*
X26643000Y28714105D01*
X26643000Y28714105D02*
X26008000Y29349105D01*
X26008000Y29349105D02*
X6123000Y29349105D01*
X6123000Y29349105D02*
X6123000Y26809105D01*
X6123000Y26809105D02*
X26643000Y26809105D01*
X25573000Y29349105D02*
X25573000Y30349105D01*
X25573000Y30349105D02*
X24973000Y30349105D01*
X24973000Y30349105D02*
X24973000Y29349105D01*
X23033000Y25809105D02*
X23033000Y26809105D01*
X22433000Y26809105D02*
X22433000Y25809105D01*
X22433000Y25809105D02*
X23033000Y25809105D01*
X20493000Y29349105D02*
X20493000Y30349105D01*
X20493000Y30349105D02*
X19893000Y30349105D01*
X19893000Y30349105D02*
X19893000Y29349105D01*
X17953000Y25809105D02*
X17953000Y26809105D01*
X17353000Y26809105D02*
X17353000Y25809105D01*
X17353000Y25809105D02*
X17953000Y25809105D01*
X15413000Y29349105D02*
X15413000Y30349105D01*
X15413000Y30349105D02*
X14813000Y30349105D01*
X14813000Y30349105D02*
X14813000Y29349105D01*
X12873000Y25809105D02*
X12873000Y26809105D01*
X12273000Y26809105D02*
X12273000Y25809105D01*
X12273000Y25809105D02*
X12873000Y25809105D01*
X10333000Y29349105D02*
X10333000Y30349105D01*
X10333000Y30349105D02*
X9733000Y30349105D01*
X9733000Y30349105D02*
X9733000Y29349105D01*
X7793000Y25809105D02*
X7793000Y26809105D01*
X7193000Y26809105D02*
X7193000Y25809105D01*
X7193000Y25809105D02*
X7793000Y25809105D01*
G04 #@! TO.C,R23*
X19719505Y21991105D02*
X19719505Y22991105D01*
X19219505Y21991105D02*
X19719505Y21991105D01*
X19219505Y22991105D02*
X19219505Y21991105D01*
X19719505Y22991105D02*
X19219505Y22991105D01*
G04 #@! TO.C,U2*
X30067949Y11087105D02*
X30067949Y7987105D01*
X30067949Y7987105D02*
X31867949Y7987105D01*
X31867949Y10437105D02*
X31867949Y7987105D01*
X30067949Y11087105D02*
X31217949Y11087105D01*
X31867949Y10437105D02*
X31217949Y11087105D01*
G04 #@! TO.C,R31*
X27796949Y8894105D02*
X27796949Y7894105D01*
X28296949Y8894105D02*
X27796949Y8894105D01*
X28296949Y7894105D02*
X28296949Y8894105D01*
X27796949Y7894105D02*
X28296949Y7894105D01*
G04 #@! TO.C,R6*
X27462505Y32901105D02*
X26462505Y32901105D01*
X27462505Y32401105D02*
X27462505Y32901105D01*
X26462505Y32401105D02*
X27462505Y32401105D01*
X26462505Y32901105D02*
X26462505Y32401105D01*
G04 #@! TO.C,C11*
X33765005Y7699605D02*
X34765005Y7699605D01*
X33765005Y8199605D02*
X33765005Y7699605D01*
X34765005Y8199605D02*
X33765005Y8199605D01*
X34765005Y7699605D02*
X34765005Y8199605D01*
G04 #@! TO.C,C10*
X27796949Y10926105D02*
X27796949Y9926105D01*
X28296949Y10926105D02*
X27796949Y10926105D01*
X28296949Y9926105D02*
X28296949Y10926105D01*
X27796949Y9926105D02*
X28296949Y9926105D01*
G04 #@! TO.C,R48*
X32964500Y31373000D02*
X33964500Y31373000D01*
X32964500Y31873000D02*
X32964500Y31373000D01*
X33964500Y31873000D02*
X32964500Y31873000D01*
X33964500Y31373000D02*
X33964500Y31873000D01*
G04 #@! TO.C,C4*
X30070005Y18244605D02*
X30070005Y19244605D01*
X29570005Y18244605D02*
X30070005Y18244605D01*
X29570005Y19244605D02*
X29570005Y18244605D01*
X30070005Y19244605D02*
X29570005Y19244605D01*
G04 #@! TO.C,C3*
X29570005Y17212605D02*
X29570005Y16212605D01*
X30070005Y17212605D02*
X29570005Y17212605D01*
X30070005Y16212605D02*
X30070005Y17212605D01*
X29570005Y16212605D02*
X30070005Y16212605D01*
G04 #@! TO.C,U10*
X23144505Y9281605D02*
X23144505Y10681605D01*
X23144505Y10681605D02*
X22144505Y10681605D01*
X22144505Y10681605D02*
X22144505Y9781605D01*
X22644505Y9281605D02*
X23144505Y9281605D01*
X22644505Y9281605D02*
X22144505Y9781605D01*
G04 #@! TO.C,R55*
X24240005Y10303105D02*
X25240005Y10303105D01*
X24240005Y10803105D02*
X24240005Y10303105D01*
X25240005Y10803105D02*
X24240005Y10803105D01*
X25240005Y10303105D02*
X25240005Y10803105D01*
G04 #@! TO.C,Y1*
X32292505Y19138105D02*
X33292505Y18138105D01*
X30792505Y15938105D02*
X30792505Y19138105D01*
X33292505Y15938105D02*
X30792505Y15938105D01*
X33292505Y19138105D02*
X33292505Y15938105D01*
X30792505Y19138105D02*
X33292505Y19138105D01*
G04 #@! TO.C,C9*
X20616505Y15307605D02*
X20616505Y14307605D01*
X21116505Y15307605D02*
X20616505Y15307605D01*
X21116505Y14307605D02*
X21116505Y15307605D01*
X20616505Y14307605D02*
X21116505Y14307605D01*
G04 #@! TO.C,C8*
X31975000Y19900000D02*
X32975000Y19900000D01*
X31975000Y20400000D02*
X31975000Y19900000D01*
X32975000Y20400000D02*
X31975000Y20400000D01*
X32975000Y19900000D02*
X32975000Y20400000D01*
G04 #@! TO.C,C7*
X22267505Y14672605D02*
X22267505Y13672605D01*
X22767505Y14672605D02*
X22267505Y14672605D01*
X22767505Y13672605D02*
X22767505Y14672605D01*
X22267505Y13672605D02*
X22767505Y13672605D01*
G04 #@! TO.C,C6*
X23716005Y24900105D02*
X22716005Y24900105D01*
X23716005Y24400105D02*
X23716005Y24900105D01*
X22716005Y24400105D02*
X23716005Y24400105D01*
X22716005Y24900105D02*
X22716005Y24400105D01*
G04 #@! TO.C,C5*
X24236005Y14482105D02*
X24236005Y13482105D01*
X24736005Y14482105D02*
X24236005Y14482105D01*
X24736005Y13482105D02*
X24736005Y14482105D01*
X24236005Y13482105D02*
X24736005Y13482105D01*
G04 #@! TO.C,R47*
X38960005Y13482105D02*
X38960005Y14482105D01*
X38460005Y13482105D02*
X38960005Y13482105D01*
X38460005Y14482105D02*
X38460005Y13482105D01*
X38960005Y14482105D02*
X38460005Y14482105D01*
G04 #@! TO.C,R46*
X38960005Y20698105D02*
X38960005Y21698105D01*
X38460005Y20698105D02*
X38960005Y20698105D01*
X38460005Y21698105D02*
X38460005Y20698105D01*
X38960005Y21698105D02*
X38460005Y21698105D01*
G04 #@! TO.C,C39*
X38460005Y12323105D02*
X38460005Y11323105D01*
X38960005Y12323105D02*
X38460005Y12323105D01*
X38960005Y11323105D02*
X38960005Y12323105D01*
X38460005Y11323105D02*
X38960005Y11323105D01*
G04 #@! TO.C,C38*
X38460005Y19562105D02*
X38460005Y18562105D01*
X38960005Y19562105D02*
X38460005Y19562105D01*
X38960005Y18562105D02*
X38960005Y19562105D01*
X38460005Y18562105D02*
X38960005Y18562105D01*
G04 #@! TO.C,SW2*
X37168405Y12349105D02*
X37168405Y13149105D01*
X34968405Y13149105D02*
X34968405Y12349105D01*
X37668405Y14849105D02*
X37668405Y10649105D01*
X34468405Y14849105D02*
X37668405Y14849105D01*
X34468405Y10649105D02*
X34468405Y14849105D01*
X37668405Y10649105D02*
X34468405Y10649105D01*
X37168405Y12349105D02*
G75*
G02X34968405Y12349105I-1100000J0D01*
G01*
X34968405Y13149105D02*
G75*
G02X37168405Y13149105I1100000J0D01*
G01*
G04 #@! TO.C,U1*
X27204005Y16351105D02*
X28204005Y17351105D01*
X21204005Y16351105D02*
X27204005Y16351105D01*
X21204005Y23351105D02*
X21204005Y16351105D01*
X28204005Y23351105D02*
X21204005Y23351105D01*
X28204005Y17351105D02*
X28204005Y23351105D01*
G04 #@! TO.C,C13*
X30475000Y30032700D02*
X30475000Y29032700D01*
X30975000Y30032700D02*
X30475000Y30032700D01*
X30975000Y29032700D02*
X30975000Y30032700D01*
X30475000Y29032700D02*
X30975000Y29032700D01*
G04 #@! TO.C,R2*
X23462005Y32901105D02*
X22462005Y32901105D01*
X23462005Y32401105D02*
X23462005Y32901105D01*
X22462005Y32401105D02*
X23462005Y32401105D01*
X22462005Y32901105D02*
X22462005Y32401105D01*
G04 #@! TO.C,R1*
X19398005Y32901105D02*
X18398005Y32901105D01*
X19398005Y32401105D02*
X19398005Y32901105D01*
X18398005Y32401105D02*
X19398005Y32401105D01*
X18398005Y32901105D02*
X18398005Y32401105D01*
G04 #@! TO.C,R3*
X15334005Y32901105D02*
X14334005Y32901105D01*
X15334005Y32401105D02*
X15334005Y32901105D01*
X14334005Y32401105D02*
X15334005Y32401105D01*
X14334005Y32901105D02*
X14334005Y32401105D01*
G04 #@! TO.C,R4*
X11460505Y32901105D02*
X10460505Y32901105D01*
X11460505Y32401105D02*
X11460505Y32901105D01*
X10460505Y32401105D02*
X11460505Y32401105D01*
X10460505Y32901105D02*
X10460505Y32401105D01*
G04 #@! TO.C,R5*
X7460005Y32901105D02*
X6460005Y32901105D01*
X7460005Y32401105D02*
X7460005Y32901105D01*
X6460005Y32401105D02*
X7460005Y32401105D01*
X6460005Y32901105D02*
X6460005Y32401105D01*
G04 #@! TO.C,R34*
X29950000Y29032700D02*
X29950000Y30032700D01*
X29450000Y29032700D02*
X29950000Y29032700D01*
X29450000Y30032700D02*
X29450000Y29032700D01*
X29950000Y30032700D02*
X29450000Y30032700D01*
G04 #@! TO.C,R35*
X31500000Y30025000D02*
X31500000Y29025000D01*
X32000000Y30025000D02*
X31500000Y30025000D01*
X32000000Y29025000D02*
X32000000Y30025000D01*
X31500000Y29025000D02*
X32000000Y29025000D01*
G04 #@! TO.C,C21*
X17124005Y19689105D02*
X17124005Y18689105D01*
X17624005Y19689105D02*
X17124005Y19689105D01*
X17624005Y18689105D02*
X17624005Y19689105D01*
X17124005Y18689105D02*
X17624005Y18689105D01*
G04 #@! TO.C,C22*
X15397505Y20709105D02*
X14397505Y20709105D01*
X15397505Y20209105D02*
X15397505Y20709105D01*
X14397505Y20209105D02*
X15397505Y20209105D01*
X14397505Y20709105D02*
X14397505Y20209105D01*
G04 #@! TO.C,C23*
X16044505Y19689105D02*
X16044505Y18689105D01*
X16544505Y19689105D02*
X16044505Y19689105D01*
X16544505Y18689105D02*
X16544505Y19689105D01*
X16044505Y18689105D02*
X16544505Y18689105D01*
G04 #@! TO.C,C26*
X19477505Y9223605D02*
X20477505Y9223605D01*
X19477505Y9723605D02*
X19477505Y9223605D01*
X20477505Y9723605D02*
X19477505Y9723605D01*
X20477505Y9223605D02*
X20477505Y9723605D01*
G04 #@! TO.C,R41*
X17382005Y10366605D02*
X18382005Y10366605D01*
X17382005Y10866605D02*
X17382005Y10366605D01*
X18382005Y10866605D02*
X17382005Y10866605D01*
X18382005Y10366605D02*
X18382005Y10866605D01*
G04 #@! TO.C,R43*
X11714505Y10676105D02*
X10714505Y10676105D01*
X11714505Y10176105D02*
X11714505Y10676105D01*
X10714505Y10176105D02*
X11714505Y10176105D01*
X10714505Y10676105D02*
X10714505Y10176105D01*
G04 #@! TO.C,R44*
X11714505Y9533105D02*
X10714505Y9533105D01*
X11714505Y9033105D02*
X11714505Y9533105D01*
X10714505Y9033105D02*
X11714505Y9033105D01*
X10714505Y9533105D02*
X10714505Y9033105D01*
G04 #@! TO.C,R45*
X17382005Y9223605D02*
X18382005Y9223605D01*
X17382005Y9723605D02*
X17382005Y9223605D01*
X18382005Y9723605D02*
X17382005Y9723605D01*
X18382005Y9223605D02*
X18382005Y9723605D01*
G04 #@! TD*
M02*
