G04 #@! TF.GenerationSoftware,KiCad,Pcbnew,(5.1.10)-1*
G04 #@! TF.CreationDate,2021-09-23T13:54:31+08:00*
G04 #@! TF.ProjectId,BeagleConnect Freedom,42656167-6c65-4436-9f6e-6e6563742046,B*
G04 #@! TF.SameCoordinates,Original*
G04 #@! TF.FileFunction,Legend,Bot*
G04 #@! TF.FilePolarity,Positive*
%FSLAX46Y46*%
G04 Gerber Fmt 4.6, Leading zero omitted, Abs format (unit mm)*
G04 Created by KiCad (PCBNEW (5.1.10)-1) date 2021-09-23 13:54:31*
%MOMM*%
%LPD*%
G01*
G04 APERTURE LIST*
%ADD10C,0.150000*%
%ADD11C,0.100000*%
%ADD12C,0.200000*%
G04 #@! TA.AperFunction,Profile*
%ADD13C,0.050000*%
G04 #@! TD*
%ADD14C,0.120000*%
%ADD15C,0.127000*%
%ADD16C,0.080000*%
%ADD17C,0.050000*%
%ADD18C,0.500000*%
G04 APERTURE END LIST*
D10*
X290506904Y-76962000D02*
X290602142Y-76914380D01*
X290745000Y-76914380D01*
X290887857Y-76962000D01*
X290983095Y-77057238D01*
X291030714Y-77152476D01*
X291078333Y-77342952D01*
X291078333Y-77485809D01*
X291030714Y-77676285D01*
X290983095Y-77771523D01*
X290887857Y-77866761D01*
X290745000Y-77914380D01*
X290649761Y-77914380D01*
X290506904Y-77866761D01*
X290459285Y-77819142D01*
X290459285Y-77485809D01*
X290649761Y-77485809D01*
X290030714Y-77914380D02*
X290030714Y-76914380D01*
X289459285Y-77914380D01*
X289459285Y-76914380D01*
X288983095Y-77914380D02*
X288983095Y-76914380D01*
X288745000Y-76914380D01*
X288602142Y-76962000D01*
X288506904Y-77057238D01*
X288459285Y-77152476D01*
X288411666Y-77342952D01*
X288411666Y-77485809D01*
X288459285Y-77676285D01*
X288506904Y-77771523D01*
X288602142Y-77866761D01*
X288745000Y-77914380D01*
X288983095Y-77914380D01*
X290856095Y-74755380D02*
X290237047Y-74755380D01*
X290570380Y-75136333D01*
X290427523Y-75136333D01*
X290332285Y-75183952D01*
X290284666Y-75231571D01*
X290237047Y-75326809D01*
X290237047Y-75564904D01*
X290284666Y-75660142D01*
X290332285Y-75707761D01*
X290427523Y-75755380D01*
X290713238Y-75755380D01*
X290808476Y-75707761D01*
X290856095Y-75660142D01*
X289951333Y-74755380D02*
X289618000Y-75755380D01*
X289284666Y-74755380D01*
X289046571Y-74755380D02*
X288427523Y-74755380D01*
X288760857Y-75136333D01*
X288618000Y-75136333D01*
X288522761Y-75183952D01*
X288475142Y-75231571D01*
X288427523Y-75326809D01*
X288427523Y-75564904D01*
X288475142Y-75660142D01*
X288522761Y-75707761D01*
X288618000Y-75755380D01*
X288903714Y-75755380D01*
X288998952Y-75707761D01*
X289046571Y-75660142D01*
X258312476Y-74628380D02*
X258788666Y-74628380D01*
X258836285Y-75104571D01*
X258788666Y-75056952D01*
X258693428Y-75009333D01*
X258455333Y-75009333D01*
X258360095Y-75056952D01*
X258312476Y-75104571D01*
X258264857Y-75199809D01*
X258264857Y-75437904D01*
X258312476Y-75533142D01*
X258360095Y-75580761D01*
X258455333Y-75628380D01*
X258693428Y-75628380D01*
X258788666Y-75580761D01*
X258836285Y-75533142D01*
X257979142Y-74628380D02*
X257645809Y-75628380D01*
X257312476Y-74628380D01*
X258883904Y-77216000D02*
X258979142Y-77168380D01*
X259122000Y-77168380D01*
X259264857Y-77216000D01*
X259360095Y-77311238D01*
X259407714Y-77406476D01*
X259455333Y-77596952D01*
X259455333Y-77739809D01*
X259407714Y-77930285D01*
X259360095Y-78025523D01*
X259264857Y-78120761D01*
X259122000Y-78168380D01*
X259026761Y-78168380D01*
X258883904Y-78120761D01*
X258836285Y-78073142D01*
X258836285Y-77739809D01*
X259026761Y-77739809D01*
X258407714Y-78168380D02*
X258407714Y-77168380D01*
X257836285Y-78168380D01*
X257836285Y-77168380D01*
X257360095Y-78168380D02*
X257360095Y-77168380D01*
X257122000Y-77168380D01*
X256979142Y-77216000D01*
X256883904Y-77311238D01*
X256836285Y-77406476D01*
X256788666Y-77596952D01*
X256788666Y-77739809D01*
X256836285Y-77930285D01*
X256883904Y-78025523D01*
X256979142Y-78120761D01*
X257122000Y-78168380D01*
X257360095Y-78168380D01*
X286038095Y-80454380D02*
X286038095Y-79454380D01*
X285657142Y-79454380D01*
X285561904Y-79502000D01*
X285514285Y-79549619D01*
X285466666Y-79644857D01*
X285466666Y-79787714D01*
X285514285Y-79882952D01*
X285561904Y-79930571D01*
X285657142Y-79978190D01*
X286038095Y-79978190D01*
X284609523Y-79787714D02*
X284609523Y-80454380D01*
X284847619Y-79406761D02*
X285085714Y-80121047D01*
X284466666Y-80121047D01*
X263305095Y-80454380D02*
X263305095Y-79454380D01*
X262924142Y-79454380D01*
X262828904Y-79502000D01*
X262781285Y-79549619D01*
X262733666Y-79644857D01*
X262733666Y-79787714D01*
X262781285Y-79882952D01*
X262828904Y-79930571D01*
X262924142Y-79978190D01*
X263305095Y-79978190D01*
X262400333Y-79454380D02*
X261781285Y-79454380D01*
X262114619Y-79835333D01*
X261971761Y-79835333D01*
X261876523Y-79882952D01*
X261828904Y-79930571D01*
X261781285Y-80025809D01*
X261781285Y-80263904D01*
X261828904Y-80359142D01*
X261876523Y-80406761D01*
X261971761Y-80454380D01*
X262257476Y-80454380D01*
X262352714Y-80406761D01*
X262400333Y-80359142D01*
D11*
G36*
X260535000Y-58793000D02*
G01*
X260027000Y-57904000D01*
X261043000Y-57904000D01*
X260535000Y-58793000D01*
G37*
X260535000Y-58793000D02*
X260027000Y-57904000D01*
X261043000Y-57904000D01*
X260535000Y-58793000D01*
G36*
X283395000Y-58793000D02*
G01*
X282887000Y-57904000D01*
X283903000Y-57904000D01*
X283395000Y-58793000D01*
G37*
X283395000Y-58793000D02*
X282887000Y-57904000D01*
X283903000Y-57904000D01*
X283395000Y-58793000D01*
D12*
X275775000Y-63492000D02*
X275013000Y-63492000D01*
X275394000Y-62984000D02*
X275394000Y-64000000D01*
X273235000Y-63492000D02*
X272473000Y-63492000D01*
D13*
X289279000Y-51088000D02*
G75*
G03*
X289279000Y-51088000I-550000J0D01*
G01*
X262609000Y-36441000D02*
G75*
G03*
X262609000Y-36441000I-550000J0D01*
G01*
X291863382Y-48158779D02*
X291863382Y-46158779D01*
X291863382Y-48158779D02*
G75*
G02*
X291363382Y-48658779I-500000J0D01*
G01*
X289863382Y-48658779D02*
X291363382Y-48658779D01*
X289363382Y-49158779D02*
G75*
G02*
X289863382Y-48658779I500000J0D01*
G01*
X289363382Y-49658779D02*
X289363382Y-49158779D01*
X289863382Y-50158779D02*
G75*
G02*
X289363382Y-49658779I0J500000D01*
G01*
X291363382Y-50158779D02*
X289863382Y-50158779D01*
X291363382Y-50158779D02*
G75*
G02*
X291863382Y-50658779I0J-500000D01*
G01*
X291863382Y-52158779D02*
X291863382Y-50658779D01*
X291863382Y-52158779D02*
G75*
G02*
X291363382Y-52658779I-500000J0D01*
G01*
X289863382Y-52658779D02*
X291363382Y-52658779D01*
X289363382Y-53158779D02*
G75*
G02*
X289863382Y-52658779I500000J0D01*
G01*
X289363382Y-53658779D02*
X289363382Y-53158779D01*
X289863382Y-54158779D02*
G75*
G02*
X289363382Y-53658779I0J500000D01*
G01*
X291363382Y-54158779D02*
X289863382Y-54158779D01*
X291363382Y-54158779D02*
G75*
G02*
X291863382Y-54658779I0J-500000D01*
G01*
X291863382Y-56158779D02*
X291863382Y-54658779D01*
X291863382Y-56158779D02*
G75*
G02*
X291363382Y-56658779I-500000J0D01*
G01*
X289863382Y-56658779D02*
X291363382Y-56658779D01*
X289363382Y-57158779D02*
G75*
G02*
X289863382Y-56658779I500000J0D01*
G01*
X289363382Y-57658779D02*
X289363382Y-57158779D01*
X289863382Y-58158779D02*
G75*
G02*
X289363382Y-57658779I0J500000D01*
G01*
X291363382Y-58158779D02*
X289863382Y-58158779D01*
X291363382Y-58158779D02*
G75*
G02*
X291863382Y-58658779I0J-500000D01*
G01*
X291863382Y-60158779D02*
X291863382Y-58658779D01*
X291863382Y-60158779D02*
G75*
G02*
X291363382Y-60658779I-500000J0D01*
G01*
X289863382Y-60658779D02*
X291363382Y-60658779D01*
X289363382Y-61158779D02*
G75*
G02*
X289863382Y-60658779I500000J0D01*
G01*
X289363382Y-61658779D02*
X289363382Y-61158779D01*
X289863382Y-62158779D02*
G75*
G02*
X289363382Y-61658779I0J500000D01*
G01*
X291363382Y-62158779D02*
X289863382Y-62158779D01*
X291363382Y-62158779D02*
G75*
G02*
X291863382Y-62658779I0J-500000D01*
G01*
X291863382Y-64158779D02*
X291863382Y-62658779D01*
X291863382Y-64158779D02*
G75*
G02*
X291363382Y-64658779I-500000J0D01*
G01*
X289863382Y-64658779D02*
X291363382Y-64658779D01*
X289363382Y-65158779D02*
G75*
G02*
X289863382Y-64658779I500000J0D01*
G01*
X289363382Y-65658779D02*
X289363382Y-65158779D01*
X289863382Y-66158779D02*
G75*
G02*
X289363382Y-65658779I0J500000D01*
G01*
X290863382Y-66158779D02*
X289863382Y-66158779D01*
X290863382Y-66158779D02*
G75*
G02*
X291363382Y-66658779I0J-500000D01*
G01*
X291363382Y-67708779D02*
X291363382Y-66658779D01*
X291363382Y-67708779D02*
G75*
G02*
X290863382Y-68208779I-500000J0D01*
G01*
X288713382Y-68208779D02*
X290863382Y-68208779D01*
X288463382Y-68458779D02*
G75*
G02*
X288713382Y-68208779I250000J0D01*
G01*
X288463382Y-69008779D02*
X288463382Y-68458779D01*
X288963382Y-69008779D02*
G75*
G02*
X288463382Y-69008779I-250000J0D01*
G01*
X288963382Y-68708779D02*
X288963382Y-69008779D01*
X290863382Y-68708779D02*
X288963382Y-68708779D01*
X290863382Y-68708779D02*
G75*
G02*
X291363382Y-69208779I0J-500000D01*
G01*
X291363382Y-70608779D02*
X291363382Y-69208779D01*
X291363382Y-70608779D02*
G75*
G02*
X290863382Y-71108779I-500000J0D01*
G01*
X288963382Y-71108779D02*
X290863382Y-71108779D01*
X288963382Y-70808779D02*
X288963382Y-71108779D01*
X288463382Y-70808779D02*
G75*
G02*
X288963382Y-70808779I250000J0D01*
G01*
X288463382Y-71358779D02*
X288463382Y-70808779D01*
X288713382Y-71608779D02*
G75*
G02*
X288463382Y-71358779I0J250000D01*
G01*
X290863382Y-71608779D02*
X288713382Y-71608779D01*
X290863382Y-71608779D02*
G75*
G02*
X291363382Y-72108779I0J-500000D01*
G01*
X291363382Y-73408779D02*
X291363382Y-72108779D01*
X291530049Y-73781457D02*
G75*
G02*
X291363382Y-73408779I333333J372678D01*
G01*
X291530049Y-73781457D02*
G75*
G02*
X291863382Y-74526813I-666667J-745356D01*
G01*
X291863382Y-76408779D02*
X291863382Y-74526813D01*
X291863381Y-76408779D02*
G75*
G02*
X286736109Y-82344968I-5999999J0D01*
G01*
X286736109Y-82344968D02*
G75*
G02*
X286163382Y-81850286I-72727J494682D01*
G01*
X286163382Y-81408779D02*
X286163382Y-81850286D01*
X285663382Y-80908779D02*
G75*
G02*
X286163382Y-81408779I0J-500000D01*
G01*
X285063382Y-80908779D02*
X285663382Y-80908779D01*
X284563382Y-81408779D02*
G75*
G02*
X285063382Y-80908779I500000J0D01*
G01*
X284563382Y-81908779D02*
X284563382Y-81408779D01*
X284563382Y-81908779D02*
G75*
G02*
X284063382Y-82408779I-500000J0D01*
G01*
X282371260Y-82408779D02*
X284063382Y-82408779D01*
X282371260Y-82408779D02*
G75*
G02*
X281417321Y-81708779I0J1000000D01*
G01*
X280463382Y-81008779D02*
G75*
G02*
X281417321Y-81708779I0J-1000000D01*
G01*
X267463382Y-81008779D02*
X280463382Y-81008779D01*
X266509443Y-81708779D02*
G75*
G02*
X267463382Y-81008779I953939J-300000D01*
G01*
X266509442Y-81708779D02*
G75*
G02*
X265555503Y-82408779I-953939J300000D01*
G01*
X263863382Y-82408779D02*
X265555503Y-82408779D01*
X263863382Y-82408779D02*
G75*
G02*
X263363382Y-81908779I0J500000D01*
G01*
X263363382Y-81408779D02*
X263363382Y-81908779D01*
X262863382Y-80908779D02*
G75*
G02*
X263363382Y-81408779I0J-500000D01*
G01*
X262263382Y-80908779D02*
X262863382Y-80908779D01*
X261763382Y-81408779D02*
G75*
G02*
X262263382Y-80908779I500000J0D01*
G01*
X261763382Y-81850286D02*
X261763382Y-81408779D01*
X261763382Y-81850287D02*
G75*
G02*
X261190654Y-82344968I-500000J1D01*
G01*
X261190655Y-82344969D02*
G75*
G02*
X256063382Y-76408779I872727J5936190D01*
G01*
X256063382Y-32208779D02*
X256063382Y-76408779D01*
X256063382Y-32208779D02*
G75*
G02*
X256563382Y-31708779I500000J0D01*
G01*
X257563382Y-31708779D02*
X256563382Y-31708779D01*
X258063382Y-31208779D02*
G75*
G02*
X257563382Y-31708779I-500000J0D01*
G01*
X258063382Y-30608779D02*
X258063382Y-31208779D01*
X257563382Y-30108779D02*
G75*
G02*
X258063382Y-30608779I0J-500000D01*
G01*
X256621874Y-30108779D02*
X257563382Y-30108779D01*
X256621874Y-30108778D02*
G75*
G02*
X256127192Y-29536052I0J499999D01*
G01*
X256127192Y-29536052D02*
G75*
G02*
X261190654Y-24472589I5936190J-872727D01*
G01*
X261190655Y-24472590D02*
G75*
G02*
X261763382Y-24967272I72727J-494682D01*
G01*
X261763382Y-25158779D02*
X261763382Y-24967272D01*
X262263382Y-25658779D02*
G75*
G02*
X261763382Y-25158779I0J500000D01*
G01*
X262863382Y-25658779D02*
X262263382Y-25658779D01*
X263363382Y-25158779D02*
G75*
G02*
X262863382Y-25658779I-500000J0D01*
G01*
X263363382Y-24908779D02*
X263363382Y-25158779D01*
X263363382Y-24908779D02*
G75*
G02*
X263863382Y-24408779I500000J0D01*
G01*
X284063382Y-24408779D02*
X263863382Y-24408779D01*
X284063382Y-24408779D02*
G75*
G02*
X284563382Y-24908779I0J-500000D01*
G01*
X284563382Y-25408779D02*
X284563382Y-24908779D01*
X285063382Y-25908779D02*
G75*
G02*
X284563382Y-25408779I0J500000D01*
G01*
X285663382Y-25908779D02*
X285063382Y-25908779D01*
X286163382Y-25408779D02*
G75*
G02*
X285663382Y-25908779I-500000J0D01*
G01*
X286163382Y-24967272D02*
X286163382Y-25408779D01*
X286163382Y-24967272D02*
G75*
G02*
X286736109Y-24472589I500000J0D01*
G01*
X286736109Y-24472589D02*
G75*
G02*
X291863382Y-30408779I-872727J-5936190D01*
G01*
X291863382Y-32290745D02*
X291863382Y-30408779D01*
X291863382Y-32290746D02*
G75*
G02*
X291530048Y-33036101I-1000000J1D01*
G01*
X291363382Y-33408779D02*
G75*
G02*
X291530048Y-33036101I500000J0D01*
G01*
X291363382Y-40158779D02*
X291363382Y-33408779D01*
X291363382Y-40158779D02*
G75*
G02*
X290863382Y-40658779I-500000J0D01*
G01*
X289863382Y-40658779D02*
X290863382Y-40658779D01*
X289363382Y-41158779D02*
G75*
G02*
X289863382Y-40658779I500000J0D01*
G01*
X289363382Y-41658779D02*
X289363382Y-41158779D01*
X289863382Y-42158779D02*
G75*
G02*
X289363382Y-41658779I0J500000D01*
G01*
X291363382Y-42158779D02*
X289863382Y-42158779D01*
X291363382Y-42158779D02*
G75*
G02*
X291863382Y-42658779I0J-500000D01*
G01*
X291863382Y-44658779D02*
X291863382Y-42658779D01*
X289863382Y-44658779D02*
X291863382Y-44658779D01*
X289363382Y-45158779D02*
G75*
G02*
X289863382Y-44658779I500000J0D01*
G01*
X289363382Y-45658779D02*
X289363382Y-45158779D01*
X289863382Y-46158779D02*
G75*
G02*
X289363382Y-45658779I0J500000D01*
G01*
X291863382Y-46158779D02*
X289863382Y-46158779D01*
X289363382Y-57658779D02*
X289363382Y-57158779D01*
X289863382Y-58158779D02*
G75*
G02*
X289363382Y-57658779I0J500000D01*
G01*
X291363382Y-58158779D02*
X289863382Y-58158779D01*
X291363382Y-58158779D02*
G75*
G02*
X291863382Y-58658779I0J-500000D01*
G01*
X291863382Y-60158779D02*
X291863382Y-58658779D01*
X291863382Y-60158779D02*
G75*
G02*
X291363382Y-60658779I-500000J0D01*
G01*
X289863382Y-60658779D02*
X291363382Y-60658779D01*
X289363382Y-61158779D02*
G75*
G02*
X289863382Y-60658779I500000J0D01*
G01*
X289363382Y-61658779D02*
X289363382Y-61158779D01*
X289863382Y-62158779D02*
G75*
G02*
X289363382Y-61658779I0J500000D01*
G01*
X291363382Y-62158779D02*
X289863382Y-62158779D01*
X291363382Y-62158779D02*
G75*
G02*
X291863382Y-62658779I0J-500000D01*
G01*
X291863382Y-64158779D02*
X291863382Y-62658779D01*
X291863382Y-64158779D02*
G75*
G02*
X291363382Y-64658779I-500000J0D01*
G01*
X289863382Y-64658779D02*
X291363382Y-64658779D01*
X289363382Y-65158779D02*
G75*
G02*
X289863382Y-64658779I500000J0D01*
G01*
X289363382Y-65658779D02*
X289363382Y-65158779D01*
X289863382Y-66158779D02*
G75*
G02*
X289363382Y-65658779I0J500000D01*
G01*
X290863382Y-66158779D02*
X289863382Y-66158779D01*
X290863382Y-66158779D02*
G75*
G02*
X291363382Y-66658779I0J-500000D01*
G01*
X291363382Y-67708779D02*
X291363382Y-66658779D01*
X291363382Y-67708779D02*
G75*
G02*
X290863382Y-68208779I-500000J0D01*
G01*
X288713382Y-68208779D02*
X290863382Y-68208779D01*
X288463382Y-68458779D02*
G75*
G02*
X288713382Y-68208779I250000J0D01*
G01*
X288463382Y-69008779D02*
X288463382Y-68458779D01*
X288963382Y-69008779D02*
G75*
G02*
X288463382Y-69008779I-250000J0D01*
G01*
X288963382Y-68708779D02*
X288963382Y-69008779D01*
X290863382Y-68708779D02*
X288963382Y-68708779D01*
X290863382Y-68708779D02*
G75*
G02*
X291363382Y-69208779I0J-500000D01*
G01*
X291363382Y-70608779D02*
X291363382Y-69208779D01*
X291363382Y-70608779D02*
G75*
G02*
X290863382Y-71108779I-500000J0D01*
G01*
X288963382Y-71108779D02*
X290863382Y-71108779D01*
X288963382Y-70808779D02*
X288963382Y-71108779D01*
X288463382Y-70808779D02*
G75*
G02*
X288963382Y-70808779I250000J0D01*
G01*
X288463382Y-71358779D02*
X288463382Y-70808779D01*
X288713382Y-71608779D02*
G75*
G02*
X288463382Y-71358779I0J250000D01*
G01*
X290863382Y-71608779D02*
X288713382Y-71608779D01*
X290863382Y-71608779D02*
G75*
G02*
X291363382Y-72108779I0J-500000D01*
G01*
X291363382Y-73408779D02*
X291363382Y-72108779D01*
X291530049Y-73781457D02*
G75*
G02*
X291363382Y-73408779I333333J372678D01*
G01*
X291530049Y-73781457D02*
G75*
G02*
X291863382Y-74526813I-666667J-745356D01*
G01*
X291863382Y-76408779D02*
X291863382Y-74526813D01*
X291863381Y-76408779D02*
G75*
G02*
X286736109Y-82344968I-5999999J0D01*
G01*
X286736109Y-82344968D02*
G75*
G02*
X286163382Y-81850286I-72727J494682D01*
G01*
X286163382Y-81408779D02*
X286163382Y-81850286D01*
X285663382Y-80908779D02*
G75*
G02*
X286163382Y-81408779I0J-500000D01*
G01*
X285063382Y-80908779D02*
X285663382Y-80908779D01*
X284563382Y-81408779D02*
G75*
G02*
X285063382Y-80908779I500000J0D01*
G01*
X284563382Y-81908779D02*
X284563382Y-81408779D01*
X284563382Y-81908779D02*
G75*
G02*
X284063382Y-82408779I-500000J0D01*
G01*
X282371260Y-82408779D02*
X284063382Y-82408779D01*
X282371260Y-82408779D02*
G75*
G02*
X281417321Y-81708779I0J1000000D01*
G01*
X280463382Y-81008779D02*
G75*
G02*
X281417321Y-81708779I0J-1000000D01*
G01*
X267463382Y-81008779D02*
X280463382Y-81008779D01*
X266509443Y-81708779D02*
G75*
G02*
X267463382Y-81008779I953939J-300000D01*
G01*
X266509442Y-81708779D02*
G75*
G02*
X265555503Y-82408779I-953939J300000D01*
G01*
X263863382Y-82408779D02*
X265555503Y-82408779D01*
X263863382Y-82408779D02*
G75*
G02*
X263363382Y-81908779I0J500000D01*
G01*
X263363382Y-81408779D02*
X263363382Y-81908779D01*
X262863382Y-80908779D02*
G75*
G02*
X263363382Y-81408779I0J-500000D01*
G01*
X262263382Y-80908779D02*
X262863382Y-80908779D01*
X261763382Y-81408779D02*
G75*
G02*
X262263382Y-80908779I500000J0D01*
G01*
X261763382Y-81850286D02*
X261763382Y-81408779D01*
X261763382Y-81850287D02*
G75*
G02*
X261190654Y-82344968I-500000J1D01*
G01*
X261190655Y-82344969D02*
G75*
G02*
X256063382Y-76408779I872727J5936190D01*
G01*
X256063382Y-32208779D02*
X256063382Y-76408779D01*
X256063382Y-32208779D02*
G75*
G02*
X256563382Y-31708779I500000J0D01*
G01*
X257563382Y-31708779D02*
X256563382Y-31708779D01*
X258063382Y-31208779D02*
G75*
G02*
X257563382Y-31708779I-500000J0D01*
G01*
X258063382Y-30608779D02*
X258063382Y-31208779D01*
X257563382Y-30108779D02*
G75*
G02*
X258063382Y-30608779I0J-500000D01*
G01*
X256621874Y-30108779D02*
X257563382Y-30108779D01*
X256621874Y-30108778D02*
G75*
G02*
X256127192Y-29536052I0J499999D01*
G01*
X256127192Y-29536052D02*
G75*
G02*
X261190654Y-24472589I5936190J-872727D01*
G01*
X261190655Y-24472590D02*
G75*
G02*
X261763382Y-24967272I72727J-494682D01*
G01*
X261763382Y-25158779D02*
X261763382Y-24967272D01*
X262263382Y-25658779D02*
G75*
G02*
X261763382Y-25158779I0J500000D01*
G01*
X262863382Y-25658779D02*
X262263382Y-25658779D01*
X263363382Y-25158779D02*
G75*
G02*
X262863382Y-25658779I-500000J0D01*
G01*
X263363382Y-24908779D02*
X263363382Y-25158779D01*
X263363382Y-24908779D02*
G75*
G02*
X263863382Y-24408779I500000J0D01*
G01*
X284063382Y-24408779D02*
X263863382Y-24408779D01*
X284063382Y-24408779D02*
G75*
G02*
X284563382Y-24908779I0J-500000D01*
G01*
X284563382Y-25408779D02*
X284563382Y-24908779D01*
X285063382Y-25908779D02*
G75*
G02*
X284563382Y-25408779I0J500000D01*
G01*
X285663382Y-25908779D02*
X285063382Y-25908779D01*
X286163382Y-25408779D02*
G75*
G02*
X285663382Y-25908779I-500000J0D01*
G01*
X286163382Y-24967272D02*
X286163382Y-25408779D01*
X286163382Y-24967272D02*
G75*
G02*
X286736109Y-24472589I500000J0D01*
G01*
X286736109Y-24472589D02*
G75*
G02*
X291863382Y-30408779I-872727J-5936190D01*
G01*
X291863382Y-32290745D02*
X291863382Y-30408779D01*
X291863382Y-32290746D02*
G75*
G02*
X291530048Y-33036101I-1000000J1D01*
G01*
X291363382Y-33408779D02*
G75*
G02*
X291530048Y-33036101I500000J0D01*
G01*
X291363382Y-40158779D02*
X291363382Y-33408779D01*
X291363382Y-40158779D02*
G75*
G02*
X290863382Y-40658779I-500000J0D01*
G01*
X289863382Y-40658779D02*
X290863382Y-40658779D01*
X289363382Y-41158779D02*
G75*
G02*
X289863382Y-40658779I500000J0D01*
G01*
X289363382Y-41658779D02*
X289363382Y-41158779D01*
X289863382Y-42158779D02*
G75*
G02*
X289363382Y-41658779I0J500000D01*
G01*
X291363382Y-42158779D02*
X289863382Y-42158779D01*
X291363382Y-42158779D02*
G75*
G02*
X291863382Y-42658779I0J-500000D01*
G01*
X291863382Y-44658779D02*
X291863382Y-42658779D01*
X289863382Y-44658779D02*
X291863382Y-44658779D01*
X289363382Y-45158779D02*
G75*
G02*
X289863382Y-44658779I500000J0D01*
G01*
X289363382Y-45658779D02*
X289363382Y-45158779D01*
X289863382Y-46158779D02*
G75*
G02*
X289363382Y-45658779I0J500000D01*
G01*
X291863382Y-46158779D02*
X289863382Y-46158779D01*
X291863382Y-48158779D02*
X291863382Y-46158779D01*
X291863382Y-48158779D02*
G75*
G02*
X291363382Y-48658779I-500000J0D01*
G01*
X289863382Y-48658779D02*
X291363382Y-48658779D01*
X289363382Y-49158779D02*
G75*
G02*
X289863382Y-48658779I500000J0D01*
G01*
X289363382Y-49658779D02*
X289363382Y-49158779D01*
X289863382Y-50158779D02*
G75*
G02*
X289363382Y-49658779I0J500000D01*
G01*
X291363382Y-50158779D02*
X289863382Y-50158779D01*
X291363382Y-50158779D02*
G75*
G02*
X291863382Y-50658779I0J-500000D01*
G01*
X291863382Y-52158779D02*
X291863382Y-50658779D01*
X291863382Y-52158779D02*
G75*
G02*
X291363382Y-52658779I-500000J0D01*
G01*
X289863382Y-52658779D02*
X291363382Y-52658779D01*
X289363382Y-53158779D02*
G75*
G02*
X289863382Y-52658779I500000J0D01*
G01*
X289363382Y-53658779D02*
X289363382Y-53158779D01*
X289863382Y-54158779D02*
G75*
G02*
X289363382Y-53658779I0J500000D01*
G01*
X291363382Y-54158779D02*
X289863382Y-54158779D01*
X291363382Y-54158779D02*
G75*
G02*
X291863382Y-54658779I0J-500000D01*
G01*
X291863382Y-56158779D02*
X291863382Y-54658779D01*
X291863382Y-56158779D02*
G75*
G02*
X291363382Y-56658779I-500000J0D01*
G01*
X289863382Y-56658779D02*
X291363382Y-56658779D01*
X289363382Y-57158779D02*
G75*
G02*
X289863382Y-56658779I500000J0D01*
G01*
X286463382Y-30908779D02*
G75*
G03*
X286463382Y-30908779I-1100000J0D01*
G01*
X263663382Y-30908779D02*
G75*
G03*
X263663382Y-30908779I-1100000J0D01*
G01*
X286463382Y-30908779D02*
G75*
G03*
X286463382Y-30908779I-1100000J0D01*
G01*
X263663382Y-30908779D02*
G75*
G03*
X263663382Y-30908779I-1100000J0D01*
G01*
D14*
X286023500Y-50764000D02*
X286498500Y-50764000D01*
X286498500Y-50764000D02*
X286498500Y-50289000D01*
X279753500Y-43544000D02*
X279278500Y-43544000D01*
X279278500Y-43544000D02*
X279278500Y-44019000D01*
X286023500Y-43544000D02*
X286498500Y-43544000D01*
X286498500Y-43544000D02*
X286498500Y-44019000D01*
X279753500Y-50764000D02*
X279278500Y-50764000D01*
X288750000Y-67800000D02*
X288750000Y-66600000D01*
X290600000Y-67800000D02*
X288750000Y-67800000D01*
X290600000Y-66600000D02*
X288750000Y-66600000D01*
D10*
X275735000Y-75000000D02*
X275735000Y-76650000D01*
X277685000Y-78450000D02*
X279285000Y-78450000D01*
X281235000Y-76650000D02*
X281235000Y-75250000D01*
X279335000Y-73450000D02*
X277285000Y-73450000D01*
D15*
X279185000Y-75950000D02*
G75*
G03*
X279185000Y-75950000I-700000J0D01*
G01*
D10*
X275735000Y-75000000D02*
X277235000Y-73500000D01*
D14*
X261200000Y-59120000D02*
X259990000Y-59120000D01*
X263860000Y-78420000D02*
X263860000Y-79090000D01*
X263860000Y-73340000D02*
X263860000Y-76900000D01*
X263860000Y-68260000D02*
X263860000Y-71820000D01*
X263860000Y-63180000D02*
X263860000Y-66740000D01*
X263860000Y-58450000D02*
X263860000Y-61660000D01*
X263860000Y-79090000D02*
X261200000Y-79090000D01*
X261200000Y-75880000D02*
X261200000Y-79090000D01*
X261200000Y-70800000D02*
X261200000Y-74360000D01*
X261200000Y-65720000D02*
X261200000Y-69280000D01*
X261200000Y-60640000D02*
X261200000Y-64200000D01*
X261200000Y-58450000D02*
X261200000Y-59120000D01*
X263860000Y-58450000D02*
X261200000Y-58450000D01*
X284060000Y-65720000D02*
X284060000Y-69280000D01*
X286720000Y-79090000D02*
X284060000Y-79090000D01*
X286720000Y-68260000D02*
X286720000Y-71820000D01*
X286720000Y-58450000D02*
X286720000Y-61660000D01*
X284060000Y-70800000D02*
X284060000Y-74360000D01*
X284060000Y-75880000D02*
X284060000Y-79090000D01*
X286720000Y-58450000D02*
X284060000Y-58450000D01*
X286720000Y-63180000D02*
X286720000Y-66740000D01*
X286720000Y-73340000D02*
X286720000Y-76900000D01*
X284060000Y-59120000D02*
X282850000Y-59120000D01*
X286720000Y-78420000D02*
X286720000Y-79090000D01*
X284060000Y-58450000D02*
X284060000Y-59120000D01*
X284060000Y-60640000D02*
X284060000Y-64200000D01*
X272120000Y-61350000D02*
X272120000Y-62560000D01*
X276180000Y-58690000D02*
X276850000Y-58690000D01*
X271450000Y-58690000D02*
X274660000Y-58690000D01*
X276850000Y-58690000D02*
X276850000Y-61350000D01*
X273640000Y-61350000D02*
X276850000Y-61350000D01*
X271450000Y-61350000D02*
X272120000Y-61350000D01*
X271450000Y-58690000D02*
X271450000Y-61350000D01*
D10*
X259108569Y-38360000D02*
G75*
G03*
X259108569Y-38360000I-790569J0D01*
G01*
X258568000Y-38360000D02*
G75*
G03*
X258568000Y-38360000I-250000J0D01*
G01*
X256818000Y-39860000D02*
X259818000Y-39860000D01*
X259818000Y-39860000D02*
X259818000Y-36860000D01*
X259818000Y-36860000D02*
X256818000Y-36860000D01*
X256818000Y-36860000D02*
X256818000Y-39860000D01*
D11*
G36*
X257110000Y-45459000D02*
G01*
X257110000Y-45909000D01*
X257410000Y-45909000D01*
X257410000Y-45459000D01*
X257110000Y-45459000D01*
G37*
X257110000Y-45459000D02*
X257110000Y-45909000D01*
X257410000Y-45909000D01*
X257410000Y-45459000D01*
X257110000Y-45459000D01*
D14*
X256460000Y-45009000D02*
X258060000Y-45009000D01*
X256460000Y-48109000D02*
X256460000Y-45009000D01*
X258060000Y-48109000D02*
X256460000Y-48109000D01*
X258060000Y-45009000D02*
X258060000Y-48109000D01*
X276870000Y-49510000D02*
X276870000Y-49860000D01*
X276570000Y-49510000D02*
X276870000Y-49510000D01*
X276570000Y-49860000D02*
X276570000Y-49510000D01*
X276870000Y-49860000D02*
X276570000Y-49860000D01*
D16*
X276095000Y-50160000D02*
X277345000Y-50160000D01*
X276095000Y-48160000D02*
X276095000Y-50160000D01*
X277345000Y-48160000D02*
X276095000Y-48160000D01*
X277345000Y-50160000D02*
X277345000Y-48160000D01*
D10*
X277935000Y-61640000D02*
G75*
G03*
X277935000Y-61640000I-150000J0D01*
G01*
D15*
X279535000Y-61390000D02*
X279035000Y-61390000D01*
X279535000Y-59390000D02*
X279035000Y-59390000D01*
X278535000Y-59390000D02*
X278035000Y-59390000D01*
X278035000Y-61390000D02*
X278535000Y-61390000D01*
D14*
X282850000Y-57440000D02*
X280150000Y-57440000D01*
X282850000Y-55140000D02*
X282850000Y-57440000D01*
D17*
X267500711Y-71770000D02*
G75*
G03*
X267500711Y-71770000I-70711J0D01*
G01*
X269630000Y-71920000D02*
X267630000Y-71920000D01*
X269630000Y-74920000D02*
X269630000Y-71920000D01*
X267630000Y-74920000D02*
X269630000Y-74920000D01*
X267630000Y-71920000D02*
X267630000Y-74920000D01*
D14*
X280000000Y-54057836D02*
X280000000Y-53842164D01*
X279280000Y-54057836D02*
X279280000Y-53842164D01*
X282820000Y-54057836D02*
X282820000Y-53842164D01*
X283540000Y-54057836D02*
X283540000Y-53842164D01*
X277770000Y-55940000D02*
X276840000Y-55940000D01*
X274610000Y-55940000D02*
X275540000Y-55940000D01*
X274610000Y-55940000D02*
X274610000Y-53780000D01*
X277770000Y-55940000D02*
X277770000Y-54480000D01*
X275903641Y-53200000D02*
X275596359Y-53200000D01*
X275903641Y-52440000D02*
X275596359Y-52440000D01*
X272382752Y-32199000D02*
X269610248Y-32199000D01*
X272382752Y-35619000D02*
X269610248Y-35619000D01*
X278900000Y-33030000D02*
X278900000Y-35030000D01*
X278900000Y-35030000D02*
X275000000Y-35030000D01*
X278900000Y-33030000D02*
X275000000Y-33030000D01*
X281000000Y-53842164D02*
X281000000Y-54057836D01*
X280280000Y-53842164D02*
X280280000Y-54057836D01*
D18*
X288770000Y-36440000D02*
X261270000Y-36440000D01*
X261270000Y-51940000D02*
X261270000Y-36440000D01*
X261270000Y-51940000D02*
X288770000Y-51940000D01*
X288770000Y-51940000D02*
X288770000Y-36440000D01*
M02*
