G04 #@! TF.GenerationSoftware,KiCad,Pcbnew,(5.1.10)-1*
G04 #@! TF.CreationDate,2021-09-23T13:54:31+08:00*
G04 #@! TF.ProjectId,BeagleConnect Freedom,42656167-6c65-4436-9f6e-6e6563742046,B*
G04 #@! TF.SameCoordinates,Original*
G04 #@! TF.FileFunction,Soldermask,Bot*
G04 #@! TF.FilePolarity,Negative*
%FSLAX46Y46*%
G04 Gerber Fmt 4.6, Leading zero omitted, Abs format (unit mm)*
G04 Created by KiCad (PCBNEW (5.1.10)-1) date 2021-09-23 13:54:31*
%MOMM*%
%LPD*%
G01*
G04 APERTURE LIST*
G04 #@! TA.AperFunction,Profile*
%ADD10C,0.050000*%
G04 #@! TD*
%ADD11C,0.152400*%
%ADD12R,5.150000X5.150000*%
%ADD13R,0.600000X0.700000*%
%ADD14R,2.250000X1.700000*%
%ADD15R,1.900000X1.000000*%
%ADD16R,1.000000X1.900000*%
%ADD17R,2.200000X1.050000*%
%ADD18R,1.050000X1.000000*%
%ADD19C,0.600000*%
%ADD20O,0.900000X1.700000*%
%ADD21O,0.900000X2.000000*%
%ADD22C,0.787400*%
%ADD23C,0.990600*%
%ADD24C,0.240000*%
%ADD25R,1.600000X0.350000*%
%ADD26R,0.650000X0.350000*%
%ADD27R,0.900000X0.800000*%
%ADD28R,0.250000X0.300000*%
%ADD29C,0.100000*%
%ADD30C,0.700000*%
%ADD31C,4.400000*%
%ADD32R,0.800000X0.900000*%
%ADD33R,0.900000X1.200000*%
%ADD34C,0.900000*%
%ADD35R,0.203200X0.558800*%
%ADD36R,1.244600X0.762000*%
%ADD37R,0.500000X5.000000*%
%ADD38R,0.500000X8.000000*%
%ADD39R,8.000000X0.500000*%
G04 APERTURE END LIST*
D10*
X289279000Y-51088000D02*
G75*
G03*
X289279000Y-51088000I-550000J0D01*
G01*
X262609000Y-36441000D02*
G75*
G03*
X262609000Y-36441000I-550000J0D01*
G01*
X291863382Y-48158779D02*
X291863382Y-46158779D01*
X291863382Y-48158779D02*
G75*
G02*
X291363382Y-48658779I-500000J0D01*
G01*
X289863382Y-48658779D02*
X291363382Y-48658779D01*
X289363382Y-49158779D02*
G75*
G02*
X289863382Y-48658779I500000J0D01*
G01*
X289363382Y-49658779D02*
X289363382Y-49158779D01*
X289863382Y-50158779D02*
G75*
G02*
X289363382Y-49658779I0J500000D01*
G01*
X291363382Y-50158779D02*
X289863382Y-50158779D01*
X291363382Y-50158779D02*
G75*
G02*
X291863382Y-50658779I0J-500000D01*
G01*
X291863382Y-52158779D02*
X291863382Y-50658779D01*
X291863382Y-52158779D02*
G75*
G02*
X291363382Y-52658779I-500000J0D01*
G01*
X289863382Y-52658779D02*
X291363382Y-52658779D01*
X289363382Y-53158779D02*
G75*
G02*
X289863382Y-52658779I500000J0D01*
G01*
X289363382Y-53658779D02*
X289363382Y-53158779D01*
X289863382Y-54158779D02*
G75*
G02*
X289363382Y-53658779I0J500000D01*
G01*
X291363382Y-54158779D02*
X289863382Y-54158779D01*
X291363382Y-54158779D02*
G75*
G02*
X291863382Y-54658779I0J-500000D01*
G01*
X291863382Y-56158779D02*
X291863382Y-54658779D01*
X291863382Y-56158779D02*
G75*
G02*
X291363382Y-56658779I-500000J0D01*
G01*
X289863382Y-56658779D02*
X291363382Y-56658779D01*
X289363382Y-57158779D02*
G75*
G02*
X289863382Y-56658779I500000J0D01*
G01*
X289363382Y-57658779D02*
X289363382Y-57158779D01*
X289863382Y-58158779D02*
G75*
G02*
X289363382Y-57658779I0J500000D01*
G01*
X291363382Y-58158779D02*
X289863382Y-58158779D01*
X291363382Y-58158779D02*
G75*
G02*
X291863382Y-58658779I0J-500000D01*
G01*
X291863382Y-60158779D02*
X291863382Y-58658779D01*
X291863382Y-60158779D02*
G75*
G02*
X291363382Y-60658779I-500000J0D01*
G01*
X289863382Y-60658779D02*
X291363382Y-60658779D01*
X289363382Y-61158779D02*
G75*
G02*
X289863382Y-60658779I500000J0D01*
G01*
X289363382Y-61658779D02*
X289363382Y-61158779D01*
X289863382Y-62158779D02*
G75*
G02*
X289363382Y-61658779I0J500000D01*
G01*
X291363382Y-62158779D02*
X289863382Y-62158779D01*
X291363382Y-62158779D02*
G75*
G02*
X291863382Y-62658779I0J-500000D01*
G01*
X291863382Y-64158779D02*
X291863382Y-62658779D01*
X291863382Y-64158779D02*
G75*
G02*
X291363382Y-64658779I-500000J0D01*
G01*
X289863382Y-64658779D02*
X291363382Y-64658779D01*
X289363382Y-65158779D02*
G75*
G02*
X289863382Y-64658779I500000J0D01*
G01*
X289363382Y-65658779D02*
X289363382Y-65158779D01*
X289863382Y-66158779D02*
G75*
G02*
X289363382Y-65658779I0J500000D01*
G01*
X290863382Y-66158779D02*
X289863382Y-66158779D01*
X290863382Y-66158779D02*
G75*
G02*
X291363382Y-66658779I0J-500000D01*
G01*
X291363382Y-67708779D02*
X291363382Y-66658779D01*
X291363382Y-67708779D02*
G75*
G02*
X290863382Y-68208779I-500000J0D01*
G01*
X288713382Y-68208779D02*
X290863382Y-68208779D01*
X288463382Y-68458779D02*
G75*
G02*
X288713382Y-68208779I250000J0D01*
G01*
X288463382Y-69008779D02*
X288463382Y-68458779D01*
X288963382Y-69008779D02*
G75*
G02*
X288463382Y-69008779I-250000J0D01*
G01*
X288963382Y-68708779D02*
X288963382Y-69008779D01*
X290863382Y-68708779D02*
X288963382Y-68708779D01*
X290863382Y-68708779D02*
G75*
G02*
X291363382Y-69208779I0J-500000D01*
G01*
X291363382Y-70608779D02*
X291363382Y-69208779D01*
X291363382Y-70608779D02*
G75*
G02*
X290863382Y-71108779I-500000J0D01*
G01*
X288963382Y-71108779D02*
X290863382Y-71108779D01*
X288963382Y-70808779D02*
X288963382Y-71108779D01*
X288463382Y-70808779D02*
G75*
G02*
X288963382Y-70808779I250000J0D01*
G01*
X288463382Y-71358779D02*
X288463382Y-70808779D01*
X288713382Y-71608779D02*
G75*
G02*
X288463382Y-71358779I0J250000D01*
G01*
X290863382Y-71608779D02*
X288713382Y-71608779D01*
X290863382Y-71608779D02*
G75*
G02*
X291363382Y-72108779I0J-500000D01*
G01*
X291363382Y-73408779D02*
X291363382Y-72108779D01*
X291530049Y-73781457D02*
G75*
G02*
X291363382Y-73408779I333333J372678D01*
G01*
X291530049Y-73781457D02*
G75*
G02*
X291863382Y-74526813I-666667J-745356D01*
G01*
X291863382Y-76408779D02*
X291863382Y-74526813D01*
X291863381Y-76408779D02*
G75*
G02*
X286736109Y-82344968I-5999999J0D01*
G01*
X286736109Y-82344968D02*
G75*
G02*
X286163382Y-81850286I-72727J494682D01*
G01*
X286163382Y-81408779D02*
X286163382Y-81850286D01*
X285663382Y-80908779D02*
G75*
G02*
X286163382Y-81408779I0J-500000D01*
G01*
X285063382Y-80908779D02*
X285663382Y-80908779D01*
X284563382Y-81408779D02*
G75*
G02*
X285063382Y-80908779I500000J0D01*
G01*
X284563382Y-81908779D02*
X284563382Y-81408779D01*
X284563382Y-81908779D02*
G75*
G02*
X284063382Y-82408779I-500000J0D01*
G01*
X282371260Y-82408779D02*
X284063382Y-82408779D01*
X282371260Y-82408779D02*
G75*
G02*
X281417321Y-81708779I0J1000000D01*
G01*
X280463382Y-81008779D02*
G75*
G02*
X281417321Y-81708779I0J-1000000D01*
G01*
X267463382Y-81008779D02*
X280463382Y-81008779D01*
X266509443Y-81708779D02*
G75*
G02*
X267463382Y-81008779I953939J-300000D01*
G01*
X266509442Y-81708779D02*
G75*
G02*
X265555503Y-82408779I-953939J300000D01*
G01*
X263863382Y-82408779D02*
X265555503Y-82408779D01*
X263863382Y-82408779D02*
G75*
G02*
X263363382Y-81908779I0J500000D01*
G01*
X263363382Y-81408779D02*
X263363382Y-81908779D01*
X262863382Y-80908779D02*
G75*
G02*
X263363382Y-81408779I0J-500000D01*
G01*
X262263382Y-80908779D02*
X262863382Y-80908779D01*
X261763382Y-81408779D02*
G75*
G02*
X262263382Y-80908779I500000J0D01*
G01*
X261763382Y-81850286D02*
X261763382Y-81408779D01*
X261763382Y-81850287D02*
G75*
G02*
X261190654Y-82344968I-500000J1D01*
G01*
X261190655Y-82344969D02*
G75*
G02*
X256063382Y-76408779I872727J5936190D01*
G01*
X256063382Y-32208779D02*
X256063382Y-76408779D01*
X256063382Y-32208779D02*
G75*
G02*
X256563382Y-31708779I500000J0D01*
G01*
X257563382Y-31708779D02*
X256563382Y-31708779D01*
X258063382Y-31208779D02*
G75*
G02*
X257563382Y-31708779I-500000J0D01*
G01*
X258063382Y-30608779D02*
X258063382Y-31208779D01*
X257563382Y-30108779D02*
G75*
G02*
X258063382Y-30608779I0J-500000D01*
G01*
X256621874Y-30108779D02*
X257563382Y-30108779D01*
X256621874Y-30108778D02*
G75*
G02*
X256127192Y-29536052I0J499999D01*
G01*
X256127192Y-29536052D02*
G75*
G02*
X261190654Y-24472589I5936190J-872727D01*
G01*
X261190655Y-24472590D02*
G75*
G02*
X261763382Y-24967272I72727J-494682D01*
G01*
X261763382Y-25158779D02*
X261763382Y-24967272D01*
X262263382Y-25658779D02*
G75*
G02*
X261763382Y-25158779I0J500000D01*
G01*
X262863382Y-25658779D02*
X262263382Y-25658779D01*
X263363382Y-25158779D02*
G75*
G02*
X262863382Y-25658779I-500000J0D01*
G01*
X263363382Y-24908779D02*
X263363382Y-25158779D01*
X263363382Y-24908779D02*
G75*
G02*
X263863382Y-24408779I500000J0D01*
G01*
X284063382Y-24408779D02*
X263863382Y-24408779D01*
X284063382Y-24408779D02*
G75*
G02*
X284563382Y-24908779I0J-500000D01*
G01*
X284563382Y-25408779D02*
X284563382Y-24908779D01*
X285063382Y-25908779D02*
G75*
G02*
X284563382Y-25408779I0J500000D01*
G01*
X285663382Y-25908779D02*
X285063382Y-25908779D01*
X286163382Y-25408779D02*
G75*
G02*
X285663382Y-25908779I-500000J0D01*
G01*
X286163382Y-24967272D02*
X286163382Y-25408779D01*
X286163382Y-24967272D02*
G75*
G02*
X286736109Y-24472589I500000J0D01*
G01*
X286736109Y-24472589D02*
G75*
G02*
X291863382Y-30408779I-872727J-5936190D01*
G01*
X291863382Y-32290745D02*
X291863382Y-30408779D01*
X291863382Y-32290746D02*
G75*
G02*
X291530048Y-33036101I-1000000J1D01*
G01*
X291363382Y-33408779D02*
G75*
G02*
X291530048Y-33036101I500000J0D01*
G01*
X291363382Y-40158779D02*
X291363382Y-33408779D01*
X291363382Y-40158779D02*
G75*
G02*
X290863382Y-40658779I-500000J0D01*
G01*
X289863382Y-40658779D02*
X290863382Y-40658779D01*
X289363382Y-41158779D02*
G75*
G02*
X289863382Y-40658779I500000J0D01*
G01*
X289363382Y-41658779D02*
X289363382Y-41158779D01*
X289863382Y-42158779D02*
G75*
G02*
X289363382Y-41658779I0J500000D01*
G01*
X291363382Y-42158779D02*
X289863382Y-42158779D01*
X291363382Y-42158779D02*
G75*
G02*
X291863382Y-42658779I0J-500000D01*
G01*
X291863382Y-44658779D02*
X291863382Y-42658779D01*
X289863382Y-44658779D02*
X291863382Y-44658779D01*
X289363382Y-45158779D02*
G75*
G02*
X289863382Y-44658779I500000J0D01*
G01*
X289363382Y-45658779D02*
X289363382Y-45158779D01*
X289863382Y-46158779D02*
G75*
G02*
X289363382Y-45658779I0J500000D01*
G01*
X291863382Y-46158779D02*
X289863382Y-46158779D01*
X289363382Y-57658779D02*
X289363382Y-57158779D01*
X289863382Y-58158779D02*
G75*
G02*
X289363382Y-57658779I0J500000D01*
G01*
X291363382Y-58158779D02*
X289863382Y-58158779D01*
X291363382Y-58158779D02*
G75*
G02*
X291863382Y-58658779I0J-500000D01*
G01*
X291863382Y-60158779D02*
X291863382Y-58658779D01*
X291863382Y-60158779D02*
G75*
G02*
X291363382Y-60658779I-500000J0D01*
G01*
X289863382Y-60658779D02*
X291363382Y-60658779D01*
X289363382Y-61158779D02*
G75*
G02*
X289863382Y-60658779I500000J0D01*
G01*
X289363382Y-61658779D02*
X289363382Y-61158779D01*
X289863382Y-62158779D02*
G75*
G02*
X289363382Y-61658779I0J500000D01*
G01*
X291363382Y-62158779D02*
X289863382Y-62158779D01*
X291363382Y-62158779D02*
G75*
G02*
X291863382Y-62658779I0J-500000D01*
G01*
X291863382Y-64158779D02*
X291863382Y-62658779D01*
X291863382Y-64158779D02*
G75*
G02*
X291363382Y-64658779I-500000J0D01*
G01*
X289863382Y-64658779D02*
X291363382Y-64658779D01*
X289363382Y-65158779D02*
G75*
G02*
X289863382Y-64658779I500000J0D01*
G01*
X289363382Y-65658779D02*
X289363382Y-65158779D01*
X289863382Y-66158779D02*
G75*
G02*
X289363382Y-65658779I0J500000D01*
G01*
X290863382Y-66158779D02*
X289863382Y-66158779D01*
X290863382Y-66158779D02*
G75*
G02*
X291363382Y-66658779I0J-500000D01*
G01*
X291363382Y-67708779D02*
X291363382Y-66658779D01*
X291363382Y-67708779D02*
G75*
G02*
X290863382Y-68208779I-500000J0D01*
G01*
X288713382Y-68208779D02*
X290863382Y-68208779D01*
X288463382Y-68458779D02*
G75*
G02*
X288713382Y-68208779I250000J0D01*
G01*
X288463382Y-69008779D02*
X288463382Y-68458779D01*
X288963382Y-69008779D02*
G75*
G02*
X288463382Y-69008779I-250000J0D01*
G01*
X288963382Y-68708779D02*
X288963382Y-69008779D01*
X290863382Y-68708779D02*
X288963382Y-68708779D01*
X290863382Y-68708779D02*
G75*
G02*
X291363382Y-69208779I0J-500000D01*
G01*
X291363382Y-70608779D02*
X291363382Y-69208779D01*
X291363382Y-70608779D02*
G75*
G02*
X290863382Y-71108779I-500000J0D01*
G01*
X288963382Y-71108779D02*
X290863382Y-71108779D01*
X288963382Y-70808779D02*
X288963382Y-71108779D01*
X288463382Y-70808779D02*
G75*
G02*
X288963382Y-70808779I250000J0D01*
G01*
X288463382Y-71358779D02*
X288463382Y-70808779D01*
X288713382Y-71608779D02*
G75*
G02*
X288463382Y-71358779I0J250000D01*
G01*
X290863382Y-71608779D02*
X288713382Y-71608779D01*
X290863382Y-71608779D02*
G75*
G02*
X291363382Y-72108779I0J-500000D01*
G01*
X291363382Y-73408779D02*
X291363382Y-72108779D01*
X291530049Y-73781457D02*
G75*
G02*
X291363382Y-73408779I333333J372678D01*
G01*
X291530049Y-73781457D02*
G75*
G02*
X291863382Y-74526813I-666667J-745356D01*
G01*
X291863382Y-76408779D02*
X291863382Y-74526813D01*
X291863381Y-76408779D02*
G75*
G02*
X286736109Y-82344968I-5999999J0D01*
G01*
X286736109Y-82344968D02*
G75*
G02*
X286163382Y-81850286I-72727J494682D01*
G01*
X286163382Y-81408779D02*
X286163382Y-81850286D01*
X285663382Y-80908779D02*
G75*
G02*
X286163382Y-81408779I0J-500000D01*
G01*
X285063382Y-80908779D02*
X285663382Y-80908779D01*
X284563382Y-81408779D02*
G75*
G02*
X285063382Y-80908779I500000J0D01*
G01*
X284563382Y-81908779D02*
X284563382Y-81408779D01*
X284563382Y-81908779D02*
G75*
G02*
X284063382Y-82408779I-500000J0D01*
G01*
X282371260Y-82408779D02*
X284063382Y-82408779D01*
X282371260Y-82408779D02*
G75*
G02*
X281417321Y-81708779I0J1000000D01*
G01*
X280463382Y-81008779D02*
G75*
G02*
X281417321Y-81708779I0J-1000000D01*
G01*
X267463382Y-81008779D02*
X280463382Y-81008779D01*
X266509443Y-81708779D02*
G75*
G02*
X267463382Y-81008779I953939J-300000D01*
G01*
X266509442Y-81708779D02*
G75*
G02*
X265555503Y-82408779I-953939J300000D01*
G01*
X263863382Y-82408779D02*
X265555503Y-82408779D01*
X263863382Y-82408779D02*
G75*
G02*
X263363382Y-81908779I0J500000D01*
G01*
X263363382Y-81408779D02*
X263363382Y-81908779D01*
X262863382Y-80908779D02*
G75*
G02*
X263363382Y-81408779I0J-500000D01*
G01*
X262263382Y-80908779D02*
X262863382Y-80908779D01*
X261763382Y-81408779D02*
G75*
G02*
X262263382Y-80908779I500000J0D01*
G01*
X261763382Y-81850286D02*
X261763382Y-81408779D01*
X261763382Y-81850287D02*
G75*
G02*
X261190654Y-82344968I-500000J1D01*
G01*
X261190655Y-82344969D02*
G75*
G02*
X256063382Y-76408779I872727J5936190D01*
G01*
X256063382Y-32208779D02*
X256063382Y-76408779D01*
X256063382Y-32208779D02*
G75*
G02*
X256563382Y-31708779I500000J0D01*
G01*
X257563382Y-31708779D02*
X256563382Y-31708779D01*
X258063382Y-31208779D02*
G75*
G02*
X257563382Y-31708779I-500000J0D01*
G01*
X258063382Y-30608779D02*
X258063382Y-31208779D01*
X257563382Y-30108779D02*
G75*
G02*
X258063382Y-30608779I0J-500000D01*
G01*
X256621874Y-30108779D02*
X257563382Y-30108779D01*
X256621874Y-30108778D02*
G75*
G02*
X256127192Y-29536052I0J499999D01*
G01*
X256127192Y-29536052D02*
G75*
G02*
X261190654Y-24472589I5936190J-872727D01*
G01*
X261190655Y-24472590D02*
G75*
G02*
X261763382Y-24967272I72727J-494682D01*
G01*
X261763382Y-25158779D02*
X261763382Y-24967272D01*
X262263382Y-25658779D02*
G75*
G02*
X261763382Y-25158779I0J500000D01*
G01*
X262863382Y-25658779D02*
X262263382Y-25658779D01*
X263363382Y-25158779D02*
G75*
G02*
X262863382Y-25658779I-500000J0D01*
G01*
X263363382Y-24908779D02*
X263363382Y-25158779D01*
X263363382Y-24908779D02*
G75*
G02*
X263863382Y-24408779I500000J0D01*
G01*
X284063382Y-24408779D02*
X263863382Y-24408779D01*
X284063382Y-24408779D02*
G75*
G02*
X284563382Y-24908779I0J-500000D01*
G01*
X284563382Y-25408779D02*
X284563382Y-24908779D01*
X285063382Y-25908779D02*
G75*
G02*
X284563382Y-25408779I0J500000D01*
G01*
X285663382Y-25908779D02*
X285063382Y-25908779D01*
X286163382Y-25408779D02*
G75*
G02*
X285663382Y-25908779I-500000J0D01*
G01*
X286163382Y-24967272D02*
X286163382Y-25408779D01*
X286163382Y-24967272D02*
G75*
G02*
X286736109Y-24472589I500000J0D01*
G01*
X286736109Y-24472589D02*
G75*
G02*
X291863382Y-30408779I-872727J-5936190D01*
G01*
X291863382Y-32290745D02*
X291863382Y-30408779D01*
X291863382Y-32290746D02*
G75*
G02*
X291530048Y-33036101I-1000000J1D01*
G01*
X291363382Y-33408779D02*
G75*
G02*
X291530048Y-33036101I500000J0D01*
G01*
X291363382Y-40158779D02*
X291363382Y-33408779D01*
X291363382Y-40158779D02*
G75*
G02*
X290863382Y-40658779I-500000J0D01*
G01*
X289863382Y-40658779D02*
X290863382Y-40658779D01*
X289363382Y-41158779D02*
G75*
G02*
X289863382Y-40658779I500000J0D01*
G01*
X289363382Y-41658779D02*
X289363382Y-41158779D01*
X289863382Y-42158779D02*
G75*
G02*
X289363382Y-41658779I0J500000D01*
G01*
X291363382Y-42158779D02*
X289863382Y-42158779D01*
X291363382Y-42158779D02*
G75*
G02*
X291863382Y-42658779I0J-500000D01*
G01*
X291863382Y-44658779D02*
X291863382Y-42658779D01*
X289863382Y-44658779D02*
X291863382Y-44658779D01*
X289363382Y-45158779D02*
G75*
G02*
X289863382Y-44658779I500000J0D01*
G01*
X289363382Y-45658779D02*
X289363382Y-45158779D01*
X289863382Y-46158779D02*
G75*
G02*
X289363382Y-45658779I0J500000D01*
G01*
X291863382Y-46158779D02*
X289863382Y-46158779D01*
X291863382Y-48158779D02*
X291863382Y-46158779D01*
X291863382Y-48158779D02*
G75*
G02*
X291363382Y-48658779I-500000J0D01*
G01*
X289863382Y-48658779D02*
X291363382Y-48658779D01*
X289363382Y-49158779D02*
G75*
G02*
X289863382Y-48658779I500000J0D01*
G01*
X289363382Y-49658779D02*
X289363382Y-49158779D01*
X289863382Y-50158779D02*
G75*
G02*
X289363382Y-49658779I0J500000D01*
G01*
X291363382Y-50158779D02*
X289863382Y-50158779D01*
X291363382Y-50158779D02*
G75*
G02*
X291863382Y-50658779I0J-500000D01*
G01*
X291863382Y-52158779D02*
X291863382Y-50658779D01*
X291863382Y-52158779D02*
G75*
G02*
X291363382Y-52658779I-500000J0D01*
G01*
X289863382Y-52658779D02*
X291363382Y-52658779D01*
X289363382Y-53158779D02*
G75*
G02*
X289863382Y-52658779I500000J0D01*
G01*
X289363382Y-53658779D02*
X289363382Y-53158779D01*
X289863382Y-54158779D02*
G75*
G02*
X289363382Y-53658779I0J500000D01*
G01*
X291363382Y-54158779D02*
X289863382Y-54158779D01*
X291363382Y-54158779D02*
G75*
G02*
X291863382Y-54658779I0J-500000D01*
G01*
X291863382Y-56158779D02*
X291863382Y-54658779D01*
X291863382Y-56158779D02*
G75*
G02*
X291363382Y-56658779I-500000J0D01*
G01*
X289863382Y-56658779D02*
X291363382Y-56658779D01*
X289363382Y-57158779D02*
G75*
G02*
X289863382Y-56658779I500000J0D01*
G01*
X286463382Y-30908779D02*
G75*
G03*
X286463382Y-30908779I-1100000J0D01*
G01*
X263663382Y-30908779D02*
G75*
G03*
X263663382Y-30908779I-1100000J0D01*
G01*
X286463382Y-30908779D02*
G75*
G03*
X286463382Y-30908779I-1100000J0D01*
G01*
X263663382Y-30908779D02*
G75*
G03*
X263663382Y-30908779I-1100000J0D01*
G01*
D11*
X268677700Y-39058400D02*
X268626900Y-39058400D01*
X268626900Y-39058400D02*
X268626900Y-39160000D01*
X268626900Y-39160000D02*
X268677700Y-39160000D01*
X268677700Y-39160000D02*
X268677700Y-39058400D01*
X268677700Y-39261600D02*
X268626900Y-39261600D01*
X268626900Y-39261600D02*
X268626900Y-39160000D01*
X268626900Y-39160000D02*
X268677700Y-39160000D01*
X268677700Y-39160000D02*
X268677700Y-39261600D01*
X269922300Y-39058400D02*
X269973100Y-39058400D01*
X269973100Y-39058400D02*
X269973100Y-39160000D01*
X269973100Y-39160000D02*
X269922300Y-39160000D01*
X269922300Y-39160000D02*
X269922300Y-39058400D01*
X269922300Y-39261600D02*
X269973100Y-39261600D01*
X269973100Y-39261600D02*
X269973100Y-39160000D01*
X269973100Y-39160000D02*
X269922300Y-39160000D01*
X269922300Y-39160000D02*
X269922300Y-39261600D01*
D12*
X282888500Y-47154000D03*
G36*
G01*
X280013500Y-50966500D02*
X280013500Y-50216500D01*
G75*
G02*
X280076000Y-50154000I62500J0D01*
G01*
X280201000Y-50154000D01*
G75*
G02*
X280263500Y-50216500I0J-62500D01*
G01*
X280263500Y-50966500D01*
G75*
G02*
X280201000Y-51029000I-62500J0D01*
G01*
X280076000Y-51029000D01*
G75*
G02*
X280013500Y-50966500I0J62500D01*
G01*
G37*
G36*
G01*
X280513500Y-50966500D02*
X280513500Y-50216500D01*
G75*
G02*
X280576000Y-50154000I62500J0D01*
G01*
X280701000Y-50154000D01*
G75*
G02*
X280763500Y-50216500I0J-62500D01*
G01*
X280763500Y-50966500D01*
G75*
G02*
X280701000Y-51029000I-62500J0D01*
G01*
X280576000Y-51029000D01*
G75*
G02*
X280513500Y-50966500I0J62500D01*
G01*
G37*
G36*
G01*
X281013500Y-50966500D02*
X281013500Y-50216500D01*
G75*
G02*
X281076000Y-50154000I62500J0D01*
G01*
X281201000Y-50154000D01*
G75*
G02*
X281263500Y-50216500I0J-62500D01*
G01*
X281263500Y-50966500D01*
G75*
G02*
X281201000Y-51029000I-62500J0D01*
G01*
X281076000Y-51029000D01*
G75*
G02*
X281013500Y-50966500I0J62500D01*
G01*
G37*
G36*
G01*
X281513500Y-50966500D02*
X281513500Y-50216500D01*
G75*
G02*
X281576000Y-50154000I62500J0D01*
G01*
X281701000Y-50154000D01*
G75*
G02*
X281763500Y-50216500I0J-62500D01*
G01*
X281763500Y-50966500D01*
G75*
G02*
X281701000Y-51029000I-62500J0D01*
G01*
X281576000Y-51029000D01*
G75*
G02*
X281513500Y-50966500I0J62500D01*
G01*
G37*
G36*
G01*
X282013500Y-50966500D02*
X282013500Y-50216500D01*
G75*
G02*
X282076000Y-50154000I62500J0D01*
G01*
X282201000Y-50154000D01*
G75*
G02*
X282263500Y-50216500I0J-62500D01*
G01*
X282263500Y-50966500D01*
G75*
G02*
X282201000Y-51029000I-62500J0D01*
G01*
X282076000Y-51029000D01*
G75*
G02*
X282013500Y-50966500I0J62500D01*
G01*
G37*
G36*
G01*
X282513500Y-50966500D02*
X282513500Y-50216500D01*
G75*
G02*
X282576000Y-50154000I62500J0D01*
G01*
X282701000Y-50154000D01*
G75*
G02*
X282763500Y-50216500I0J-62500D01*
G01*
X282763500Y-50966500D01*
G75*
G02*
X282701000Y-51029000I-62500J0D01*
G01*
X282576000Y-51029000D01*
G75*
G02*
X282513500Y-50966500I0J62500D01*
G01*
G37*
G36*
G01*
X283013500Y-50966500D02*
X283013500Y-50216500D01*
G75*
G02*
X283076000Y-50154000I62500J0D01*
G01*
X283201000Y-50154000D01*
G75*
G02*
X283263500Y-50216500I0J-62500D01*
G01*
X283263500Y-50966500D01*
G75*
G02*
X283201000Y-51029000I-62500J0D01*
G01*
X283076000Y-51029000D01*
G75*
G02*
X283013500Y-50966500I0J62500D01*
G01*
G37*
G36*
G01*
X283513500Y-50966500D02*
X283513500Y-50216500D01*
G75*
G02*
X283576000Y-50154000I62500J0D01*
G01*
X283701000Y-50154000D01*
G75*
G02*
X283763500Y-50216500I0J-62500D01*
G01*
X283763500Y-50966500D01*
G75*
G02*
X283701000Y-51029000I-62500J0D01*
G01*
X283576000Y-51029000D01*
G75*
G02*
X283513500Y-50966500I0J62500D01*
G01*
G37*
G36*
G01*
X284013500Y-50966500D02*
X284013500Y-50216500D01*
G75*
G02*
X284076000Y-50154000I62500J0D01*
G01*
X284201000Y-50154000D01*
G75*
G02*
X284263500Y-50216500I0J-62500D01*
G01*
X284263500Y-50966500D01*
G75*
G02*
X284201000Y-51029000I-62500J0D01*
G01*
X284076000Y-51029000D01*
G75*
G02*
X284013500Y-50966500I0J62500D01*
G01*
G37*
G36*
G01*
X284513500Y-50966500D02*
X284513500Y-50216500D01*
G75*
G02*
X284576000Y-50154000I62500J0D01*
G01*
X284701000Y-50154000D01*
G75*
G02*
X284763500Y-50216500I0J-62500D01*
G01*
X284763500Y-50966500D01*
G75*
G02*
X284701000Y-51029000I-62500J0D01*
G01*
X284576000Y-51029000D01*
G75*
G02*
X284513500Y-50966500I0J62500D01*
G01*
G37*
G36*
G01*
X285013500Y-50966500D02*
X285013500Y-50216500D01*
G75*
G02*
X285076000Y-50154000I62500J0D01*
G01*
X285201000Y-50154000D01*
G75*
G02*
X285263500Y-50216500I0J-62500D01*
G01*
X285263500Y-50966500D01*
G75*
G02*
X285201000Y-51029000I-62500J0D01*
G01*
X285076000Y-51029000D01*
G75*
G02*
X285013500Y-50966500I0J62500D01*
G01*
G37*
G36*
G01*
X285513500Y-50966500D02*
X285513500Y-50216500D01*
G75*
G02*
X285576000Y-50154000I62500J0D01*
G01*
X285701000Y-50154000D01*
G75*
G02*
X285763500Y-50216500I0J-62500D01*
G01*
X285763500Y-50966500D01*
G75*
G02*
X285701000Y-51029000I-62500J0D01*
G01*
X285576000Y-51029000D01*
G75*
G02*
X285513500Y-50966500I0J62500D01*
G01*
G37*
G36*
G01*
X285888500Y-49966500D02*
X285888500Y-49841500D01*
G75*
G02*
X285951000Y-49779000I62500J0D01*
G01*
X286701000Y-49779000D01*
G75*
G02*
X286763500Y-49841500I0J-62500D01*
G01*
X286763500Y-49966500D01*
G75*
G02*
X286701000Y-50029000I-62500J0D01*
G01*
X285951000Y-50029000D01*
G75*
G02*
X285888500Y-49966500I0J62500D01*
G01*
G37*
G36*
G01*
X285888500Y-49466500D02*
X285888500Y-49341500D01*
G75*
G02*
X285951000Y-49279000I62500J0D01*
G01*
X286701000Y-49279000D01*
G75*
G02*
X286763500Y-49341500I0J-62500D01*
G01*
X286763500Y-49466500D01*
G75*
G02*
X286701000Y-49529000I-62500J0D01*
G01*
X285951000Y-49529000D01*
G75*
G02*
X285888500Y-49466500I0J62500D01*
G01*
G37*
G36*
G01*
X285888500Y-48966500D02*
X285888500Y-48841500D01*
G75*
G02*
X285951000Y-48779000I62500J0D01*
G01*
X286701000Y-48779000D01*
G75*
G02*
X286763500Y-48841500I0J-62500D01*
G01*
X286763500Y-48966500D01*
G75*
G02*
X286701000Y-49029000I-62500J0D01*
G01*
X285951000Y-49029000D01*
G75*
G02*
X285888500Y-48966500I0J62500D01*
G01*
G37*
G36*
G01*
X285888500Y-48466500D02*
X285888500Y-48341500D01*
G75*
G02*
X285951000Y-48279000I62500J0D01*
G01*
X286701000Y-48279000D01*
G75*
G02*
X286763500Y-48341500I0J-62500D01*
G01*
X286763500Y-48466500D01*
G75*
G02*
X286701000Y-48529000I-62500J0D01*
G01*
X285951000Y-48529000D01*
G75*
G02*
X285888500Y-48466500I0J62500D01*
G01*
G37*
G36*
G01*
X285888500Y-47966500D02*
X285888500Y-47841500D01*
G75*
G02*
X285951000Y-47779000I62500J0D01*
G01*
X286701000Y-47779000D01*
G75*
G02*
X286763500Y-47841500I0J-62500D01*
G01*
X286763500Y-47966500D01*
G75*
G02*
X286701000Y-48029000I-62500J0D01*
G01*
X285951000Y-48029000D01*
G75*
G02*
X285888500Y-47966500I0J62500D01*
G01*
G37*
G36*
G01*
X285888500Y-47466500D02*
X285888500Y-47341500D01*
G75*
G02*
X285951000Y-47279000I62500J0D01*
G01*
X286701000Y-47279000D01*
G75*
G02*
X286763500Y-47341500I0J-62500D01*
G01*
X286763500Y-47466500D01*
G75*
G02*
X286701000Y-47529000I-62500J0D01*
G01*
X285951000Y-47529000D01*
G75*
G02*
X285888500Y-47466500I0J62500D01*
G01*
G37*
G36*
G01*
X285888500Y-46966500D02*
X285888500Y-46841500D01*
G75*
G02*
X285951000Y-46779000I62500J0D01*
G01*
X286701000Y-46779000D01*
G75*
G02*
X286763500Y-46841500I0J-62500D01*
G01*
X286763500Y-46966500D01*
G75*
G02*
X286701000Y-47029000I-62500J0D01*
G01*
X285951000Y-47029000D01*
G75*
G02*
X285888500Y-46966500I0J62500D01*
G01*
G37*
G36*
G01*
X285888500Y-46466500D02*
X285888500Y-46341500D01*
G75*
G02*
X285951000Y-46279000I62500J0D01*
G01*
X286701000Y-46279000D01*
G75*
G02*
X286763500Y-46341500I0J-62500D01*
G01*
X286763500Y-46466500D01*
G75*
G02*
X286701000Y-46529000I-62500J0D01*
G01*
X285951000Y-46529000D01*
G75*
G02*
X285888500Y-46466500I0J62500D01*
G01*
G37*
G36*
G01*
X285888500Y-45966500D02*
X285888500Y-45841500D01*
G75*
G02*
X285951000Y-45779000I62500J0D01*
G01*
X286701000Y-45779000D01*
G75*
G02*
X286763500Y-45841500I0J-62500D01*
G01*
X286763500Y-45966500D01*
G75*
G02*
X286701000Y-46029000I-62500J0D01*
G01*
X285951000Y-46029000D01*
G75*
G02*
X285888500Y-45966500I0J62500D01*
G01*
G37*
G36*
G01*
X285888500Y-45466500D02*
X285888500Y-45341500D01*
G75*
G02*
X285951000Y-45279000I62500J0D01*
G01*
X286701000Y-45279000D01*
G75*
G02*
X286763500Y-45341500I0J-62500D01*
G01*
X286763500Y-45466500D01*
G75*
G02*
X286701000Y-45529000I-62500J0D01*
G01*
X285951000Y-45529000D01*
G75*
G02*
X285888500Y-45466500I0J62500D01*
G01*
G37*
G36*
G01*
X285888500Y-44966500D02*
X285888500Y-44841500D01*
G75*
G02*
X285951000Y-44779000I62500J0D01*
G01*
X286701000Y-44779000D01*
G75*
G02*
X286763500Y-44841500I0J-62500D01*
G01*
X286763500Y-44966500D01*
G75*
G02*
X286701000Y-45029000I-62500J0D01*
G01*
X285951000Y-45029000D01*
G75*
G02*
X285888500Y-44966500I0J62500D01*
G01*
G37*
G36*
G01*
X285888500Y-44466500D02*
X285888500Y-44341500D01*
G75*
G02*
X285951000Y-44279000I62500J0D01*
G01*
X286701000Y-44279000D01*
G75*
G02*
X286763500Y-44341500I0J-62500D01*
G01*
X286763500Y-44466500D01*
G75*
G02*
X286701000Y-44529000I-62500J0D01*
G01*
X285951000Y-44529000D01*
G75*
G02*
X285888500Y-44466500I0J62500D01*
G01*
G37*
G36*
G01*
X285513500Y-44091500D02*
X285513500Y-43341500D01*
G75*
G02*
X285576000Y-43279000I62500J0D01*
G01*
X285701000Y-43279000D01*
G75*
G02*
X285763500Y-43341500I0J-62500D01*
G01*
X285763500Y-44091500D01*
G75*
G02*
X285701000Y-44154000I-62500J0D01*
G01*
X285576000Y-44154000D01*
G75*
G02*
X285513500Y-44091500I0J62500D01*
G01*
G37*
G36*
G01*
X285013500Y-44091500D02*
X285013500Y-43341500D01*
G75*
G02*
X285076000Y-43279000I62500J0D01*
G01*
X285201000Y-43279000D01*
G75*
G02*
X285263500Y-43341500I0J-62500D01*
G01*
X285263500Y-44091500D01*
G75*
G02*
X285201000Y-44154000I-62500J0D01*
G01*
X285076000Y-44154000D01*
G75*
G02*
X285013500Y-44091500I0J62500D01*
G01*
G37*
G36*
G01*
X284513500Y-44091500D02*
X284513500Y-43341500D01*
G75*
G02*
X284576000Y-43279000I62500J0D01*
G01*
X284701000Y-43279000D01*
G75*
G02*
X284763500Y-43341500I0J-62500D01*
G01*
X284763500Y-44091500D01*
G75*
G02*
X284701000Y-44154000I-62500J0D01*
G01*
X284576000Y-44154000D01*
G75*
G02*
X284513500Y-44091500I0J62500D01*
G01*
G37*
G36*
G01*
X284013500Y-44091500D02*
X284013500Y-43341500D01*
G75*
G02*
X284076000Y-43279000I62500J0D01*
G01*
X284201000Y-43279000D01*
G75*
G02*
X284263500Y-43341500I0J-62500D01*
G01*
X284263500Y-44091500D01*
G75*
G02*
X284201000Y-44154000I-62500J0D01*
G01*
X284076000Y-44154000D01*
G75*
G02*
X284013500Y-44091500I0J62500D01*
G01*
G37*
G36*
G01*
X283513500Y-44091500D02*
X283513500Y-43341500D01*
G75*
G02*
X283576000Y-43279000I62500J0D01*
G01*
X283701000Y-43279000D01*
G75*
G02*
X283763500Y-43341500I0J-62500D01*
G01*
X283763500Y-44091500D01*
G75*
G02*
X283701000Y-44154000I-62500J0D01*
G01*
X283576000Y-44154000D01*
G75*
G02*
X283513500Y-44091500I0J62500D01*
G01*
G37*
G36*
G01*
X283013500Y-44091500D02*
X283013500Y-43341500D01*
G75*
G02*
X283076000Y-43279000I62500J0D01*
G01*
X283201000Y-43279000D01*
G75*
G02*
X283263500Y-43341500I0J-62500D01*
G01*
X283263500Y-44091500D01*
G75*
G02*
X283201000Y-44154000I-62500J0D01*
G01*
X283076000Y-44154000D01*
G75*
G02*
X283013500Y-44091500I0J62500D01*
G01*
G37*
G36*
G01*
X282513500Y-44091500D02*
X282513500Y-43341500D01*
G75*
G02*
X282576000Y-43279000I62500J0D01*
G01*
X282701000Y-43279000D01*
G75*
G02*
X282763500Y-43341500I0J-62500D01*
G01*
X282763500Y-44091500D01*
G75*
G02*
X282701000Y-44154000I-62500J0D01*
G01*
X282576000Y-44154000D01*
G75*
G02*
X282513500Y-44091500I0J62500D01*
G01*
G37*
G36*
G01*
X282013500Y-44091500D02*
X282013500Y-43341500D01*
G75*
G02*
X282076000Y-43279000I62500J0D01*
G01*
X282201000Y-43279000D01*
G75*
G02*
X282263500Y-43341500I0J-62500D01*
G01*
X282263500Y-44091500D01*
G75*
G02*
X282201000Y-44154000I-62500J0D01*
G01*
X282076000Y-44154000D01*
G75*
G02*
X282013500Y-44091500I0J62500D01*
G01*
G37*
G36*
G01*
X281513500Y-44091500D02*
X281513500Y-43341500D01*
G75*
G02*
X281576000Y-43279000I62500J0D01*
G01*
X281701000Y-43279000D01*
G75*
G02*
X281763500Y-43341500I0J-62500D01*
G01*
X281763500Y-44091500D01*
G75*
G02*
X281701000Y-44154000I-62500J0D01*
G01*
X281576000Y-44154000D01*
G75*
G02*
X281513500Y-44091500I0J62500D01*
G01*
G37*
G36*
G01*
X281013500Y-44091500D02*
X281013500Y-43341500D01*
G75*
G02*
X281076000Y-43279000I62500J0D01*
G01*
X281201000Y-43279000D01*
G75*
G02*
X281263500Y-43341500I0J-62500D01*
G01*
X281263500Y-44091500D01*
G75*
G02*
X281201000Y-44154000I-62500J0D01*
G01*
X281076000Y-44154000D01*
G75*
G02*
X281013500Y-44091500I0J62500D01*
G01*
G37*
G36*
G01*
X280513500Y-44091500D02*
X280513500Y-43341500D01*
G75*
G02*
X280576000Y-43279000I62500J0D01*
G01*
X280701000Y-43279000D01*
G75*
G02*
X280763500Y-43341500I0J-62500D01*
G01*
X280763500Y-44091500D01*
G75*
G02*
X280701000Y-44154000I-62500J0D01*
G01*
X280576000Y-44154000D01*
G75*
G02*
X280513500Y-44091500I0J62500D01*
G01*
G37*
G36*
G01*
X280013500Y-44091500D02*
X280013500Y-43341500D01*
G75*
G02*
X280076000Y-43279000I62500J0D01*
G01*
X280201000Y-43279000D01*
G75*
G02*
X280263500Y-43341500I0J-62500D01*
G01*
X280263500Y-44091500D01*
G75*
G02*
X280201000Y-44154000I-62500J0D01*
G01*
X280076000Y-44154000D01*
G75*
G02*
X280013500Y-44091500I0J62500D01*
G01*
G37*
G36*
G01*
X279013500Y-44466500D02*
X279013500Y-44341500D01*
G75*
G02*
X279076000Y-44279000I62500J0D01*
G01*
X279826000Y-44279000D01*
G75*
G02*
X279888500Y-44341500I0J-62500D01*
G01*
X279888500Y-44466500D01*
G75*
G02*
X279826000Y-44529000I-62500J0D01*
G01*
X279076000Y-44529000D01*
G75*
G02*
X279013500Y-44466500I0J62500D01*
G01*
G37*
G36*
G01*
X279013500Y-44966500D02*
X279013500Y-44841500D01*
G75*
G02*
X279076000Y-44779000I62500J0D01*
G01*
X279826000Y-44779000D01*
G75*
G02*
X279888500Y-44841500I0J-62500D01*
G01*
X279888500Y-44966500D01*
G75*
G02*
X279826000Y-45029000I-62500J0D01*
G01*
X279076000Y-45029000D01*
G75*
G02*
X279013500Y-44966500I0J62500D01*
G01*
G37*
G36*
G01*
X279013500Y-45466500D02*
X279013500Y-45341500D01*
G75*
G02*
X279076000Y-45279000I62500J0D01*
G01*
X279826000Y-45279000D01*
G75*
G02*
X279888500Y-45341500I0J-62500D01*
G01*
X279888500Y-45466500D01*
G75*
G02*
X279826000Y-45529000I-62500J0D01*
G01*
X279076000Y-45529000D01*
G75*
G02*
X279013500Y-45466500I0J62500D01*
G01*
G37*
G36*
G01*
X279013500Y-45966500D02*
X279013500Y-45841500D01*
G75*
G02*
X279076000Y-45779000I62500J0D01*
G01*
X279826000Y-45779000D01*
G75*
G02*
X279888500Y-45841500I0J-62500D01*
G01*
X279888500Y-45966500D01*
G75*
G02*
X279826000Y-46029000I-62500J0D01*
G01*
X279076000Y-46029000D01*
G75*
G02*
X279013500Y-45966500I0J62500D01*
G01*
G37*
G36*
G01*
X279013500Y-46466500D02*
X279013500Y-46341500D01*
G75*
G02*
X279076000Y-46279000I62500J0D01*
G01*
X279826000Y-46279000D01*
G75*
G02*
X279888500Y-46341500I0J-62500D01*
G01*
X279888500Y-46466500D01*
G75*
G02*
X279826000Y-46529000I-62500J0D01*
G01*
X279076000Y-46529000D01*
G75*
G02*
X279013500Y-46466500I0J62500D01*
G01*
G37*
G36*
G01*
X279013500Y-46966500D02*
X279013500Y-46841500D01*
G75*
G02*
X279076000Y-46779000I62500J0D01*
G01*
X279826000Y-46779000D01*
G75*
G02*
X279888500Y-46841500I0J-62500D01*
G01*
X279888500Y-46966500D01*
G75*
G02*
X279826000Y-47029000I-62500J0D01*
G01*
X279076000Y-47029000D01*
G75*
G02*
X279013500Y-46966500I0J62500D01*
G01*
G37*
G36*
G01*
X279013500Y-47466500D02*
X279013500Y-47341500D01*
G75*
G02*
X279076000Y-47279000I62500J0D01*
G01*
X279826000Y-47279000D01*
G75*
G02*
X279888500Y-47341500I0J-62500D01*
G01*
X279888500Y-47466500D01*
G75*
G02*
X279826000Y-47529000I-62500J0D01*
G01*
X279076000Y-47529000D01*
G75*
G02*
X279013500Y-47466500I0J62500D01*
G01*
G37*
G36*
G01*
X279013500Y-47966500D02*
X279013500Y-47841500D01*
G75*
G02*
X279076000Y-47779000I62500J0D01*
G01*
X279826000Y-47779000D01*
G75*
G02*
X279888500Y-47841500I0J-62500D01*
G01*
X279888500Y-47966500D01*
G75*
G02*
X279826000Y-48029000I-62500J0D01*
G01*
X279076000Y-48029000D01*
G75*
G02*
X279013500Y-47966500I0J62500D01*
G01*
G37*
G36*
G01*
X279013500Y-48466500D02*
X279013500Y-48341500D01*
G75*
G02*
X279076000Y-48279000I62500J0D01*
G01*
X279826000Y-48279000D01*
G75*
G02*
X279888500Y-48341500I0J-62500D01*
G01*
X279888500Y-48466500D01*
G75*
G02*
X279826000Y-48529000I-62500J0D01*
G01*
X279076000Y-48529000D01*
G75*
G02*
X279013500Y-48466500I0J62500D01*
G01*
G37*
G36*
G01*
X279013500Y-48966500D02*
X279013500Y-48841500D01*
G75*
G02*
X279076000Y-48779000I62500J0D01*
G01*
X279826000Y-48779000D01*
G75*
G02*
X279888500Y-48841500I0J-62500D01*
G01*
X279888500Y-48966500D01*
G75*
G02*
X279826000Y-49029000I-62500J0D01*
G01*
X279076000Y-49029000D01*
G75*
G02*
X279013500Y-48966500I0J62500D01*
G01*
G37*
G36*
G01*
X279013500Y-49466500D02*
X279013500Y-49341500D01*
G75*
G02*
X279076000Y-49279000I62500J0D01*
G01*
X279826000Y-49279000D01*
G75*
G02*
X279888500Y-49341500I0J-62500D01*
G01*
X279888500Y-49466500D01*
G75*
G02*
X279826000Y-49529000I-62500J0D01*
G01*
X279076000Y-49529000D01*
G75*
G02*
X279013500Y-49466500I0J62500D01*
G01*
G37*
G36*
G01*
X279013500Y-49966500D02*
X279013500Y-49841500D01*
G75*
G02*
X279076000Y-49779000I62500J0D01*
G01*
X279826000Y-49779000D01*
G75*
G02*
X279888500Y-49841500I0J-62500D01*
G01*
X279888500Y-49966500D01*
G75*
G02*
X279826000Y-50029000I-62500J0D01*
G01*
X279076000Y-50029000D01*
G75*
G02*
X279013500Y-49966500I0J62500D01*
G01*
G37*
D13*
X290600000Y-67200000D03*
X289200000Y-67200000D03*
G36*
G01*
X289750300Y-70136000D02*
X290095300Y-70136000D01*
G75*
G02*
X290242800Y-70283500I0J-147500D01*
G01*
X290242800Y-70578500D01*
G75*
G02*
X290095300Y-70726000I-147500J0D01*
G01*
X289750300Y-70726000D01*
G75*
G02*
X289602800Y-70578500I0J147500D01*
G01*
X289602800Y-70283500D01*
G75*
G02*
X289750300Y-70136000I147500J0D01*
G01*
G37*
G36*
G01*
X289750300Y-69166000D02*
X290095300Y-69166000D01*
G75*
G02*
X290242800Y-69313500I0J-147500D01*
G01*
X290242800Y-69608500D01*
G75*
G02*
X290095300Y-69756000I-147500J0D01*
G01*
X289750300Y-69756000D01*
G75*
G02*
X289602800Y-69608500I0J147500D01*
G01*
X289602800Y-69313500D01*
G75*
G02*
X289750300Y-69166000I147500J0D01*
G01*
G37*
D14*
X280610000Y-77700000D03*
X276360000Y-77700000D03*
X280610000Y-74200000D03*
G36*
G01*
X284352500Y-53765000D02*
X284007500Y-53765000D01*
G75*
G02*
X283860000Y-53617500I0J147500D01*
G01*
X283860000Y-53322500D01*
G75*
G02*
X284007500Y-53175000I147500J0D01*
G01*
X284352500Y-53175000D01*
G75*
G02*
X284500000Y-53322500I0J-147500D01*
G01*
X284500000Y-53617500D01*
G75*
G02*
X284352500Y-53765000I-147500J0D01*
G01*
G37*
G36*
G01*
X284352500Y-54735000D02*
X284007500Y-54735000D01*
G75*
G02*
X283860000Y-54587500I0J147500D01*
G01*
X283860000Y-54292500D01*
G75*
G02*
X284007500Y-54145000I147500J0D01*
G01*
X284352500Y-54145000D01*
G75*
G02*
X284500000Y-54292500I0J-147500D01*
G01*
X284500000Y-54587500D01*
G75*
G02*
X284352500Y-54735000I-147500J0D01*
G01*
G37*
D15*
X283740000Y-70040000D03*
X283740000Y-64960000D03*
X283740000Y-75120000D03*
X287040000Y-67500000D03*
X283740000Y-59880000D03*
X287040000Y-62420000D03*
X287040000Y-72580000D03*
X287040000Y-77660000D03*
X264180000Y-62420000D03*
X264180000Y-67500000D03*
X264180000Y-72580000D03*
X264180000Y-77660000D03*
X260880000Y-59880000D03*
X260880000Y-64960000D03*
X260880000Y-70040000D03*
X260880000Y-75120000D03*
D16*
X275420000Y-58370000D03*
X272880000Y-61670000D03*
G36*
G01*
X284481000Y-40694000D02*
X284136000Y-40694000D01*
G75*
G02*
X283988500Y-40546500I0J147500D01*
G01*
X283988500Y-40251500D01*
G75*
G02*
X284136000Y-40104000I147500J0D01*
G01*
X284481000Y-40104000D01*
G75*
G02*
X284628500Y-40251500I0J-147500D01*
G01*
X284628500Y-40546500D01*
G75*
G02*
X284481000Y-40694000I-147500J0D01*
G01*
G37*
G36*
G01*
X284481000Y-41664000D02*
X284136000Y-41664000D01*
G75*
G02*
X283988500Y-41516500I0J147500D01*
G01*
X283988500Y-41221500D01*
G75*
G02*
X284136000Y-41074000I147500J0D01*
G01*
X284481000Y-41074000D01*
G75*
G02*
X284628500Y-41221500I0J-147500D01*
G01*
X284628500Y-41516500D01*
G75*
G02*
X284481000Y-41664000I-147500J0D01*
G01*
G37*
G36*
G01*
X290062500Y-72980000D02*
X289717500Y-72980000D01*
G75*
G02*
X289570000Y-72832500I0J147500D01*
G01*
X289570000Y-72537500D01*
G75*
G02*
X289717500Y-72390000I147500J0D01*
G01*
X290062500Y-72390000D01*
G75*
G02*
X290210000Y-72537500I0J-147500D01*
G01*
X290210000Y-72832500D01*
G75*
G02*
X290062500Y-72980000I-147500J0D01*
G01*
G37*
G36*
G01*
X290062500Y-73950000D02*
X289717500Y-73950000D01*
G75*
G02*
X289570000Y-73802500I0J147500D01*
G01*
X289570000Y-73507500D01*
G75*
G02*
X289717500Y-73360000I147500J0D01*
G01*
X290062500Y-73360000D01*
G75*
G02*
X290210000Y-73507500I0J-147500D01*
G01*
X290210000Y-73802500D01*
G75*
G02*
X290062500Y-73950000I-147500J0D01*
G01*
G37*
D17*
X258318000Y-36885000D03*
X258318000Y-39835000D03*
D18*
X259843000Y-38360000D03*
D19*
X276890000Y-29270000D03*
X271110000Y-29270000D03*
D20*
X269680000Y-25580000D03*
X278320000Y-25580000D03*
D21*
X269680000Y-29750000D03*
X278320000Y-29750000D03*
G36*
G01*
X282017500Y-54155000D02*
X282362500Y-54155000D01*
G75*
G02*
X282510000Y-54302500I0J-147500D01*
G01*
X282510000Y-54597500D01*
G75*
G02*
X282362500Y-54745000I-147500J0D01*
G01*
X282017500Y-54745000D01*
G75*
G02*
X281870000Y-54597500I0J147500D01*
G01*
X281870000Y-54302500D01*
G75*
G02*
X282017500Y-54155000I147500J0D01*
G01*
G37*
G36*
G01*
X282017500Y-53185000D02*
X282362500Y-53185000D01*
G75*
G02*
X282510000Y-53332500I0J-147500D01*
G01*
X282510000Y-53627500D01*
G75*
G02*
X282362500Y-53775000I-147500J0D01*
G01*
X282017500Y-53775000D01*
G75*
G02*
X281870000Y-53627500I0J147500D01*
G01*
X281870000Y-53332500D01*
G75*
G02*
X282017500Y-53185000I147500J0D01*
G01*
G37*
D22*
X262735000Y-53560000D03*
X264005000Y-53560000D03*
X264005000Y-54830000D03*
X262735000Y-54830000D03*
D23*
X257655000Y-54195000D03*
X265275000Y-55211000D03*
X265275000Y-53179000D03*
D22*
X258925000Y-53560000D03*
X258925000Y-54830000D03*
X260195000Y-53560000D03*
X260195000Y-54830000D03*
X261465000Y-53560000D03*
X261465000Y-54830000D03*
D23*
X257655000Y-54189000D03*
X265275000Y-53173000D03*
X265275000Y-55205000D03*
D24*
X289480000Y-36880000D03*
X290280000Y-36880000D03*
D25*
X257260000Y-47959000D03*
D26*
X256760000Y-45159000D03*
X257760000Y-45159000D03*
G36*
G01*
X276570000Y-50610000D02*
X276570000Y-50010000D01*
G75*
G02*
X276645000Y-49935000I75000J0D01*
G01*
X276795000Y-49935000D01*
G75*
G02*
X276870000Y-50010000I0J-75000D01*
G01*
X276870000Y-50610000D01*
G75*
G02*
X276795000Y-50685000I-75000J0D01*
G01*
X276645000Y-50685000D01*
G75*
G02*
X276570000Y-50610000I0J75000D01*
G01*
G37*
G36*
G01*
X276570000Y-48310000D02*
X276570000Y-47710000D01*
G75*
G02*
X276645000Y-47635000I75000J0D01*
G01*
X276795000Y-47635000D01*
G75*
G02*
X276870000Y-47710000I0J-75000D01*
G01*
X276870000Y-48310000D01*
G75*
G02*
X276795000Y-48385000I-75000J0D01*
G01*
X276645000Y-48385000D01*
G75*
G02*
X276570000Y-48310000I0J75000D01*
G01*
G37*
G36*
G01*
X277832500Y-50035000D02*
X277207500Y-50035000D01*
G75*
G02*
X277145000Y-49972500I0J62500D01*
G01*
X277145000Y-49847500D01*
G75*
G02*
X277207500Y-49785000I62500J0D01*
G01*
X277832500Y-49785000D01*
G75*
G02*
X277895000Y-49847500I0J-62500D01*
G01*
X277895000Y-49972500D01*
G75*
G02*
X277832500Y-50035000I-62500J0D01*
G01*
G37*
G36*
G01*
X277832500Y-49535000D02*
X277207500Y-49535000D01*
G75*
G02*
X277145000Y-49472500I0J62500D01*
G01*
X277145000Y-49347500D01*
G75*
G02*
X277207500Y-49285000I62500J0D01*
G01*
X277832500Y-49285000D01*
G75*
G02*
X277895000Y-49347500I0J-62500D01*
G01*
X277895000Y-49472500D01*
G75*
G02*
X277832500Y-49535000I-62500J0D01*
G01*
G37*
G36*
G01*
X277832500Y-49035000D02*
X277207500Y-49035000D01*
G75*
G02*
X277145000Y-48972500I0J62500D01*
G01*
X277145000Y-48847500D01*
G75*
G02*
X277207500Y-48785000I62500J0D01*
G01*
X277832500Y-48785000D01*
G75*
G02*
X277895000Y-48847500I0J-62500D01*
G01*
X277895000Y-48972500D01*
G75*
G02*
X277832500Y-49035000I-62500J0D01*
G01*
G37*
G36*
G01*
X277832500Y-48535000D02*
X277207500Y-48535000D01*
G75*
G02*
X277145000Y-48472500I0J62500D01*
G01*
X277145000Y-48347500D01*
G75*
G02*
X277207500Y-48285000I62500J0D01*
G01*
X277832500Y-48285000D01*
G75*
G02*
X277895000Y-48347500I0J-62500D01*
G01*
X277895000Y-48472500D01*
G75*
G02*
X277832500Y-48535000I-62500J0D01*
G01*
G37*
G36*
G01*
X276232500Y-50035000D02*
X275607500Y-50035000D01*
G75*
G02*
X275545000Y-49972500I0J62500D01*
G01*
X275545000Y-49847500D01*
G75*
G02*
X275607500Y-49785000I62500J0D01*
G01*
X276232500Y-49785000D01*
G75*
G02*
X276295000Y-49847500I0J-62500D01*
G01*
X276295000Y-49972500D01*
G75*
G02*
X276232500Y-50035000I-62500J0D01*
G01*
G37*
G36*
G01*
X276232500Y-49535000D02*
X275607500Y-49535000D01*
G75*
G02*
X275545000Y-49472500I0J62500D01*
G01*
X275545000Y-49347500D01*
G75*
G02*
X275607500Y-49285000I62500J0D01*
G01*
X276232500Y-49285000D01*
G75*
G02*
X276295000Y-49347500I0J-62500D01*
G01*
X276295000Y-49472500D01*
G75*
G02*
X276232500Y-49535000I-62500J0D01*
G01*
G37*
G36*
G01*
X276232500Y-49035000D02*
X275607500Y-49035000D01*
G75*
G02*
X275545000Y-48972500I0J62500D01*
G01*
X275545000Y-48847500D01*
G75*
G02*
X275607500Y-48785000I62500J0D01*
G01*
X276232500Y-48785000D01*
G75*
G02*
X276295000Y-48847500I0J-62500D01*
G01*
X276295000Y-48972500D01*
G75*
G02*
X276232500Y-49035000I-62500J0D01*
G01*
G37*
G36*
G01*
X276232500Y-48535000D02*
X275607500Y-48535000D01*
G75*
G02*
X275545000Y-48472500I0J62500D01*
G01*
X275545000Y-48347500D01*
G75*
G02*
X275607500Y-48285000I62500J0D01*
G01*
X276232500Y-48285000D01*
G75*
G02*
X276295000Y-48347500I0J-62500D01*
G01*
X276295000Y-48472500D01*
G75*
G02*
X276232500Y-48535000I-62500J0D01*
G01*
G37*
G36*
G01*
X278710000Y-60990000D02*
X278860000Y-60990000D01*
G75*
G02*
X278935000Y-61065000I0J-75000D01*
G01*
X278935000Y-61515000D01*
G75*
G02*
X278860000Y-61590000I-75000J0D01*
G01*
X278710000Y-61590000D01*
G75*
G02*
X278635000Y-61515000I0J75000D01*
G01*
X278635000Y-61065000D01*
G75*
G02*
X278710000Y-60990000I75000J0D01*
G01*
G37*
G36*
G01*
X279185000Y-61202500D02*
X279185000Y-61077500D01*
G75*
G02*
X279247500Y-61015000I62500J0D01*
G01*
X279672500Y-61015000D01*
G75*
G02*
X279735000Y-61077500I0J-62500D01*
G01*
X279735000Y-61202500D01*
G75*
G02*
X279672500Y-61265000I-62500J0D01*
G01*
X279247500Y-61265000D01*
G75*
G02*
X279185000Y-61202500I0J62500D01*
G01*
G37*
G36*
G01*
X279185000Y-60702500D02*
X279185000Y-60577500D01*
G75*
G02*
X279247500Y-60515000I62500J0D01*
G01*
X279672500Y-60515000D01*
G75*
G02*
X279735000Y-60577500I0J-62500D01*
G01*
X279735000Y-60702500D01*
G75*
G02*
X279672500Y-60765000I-62500J0D01*
G01*
X279247500Y-60765000D01*
G75*
G02*
X279185000Y-60702500I0J62500D01*
G01*
G37*
G36*
G01*
X279185000Y-60202500D02*
X279185000Y-60077500D01*
G75*
G02*
X279247500Y-60015000I62500J0D01*
G01*
X279672500Y-60015000D01*
G75*
G02*
X279735000Y-60077500I0J-62500D01*
G01*
X279735000Y-60202500D01*
G75*
G02*
X279672500Y-60265000I-62500J0D01*
G01*
X279247500Y-60265000D01*
G75*
G02*
X279185000Y-60202500I0J62500D01*
G01*
G37*
G36*
G01*
X279185000Y-59702500D02*
X279185000Y-59577500D01*
G75*
G02*
X279247500Y-59515000I62500J0D01*
G01*
X279672500Y-59515000D01*
G75*
G02*
X279735000Y-59577500I0J-62500D01*
G01*
X279735000Y-59702500D01*
G75*
G02*
X279672500Y-59765000I-62500J0D01*
G01*
X279247500Y-59765000D01*
G75*
G02*
X279185000Y-59702500I0J62500D01*
G01*
G37*
G36*
G01*
X278710000Y-59190000D02*
X278860000Y-59190000D01*
G75*
G02*
X278935000Y-59265000I0J-75000D01*
G01*
X278935000Y-59715000D01*
G75*
G02*
X278860000Y-59790000I-75000J0D01*
G01*
X278710000Y-59790000D01*
G75*
G02*
X278635000Y-59715000I0J75000D01*
G01*
X278635000Y-59265000D01*
G75*
G02*
X278710000Y-59190000I75000J0D01*
G01*
G37*
G36*
G01*
X277835000Y-59702500D02*
X277835000Y-59577500D01*
G75*
G02*
X277897500Y-59515000I62500J0D01*
G01*
X278322500Y-59515000D01*
G75*
G02*
X278385000Y-59577500I0J-62500D01*
G01*
X278385000Y-59702500D01*
G75*
G02*
X278322500Y-59765000I-62500J0D01*
G01*
X277897500Y-59765000D01*
G75*
G02*
X277835000Y-59702500I0J62500D01*
G01*
G37*
G36*
G01*
X277835000Y-60202500D02*
X277835000Y-60077500D01*
G75*
G02*
X277897500Y-60015000I62500J0D01*
G01*
X278322500Y-60015000D01*
G75*
G02*
X278385000Y-60077500I0J-62500D01*
G01*
X278385000Y-60202500D01*
G75*
G02*
X278322500Y-60265000I-62500J0D01*
G01*
X277897500Y-60265000D01*
G75*
G02*
X277835000Y-60202500I0J62500D01*
G01*
G37*
G36*
G01*
X277835000Y-60702500D02*
X277835000Y-60577500D01*
G75*
G02*
X277897500Y-60515000I62500J0D01*
G01*
X278322500Y-60515000D01*
G75*
G02*
X278385000Y-60577500I0J-62500D01*
G01*
X278385000Y-60702500D01*
G75*
G02*
X278322500Y-60765000I-62500J0D01*
G01*
X277897500Y-60765000D01*
G75*
G02*
X277835000Y-60702500I0J62500D01*
G01*
G37*
G36*
G01*
X277835000Y-61202500D02*
X277835000Y-61077500D01*
G75*
G02*
X277897500Y-61015000I62500J0D01*
G01*
X278322500Y-61015000D01*
G75*
G02*
X278385000Y-61077500I0J-62500D01*
G01*
X278385000Y-61202500D01*
G75*
G02*
X278322500Y-61265000I-62500J0D01*
G01*
X277897500Y-61265000D01*
G75*
G02*
X277835000Y-61202500I0J62500D01*
G01*
G37*
G36*
G01*
X281072500Y-60935000D02*
X280727500Y-60935000D01*
G75*
G02*
X280580000Y-60787500I0J147500D01*
G01*
X280580000Y-60492500D01*
G75*
G02*
X280727500Y-60345000I147500J0D01*
G01*
X281072500Y-60345000D01*
G75*
G02*
X281220000Y-60492500I0J-147500D01*
G01*
X281220000Y-60787500D01*
G75*
G02*
X281072500Y-60935000I-147500J0D01*
G01*
G37*
G36*
G01*
X281072500Y-61905000D02*
X280727500Y-61905000D01*
G75*
G02*
X280580000Y-61757500I0J147500D01*
G01*
X280580000Y-61462500D01*
G75*
G02*
X280727500Y-61315000I147500J0D01*
G01*
X281072500Y-61315000D01*
G75*
G02*
X281220000Y-61462500I0J-147500D01*
G01*
X281220000Y-61757500D01*
G75*
G02*
X281072500Y-61905000I-147500J0D01*
G01*
G37*
G36*
G01*
X278962500Y-57320000D02*
X278617500Y-57320000D01*
G75*
G02*
X278470000Y-57172500I0J147500D01*
G01*
X278470000Y-56877500D01*
G75*
G02*
X278617500Y-56730000I147500J0D01*
G01*
X278962500Y-56730000D01*
G75*
G02*
X279110000Y-56877500I0J-147500D01*
G01*
X279110000Y-57172500D01*
G75*
G02*
X278962500Y-57320000I-147500J0D01*
G01*
G37*
G36*
G01*
X278962500Y-58290000D02*
X278617500Y-58290000D01*
G75*
G02*
X278470000Y-58142500I0J147500D01*
G01*
X278470000Y-57847500D01*
G75*
G02*
X278617500Y-57700000I147500J0D01*
G01*
X278962500Y-57700000D01*
G75*
G02*
X279110000Y-57847500I0J-147500D01*
G01*
X279110000Y-58142500D01*
G75*
G02*
X278962500Y-58290000I-147500J0D01*
G01*
G37*
G36*
G01*
X283471000Y-40689000D02*
X283126000Y-40689000D01*
G75*
G02*
X282978500Y-40541500I0J147500D01*
G01*
X282978500Y-40246500D01*
G75*
G02*
X283126000Y-40099000I147500J0D01*
G01*
X283471000Y-40099000D01*
G75*
G02*
X283618500Y-40246500I0J-147500D01*
G01*
X283618500Y-40541500D01*
G75*
G02*
X283471000Y-40689000I-147500J0D01*
G01*
G37*
G36*
G01*
X283471000Y-41659000D02*
X283126000Y-41659000D01*
G75*
G02*
X282978500Y-41511500I0J147500D01*
G01*
X282978500Y-41216500D01*
G75*
G02*
X283126000Y-41069000I147500J0D01*
G01*
X283471000Y-41069000D01*
G75*
G02*
X283618500Y-41216500I0J-147500D01*
G01*
X283618500Y-41511500D01*
G75*
G02*
X283471000Y-41659000I-147500J0D01*
G01*
G37*
G36*
G01*
X279066000Y-41069000D02*
X279411000Y-41069000D01*
G75*
G02*
X279558500Y-41216500I0J-147500D01*
G01*
X279558500Y-41511500D01*
G75*
G02*
X279411000Y-41659000I-147500J0D01*
G01*
X279066000Y-41659000D01*
G75*
G02*
X278918500Y-41511500I0J147500D01*
G01*
X278918500Y-41216500D01*
G75*
G02*
X279066000Y-41069000I147500J0D01*
G01*
G37*
G36*
G01*
X279066000Y-40099000D02*
X279411000Y-40099000D01*
G75*
G02*
X279558500Y-40246500I0J-147500D01*
G01*
X279558500Y-40541500D01*
G75*
G02*
X279411000Y-40689000I-147500J0D01*
G01*
X279066000Y-40689000D01*
G75*
G02*
X278918500Y-40541500I0J147500D01*
G01*
X278918500Y-40246500D01*
G75*
G02*
X279066000Y-40099000I147500J0D01*
G01*
G37*
G36*
G01*
X287851000Y-49429000D02*
X287506000Y-49429000D01*
G75*
G02*
X287358500Y-49281500I0J147500D01*
G01*
X287358500Y-48986500D01*
G75*
G02*
X287506000Y-48839000I147500J0D01*
G01*
X287851000Y-48839000D01*
G75*
G02*
X287998500Y-48986500I0J-147500D01*
G01*
X287998500Y-49281500D01*
G75*
G02*
X287851000Y-49429000I-147500J0D01*
G01*
G37*
G36*
G01*
X287851000Y-50399000D02*
X287506000Y-50399000D01*
G75*
G02*
X287358500Y-50251500I0J147500D01*
G01*
X287358500Y-49956500D01*
G75*
G02*
X287506000Y-49809000I147500J0D01*
G01*
X287851000Y-49809000D01*
G75*
G02*
X287998500Y-49956500I0J-147500D01*
G01*
X287998500Y-50251500D01*
G75*
G02*
X287851000Y-50399000I-147500J0D01*
G01*
G37*
G36*
G01*
X257053000Y-50204000D02*
X257398000Y-50204000D01*
G75*
G02*
X257545500Y-50351500I0J-147500D01*
G01*
X257545500Y-50646500D01*
G75*
G02*
X257398000Y-50794000I-147500J0D01*
G01*
X257053000Y-50794000D01*
G75*
G02*
X256905500Y-50646500I0J147500D01*
G01*
X256905500Y-50351500D01*
G75*
G02*
X257053000Y-50204000I147500J0D01*
G01*
G37*
G36*
G01*
X257053000Y-49234000D02*
X257398000Y-49234000D01*
G75*
G02*
X257545500Y-49381500I0J-147500D01*
G01*
X257545500Y-49676500D01*
G75*
G02*
X257398000Y-49824000I-147500J0D01*
G01*
X257053000Y-49824000D01*
G75*
G02*
X256905500Y-49676500I0J147500D01*
G01*
X256905500Y-49381500D01*
G75*
G02*
X257053000Y-49234000I147500J0D01*
G01*
G37*
G36*
G01*
X287176000Y-41084000D02*
X287521000Y-41084000D01*
G75*
G02*
X287668500Y-41231500I0J-147500D01*
G01*
X287668500Y-41526500D01*
G75*
G02*
X287521000Y-41674000I-147500J0D01*
G01*
X287176000Y-41674000D01*
G75*
G02*
X287028500Y-41526500I0J147500D01*
G01*
X287028500Y-41231500D01*
G75*
G02*
X287176000Y-41084000I147500J0D01*
G01*
G37*
G36*
G01*
X287176000Y-40114000D02*
X287521000Y-40114000D01*
G75*
G02*
X287668500Y-40261500I0J-147500D01*
G01*
X287668500Y-40556500D01*
G75*
G02*
X287521000Y-40704000I-147500J0D01*
G01*
X287176000Y-40704000D01*
G75*
G02*
X287028500Y-40556500I0J147500D01*
G01*
X287028500Y-40261500D01*
G75*
G02*
X287176000Y-40114000I147500J0D01*
G01*
G37*
G36*
G01*
X286166000Y-41074000D02*
X286511000Y-41074000D01*
G75*
G02*
X286658500Y-41221500I0J-147500D01*
G01*
X286658500Y-41516500D01*
G75*
G02*
X286511000Y-41664000I-147500J0D01*
G01*
X286166000Y-41664000D01*
G75*
G02*
X286018500Y-41516500I0J147500D01*
G01*
X286018500Y-41221500D01*
G75*
G02*
X286166000Y-41074000I147500J0D01*
G01*
G37*
G36*
G01*
X286166000Y-40104000D02*
X286511000Y-40104000D01*
G75*
G02*
X286658500Y-40251500I0J-147500D01*
G01*
X286658500Y-40546500D01*
G75*
G02*
X286511000Y-40694000I-147500J0D01*
G01*
X286166000Y-40694000D01*
G75*
G02*
X286018500Y-40546500I0J147500D01*
G01*
X286018500Y-40251500D01*
G75*
G02*
X286166000Y-40104000I147500J0D01*
G01*
G37*
G36*
G01*
X258737500Y-64695000D02*
X259082500Y-64695000D01*
G75*
G02*
X259230000Y-64842500I0J-147500D01*
G01*
X259230000Y-65137500D01*
G75*
G02*
X259082500Y-65285000I-147500J0D01*
G01*
X258737500Y-65285000D01*
G75*
G02*
X258590000Y-65137500I0J147500D01*
G01*
X258590000Y-64842500D01*
G75*
G02*
X258737500Y-64695000I147500J0D01*
G01*
G37*
G36*
G01*
X258737500Y-63725000D02*
X259082500Y-63725000D01*
G75*
G02*
X259230000Y-63872500I0J-147500D01*
G01*
X259230000Y-64167500D01*
G75*
G02*
X259082500Y-64315000I-147500J0D01*
G01*
X258737500Y-64315000D01*
G75*
G02*
X258590000Y-64167500I0J147500D01*
G01*
X258590000Y-63872500D01*
G75*
G02*
X258737500Y-63725000I147500J0D01*
G01*
G37*
G36*
G01*
X258737500Y-66725000D02*
X259082500Y-66725000D01*
G75*
G02*
X259230000Y-66872500I0J-147500D01*
G01*
X259230000Y-67167500D01*
G75*
G02*
X259082500Y-67315000I-147500J0D01*
G01*
X258737500Y-67315000D01*
G75*
G02*
X258590000Y-67167500I0J147500D01*
G01*
X258590000Y-66872500D01*
G75*
G02*
X258737500Y-66725000I147500J0D01*
G01*
G37*
G36*
G01*
X258737500Y-65755000D02*
X259082500Y-65755000D01*
G75*
G02*
X259230000Y-65902500I0J-147500D01*
G01*
X259230000Y-66197500D01*
G75*
G02*
X259082500Y-66345000I-147500J0D01*
G01*
X258737500Y-66345000D01*
G75*
G02*
X258590000Y-66197500I0J147500D01*
G01*
X258590000Y-65902500D01*
G75*
G02*
X258737500Y-65755000I147500J0D01*
G01*
G37*
D27*
X282200000Y-55740000D03*
X280800000Y-55740000D03*
X280800000Y-56840000D03*
X282200000Y-56840000D03*
G36*
G01*
X268062500Y-76505000D02*
X267717500Y-76505000D01*
G75*
G02*
X267570000Y-76357500I0J147500D01*
G01*
X267570000Y-76062500D01*
G75*
G02*
X267717500Y-75915000I147500J0D01*
G01*
X268062500Y-75915000D01*
G75*
G02*
X268210000Y-76062500I0J-147500D01*
G01*
X268210000Y-76357500D01*
G75*
G02*
X268062500Y-76505000I-147500J0D01*
G01*
G37*
G36*
G01*
X268062500Y-77475000D02*
X267717500Y-77475000D01*
G75*
G02*
X267570000Y-77327500I0J147500D01*
G01*
X267570000Y-77032500D01*
G75*
G02*
X267717500Y-76885000I147500J0D01*
G01*
X268062500Y-76885000D01*
G75*
G02*
X268210000Y-77032500I0J-147500D01*
G01*
X268210000Y-77327500D01*
G75*
G02*
X268062500Y-77475000I-147500J0D01*
G01*
G37*
G36*
G01*
X280421000Y-41659000D02*
X280076000Y-41659000D01*
G75*
G02*
X279928500Y-41511500I0J147500D01*
G01*
X279928500Y-41216500D01*
G75*
G02*
X280076000Y-41069000I147500J0D01*
G01*
X280421000Y-41069000D01*
G75*
G02*
X280568500Y-41216500I0J-147500D01*
G01*
X280568500Y-41511500D01*
G75*
G02*
X280421000Y-41659000I-147500J0D01*
G01*
G37*
G36*
G01*
X280421000Y-40689000D02*
X280076000Y-40689000D01*
G75*
G02*
X279928500Y-40541500I0J147500D01*
G01*
X279928500Y-40246500D01*
G75*
G02*
X280076000Y-40099000I147500J0D01*
G01*
X280421000Y-40099000D01*
G75*
G02*
X280568500Y-40246500I0J-147500D01*
G01*
X280568500Y-40541500D01*
G75*
G02*
X280421000Y-40689000I-147500J0D01*
G01*
G37*
G36*
G01*
X270102500Y-77460000D02*
X269757500Y-77460000D01*
G75*
G02*
X269610000Y-77312500I0J147500D01*
G01*
X269610000Y-77017500D01*
G75*
G02*
X269757500Y-76870000I147500J0D01*
G01*
X270102500Y-76870000D01*
G75*
G02*
X270250000Y-77017500I0J-147500D01*
G01*
X270250000Y-77312500D01*
G75*
G02*
X270102500Y-77460000I-147500J0D01*
G01*
G37*
G36*
G01*
X270102500Y-76490000D02*
X269757500Y-76490000D01*
G75*
G02*
X269610000Y-76342500I0J147500D01*
G01*
X269610000Y-76047500D01*
G75*
G02*
X269757500Y-75900000I147500J0D01*
G01*
X270102500Y-75900000D01*
G75*
G02*
X270250000Y-76047500I0J-147500D01*
G01*
X270250000Y-76342500D01*
G75*
G02*
X270102500Y-76490000I-147500J0D01*
G01*
G37*
G36*
G01*
X268717500Y-70500000D02*
X269062500Y-70500000D01*
G75*
G02*
X269210000Y-70647500I0J-147500D01*
G01*
X269210000Y-70942500D01*
G75*
G02*
X269062500Y-71090000I-147500J0D01*
G01*
X268717500Y-71090000D01*
G75*
G02*
X268570000Y-70942500I0J147500D01*
G01*
X268570000Y-70647500D01*
G75*
G02*
X268717500Y-70500000I147500J0D01*
G01*
G37*
G36*
G01*
X268717500Y-69530000D02*
X269062500Y-69530000D01*
G75*
G02*
X269210000Y-69677500I0J-147500D01*
G01*
X269210000Y-69972500D01*
G75*
G02*
X269062500Y-70120000I-147500J0D01*
G01*
X268717500Y-70120000D01*
G75*
G02*
X268570000Y-69972500I0J147500D01*
G01*
X268570000Y-69677500D01*
G75*
G02*
X268717500Y-69530000I147500J0D01*
G01*
G37*
G36*
G01*
X267707500Y-70510000D02*
X268052500Y-70510000D01*
G75*
G02*
X268200000Y-70657500I0J-147500D01*
G01*
X268200000Y-70952500D01*
G75*
G02*
X268052500Y-71100000I-147500J0D01*
G01*
X267707500Y-71100000D01*
G75*
G02*
X267560000Y-70952500I0J147500D01*
G01*
X267560000Y-70657500D01*
G75*
G02*
X267707500Y-70510000I147500J0D01*
G01*
G37*
G36*
G01*
X267707500Y-69540000D02*
X268052500Y-69540000D01*
G75*
G02*
X268200000Y-69687500I0J-147500D01*
G01*
X268200000Y-69982500D01*
G75*
G02*
X268052500Y-70130000I-147500J0D01*
G01*
X267707500Y-70130000D01*
G75*
G02*
X267560000Y-69982500I0J147500D01*
G01*
X267560000Y-69687500D01*
G75*
G02*
X267707500Y-69540000I147500J0D01*
G01*
G37*
G36*
G01*
X269092500Y-77470000D02*
X268747500Y-77470000D01*
G75*
G02*
X268600000Y-77322500I0J147500D01*
G01*
X268600000Y-77027500D01*
G75*
G02*
X268747500Y-76880000I147500J0D01*
G01*
X269092500Y-76880000D01*
G75*
G02*
X269240000Y-77027500I0J-147500D01*
G01*
X269240000Y-77322500D01*
G75*
G02*
X269092500Y-77470000I-147500J0D01*
G01*
G37*
G36*
G01*
X269092500Y-76500000D02*
X268747500Y-76500000D01*
G75*
G02*
X268600000Y-76352500I0J147500D01*
G01*
X268600000Y-76057500D01*
G75*
G02*
X268747500Y-75910000I147500J0D01*
G01*
X269092500Y-75910000D01*
G75*
G02*
X269240000Y-76057500I0J-147500D01*
G01*
X269240000Y-76352500D01*
G75*
G02*
X269092500Y-76500000I-147500J0D01*
G01*
G37*
G36*
G01*
X281431000Y-40689000D02*
X281086000Y-40689000D01*
G75*
G02*
X280938500Y-40541500I0J147500D01*
G01*
X280938500Y-40246500D01*
G75*
G02*
X281086000Y-40099000I147500J0D01*
G01*
X281431000Y-40099000D01*
G75*
G02*
X281578500Y-40246500I0J-147500D01*
G01*
X281578500Y-40541500D01*
G75*
G02*
X281431000Y-40689000I-147500J0D01*
G01*
G37*
G36*
G01*
X281431000Y-41659000D02*
X281086000Y-41659000D01*
G75*
G02*
X280938500Y-41511500I0J147500D01*
G01*
X280938500Y-41216500D01*
G75*
G02*
X281086000Y-41069000I147500J0D01*
G01*
X281431000Y-41069000D01*
G75*
G02*
X281578500Y-41216500I0J-147500D01*
G01*
X281578500Y-41511500D01*
G75*
G02*
X281431000Y-41659000I-147500J0D01*
G01*
G37*
G36*
G01*
X282451000Y-41664000D02*
X282106000Y-41664000D01*
G75*
G02*
X281958500Y-41516500I0J147500D01*
G01*
X281958500Y-41221500D01*
G75*
G02*
X282106000Y-41074000I147500J0D01*
G01*
X282451000Y-41074000D01*
G75*
G02*
X282598500Y-41221500I0J-147500D01*
G01*
X282598500Y-41516500D01*
G75*
G02*
X282451000Y-41664000I-147500J0D01*
G01*
G37*
G36*
G01*
X282451000Y-40694000D02*
X282106000Y-40694000D01*
G75*
G02*
X281958500Y-40546500I0J147500D01*
G01*
X281958500Y-40251500D01*
G75*
G02*
X282106000Y-40104000I147500J0D01*
G01*
X282451000Y-40104000D01*
G75*
G02*
X282598500Y-40251500I0J-147500D01*
G01*
X282598500Y-40546500D01*
G75*
G02*
X282451000Y-40694000I-147500J0D01*
G01*
G37*
G36*
G01*
X285156000Y-41069000D02*
X285501000Y-41069000D01*
G75*
G02*
X285648500Y-41216500I0J-147500D01*
G01*
X285648500Y-41511500D01*
G75*
G02*
X285501000Y-41659000I-147500J0D01*
G01*
X285156000Y-41659000D01*
G75*
G02*
X285008500Y-41511500I0J147500D01*
G01*
X285008500Y-41216500D01*
G75*
G02*
X285156000Y-41069000I147500J0D01*
G01*
G37*
G36*
G01*
X285156000Y-40099000D02*
X285501000Y-40099000D01*
G75*
G02*
X285648500Y-40246500I0J-147500D01*
G01*
X285648500Y-40541500D01*
G75*
G02*
X285501000Y-40689000I-147500J0D01*
G01*
X285156000Y-40689000D01*
G75*
G02*
X285008500Y-40541500I0J147500D01*
G01*
X285008500Y-40246500D01*
G75*
G02*
X285156000Y-40099000I147500J0D01*
G01*
G37*
G36*
G01*
X265652500Y-41635000D02*
X265307500Y-41635000D01*
G75*
G02*
X265160000Y-41487500I0J147500D01*
G01*
X265160000Y-41192500D01*
G75*
G02*
X265307500Y-41045000I147500J0D01*
G01*
X265652500Y-41045000D01*
G75*
G02*
X265800000Y-41192500I0J-147500D01*
G01*
X265800000Y-41487500D01*
G75*
G02*
X265652500Y-41635000I-147500J0D01*
G01*
G37*
G36*
G01*
X265652500Y-40665000D02*
X265307500Y-40665000D01*
G75*
G02*
X265160000Y-40517500I0J147500D01*
G01*
X265160000Y-40222500D01*
G75*
G02*
X265307500Y-40075000I147500J0D01*
G01*
X265652500Y-40075000D01*
G75*
G02*
X265800000Y-40222500I0J-147500D01*
G01*
X265800000Y-40517500D01*
G75*
G02*
X265652500Y-40665000I-147500J0D01*
G01*
G37*
G36*
G01*
X263780000Y-40197500D02*
X263780000Y-40542500D01*
G75*
G02*
X263632500Y-40690000I-147500J0D01*
G01*
X263337500Y-40690000D01*
G75*
G02*
X263190000Y-40542500I0J147500D01*
G01*
X263190000Y-40197500D01*
G75*
G02*
X263337500Y-40050000I147500J0D01*
G01*
X263632500Y-40050000D01*
G75*
G02*
X263780000Y-40197500I0J-147500D01*
G01*
G37*
G36*
G01*
X264750000Y-40197500D02*
X264750000Y-40542500D01*
G75*
G02*
X264602500Y-40690000I-147500J0D01*
G01*
X264307500Y-40690000D01*
G75*
G02*
X264160000Y-40542500I0J147500D01*
G01*
X264160000Y-40197500D01*
G75*
G02*
X264307500Y-40050000I147500J0D01*
G01*
X264602500Y-40050000D01*
G75*
G02*
X264750000Y-40197500I0J-147500D01*
G01*
G37*
D28*
X267880000Y-72220000D03*
X268380000Y-72220000D03*
X268880000Y-72220000D03*
X269380000Y-72220000D03*
X269380000Y-74620000D03*
X268880000Y-74620000D03*
X268380000Y-74620000D03*
X267880000Y-74620000D03*
D29*
G36*
X267830000Y-73520000D02*
G01*
X267830000Y-73420000D01*
X267930000Y-73320000D01*
X269430000Y-73320000D01*
X269430000Y-73520000D01*
X267830000Y-73520000D01*
G37*
G36*
G01*
X279810000Y-54710000D02*
X279470000Y-54710000D01*
G75*
G02*
X279330000Y-54570000I0J140000D01*
G01*
X279330000Y-54290000D01*
G75*
G02*
X279470000Y-54150000I140000J0D01*
G01*
X279810000Y-54150000D01*
G75*
G02*
X279950000Y-54290000I0J-140000D01*
G01*
X279950000Y-54570000D01*
G75*
G02*
X279810000Y-54710000I-140000J0D01*
G01*
G37*
G36*
G01*
X279810000Y-53750000D02*
X279470000Y-53750000D01*
G75*
G02*
X279330000Y-53610000I0J140000D01*
G01*
X279330000Y-53330000D01*
G75*
G02*
X279470000Y-53190000I140000J0D01*
G01*
X279810000Y-53190000D01*
G75*
G02*
X279950000Y-53330000I0J-140000D01*
G01*
X279950000Y-53610000D01*
G75*
G02*
X279810000Y-53750000I-140000J0D01*
G01*
G37*
G36*
G01*
X283350000Y-53750000D02*
X283010000Y-53750000D01*
G75*
G02*
X282870000Y-53610000I0J140000D01*
G01*
X282870000Y-53330000D01*
G75*
G02*
X283010000Y-53190000I140000J0D01*
G01*
X283350000Y-53190000D01*
G75*
G02*
X283490000Y-53330000I0J-140000D01*
G01*
X283490000Y-53610000D01*
G75*
G02*
X283350000Y-53750000I-140000J0D01*
G01*
G37*
G36*
G01*
X283350000Y-54710000D02*
X283010000Y-54710000D01*
G75*
G02*
X282870000Y-54570000I0J140000D01*
G01*
X282870000Y-54290000D01*
G75*
G02*
X283010000Y-54150000I140000J0D01*
G01*
X283350000Y-54150000D01*
G75*
G02*
X283490000Y-54290000I0J-140000D01*
G01*
X283490000Y-54570000D01*
G75*
G02*
X283350000Y-54710000I-140000J0D01*
G01*
G37*
D30*
X263806726Y-29773274D03*
X262640000Y-29290000D03*
X261473274Y-29773274D03*
X260990000Y-30940000D03*
X261473274Y-32106726D03*
X262640000Y-32590000D03*
X263806726Y-32106726D03*
X264290000Y-30940000D03*
D31*
X262640000Y-30940000D03*
X273990000Y-72400000D03*
D30*
X275640000Y-72400000D03*
X275156726Y-73566726D03*
X273990000Y-74050000D03*
X272823274Y-73566726D03*
X272340000Y-72400000D03*
X272823274Y-71233274D03*
X273990000Y-70750000D03*
X275156726Y-71233274D03*
D31*
X285460000Y-30900000D03*
D30*
X287110000Y-30900000D03*
X286626726Y-32066726D03*
X285460000Y-32550000D03*
X284293274Y-32066726D03*
X283810000Y-30900000D03*
X284293274Y-29733274D03*
X285460000Y-29250000D03*
X286626726Y-29733274D03*
D32*
X275240000Y-54180000D03*
X277140000Y-54180000D03*
X276190000Y-56180000D03*
G36*
G01*
X275510000Y-52635000D02*
X275510000Y-53005000D01*
G75*
G02*
X275375000Y-53140000I-135000J0D01*
G01*
X275105000Y-53140000D01*
G75*
G02*
X274970000Y-53005000I0J135000D01*
G01*
X274970000Y-52635000D01*
G75*
G02*
X275105000Y-52500000I135000J0D01*
G01*
X275375000Y-52500000D01*
G75*
G02*
X275510000Y-52635000I0J-135000D01*
G01*
G37*
G36*
G01*
X276530000Y-52635000D02*
X276530000Y-53005000D01*
G75*
G02*
X276395000Y-53140000I-135000J0D01*
G01*
X276125000Y-53140000D01*
G75*
G02*
X275990000Y-53005000I0J135000D01*
G01*
X275990000Y-52635000D01*
G75*
G02*
X276125000Y-52500000I135000J0D01*
G01*
X276395000Y-52500000D01*
G75*
G02*
X276530000Y-52635000I0J-135000D01*
G01*
G37*
G36*
G01*
X273696500Y-32458997D02*
X273696500Y-35359003D01*
G75*
G02*
X273446503Y-35609000I-249997J0D01*
G01*
X272821497Y-35609000D01*
G75*
G02*
X272571500Y-35359003I0J249997D01*
G01*
X272571500Y-32458997D01*
G75*
G02*
X272821497Y-32209000I249997J0D01*
G01*
X273446503Y-32209000D01*
G75*
G02*
X273696500Y-32458997I0J-249997D01*
G01*
G37*
G36*
G01*
X269421500Y-32458997D02*
X269421500Y-35359003D01*
G75*
G02*
X269171503Y-35609000I-249997J0D01*
G01*
X268546497Y-35609000D01*
G75*
G02*
X268296500Y-35359003I0J249997D01*
G01*
X268296500Y-32458997D01*
G75*
G02*
X268546497Y-32209000I249997J0D01*
G01*
X269171503Y-32209000D01*
G75*
G02*
X269421500Y-32458997I0J-249997D01*
G01*
G37*
D33*
X278300000Y-34030000D03*
X275000000Y-34030000D03*
G36*
G01*
X275817500Y-44096000D02*
X275817500Y-44296000D01*
G75*
G02*
X275717500Y-44396000I-100000J0D01*
G01*
X275457500Y-44396000D01*
G75*
G02*
X275357500Y-44296000I0J100000D01*
G01*
X275357500Y-44096000D01*
G75*
G02*
X275457500Y-43996000I100000J0D01*
G01*
X275717500Y-43996000D01*
G75*
G02*
X275817500Y-44096000I0J-100000D01*
G01*
G37*
G36*
G01*
X276457500Y-44096000D02*
X276457500Y-44296000D01*
G75*
G02*
X276357500Y-44396000I-100000J0D01*
G01*
X276097500Y-44396000D01*
G75*
G02*
X275997500Y-44296000I0J100000D01*
G01*
X275997500Y-44096000D01*
G75*
G02*
X276097500Y-43996000I100000J0D01*
G01*
X276357500Y-43996000D01*
G75*
G02*
X276457500Y-44096000I0J-100000D01*
G01*
G37*
G36*
G01*
X264953660Y-44350280D02*
X264753660Y-44350280D01*
G75*
G02*
X264653660Y-44250280I0J100000D01*
G01*
X264653660Y-43990280D01*
G75*
G02*
X264753660Y-43890280I100000J0D01*
G01*
X264953660Y-43890280D01*
G75*
G02*
X265053660Y-43990280I0J-100000D01*
G01*
X265053660Y-44250280D01*
G75*
G02*
X264953660Y-44350280I-100000J0D01*
G01*
G37*
G36*
G01*
X264953660Y-43710280D02*
X264753660Y-43710280D01*
G75*
G02*
X264653660Y-43610280I0J100000D01*
G01*
X264653660Y-43350280D01*
G75*
G02*
X264753660Y-43250280I100000J0D01*
G01*
X264953660Y-43250280D01*
G75*
G02*
X265053660Y-43350280I0J-100000D01*
G01*
X265053660Y-43610280D01*
G75*
G02*
X264953660Y-43710280I-100000J0D01*
G01*
G37*
G36*
G01*
X264992000Y-38800500D02*
X265192000Y-38800500D01*
G75*
G02*
X265292000Y-38900500I0J-100000D01*
G01*
X265292000Y-39160500D01*
G75*
G02*
X265192000Y-39260500I-100000J0D01*
G01*
X264992000Y-39260500D01*
G75*
G02*
X264892000Y-39160500I0J100000D01*
G01*
X264892000Y-38900500D01*
G75*
G02*
X264992000Y-38800500I100000J0D01*
G01*
G37*
G36*
G01*
X264992000Y-38160500D02*
X265192000Y-38160500D01*
G75*
G02*
X265292000Y-38260500I0J-100000D01*
G01*
X265292000Y-38520500D01*
G75*
G02*
X265192000Y-38620500I-100000J0D01*
G01*
X264992000Y-38620500D01*
G75*
G02*
X264892000Y-38520500I0J100000D01*
G01*
X264892000Y-38260500D01*
G75*
G02*
X264992000Y-38160500I100000J0D01*
G01*
G37*
G36*
G01*
X262663660Y-44340280D02*
X262463660Y-44340280D01*
G75*
G02*
X262363660Y-44240280I0J100000D01*
G01*
X262363660Y-43980280D01*
G75*
G02*
X262463660Y-43880280I100000J0D01*
G01*
X262663660Y-43880280D01*
G75*
G02*
X262763660Y-43980280I0J-100000D01*
G01*
X262763660Y-44240280D01*
G75*
G02*
X262663660Y-44340280I-100000J0D01*
G01*
G37*
G36*
G01*
X262663660Y-43700280D02*
X262463660Y-43700280D01*
G75*
G02*
X262363660Y-43600280I0J100000D01*
G01*
X262363660Y-43340280D01*
G75*
G02*
X262463660Y-43240280I100000J0D01*
G01*
X262663660Y-43240280D01*
G75*
G02*
X262763660Y-43340280I0J-100000D01*
G01*
X262763660Y-43600280D01*
G75*
G02*
X262663660Y-43700280I-100000J0D01*
G01*
G37*
G36*
G01*
X262706000Y-38800500D02*
X262906000Y-38800500D01*
G75*
G02*
X263006000Y-38900500I0J-100000D01*
G01*
X263006000Y-39160500D01*
G75*
G02*
X262906000Y-39260500I-100000J0D01*
G01*
X262706000Y-39260500D01*
G75*
G02*
X262606000Y-39160500I0J100000D01*
G01*
X262606000Y-38900500D01*
G75*
G02*
X262706000Y-38800500I100000J0D01*
G01*
G37*
G36*
G01*
X262706000Y-38160500D02*
X262906000Y-38160500D01*
G75*
G02*
X263006000Y-38260500I0J-100000D01*
G01*
X263006000Y-38520500D01*
G75*
G02*
X262906000Y-38620500I-100000J0D01*
G01*
X262706000Y-38620500D01*
G75*
G02*
X262606000Y-38520500I0J100000D01*
G01*
X262606000Y-38260500D01*
G75*
G02*
X262706000Y-38160500I100000J0D01*
G01*
G37*
G36*
G01*
X275458500Y-41040000D02*
X275658500Y-41040000D01*
G75*
G02*
X275758500Y-41140000I0J-100000D01*
G01*
X275758500Y-41400000D01*
G75*
G02*
X275658500Y-41500000I-100000J0D01*
G01*
X275458500Y-41500000D01*
G75*
G02*
X275358500Y-41400000I0J100000D01*
G01*
X275358500Y-41140000D01*
G75*
G02*
X275458500Y-41040000I100000J0D01*
G01*
G37*
G36*
G01*
X275458500Y-41680000D02*
X275658500Y-41680000D01*
G75*
G02*
X275758500Y-41780000I0J-100000D01*
G01*
X275758500Y-42040000D01*
G75*
G02*
X275658500Y-42140000I-100000J0D01*
G01*
X275458500Y-42140000D01*
G75*
G02*
X275358500Y-42040000I0J100000D01*
G01*
X275358500Y-41780000D01*
G75*
G02*
X275458500Y-41680000I100000J0D01*
G01*
G37*
G36*
G01*
X265931160Y-43317780D02*
X265931160Y-43517780D01*
G75*
G02*
X265831160Y-43617780I-100000J0D01*
G01*
X265571160Y-43617780D01*
G75*
G02*
X265471160Y-43517780I0J100000D01*
G01*
X265471160Y-43317780D01*
G75*
G02*
X265571160Y-43217780I100000J0D01*
G01*
X265831160Y-43217780D01*
G75*
G02*
X265931160Y-43317780I0J-100000D01*
G01*
G37*
G36*
G01*
X266571160Y-43317780D02*
X266571160Y-43517780D01*
G75*
G02*
X266471160Y-43617780I-100000J0D01*
G01*
X266211160Y-43617780D01*
G75*
G02*
X266111160Y-43517780I0J100000D01*
G01*
X266111160Y-43317780D01*
G75*
G02*
X266211160Y-43217780I100000J0D01*
G01*
X266471160Y-43217780D01*
G75*
G02*
X266571160Y-43317780I0J-100000D01*
G01*
G37*
G36*
G01*
X266790000Y-38250000D02*
X266790000Y-38450000D01*
G75*
G02*
X266690000Y-38550000I-100000J0D01*
G01*
X266430000Y-38550000D01*
G75*
G02*
X266330000Y-38450000I0J100000D01*
G01*
X266330000Y-38250000D01*
G75*
G02*
X266430000Y-38150000I100000J0D01*
G01*
X266690000Y-38150000D01*
G75*
G02*
X266790000Y-38250000I0J-100000D01*
G01*
G37*
G36*
G01*
X266150000Y-38250000D02*
X266150000Y-38450000D01*
G75*
G02*
X266050000Y-38550000I-100000J0D01*
G01*
X265790000Y-38550000D01*
G75*
G02*
X265690000Y-38450000I0J100000D01*
G01*
X265690000Y-38250000D01*
G75*
G02*
X265790000Y-38150000I100000J0D01*
G01*
X266050000Y-38150000D01*
G75*
G02*
X266150000Y-38250000I0J-100000D01*
G01*
G37*
G36*
G01*
X267292340Y-44313860D02*
X267092340Y-44313860D01*
G75*
G02*
X266992340Y-44213860I0J100000D01*
G01*
X266992340Y-43953860D01*
G75*
G02*
X267092340Y-43853860I100000J0D01*
G01*
X267292340Y-43853860D01*
G75*
G02*
X267392340Y-43953860I0J-100000D01*
G01*
X267392340Y-44213860D01*
G75*
G02*
X267292340Y-44313860I-100000J0D01*
G01*
G37*
G36*
G01*
X267292340Y-43673860D02*
X267092340Y-43673860D01*
G75*
G02*
X266992340Y-43573860I0J100000D01*
G01*
X266992340Y-43313860D01*
G75*
G02*
X267092340Y-43213860I100000J0D01*
G01*
X267292340Y-43213860D01*
G75*
G02*
X267392340Y-43313860I0J-100000D01*
G01*
X267392340Y-43573860D01*
G75*
G02*
X267292340Y-43673860I-100000J0D01*
G01*
G37*
G36*
G01*
X275658500Y-40354000D02*
X275658500Y-40554000D01*
G75*
G02*
X275558500Y-40654000I-100000J0D01*
G01*
X275298500Y-40654000D01*
G75*
G02*
X275198500Y-40554000I0J100000D01*
G01*
X275198500Y-40354000D01*
G75*
G02*
X275298500Y-40254000I100000J0D01*
G01*
X275558500Y-40254000D01*
G75*
G02*
X275658500Y-40354000I0J-100000D01*
G01*
G37*
G36*
G01*
X275018500Y-40354000D02*
X275018500Y-40554000D01*
G75*
G02*
X274918500Y-40654000I-100000J0D01*
G01*
X274658500Y-40654000D01*
G75*
G02*
X274558500Y-40554000I0J100000D01*
G01*
X274558500Y-40354000D01*
G75*
G02*
X274658500Y-40254000I100000J0D01*
G01*
X274918500Y-40254000D01*
G75*
G02*
X275018500Y-40354000I0J-100000D01*
G01*
G37*
G36*
G01*
X273980000Y-45400000D02*
X274180000Y-45400000D01*
G75*
G02*
X274280000Y-45500000I0J-100000D01*
G01*
X274280000Y-45760000D01*
G75*
G02*
X274180000Y-45860000I-100000J0D01*
G01*
X273980000Y-45860000D01*
G75*
G02*
X273880000Y-45760000I0J100000D01*
G01*
X273880000Y-45500000D01*
G75*
G02*
X273980000Y-45400000I100000J0D01*
G01*
G37*
G36*
G01*
X273980000Y-44760000D02*
X274180000Y-44760000D01*
G75*
G02*
X274280000Y-44860000I0J-100000D01*
G01*
X274280000Y-45120000D01*
G75*
G02*
X274180000Y-45220000I-100000J0D01*
G01*
X273980000Y-45220000D01*
G75*
G02*
X273880000Y-45120000I0J100000D01*
G01*
X273880000Y-44860000D01*
G75*
G02*
X273980000Y-44760000I100000J0D01*
G01*
G37*
G36*
G01*
X275690000Y-39859000D02*
X275490000Y-39859000D01*
G75*
G02*
X275390000Y-39759000I0J100000D01*
G01*
X275390000Y-39499000D01*
G75*
G02*
X275490000Y-39399000I100000J0D01*
G01*
X275690000Y-39399000D01*
G75*
G02*
X275790000Y-39499000I0J-100000D01*
G01*
X275790000Y-39759000D01*
G75*
G02*
X275690000Y-39859000I-100000J0D01*
G01*
G37*
G36*
G01*
X275690000Y-39219000D02*
X275490000Y-39219000D01*
G75*
G02*
X275390000Y-39119000I0J100000D01*
G01*
X275390000Y-38859000D01*
G75*
G02*
X275490000Y-38759000I100000J0D01*
G01*
X275690000Y-38759000D01*
G75*
G02*
X275790000Y-38859000I0J-100000D01*
G01*
X275790000Y-39119000D01*
G75*
G02*
X275690000Y-39219000I-100000J0D01*
G01*
G37*
G36*
G01*
X273260000Y-48520000D02*
X273260000Y-48320000D01*
G75*
G02*
X273360000Y-48220000I100000J0D01*
G01*
X273620000Y-48220000D01*
G75*
G02*
X273720000Y-48320000I0J-100000D01*
G01*
X273720000Y-48520000D01*
G75*
G02*
X273620000Y-48620000I-100000J0D01*
G01*
X273360000Y-48620000D01*
G75*
G02*
X273260000Y-48520000I0J100000D01*
G01*
G37*
G36*
G01*
X273900000Y-48520000D02*
X273900000Y-48320000D01*
G75*
G02*
X274000000Y-48220000I100000J0D01*
G01*
X274260000Y-48220000D01*
G75*
G02*
X274360000Y-48320000I0J-100000D01*
G01*
X274360000Y-48520000D01*
G75*
G02*
X274260000Y-48620000I-100000J0D01*
G01*
X274000000Y-48620000D01*
G75*
G02*
X273900000Y-48520000I0J100000D01*
G01*
G37*
G36*
G01*
X273200000Y-44630000D02*
X273400000Y-44630000D01*
G75*
G02*
X273500000Y-44730000I0J-100000D01*
G01*
X273500000Y-44990000D01*
G75*
G02*
X273400000Y-45090000I-100000J0D01*
G01*
X273200000Y-45090000D01*
G75*
G02*
X273100000Y-44990000I0J100000D01*
G01*
X273100000Y-44730000D01*
G75*
G02*
X273200000Y-44630000I100000J0D01*
G01*
G37*
G36*
G01*
X273200000Y-43990000D02*
X273400000Y-43990000D01*
G75*
G02*
X273500000Y-44090000I0J-100000D01*
G01*
X273500000Y-44350000D01*
G75*
G02*
X273400000Y-44450000I-100000J0D01*
G01*
X273200000Y-44450000D01*
G75*
G02*
X273100000Y-44350000I0J100000D01*
G01*
X273100000Y-44090000D01*
G75*
G02*
X273200000Y-43990000I100000J0D01*
G01*
G37*
G36*
G01*
X273908500Y-41674000D02*
X274108500Y-41674000D01*
G75*
G02*
X274208500Y-41774000I0J-100000D01*
G01*
X274208500Y-42034000D01*
G75*
G02*
X274108500Y-42134000I-100000J0D01*
G01*
X273908500Y-42134000D01*
G75*
G02*
X273808500Y-42034000I0J100000D01*
G01*
X273808500Y-41774000D01*
G75*
G02*
X273908500Y-41674000I100000J0D01*
G01*
G37*
G36*
G01*
X273908500Y-41034000D02*
X274108500Y-41034000D01*
G75*
G02*
X274208500Y-41134000I0J-100000D01*
G01*
X274208500Y-41394000D01*
G75*
G02*
X274108500Y-41494000I-100000J0D01*
G01*
X273908500Y-41494000D01*
G75*
G02*
X273808500Y-41394000I0J100000D01*
G01*
X273808500Y-41134000D01*
G75*
G02*
X273908500Y-41034000I100000J0D01*
G01*
G37*
G36*
G01*
X263155160Y-43547780D02*
X263155160Y-43347780D01*
G75*
G02*
X263255160Y-43247780I100000J0D01*
G01*
X263515160Y-43247780D01*
G75*
G02*
X263615160Y-43347780I0J-100000D01*
G01*
X263615160Y-43547780D01*
G75*
G02*
X263515160Y-43647780I-100000J0D01*
G01*
X263255160Y-43647780D01*
G75*
G02*
X263155160Y-43547780I0J100000D01*
G01*
G37*
G36*
G01*
X263795160Y-43547780D02*
X263795160Y-43347780D01*
G75*
G02*
X263895160Y-43247780I100000J0D01*
G01*
X264155160Y-43247780D01*
G75*
G02*
X264255160Y-43347780I0J-100000D01*
G01*
X264255160Y-43547780D01*
G75*
G02*
X264155160Y-43647780I-100000J0D01*
G01*
X263895160Y-43647780D01*
G75*
G02*
X263795160Y-43547780I0J100000D01*
G01*
G37*
G36*
G01*
X264045000Y-38450000D02*
X264045000Y-38250000D01*
G75*
G02*
X264145000Y-38150000I100000J0D01*
G01*
X264405000Y-38150000D01*
G75*
G02*
X264505000Y-38250000I0J-100000D01*
G01*
X264505000Y-38450000D01*
G75*
G02*
X264405000Y-38550000I-100000J0D01*
G01*
X264145000Y-38550000D01*
G75*
G02*
X264045000Y-38450000I0J100000D01*
G01*
G37*
G36*
G01*
X263405000Y-38450000D02*
X263405000Y-38250000D01*
G75*
G02*
X263505000Y-38150000I100000J0D01*
G01*
X263765000Y-38150000D01*
G75*
G02*
X263865000Y-38250000I0J-100000D01*
G01*
X263865000Y-38450000D01*
G75*
G02*
X263765000Y-38550000I-100000J0D01*
G01*
X263505000Y-38550000D01*
G75*
G02*
X263405000Y-38450000I0J100000D01*
G01*
G37*
G36*
G01*
X275128500Y-44854000D02*
X275128500Y-45054000D01*
G75*
G02*
X275028500Y-45154000I-100000J0D01*
G01*
X274768500Y-45154000D01*
G75*
G02*
X274668500Y-45054000I0J100000D01*
G01*
X274668500Y-44854000D01*
G75*
G02*
X274768500Y-44754000I100000J0D01*
G01*
X275028500Y-44754000D01*
G75*
G02*
X275128500Y-44854000I0J-100000D01*
G01*
G37*
G36*
G01*
X275768500Y-44854000D02*
X275768500Y-45054000D01*
G75*
G02*
X275668500Y-45154000I-100000J0D01*
G01*
X275408500Y-45154000D01*
G75*
G02*
X275308500Y-45054000I0J100000D01*
G01*
X275308500Y-44854000D01*
G75*
G02*
X275408500Y-44754000I100000J0D01*
G01*
X275668500Y-44754000D01*
G75*
G02*
X275768500Y-44854000I0J-100000D01*
G01*
G37*
G36*
G01*
X276280000Y-39590000D02*
X276480000Y-39590000D01*
G75*
G02*
X276580000Y-39690000I0J-100000D01*
G01*
X276580000Y-39950000D01*
G75*
G02*
X276480000Y-40050000I-100000J0D01*
G01*
X276280000Y-40050000D01*
G75*
G02*
X276180000Y-39950000I0J100000D01*
G01*
X276180000Y-39690000D01*
G75*
G02*
X276280000Y-39590000I100000J0D01*
G01*
G37*
G36*
G01*
X276280000Y-40230000D02*
X276480000Y-40230000D01*
G75*
G02*
X276580000Y-40330000I0J-100000D01*
G01*
X276580000Y-40590000D01*
G75*
G02*
X276480000Y-40690000I-100000J0D01*
G01*
X276280000Y-40690000D01*
G75*
G02*
X276180000Y-40590000I0J100000D01*
G01*
X276180000Y-40330000D01*
G75*
G02*
X276280000Y-40230000I100000J0D01*
G01*
G37*
G36*
G01*
X276029326Y-45528588D02*
X276170748Y-45387166D01*
G75*
G02*
X276312170Y-45387166I70711J-70711D01*
G01*
X276496018Y-45571014D01*
G75*
G02*
X276496018Y-45712436I-70711J-70711D01*
G01*
X276354596Y-45853858D01*
G75*
G02*
X276213174Y-45853858I-70711J70711D01*
G01*
X276029326Y-45670010D01*
G75*
G02*
X276029326Y-45528588I70711J70711D01*
G01*
G37*
G36*
G01*
X276481874Y-45981136D02*
X276623296Y-45839714D01*
G75*
G02*
X276764718Y-45839714I70711J-70711D01*
G01*
X276948566Y-46023562D01*
G75*
G02*
X276948566Y-46164984I-70711J-70711D01*
G01*
X276807144Y-46306406D01*
G75*
G02*
X276665722Y-46306406I-70711J70711D01*
G01*
X276481874Y-46122558D01*
G75*
G02*
X276481874Y-45981136I70711J70711D01*
G01*
G37*
G36*
G01*
X275458500Y-43154000D02*
X275658500Y-43154000D01*
G75*
G02*
X275758500Y-43254000I0J-100000D01*
G01*
X275758500Y-43514000D01*
G75*
G02*
X275658500Y-43614000I-100000J0D01*
G01*
X275458500Y-43614000D01*
G75*
G02*
X275358500Y-43514000I0J100000D01*
G01*
X275358500Y-43254000D01*
G75*
G02*
X275458500Y-43154000I100000J0D01*
G01*
G37*
G36*
G01*
X275458500Y-42514000D02*
X275658500Y-42514000D01*
G75*
G02*
X275758500Y-42614000I0J-100000D01*
G01*
X275758500Y-42874000D01*
G75*
G02*
X275658500Y-42974000I-100000J0D01*
G01*
X275458500Y-42974000D01*
G75*
G02*
X275358500Y-42874000I0J100000D01*
G01*
X275358500Y-42614000D01*
G75*
G02*
X275458500Y-42514000I100000J0D01*
G01*
G37*
G36*
G01*
X274688500Y-41034000D02*
X274888500Y-41034000D01*
G75*
G02*
X274988500Y-41134000I0J-100000D01*
G01*
X274988500Y-41394000D01*
G75*
G02*
X274888500Y-41494000I-100000J0D01*
G01*
X274688500Y-41494000D01*
G75*
G02*
X274588500Y-41394000I0J100000D01*
G01*
X274588500Y-41134000D01*
G75*
G02*
X274688500Y-41034000I100000J0D01*
G01*
G37*
G36*
G01*
X274688500Y-41674000D02*
X274888500Y-41674000D01*
G75*
G02*
X274988500Y-41774000I0J-100000D01*
G01*
X274988500Y-42034000D01*
G75*
G02*
X274888500Y-42134000I-100000J0D01*
G01*
X274688500Y-42134000D01*
G75*
G02*
X274588500Y-42034000I0J100000D01*
G01*
X274588500Y-41774000D01*
G75*
G02*
X274688500Y-41674000I100000J0D01*
G01*
G37*
G36*
G01*
X265591200Y-43170600D02*
X265791200Y-43170600D01*
G75*
G02*
X265891200Y-43270600I0J-100000D01*
G01*
X265891200Y-43530600D01*
G75*
G02*
X265791200Y-43630600I-100000J0D01*
G01*
X265591200Y-43630600D01*
G75*
G02*
X265491200Y-43530600I0J100000D01*
G01*
X265491200Y-43270600D01*
G75*
G02*
X265591200Y-43170600I100000J0D01*
G01*
G37*
G36*
G01*
X265591200Y-42530600D02*
X265791200Y-42530600D01*
G75*
G02*
X265891200Y-42630600I0J-100000D01*
G01*
X265891200Y-42890600D01*
G75*
G02*
X265791200Y-42990600I-100000J0D01*
G01*
X265591200Y-42990600D01*
G75*
G02*
X265491200Y-42890600I0J100000D01*
G01*
X265491200Y-42630600D01*
G75*
G02*
X265591200Y-42530600I100000J0D01*
G01*
G37*
G36*
G01*
X274688500Y-38764000D02*
X274888500Y-38764000D01*
G75*
G02*
X274988500Y-38864000I0J-100000D01*
G01*
X274988500Y-39124000D01*
G75*
G02*
X274888500Y-39224000I-100000J0D01*
G01*
X274688500Y-39224000D01*
G75*
G02*
X274588500Y-39124000I0J100000D01*
G01*
X274588500Y-38864000D01*
G75*
G02*
X274688500Y-38764000I100000J0D01*
G01*
G37*
G36*
G01*
X274688500Y-39404000D02*
X274888500Y-39404000D01*
G75*
G02*
X274988500Y-39504000I0J-100000D01*
G01*
X274988500Y-39764000D01*
G75*
G02*
X274888500Y-39864000I-100000J0D01*
G01*
X274688500Y-39864000D01*
G75*
G02*
X274588500Y-39764000I0J100000D01*
G01*
X274588500Y-39504000D01*
G75*
G02*
X274688500Y-39404000I100000J0D01*
G01*
G37*
D34*
X273079500Y-79568000D03*
X268829500Y-79568000D03*
D35*
X268700001Y-38385300D03*
X269100000Y-38385300D03*
X269500000Y-38385300D03*
X269899999Y-38385300D03*
X269899999Y-39934700D03*
X269500000Y-39934700D03*
X269100000Y-39934700D03*
X268700001Y-39934700D03*
D36*
X269300000Y-39160000D03*
G36*
G01*
X274170000Y-47200000D02*
X273970000Y-47200000D01*
G75*
G02*
X273870000Y-47100000I0J100000D01*
G01*
X273870000Y-46840000D01*
G75*
G02*
X273970000Y-46740000I100000J0D01*
G01*
X274170000Y-46740000D01*
G75*
G02*
X274270000Y-46840000I0J-100000D01*
G01*
X274270000Y-47100000D01*
G75*
G02*
X274170000Y-47200000I-100000J0D01*
G01*
G37*
G36*
G01*
X274170000Y-47840000D02*
X273970000Y-47840000D01*
G75*
G02*
X273870000Y-47740000I0J100000D01*
G01*
X273870000Y-47480000D01*
G75*
G02*
X273970000Y-47380000I100000J0D01*
G01*
X274170000Y-47380000D01*
G75*
G02*
X274270000Y-47480000I0J-100000D01*
G01*
X274270000Y-47740000D01*
G75*
G02*
X274170000Y-47840000I-100000J0D01*
G01*
G37*
G36*
G01*
X274880000Y-43610000D02*
X274680000Y-43610000D01*
G75*
G02*
X274580000Y-43510000I0J100000D01*
G01*
X274580000Y-43250000D01*
G75*
G02*
X274680000Y-43150000I100000J0D01*
G01*
X274880000Y-43150000D01*
G75*
G02*
X274980000Y-43250000I0J-100000D01*
G01*
X274980000Y-43510000D01*
G75*
G02*
X274880000Y-43610000I-100000J0D01*
G01*
G37*
G36*
G01*
X274880000Y-42970000D02*
X274680000Y-42970000D01*
G75*
G02*
X274580000Y-42870000I0J100000D01*
G01*
X274580000Y-42610000D01*
G75*
G02*
X274680000Y-42510000I100000J0D01*
G01*
X274880000Y-42510000D01*
G75*
G02*
X274980000Y-42610000I0J-100000D01*
G01*
X274980000Y-42870000D01*
G75*
G02*
X274880000Y-42970000I-100000J0D01*
G01*
G37*
G36*
G01*
X280470000Y-53190000D02*
X280810000Y-53190000D01*
G75*
G02*
X280950000Y-53330000I0J-140000D01*
G01*
X280950000Y-53610000D01*
G75*
G02*
X280810000Y-53750000I-140000J0D01*
G01*
X280470000Y-53750000D01*
G75*
G02*
X280330000Y-53610000I0J140000D01*
G01*
X280330000Y-53330000D01*
G75*
G02*
X280470000Y-53190000I140000J0D01*
G01*
G37*
G36*
G01*
X280470000Y-54150000D02*
X280810000Y-54150000D01*
G75*
G02*
X280950000Y-54290000I0J-140000D01*
G01*
X280950000Y-54570000D01*
G75*
G02*
X280810000Y-54710000I-140000J0D01*
G01*
X280470000Y-54710000D01*
G75*
G02*
X280330000Y-54570000I0J140000D01*
G01*
X280330000Y-54290000D01*
G75*
G02*
X280470000Y-54150000I140000J0D01*
G01*
G37*
G36*
G01*
X273017780Y-38453620D02*
X273017780Y-38253620D01*
G75*
G02*
X273117780Y-38153620I100000J0D01*
G01*
X273377780Y-38153620D01*
G75*
G02*
X273477780Y-38253620I0J-100000D01*
G01*
X273477780Y-38453620D01*
G75*
G02*
X273377780Y-38553620I-100000J0D01*
G01*
X273117780Y-38553620D01*
G75*
G02*
X273017780Y-38453620I0J100000D01*
G01*
G37*
G36*
G01*
X273657780Y-38453620D02*
X273657780Y-38253620D01*
G75*
G02*
X273757780Y-38153620I100000J0D01*
G01*
X274017780Y-38153620D01*
G75*
G02*
X274117780Y-38253620I0J-100000D01*
G01*
X274117780Y-38453620D01*
G75*
G02*
X274017780Y-38553620I-100000J0D01*
G01*
X273757780Y-38553620D01*
G75*
G02*
X273657780Y-38453620I0J100000D01*
G01*
G37*
G36*
G01*
X275942928Y-46524350D02*
X276084350Y-46382928D01*
G75*
G02*
X276225772Y-46382928I70711J-70711D01*
G01*
X276409620Y-46566776D01*
G75*
G02*
X276409620Y-46708198I-70711J-70711D01*
G01*
X276268198Y-46849620D01*
G75*
G02*
X276126776Y-46849620I-70711J70711D01*
G01*
X275942928Y-46665772D01*
G75*
G02*
X275942928Y-46524350I70711J70711D01*
G01*
G37*
G36*
G01*
X275490380Y-46071802D02*
X275631802Y-45930380D01*
G75*
G02*
X275773224Y-45930380I70711J-70711D01*
G01*
X275957072Y-46114228D01*
G75*
G02*
X275957072Y-46255650I-70711J-70711D01*
G01*
X275815650Y-46397072D01*
G75*
G02*
X275674228Y-46397072I-70711J70711D01*
G01*
X275490380Y-46213224D01*
G75*
G02*
X275490380Y-46071802I70711J70711D01*
G01*
G37*
G36*
G01*
X274980000Y-44090000D02*
X274980000Y-44290000D01*
G75*
G02*
X274880000Y-44390000I-100000J0D01*
G01*
X274620000Y-44390000D01*
G75*
G02*
X274520000Y-44290000I0J100000D01*
G01*
X274520000Y-44090000D01*
G75*
G02*
X274620000Y-43990000I100000J0D01*
G01*
X274880000Y-43990000D01*
G75*
G02*
X274980000Y-44090000I0J-100000D01*
G01*
G37*
G36*
G01*
X274340000Y-44090000D02*
X274340000Y-44290000D01*
G75*
G02*
X274240000Y-44390000I-100000J0D01*
G01*
X273980000Y-44390000D01*
G75*
G02*
X273880000Y-44290000I0J100000D01*
G01*
X273880000Y-44090000D01*
G75*
G02*
X273980000Y-43990000I100000J0D01*
G01*
X274240000Y-43990000D01*
G75*
G02*
X274340000Y-44090000I0J-100000D01*
G01*
G37*
D34*
X279110000Y-79570000D03*
X274860000Y-79570000D03*
D37*
X261270000Y-48000000D03*
D38*
X288770000Y-44190000D03*
D39*
X267270000Y-51940000D03*
X267400000Y-36440000D03*
X282770000Y-36440000D03*
M02*
