G04 #@! TF.GenerationSoftware,KiCad,Pcbnew,(5.1.10)-1*
G04 #@! TF.CreationDate,2021-09-23T13:54:31+08:00*
G04 #@! TF.ProjectId,BeagleConnect Freedom,42656167-6c65-4436-9f6e-6e6563742046,B*
G04 #@! TF.SameCoordinates,Original*
G04 #@! TF.FileFunction,Soldermask,Top*
G04 #@! TF.FilePolarity,Negative*
%FSLAX46Y46*%
G04 Gerber Fmt 4.6, Leading zero omitted, Abs format (unit mm)*
G04 Created by KiCad (PCBNEW (5.1.10)-1) date 2021-09-23 13:54:31*
%MOMM*%
%LPD*%
G01*
G04 APERTURE LIST*
G04 #@! TA.AperFunction,Profile*
%ADD10C,0.050000*%
G04 #@! TD*
%ADD11R,5.150000X5.150000*%
%ADD12R,1.900000X1.000000*%
%ADD13R,0.600000X0.700000*%
%ADD14C,0.363000*%
%ADD15R,0.600000X1.160000*%
%ADD16C,0.600000*%
%ADD17R,0.300000X1.160000*%
%ADD18O,0.900000X1.700000*%
%ADD19O,0.900000X2.000000*%
%ADD20C,0.990600*%
%ADD21C,0.787400*%
%ADD22C,0.240000*%
%ADD23R,0.375000X0.350000*%
%ADD24R,0.350000X0.375000*%
%ADD25R,0.900000X0.800000*%
%ADD26R,1.100000X0.600000*%
%ADD27R,0.650000X1.060000*%
%ADD28R,1.400000X1.200000*%
%ADD29C,0.700000*%
%ADD30C,4.400000*%
%ADD31R,0.450000X0.700000*%
%ADD32R,0.650000X0.400000*%
%ADD33C,0.900000*%
%ADD34C,0.304800*%
G04 APERTURE END LIST*
D10*
X289279000Y-51088000D02*
G75*
G03*
X289279000Y-51088000I-550000J0D01*
G01*
X262609000Y-36441000D02*
G75*
G03*
X262609000Y-36441000I-550000J0D01*
G01*
X291863382Y-48158779D02*
X291863382Y-46158779D01*
X291863382Y-48158779D02*
G75*
G02*
X291363382Y-48658779I-500000J0D01*
G01*
X289863382Y-48658779D02*
X291363382Y-48658779D01*
X289363382Y-49158779D02*
G75*
G02*
X289863382Y-48658779I500000J0D01*
G01*
X289363382Y-49658779D02*
X289363382Y-49158779D01*
X289863382Y-50158779D02*
G75*
G02*
X289363382Y-49658779I0J500000D01*
G01*
X291363382Y-50158779D02*
X289863382Y-50158779D01*
X291363382Y-50158779D02*
G75*
G02*
X291863382Y-50658779I0J-500000D01*
G01*
X291863382Y-52158779D02*
X291863382Y-50658779D01*
X291863382Y-52158779D02*
G75*
G02*
X291363382Y-52658779I-500000J0D01*
G01*
X289863382Y-52658779D02*
X291363382Y-52658779D01*
X289363382Y-53158779D02*
G75*
G02*
X289863382Y-52658779I500000J0D01*
G01*
X289363382Y-53658779D02*
X289363382Y-53158779D01*
X289863382Y-54158779D02*
G75*
G02*
X289363382Y-53658779I0J500000D01*
G01*
X291363382Y-54158779D02*
X289863382Y-54158779D01*
X291363382Y-54158779D02*
G75*
G02*
X291863382Y-54658779I0J-500000D01*
G01*
X291863382Y-56158779D02*
X291863382Y-54658779D01*
X291863382Y-56158779D02*
G75*
G02*
X291363382Y-56658779I-500000J0D01*
G01*
X289863382Y-56658779D02*
X291363382Y-56658779D01*
X289363382Y-57158779D02*
G75*
G02*
X289863382Y-56658779I500000J0D01*
G01*
X289363382Y-57658779D02*
X289363382Y-57158779D01*
X289863382Y-58158779D02*
G75*
G02*
X289363382Y-57658779I0J500000D01*
G01*
X291363382Y-58158779D02*
X289863382Y-58158779D01*
X291363382Y-58158779D02*
G75*
G02*
X291863382Y-58658779I0J-500000D01*
G01*
X291863382Y-60158779D02*
X291863382Y-58658779D01*
X291863382Y-60158779D02*
G75*
G02*
X291363382Y-60658779I-500000J0D01*
G01*
X289863382Y-60658779D02*
X291363382Y-60658779D01*
X289363382Y-61158779D02*
G75*
G02*
X289863382Y-60658779I500000J0D01*
G01*
X289363382Y-61658779D02*
X289363382Y-61158779D01*
X289863382Y-62158779D02*
G75*
G02*
X289363382Y-61658779I0J500000D01*
G01*
X291363382Y-62158779D02*
X289863382Y-62158779D01*
X291363382Y-62158779D02*
G75*
G02*
X291863382Y-62658779I0J-500000D01*
G01*
X291863382Y-64158779D02*
X291863382Y-62658779D01*
X291863382Y-64158779D02*
G75*
G02*
X291363382Y-64658779I-500000J0D01*
G01*
X289863382Y-64658779D02*
X291363382Y-64658779D01*
X289363382Y-65158779D02*
G75*
G02*
X289863382Y-64658779I500000J0D01*
G01*
X289363382Y-65658779D02*
X289363382Y-65158779D01*
X289863382Y-66158779D02*
G75*
G02*
X289363382Y-65658779I0J500000D01*
G01*
X290863382Y-66158779D02*
X289863382Y-66158779D01*
X290863382Y-66158779D02*
G75*
G02*
X291363382Y-66658779I0J-500000D01*
G01*
X291363382Y-67708779D02*
X291363382Y-66658779D01*
X291363382Y-67708779D02*
G75*
G02*
X290863382Y-68208779I-500000J0D01*
G01*
X288713382Y-68208779D02*
X290863382Y-68208779D01*
X288463382Y-68458779D02*
G75*
G02*
X288713382Y-68208779I250000J0D01*
G01*
X288463382Y-69008779D02*
X288463382Y-68458779D01*
X288963382Y-69008779D02*
G75*
G02*
X288463382Y-69008779I-250000J0D01*
G01*
X288963382Y-68708779D02*
X288963382Y-69008779D01*
X290863382Y-68708779D02*
X288963382Y-68708779D01*
X290863382Y-68708779D02*
G75*
G02*
X291363382Y-69208779I0J-500000D01*
G01*
X291363382Y-70608779D02*
X291363382Y-69208779D01*
X291363382Y-70608779D02*
G75*
G02*
X290863382Y-71108779I-500000J0D01*
G01*
X288963382Y-71108779D02*
X290863382Y-71108779D01*
X288963382Y-70808779D02*
X288963382Y-71108779D01*
X288463382Y-70808779D02*
G75*
G02*
X288963382Y-70808779I250000J0D01*
G01*
X288463382Y-71358779D02*
X288463382Y-70808779D01*
X288713382Y-71608779D02*
G75*
G02*
X288463382Y-71358779I0J250000D01*
G01*
X290863382Y-71608779D02*
X288713382Y-71608779D01*
X290863382Y-71608779D02*
G75*
G02*
X291363382Y-72108779I0J-500000D01*
G01*
X291363382Y-73408779D02*
X291363382Y-72108779D01*
X291530049Y-73781457D02*
G75*
G02*
X291363382Y-73408779I333333J372678D01*
G01*
X291530049Y-73781457D02*
G75*
G02*
X291863382Y-74526813I-666667J-745356D01*
G01*
X291863382Y-76408779D02*
X291863382Y-74526813D01*
X291863381Y-76408779D02*
G75*
G02*
X286736109Y-82344968I-5999999J0D01*
G01*
X286736109Y-82344968D02*
G75*
G02*
X286163382Y-81850286I-72727J494682D01*
G01*
X286163382Y-81408779D02*
X286163382Y-81850286D01*
X285663382Y-80908779D02*
G75*
G02*
X286163382Y-81408779I0J-500000D01*
G01*
X285063382Y-80908779D02*
X285663382Y-80908779D01*
X284563382Y-81408779D02*
G75*
G02*
X285063382Y-80908779I500000J0D01*
G01*
X284563382Y-81908779D02*
X284563382Y-81408779D01*
X284563382Y-81908779D02*
G75*
G02*
X284063382Y-82408779I-500000J0D01*
G01*
X282371260Y-82408779D02*
X284063382Y-82408779D01*
X282371260Y-82408779D02*
G75*
G02*
X281417321Y-81708779I0J1000000D01*
G01*
X280463382Y-81008779D02*
G75*
G02*
X281417321Y-81708779I0J-1000000D01*
G01*
X267463382Y-81008779D02*
X280463382Y-81008779D01*
X266509443Y-81708779D02*
G75*
G02*
X267463382Y-81008779I953939J-300000D01*
G01*
X266509442Y-81708779D02*
G75*
G02*
X265555503Y-82408779I-953939J300000D01*
G01*
X263863382Y-82408779D02*
X265555503Y-82408779D01*
X263863382Y-82408779D02*
G75*
G02*
X263363382Y-81908779I0J500000D01*
G01*
X263363382Y-81408779D02*
X263363382Y-81908779D01*
X262863382Y-80908779D02*
G75*
G02*
X263363382Y-81408779I0J-500000D01*
G01*
X262263382Y-80908779D02*
X262863382Y-80908779D01*
X261763382Y-81408779D02*
G75*
G02*
X262263382Y-80908779I500000J0D01*
G01*
X261763382Y-81850286D02*
X261763382Y-81408779D01*
X261763382Y-81850287D02*
G75*
G02*
X261190654Y-82344968I-500000J1D01*
G01*
X261190655Y-82344969D02*
G75*
G02*
X256063382Y-76408779I872727J5936190D01*
G01*
X256063382Y-32208779D02*
X256063382Y-76408779D01*
X256063382Y-32208779D02*
G75*
G02*
X256563382Y-31708779I500000J0D01*
G01*
X257563382Y-31708779D02*
X256563382Y-31708779D01*
X258063382Y-31208779D02*
G75*
G02*
X257563382Y-31708779I-500000J0D01*
G01*
X258063382Y-30608779D02*
X258063382Y-31208779D01*
X257563382Y-30108779D02*
G75*
G02*
X258063382Y-30608779I0J-500000D01*
G01*
X256621874Y-30108779D02*
X257563382Y-30108779D01*
X256621874Y-30108778D02*
G75*
G02*
X256127192Y-29536052I0J499999D01*
G01*
X256127192Y-29536052D02*
G75*
G02*
X261190654Y-24472589I5936190J-872727D01*
G01*
X261190655Y-24472590D02*
G75*
G02*
X261763382Y-24967272I72727J-494682D01*
G01*
X261763382Y-25158779D02*
X261763382Y-24967272D01*
X262263382Y-25658779D02*
G75*
G02*
X261763382Y-25158779I0J500000D01*
G01*
X262863382Y-25658779D02*
X262263382Y-25658779D01*
X263363382Y-25158779D02*
G75*
G02*
X262863382Y-25658779I-500000J0D01*
G01*
X263363382Y-24908779D02*
X263363382Y-25158779D01*
X263363382Y-24908779D02*
G75*
G02*
X263863382Y-24408779I500000J0D01*
G01*
X284063382Y-24408779D02*
X263863382Y-24408779D01*
X284063382Y-24408779D02*
G75*
G02*
X284563382Y-24908779I0J-500000D01*
G01*
X284563382Y-25408779D02*
X284563382Y-24908779D01*
X285063382Y-25908779D02*
G75*
G02*
X284563382Y-25408779I0J500000D01*
G01*
X285663382Y-25908779D02*
X285063382Y-25908779D01*
X286163382Y-25408779D02*
G75*
G02*
X285663382Y-25908779I-500000J0D01*
G01*
X286163382Y-24967272D02*
X286163382Y-25408779D01*
X286163382Y-24967272D02*
G75*
G02*
X286736109Y-24472589I500000J0D01*
G01*
X286736109Y-24472589D02*
G75*
G02*
X291863382Y-30408779I-872727J-5936190D01*
G01*
X291863382Y-32290745D02*
X291863382Y-30408779D01*
X291863382Y-32290746D02*
G75*
G02*
X291530048Y-33036101I-1000000J1D01*
G01*
X291363382Y-33408779D02*
G75*
G02*
X291530048Y-33036101I500000J0D01*
G01*
X291363382Y-40158779D02*
X291363382Y-33408779D01*
X291363382Y-40158779D02*
G75*
G02*
X290863382Y-40658779I-500000J0D01*
G01*
X289863382Y-40658779D02*
X290863382Y-40658779D01*
X289363382Y-41158779D02*
G75*
G02*
X289863382Y-40658779I500000J0D01*
G01*
X289363382Y-41658779D02*
X289363382Y-41158779D01*
X289863382Y-42158779D02*
G75*
G02*
X289363382Y-41658779I0J500000D01*
G01*
X291363382Y-42158779D02*
X289863382Y-42158779D01*
X291363382Y-42158779D02*
G75*
G02*
X291863382Y-42658779I0J-500000D01*
G01*
X291863382Y-44658779D02*
X291863382Y-42658779D01*
X289863382Y-44658779D02*
X291863382Y-44658779D01*
X289363382Y-45158779D02*
G75*
G02*
X289863382Y-44658779I500000J0D01*
G01*
X289363382Y-45658779D02*
X289363382Y-45158779D01*
X289863382Y-46158779D02*
G75*
G02*
X289363382Y-45658779I0J500000D01*
G01*
X291863382Y-46158779D02*
X289863382Y-46158779D01*
X289363382Y-57658779D02*
X289363382Y-57158779D01*
X289863382Y-58158779D02*
G75*
G02*
X289363382Y-57658779I0J500000D01*
G01*
X291363382Y-58158779D02*
X289863382Y-58158779D01*
X291363382Y-58158779D02*
G75*
G02*
X291863382Y-58658779I0J-500000D01*
G01*
X291863382Y-60158779D02*
X291863382Y-58658779D01*
X291863382Y-60158779D02*
G75*
G02*
X291363382Y-60658779I-500000J0D01*
G01*
X289863382Y-60658779D02*
X291363382Y-60658779D01*
X289363382Y-61158779D02*
G75*
G02*
X289863382Y-60658779I500000J0D01*
G01*
X289363382Y-61658779D02*
X289363382Y-61158779D01*
X289863382Y-62158779D02*
G75*
G02*
X289363382Y-61658779I0J500000D01*
G01*
X291363382Y-62158779D02*
X289863382Y-62158779D01*
X291363382Y-62158779D02*
G75*
G02*
X291863382Y-62658779I0J-500000D01*
G01*
X291863382Y-64158779D02*
X291863382Y-62658779D01*
X291863382Y-64158779D02*
G75*
G02*
X291363382Y-64658779I-500000J0D01*
G01*
X289863382Y-64658779D02*
X291363382Y-64658779D01*
X289363382Y-65158779D02*
G75*
G02*
X289863382Y-64658779I500000J0D01*
G01*
X289363382Y-65658779D02*
X289363382Y-65158779D01*
X289863382Y-66158779D02*
G75*
G02*
X289363382Y-65658779I0J500000D01*
G01*
X290863382Y-66158779D02*
X289863382Y-66158779D01*
X290863382Y-66158779D02*
G75*
G02*
X291363382Y-66658779I0J-500000D01*
G01*
X291363382Y-67708779D02*
X291363382Y-66658779D01*
X291363382Y-67708779D02*
G75*
G02*
X290863382Y-68208779I-500000J0D01*
G01*
X288713382Y-68208779D02*
X290863382Y-68208779D01*
X288463382Y-68458779D02*
G75*
G02*
X288713382Y-68208779I250000J0D01*
G01*
X288463382Y-69008779D02*
X288463382Y-68458779D01*
X288963382Y-69008779D02*
G75*
G02*
X288463382Y-69008779I-250000J0D01*
G01*
X288963382Y-68708779D02*
X288963382Y-69008779D01*
X290863382Y-68708779D02*
X288963382Y-68708779D01*
X290863382Y-68708779D02*
G75*
G02*
X291363382Y-69208779I0J-500000D01*
G01*
X291363382Y-70608779D02*
X291363382Y-69208779D01*
X291363382Y-70608779D02*
G75*
G02*
X290863382Y-71108779I-500000J0D01*
G01*
X288963382Y-71108779D02*
X290863382Y-71108779D01*
X288963382Y-70808779D02*
X288963382Y-71108779D01*
X288463382Y-70808779D02*
G75*
G02*
X288963382Y-70808779I250000J0D01*
G01*
X288463382Y-71358779D02*
X288463382Y-70808779D01*
X288713382Y-71608779D02*
G75*
G02*
X288463382Y-71358779I0J250000D01*
G01*
X290863382Y-71608779D02*
X288713382Y-71608779D01*
X290863382Y-71608779D02*
G75*
G02*
X291363382Y-72108779I0J-500000D01*
G01*
X291363382Y-73408779D02*
X291363382Y-72108779D01*
X291530049Y-73781457D02*
G75*
G02*
X291363382Y-73408779I333333J372678D01*
G01*
X291530049Y-73781457D02*
G75*
G02*
X291863382Y-74526813I-666667J-745356D01*
G01*
X291863382Y-76408779D02*
X291863382Y-74526813D01*
X291863381Y-76408779D02*
G75*
G02*
X286736109Y-82344968I-5999999J0D01*
G01*
X286736109Y-82344968D02*
G75*
G02*
X286163382Y-81850286I-72727J494682D01*
G01*
X286163382Y-81408779D02*
X286163382Y-81850286D01*
X285663382Y-80908779D02*
G75*
G02*
X286163382Y-81408779I0J-500000D01*
G01*
X285063382Y-80908779D02*
X285663382Y-80908779D01*
X284563382Y-81408779D02*
G75*
G02*
X285063382Y-80908779I500000J0D01*
G01*
X284563382Y-81908779D02*
X284563382Y-81408779D01*
X284563382Y-81908779D02*
G75*
G02*
X284063382Y-82408779I-500000J0D01*
G01*
X282371260Y-82408779D02*
X284063382Y-82408779D01*
X282371260Y-82408779D02*
G75*
G02*
X281417321Y-81708779I0J1000000D01*
G01*
X280463382Y-81008779D02*
G75*
G02*
X281417321Y-81708779I0J-1000000D01*
G01*
X267463382Y-81008779D02*
X280463382Y-81008779D01*
X266509443Y-81708779D02*
G75*
G02*
X267463382Y-81008779I953939J-300000D01*
G01*
X266509442Y-81708779D02*
G75*
G02*
X265555503Y-82408779I-953939J300000D01*
G01*
X263863382Y-82408779D02*
X265555503Y-82408779D01*
X263863382Y-82408779D02*
G75*
G02*
X263363382Y-81908779I0J500000D01*
G01*
X263363382Y-81408779D02*
X263363382Y-81908779D01*
X262863382Y-80908779D02*
G75*
G02*
X263363382Y-81408779I0J-500000D01*
G01*
X262263382Y-80908779D02*
X262863382Y-80908779D01*
X261763382Y-81408779D02*
G75*
G02*
X262263382Y-80908779I500000J0D01*
G01*
X261763382Y-81850286D02*
X261763382Y-81408779D01*
X261763382Y-81850287D02*
G75*
G02*
X261190654Y-82344968I-500000J1D01*
G01*
X261190655Y-82344969D02*
G75*
G02*
X256063382Y-76408779I872727J5936190D01*
G01*
X256063382Y-32208779D02*
X256063382Y-76408779D01*
X256063382Y-32208779D02*
G75*
G02*
X256563382Y-31708779I500000J0D01*
G01*
X257563382Y-31708779D02*
X256563382Y-31708779D01*
X258063382Y-31208779D02*
G75*
G02*
X257563382Y-31708779I-500000J0D01*
G01*
X258063382Y-30608779D02*
X258063382Y-31208779D01*
X257563382Y-30108779D02*
G75*
G02*
X258063382Y-30608779I0J-500000D01*
G01*
X256621874Y-30108779D02*
X257563382Y-30108779D01*
X256621874Y-30108778D02*
G75*
G02*
X256127192Y-29536052I0J499999D01*
G01*
X256127192Y-29536052D02*
G75*
G02*
X261190654Y-24472589I5936190J-872727D01*
G01*
X261190655Y-24472590D02*
G75*
G02*
X261763382Y-24967272I72727J-494682D01*
G01*
X261763382Y-25158779D02*
X261763382Y-24967272D01*
X262263382Y-25658779D02*
G75*
G02*
X261763382Y-25158779I0J500000D01*
G01*
X262863382Y-25658779D02*
X262263382Y-25658779D01*
X263363382Y-25158779D02*
G75*
G02*
X262863382Y-25658779I-500000J0D01*
G01*
X263363382Y-24908779D02*
X263363382Y-25158779D01*
X263363382Y-24908779D02*
G75*
G02*
X263863382Y-24408779I500000J0D01*
G01*
X284063382Y-24408779D02*
X263863382Y-24408779D01*
X284063382Y-24408779D02*
G75*
G02*
X284563382Y-24908779I0J-500000D01*
G01*
X284563382Y-25408779D02*
X284563382Y-24908779D01*
X285063382Y-25908779D02*
G75*
G02*
X284563382Y-25408779I0J500000D01*
G01*
X285663382Y-25908779D02*
X285063382Y-25908779D01*
X286163382Y-25408779D02*
G75*
G02*
X285663382Y-25908779I-500000J0D01*
G01*
X286163382Y-24967272D02*
X286163382Y-25408779D01*
X286163382Y-24967272D02*
G75*
G02*
X286736109Y-24472589I500000J0D01*
G01*
X286736109Y-24472589D02*
G75*
G02*
X291863382Y-30408779I-872727J-5936190D01*
G01*
X291863382Y-32290745D02*
X291863382Y-30408779D01*
X291863382Y-32290746D02*
G75*
G02*
X291530048Y-33036101I-1000000J1D01*
G01*
X291363382Y-33408779D02*
G75*
G02*
X291530048Y-33036101I500000J0D01*
G01*
X291363382Y-40158779D02*
X291363382Y-33408779D01*
X291363382Y-40158779D02*
G75*
G02*
X290863382Y-40658779I-500000J0D01*
G01*
X289863382Y-40658779D02*
X290863382Y-40658779D01*
X289363382Y-41158779D02*
G75*
G02*
X289863382Y-40658779I500000J0D01*
G01*
X289363382Y-41658779D02*
X289363382Y-41158779D01*
X289863382Y-42158779D02*
G75*
G02*
X289363382Y-41658779I0J500000D01*
G01*
X291363382Y-42158779D02*
X289863382Y-42158779D01*
X291363382Y-42158779D02*
G75*
G02*
X291863382Y-42658779I0J-500000D01*
G01*
X291863382Y-44658779D02*
X291863382Y-42658779D01*
X289863382Y-44658779D02*
X291863382Y-44658779D01*
X289363382Y-45158779D02*
G75*
G02*
X289863382Y-44658779I500000J0D01*
G01*
X289363382Y-45658779D02*
X289363382Y-45158779D01*
X289863382Y-46158779D02*
G75*
G02*
X289363382Y-45658779I0J500000D01*
G01*
X291863382Y-46158779D02*
X289863382Y-46158779D01*
X291863382Y-48158779D02*
X291863382Y-46158779D01*
X291863382Y-48158779D02*
G75*
G02*
X291363382Y-48658779I-500000J0D01*
G01*
X289863382Y-48658779D02*
X291363382Y-48658779D01*
X289363382Y-49158779D02*
G75*
G02*
X289863382Y-48658779I500000J0D01*
G01*
X289363382Y-49658779D02*
X289363382Y-49158779D01*
X289863382Y-50158779D02*
G75*
G02*
X289363382Y-49658779I0J500000D01*
G01*
X291363382Y-50158779D02*
X289863382Y-50158779D01*
X291363382Y-50158779D02*
G75*
G02*
X291863382Y-50658779I0J-500000D01*
G01*
X291863382Y-52158779D02*
X291863382Y-50658779D01*
X291863382Y-52158779D02*
G75*
G02*
X291363382Y-52658779I-500000J0D01*
G01*
X289863382Y-52658779D02*
X291363382Y-52658779D01*
X289363382Y-53158779D02*
G75*
G02*
X289863382Y-52658779I500000J0D01*
G01*
X289363382Y-53658779D02*
X289363382Y-53158779D01*
X289863382Y-54158779D02*
G75*
G02*
X289363382Y-53658779I0J500000D01*
G01*
X291363382Y-54158779D02*
X289863382Y-54158779D01*
X291363382Y-54158779D02*
G75*
G02*
X291863382Y-54658779I0J-500000D01*
G01*
X291863382Y-56158779D02*
X291863382Y-54658779D01*
X291863382Y-56158779D02*
G75*
G02*
X291363382Y-56658779I-500000J0D01*
G01*
X289863382Y-56658779D02*
X291363382Y-56658779D01*
X289363382Y-57158779D02*
G75*
G02*
X289863382Y-56658779I500000J0D01*
G01*
X286463382Y-30908779D02*
G75*
G03*
X286463382Y-30908779I-1100000J0D01*
G01*
X263663382Y-30908779D02*
G75*
G03*
X263663382Y-30908779I-1100000J0D01*
G01*
X286463382Y-30908779D02*
G75*
G03*
X286463382Y-30908779I-1100000J0D01*
G01*
X263663382Y-30908779D02*
G75*
G03*
X263663382Y-30908779I-1100000J0D01*
G01*
D11*
X273010000Y-61760000D03*
G36*
G01*
X270135000Y-58697500D02*
X270135000Y-57947500D01*
G75*
G02*
X270197500Y-57885000I62500J0D01*
G01*
X270322500Y-57885000D01*
G75*
G02*
X270385000Y-57947500I0J-62500D01*
G01*
X270385000Y-58697500D01*
G75*
G02*
X270322500Y-58760000I-62500J0D01*
G01*
X270197500Y-58760000D01*
G75*
G02*
X270135000Y-58697500I0J62500D01*
G01*
G37*
G36*
G01*
X270635000Y-58697500D02*
X270635000Y-57947500D01*
G75*
G02*
X270697500Y-57885000I62500J0D01*
G01*
X270822500Y-57885000D01*
G75*
G02*
X270885000Y-57947500I0J-62500D01*
G01*
X270885000Y-58697500D01*
G75*
G02*
X270822500Y-58760000I-62500J0D01*
G01*
X270697500Y-58760000D01*
G75*
G02*
X270635000Y-58697500I0J62500D01*
G01*
G37*
G36*
G01*
X271135000Y-58697500D02*
X271135000Y-57947500D01*
G75*
G02*
X271197500Y-57885000I62500J0D01*
G01*
X271322500Y-57885000D01*
G75*
G02*
X271385000Y-57947500I0J-62500D01*
G01*
X271385000Y-58697500D01*
G75*
G02*
X271322500Y-58760000I-62500J0D01*
G01*
X271197500Y-58760000D01*
G75*
G02*
X271135000Y-58697500I0J62500D01*
G01*
G37*
G36*
G01*
X271635000Y-58697500D02*
X271635000Y-57947500D01*
G75*
G02*
X271697500Y-57885000I62500J0D01*
G01*
X271822500Y-57885000D01*
G75*
G02*
X271885000Y-57947500I0J-62500D01*
G01*
X271885000Y-58697500D01*
G75*
G02*
X271822500Y-58760000I-62500J0D01*
G01*
X271697500Y-58760000D01*
G75*
G02*
X271635000Y-58697500I0J62500D01*
G01*
G37*
G36*
G01*
X272135000Y-58697500D02*
X272135000Y-57947500D01*
G75*
G02*
X272197500Y-57885000I62500J0D01*
G01*
X272322500Y-57885000D01*
G75*
G02*
X272385000Y-57947500I0J-62500D01*
G01*
X272385000Y-58697500D01*
G75*
G02*
X272322500Y-58760000I-62500J0D01*
G01*
X272197500Y-58760000D01*
G75*
G02*
X272135000Y-58697500I0J62500D01*
G01*
G37*
G36*
G01*
X272635000Y-58697500D02*
X272635000Y-57947500D01*
G75*
G02*
X272697500Y-57885000I62500J0D01*
G01*
X272822500Y-57885000D01*
G75*
G02*
X272885000Y-57947500I0J-62500D01*
G01*
X272885000Y-58697500D01*
G75*
G02*
X272822500Y-58760000I-62500J0D01*
G01*
X272697500Y-58760000D01*
G75*
G02*
X272635000Y-58697500I0J62500D01*
G01*
G37*
G36*
G01*
X273135000Y-58697500D02*
X273135000Y-57947500D01*
G75*
G02*
X273197500Y-57885000I62500J0D01*
G01*
X273322500Y-57885000D01*
G75*
G02*
X273385000Y-57947500I0J-62500D01*
G01*
X273385000Y-58697500D01*
G75*
G02*
X273322500Y-58760000I-62500J0D01*
G01*
X273197500Y-58760000D01*
G75*
G02*
X273135000Y-58697500I0J62500D01*
G01*
G37*
G36*
G01*
X273635000Y-58697500D02*
X273635000Y-57947500D01*
G75*
G02*
X273697500Y-57885000I62500J0D01*
G01*
X273822500Y-57885000D01*
G75*
G02*
X273885000Y-57947500I0J-62500D01*
G01*
X273885000Y-58697500D01*
G75*
G02*
X273822500Y-58760000I-62500J0D01*
G01*
X273697500Y-58760000D01*
G75*
G02*
X273635000Y-58697500I0J62500D01*
G01*
G37*
G36*
G01*
X274135000Y-58697500D02*
X274135000Y-57947500D01*
G75*
G02*
X274197500Y-57885000I62500J0D01*
G01*
X274322500Y-57885000D01*
G75*
G02*
X274385000Y-57947500I0J-62500D01*
G01*
X274385000Y-58697500D01*
G75*
G02*
X274322500Y-58760000I-62500J0D01*
G01*
X274197500Y-58760000D01*
G75*
G02*
X274135000Y-58697500I0J62500D01*
G01*
G37*
G36*
G01*
X274635000Y-58697500D02*
X274635000Y-57947500D01*
G75*
G02*
X274697500Y-57885000I62500J0D01*
G01*
X274822500Y-57885000D01*
G75*
G02*
X274885000Y-57947500I0J-62500D01*
G01*
X274885000Y-58697500D01*
G75*
G02*
X274822500Y-58760000I-62500J0D01*
G01*
X274697500Y-58760000D01*
G75*
G02*
X274635000Y-58697500I0J62500D01*
G01*
G37*
G36*
G01*
X275135000Y-58697500D02*
X275135000Y-57947500D01*
G75*
G02*
X275197500Y-57885000I62500J0D01*
G01*
X275322500Y-57885000D01*
G75*
G02*
X275385000Y-57947500I0J-62500D01*
G01*
X275385000Y-58697500D01*
G75*
G02*
X275322500Y-58760000I-62500J0D01*
G01*
X275197500Y-58760000D01*
G75*
G02*
X275135000Y-58697500I0J62500D01*
G01*
G37*
G36*
G01*
X275635000Y-58697500D02*
X275635000Y-57947500D01*
G75*
G02*
X275697500Y-57885000I62500J0D01*
G01*
X275822500Y-57885000D01*
G75*
G02*
X275885000Y-57947500I0J-62500D01*
G01*
X275885000Y-58697500D01*
G75*
G02*
X275822500Y-58760000I-62500J0D01*
G01*
X275697500Y-58760000D01*
G75*
G02*
X275635000Y-58697500I0J62500D01*
G01*
G37*
G36*
G01*
X276010000Y-59072500D02*
X276010000Y-58947500D01*
G75*
G02*
X276072500Y-58885000I62500J0D01*
G01*
X276822500Y-58885000D01*
G75*
G02*
X276885000Y-58947500I0J-62500D01*
G01*
X276885000Y-59072500D01*
G75*
G02*
X276822500Y-59135000I-62500J0D01*
G01*
X276072500Y-59135000D01*
G75*
G02*
X276010000Y-59072500I0J62500D01*
G01*
G37*
G36*
G01*
X276010000Y-59572500D02*
X276010000Y-59447500D01*
G75*
G02*
X276072500Y-59385000I62500J0D01*
G01*
X276822500Y-59385000D01*
G75*
G02*
X276885000Y-59447500I0J-62500D01*
G01*
X276885000Y-59572500D01*
G75*
G02*
X276822500Y-59635000I-62500J0D01*
G01*
X276072500Y-59635000D01*
G75*
G02*
X276010000Y-59572500I0J62500D01*
G01*
G37*
G36*
G01*
X276010000Y-60072500D02*
X276010000Y-59947500D01*
G75*
G02*
X276072500Y-59885000I62500J0D01*
G01*
X276822500Y-59885000D01*
G75*
G02*
X276885000Y-59947500I0J-62500D01*
G01*
X276885000Y-60072500D01*
G75*
G02*
X276822500Y-60135000I-62500J0D01*
G01*
X276072500Y-60135000D01*
G75*
G02*
X276010000Y-60072500I0J62500D01*
G01*
G37*
G36*
G01*
X276010000Y-60572500D02*
X276010000Y-60447500D01*
G75*
G02*
X276072500Y-60385000I62500J0D01*
G01*
X276822500Y-60385000D01*
G75*
G02*
X276885000Y-60447500I0J-62500D01*
G01*
X276885000Y-60572500D01*
G75*
G02*
X276822500Y-60635000I-62500J0D01*
G01*
X276072500Y-60635000D01*
G75*
G02*
X276010000Y-60572500I0J62500D01*
G01*
G37*
G36*
G01*
X276010000Y-61072500D02*
X276010000Y-60947500D01*
G75*
G02*
X276072500Y-60885000I62500J0D01*
G01*
X276822500Y-60885000D01*
G75*
G02*
X276885000Y-60947500I0J-62500D01*
G01*
X276885000Y-61072500D01*
G75*
G02*
X276822500Y-61135000I-62500J0D01*
G01*
X276072500Y-61135000D01*
G75*
G02*
X276010000Y-61072500I0J62500D01*
G01*
G37*
G36*
G01*
X276010000Y-61572500D02*
X276010000Y-61447500D01*
G75*
G02*
X276072500Y-61385000I62500J0D01*
G01*
X276822500Y-61385000D01*
G75*
G02*
X276885000Y-61447500I0J-62500D01*
G01*
X276885000Y-61572500D01*
G75*
G02*
X276822500Y-61635000I-62500J0D01*
G01*
X276072500Y-61635000D01*
G75*
G02*
X276010000Y-61572500I0J62500D01*
G01*
G37*
G36*
G01*
X276010000Y-62072500D02*
X276010000Y-61947500D01*
G75*
G02*
X276072500Y-61885000I62500J0D01*
G01*
X276822500Y-61885000D01*
G75*
G02*
X276885000Y-61947500I0J-62500D01*
G01*
X276885000Y-62072500D01*
G75*
G02*
X276822500Y-62135000I-62500J0D01*
G01*
X276072500Y-62135000D01*
G75*
G02*
X276010000Y-62072500I0J62500D01*
G01*
G37*
G36*
G01*
X276010000Y-62572500D02*
X276010000Y-62447500D01*
G75*
G02*
X276072500Y-62385000I62500J0D01*
G01*
X276822500Y-62385000D01*
G75*
G02*
X276885000Y-62447500I0J-62500D01*
G01*
X276885000Y-62572500D01*
G75*
G02*
X276822500Y-62635000I-62500J0D01*
G01*
X276072500Y-62635000D01*
G75*
G02*
X276010000Y-62572500I0J62500D01*
G01*
G37*
G36*
G01*
X276010000Y-63072500D02*
X276010000Y-62947500D01*
G75*
G02*
X276072500Y-62885000I62500J0D01*
G01*
X276822500Y-62885000D01*
G75*
G02*
X276885000Y-62947500I0J-62500D01*
G01*
X276885000Y-63072500D01*
G75*
G02*
X276822500Y-63135000I-62500J0D01*
G01*
X276072500Y-63135000D01*
G75*
G02*
X276010000Y-63072500I0J62500D01*
G01*
G37*
G36*
G01*
X276010000Y-63572500D02*
X276010000Y-63447500D01*
G75*
G02*
X276072500Y-63385000I62500J0D01*
G01*
X276822500Y-63385000D01*
G75*
G02*
X276885000Y-63447500I0J-62500D01*
G01*
X276885000Y-63572500D01*
G75*
G02*
X276822500Y-63635000I-62500J0D01*
G01*
X276072500Y-63635000D01*
G75*
G02*
X276010000Y-63572500I0J62500D01*
G01*
G37*
G36*
G01*
X276010000Y-64072500D02*
X276010000Y-63947500D01*
G75*
G02*
X276072500Y-63885000I62500J0D01*
G01*
X276822500Y-63885000D01*
G75*
G02*
X276885000Y-63947500I0J-62500D01*
G01*
X276885000Y-64072500D01*
G75*
G02*
X276822500Y-64135000I-62500J0D01*
G01*
X276072500Y-64135000D01*
G75*
G02*
X276010000Y-64072500I0J62500D01*
G01*
G37*
G36*
G01*
X276010000Y-64572500D02*
X276010000Y-64447500D01*
G75*
G02*
X276072500Y-64385000I62500J0D01*
G01*
X276822500Y-64385000D01*
G75*
G02*
X276885000Y-64447500I0J-62500D01*
G01*
X276885000Y-64572500D01*
G75*
G02*
X276822500Y-64635000I-62500J0D01*
G01*
X276072500Y-64635000D01*
G75*
G02*
X276010000Y-64572500I0J62500D01*
G01*
G37*
G36*
G01*
X275635000Y-65572500D02*
X275635000Y-64822500D01*
G75*
G02*
X275697500Y-64760000I62500J0D01*
G01*
X275822500Y-64760000D01*
G75*
G02*
X275885000Y-64822500I0J-62500D01*
G01*
X275885000Y-65572500D01*
G75*
G02*
X275822500Y-65635000I-62500J0D01*
G01*
X275697500Y-65635000D01*
G75*
G02*
X275635000Y-65572500I0J62500D01*
G01*
G37*
G36*
G01*
X275135000Y-65572500D02*
X275135000Y-64822500D01*
G75*
G02*
X275197500Y-64760000I62500J0D01*
G01*
X275322500Y-64760000D01*
G75*
G02*
X275385000Y-64822500I0J-62500D01*
G01*
X275385000Y-65572500D01*
G75*
G02*
X275322500Y-65635000I-62500J0D01*
G01*
X275197500Y-65635000D01*
G75*
G02*
X275135000Y-65572500I0J62500D01*
G01*
G37*
G36*
G01*
X274635000Y-65572500D02*
X274635000Y-64822500D01*
G75*
G02*
X274697500Y-64760000I62500J0D01*
G01*
X274822500Y-64760000D01*
G75*
G02*
X274885000Y-64822500I0J-62500D01*
G01*
X274885000Y-65572500D01*
G75*
G02*
X274822500Y-65635000I-62500J0D01*
G01*
X274697500Y-65635000D01*
G75*
G02*
X274635000Y-65572500I0J62500D01*
G01*
G37*
G36*
G01*
X274135000Y-65572500D02*
X274135000Y-64822500D01*
G75*
G02*
X274197500Y-64760000I62500J0D01*
G01*
X274322500Y-64760000D01*
G75*
G02*
X274385000Y-64822500I0J-62500D01*
G01*
X274385000Y-65572500D01*
G75*
G02*
X274322500Y-65635000I-62500J0D01*
G01*
X274197500Y-65635000D01*
G75*
G02*
X274135000Y-65572500I0J62500D01*
G01*
G37*
G36*
G01*
X273635000Y-65572500D02*
X273635000Y-64822500D01*
G75*
G02*
X273697500Y-64760000I62500J0D01*
G01*
X273822500Y-64760000D01*
G75*
G02*
X273885000Y-64822500I0J-62500D01*
G01*
X273885000Y-65572500D01*
G75*
G02*
X273822500Y-65635000I-62500J0D01*
G01*
X273697500Y-65635000D01*
G75*
G02*
X273635000Y-65572500I0J62500D01*
G01*
G37*
G36*
G01*
X273135000Y-65572500D02*
X273135000Y-64822500D01*
G75*
G02*
X273197500Y-64760000I62500J0D01*
G01*
X273322500Y-64760000D01*
G75*
G02*
X273385000Y-64822500I0J-62500D01*
G01*
X273385000Y-65572500D01*
G75*
G02*
X273322500Y-65635000I-62500J0D01*
G01*
X273197500Y-65635000D01*
G75*
G02*
X273135000Y-65572500I0J62500D01*
G01*
G37*
G36*
G01*
X272635000Y-65572500D02*
X272635000Y-64822500D01*
G75*
G02*
X272697500Y-64760000I62500J0D01*
G01*
X272822500Y-64760000D01*
G75*
G02*
X272885000Y-64822500I0J-62500D01*
G01*
X272885000Y-65572500D01*
G75*
G02*
X272822500Y-65635000I-62500J0D01*
G01*
X272697500Y-65635000D01*
G75*
G02*
X272635000Y-65572500I0J62500D01*
G01*
G37*
G36*
G01*
X272135000Y-65572500D02*
X272135000Y-64822500D01*
G75*
G02*
X272197500Y-64760000I62500J0D01*
G01*
X272322500Y-64760000D01*
G75*
G02*
X272385000Y-64822500I0J-62500D01*
G01*
X272385000Y-65572500D01*
G75*
G02*
X272322500Y-65635000I-62500J0D01*
G01*
X272197500Y-65635000D01*
G75*
G02*
X272135000Y-65572500I0J62500D01*
G01*
G37*
G36*
G01*
X271635000Y-65572500D02*
X271635000Y-64822500D01*
G75*
G02*
X271697500Y-64760000I62500J0D01*
G01*
X271822500Y-64760000D01*
G75*
G02*
X271885000Y-64822500I0J-62500D01*
G01*
X271885000Y-65572500D01*
G75*
G02*
X271822500Y-65635000I-62500J0D01*
G01*
X271697500Y-65635000D01*
G75*
G02*
X271635000Y-65572500I0J62500D01*
G01*
G37*
G36*
G01*
X271135000Y-65572500D02*
X271135000Y-64822500D01*
G75*
G02*
X271197500Y-64760000I62500J0D01*
G01*
X271322500Y-64760000D01*
G75*
G02*
X271385000Y-64822500I0J-62500D01*
G01*
X271385000Y-65572500D01*
G75*
G02*
X271322500Y-65635000I-62500J0D01*
G01*
X271197500Y-65635000D01*
G75*
G02*
X271135000Y-65572500I0J62500D01*
G01*
G37*
G36*
G01*
X270635000Y-65572500D02*
X270635000Y-64822500D01*
G75*
G02*
X270697500Y-64760000I62500J0D01*
G01*
X270822500Y-64760000D01*
G75*
G02*
X270885000Y-64822500I0J-62500D01*
G01*
X270885000Y-65572500D01*
G75*
G02*
X270822500Y-65635000I-62500J0D01*
G01*
X270697500Y-65635000D01*
G75*
G02*
X270635000Y-65572500I0J62500D01*
G01*
G37*
G36*
G01*
X270135000Y-65572500D02*
X270135000Y-64822500D01*
G75*
G02*
X270197500Y-64760000I62500J0D01*
G01*
X270322500Y-64760000D01*
G75*
G02*
X270385000Y-64822500I0J-62500D01*
G01*
X270385000Y-65572500D01*
G75*
G02*
X270322500Y-65635000I-62500J0D01*
G01*
X270197500Y-65635000D01*
G75*
G02*
X270135000Y-65572500I0J62500D01*
G01*
G37*
G36*
G01*
X269135000Y-64572500D02*
X269135000Y-64447500D01*
G75*
G02*
X269197500Y-64385000I62500J0D01*
G01*
X269947500Y-64385000D01*
G75*
G02*
X270010000Y-64447500I0J-62500D01*
G01*
X270010000Y-64572500D01*
G75*
G02*
X269947500Y-64635000I-62500J0D01*
G01*
X269197500Y-64635000D01*
G75*
G02*
X269135000Y-64572500I0J62500D01*
G01*
G37*
G36*
G01*
X269135000Y-64072500D02*
X269135000Y-63947500D01*
G75*
G02*
X269197500Y-63885000I62500J0D01*
G01*
X269947500Y-63885000D01*
G75*
G02*
X270010000Y-63947500I0J-62500D01*
G01*
X270010000Y-64072500D01*
G75*
G02*
X269947500Y-64135000I-62500J0D01*
G01*
X269197500Y-64135000D01*
G75*
G02*
X269135000Y-64072500I0J62500D01*
G01*
G37*
G36*
G01*
X269135000Y-63572500D02*
X269135000Y-63447500D01*
G75*
G02*
X269197500Y-63385000I62500J0D01*
G01*
X269947500Y-63385000D01*
G75*
G02*
X270010000Y-63447500I0J-62500D01*
G01*
X270010000Y-63572500D01*
G75*
G02*
X269947500Y-63635000I-62500J0D01*
G01*
X269197500Y-63635000D01*
G75*
G02*
X269135000Y-63572500I0J62500D01*
G01*
G37*
G36*
G01*
X269135000Y-63072500D02*
X269135000Y-62947500D01*
G75*
G02*
X269197500Y-62885000I62500J0D01*
G01*
X269947500Y-62885000D01*
G75*
G02*
X270010000Y-62947500I0J-62500D01*
G01*
X270010000Y-63072500D01*
G75*
G02*
X269947500Y-63135000I-62500J0D01*
G01*
X269197500Y-63135000D01*
G75*
G02*
X269135000Y-63072500I0J62500D01*
G01*
G37*
G36*
G01*
X269135000Y-62572500D02*
X269135000Y-62447500D01*
G75*
G02*
X269197500Y-62385000I62500J0D01*
G01*
X269947500Y-62385000D01*
G75*
G02*
X270010000Y-62447500I0J-62500D01*
G01*
X270010000Y-62572500D01*
G75*
G02*
X269947500Y-62635000I-62500J0D01*
G01*
X269197500Y-62635000D01*
G75*
G02*
X269135000Y-62572500I0J62500D01*
G01*
G37*
G36*
G01*
X269135000Y-62072500D02*
X269135000Y-61947500D01*
G75*
G02*
X269197500Y-61885000I62500J0D01*
G01*
X269947500Y-61885000D01*
G75*
G02*
X270010000Y-61947500I0J-62500D01*
G01*
X270010000Y-62072500D01*
G75*
G02*
X269947500Y-62135000I-62500J0D01*
G01*
X269197500Y-62135000D01*
G75*
G02*
X269135000Y-62072500I0J62500D01*
G01*
G37*
G36*
G01*
X269135000Y-61572500D02*
X269135000Y-61447500D01*
G75*
G02*
X269197500Y-61385000I62500J0D01*
G01*
X269947500Y-61385000D01*
G75*
G02*
X270010000Y-61447500I0J-62500D01*
G01*
X270010000Y-61572500D01*
G75*
G02*
X269947500Y-61635000I-62500J0D01*
G01*
X269197500Y-61635000D01*
G75*
G02*
X269135000Y-61572500I0J62500D01*
G01*
G37*
G36*
G01*
X269135000Y-61072500D02*
X269135000Y-60947500D01*
G75*
G02*
X269197500Y-60885000I62500J0D01*
G01*
X269947500Y-60885000D01*
G75*
G02*
X270010000Y-60947500I0J-62500D01*
G01*
X270010000Y-61072500D01*
G75*
G02*
X269947500Y-61135000I-62500J0D01*
G01*
X269197500Y-61135000D01*
G75*
G02*
X269135000Y-61072500I0J62500D01*
G01*
G37*
G36*
G01*
X269135000Y-60572500D02*
X269135000Y-60447500D01*
G75*
G02*
X269197500Y-60385000I62500J0D01*
G01*
X269947500Y-60385000D01*
G75*
G02*
X270010000Y-60447500I0J-62500D01*
G01*
X270010000Y-60572500D01*
G75*
G02*
X269947500Y-60635000I-62500J0D01*
G01*
X269197500Y-60635000D01*
G75*
G02*
X269135000Y-60572500I0J62500D01*
G01*
G37*
G36*
G01*
X269135000Y-60072500D02*
X269135000Y-59947500D01*
G75*
G02*
X269197500Y-59885000I62500J0D01*
G01*
X269947500Y-59885000D01*
G75*
G02*
X270010000Y-59947500I0J-62500D01*
G01*
X270010000Y-60072500D01*
G75*
G02*
X269947500Y-60135000I-62500J0D01*
G01*
X269197500Y-60135000D01*
G75*
G02*
X269135000Y-60072500I0J62500D01*
G01*
G37*
G36*
G01*
X269135000Y-59572500D02*
X269135000Y-59447500D01*
G75*
G02*
X269197500Y-59385000I62500J0D01*
G01*
X269947500Y-59385000D01*
G75*
G02*
X270010000Y-59447500I0J-62500D01*
G01*
X270010000Y-59572500D01*
G75*
G02*
X269947500Y-59635000I-62500J0D01*
G01*
X269197500Y-59635000D01*
G75*
G02*
X269135000Y-59572500I0J62500D01*
G01*
G37*
G36*
G01*
X269135000Y-59072500D02*
X269135000Y-58947500D01*
G75*
G02*
X269197500Y-58885000I62500J0D01*
G01*
X269947500Y-58885000D01*
G75*
G02*
X270010000Y-58947500I0J-62500D01*
G01*
X270010000Y-59072500D01*
G75*
G02*
X269947500Y-59135000I-62500J0D01*
G01*
X269197500Y-59135000D01*
G75*
G02*
X269135000Y-59072500I0J62500D01*
G01*
G37*
D12*
X264180000Y-70050000D03*
X264180000Y-64970000D03*
X264180000Y-75130000D03*
X260880000Y-67510000D03*
X264180000Y-59890000D03*
X260880000Y-62430000D03*
X260880000Y-72590000D03*
X260880000Y-77670000D03*
X283740000Y-62430000D03*
X283740000Y-67510000D03*
X283740000Y-72590000D03*
X283740000Y-77670000D03*
X287040000Y-59890000D03*
X287040000Y-64970000D03*
X287040000Y-70050000D03*
X287040000Y-75130000D03*
D13*
X289200000Y-67200000D03*
X290600000Y-67200000D03*
G36*
G01*
X268837500Y-55860000D02*
X269182500Y-55860000D01*
G75*
G02*
X269330000Y-56007500I0J-147500D01*
G01*
X269330000Y-56302500D01*
G75*
G02*
X269182500Y-56450000I-147500J0D01*
G01*
X268837500Y-56450000D01*
G75*
G02*
X268690000Y-56302500I0J147500D01*
G01*
X268690000Y-56007500D01*
G75*
G02*
X268837500Y-55860000I147500J0D01*
G01*
G37*
G36*
G01*
X268837500Y-54890000D02*
X269182500Y-54890000D01*
G75*
G02*
X269330000Y-55037500I0J-147500D01*
G01*
X269330000Y-55332500D01*
G75*
G02*
X269182500Y-55480000I-147500J0D01*
G01*
X268837500Y-55480000D01*
G75*
G02*
X268690000Y-55332500I0J147500D01*
G01*
X268690000Y-55037500D01*
G75*
G02*
X268837500Y-54890000I147500J0D01*
G01*
G37*
G36*
G01*
X270176000Y-75895500D02*
X270176000Y-76240500D01*
G75*
G02*
X270028500Y-76388000I-147500J0D01*
G01*
X269733500Y-76388000D01*
G75*
G02*
X269586000Y-76240500I0J147500D01*
G01*
X269586000Y-75895500D01*
G75*
G02*
X269733500Y-75748000I147500J0D01*
G01*
X270028500Y-75748000D01*
G75*
G02*
X270176000Y-75895500I0J-147500D01*
G01*
G37*
G36*
G01*
X269206000Y-75895500D02*
X269206000Y-76240500D01*
G75*
G02*
X269058500Y-76388000I-147500J0D01*
G01*
X268763500Y-76388000D01*
G75*
G02*
X268616000Y-76240500I0J147500D01*
G01*
X268616000Y-75895500D01*
G75*
G02*
X268763500Y-75748000I147500J0D01*
G01*
X269058500Y-75748000D01*
G75*
G02*
X269206000Y-75895500I0J-147500D01*
G01*
G37*
G36*
G01*
X282515000Y-36745000D02*
X282365000Y-36745000D01*
G75*
G02*
X282315000Y-36695000I0J50000D01*
G01*
X282315000Y-36245000D01*
G75*
G02*
X282365000Y-36195000I50000J0D01*
G01*
X282515000Y-36195000D01*
G75*
G02*
X282565000Y-36245000I0J-50000D01*
G01*
X282565000Y-36695000D01*
G75*
G02*
X282515000Y-36745000I-50000J0D01*
G01*
G37*
G36*
G01*
X283015000Y-36745000D02*
X282865000Y-36745000D01*
G75*
G02*
X282815000Y-36695000I0J50000D01*
G01*
X282815000Y-36245000D01*
G75*
G02*
X282865000Y-36195000I50000J0D01*
G01*
X283015000Y-36195000D01*
G75*
G02*
X283065000Y-36245000I0J-50000D01*
G01*
X283065000Y-36695000D01*
G75*
G02*
X283015000Y-36745000I-50000J0D01*
G01*
G37*
G36*
G01*
X283515000Y-36745000D02*
X283365000Y-36745000D01*
G75*
G02*
X283315000Y-36695000I0J50000D01*
G01*
X283315000Y-36245000D01*
G75*
G02*
X283365000Y-36195000I50000J0D01*
G01*
X283515000Y-36195000D01*
G75*
G02*
X283565000Y-36245000I0J-50000D01*
G01*
X283565000Y-36695000D01*
G75*
G02*
X283515000Y-36745000I-50000J0D01*
G01*
G37*
G36*
G01*
X284015000Y-36745000D02*
X283865000Y-36745000D01*
G75*
G02*
X283815000Y-36695000I0J50000D01*
G01*
X283815000Y-36245000D01*
G75*
G02*
X283865000Y-36195000I50000J0D01*
G01*
X284015000Y-36195000D01*
G75*
G02*
X284065000Y-36245000I0J-50000D01*
G01*
X284065000Y-36695000D01*
G75*
G02*
X284015000Y-36745000I-50000J0D01*
G01*
G37*
G36*
G01*
X284015000Y-38095000D02*
X283865000Y-38095000D01*
G75*
G02*
X283815000Y-38045000I0J50000D01*
G01*
X283815000Y-37595000D01*
G75*
G02*
X283865000Y-37545000I50000J0D01*
G01*
X284015000Y-37545000D01*
G75*
G02*
X284065000Y-37595000I0J-50000D01*
G01*
X284065000Y-38045000D01*
G75*
G02*
X284015000Y-38095000I-50000J0D01*
G01*
G37*
G36*
G01*
X283515000Y-38095000D02*
X283365000Y-38095000D01*
G75*
G02*
X283315000Y-38045000I0J50000D01*
G01*
X283315000Y-37595000D01*
G75*
G02*
X283365000Y-37545000I50000J0D01*
G01*
X283515000Y-37545000D01*
G75*
G02*
X283565000Y-37595000I0J-50000D01*
G01*
X283565000Y-38045000D01*
G75*
G02*
X283515000Y-38095000I-50000J0D01*
G01*
G37*
G36*
G01*
X283015000Y-38095000D02*
X282865000Y-38095000D01*
G75*
G02*
X282815000Y-38045000I0J50000D01*
G01*
X282815000Y-37595000D01*
G75*
G02*
X282865000Y-37545000I50000J0D01*
G01*
X283015000Y-37545000D01*
G75*
G02*
X283065000Y-37595000I0J-50000D01*
G01*
X283065000Y-38045000D01*
G75*
G02*
X283015000Y-38095000I-50000J0D01*
G01*
G37*
G36*
G01*
X282515000Y-38095000D02*
X282365000Y-38095000D01*
G75*
G02*
X282315000Y-38045000I0J50000D01*
G01*
X282315000Y-37595000D01*
G75*
G02*
X282365000Y-37545000I50000J0D01*
G01*
X282515000Y-37545000D01*
G75*
G02*
X282565000Y-37595000I0J-50000D01*
G01*
X282565000Y-38045000D01*
G75*
G02*
X282515000Y-38095000I-50000J0D01*
G01*
G37*
G36*
G01*
X282693500Y-41081500D02*
X282693500Y-41426500D01*
G75*
G02*
X282546000Y-41574000I-147500J0D01*
G01*
X282251000Y-41574000D01*
G75*
G02*
X282103500Y-41426500I0J147500D01*
G01*
X282103500Y-41081500D01*
G75*
G02*
X282251000Y-40934000I147500J0D01*
G01*
X282546000Y-40934000D01*
G75*
G02*
X282693500Y-41081500I0J-147500D01*
G01*
G37*
G36*
G01*
X283663500Y-41081500D02*
X283663500Y-41426500D01*
G75*
G02*
X283516000Y-41574000I-147500J0D01*
G01*
X283221000Y-41574000D01*
G75*
G02*
X283073500Y-41426500I0J147500D01*
G01*
X283073500Y-41081500D01*
G75*
G02*
X283221000Y-40934000I147500J0D01*
G01*
X283516000Y-40934000D01*
G75*
G02*
X283663500Y-41081500I0J-147500D01*
G01*
G37*
G36*
G01*
X283078500Y-40407500D02*
X283078500Y-40062500D01*
G75*
G02*
X283226000Y-39915000I147500J0D01*
G01*
X283521000Y-39915000D01*
G75*
G02*
X283668500Y-40062500I0J-147500D01*
G01*
X283668500Y-40407500D01*
G75*
G02*
X283521000Y-40555000I-147500J0D01*
G01*
X283226000Y-40555000D01*
G75*
G02*
X283078500Y-40407500I0J147500D01*
G01*
G37*
G36*
G01*
X282108500Y-40407500D02*
X282108500Y-40062500D01*
G75*
G02*
X282256000Y-39915000I147500J0D01*
G01*
X282551000Y-39915000D01*
G75*
G02*
X282698500Y-40062500I0J-147500D01*
G01*
X282698500Y-40407500D01*
G75*
G02*
X282551000Y-40555000I-147500J0D01*
G01*
X282256000Y-40555000D01*
G75*
G02*
X282108500Y-40407500I0J147500D01*
G01*
G37*
G36*
G01*
X282693500Y-39041500D02*
X282693500Y-39386500D01*
G75*
G02*
X282546000Y-39534000I-147500J0D01*
G01*
X282251000Y-39534000D01*
G75*
G02*
X282103500Y-39386500I0J147500D01*
G01*
X282103500Y-39041500D01*
G75*
G02*
X282251000Y-38894000I147500J0D01*
G01*
X282546000Y-38894000D01*
G75*
G02*
X282693500Y-39041500I0J-147500D01*
G01*
G37*
G36*
G01*
X283663500Y-39041500D02*
X283663500Y-39386500D01*
G75*
G02*
X283516000Y-39534000I-147500J0D01*
G01*
X283221000Y-39534000D01*
G75*
G02*
X283073500Y-39386500I0J147500D01*
G01*
X283073500Y-39041500D01*
G75*
G02*
X283221000Y-38894000I147500J0D01*
G01*
X283516000Y-38894000D01*
G75*
G02*
X283663500Y-39041500I0J-147500D01*
G01*
G37*
D14*
X289420000Y-70400000D03*
X289420000Y-69900000D03*
X289420000Y-69400000D03*
X290420000Y-69400000D03*
X290420000Y-69900000D03*
X290420000Y-70400000D03*
D15*
X270800000Y-30330000D03*
X271600000Y-30330000D03*
X270800000Y-30330000D03*
X271600000Y-30330000D03*
X277200000Y-30330000D03*
X277200000Y-30330000D03*
X276400000Y-30330000D03*
X276400000Y-30330000D03*
D16*
X276890000Y-29270000D03*
X271110000Y-29270000D03*
D17*
X272250000Y-30330000D03*
X273250000Y-30330000D03*
X272750000Y-30330000D03*
X275250000Y-30330000D03*
X275750000Y-30330000D03*
X273750000Y-30330000D03*
X274250000Y-30330000D03*
X274750000Y-30330000D03*
D18*
X269680000Y-25580000D03*
X278320000Y-25580000D03*
D19*
X269680000Y-29750000D03*
X278320000Y-29750000D03*
G36*
G01*
X283187500Y-55855000D02*
X283532500Y-55855000D01*
G75*
G02*
X283680000Y-56002500I0J-147500D01*
G01*
X283680000Y-56297500D01*
G75*
G02*
X283532500Y-56445000I-147500J0D01*
G01*
X283187500Y-56445000D01*
G75*
G02*
X283040000Y-56297500I0J147500D01*
G01*
X283040000Y-56002500D01*
G75*
G02*
X283187500Y-55855000I147500J0D01*
G01*
G37*
G36*
G01*
X283187500Y-54885000D02*
X283532500Y-54885000D01*
G75*
G02*
X283680000Y-55032500I0J-147500D01*
G01*
X283680000Y-55327500D01*
G75*
G02*
X283532500Y-55475000I-147500J0D01*
G01*
X283187500Y-55475000D01*
G75*
G02*
X283040000Y-55327500I0J147500D01*
G01*
X283040000Y-55032500D01*
G75*
G02*
X283187500Y-54885000I147500J0D01*
G01*
G37*
D20*
X257655000Y-54195000D03*
X265275000Y-55211000D03*
X265275000Y-53179000D03*
D21*
X262735000Y-54824000D03*
X264005000Y-54824000D03*
X264005000Y-53554000D03*
X262735000Y-53554000D03*
D20*
X257655000Y-54189000D03*
X265275000Y-53173000D03*
X265275000Y-55205000D03*
D21*
X258925000Y-54824000D03*
X258925000Y-53554000D03*
X260195000Y-54824000D03*
X260195000Y-53554000D03*
X261465000Y-54824000D03*
X261465000Y-53554000D03*
D22*
X289480000Y-36880000D03*
X290280000Y-36880000D03*
G36*
G01*
X289205000Y-36535000D02*
X290555000Y-36535000D01*
G75*
G02*
X290575000Y-36555000I0J-20000D01*
G01*
X290575000Y-37205000D01*
G75*
G02*
X290555000Y-37225000I-20000J0D01*
G01*
X289205000Y-37225000D01*
G75*
G02*
X289185000Y-37205000I0J20000D01*
G01*
X289185000Y-36555000D01*
G75*
G02*
X289205000Y-36535000I20000J0D01*
G01*
G37*
G36*
G01*
X290530000Y-37510000D02*
X290530000Y-37510000D01*
G75*
G02*
X290725000Y-37705000I0J-195000D01*
G01*
X290725000Y-37955000D01*
G75*
G02*
X290530000Y-38150000I-195000J0D01*
G01*
X290530000Y-38150000D01*
G75*
G02*
X290335000Y-37955000I0J195000D01*
G01*
X290335000Y-37705000D01*
G75*
G02*
X290530000Y-37510000I195000J0D01*
G01*
G37*
G36*
G01*
X289880000Y-37510000D02*
X289880000Y-37510000D01*
G75*
G02*
X290075000Y-37705000I0J-195000D01*
G01*
X290075000Y-37955000D01*
G75*
G02*
X289880000Y-38150000I-195000J0D01*
G01*
X289880000Y-38150000D01*
G75*
G02*
X289685000Y-37955000I0J195000D01*
G01*
X289685000Y-37705000D01*
G75*
G02*
X289880000Y-37510000I195000J0D01*
G01*
G37*
G36*
G01*
X289230000Y-37510000D02*
X289230000Y-37510000D01*
G75*
G02*
X289425000Y-37705000I0J-195000D01*
G01*
X289425000Y-37955000D01*
G75*
G02*
X289230000Y-38150000I-195000J0D01*
G01*
X289230000Y-38150000D01*
G75*
G02*
X289035000Y-37955000I0J195000D01*
G01*
X289035000Y-37705000D01*
G75*
G02*
X289230000Y-37510000I195000J0D01*
G01*
G37*
G36*
G01*
X289230000Y-35610000D02*
X289230000Y-35610000D01*
G75*
G02*
X289425000Y-35805000I0J-195000D01*
G01*
X289425000Y-36055000D01*
G75*
G02*
X289230000Y-36250000I-195000J0D01*
G01*
X289230000Y-36250000D01*
G75*
G02*
X289035000Y-36055000I0J195000D01*
G01*
X289035000Y-35805000D01*
G75*
G02*
X289230000Y-35610000I195000J0D01*
G01*
G37*
G36*
G01*
X289880000Y-35610000D02*
X289880000Y-35610000D01*
G75*
G02*
X290075000Y-35805000I0J-195000D01*
G01*
X290075000Y-36055000D01*
G75*
G02*
X289880000Y-36250000I-195000J0D01*
G01*
X289880000Y-36250000D01*
G75*
G02*
X289685000Y-36055000I0J195000D01*
G01*
X289685000Y-35805000D01*
G75*
G02*
X289880000Y-35610000I195000J0D01*
G01*
G37*
G36*
G01*
X290555000Y-35610000D02*
X290555000Y-35610000D01*
G75*
G02*
X290750000Y-35805000I0J-195000D01*
G01*
X290750000Y-36055000D01*
G75*
G02*
X290555000Y-36250000I-195000J0D01*
G01*
X290555000Y-36250000D01*
G75*
G02*
X290360000Y-36055000I0J195000D01*
G01*
X290360000Y-35805000D01*
G75*
G02*
X290555000Y-35610000I195000J0D01*
G01*
G37*
G36*
G01*
X287050000Y-37580000D02*
X287050000Y-37180000D01*
G75*
G02*
X287250000Y-36980000I200000J0D01*
G01*
X288250000Y-36980000D01*
G75*
G02*
X288450000Y-37180000I0J-200000D01*
G01*
X288450000Y-37580000D01*
G75*
G02*
X288250000Y-37780000I-200000J0D01*
G01*
X287250000Y-37780000D01*
G75*
G02*
X287050000Y-37580000I0J200000D01*
G01*
G37*
G36*
G01*
X287050000Y-35980000D02*
X287050000Y-35580000D01*
G75*
G02*
X287250000Y-35380000I200000J0D01*
G01*
X288250000Y-35380000D01*
G75*
G02*
X288450000Y-35580000I0J-200000D01*
G01*
X288450000Y-35980000D01*
G75*
G02*
X288250000Y-36180000I-200000J0D01*
G01*
X287250000Y-36180000D01*
G75*
G02*
X287050000Y-35980000I0J200000D01*
G01*
G37*
G36*
G01*
X287567500Y-39060000D02*
X287912500Y-39060000D01*
G75*
G02*
X288060000Y-39207500I0J-147500D01*
G01*
X288060000Y-39502500D01*
G75*
G02*
X287912500Y-39650000I-147500J0D01*
G01*
X287567500Y-39650000D01*
G75*
G02*
X287420000Y-39502500I0J147500D01*
G01*
X287420000Y-39207500D01*
G75*
G02*
X287567500Y-39060000I147500J0D01*
G01*
G37*
G36*
G01*
X287567500Y-38090000D02*
X287912500Y-38090000D01*
G75*
G02*
X288060000Y-38237500I0J-147500D01*
G01*
X288060000Y-38532500D01*
G75*
G02*
X287912500Y-38680000I-147500J0D01*
G01*
X287567500Y-38680000D01*
G75*
G02*
X287420000Y-38532500I0J147500D01*
G01*
X287420000Y-38237500D01*
G75*
G02*
X287567500Y-38090000I147500J0D01*
G01*
G37*
D23*
X279480000Y-71790000D03*
X279480000Y-71290000D03*
X281005000Y-71290000D03*
X281005000Y-71790000D03*
D24*
X279492500Y-70777500D03*
X279492500Y-72302500D03*
X280992500Y-70777500D03*
X280992500Y-72302500D03*
X280492500Y-70777500D03*
X279992500Y-70777500D03*
X280492500Y-72302500D03*
X279992500Y-72302500D03*
G36*
G01*
X277322500Y-55490000D02*
X276977500Y-55490000D01*
G75*
G02*
X276830000Y-55342500I0J147500D01*
G01*
X276830000Y-55047500D01*
G75*
G02*
X276977500Y-54900000I147500J0D01*
G01*
X277322500Y-54900000D01*
G75*
G02*
X277470000Y-55047500I0J-147500D01*
G01*
X277470000Y-55342500D01*
G75*
G02*
X277322500Y-55490000I-147500J0D01*
G01*
G37*
G36*
G01*
X277322500Y-56460000D02*
X276977500Y-56460000D01*
G75*
G02*
X276830000Y-56312500I0J147500D01*
G01*
X276830000Y-56017500D01*
G75*
G02*
X276977500Y-55870000I147500J0D01*
G01*
X277322500Y-55870000D01*
G75*
G02*
X277470000Y-56017500I0J-147500D01*
G01*
X277470000Y-56312500D01*
G75*
G02*
X277322500Y-56460000I-147500J0D01*
G01*
G37*
G36*
G01*
X277987500Y-55875000D02*
X278332500Y-55875000D01*
G75*
G02*
X278480000Y-56022500I0J-147500D01*
G01*
X278480000Y-56317500D01*
G75*
G02*
X278332500Y-56465000I-147500J0D01*
G01*
X277987500Y-56465000D01*
G75*
G02*
X277840000Y-56317500I0J147500D01*
G01*
X277840000Y-56022500D01*
G75*
G02*
X277987500Y-55875000I147500J0D01*
G01*
G37*
G36*
G01*
X277987500Y-54905000D02*
X278332500Y-54905000D01*
G75*
G02*
X278480000Y-55052500I0J-147500D01*
G01*
X278480000Y-55347500D01*
G75*
G02*
X278332500Y-55495000I-147500J0D01*
G01*
X277987500Y-55495000D01*
G75*
G02*
X277840000Y-55347500I0J147500D01*
G01*
X277840000Y-55052500D01*
G75*
G02*
X277987500Y-54905000I147500J0D01*
G01*
G37*
G36*
G01*
X285565000Y-36007500D02*
X285565000Y-36352500D01*
G75*
G02*
X285417500Y-36500000I-147500J0D01*
G01*
X285122500Y-36500000D01*
G75*
G02*
X284975000Y-36352500I0J147500D01*
G01*
X284975000Y-36007500D01*
G75*
G02*
X285122500Y-35860000I147500J0D01*
G01*
X285417500Y-35860000D01*
G75*
G02*
X285565000Y-36007500I0J-147500D01*
G01*
G37*
G36*
G01*
X286535000Y-36007500D02*
X286535000Y-36352500D01*
G75*
G02*
X286387500Y-36500000I-147500J0D01*
G01*
X286092500Y-36500000D01*
G75*
G02*
X285945000Y-36352500I0J147500D01*
G01*
X285945000Y-36007500D01*
G75*
G02*
X286092500Y-35860000I147500J0D01*
G01*
X286387500Y-35860000D01*
G75*
G02*
X286535000Y-36007500I0J-147500D01*
G01*
G37*
G36*
G01*
X273177500Y-55865000D02*
X273522500Y-55865000D01*
G75*
G02*
X273670000Y-56012500I0J-147500D01*
G01*
X273670000Y-56307500D01*
G75*
G02*
X273522500Y-56455000I-147500J0D01*
G01*
X273177500Y-56455000D01*
G75*
G02*
X273030000Y-56307500I0J147500D01*
G01*
X273030000Y-56012500D01*
G75*
G02*
X273177500Y-55865000I147500J0D01*
G01*
G37*
G36*
G01*
X273177500Y-54895000D02*
X273522500Y-54895000D01*
G75*
G02*
X273670000Y-55042500I0J-147500D01*
G01*
X273670000Y-55337500D01*
G75*
G02*
X273522500Y-55485000I-147500J0D01*
G01*
X273177500Y-55485000D01*
G75*
G02*
X273030000Y-55337500I0J147500D01*
G01*
X273030000Y-55042500D01*
G75*
G02*
X273177500Y-54895000I147500J0D01*
G01*
G37*
G36*
G01*
X285560000Y-37057500D02*
X285560000Y-37402500D01*
G75*
G02*
X285412500Y-37550000I-147500J0D01*
G01*
X285117500Y-37550000D01*
G75*
G02*
X284970000Y-37402500I0J147500D01*
G01*
X284970000Y-37057500D01*
G75*
G02*
X285117500Y-36910000I147500J0D01*
G01*
X285412500Y-36910000D01*
G75*
G02*
X285560000Y-37057500I0J-147500D01*
G01*
G37*
G36*
G01*
X286530000Y-37057500D02*
X286530000Y-37402500D01*
G75*
G02*
X286382500Y-37550000I-147500J0D01*
G01*
X286087500Y-37550000D01*
G75*
G02*
X285940000Y-37402500I0J147500D01*
G01*
X285940000Y-37057500D01*
G75*
G02*
X286087500Y-36910000I147500J0D01*
G01*
X286382500Y-36910000D01*
G75*
G02*
X286530000Y-37057500I0J-147500D01*
G01*
G37*
G36*
G01*
X283262500Y-34756250D02*
X283262500Y-34243750D01*
G75*
G02*
X283481250Y-34025000I218750J0D01*
G01*
X283918750Y-34025000D01*
G75*
G02*
X284137500Y-34243750I0J-218750D01*
G01*
X284137500Y-34756250D01*
G75*
G02*
X283918750Y-34975000I-218750J0D01*
G01*
X283481250Y-34975000D01*
G75*
G02*
X283262500Y-34756250I0J218750D01*
G01*
G37*
G36*
G01*
X281687500Y-34756250D02*
X281687500Y-34243750D01*
G75*
G02*
X281906250Y-34025000I218750J0D01*
G01*
X282343750Y-34025000D01*
G75*
G02*
X282562500Y-34243750I0J-218750D01*
G01*
X282562500Y-34756250D01*
G75*
G02*
X282343750Y-34975000I-218750J0D01*
G01*
X281906250Y-34975000D01*
G75*
G02*
X281687500Y-34756250I0J218750D01*
G01*
G37*
G36*
G01*
X272305500Y-33680000D02*
X272650500Y-33680000D01*
G75*
G02*
X272798000Y-33827500I0J-147500D01*
G01*
X272798000Y-34122500D01*
G75*
G02*
X272650500Y-34270000I-147500J0D01*
G01*
X272305500Y-34270000D01*
G75*
G02*
X272158000Y-34122500I0J147500D01*
G01*
X272158000Y-33827500D01*
G75*
G02*
X272305500Y-33680000I147500J0D01*
G01*
G37*
G36*
G01*
X272305500Y-32710000D02*
X272650500Y-32710000D01*
G75*
G02*
X272798000Y-32857500I0J-147500D01*
G01*
X272798000Y-33152500D01*
G75*
G02*
X272650500Y-33300000I-147500J0D01*
G01*
X272305500Y-33300000D01*
G75*
G02*
X272158000Y-33152500I0J147500D01*
G01*
X272158000Y-32857500D01*
G75*
G02*
X272305500Y-32710000I147500J0D01*
G01*
G37*
G36*
G01*
X270265500Y-33685000D02*
X270610500Y-33685000D01*
G75*
G02*
X270758000Y-33832500I0J-147500D01*
G01*
X270758000Y-34127500D01*
G75*
G02*
X270610500Y-34275000I-147500J0D01*
G01*
X270265500Y-34275000D01*
G75*
G02*
X270118000Y-34127500I0J147500D01*
G01*
X270118000Y-33832500D01*
G75*
G02*
X270265500Y-33685000I147500J0D01*
G01*
G37*
G36*
G01*
X270265500Y-32715000D02*
X270610500Y-32715000D01*
G75*
G02*
X270758000Y-32862500I0J-147500D01*
G01*
X270758000Y-33157500D01*
G75*
G02*
X270610500Y-33305000I-147500J0D01*
G01*
X270265500Y-33305000D01*
G75*
G02*
X270118000Y-33157500I0J147500D01*
G01*
X270118000Y-32862500D01*
G75*
G02*
X270265500Y-32715000I147500J0D01*
G01*
G37*
G36*
G01*
X275345500Y-33685000D02*
X275690500Y-33685000D01*
G75*
G02*
X275838000Y-33832500I0J-147500D01*
G01*
X275838000Y-34127500D01*
G75*
G02*
X275690500Y-34275000I-147500J0D01*
G01*
X275345500Y-34275000D01*
G75*
G02*
X275198000Y-34127500I0J147500D01*
G01*
X275198000Y-33832500D01*
G75*
G02*
X275345500Y-33685000I147500J0D01*
G01*
G37*
G36*
G01*
X275345500Y-32715000D02*
X275690500Y-32715000D01*
G75*
G02*
X275838000Y-32862500I0J-147500D01*
G01*
X275838000Y-33157500D01*
G75*
G02*
X275690500Y-33305000I-147500J0D01*
G01*
X275345500Y-33305000D01*
G75*
G02*
X275198000Y-33157500I0J147500D01*
G01*
X275198000Y-32862500D01*
G75*
G02*
X275345500Y-32715000I147500J0D01*
G01*
G37*
G36*
G01*
X266587500Y-62700000D02*
X266932500Y-62700000D01*
G75*
G02*
X267080000Y-62847500I0J-147500D01*
G01*
X267080000Y-63142500D01*
G75*
G02*
X266932500Y-63290000I-147500J0D01*
G01*
X266587500Y-63290000D01*
G75*
G02*
X266440000Y-63142500I0J147500D01*
G01*
X266440000Y-62847500D01*
G75*
G02*
X266587500Y-62700000I147500J0D01*
G01*
G37*
G36*
G01*
X266587500Y-61730000D02*
X266932500Y-61730000D01*
G75*
G02*
X267080000Y-61877500I0J-147500D01*
G01*
X267080000Y-62172500D01*
G75*
G02*
X266932500Y-62320000I-147500J0D01*
G01*
X266587500Y-62320000D01*
G75*
G02*
X266440000Y-62172500I0J147500D01*
G01*
X266440000Y-61877500D01*
G75*
G02*
X266587500Y-61730000I147500J0D01*
G01*
G37*
G36*
G01*
X284665000Y-41107500D02*
X284665000Y-41452500D01*
G75*
G02*
X284517500Y-41600000I-147500J0D01*
G01*
X284222500Y-41600000D01*
G75*
G02*
X284075000Y-41452500I0J147500D01*
G01*
X284075000Y-41107500D01*
G75*
G02*
X284222500Y-40960000I147500J0D01*
G01*
X284517500Y-40960000D01*
G75*
G02*
X284665000Y-41107500I0J-147500D01*
G01*
G37*
G36*
G01*
X285635000Y-41107500D02*
X285635000Y-41452500D01*
G75*
G02*
X285487500Y-41600000I-147500J0D01*
G01*
X285192500Y-41600000D01*
G75*
G02*
X285045000Y-41452500I0J147500D01*
G01*
X285045000Y-41107500D01*
G75*
G02*
X285192500Y-40960000I147500J0D01*
G01*
X285487500Y-40960000D01*
G75*
G02*
X285635000Y-41107500I0J-147500D01*
G01*
G37*
G36*
G01*
X279795000Y-69327500D02*
X279795000Y-69672500D01*
G75*
G02*
X279647500Y-69820000I-147500J0D01*
G01*
X279352500Y-69820000D01*
G75*
G02*
X279205000Y-69672500I0J147500D01*
G01*
X279205000Y-69327500D01*
G75*
G02*
X279352500Y-69180000I147500J0D01*
G01*
X279647500Y-69180000D01*
G75*
G02*
X279795000Y-69327500I0J-147500D01*
G01*
G37*
G36*
G01*
X280765000Y-69327500D02*
X280765000Y-69672500D01*
G75*
G02*
X280617500Y-69820000I-147500J0D01*
G01*
X280322500Y-69820000D01*
G75*
G02*
X280175000Y-69672500I0J147500D01*
G01*
X280175000Y-69327500D01*
G75*
G02*
X280322500Y-69180000I147500J0D01*
G01*
X280617500Y-69180000D01*
G75*
G02*
X280765000Y-69327500I0J-147500D01*
G01*
G37*
D25*
X279780000Y-55610000D03*
X281780000Y-54660000D03*
X281780000Y-56560000D03*
G36*
G01*
X280162500Y-74065000D02*
X279817500Y-74065000D01*
G75*
G02*
X279670000Y-73917500I0J147500D01*
G01*
X279670000Y-73622500D01*
G75*
G02*
X279817500Y-73475000I147500J0D01*
G01*
X280162500Y-73475000D01*
G75*
G02*
X280310000Y-73622500I0J-147500D01*
G01*
X280310000Y-73917500D01*
G75*
G02*
X280162500Y-74065000I-147500J0D01*
G01*
G37*
G36*
G01*
X280162500Y-75035000D02*
X279817500Y-75035000D01*
G75*
G02*
X279670000Y-74887500I0J147500D01*
G01*
X279670000Y-74592500D01*
G75*
G02*
X279817500Y-74445000I147500J0D01*
G01*
X280162500Y-74445000D01*
G75*
G02*
X280310000Y-74592500I0J-147500D01*
G01*
X280310000Y-74887500D01*
G75*
G02*
X280162500Y-75035000I-147500J0D01*
G01*
G37*
G36*
G01*
X289585000Y-39492500D02*
X289585000Y-39147500D01*
G75*
G02*
X289732500Y-39000000I147500J0D01*
G01*
X290027500Y-39000000D01*
G75*
G02*
X290175000Y-39147500I0J-147500D01*
G01*
X290175000Y-39492500D01*
G75*
G02*
X290027500Y-39640000I-147500J0D01*
G01*
X289732500Y-39640000D01*
G75*
G02*
X289585000Y-39492500I0J147500D01*
G01*
G37*
G36*
G01*
X288615000Y-39492500D02*
X288615000Y-39147500D01*
G75*
G02*
X288762500Y-39000000I147500J0D01*
G01*
X289057500Y-39000000D01*
G75*
G02*
X289205000Y-39147500I0J-147500D01*
G01*
X289205000Y-39492500D01*
G75*
G02*
X289057500Y-39640000I-147500J0D01*
G01*
X288762500Y-39640000D01*
G75*
G02*
X288615000Y-39492500I0J147500D01*
G01*
G37*
G36*
G01*
X279510000Y-41642500D02*
X279510000Y-41297500D01*
G75*
G02*
X279657500Y-41150000I147500J0D01*
G01*
X279952500Y-41150000D01*
G75*
G02*
X280100000Y-41297500I0J-147500D01*
G01*
X280100000Y-41642500D01*
G75*
G02*
X279952500Y-41790000I-147500J0D01*
G01*
X279657500Y-41790000D01*
G75*
G02*
X279510000Y-41642500I0J147500D01*
G01*
G37*
G36*
G01*
X278540000Y-41642500D02*
X278540000Y-41297500D01*
G75*
G02*
X278687500Y-41150000I147500J0D01*
G01*
X278982500Y-41150000D01*
G75*
G02*
X279130000Y-41297500I0J-147500D01*
G01*
X279130000Y-41642500D01*
G75*
G02*
X278982500Y-41790000I-147500J0D01*
G01*
X278687500Y-41790000D01*
G75*
G02*
X278540000Y-41642500I0J147500D01*
G01*
G37*
G36*
G01*
X284541000Y-39479000D02*
X284196000Y-39479000D01*
G75*
G02*
X284048500Y-39331500I0J147500D01*
G01*
X284048500Y-39036500D01*
G75*
G02*
X284196000Y-38889000I147500J0D01*
G01*
X284541000Y-38889000D01*
G75*
G02*
X284688500Y-39036500I0J-147500D01*
G01*
X284688500Y-39331500D01*
G75*
G02*
X284541000Y-39479000I-147500J0D01*
G01*
G37*
G36*
G01*
X284541000Y-40449000D02*
X284196000Y-40449000D01*
G75*
G02*
X284048500Y-40301500I0J147500D01*
G01*
X284048500Y-40006500D01*
G75*
G02*
X284196000Y-39859000I147500J0D01*
G01*
X284541000Y-39859000D01*
G75*
G02*
X284688500Y-40006500I0J-147500D01*
G01*
X284688500Y-40301500D01*
G75*
G02*
X284541000Y-40449000I-147500J0D01*
G01*
G37*
G36*
G01*
X268212500Y-55485000D02*
X267867500Y-55485000D01*
G75*
G02*
X267720000Y-55337500I0J147500D01*
G01*
X267720000Y-55042500D01*
G75*
G02*
X267867500Y-54895000I147500J0D01*
G01*
X268212500Y-54895000D01*
G75*
G02*
X268360000Y-55042500I0J-147500D01*
G01*
X268360000Y-55337500D01*
G75*
G02*
X268212500Y-55485000I-147500J0D01*
G01*
G37*
G36*
G01*
X268212500Y-56455000D02*
X267867500Y-56455000D01*
G75*
G02*
X267720000Y-56307500I0J147500D01*
G01*
X267720000Y-56012500D01*
G75*
G02*
X267867500Y-55865000I147500J0D01*
G01*
X268212500Y-55865000D01*
G75*
G02*
X268360000Y-56012500I0J-147500D01*
G01*
X268360000Y-56307500D01*
G75*
G02*
X268212500Y-56455000I-147500J0D01*
G01*
G37*
G36*
G01*
X278595000Y-58837500D02*
X278595000Y-59182500D01*
G75*
G02*
X278447500Y-59330000I-147500J0D01*
G01*
X278152500Y-59330000D01*
G75*
G02*
X278005000Y-59182500I0J147500D01*
G01*
X278005000Y-58837500D01*
G75*
G02*
X278152500Y-58690000I147500J0D01*
G01*
X278447500Y-58690000D01*
G75*
G02*
X278595000Y-58837500I0J-147500D01*
G01*
G37*
G36*
G01*
X279565000Y-58837500D02*
X279565000Y-59182500D01*
G75*
G02*
X279417500Y-59330000I-147500J0D01*
G01*
X279122500Y-59330000D01*
G75*
G02*
X278975000Y-59182500I0J147500D01*
G01*
X278975000Y-58837500D01*
G75*
G02*
X279122500Y-58690000I147500J0D01*
G01*
X279417500Y-58690000D01*
G75*
G02*
X279565000Y-58837500I0J-147500D01*
G01*
G37*
D26*
X276158500Y-45434000D03*
X276158500Y-46834000D03*
G36*
G01*
X274922500Y-67415000D02*
X274577500Y-67415000D01*
G75*
G02*
X274430000Y-67267500I0J147500D01*
G01*
X274430000Y-66972500D01*
G75*
G02*
X274577500Y-66825000I147500J0D01*
G01*
X274922500Y-66825000D01*
G75*
G02*
X275070000Y-66972500I0J-147500D01*
G01*
X275070000Y-67267500D01*
G75*
G02*
X274922500Y-67415000I-147500J0D01*
G01*
G37*
G36*
G01*
X274922500Y-68385000D02*
X274577500Y-68385000D01*
G75*
G02*
X274430000Y-68237500I0J147500D01*
G01*
X274430000Y-67942500D01*
G75*
G02*
X274577500Y-67795000I147500J0D01*
G01*
X274922500Y-67795000D01*
G75*
G02*
X275070000Y-67942500I0J-147500D01*
G01*
X275070000Y-68237500D01*
G75*
G02*
X274922500Y-68385000I-147500J0D01*
G01*
G37*
D27*
X279797000Y-37683000D03*
X278847000Y-37683000D03*
X280747000Y-37683000D03*
X280747000Y-39883000D03*
X279797000Y-39883000D03*
X278847000Y-39883000D03*
G36*
G01*
X280687000Y-35690500D02*
X280687000Y-36035500D01*
G75*
G02*
X280539500Y-36183000I-147500J0D01*
G01*
X280244500Y-36183000D01*
G75*
G02*
X280097000Y-36035500I0J147500D01*
G01*
X280097000Y-35690500D01*
G75*
G02*
X280244500Y-35543000I147500J0D01*
G01*
X280539500Y-35543000D01*
G75*
G02*
X280687000Y-35690500I0J-147500D01*
G01*
G37*
G36*
G01*
X281657000Y-35690500D02*
X281657000Y-36035500D01*
G75*
G02*
X281509500Y-36183000I-147500J0D01*
G01*
X281214500Y-36183000D01*
G75*
G02*
X281067000Y-36035500I0J147500D01*
G01*
X281067000Y-35690500D01*
G75*
G02*
X281214500Y-35543000I147500J0D01*
G01*
X281509500Y-35543000D01*
G75*
G02*
X281657000Y-35690500I0J-147500D01*
G01*
G37*
G36*
G01*
X290112500Y-43120000D02*
X289767500Y-43120000D01*
G75*
G02*
X289620000Y-42972500I0J147500D01*
G01*
X289620000Y-42677500D01*
G75*
G02*
X289767500Y-42530000I147500J0D01*
G01*
X290112500Y-42530000D01*
G75*
G02*
X290260000Y-42677500I0J-147500D01*
G01*
X290260000Y-42972500D01*
G75*
G02*
X290112500Y-43120000I-147500J0D01*
G01*
G37*
G36*
G01*
X290112500Y-44090000D02*
X289767500Y-44090000D01*
G75*
G02*
X289620000Y-43942500I0J147500D01*
G01*
X289620000Y-43647500D01*
G75*
G02*
X289767500Y-43500000I147500J0D01*
G01*
X290112500Y-43500000D01*
G75*
G02*
X290260000Y-43647500I0J-147500D01*
G01*
X290260000Y-43942500D01*
G75*
G02*
X290112500Y-44090000I-147500J0D01*
G01*
G37*
G36*
G01*
X291321395Y-43122495D02*
X290976395Y-43122495D01*
G75*
G02*
X290828895Y-42974995I0J147500D01*
G01*
X290828895Y-42679995D01*
G75*
G02*
X290976395Y-42532495I147500J0D01*
G01*
X291321395Y-42532495D01*
G75*
G02*
X291468895Y-42679995I0J-147500D01*
G01*
X291468895Y-42974995D01*
G75*
G02*
X291321395Y-43122495I-147500J0D01*
G01*
G37*
G36*
G01*
X291321395Y-44092495D02*
X290976395Y-44092495D01*
G75*
G02*
X290828895Y-43944995I0J147500D01*
G01*
X290828895Y-43649995D01*
G75*
G02*
X290976395Y-43502495I147500J0D01*
G01*
X291321395Y-43502495D01*
G75*
G02*
X291468895Y-43649995I0J-147500D01*
G01*
X291468895Y-43944995D01*
G75*
G02*
X291321395Y-44092495I-147500J0D01*
G01*
G37*
G36*
G01*
X277372500Y-40175000D02*
X277027500Y-40175000D01*
G75*
G02*
X276880000Y-40027500I0J147500D01*
G01*
X276880000Y-39732500D01*
G75*
G02*
X277027500Y-39585000I147500J0D01*
G01*
X277372500Y-39585000D01*
G75*
G02*
X277520000Y-39732500I0J-147500D01*
G01*
X277520000Y-40027500D01*
G75*
G02*
X277372500Y-40175000I-147500J0D01*
G01*
G37*
G36*
G01*
X277372500Y-41145000D02*
X277027500Y-41145000D01*
G75*
G02*
X276880000Y-40997500I0J147500D01*
G01*
X276880000Y-40702500D01*
G75*
G02*
X277027500Y-40555000I147500J0D01*
G01*
X277372500Y-40555000D01*
G75*
G02*
X277520000Y-40702500I0J-147500D01*
G01*
X277520000Y-40997500D01*
G75*
G02*
X277372500Y-41145000I-147500J0D01*
G01*
G37*
G36*
G01*
X278732000Y-35690500D02*
X278732000Y-36035500D01*
G75*
G02*
X278584500Y-36183000I-147500J0D01*
G01*
X278289500Y-36183000D01*
G75*
G02*
X278142000Y-36035500I0J147500D01*
G01*
X278142000Y-35690500D01*
G75*
G02*
X278289500Y-35543000I147500J0D01*
G01*
X278584500Y-35543000D01*
G75*
G02*
X278732000Y-35690500I0J-147500D01*
G01*
G37*
G36*
G01*
X279702000Y-35690500D02*
X279702000Y-36035500D01*
G75*
G02*
X279554500Y-36183000I-147500J0D01*
G01*
X279259500Y-36183000D01*
G75*
G02*
X279112000Y-36035500I0J147500D01*
G01*
X279112000Y-35690500D01*
G75*
G02*
X279259500Y-35543000I147500J0D01*
G01*
X279554500Y-35543000D01*
G75*
G02*
X279702000Y-35690500I0J-147500D01*
G01*
G37*
G36*
G01*
X289337500Y-34305000D02*
X289682500Y-34305000D01*
G75*
G02*
X289830000Y-34452500I0J-147500D01*
G01*
X289830000Y-34747500D01*
G75*
G02*
X289682500Y-34895000I-147500J0D01*
G01*
X289337500Y-34895000D01*
G75*
G02*
X289190000Y-34747500I0J147500D01*
G01*
X289190000Y-34452500D01*
G75*
G02*
X289337500Y-34305000I147500J0D01*
G01*
G37*
G36*
G01*
X289337500Y-33335000D02*
X289682500Y-33335000D01*
G75*
G02*
X289830000Y-33482500I0J-147500D01*
G01*
X289830000Y-33777500D01*
G75*
G02*
X289682500Y-33925000I-147500J0D01*
G01*
X289337500Y-33925000D01*
G75*
G02*
X289190000Y-33777500I0J147500D01*
G01*
X289190000Y-33482500D01*
G75*
G02*
X289337500Y-33335000I147500J0D01*
G01*
G37*
G36*
G01*
X280827500Y-74455000D02*
X281172500Y-74455000D01*
G75*
G02*
X281320000Y-74602500I0J-147500D01*
G01*
X281320000Y-74897500D01*
G75*
G02*
X281172500Y-75045000I-147500J0D01*
G01*
X280827500Y-75045000D01*
G75*
G02*
X280680000Y-74897500I0J147500D01*
G01*
X280680000Y-74602500D01*
G75*
G02*
X280827500Y-74455000I147500J0D01*
G01*
G37*
G36*
G01*
X280827500Y-73485000D02*
X281172500Y-73485000D01*
G75*
G02*
X281320000Y-73632500I0J-147500D01*
G01*
X281320000Y-73927500D01*
G75*
G02*
X281172500Y-74075000I-147500J0D01*
G01*
X280827500Y-74075000D01*
G75*
G02*
X280680000Y-73927500I0J147500D01*
G01*
X280680000Y-73632500D01*
G75*
G02*
X280827500Y-73485000I147500J0D01*
G01*
G37*
G36*
G01*
X271247500Y-55860000D02*
X271592500Y-55860000D01*
G75*
G02*
X271740000Y-56007500I0J-147500D01*
G01*
X271740000Y-56302500D01*
G75*
G02*
X271592500Y-56450000I-147500J0D01*
G01*
X271247500Y-56450000D01*
G75*
G02*
X271100000Y-56302500I0J147500D01*
G01*
X271100000Y-56007500D01*
G75*
G02*
X271247500Y-55860000I147500J0D01*
G01*
G37*
G36*
G01*
X271247500Y-54890000D02*
X271592500Y-54890000D01*
G75*
G02*
X271740000Y-55037500I0J-147500D01*
G01*
X271740000Y-55332500D01*
G75*
G02*
X271592500Y-55480000I-147500J0D01*
G01*
X271247500Y-55480000D01*
G75*
G02*
X271100000Y-55332500I0J147500D01*
G01*
X271100000Y-55037500D01*
G75*
G02*
X271247500Y-54890000I147500J0D01*
G01*
G37*
G36*
G01*
X269847500Y-55860000D02*
X270192500Y-55860000D01*
G75*
G02*
X270340000Y-56007500I0J-147500D01*
G01*
X270340000Y-56302500D01*
G75*
G02*
X270192500Y-56450000I-147500J0D01*
G01*
X269847500Y-56450000D01*
G75*
G02*
X269700000Y-56302500I0J147500D01*
G01*
X269700000Y-56007500D01*
G75*
G02*
X269847500Y-55860000I147500J0D01*
G01*
G37*
G36*
G01*
X269847500Y-54890000D02*
X270192500Y-54890000D01*
G75*
G02*
X270340000Y-55037500I0J-147500D01*
G01*
X270340000Y-55332500D01*
G75*
G02*
X270192500Y-55480000I-147500J0D01*
G01*
X269847500Y-55480000D01*
G75*
G02*
X269700000Y-55332500I0J147500D01*
G01*
X269700000Y-55037500D01*
G75*
G02*
X269847500Y-54890000I147500J0D01*
G01*
G37*
G36*
G01*
X290377500Y-34305000D02*
X290722500Y-34305000D01*
G75*
G02*
X290870000Y-34452500I0J-147500D01*
G01*
X290870000Y-34747500D01*
G75*
G02*
X290722500Y-34895000I-147500J0D01*
G01*
X290377500Y-34895000D01*
G75*
G02*
X290230000Y-34747500I0J147500D01*
G01*
X290230000Y-34452500D01*
G75*
G02*
X290377500Y-34305000I147500J0D01*
G01*
G37*
G36*
G01*
X290377500Y-33335000D02*
X290722500Y-33335000D01*
G75*
G02*
X290870000Y-33482500I0J-147500D01*
G01*
X290870000Y-33777500D01*
G75*
G02*
X290722500Y-33925000I-147500J0D01*
G01*
X290377500Y-33925000D01*
G75*
G02*
X290230000Y-33777500I0J147500D01*
G01*
X290230000Y-33482500D01*
G75*
G02*
X290377500Y-33335000I147500J0D01*
G01*
G37*
D28*
X272010000Y-53750000D03*
X269810000Y-53750000D03*
X269810000Y-52050000D03*
X272010000Y-52050000D03*
G36*
G01*
X278488500Y-63347500D02*
X278488500Y-63692500D01*
G75*
G02*
X278341000Y-63840000I-147500J0D01*
G01*
X278046000Y-63840000D01*
G75*
G02*
X277898500Y-63692500I0J147500D01*
G01*
X277898500Y-63347500D01*
G75*
G02*
X278046000Y-63200000I147500J0D01*
G01*
X278341000Y-63200000D01*
G75*
G02*
X278488500Y-63347500I0J-147500D01*
G01*
G37*
G36*
G01*
X279458500Y-63347500D02*
X279458500Y-63692500D01*
G75*
G02*
X279311000Y-63840000I-147500J0D01*
G01*
X279016000Y-63840000D01*
G75*
G02*
X278868500Y-63692500I0J147500D01*
G01*
X278868500Y-63347500D01*
G75*
G02*
X279016000Y-63200000I147500J0D01*
G01*
X279311000Y-63200000D01*
G75*
G02*
X279458500Y-63347500I0J-147500D01*
G01*
G37*
G36*
G01*
X275435000Y-54997500D02*
X275435000Y-55342500D01*
G75*
G02*
X275287500Y-55490000I-147500J0D01*
G01*
X274992500Y-55490000D01*
G75*
G02*
X274845000Y-55342500I0J147500D01*
G01*
X274845000Y-54997500D01*
G75*
G02*
X274992500Y-54850000I147500J0D01*
G01*
X275287500Y-54850000D01*
G75*
G02*
X275435000Y-54997500I0J-147500D01*
G01*
G37*
G36*
G01*
X276405000Y-54997500D02*
X276405000Y-55342500D01*
G75*
G02*
X276257500Y-55490000I-147500J0D01*
G01*
X275962500Y-55490000D01*
G75*
G02*
X275815000Y-55342500I0J147500D01*
G01*
X275815000Y-54997500D01*
G75*
G02*
X275962500Y-54850000I147500J0D01*
G01*
X276257500Y-54850000D01*
G75*
G02*
X276405000Y-54997500I0J-147500D01*
G01*
G37*
G36*
G01*
X275815000Y-56362500D02*
X275815000Y-56017500D01*
G75*
G02*
X275962500Y-55870000I147500J0D01*
G01*
X276257500Y-55870000D01*
G75*
G02*
X276405000Y-56017500I0J-147500D01*
G01*
X276405000Y-56362500D01*
G75*
G02*
X276257500Y-56510000I-147500J0D01*
G01*
X275962500Y-56510000D01*
G75*
G02*
X275815000Y-56362500I0J147500D01*
G01*
G37*
G36*
G01*
X274845000Y-56362500D02*
X274845000Y-56017500D01*
G75*
G02*
X274992500Y-55870000I147500J0D01*
G01*
X275287500Y-55870000D01*
G75*
G02*
X275435000Y-56017500I0J-147500D01*
G01*
X275435000Y-56362500D01*
G75*
G02*
X275287500Y-56510000I-147500J0D01*
G01*
X274992500Y-56510000D01*
G75*
G02*
X274845000Y-56362500I0J147500D01*
G01*
G37*
G36*
G01*
X274680500Y-33305000D02*
X274335500Y-33305000D01*
G75*
G02*
X274188000Y-33157500I0J147500D01*
G01*
X274188000Y-32862500D01*
G75*
G02*
X274335500Y-32715000I147500J0D01*
G01*
X274680500Y-32715000D01*
G75*
G02*
X274828000Y-32862500I0J-147500D01*
G01*
X274828000Y-33157500D01*
G75*
G02*
X274680500Y-33305000I-147500J0D01*
G01*
G37*
G36*
G01*
X274680500Y-34275000D02*
X274335500Y-34275000D01*
G75*
G02*
X274188000Y-34127500I0J147500D01*
G01*
X274188000Y-33832500D01*
G75*
G02*
X274335500Y-33685000I147500J0D01*
G01*
X274680500Y-33685000D01*
G75*
G02*
X274828000Y-33832500I0J-147500D01*
G01*
X274828000Y-34127500D01*
G75*
G02*
X274680500Y-34275000I-147500J0D01*
G01*
G37*
G36*
G01*
X273660500Y-33305000D02*
X273315500Y-33305000D01*
G75*
G02*
X273168000Y-33157500I0J147500D01*
G01*
X273168000Y-32862500D01*
G75*
G02*
X273315500Y-32715000I147500J0D01*
G01*
X273660500Y-32715000D01*
G75*
G02*
X273808000Y-32862500I0J-147500D01*
G01*
X273808000Y-33157500D01*
G75*
G02*
X273660500Y-33305000I-147500J0D01*
G01*
G37*
G36*
G01*
X273660500Y-34275000D02*
X273315500Y-34275000D01*
G75*
G02*
X273168000Y-34127500I0J147500D01*
G01*
X273168000Y-33832500D01*
G75*
G02*
X273315500Y-33685000I147500J0D01*
G01*
X273660500Y-33685000D01*
G75*
G02*
X273808000Y-33832500I0J-147500D01*
G01*
X273808000Y-34127500D01*
G75*
G02*
X273660500Y-34275000I-147500J0D01*
G01*
G37*
G36*
G01*
X276355500Y-33690000D02*
X276700500Y-33690000D01*
G75*
G02*
X276848000Y-33837500I0J-147500D01*
G01*
X276848000Y-34132500D01*
G75*
G02*
X276700500Y-34280000I-147500J0D01*
G01*
X276355500Y-34280000D01*
G75*
G02*
X276208000Y-34132500I0J147500D01*
G01*
X276208000Y-33837500D01*
G75*
G02*
X276355500Y-33690000I147500J0D01*
G01*
G37*
G36*
G01*
X276355500Y-32720000D02*
X276700500Y-32720000D01*
G75*
G02*
X276848000Y-32867500I0J-147500D01*
G01*
X276848000Y-33162500D01*
G75*
G02*
X276700500Y-33310000I-147500J0D01*
G01*
X276355500Y-33310000D01*
G75*
G02*
X276208000Y-33162500I0J147500D01*
G01*
X276208000Y-32867500D01*
G75*
G02*
X276355500Y-32720000I147500J0D01*
G01*
G37*
G36*
G01*
X271285500Y-33685000D02*
X271630500Y-33685000D01*
G75*
G02*
X271778000Y-33832500I0J-147500D01*
G01*
X271778000Y-34127500D01*
G75*
G02*
X271630500Y-34275000I-147500J0D01*
G01*
X271285500Y-34275000D01*
G75*
G02*
X271138000Y-34127500I0J147500D01*
G01*
X271138000Y-33832500D01*
G75*
G02*
X271285500Y-33685000I147500J0D01*
G01*
G37*
G36*
G01*
X271285500Y-32715000D02*
X271630500Y-32715000D01*
G75*
G02*
X271778000Y-32862500I0J-147500D01*
G01*
X271778000Y-33157500D01*
G75*
G02*
X271630500Y-33305000I-147500J0D01*
G01*
X271285500Y-33305000D01*
G75*
G02*
X271138000Y-33157500I0J147500D01*
G01*
X271138000Y-32862500D01*
G75*
G02*
X271285500Y-32715000I147500J0D01*
G01*
G37*
G36*
G01*
X269422500Y-67385000D02*
X269077500Y-67385000D01*
G75*
G02*
X268930000Y-67237500I0J147500D01*
G01*
X268930000Y-66942500D01*
G75*
G02*
X269077500Y-66795000I147500J0D01*
G01*
X269422500Y-66795000D01*
G75*
G02*
X269570000Y-66942500I0J-147500D01*
G01*
X269570000Y-67237500D01*
G75*
G02*
X269422500Y-67385000I-147500J0D01*
G01*
G37*
G36*
G01*
X269422500Y-68355000D02*
X269077500Y-68355000D01*
G75*
G02*
X268930000Y-68207500I0J147500D01*
G01*
X268930000Y-67912500D01*
G75*
G02*
X269077500Y-67765000I147500J0D01*
G01*
X269422500Y-67765000D01*
G75*
G02*
X269570000Y-67912500I0J-147500D01*
G01*
X269570000Y-68207500D01*
G75*
G02*
X269422500Y-68355000I-147500J0D01*
G01*
G37*
G36*
G01*
X272207500Y-55865000D02*
X272552500Y-55865000D01*
G75*
G02*
X272700000Y-56012500I0J-147500D01*
G01*
X272700000Y-56307500D01*
G75*
G02*
X272552500Y-56455000I-147500J0D01*
G01*
X272207500Y-56455000D01*
G75*
G02*
X272060000Y-56307500I0J147500D01*
G01*
X272060000Y-56012500D01*
G75*
G02*
X272207500Y-55865000I147500J0D01*
G01*
G37*
G36*
G01*
X272207500Y-54895000D02*
X272552500Y-54895000D01*
G75*
G02*
X272700000Y-55042500I0J-147500D01*
G01*
X272700000Y-55337500D01*
G75*
G02*
X272552500Y-55485000I-147500J0D01*
G01*
X272207500Y-55485000D01*
G75*
G02*
X272060000Y-55337500I0J147500D01*
G01*
X272060000Y-55042500D01*
G75*
G02*
X272207500Y-54895000I147500J0D01*
G01*
G37*
G36*
G01*
X267952500Y-64315000D02*
X267607500Y-64315000D01*
G75*
G02*
X267460000Y-64167500I0J147500D01*
G01*
X267460000Y-63872500D01*
G75*
G02*
X267607500Y-63725000I147500J0D01*
G01*
X267952500Y-63725000D01*
G75*
G02*
X268100000Y-63872500I0J-147500D01*
G01*
X268100000Y-64167500D01*
G75*
G02*
X267952500Y-64315000I-147500J0D01*
G01*
G37*
G36*
G01*
X267952500Y-65285000D02*
X267607500Y-65285000D01*
G75*
G02*
X267460000Y-65137500I0J147500D01*
G01*
X267460000Y-64842500D01*
G75*
G02*
X267607500Y-64695000I147500J0D01*
G01*
X267952500Y-64695000D01*
G75*
G02*
X268100000Y-64842500I0J-147500D01*
G01*
X268100000Y-65137500D01*
G75*
G02*
X267952500Y-65285000I-147500J0D01*
G01*
G37*
G36*
G01*
X266922500Y-64315000D02*
X266577500Y-64315000D01*
G75*
G02*
X266430000Y-64167500I0J147500D01*
G01*
X266430000Y-63872500D01*
G75*
G02*
X266577500Y-63725000I147500J0D01*
G01*
X266922500Y-63725000D01*
G75*
G02*
X267070000Y-63872500I0J-147500D01*
G01*
X267070000Y-64167500D01*
G75*
G02*
X266922500Y-64315000I-147500J0D01*
G01*
G37*
G36*
G01*
X266922500Y-65285000D02*
X266577500Y-65285000D01*
G75*
G02*
X266430000Y-65137500I0J147500D01*
G01*
X266430000Y-64842500D01*
G75*
G02*
X266577500Y-64695000I147500J0D01*
G01*
X266922500Y-64695000D01*
G75*
G02*
X267070000Y-64842500I0J-147500D01*
G01*
X267070000Y-65137500D01*
G75*
G02*
X266922500Y-65285000I-147500J0D01*
G01*
G37*
G36*
G01*
X267962500Y-62325000D02*
X267617500Y-62325000D01*
G75*
G02*
X267470000Y-62177500I0J147500D01*
G01*
X267470000Y-61882500D01*
G75*
G02*
X267617500Y-61735000I147500J0D01*
G01*
X267962500Y-61735000D01*
G75*
G02*
X268110000Y-61882500I0J-147500D01*
G01*
X268110000Y-62177500D01*
G75*
G02*
X267962500Y-62325000I-147500J0D01*
G01*
G37*
G36*
G01*
X267962500Y-63295000D02*
X267617500Y-63295000D01*
G75*
G02*
X267470000Y-63147500I0J147500D01*
G01*
X267470000Y-62852500D01*
G75*
G02*
X267617500Y-62705000I147500J0D01*
G01*
X267962500Y-62705000D01*
G75*
G02*
X268110000Y-62852500I0J-147500D01*
G01*
X268110000Y-63147500D01*
G75*
G02*
X267962500Y-63295000I-147500J0D01*
G01*
G37*
G36*
G01*
X285886250Y-49222500D02*
X284973750Y-49222500D01*
G75*
G02*
X284730000Y-48978750I0J243750D01*
G01*
X284730000Y-48491250D01*
G75*
G02*
X284973750Y-48247500I243750J0D01*
G01*
X285886250Y-48247500D01*
G75*
G02*
X286130000Y-48491250I0J-243750D01*
G01*
X286130000Y-48978750D01*
G75*
G02*
X285886250Y-49222500I-243750J0D01*
G01*
G37*
G36*
G01*
X285886250Y-51097500D02*
X284973750Y-51097500D01*
G75*
G02*
X284730000Y-50853750I0J243750D01*
G01*
X284730000Y-50366250D01*
G75*
G02*
X284973750Y-50122500I243750J0D01*
G01*
X285886250Y-50122500D01*
G75*
G02*
X286130000Y-50366250I0J-243750D01*
G01*
X286130000Y-50853750D01*
G75*
G02*
X285886250Y-51097500I-243750J0D01*
G01*
G37*
G36*
G01*
X259600000Y-57152500D02*
X259600000Y-56807500D01*
G75*
G02*
X259747500Y-56660000I147500J0D01*
G01*
X260042500Y-56660000D01*
G75*
G02*
X260190000Y-56807500I0J-147500D01*
G01*
X260190000Y-57152500D01*
G75*
G02*
X260042500Y-57300000I-147500J0D01*
G01*
X259747500Y-57300000D01*
G75*
G02*
X259600000Y-57152500I0J147500D01*
G01*
G37*
G36*
G01*
X258630000Y-57152500D02*
X258630000Y-56807500D01*
G75*
G02*
X258777500Y-56660000I147500J0D01*
G01*
X259072500Y-56660000D01*
G75*
G02*
X259220000Y-56807500I0J-147500D01*
G01*
X259220000Y-57152500D01*
G75*
G02*
X259072500Y-57300000I-147500J0D01*
G01*
X258777500Y-57300000D01*
G75*
G02*
X258630000Y-57152500I0J147500D01*
G01*
G37*
G36*
G01*
X291321395Y-47122995D02*
X290976395Y-47122995D01*
G75*
G02*
X290828895Y-46975495I0J147500D01*
G01*
X290828895Y-46680495D01*
G75*
G02*
X290976395Y-46532995I147500J0D01*
G01*
X291321395Y-46532995D01*
G75*
G02*
X291468895Y-46680495I0J-147500D01*
G01*
X291468895Y-46975495D01*
G75*
G02*
X291321395Y-47122995I-147500J0D01*
G01*
G37*
G36*
G01*
X291321395Y-48092995D02*
X290976395Y-48092995D01*
G75*
G02*
X290828895Y-47945495I0J147500D01*
G01*
X290828895Y-47650495D01*
G75*
G02*
X290976395Y-47502995I147500J0D01*
G01*
X291321395Y-47502995D01*
G75*
G02*
X291468895Y-47650495I0J-147500D01*
G01*
X291468895Y-47945495D01*
G75*
G02*
X291321395Y-48092995I-147500J0D01*
G01*
G37*
G36*
G01*
X291321395Y-51186995D02*
X290976395Y-51186995D01*
G75*
G02*
X290828895Y-51039495I0J147500D01*
G01*
X290828895Y-50744495D01*
G75*
G02*
X290976395Y-50596995I147500J0D01*
G01*
X291321395Y-50596995D01*
G75*
G02*
X291468895Y-50744495I0J-147500D01*
G01*
X291468895Y-51039495D01*
G75*
G02*
X291321395Y-51186995I-147500J0D01*
G01*
G37*
G36*
G01*
X291321395Y-52156995D02*
X290976395Y-52156995D01*
G75*
G02*
X290828895Y-52009495I0J147500D01*
G01*
X290828895Y-51714495D01*
G75*
G02*
X290976395Y-51566995I147500J0D01*
G01*
X291321395Y-51566995D01*
G75*
G02*
X291468895Y-51714495I0J-147500D01*
G01*
X291468895Y-52009495D01*
G75*
G02*
X291321395Y-52156995I-147500J0D01*
G01*
G37*
G36*
G01*
X291321395Y-55122000D02*
X290976395Y-55122000D01*
G75*
G02*
X290828895Y-54974500I0J147500D01*
G01*
X290828895Y-54679500D01*
G75*
G02*
X290976395Y-54532000I147500J0D01*
G01*
X291321395Y-54532000D01*
G75*
G02*
X291468895Y-54679500I0J-147500D01*
G01*
X291468895Y-54974500D01*
G75*
G02*
X291321395Y-55122000I-147500J0D01*
G01*
G37*
G36*
G01*
X291321395Y-56092000D02*
X290976395Y-56092000D01*
G75*
G02*
X290828895Y-55944500I0J147500D01*
G01*
X290828895Y-55649500D01*
G75*
G02*
X290976395Y-55502000I147500J0D01*
G01*
X291321395Y-55502000D01*
G75*
G02*
X291468895Y-55649500I0J-147500D01*
G01*
X291468895Y-55944500D01*
G75*
G02*
X291321395Y-56092000I-147500J0D01*
G01*
G37*
G36*
G01*
X291321395Y-59124495D02*
X290976395Y-59124495D01*
G75*
G02*
X290828895Y-58976995I0J147500D01*
G01*
X290828895Y-58681995D01*
G75*
G02*
X290976395Y-58534495I147500J0D01*
G01*
X291321395Y-58534495D01*
G75*
G02*
X291468895Y-58681995I0J-147500D01*
G01*
X291468895Y-58976995D01*
G75*
G02*
X291321395Y-59124495I-147500J0D01*
G01*
G37*
G36*
G01*
X291321395Y-60094495D02*
X290976395Y-60094495D01*
G75*
G02*
X290828895Y-59946995I0J147500D01*
G01*
X290828895Y-59651995D01*
G75*
G02*
X290976395Y-59504495I147500J0D01*
G01*
X291321395Y-59504495D01*
G75*
G02*
X291468895Y-59651995I0J-147500D01*
G01*
X291468895Y-59946995D01*
G75*
G02*
X291321395Y-60094495I-147500J0D01*
G01*
G37*
G36*
G01*
X291292500Y-63195000D02*
X290947500Y-63195000D01*
G75*
G02*
X290800000Y-63047500I0J147500D01*
G01*
X290800000Y-62752500D01*
G75*
G02*
X290947500Y-62605000I147500J0D01*
G01*
X291292500Y-62605000D01*
G75*
G02*
X291440000Y-62752500I0J-147500D01*
G01*
X291440000Y-63047500D01*
G75*
G02*
X291292500Y-63195000I-147500J0D01*
G01*
G37*
G36*
G01*
X291292500Y-64165000D02*
X290947500Y-64165000D01*
G75*
G02*
X290800000Y-64017500I0J147500D01*
G01*
X290800000Y-63722500D01*
G75*
G02*
X290947500Y-63575000I147500J0D01*
G01*
X291292500Y-63575000D01*
G75*
G02*
X291440000Y-63722500I0J-147500D01*
G01*
X291440000Y-64017500D01*
G75*
G02*
X291292500Y-64165000I-147500J0D01*
G01*
G37*
G36*
G01*
X290102500Y-47335000D02*
X289757500Y-47335000D01*
G75*
G02*
X289610000Y-47187500I0J147500D01*
G01*
X289610000Y-46892500D01*
G75*
G02*
X289757500Y-46745000I147500J0D01*
G01*
X290102500Y-46745000D01*
G75*
G02*
X290250000Y-46892500I0J-147500D01*
G01*
X290250000Y-47187500D01*
G75*
G02*
X290102500Y-47335000I-147500J0D01*
G01*
G37*
G36*
G01*
X290102500Y-48305000D02*
X289757500Y-48305000D01*
G75*
G02*
X289610000Y-48157500I0J147500D01*
G01*
X289610000Y-47862500D01*
G75*
G02*
X289757500Y-47715000I147500J0D01*
G01*
X290102500Y-47715000D01*
G75*
G02*
X290250000Y-47862500I0J-147500D01*
G01*
X290250000Y-48157500D01*
G75*
G02*
X290102500Y-48305000I-147500J0D01*
G01*
G37*
G36*
G01*
X290044500Y-51341000D02*
X289699500Y-51341000D01*
G75*
G02*
X289552000Y-51193500I0J147500D01*
G01*
X289552000Y-50898500D01*
G75*
G02*
X289699500Y-50751000I147500J0D01*
G01*
X290044500Y-50751000D01*
G75*
G02*
X290192000Y-50898500I0J-147500D01*
G01*
X290192000Y-51193500D01*
G75*
G02*
X290044500Y-51341000I-147500J0D01*
G01*
G37*
G36*
G01*
X290044500Y-52311000D02*
X289699500Y-52311000D01*
G75*
G02*
X289552000Y-52163500I0J147500D01*
G01*
X289552000Y-51868500D01*
G75*
G02*
X289699500Y-51721000I147500J0D01*
G01*
X290044500Y-51721000D01*
G75*
G02*
X290192000Y-51868500I0J-147500D01*
G01*
X290192000Y-52163500D01*
G75*
G02*
X290044500Y-52311000I-147500J0D01*
G01*
G37*
G36*
G01*
X290172500Y-55120000D02*
X289827500Y-55120000D01*
G75*
G02*
X289680000Y-54972500I0J147500D01*
G01*
X289680000Y-54677500D01*
G75*
G02*
X289827500Y-54530000I147500J0D01*
G01*
X290172500Y-54530000D01*
G75*
G02*
X290320000Y-54677500I0J-147500D01*
G01*
X290320000Y-54972500D01*
G75*
G02*
X290172500Y-55120000I-147500J0D01*
G01*
G37*
G36*
G01*
X290172500Y-56090000D02*
X289827500Y-56090000D01*
G75*
G02*
X289680000Y-55942500I0J147500D01*
G01*
X289680000Y-55647500D01*
G75*
G02*
X289827500Y-55500000I147500J0D01*
G01*
X290172500Y-55500000D01*
G75*
G02*
X290320000Y-55647500I0J-147500D01*
G01*
X290320000Y-55942500D01*
G75*
G02*
X290172500Y-56090000I-147500J0D01*
G01*
G37*
G36*
G01*
X290282500Y-59260000D02*
X289937500Y-59260000D01*
G75*
G02*
X289790000Y-59112500I0J147500D01*
G01*
X289790000Y-58817500D01*
G75*
G02*
X289937500Y-58670000I147500J0D01*
G01*
X290282500Y-58670000D01*
G75*
G02*
X290430000Y-58817500I0J-147500D01*
G01*
X290430000Y-59112500D01*
G75*
G02*
X290282500Y-59260000I-147500J0D01*
G01*
G37*
G36*
G01*
X290282500Y-60230000D02*
X289937500Y-60230000D01*
G75*
G02*
X289790000Y-60082500I0J147500D01*
G01*
X289790000Y-59787500D01*
G75*
G02*
X289937500Y-59640000I147500J0D01*
G01*
X290282500Y-59640000D01*
G75*
G02*
X290430000Y-59787500I0J-147500D01*
G01*
X290430000Y-60082500D01*
G75*
G02*
X290282500Y-60230000I-147500J0D01*
G01*
G37*
G36*
G01*
X290262500Y-63195000D02*
X289917500Y-63195000D01*
G75*
G02*
X289770000Y-63047500I0J147500D01*
G01*
X289770000Y-62752500D01*
G75*
G02*
X289917500Y-62605000I147500J0D01*
G01*
X290262500Y-62605000D01*
G75*
G02*
X290410000Y-62752500I0J-147500D01*
G01*
X290410000Y-63047500D01*
G75*
G02*
X290262500Y-63195000I-147500J0D01*
G01*
G37*
G36*
G01*
X290262500Y-64165000D02*
X289917500Y-64165000D01*
G75*
G02*
X289770000Y-64017500I0J147500D01*
G01*
X289770000Y-63722500D01*
G75*
G02*
X289917500Y-63575000I147500J0D01*
G01*
X290262500Y-63575000D01*
G75*
G02*
X290410000Y-63722500I0J-147500D01*
G01*
X290410000Y-64017500D01*
G75*
G02*
X290262500Y-64165000I-147500J0D01*
G01*
G37*
G36*
G01*
X277486000Y-47339000D02*
X277831000Y-47339000D01*
G75*
G02*
X277978500Y-47486500I0J-147500D01*
G01*
X277978500Y-47781500D01*
G75*
G02*
X277831000Y-47929000I-147500J0D01*
G01*
X277486000Y-47929000D01*
G75*
G02*
X277338500Y-47781500I0J147500D01*
G01*
X277338500Y-47486500D01*
G75*
G02*
X277486000Y-47339000I147500J0D01*
G01*
G37*
G36*
G01*
X277486000Y-46369000D02*
X277831000Y-46369000D01*
G75*
G02*
X277978500Y-46516500I0J-147500D01*
G01*
X277978500Y-46811500D01*
G75*
G02*
X277831000Y-46959000I-147500J0D01*
G01*
X277486000Y-46959000D01*
G75*
G02*
X277338500Y-46811500I0J147500D01*
G01*
X277338500Y-46516500D01*
G75*
G02*
X277486000Y-46369000I147500J0D01*
G01*
G37*
G36*
G01*
X277821000Y-44949000D02*
X277476000Y-44949000D01*
G75*
G02*
X277328500Y-44801500I0J147500D01*
G01*
X277328500Y-44506500D01*
G75*
G02*
X277476000Y-44359000I147500J0D01*
G01*
X277821000Y-44359000D01*
G75*
G02*
X277968500Y-44506500I0J-147500D01*
G01*
X277968500Y-44801500D01*
G75*
G02*
X277821000Y-44949000I-147500J0D01*
G01*
G37*
G36*
G01*
X277821000Y-45919000D02*
X277476000Y-45919000D01*
G75*
G02*
X277328500Y-45771500I0J147500D01*
G01*
X277328500Y-45476500D01*
G75*
G02*
X277476000Y-45329000I147500J0D01*
G01*
X277821000Y-45329000D01*
G75*
G02*
X277968500Y-45476500I0J-147500D01*
G01*
X277968500Y-45771500D01*
G75*
G02*
X277821000Y-45919000I-147500J0D01*
G01*
G37*
G36*
G01*
X283333750Y-50237500D02*
X283846250Y-50237500D01*
G75*
G02*
X284065000Y-50456250I0J-218750D01*
G01*
X284065000Y-50893750D01*
G75*
G02*
X283846250Y-51112500I-218750J0D01*
G01*
X283333750Y-51112500D01*
G75*
G02*
X283115000Y-50893750I0J218750D01*
G01*
X283115000Y-50456250D01*
G75*
G02*
X283333750Y-50237500I218750J0D01*
G01*
G37*
G36*
G01*
X283333750Y-48662500D02*
X283846250Y-48662500D01*
G75*
G02*
X284065000Y-48881250I0J-218750D01*
G01*
X284065000Y-49318750D01*
G75*
G02*
X283846250Y-49537500I-218750J0D01*
G01*
X283333750Y-49537500D01*
G75*
G02*
X283115000Y-49318750I0J218750D01*
G01*
X283115000Y-48881250D01*
G75*
G02*
X283333750Y-48662500I218750J0D01*
G01*
G37*
G36*
G01*
X267631000Y-76240500D02*
X267631000Y-75895500D01*
G75*
G02*
X267778500Y-75748000I147500J0D01*
G01*
X268073500Y-75748000D01*
G75*
G02*
X268221000Y-75895500I0J-147500D01*
G01*
X268221000Y-76240500D01*
G75*
G02*
X268073500Y-76388000I-147500J0D01*
G01*
X267778500Y-76388000D01*
G75*
G02*
X267631000Y-76240500I0J147500D01*
G01*
G37*
G36*
G01*
X266661000Y-76240500D02*
X266661000Y-75895500D01*
G75*
G02*
X266808500Y-75748000I147500J0D01*
G01*
X267103500Y-75748000D01*
G75*
G02*
X267251000Y-75895500I0J-147500D01*
G01*
X267251000Y-76240500D01*
G75*
G02*
X267103500Y-76388000I-147500J0D01*
G01*
X266808500Y-76388000D01*
G75*
G02*
X266661000Y-76240500I0J147500D01*
G01*
G37*
G36*
G01*
X278775000Y-65462500D02*
X278775000Y-65117500D01*
G75*
G02*
X278922500Y-64970000I147500J0D01*
G01*
X279217500Y-64970000D01*
G75*
G02*
X279365000Y-65117500I0J-147500D01*
G01*
X279365000Y-65462500D01*
G75*
G02*
X279217500Y-65610000I-147500J0D01*
G01*
X278922500Y-65610000D01*
G75*
G02*
X278775000Y-65462500I0J147500D01*
G01*
G37*
G36*
G01*
X277805000Y-65462500D02*
X277805000Y-65117500D01*
G75*
G02*
X277952500Y-64970000I147500J0D01*
G01*
X278247500Y-64970000D01*
G75*
G02*
X278395000Y-65117500I0J-147500D01*
G01*
X278395000Y-65462500D01*
G75*
G02*
X278247500Y-65610000I-147500J0D01*
G01*
X277952500Y-65610000D01*
G75*
G02*
X277805000Y-65462500I0J147500D01*
G01*
G37*
G36*
G01*
X279458500Y-61327500D02*
X279458500Y-61672500D01*
G75*
G02*
X279311000Y-61820000I-147500J0D01*
G01*
X279016000Y-61820000D01*
G75*
G02*
X278868500Y-61672500I0J147500D01*
G01*
X278868500Y-61327500D01*
G75*
G02*
X279016000Y-61180000I147500J0D01*
G01*
X279311000Y-61180000D01*
G75*
G02*
X279458500Y-61327500I0J-147500D01*
G01*
G37*
G36*
G01*
X278488500Y-61327500D02*
X278488500Y-61672500D01*
G75*
G02*
X278341000Y-61820000I-147500J0D01*
G01*
X278046000Y-61820000D01*
G75*
G02*
X277898500Y-61672500I0J147500D01*
G01*
X277898500Y-61327500D01*
G75*
G02*
X278046000Y-61180000I147500J0D01*
G01*
X278341000Y-61180000D01*
G75*
G02*
X278488500Y-61327500I0J-147500D01*
G01*
G37*
G36*
G01*
X278488500Y-62337500D02*
X278488500Y-62682500D01*
G75*
G02*
X278341000Y-62830000I-147500J0D01*
G01*
X278046000Y-62830000D01*
G75*
G02*
X277898500Y-62682500I0J147500D01*
G01*
X277898500Y-62337500D01*
G75*
G02*
X278046000Y-62190000I147500J0D01*
G01*
X278341000Y-62190000D01*
G75*
G02*
X278488500Y-62337500I0J-147500D01*
G01*
G37*
G36*
G01*
X279458500Y-62337500D02*
X279458500Y-62682500D01*
G75*
G02*
X279311000Y-62830000I-147500J0D01*
G01*
X279016000Y-62830000D01*
G75*
G02*
X278868500Y-62682500I0J147500D01*
G01*
X278868500Y-62337500D01*
G75*
G02*
X279016000Y-62190000I147500J0D01*
G01*
X279311000Y-62190000D01*
G75*
G02*
X279458500Y-62337500I0J-147500D01*
G01*
G37*
G36*
G01*
X277780000Y-76270000D02*
X277780000Y-75930000D01*
G75*
G02*
X277920000Y-75790000I140000J0D01*
G01*
X278200000Y-75790000D01*
G75*
G02*
X278340000Y-75930000I0J-140000D01*
G01*
X278340000Y-76270000D01*
G75*
G02*
X278200000Y-76410000I-140000J0D01*
G01*
X277920000Y-76410000D01*
G75*
G02*
X277780000Y-76270000I0J140000D01*
G01*
G37*
G36*
G01*
X278740000Y-76270000D02*
X278740000Y-75930000D01*
G75*
G02*
X278880000Y-75790000I140000J0D01*
G01*
X279160000Y-75790000D01*
G75*
G02*
X279300000Y-75930000I0J-140000D01*
G01*
X279300000Y-76270000D01*
G75*
G02*
X279160000Y-76410000I-140000J0D01*
G01*
X278880000Y-76410000D01*
G75*
G02*
X278740000Y-76270000I0J140000D01*
G01*
G37*
D29*
X263806726Y-29773274D03*
X262640000Y-29290000D03*
X261473274Y-29773274D03*
X260990000Y-30940000D03*
X261473274Y-32106726D03*
X262640000Y-32590000D03*
X263806726Y-32106726D03*
X264290000Y-30940000D03*
D30*
X262640000Y-30940000D03*
X273990000Y-72400000D03*
D29*
X275640000Y-72400000D03*
X275156726Y-73566726D03*
X273990000Y-74050000D03*
X272823274Y-73566726D03*
X272340000Y-72400000D03*
X272823274Y-71233274D03*
X273990000Y-70750000D03*
X275156726Y-71233274D03*
D30*
X285460000Y-30900000D03*
D29*
X287110000Y-30900000D03*
X286626726Y-32066726D03*
X285460000Y-32550000D03*
X284293274Y-32066726D03*
X283810000Y-30900000D03*
X284293274Y-29733274D03*
X285460000Y-29250000D03*
X286626726Y-29733274D03*
D31*
X281589000Y-62020000D03*
X280289000Y-62020000D03*
X280939000Y-64020000D03*
D32*
X275240000Y-52010000D03*
X275240000Y-53310000D03*
X277140000Y-52660000D03*
X275240000Y-52660000D03*
X277140000Y-53310000D03*
X277140000Y-52010000D03*
G36*
G01*
X278955000Y-53300000D02*
X278585000Y-53300000D01*
G75*
G02*
X278450000Y-53165000I0J135000D01*
G01*
X278450000Y-52895000D01*
G75*
G02*
X278585000Y-52760000I135000J0D01*
G01*
X278955000Y-52760000D01*
G75*
G02*
X279090000Y-52895000I0J-135000D01*
G01*
X279090000Y-53165000D01*
G75*
G02*
X278955000Y-53300000I-135000J0D01*
G01*
G37*
G36*
G01*
X278955000Y-52280000D02*
X278585000Y-52280000D01*
G75*
G02*
X278450000Y-52145000I0J135000D01*
G01*
X278450000Y-51875000D01*
G75*
G02*
X278585000Y-51740000I135000J0D01*
G01*
X278955000Y-51740000D01*
G75*
G02*
X279090000Y-51875000I0J-135000D01*
G01*
X279090000Y-52145000D01*
G75*
G02*
X278955000Y-52280000I-135000J0D01*
G01*
G37*
G36*
G01*
X278550000Y-60295000D02*
X278550000Y-60665000D01*
G75*
G02*
X278415000Y-60800000I-135000J0D01*
G01*
X278145000Y-60800000D01*
G75*
G02*
X278010000Y-60665000I0J135000D01*
G01*
X278010000Y-60295000D01*
G75*
G02*
X278145000Y-60160000I135000J0D01*
G01*
X278415000Y-60160000D01*
G75*
G02*
X278550000Y-60295000I0J-135000D01*
G01*
G37*
G36*
G01*
X279570000Y-60295000D02*
X279570000Y-60665000D01*
G75*
G02*
X279435000Y-60800000I-135000J0D01*
G01*
X279165000Y-60800000D01*
G75*
G02*
X279030000Y-60665000I0J135000D01*
G01*
X279030000Y-60295000D01*
G75*
G02*
X279165000Y-60160000I135000J0D01*
G01*
X279435000Y-60160000D01*
G75*
G02*
X279570000Y-60295000I0J-135000D01*
G01*
G37*
G36*
G01*
X281040000Y-60665000D02*
X281040000Y-60295000D01*
G75*
G02*
X281175000Y-60160000I135000J0D01*
G01*
X281445000Y-60160000D01*
G75*
G02*
X281580000Y-60295000I0J-135000D01*
G01*
X281580000Y-60665000D01*
G75*
G02*
X281445000Y-60800000I-135000J0D01*
G01*
X281175000Y-60800000D01*
G75*
G02*
X281040000Y-60665000I0J135000D01*
G01*
G37*
G36*
G01*
X280020000Y-60665000D02*
X280020000Y-60295000D01*
G75*
G02*
X280155000Y-60160000I135000J0D01*
G01*
X280425000Y-60160000D01*
G75*
G02*
X280560000Y-60295000I0J-135000D01*
G01*
X280560000Y-60665000D01*
G75*
G02*
X280425000Y-60800000I-135000J0D01*
G01*
X280155000Y-60800000D01*
G75*
G02*
X280020000Y-60665000I0J135000D01*
G01*
G37*
G36*
G01*
X279950000Y-65485000D02*
X279950000Y-65115000D01*
G75*
G02*
X280085000Y-64980000I135000J0D01*
G01*
X280355000Y-64980000D01*
G75*
G02*
X280490000Y-65115000I0J-135000D01*
G01*
X280490000Y-65485000D01*
G75*
G02*
X280355000Y-65620000I-135000J0D01*
G01*
X280085000Y-65620000D01*
G75*
G02*
X279950000Y-65485000I0J135000D01*
G01*
G37*
G36*
G01*
X280970000Y-65485000D02*
X280970000Y-65115000D01*
G75*
G02*
X281105000Y-64980000I135000J0D01*
G01*
X281375000Y-64980000D01*
G75*
G02*
X281510000Y-65115000I0J-135000D01*
G01*
X281510000Y-65485000D01*
G75*
G02*
X281375000Y-65620000I-135000J0D01*
G01*
X281105000Y-65620000D01*
G75*
G02*
X280970000Y-65485000I0J135000D01*
G01*
G37*
G36*
G01*
X261620000Y-57165000D02*
X261620000Y-56795000D01*
G75*
G02*
X261755000Y-56660000I135000J0D01*
G01*
X262025000Y-56660000D01*
G75*
G02*
X262160000Y-56795000I0J-135000D01*
G01*
X262160000Y-57165000D01*
G75*
G02*
X262025000Y-57300000I-135000J0D01*
G01*
X261755000Y-57300000D01*
G75*
G02*
X261620000Y-57165000I0J135000D01*
G01*
G37*
G36*
G01*
X260600000Y-57165000D02*
X260600000Y-56795000D01*
G75*
G02*
X260735000Y-56660000I135000J0D01*
G01*
X261005000Y-56660000D01*
G75*
G02*
X261140000Y-56795000I0J-135000D01*
G01*
X261140000Y-57165000D01*
G75*
G02*
X261005000Y-57300000I-135000J0D01*
G01*
X260735000Y-57300000D01*
G75*
G02*
X260600000Y-57165000I0J135000D01*
G01*
G37*
G36*
G01*
X262550000Y-57165000D02*
X262550000Y-56795000D01*
G75*
G02*
X262685000Y-56660000I135000J0D01*
G01*
X262955000Y-56660000D01*
G75*
G02*
X263090000Y-56795000I0J-135000D01*
G01*
X263090000Y-57165000D01*
G75*
G02*
X262955000Y-57300000I-135000J0D01*
G01*
X262685000Y-57300000D01*
G75*
G02*
X262550000Y-57165000I0J135000D01*
G01*
G37*
G36*
G01*
X263570000Y-57165000D02*
X263570000Y-56795000D01*
G75*
G02*
X263705000Y-56660000I135000J0D01*
G01*
X263975000Y-56660000D01*
G75*
G02*
X264110000Y-56795000I0J-135000D01*
G01*
X264110000Y-57165000D01*
G75*
G02*
X263975000Y-57300000I-135000J0D01*
G01*
X263705000Y-57300000D01*
G75*
G02*
X263570000Y-57165000I0J135000D01*
G01*
G37*
G36*
G01*
X270445000Y-67320000D02*
X270075000Y-67320000D01*
G75*
G02*
X269940000Y-67185000I0J135000D01*
G01*
X269940000Y-66915000D01*
G75*
G02*
X270075000Y-66780000I135000J0D01*
G01*
X270445000Y-66780000D01*
G75*
G02*
X270580000Y-66915000I0J-135000D01*
G01*
X270580000Y-67185000D01*
G75*
G02*
X270445000Y-67320000I-135000J0D01*
G01*
G37*
G36*
G01*
X270445000Y-68340000D02*
X270075000Y-68340000D01*
G75*
G02*
X269940000Y-68205000I0J135000D01*
G01*
X269940000Y-67935000D01*
G75*
G02*
X270075000Y-67800000I135000J0D01*
G01*
X270445000Y-67800000D01*
G75*
G02*
X270580000Y-67935000I0J-135000D01*
G01*
X270580000Y-68205000D01*
G75*
G02*
X270445000Y-68340000I-135000J0D01*
G01*
G37*
G36*
G01*
X271455000Y-68340000D02*
X271085000Y-68340000D01*
G75*
G02*
X270950000Y-68205000I0J135000D01*
G01*
X270950000Y-67935000D01*
G75*
G02*
X271085000Y-67800000I135000J0D01*
G01*
X271455000Y-67800000D01*
G75*
G02*
X271590000Y-67935000I0J-135000D01*
G01*
X271590000Y-68205000D01*
G75*
G02*
X271455000Y-68340000I-135000J0D01*
G01*
G37*
G36*
G01*
X271455000Y-67320000D02*
X271085000Y-67320000D01*
G75*
G02*
X270950000Y-67185000I0J135000D01*
G01*
X270950000Y-66915000D01*
G75*
G02*
X271085000Y-66780000I135000J0D01*
G01*
X271455000Y-66780000D01*
G75*
G02*
X271590000Y-66915000I0J-135000D01*
G01*
X271590000Y-67185000D01*
G75*
G02*
X271455000Y-67320000I-135000J0D01*
G01*
G37*
G36*
G01*
X266060000Y-56795000D02*
X266060000Y-57165000D01*
G75*
G02*
X265925000Y-57300000I-135000J0D01*
G01*
X265655000Y-57300000D01*
G75*
G02*
X265520000Y-57165000I0J135000D01*
G01*
X265520000Y-56795000D01*
G75*
G02*
X265655000Y-56660000I135000J0D01*
G01*
X265925000Y-56660000D01*
G75*
G02*
X266060000Y-56795000I0J-135000D01*
G01*
G37*
G36*
G01*
X265040000Y-56795000D02*
X265040000Y-57165000D01*
G75*
G02*
X264905000Y-57300000I-135000J0D01*
G01*
X264635000Y-57300000D01*
G75*
G02*
X264500000Y-57165000I0J135000D01*
G01*
X264500000Y-56795000D01*
G75*
G02*
X264635000Y-56660000I135000J0D01*
G01*
X264905000Y-56660000D01*
G75*
G02*
X265040000Y-56795000I0J-135000D01*
G01*
G37*
G36*
G01*
X281280000Y-75915000D02*
X281280000Y-76285000D01*
G75*
G02*
X281145000Y-76420000I-135000J0D01*
G01*
X280875000Y-76420000D01*
G75*
G02*
X280740000Y-76285000I0J135000D01*
G01*
X280740000Y-75915000D01*
G75*
G02*
X280875000Y-75780000I135000J0D01*
G01*
X281145000Y-75780000D01*
G75*
G02*
X281280000Y-75915000I0J-135000D01*
G01*
G37*
G36*
G01*
X280260000Y-75915000D02*
X280260000Y-76285000D01*
G75*
G02*
X280125000Y-76420000I-135000J0D01*
G01*
X279855000Y-76420000D01*
G75*
G02*
X279720000Y-76285000I0J135000D01*
G01*
X279720000Y-75915000D01*
G75*
G02*
X279855000Y-75780000I135000J0D01*
G01*
X280125000Y-75780000D01*
G75*
G02*
X280260000Y-75915000I0J-135000D01*
G01*
G37*
G36*
G01*
X272604500Y-80693000D02*
X272604500Y-80343000D01*
G75*
G02*
X272779500Y-80168000I175000J0D01*
G01*
X273529500Y-80168000D01*
G75*
G02*
X273704500Y-80343000I0J-175000D01*
G01*
X273704500Y-80693000D01*
G75*
G02*
X273529500Y-80868000I-175000J0D01*
G01*
X272779500Y-80868000D01*
G75*
G02*
X272604500Y-80693000I0J175000D01*
G01*
G37*
G36*
G01*
X268204500Y-80693000D02*
X268204500Y-80343000D01*
G75*
G02*
X268379500Y-80168000I175000J0D01*
G01*
X269129500Y-80168000D01*
G75*
G02*
X269304500Y-80343000I0J-175000D01*
G01*
X269304500Y-80693000D01*
G75*
G02*
X269129500Y-80868000I-175000J0D01*
G01*
X268379500Y-80868000D01*
G75*
G02*
X268204500Y-80693000I0J175000D01*
G01*
G37*
G36*
G01*
X270304500Y-78368000D02*
X270304500Y-77768000D01*
G75*
G02*
X270604500Y-77468000I300000J0D01*
G01*
X271304500Y-77468000D01*
G75*
G02*
X271604500Y-77768000I0J-300000D01*
G01*
X271604500Y-78368000D01*
G75*
G02*
X271304500Y-78668000I-300000J0D01*
G01*
X270604500Y-78668000D01*
G75*
G02*
X270304500Y-78368000I0J300000D01*
G01*
G37*
G36*
G01*
X272304500Y-78693000D02*
X272304500Y-77843000D01*
G75*
G02*
X272479500Y-77668000I175000J0D01*
G01*
X272829500Y-77668000D01*
G75*
G02*
X273004500Y-77843000I0J-175000D01*
G01*
X273004500Y-78693000D01*
G75*
G02*
X272829500Y-78868000I-175000J0D01*
G01*
X272479500Y-78868000D01*
G75*
G02*
X272304500Y-78693000I0J175000D01*
G01*
G37*
G36*
G01*
X268904500Y-78693000D02*
X268904500Y-77843000D01*
G75*
G02*
X269079500Y-77668000I175000J0D01*
G01*
X269429500Y-77668000D01*
G75*
G02*
X269604500Y-77843000I0J-175000D01*
G01*
X269604500Y-78693000D01*
G75*
G02*
X269429500Y-78868000I-175000J0D01*
G01*
X269079500Y-78868000D01*
G75*
G02*
X268904500Y-78693000I0J175000D01*
G01*
G37*
D33*
X273079500Y-79568000D03*
X268829500Y-79568000D03*
D34*
X279740000Y-66800000D03*
X279740000Y-67300000D03*
X279240000Y-66800000D03*
X279240000Y-67300000D03*
X278740000Y-66800000D03*
X278740000Y-67300000D03*
X278240000Y-66800000D03*
X278240000Y-67300000D03*
G36*
G01*
X278635000Y-80695000D02*
X278635000Y-80345000D01*
G75*
G02*
X278810000Y-80170000I175000J0D01*
G01*
X279560000Y-80170000D01*
G75*
G02*
X279735000Y-80345000I0J-175000D01*
G01*
X279735000Y-80695000D01*
G75*
G02*
X279560000Y-80870000I-175000J0D01*
G01*
X278810000Y-80870000D01*
G75*
G02*
X278635000Y-80695000I0J175000D01*
G01*
G37*
G36*
G01*
X274235000Y-80695000D02*
X274235000Y-80345000D01*
G75*
G02*
X274410000Y-80170000I175000J0D01*
G01*
X275160000Y-80170000D01*
G75*
G02*
X275335000Y-80345000I0J-175000D01*
G01*
X275335000Y-80695000D01*
G75*
G02*
X275160000Y-80870000I-175000J0D01*
G01*
X274410000Y-80870000D01*
G75*
G02*
X274235000Y-80695000I0J175000D01*
G01*
G37*
G36*
G01*
X276335000Y-78370000D02*
X276335000Y-77770000D01*
G75*
G02*
X276635000Y-77470000I300000J0D01*
G01*
X277335000Y-77470000D01*
G75*
G02*
X277635000Y-77770000I0J-300000D01*
G01*
X277635000Y-78370000D01*
G75*
G02*
X277335000Y-78670000I-300000J0D01*
G01*
X276635000Y-78670000D01*
G75*
G02*
X276335000Y-78370000I0J300000D01*
G01*
G37*
G36*
G01*
X278335000Y-78695000D02*
X278335000Y-77845000D01*
G75*
G02*
X278510000Y-77670000I175000J0D01*
G01*
X278860000Y-77670000D01*
G75*
G02*
X279035000Y-77845000I0J-175000D01*
G01*
X279035000Y-78695000D01*
G75*
G02*
X278860000Y-78870000I-175000J0D01*
G01*
X278510000Y-78870000D01*
G75*
G02*
X278335000Y-78695000I0J175000D01*
G01*
G37*
G36*
G01*
X274935000Y-78695000D02*
X274935000Y-77845000D01*
G75*
G02*
X275110000Y-77670000I175000J0D01*
G01*
X275460000Y-77670000D01*
G75*
G02*
X275635000Y-77845000I0J-175000D01*
G01*
X275635000Y-78695000D01*
G75*
G02*
X275460000Y-78870000I-175000J0D01*
G01*
X275110000Y-78870000D01*
G75*
G02*
X274935000Y-78695000I0J175000D01*
G01*
G37*
D33*
X279110000Y-79570000D03*
X274860000Y-79570000D03*
M02*
