G04 #@! TF.GenerationSoftware,KiCad,Pcbnew,(5.1.10)-1*
G04 #@! TF.CreationDate,2021-09-23T13:54:31+08:00*
G04 #@! TF.ProjectId,BeagleConnect Freedom,42656167-6c65-4436-9f6e-6e6563742046,B*
G04 #@! TF.SameCoordinates,Original*
G04 #@! TF.FileFunction,Paste,Bot*
G04 #@! TF.FilePolarity,Positive*
%FSLAX46Y46*%
G04 Gerber Fmt 4.6, Leading zero omitted, Abs format (unit mm)*
G04 Created by KiCad (PCBNEW (5.1.10)-1) date 2021-09-23 13:54:31*
%MOMM*%
%LPD*%
G01*
G04 APERTURE LIST*
G04 #@! TA.AperFunction,Profile*
%ADD10C,0.050000*%
G04 #@! TD*
%ADD11C,0.152400*%
%ADD12R,0.600000X0.700000*%
%ADD13R,2.250000X1.700000*%
%ADD14R,1.900000X1.000000*%
%ADD15R,1.000000X1.900000*%
%ADD16R,2.200000X1.050000*%
%ADD17R,1.050000X1.000000*%
%ADD18R,1.600000X0.350000*%
%ADD19R,0.650000X0.350000*%
%ADD20R,0.900000X0.800000*%
%ADD21R,0.250000X0.300000*%
%ADD22C,0.100000*%
%ADD23R,0.800000X0.900000*%
%ADD24R,0.900000X1.200000*%
%ADD25R,0.203200X0.558800*%
%ADD26R,1.244600X0.762000*%
%ADD27R,0.500000X5.000000*%
%ADD28R,0.500000X8.000000*%
%ADD29R,8.000000X0.500000*%
G04 APERTURE END LIST*
D10*
X289279000Y-51088000D02*
G75*
G03*
X289279000Y-51088000I-550000J0D01*
G01*
X262609000Y-36441000D02*
G75*
G03*
X262609000Y-36441000I-550000J0D01*
G01*
X291863382Y-48158779D02*
X291863382Y-46158779D01*
X291863382Y-48158779D02*
G75*
G02*
X291363382Y-48658779I-500000J0D01*
G01*
X289863382Y-48658779D02*
X291363382Y-48658779D01*
X289363382Y-49158779D02*
G75*
G02*
X289863382Y-48658779I500000J0D01*
G01*
X289363382Y-49658779D02*
X289363382Y-49158779D01*
X289863382Y-50158779D02*
G75*
G02*
X289363382Y-49658779I0J500000D01*
G01*
X291363382Y-50158779D02*
X289863382Y-50158779D01*
X291363382Y-50158779D02*
G75*
G02*
X291863382Y-50658779I0J-500000D01*
G01*
X291863382Y-52158779D02*
X291863382Y-50658779D01*
X291863382Y-52158779D02*
G75*
G02*
X291363382Y-52658779I-500000J0D01*
G01*
X289863382Y-52658779D02*
X291363382Y-52658779D01*
X289363382Y-53158779D02*
G75*
G02*
X289863382Y-52658779I500000J0D01*
G01*
X289363382Y-53658779D02*
X289363382Y-53158779D01*
X289863382Y-54158779D02*
G75*
G02*
X289363382Y-53658779I0J500000D01*
G01*
X291363382Y-54158779D02*
X289863382Y-54158779D01*
X291363382Y-54158779D02*
G75*
G02*
X291863382Y-54658779I0J-500000D01*
G01*
X291863382Y-56158779D02*
X291863382Y-54658779D01*
X291863382Y-56158779D02*
G75*
G02*
X291363382Y-56658779I-500000J0D01*
G01*
X289863382Y-56658779D02*
X291363382Y-56658779D01*
X289363382Y-57158779D02*
G75*
G02*
X289863382Y-56658779I500000J0D01*
G01*
X289363382Y-57658779D02*
X289363382Y-57158779D01*
X289863382Y-58158779D02*
G75*
G02*
X289363382Y-57658779I0J500000D01*
G01*
X291363382Y-58158779D02*
X289863382Y-58158779D01*
X291363382Y-58158779D02*
G75*
G02*
X291863382Y-58658779I0J-500000D01*
G01*
X291863382Y-60158779D02*
X291863382Y-58658779D01*
X291863382Y-60158779D02*
G75*
G02*
X291363382Y-60658779I-500000J0D01*
G01*
X289863382Y-60658779D02*
X291363382Y-60658779D01*
X289363382Y-61158779D02*
G75*
G02*
X289863382Y-60658779I500000J0D01*
G01*
X289363382Y-61658779D02*
X289363382Y-61158779D01*
X289863382Y-62158779D02*
G75*
G02*
X289363382Y-61658779I0J500000D01*
G01*
X291363382Y-62158779D02*
X289863382Y-62158779D01*
X291363382Y-62158779D02*
G75*
G02*
X291863382Y-62658779I0J-500000D01*
G01*
X291863382Y-64158779D02*
X291863382Y-62658779D01*
X291863382Y-64158779D02*
G75*
G02*
X291363382Y-64658779I-500000J0D01*
G01*
X289863382Y-64658779D02*
X291363382Y-64658779D01*
X289363382Y-65158779D02*
G75*
G02*
X289863382Y-64658779I500000J0D01*
G01*
X289363382Y-65658779D02*
X289363382Y-65158779D01*
X289863382Y-66158779D02*
G75*
G02*
X289363382Y-65658779I0J500000D01*
G01*
X290863382Y-66158779D02*
X289863382Y-66158779D01*
X290863382Y-66158779D02*
G75*
G02*
X291363382Y-66658779I0J-500000D01*
G01*
X291363382Y-67708779D02*
X291363382Y-66658779D01*
X291363382Y-67708779D02*
G75*
G02*
X290863382Y-68208779I-500000J0D01*
G01*
X288713382Y-68208779D02*
X290863382Y-68208779D01*
X288463382Y-68458779D02*
G75*
G02*
X288713382Y-68208779I250000J0D01*
G01*
X288463382Y-69008779D02*
X288463382Y-68458779D01*
X288963382Y-69008779D02*
G75*
G02*
X288463382Y-69008779I-250000J0D01*
G01*
X288963382Y-68708779D02*
X288963382Y-69008779D01*
X290863382Y-68708779D02*
X288963382Y-68708779D01*
X290863382Y-68708779D02*
G75*
G02*
X291363382Y-69208779I0J-500000D01*
G01*
X291363382Y-70608779D02*
X291363382Y-69208779D01*
X291363382Y-70608779D02*
G75*
G02*
X290863382Y-71108779I-500000J0D01*
G01*
X288963382Y-71108779D02*
X290863382Y-71108779D01*
X288963382Y-70808779D02*
X288963382Y-71108779D01*
X288463382Y-70808779D02*
G75*
G02*
X288963382Y-70808779I250000J0D01*
G01*
X288463382Y-71358779D02*
X288463382Y-70808779D01*
X288713382Y-71608779D02*
G75*
G02*
X288463382Y-71358779I0J250000D01*
G01*
X290863382Y-71608779D02*
X288713382Y-71608779D01*
X290863382Y-71608779D02*
G75*
G02*
X291363382Y-72108779I0J-500000D01*
G01*
X291363382Y-73408779D02*
X291363382Y-72108779D01*
X291530049Y-73781457D02*
G75*
G02*
X291363382Y-73408779I333333J372678D01*
G01*
X291530049Y-73781457D02*
G75*
G02*
X291863382Y-74526813I-666667J-745356D01*
G01*
X291863382Y-76408779D02*
X291863382Y-74526813D01*
X291863381Y-76408779D02*
G75*
G02*
X286736109Y-82344968I-5999999J0D01*
G01*
X286736109Y-82344968D02*
G75*
G02*
X286163382Y-81850286I-72727J494682D01*
G01*
X286163382Y-81408779D02*
X286163382Y-81850286D01*
X285663382Y-80908779D02*
G75*
G02*
X286163382Y-81408779I0J-500000D01*
G01*
X285063382Y-80908779D02*
X285663382Y-80908779D01*
X284563382Y-81408779D02*
G75*
G02*
X285063382Y-80908779I500000J0D01*
G01*
X284563382Y-81908779D02*
X284563382Y-81408779D01*
X284563382Y-81908779D02*
G75*
G02*
X284063382Y-82408779I-500000J0D01*
G01*
X282371260Y-82408779D02*
X284063382Y-82408779D01*
X282371260Y-82408779D02*
G75*
G02*
X281417321Y-81708779I0J1000000D01*
G01*
X280463382Y-81008779D02*
G75*
G02*
X281417321Y-81708779I0J-1000000D01*
G01*
X267463382Y-81008779D02*
X280463382Y-81008779D01*
X266509443Y-81708779D02*
G75*
G02*
X267463382Y-81008779I953939J-300000D01*
G01*
X266509442Y-81708779D02*
G75*
G02*
X265555503Y-82408779I-953939J300000D01*
G01*
X263863382Y-82408779D02*
X265555503Y-82408779D01*
X263863382Y-82408779D02*
G75*
G02*
X263363382Y-81908779I0J500000D01*
G01*
X263363382Y-81408779D02*
X263363382Y-81908779D01*
X262863382Y-80908779D02*
G75*
G02*
X263363382Y-81408779I0J-500000D01*
G01*
X262263382Y-80908779D02*
X262863382Y-80908779D01*
X261763382Y-81408779D02*
G75*
G02*
X262263382Y-80908779I500000J0D01*
G01*
X261763382Y-81850286D02*
X261763382Y-81408779D01*
X261763382Y-81850287D02*
G75*
G02*
X261190654Y-82344968I-500000J1D01*
G01*
X261190655Y-82344969D02*
G75*
G02*
X256063382Y-76408779I872727J5936190D01*
G01*
X256063382Y-32208779D02*
X256063382Y-76408779D01*
X256063382Y-32208779D02*
G75*
G02*
X256563382Y-31708779I500000J0D01*
G01*
X257563382Y-31708779D02*
X256563382Y-31708779D01*
X258063382Y-31208779D02*
G75*
G02*
X257563382Y-31708779I-500000J0D01*
G01*
X258063382Y-30608779D02*
X258063382Y-31208779D01*
X257563382Y-30108779D02*
G75*
G02*
X258063382Y-30608779I0J-500000D01*
G01*
X256621874Y-30108779D02*
X257563382Y-30108779D01*
X256621874Y-30108778D02*
G75*
G02*
X256127192Y-29536052I0J499999D01*
G01*
X256127192Y-29536052D02*
G75*
G02*
X261190654Y-24472589I5936190J-872727D01*
G01*
X261190655Y-24472590D02*
G75*
G02*
X261763382Y-24967272I72727J-494682D01*
G01*
X261763382Y-25158779D02*
X261763382Y-24967272D01*
X262263382Y-25658779D02*
G75*
G02*
X261763382Y-25158779I0J500000D01*
G01*
X262863382Y-25658779D02*
X262263382Y-25658779D01*
X263363382Y-25158779D02*
G75*
G02*
X262863382Y-25658779I-500000J0D01*
G01*
X263363382Y-24908779D02*
X263363382Y-25158779D01*
X263363382Y-24908779D02*
G75*
G02*
X263863382Y-24408779I500000J0D01*
G01*
X284063382Y-24408779D02*
X263863382Y-24408779D01*
X284063382Y-24408779D02*
G75*
G02*
X284563382Y-24908779I0J-500000D01*
G01*
X284563382Y-25408779D02*
X284563382Y-24908779D01*
X285063382Y-25908779D02*
G75*
G02*
X284563382Y-25408779I0J500000D01*
G01*
X285663382Y-25908779D02*
X285063382Y-25908779D01*
X286163382Y-25408779D02*
G75*
G02*
X285663382Y-25908779I-500000J0D01*
G01*
X286163382Y-24967272D02*
X286163382Y-25408779D01*
X286163382Y-24967272D02*
G75*
G02*
X286736109Y-24472589I500000J0D01*
G01*
X286736109Y-24472589D02*
G75*
G02*
X291863382Y-30408779I-872727J-5936190D01*
G01*
X291863382Y-32290745D02*
X291863382Y-30408779D01*
X291863382Y-32290746D02*
G75*
G02*
X291530048Y-33036101I-1000000J1D01*
G01*
X291363382Y-33408779D02*
G75*
G02*
X291530048Y-33036101I500000J0D01*
G01*
X291363382Y-40158779D02*
X291363382Y-33408779D01*
X291363382Y-40158779D02*
G75*
G02*
X290863382Y-40658779I-500000J0D01*
G01*
X289863382Y-40658779D02*
X290863382Y-40658779D01*
X289363382Y-41158779D02*
G75*
G02*
X289863382Y-40658779I500000J0D01*
G01*
X289363382Y-41658779D02*
X289363382Y-41158779D01*
X289863382Y-42158779D02*
G75*
G02*
X289363382Y-41658779I0J500000D01*
G01*
X291363382Y-42158779D02*
X289863382Y-42158779D01*
X291363382Y-42158779D02*
G75*
G02*
X291863382Y-42658779I0J-500000D01*
G01*
X291863382Y-44658779D02*
X291863382Y-42658779D01*
X289863382Y-44658779D02*
X291863382Y-44658779D01*
X289363382Y-45158779D02*
G75*
G02*
X289863382Y-44658779I500000J0D01*
G01*
X289363382Y-45658779D02*
X289363382Y-45158779D01*
X289863382Y-46158779D02*
G75*
G02*
X289363382Y-45658779I0J500000D01*
G01*
X291863382Y-46158779D02*
X289863382Y-46158779D01*
X289363382Y-57658779D02*
X289363382Y-57158779D01*
X289863382Y-58158779D02*
G75*
G02*
X289363382Y-57658779I0J500000D01*
G01*
X291363382Y-58158779D02*
X289863382Y-58158779D01*
X291363382Y-58158779D02*
G75*
G02*
X291863382Y-58658779I0J-500000D01*
G01*
X291863382Y-60158779D02*
X291863382Y-58658779D01*
X291863382Y-60158779D02*
G75*
G02*
X291363382Y-60658779I-500000J0D01*
G01*
X289863382Y-60658779D02*
X291363382Y-60658779D01*
X289363382Y-61158779D02*
G75*
G02*
X289863382Y-60658779I500000J0D01*
G01*
X289363382Y-61658779D02*
X289363382Y-61158779D01*
X289863382Y-62158779D02*
G75*
G02*
X289363382Y-61658779I0J500000D01*
G01*
X291363382Y-62158779D02*
X289863382Y-62158779D01*
X291363382Y-62158779D02*
G75*
G02*
X291863382Y-62658779I0J-500000D01*
G01*
X291863382Y-64158779D02*
X291863382Y-62658779D01*
X291863382Y-64158779D02*
G75*
G02*
X291363382Y-64658779I-500000J0D01*
G01*
X289863382Y-64658779D02*
X291363382Y-64658779D01*
X289363382Y-65158779D02*
G75*
G02*
X289863382Y-64658779I500000J0D01*
G01*
X289363382Y-65658779D02*
X289363382Y-65158779D01*
X289863382Y-66158779D02*
G75*
G02*
X289363382Y-65658779I0J500000D01*
G01*
X290863382Y-66158779D02*
X289863382Y-66158779D01*
X290863382Y-66158779D02*
G75*
G02*
X291363382Y-66658779I0J-500000D01*
G01*
X291363382Y-67708779D02*
X291363382Y-66658779D01*
X291363382Y-67708779D02*
G75*
G02*
X290863382Y-68208779I-500000J0D01*
G01*
X288713382Y-68208779D02*
X290863382Y-68208779D01*
X288463382Y-68458779D02*
G75*
G02*
X288713382Y-68208779I250000J0D01*
G01*
X288463382Y-69008779D02*
X288463382Y-68458779D01*
X288963382Y-69008779D02*
G75*
G02*
X288463382Y-69008779I-250000J0D01*
G01*
X288963382Y-68708779D02*
X288963382Y-69008779D01*
X290863382Y-68708779D02*
X288963382Y-68708779D01*
X290863382Y-68708779D02*
G75*
G02*
X291363382Y-69208779I0J-500000D01*
G01*
X291363382Y-70608779D02*
X291363382Y-69208779D01*
X291363382Y-70608779D02*
G75*
G02*
X290863382Y-71108779I-500000J0D01*
G01*
X288963382Y-71108779D02*
X290863382Y-71108779D01*
X288963382Y-70808779D02*
X288963382Y-71108779D01*
X288463382Y-70808779D02*
G75*
G02*
X288963382Y-70808779I250000J0D01*
G01*
X288463382Y-71358779D02*
X288463382Y-70808779D01*
X288713382Y-71608779D02*
G75*
G02*
X288463382Y-71358779I0J250000D01*
G01*
X290863382Y-71608779D02*
X288713382Y-71608779D01*
X290863382Y-71608779D02*
G75*
G02*
X291363382Y-72108779I0J-500000D01*
G01*
X291363382Y-73408779D02*
X291363382Y-72108779D01*
X291530049Y-73781457D02*
G75*
G02*
X291363382Y-73408779I333333J372678D01*
G01*
X291530049Y-73781457D02*
G75*
G02*
X291863382Y-74526813I-666667J-745356D01*
G01*
X291863382Y-76408779D02*
X291863382Y-74526813D01*
X291863381Y-76408779D02*
G75*
G02*
X286736109Y-82344968I-5999999J0D01*
G01*
X286736109Y-82344968D02*
G75*
G02*
X286163382Y-81850286I-72727J494682D01*
G01*
X286163382Y-81408779D02*
X286163382Y-81850286D01*
X285663382Y-80908779D02*
G75*
G02*
X286163382Y-81408779I0J-500000D01*
G01*
X285063382Y-80908779D02*
X285663382Y-80908779D01*
X284563382Y-81408779D02*
G75*
G02*
X285063382Y-80908779I500000J0D01*
G01*
X284563382Y-81908779D02*
X284563382Y-81408779D01*
X284563382Y-81908779D02*
G75*
G02*
X284063382Y-82408779I-500000J0D01*
G01*
X282371260Y-82408779D02*
X284063382Y-82408779D01*
X282371260Y-82408779D02*
G75*
G02*
X281417321Y-81708779I0J1000000D01*
G01*
X280463382Y-81008779D02*
G75*
G02*
X281417321Y-81708779I0J-1000000D01*
G01*
X267463382Y-81008779D02*
X280463382Y-81008779D01*
X266509443Y-81708779D02*
G75*
G02*
X267463382Y-81008779I953939J-300000D01*
G01*
X266509442Y-81708779D02*
G75*
G02*
X265555503Y-82408779I-953939J300000D01*
G01*
X263863382Y-82408779D02*
X265555503Y-82408779D01*
X263863382Y-82408779D02*
G75*
G02*
X263363382Y-81908779I0J500000D01*
G01*
X263363382Y-81408779D02*
X263363382Y-81908779D01*
X262863382Y-80908779D02*
G75*
G02*
X263363382Y-81408779I0J-500000D01*
G01*
X262263382Y-80908779D02*
X262863382Y-80908779D01*
X261763382Y-81408779D02*
G75*
G02*
X262263382Y-80908779I500000J0D01*
G01*
X261763382Y-81850286D02*
X261763382Y-81408779D01*
X261763382Y-81850287D02*
G75*
G02*
X261190654Y-82344968I-500000J1D01*
G01*
X261190655Y-82344969D02*
G75*
G02*
X256063382Y-76408779I872727J5936190D01*
G01*
X256063382Y-32208779D02*
X256063382Y-76408779D01*
X256063382Y-32208779D02*
G75*
G02*
X256563382Y-31708779I500000J0D01*
G01*
X257563382Y-31708779D02*
X256563382Y-31708779D01*
X258063382Y-31208779D02*
G75*
G02*
X257563382Y-31708779I-500000J0D01*
G01*
X258063382Y-30608779D02*
X258063382Y-31208779D01*
X257563382Y-30108779D02*
G75*
G02*
X258063382Y-30608779I0J-500000D01*
G01*
X256621874Y-30108779D02*
X257563382Y-30108779D01*
X256621874Y-30108778D02*
G75*
G02*
X256127192Y-29536052I0J499999D01*
G01*
X256127192Y-29536052D02*
G75*
G02*
X261190654Y-24472589I5936190J-872727D01*
G01*
X261190655Y-24472590D02*
G75*
G02*
X261763382Y-24967272I72727J-494682D01*
G01*
X261763382Y-25158779D02*
X261763382Y-24967272D01*
X262263382Y-25658779D02*
G75*
G02*
X261763382Y-25158779I0J500000D01*
G01*
X262863382Y-25658779D02*
X262263382Y-25658779D01*
X263363382Y-25158779D02*
G75*
G02*
X262863382Y-25658779I-500000J0D01*
G01*
X263363382Y-24908779D02*
X263363382Y-25158779D01*
X263363382Y-24908779D02*
G75*
G02*
X263863382Y-24408779I500000J0D01*
G01*
X284063382Y-24408779D02*
X263863382Y-24408779D01*
X284063382Y-24408779D02*
G75*
G02*
X284563382Y-24908779I0J-500000D01*
G01*
X284563382Y-25408779D02*
X284563382Y-24908779D01*
X285063382Y-25908779D02*
G75*
G02*
X284563382Y-25408779I0J500000D01*
G01*
X285663382Y-25908779D02*
X285063382Y-25908779D01*
X286163382Y-25408779D02*
G75*
G02*
X285663382Y-25908779I-500000J0D01*
G01*
X286163382Y-24967272D02*
X286163382Y-25408779D01*
X286163382Y-24967272D02*
G75*
G02*
X286736109Y-24472589I500000J0D01*
G01*
X286736109Y-24472589D02*
G75*
G02*
X291863382Y-30408779I-872727J-5936190D01*
G01*
X291863382Y-32290745D02*
X291863382Y-30408779D01*
X291863382Y-32290746D02*
G75*
G02*
X291530048Y-33036101I-1000000J1D01*
G01*
X291363382Y-33408779D02*
G75*
G02*
X291530048Y-33036101I500000J0D01*
G01*
X291363382Y-40158779D02*
X291363382Y-33408779D01*
X291363382Y-40158779D02*
G75*
G02*
X290863382Y-40658779I-500000J0D01*
G01*
X289863382Y-40658779D02*
X290863382Y-40658779D01*
X289363382Y-41158779D02*
G75*
G02*
X289863382Y-40658779I500000J0D01*
G01*
X289363382Y-41658779D02*
X289363382Y-41158779D01*
X289863382Y-42158779D02*
G75*
G02*
X289363382Y-41658779I0J500000D01*
G01*
X291363382Y-42158779D02*
X289863382Y-42158779D01*
X291363382Y-42158779D02*
G75*
G02*
X291863382Y-42658779I0J-500000D01*
G01*
X291863382Y-44658779D02*
X291863382Y-42658779D01*
X289863382Y-44658779D02*
X291863382Y-44658779D01*
X289363382Y-45158779D02*
G75*
G02*
X289863382Y-44658779I500000J0D01*
G01*
X289363382Y-45658779D02*
X289363382Y-45158779D01*
X289863382Y-46158779D02*
G75*
G02*
X289363382Y-45658779I0J500000D01*
G01*
X291863382Y-46158779D02*
X289863382Y-46158779D01*
X291863382Y-48158779D02*
X291863382Y-46158779D01*
X291863382Y-48158779D02*
G75*
G02*
X291363382Y-48658779I-500000J0D01*
G01*
X289863382Y-48658779D02*
X291363382Y-48658779D01*
X289363382Y-49158779D02*
G75*
G02*
X289863382Y-48658779I500000J0D01*
G01*
X289363382Y-49658779D02*
X289363382Y-49158779D01*
X289863382Y-50158779D02*
G75*
G02*
X289363382Y-49658779I0J500000D01*
G01*
X291363382Y-50158779D02*
X289863382Y-50158779D01*
X291363382Y-50158779D02*
G75*
G02*
X291863382Y-50658779I0J-500000D01*
G01*
X291863382Y-52158779D02*
X291863382Y-50658779D01*
X291863382Y-52158779D02*
G75*
G02*
X291363382Y-52658779I-500000J0D01*
G01*
X289863382Y-52658779D02*
X291363382Y-52658779D01*
X289363382Y-53158779D02*
G75*
G02*
X289863382Y-52658779I500000J0D01*
G01*
X289363382Y-53658779D02*
X289363382Y-53158779D01*
X289863382Y-54158779D02*
G75*
G02*
X289363382Y-53658779I0J500000D01*
G01*
X291363382Y-54158779D02*
X289863382Y-54158779D01*
X291363382Y-54158779D02*
G75*
G02*
X291863382Y-54658779I0J-500000D01*
G01*
X291863382Y-56158779D02*
X291863382Y-54658779D01*
X291863382Y-56158779D02*
G75*
G02*
X291363382Y-56658779I-500000J0D01*
G01*
X289863382Y-56658779D02*
X291363382Y-56658779D01*
X289363382Y-57158779D02*
G75*
G02*
X289863382Y-56658779I500000J0D01*
G01*
X286463382Y-30908779D02*
G75*
G03*
X286463382Y-30908779I-1100000J0D01*
G01*
X263663382Y-30908779D02*
G75*
G03*
X263663382Y-30908779I-1100000J0D01*
G01*
X286463382Y-30908779D02*
G75*
G03*
X286463382Y-30908779I-1100000J0D01*
G01*
X263663382Y-30908779D02*
G75*
G03*
X263663382Y-30908779I-1100000J0D01*
G01*
D11*
X268677700Y-39058400D02*
X268626900Y-39058400D01*
X268626900Y-39058400D02*
X268626900Y-39160000D01*
X268626900Y-39160000D02*
X268677700Y-39160000D01*
X268677700Y-39160000D02*
X268677700Y-39058400D01*
X268677700Y-39261600D02*
X268626900Y-39261600D01*
X268626900Y-39261600D02*
X268626900Y-39160000D01*
X268626900Y-39160000D02*
X268677700Y-39160000D01*
X268677700Y-39160000D02*
X268677700Y-39261600D01*
X269922300Y-39058400D02*
X269973100Y-39058400D01*
X269973100Y-39058400D02*
X269973100Y-39160000D01*
X269973100Y-39160000D02*
X269922300Y-39160000D01*
X269922300Y-39160000D02*
X269922300Y-39058400D01*
X269922300Y-39261600D02*
X269973100Y-39261600D01*
X269973100Y-39261600D02*
X269973100Y-39160000D01*
X269973100Y-39160000D02*
X269922300Y-39160000D01*
X269922300Y-39160000D02*
X269922300Y-39261600D01*
G36*
G01*
X284303500Y-45489000D02*
X284303500Y-44949000D01*
G75*
G02*
X284553500Y-44699000I250000J0D01*
G01*
X285093500Y-44699000D01*
G75*
G02*
X285343500Y-44949000I0J-250000D01*
G01*
X285343500Y-45489000D01*
G75*
G02*
X285093500Y-45739000I-250000J0D01*
G01*
X284553500Y-45739000D01*
G75*
G02*
X284303500Y-45489000I0J250000D01*
G01*
G37*
G36*
G01*
X284303500Y-46779000D02*
X284303500Y-46239000D01*
G75*
G02*
X284553500Y-45989000I250000J0D01*
G01*
X285093500Y-45989000D01*
G75*
G02*
X285343500Y-46239000I0J-250000D01*
G01*
X285343500Y-46779000D01*
G75*
G02*
X285093500Y-47029000I-250000J0D01*
G01*
X284553500Y-47029000D01*
G75*
G02*
X284303500Y-46779000I0J250000D01*
G01*
G37*
G36*
G01*
X284303500Y-48069000D02*
X284303500Y-47529000D01*
G75*
G02*
X284553500Y-47279000I250000J0D01*
G01*
X285093500Y-47279000D01*
G75*
G02*
X285343500Y-47529000I0J-250000D01*
G01*
X285343500Y-48069000D01*
G75*
G02*
X285093500Y-48319000I-250000J0D01*
G01*
X284553500Y-48319000D01*
G75*
G02*
X284303500Y-48069000I0J250000D01*
G01*
G37*
G36*
G01*
X284303500Y-49359000D02*
X284303500Y-48819000D01*
G75*
G02*
X284553500Y-48569000I250000J0D01*
G01*
X285093500Y-48569000D01*
G75*
G02*
X285343500Y-48819000I0J-250000D01*
G01*
X285343500Y-49359000D01*
G75*
G02*
X285093500Y-49609000I-250000J0D01*
G01*
X284553500Y-49609000D01*
G75*
G02*
X284303500Y-49359000I0J250000D01*
G01*
G37*
G36*
G01*
X283013500Y-45489000D02*
X283013500Y-44949000D01*
G75*
G02*
X283263500Y-44699000I250000J0D01*
G01*
X283803500Y-44699000D01*
G75*
G02*
X284053500Y-44949000I0J-250000D01*
G01*
X284053500Y-45489000D01*
G75*
G02*
X283803500Y-45739000I-250000J0D01*
G01*
X283263500Y-45739000D01*
G75*
G02*
X283013500Y-45489000I0J250000D01*
G01*
G37*
G36*
G01*
X283013500Y-46779000D02*
X283013500Y-46239000D01*
G75*
G02*
X283263500Y-45989000I250000J0D01*
G01*
X283803500Y-45989000D01*
G75*
G02*
X284053500Y-46239000I0J-250000D01*
G01*
X284053500Y-46779000D01*
G75*
G02*
X283803500Y-47029000I-250000J0D01*
G01*
X283263500Y-47029000D01*
G75*
G02*
X283013500Y-46779000I0J250000D01*
G01*
G37*
G36*
G01*
X283013500Y-48069000D02*
X283013500Y-47529000D01*
G75*
G02*
X283263500Y-47279000I250000J0D01*
G01*
X283803500Y-47279000D01*
G75*
G02*
X284053500Y-47529000I0J-250000D01*
G01*
X284053500Y-48069000D01*
G75*
G02*
X283803500Y-48319000I-250000J0D01*
G01*
X283263500Y-48319000D01*
G75*
G02*
X283013500Y-48069000I0J250000D01*
G01*
G37*
G36*
G01*
X283013500Y-49359000D02*
X283013500Y-48819000D01*
G75*
G02*
X283263500Y-48569000I250000J0D01*
G01*
X283803500Y-48569000D01*
G75*
G02*
X284053500Y-48819000I0J-250000D01*
G01*
X284053500Y-49359000D01*
G75*
G02*
X283803500Y-49609000I-250000J0D01*
G01*
X283263500Y-49609000D01*
G75*
G02*
X283013500Y-49359000I0J250000D01*
G01*
G37*
G36*
G01*
X281723500Y-45489000D02*
X281723500Y-44949000D01*
G75*
G02*
X281973500Y-44699000I250000J0D01*
G01*
X282513500Y-44699000D01*
G75*
G02*
X282763500Y-44949000I0J-250000D01*
G01*
X282763500Y-45489000D01*
G75*
G02*
X282513500Y-45739000I-250000J0D01*
G01*
X281973500Y-45739000D01*
G75*
G02*
X281723500Y-45489000I0J250000D01*
G01*
G37*
G36*
G01*
X281723500Y-46779000D02*
X281723500Y-46239000D01*
G75*
G02*
X281973500Y-45989000I250000J0D01*
G01*
X282513500Y-45989000D01*
G75*
G02*
X282763500Y-46239000I0J-250000D01*
G01*
X282763500Y-46779000D01*
G75*
G02*
X282513500Y-47029000I-250000J0D01*
G01*
X281973500Y-47029000D01*
G75*
G02*
X281723500Y-46779000I0J250000D01*
G01*
G37*
G36*
G01*
X281723500Y-48069000D02*
X281723500Y-47529000D01*
G75*
G02*
X281973500Y-47279000I250000J0D01*
G01*
X282513500Y-47279000D01*
G75*
G02*
X282763500Y-47529000I0J-250000D01*
G01*
X282763500Y-48069000D01*
G75*
G02*
X282513500Y-48319000I-250000J0D01*
G01*
X281973500Y-48319000D01*
G75*
G02*
X281723500Y-48069000I0J250000D01*
G01*
G37*
G36*
G01*
X281723500Y-49359000D02*
X281723500Y-48819000D01*
G75*
G02*
X281973500Y-48569000I250000J0D01*
G01*
X282513500Y-48569000D01*
G75*
G02*
X282763500Y-48819000I0J-250000D01*
G01*
X282763500Y-49359000D01*
G75*
G02*
X282513500Y-49609000I-250000J0D01*
G01*
X281973500Y-49609000D01*
G75*
G02*
X281723500Y-49359000I0J250000D01*
G01*
G37*
G36*
G01*
X280433500Y-45489000D02*
X280433500Y-44949000D01*
G75*
G02*
X280683500Y-44699000I250000J0D01*
G01*
X281223500Y-44699000D01*
G75*
G02*
X281473500Y-44949000I0J-250000D01*
G01*
X281473500Y-45489000D01*
G75*
G02*
X281223500Y-45739000I-250000J0D01*
G01*
X280683500Y-45739000D01*
G75*
G02*
X280433500Y-45489000I0J250000D01*
G01*
G37*
G36*
G01*
X280433500Y-46779000D02*
X280433500Y-46239000D01*
G75*
G02*
X280683500Y-45989000I250000J0D01*
G01*
X281223500Y-45989000D01*
G75*
G02*
X281473500Y-46239000I0J-250000D01*
G01*
X281473500Y-46779000D01*
G75*
G02*
X281223500Y-47029000I-250000J0D01*
G01*
X280683500Y-47029000D01*
G75*
G02*
X280433500Y-46779000I0J250000D01*
G01*
G37*
G36*
G01*
X280433500Y-48069000D02*
X280433500Y-47529000D01*
G75*
G02*
X280683500Y-47279000I250000J0D01*
G01*
X281223500Y-47279000D01*
G75*
G02*
X281473500Y-47529000I0J-250000D01*
G01*
X281473500Y-48069000D01*
G75*
G02*
X281223500Y-48319000I-250000J0D01*
G01*
X280683500Y-48319000D01*
G75*
G02*
X280433500Y-48069000I0J250000D01*
G01*
G37*
G36*
G01*
X280433500Y-49359000D02*
X280433500Y-48819000D01*
G75*
G02*
X280683500Y-48569000I250000J0D01*
G01*
X281223500Y-48569000D01*
G75*
G02*
X281473500Y-48819000I0J-250000D01*
G01*
X281473500Y-49359000D01*
G75*
G02*
X281223500Y-49609000I-250000J0D01*
G01*
X280683500Y-49609000D01*
G75*
G02*
X280433500Y-49359000I0J250000D01*
G01*
G37*
G36*
G01*
X280013500Y-50966500D02*
X280013500Y-50216500D01*
G75*
G02*
X280076000Y-50154000I62500J0D01*
G01*
X280201000Y-50154000D01*
G75*
G02*
X280263500Y-50216500I0J-62500D01*
G01*
X280263500Y-50966500D01*
G75*
G02*
X280201000Y-51029000I-62500J0D01*
G01*
X280076000Y-51029000D01*
G75*
G02*
X280013500Y-50966500I0J62500D01*
G01*
G37*
G36*
G01*
X280513500Y-50966500D02*
X280513500Y-50216500D01*
G75*
G02*
X280576000Y-50154000I62500J0D01*
G01*
X280701000Y-50154000D01*
G75*
G02*
X280763500Y-50216500I0J-62500D01*
G01*
X280763500Y-50966500D01*
G75*
G02*
X280701000Y-51029000I-62500J0D01*
G01*
X280576000Y-51029000D01*
G75*
G02*
X280513500Y-50966500I0J62500D01*
G01*
G37*
G36*
G01*
X281013500Y-50966500D02*
X281013500Y-50216500D01*
G75*
G02*
X281076000Y-50154000I62500J0D01*
G01*
X281201000Y-50154000D01*
G75*
G02*
X281263500Y-50216500I0J-62500D01*
G01*
X281263500Y-50966500D01*
G75*
G02*
X281201000Y-51029000I-62500J0D01*
G01*
X281076000Y-51029000D01*
G75*
G02*
X281013500Y-50966500I0J62500D01*
G01*
G37*
G36*
G01*
X281513500Y-50966500D02*
X281513500Y-50216500D01*
G75*
G02*
X281576000Y-50154000I62500J0D01*
G01*
X281701000Y-50154000D01*
G75*
G02*
X281763500Y-50216500I0J-62500D01*
G01*
X281763500Y-50966500D01*
G75*
G02*
X281701000Y-51029000I-62500J0D01*
G01*
X281576000Y-51029000D01*
G75*
G02*
X281513500Y-50966500I0J62500D01*
G01*
G37*
G36*
G01*
X282013500Y-50966500D02*
X282013500Y-50216500D01*
G75*
G02*
X282076000Y-50154000I62500J0D01*
G01*
X282201000Y-50154000D01*
G75*
G02*
X282263500Y-50216500I0J-62500D01*
G01*
X282263500Y-50966500D01*
G75*
G02*
X282201000Y-51029000I-62500J0D01*
G01*
X282076000Y-51029000D01*
G75*
G02*
X282013500Y-50966500I0J62500D01*
G01*
G37*
G36*
G01*
X282513500Y-50966500D02*
X282513500Y-50216500D01*
G75*
G02*
X282576000Y-50154000I62500J0D01*
G01*
X282701000Y-50154000D01*
G75*
G02*
X282763500Y-50216500I0J-62500D01*
G01*
X282763500Y-50966500D01*
G75*
G02*
X282701000Y-51029000I-62500J0D01*
G01*
X282576000Y-51029000D01*
G75*
G02*
X282513500Y-50966500I0J62500D01*
G01*
G37*
G36*
G01*
X283013500Y-50966500D02*
X283013500Y-50216500D01*
G75*
G02*
X283076000Y-50154000I62500J0D01*
G01*
X283201000Y-50154000D01*
G75*
G02*
X283263500Y-50216500I0J-62500D01*
G01*
X283263500Y-50966500D01*
G75*
G02*
X283201000Y-51029000I-62500J0D01*
G01*
X283076000Y-51029000D01*
G75*
G02*
X283013500Y-50966500I0J62500D01*
G01*
G37*
G36*
G01*
X283513500Y-50966500D02*
X283513500Y-50216500D01*
G75*
G02*
X283576000Y-50154000I62500J0D01*
G01*
X283701000Y-50154000D01*
G75*
G02*
X283763500Y-50216500I0J-62500D01*
G01*
X283763500Y-50966500D01*
G75*
G02*
X283701000Y-51029000I-62500J0D01*
G01*
X283576000Y-51029000D01*
G75*
G02*
X283513500Y-50966500I0J62500D01*
G01*
G37*
G36*
G01*
X284013500Y-50966500D02*
X284013500Y-50216500D01*
G75*
G02*
X284076000Y-50154000I62500J0D01*
G01*
X284201000Y-50154000D01*
G75*
G02*
X284263500Y-50216500I0J-62500D01*
G01*
X284263500Y-50966500D01*
G75*
G02*
X284201000Y-51029000I-62500J0D01*
G01*
X284076000Y-51029000D01*
G75*
G02*
X284013500Y-50966500I0J62500D01*
G01*
G37*
G36*
G01*
X284513500Y-50966500D02*
X284513500Y-50216500D01*
G75*
G02*
X284576000Y-50154000I62500J0D01*
G01*
X284701000Y-50154000D01*
G75*
G02*
X284763500Y-50216500I0J-62500D01*
G01*
X284763500Y-50966500D01*
G75*
G02*
X284701000Y-51029000I-62500J0D01*
G01*
X284576000Y-51029000D01*
G75*
G02*
X284513500Y-50966500I0J62500D01*
G01*
G37*
G36*
G01*
X285013500Y-50966500D02*
X285013500Y-50216500D01*
G75*
G02*
X285076000Y-50154000I62500J0D01*
G01*
X285201000Y-50154000D01*
G75*
G02*
X285263500Y-50216500I0J-62500D01*
G01*
X285263500Y-50966500D01*
G75*
G02*
X285201000Y-51029000I-62500J0D01*
G01*
X285076000Y-51029000D01*
G75*
G02*
X285013500Y-50966500I0J62500D01*
G01*
G37*
G36*
G01*
X285513500Y-50966500D02*
X285513500Y-50216500D01*
G75*
G02*
X285576000Y-50154000I62500J0D01*
G01*
X285701000Y-50154000D01*
G75*
G02*
X285763500Y-50216500I0J-62500D01*
G01*
X285763500Y-50966500D01*
G75*
G02*
X285701000Y-51029000I-62500J0D01*
G01*
X285576000Y-51029000D01*
G75*
G02*
X285513500Y-50966500I0J62500D01*
G01*
G37*
G36*
G01*
X285888500Y-49966500D02*
X285888500Y-49841500D01*
G75*
G02*
X285951000Y-49779000I62500J0D01*
G01*
X286701000Y-49779000D01*
G75*
G02*
X286763500Y-49841500I0J-62500D01*
G01*
X286763500Y-49966500D01*
G75*
G02*
X286701000Y-50029000I-62500J0D01*
G01*
X285951000Y-50029000D01*
G75*
G02*
X285888500Y-49966500I0J62500D01*
G01*
G37*
G36*
G01*
X285888500Y-49466500D02*
X285888500Y-49341500D01*
G75*
G02*
X285951000Y-49279000I62500J0D01*
G01*
X286701000Y-49279000D01*
G75*
G02*
X286763500Y-49341500I0J-62500D01*
G01*
X286763500Y-49466500D01*
G75*
G02*
X286701000Y-49529000I-62500J0D01*
G01*
X285951000Y-49529000D01*
G75*
G02*
X285888500Y-49466500I0J62500D01*
G01*
G37*
G36*
G01*
X285888500Y-48966500D02*
X285888500Y-48841500D01*
G75*
G02*
X285951000Y-48779000I62500J0D01*
G01*
X286701000Y-48779000D01*
G75*
G02*
X286763500Y-48841500I0J-62500D01*
G01*
X286763500Y-48966500D01*
G75*
G02*
X286701000Y-49029000I-62500J0D01*
G01*
X285951000Y-49029000D01*
G75*
G02*
X285888500Y-48966500I0J62500D01*
G01*
G37*
G36*
G01*
X285888500Y-48466500D02*
X285888500Y-48341500D01*
G75*
G02*
X285951000Y-48279000I62500J0D01*
G01*
X286701000Y-48279000D01*
G75*
G02*
X286763500Y-48341500I0J-62500D01*
G01*
X286763500Y-48466500D01*
G75*
G02*
X286701000Y-48529000I-62500J0D01*
G01*
X285951000Y-48529000D01*
G75*
G02*
X285888500Y-48466500I0J62500D01*
G01*
G37*
G36*
G01*
X285888500Y-47966500D02*
X285888500Y-47841500D01*
G75*
G02*
X285951000Y-47779000I62500J0D01*
G01*
X286701000Y-47779000D01*
G75*
G02*
X286763500Y-47841500I0J-62500D01*
G01*
X286763500Y-47966500D01*
G75*
G02*
X286701000Y-48029000I-62500J0D01*
G01*
X285951000Y-48029000D01*
G75*
G02*
X285888500Y-47966500I0J62500D01*
G01*
G37*
G36*
G01*
X285888500Y-47466500D02*
X285888500Y-47341500D01*
G75*
G02*
X285951000Y-47279000I62500J0D01*
G01*
X286701000Y-47279000D01*
G75*
G02*
X286763500Y-47341500I0J-62500D01*
G01*
X286763500Y-47466500D01*
G75*
G02*
X286701000Y-47529000I-62500J0D01*
G01*
X285951000Y-47529000D01*
G75*
G02*
X285888500Y-47466500I0J62500D01*
G01*
G37*
G36*
G01*
X285888500Y-46966500D02*
X285888500Y-46841500D01*
G75*
G02*
X285951000Y-46779000I62500J0D01*
G01*
X286701000Y-46779000D01*
G75*
G02*
X286763500Y-46841500I0J-62500D01*
G01*
X286763500Y-46966500D01*
G75*
G02*
X286701000Y-47029000I-62500J0D01*
G01*
X285951000Y-47029000D01*
G75*
G02*
X285888500Y-46966500I0J62500D01*
G01*
G37*
G36*
G01*
X285888500Y-46466500D02*
X285888500Y-46341500D01*
G75*
G02*
X285951000Y-46279000I62500J0D01*
G01*
X286701000Y-46279000D01*
G75*
G02*
X286763500Y-46341500I0J-62500D01*
G01*
X286763500Y-46466500D01*
G75*
G02*
X286701000Y-46529000I-62500J0D01*
G01*
X285951000Y-46529000D01*
G75*
G02*
X285888500Y-46466500I0J62500D01*
G01*
G37*
G36*
G01*
X285888500Y-45966500D02*
X285888500Y-45841500D01*
G75*
G02*
X285951000Y-45779000I62500J0D01*
G01*
X286701000Y-45779000D01*
G75*
G02*
X286763500Y-45841500I0J-62500D01*
G01*
X286763500Y-45966500D01*
G75*
G02*
X286701000Y-46029000I-62500J0D01*
G01*
X285951000Y-46029000D01*
G75*
G02*
X285888500Y-45966500I0J62500D01*
G01*
G37*
G36*
G01*
X285888500Y-45466500D02*
X285888500Y-45341500D01*
G75*
G02*
X285951000Y-45279000I62500J0D01*
G01*
X286701000Y-45279000D01*
G75*
G02*
X286763500Y-45341500I0J-62500D01*
G01*
X286763500Y-45466500D01*
G75*
G02*
X286701000Y-45529000I-62500J0D01*
G01*
X285951000Y-45529000D01*
G75*
G02*
X285888500Y-45466500I0J62500D01*
G01*
G37*
G36*
G01*
X285888500Y-44966500D02*
X285888500Y-44841500D01*
G75*
G02*
X285951000Y-44779000I62500J0D01*
G01*
X286701000Y-44779000D01*
G75*
G02*
X286763500Y-44841500I0J-62500D01*
G01*
X286763500Y-44966500D01*
G75*
G02*
X286701000Y-45029000I-62500J0D01*
G01*
X285951000Y-45029000D01*
G75*
G02*
X285888500Y-44966500I0J62500D01*
G01*
G37*
G36*
G01*
X285888500Y-44466500D02*
X285888500Y-44341500D01*
G75*
G02*
X285951000Y-44279000I62500J0D01*
G01*
X286701000Y-44279000D01*
G75*
G02*
X286763500Y-44341500I0J-62500D01*
G01*
X286763500Y-44466500D01*
G75*
G02*
X286701000Y-44529000I-62500J0D01*
G01*
X285951000Y-44529000D01*
G75*
G02*
X285888500Y-44466500I0J62500D01*
G01*
G37*
G36*
G01*
X285513500Y-44091500D02*
X285513500Y-43341500D01*
G75*
G02*
X285576000Y-43279000I62500J0D01*
G01*
X285701000Y-43279000D01*
G75*
G02*
X285763500Y-43341500I0J-62500D01*
G01*
X285763500Y-44091500D01*
G75*
G02*
X285701000Y-44154000I-62500J0D01*
G01*
X285576000Y-44154000D01*
G75*
G02*
X285513500Y-44091500I0J62500D01*
G01*
G37*
G36*
G01*
X285013500Y-44091500D02*
X285013500Y-43341500D01*
G75*
G02*
X285076000Y-43279000I62500J0D01*
G01*
X285201000Y-43279000D01*
G75*
G02*
X285263500Y-43341500I0J-62500D01*
G01*
X285263500Y-44091500D01*
G75*
G02*
X285201000Y-44154000I-62500J0D01*
G01*
X285076000Y-44154000D01*
G75*
G02*
X285013500Y-44091500I0J62500D01*
G01*
G37*
G36*
G01*
X284513500Y-44091500D02*
X284513500Y-43341500D01*
G75*
G02*
X284576000Y-43279000I62500J0D01*
G01*
X284701000Y-43279000D01*
G75*
G02*
X284763500Y-43341500I0J-62500D01*
G01*
X284763500Y-44091500D01*
G75*
G02*
X284701000Y-44154000I-62500J0D01*
G01*
X284576000Y-44154000D01*
G75*
G02*
X284513500Y-44091500I0J62500D01*
G01*
G37*
G36*
G01*
X284013500Y-44091500D02*
X284013500Y-43341500D01*
G75*
G02*
X284076000Y-43279000I62500J0D01*
G01*
X284201000Y-43279000D01*
G75*
G02*
X284263500Y-43341500I0J-62500D01*
G01*
X284263500Y-44091500D01*
G75*
G02*
X284201000Y-44154000I-62500J0D01*
G01*
X284076000Y-44154000D01*
G75*
G02*
X284013500Y-44091500I0J62500D01*
G01*
G37*
G36*
G01*
X283513500Y-44091500D02*
X283513500Y-43341500D01*
G75*
G02*
X283576000Y-43279000I62500J0D01*
G01*
X283701000Y-43279000D01*
G75*
G02*
X283763500Y-43341500I0J-62500D01*
G01*
X283763500Y-44091500D01*
G75*
G02*
X283701000Y-44154000I-62500J0D01*
G01*
X283576000Y-44154000D01*
G75*
G02*
X283513500Y-44091500I0J62500D01*
G01*
G37*
G36*
G01*
X283013500Y-44091500D02*
X283013500Y-43341500D01*
G75*
G02*
X283076000Y-43279000I62500J0D01*
G01*
X283201000Y-43279000D01*
G75*
G02*
X283263500Y-43341500I0J-62500D01*
G01*
X283263500Y-44091500D01*
G75*
G02*
X283201000Y-44154000I-62500J0D01*
G01*
X283076000Y-44154000D01*
G75*
G02*
X283013500Y-44091500I0J62500D01*
G01*
G37*
G36*
G01*
X282513500Y-44091500D02*
X282513500Y-43341500D01*
G75*
G02*
X282576000Y-43279000I62500J0D01*
G01*
X282701000Y-43279000D01*
G75*
G02*
X282763500Y-43341500I0J-62500D01*
G01*
X282763500Y-44091500D01*
G75*
G02*
X282701000Y-44154000I-62500J0D01*
G01*
X282576000Y-44154000D01*
G75*
G02*
X282513500Y-44091500I0J62500D01*
G01*
G37*
G36*
G01*
X282013500Y-44091500D02*
X282013500Y-43341500D01*
G75*
G02*
X282076000Y-43279000I62500J0D01*
G01*
X282201000Y-43279000D01*
G75*
G02*
X282263500Y-43341500I0J-62500D01*
G01*
X282263500Y-44091500D01*
G75*
G02*
X282201000Y-44154000I-62500J0D01*
G01*
X282076000Y-44154000D01*
G75*
G02*
X282013500Y-44091500I0J62500D01*
G01*
G37*
G36*
G01*
X281513500Y-44091500D02*
X281513500Y-43341500D01*
G75*
G02*
X281576000Y-43279000I62500J0D01*
G01*
X281701000Y-43279000D01*
G75*
G02*
X281763500Y-43341500I0J-62500D01*
G01*
X281763500Y-44091500D01*
G75*
G02*
X281701000Y-44154000I-62500J0D01*
G01*
X281576000Y-44154000D01*
G75*
G02*
X281513500Y-44091500I0J62500D01*
G01*
G37*
G36*
G01*
X281013500Y-44091500D02*
X281013500Y-43341500D01*
G75*
G02*
X281076000Y-43279000I62500J0D01*
G01*
X281201000Y-43279000D01*
G75*
G02*
X281263500Y-43341500I0J-62500D01*
G01*
X281263500Y-44091500D01*
G75*
G02*
X281201000Y-44154000I-62500J0D01*
G01*
X281076000Y-44154000D01*
G75*
G02*
X281013500Y-44091500I0J62500D01*
G01*
G37*
G36*
G01*
X280513500Y-44091500D02*
X280513500Y-43341500D01*
G75*
G02*
X280576000Y-43279000I62500J0D01*
G01*
X280701000Y-43279000D01*
G75*
G02*
X280763500Y-43341500I0J-62500D01*
G01*
X280763500Y-44091500D01*
G75*
G02*
X280701000Y-44154000I-62500J0D01*
G01*
X280576000Y-44154000D01*
G75*
G02*
X280513500Y-44091500I0J62500D01*
G01*
G37*
G36*
G01*
X280013500Y-44091500D02*
X280013500Y-43341500D01*
G75*
G02*
X280076000Y-43279000I62500J0D01*
G01*
X280201000Y-43279000D01*
G75*
G02*
X280263500Y-43341500I0J-62500D01*
G01*
X280263500Y-44091500D01*
G75*
G02*
X280201000Y-44154000I-62500J0D01*
G01*
X280076000Y-44154000D01*
G75*
G02*
X280013500Y-44091500I0J62500D01*
G01*
G37*
G36*
G01*
X279013500Y-44466500D02*
X279013500Y-44341500D01*
G75*
G02*
X279076000Y-44279000I62500J0D01*
G01*
X279826000Y-44279000D01*
G75*
G02*
X279888500Y-44341500I0J-62500D01*
G01*
X279888500Y-44466500D01*
G75*
G02*
X279826000Y-44529000I-62500J0D01*
G01*
X279076000Y-44529000D01*
G75*
G02*
X279013500Y-44466500I0J62500D01*
G01*
G37*
G36*
G01*
X279013500Y-44966500D02*
X279013500Y-44841500D01*
G75*
G02*
X279076000Y-44779000I62500J0D01*
G01*
X279826000Y-44779000D01*
G75*
G02*
X279888500Y-44841500I0J-62500D01*
G01*
X279888500Y-44966500D01*
G75*
G02*
X279826000Y-45029000I-62500J0D01*
G01*
X279076000Y-45029000D01*
G75*
G02*
X279013500Y-44966500I0J62500D01*
G01*
G37*
G36*
G01*
X279013500Y-45466500D02*
X279013500Y-45341500D01*
G75*
G02*
X279076000Y-45279000I62500J0D01*
G01*
X279826000Y-45279000D01*
G75*
G02*
X279888500Y-45341500I0J-62500D01*
G01*
X279888500Y-45466500D01*
G75*
G02*
X279826000Y-45529000I-62500J0D01*
G01*
X279076000Y-45529000D01*
G75*
G02*
X279013500Y-45466500I0J62500D01*
G01*
G37*
G36*
G01*
X279013500Y-45966500D02*
X279013500Y-45841500D01*
G75*
G02*
X279076000Y-45779000I62500J0D01*
G01*
X279826000Y-45779000D01*
G75*
G02*
X279888500Y-45841500I0J-62500D01*
G01*
X279888500Y-45966500D01*
G75*
G02*
X279826000Y-46029000I-62500J0D01*
G01*
X279076000Y-46029000D01*
G75*
G02*
X279013500Y-45966500I0J62500D01*
G01*
G37*
G36*
G01*
X279013500Y-46466500D02*
X279013500Y-46341500D01*
G75*
G02*
X279076000Y-46279000I62500J0D01*
G01*
X279826000Y-46279000D01*
G75*
G02*
X279888500Y-46341500I0J-62500D01*
G01*
X279888500Y-46466500D01*
G75*
G02*
X279826000Y-46529000I-62500J0D01*
G01*
X279076000Y-46529000D01*
G75*
G02*
X279013500Y-46466500I0J62500D01*
G01*
G37*
G36*
G01*
X279013500Y-46966500D02*
X279013500Y-46841500D01*
G75*
G02*
X279076000Y-46779000I62500J0D01*
G01*
X279826000Y-46779000D01*
G75*
G02*
X279888500Y-46841500I0J-62500D01*
G01*
X279888500Y-46966500D01*
G75*
G02*
X279826000Y-47029000I-62500J0D01*
G01*
X279076000Y-47029000D01*
G75*
G02*
X279013500Y-46966500I0J62500D01*
G01*
G37*
G36*
G01*
X279013500Y-47466500D02*
X279013500Y-47341500D01*
G75*
G02*
X279076000Y-47279000I62500J0D01*
G01*
X279826000Y-47279000D01*
G75*
G02*
X279888500Y-47341500I0J-62500D01*
G01*
X279888500Y-47466500D01*
G75*
G02*
X279826000Y-47529000I-62500J0D01*
G01*
X279076000Y-47529000D01*
G75*
G02*
X279013500Y-47466500I0J62500D01*
G01*
G37*
G36*
G01*
X279013500Y-47966500D02*
X279013500Y-47841500D01*
G75*
G02*
X279076000Y-47779000I62500J0D01*
G01*
X279826000Y-47779000D01*
G75*
G02*
X279888500Y-47841500I0J-62500D01*
G01*
X279888500Y-47966500D01*
G75*
G02*
X279826000Y-48029000I-62500J0D01*
G01*
X279076000Y-48029000D01*
G75*
G02*
X279013500Y-47966500I0J62500D01*
G01*
G37*
G36*
G01*
X279013500Y-48466500D02*
X279013500Y-48341500D01*
G75*
G02*
X279076000Y-48279000I62500J0D01*
G01*
X279826000Y-48279000D01*
G75*
G02*
X279888500Y-48341500I0J-62500D01*
G01*
X279888500Y-48466500D01*
G75*
G02*
X279826000Y-48529000I-62500J0D01*
G01*
X279076000Y-48529000D01*
G75*
G02*
X279013500Y-48466500I0J62500D01*
G01*
G37*
G36*
G01*
X279013500Y-48966500D02*
X279013500Y-48841500D01*
G75*
G02*
X279076000Y-48779000I62500J0D01*
G01*
X279826000Y-48779000D01*
G75*
G02*
X279888500Y-48841500I0J-62500D01*
G01*
X279888500Y-48966500D01*
G75*
G02*
X279826000Y-49029000I-62500J0D01*
G01*
X279076000Y-49029000D01*
G75*
G02*
X279013500Y-48966500I0J62500D01*
G01*
G37*
G36*
G01*
X279013500Y-49466500D02*
X279013500Y-49341500D01*
G75*
G02*
X279076000Y-49279000I62500J0D01*
G01*
X279826000Y-49279000D01*
G75*
G02*
X279888500Y-49341500I0J-62500D01*
G01*
X279888500Y-49466500D01*
G75*
G02*
X279826000Y-49529000I-62500J0D01*
G01*
X279076000Y-49529000D01*
G75*
G02*
X279013500Y-49466500I0J62500D01*
G01*
G37*
G36*
G01*
X279013500Y-49966500D02*
X279013500Y-49841500D01*
G75*
G02*
X279076000Y-49779000I62500J0D01*
G01*
X279826000Y-49779000D01*
G75*
G02*
X279888500Y-49841500I0J-62500D01*
G01*
X279888500Y-49966500D01*
G75*
G02*
X279826000Y-50029000I-62500J0D01*
G01*
X279076000Y-50029000D01*
G75*
G02*
X279013500Y-49966500I0J62500D01*
G01*
G37*
D12*
X290600000Y-67200000D03*
X289200000Y-67200000D03*
G36*
G01*
X289750300Y-70136000D02*
X290095300Y-70136000D01*
G75*
G02*
X290242800Y-70283500I0J-147500D01*
G01*
X290242800Y-70578500D01*
G75*
G02*
X290095300Y-70726000I-147500J0D01*
G01*
X289750300Y-70726000D01*
G75*
G02*
X289602800Y-70578500I0J147500D01*
G01*
X289602800Y-70283500D01*
G75*
G02*
X289750300Y-70136000I147500J0D01*
G01*
G37*
G36*
G01*
X289750300Y-69166000D02*
X290095300Y-69166000D01*
G75*
G02*
X290242800Y-69313500I0J-147500D01*
G01*
X290242800Y-69608500D01*
G75*
G02*
X290095300Y-69756000I-147500J0D01*
G01*
X289750300Y-69756000D01*
G75*
G02*
X289602800Y-69608500I0J147500D01*
G01*
X289602800Y-69313500D01*
G75*
G02*
X289750300Y-69166000I147500J0D01*
G01*
G37*
D13*
X280610000Y-77700000D03*
X276360000Y-77700000D03*
X280610000Y-74200000D03*
G36*
G01*
X284352500Y-53765000D02*
X284007500Y-53765000D01*
G75*
G02*
X283860000Y-53617500I0J147500D01*
G01*
X283860000Y-53322500D01*
G75*
G02*
X284007500Y-53175000I147500J0D01*
G01*
X284352500Y-53175000D01*
G75*
G02*
X284500000Y-53322500I0J-147500D01*
G01*
X284500000Y-53617500D01*
G75*
G02*
X284352500Y-53765000I-147500J0D01*
G01*
G37*
G36*
G01*
X284352500Y-54735000D02*
X284007500Y-54735000D01*
G75*
G02*
X283860000Y-54587500I0J147500D01*
G01*
X283860000Y-54292500D01*
G75*
G02*
X284007500Y-54145000I147500J0D01*
G01*
X284352500Y-54145000D01*
G75*
G02*
X284500000Y-54292500I0J-147500D01*
G01*
X284500000Y-54587500D01*
G75*
G02*
X284352500Y-54735000I-147500J0D01*
G01*
G37*
D14*
X283740000Y-70040000D03*
X283740000Y-64960000D03*
X283740000Y-75120000D03*
X287040000Y-67500000D03*
X283740000Y-59880000D03*
X287040000Y-62420000D03*
X287040000Y-72580000D03*
X287040000Y-77660000D03*
X264180000Y-62420000D03*
X264180000Y-67500000D03*
X264180000Y-72580000D03*
X264180000Y-77660000D03*
X260880000Y-59880000D03*
X260880000Y-64960000D03*
X260880000Y-70040000D03*
X260880000Y-75120000D03*
D15*
X275420000Y-58370000D03*
X272880000Y-61670000D03*
G36*
G01*
X284481000Y-40694000D02*
X284136000Y-40694000D01*
G75*
G02*
X283988500Y-40546500I0J147500D01*
G01*
X283988500Y-40251500D01*
G75*
G02*
X284136000Y-40104000I147500J0D01*
G01*
X284481000Y-40104000D01*
G75*
G02*
X284628500Y-40251500I0J-147500D01*
G01*
X284628500Y-40546500D01*
G75*
G02*
X284481000Y-40694000I-147500J0D01*
G01*
G37*
G36*
G01*
X284481000Y-41664000D02*
X284136000Y-41664000D01*
G75*
G02*
X283988500Y-41516500I0J147500D01*
G01*
X283988500Y-41221500D01*
G75*
G02*
X284136000Y-41074000I147500J0D01*
G01*
X284481000Y-41074000D01*
G75*
G02*
X284628500Y-41221500I0J-147500D01*
G01*
X284628500Y-41516500D01*
G75*
G02*
X284481000Y-41664000I-147500J0D01*
G01*
G37*
G36*
G01*
X290062500Y-72980000D02*
X289717500Y-72980000D01*
G75*
G02*
X289570000Y-72832500I0J147500D01*
G01*
X289570000Y-72537500D01*
G75*
G02*
X289717500Y-72390000I147500J0D01*
G01*
X290062500Y-72390000D01*
G75*
G02*
X290210000Y-72537500I0J-147500D01*
G01*
X290210000Y-72832500D01*
G75*
G02*
X290062500Y-72980000I-147500J0D01*
G01*
G37*
G36*
G01*
X290062500Y-73950000D02*
X289717500Y-73950000D01*
G75*
G02*
X289570000Y-73802500I0J147500D01*
G01*
X289570000Y-73507500D01*
G75*
G02*
X289717500Y-73360000I147500J0D01*
G01*
X290062500Y-73360000D01*
G75*
G02*
X290210000Y-73507500I0J-147500D01*
G01*
X290210000Y-73802500D01*
G75*
G02*
X290062500Y-73950000I-147500J0D01*
G01*
G37*
D16*
X258318000Y-36885000D03*
X258318000Y-39835000D03*
D17*
X259843000Y-38360000D03*
G36*
G01*
X282017500Y-54155000D02*
X282362500Y-54155000D01*
G75*
G02*
X282510000Y-54302500I0J-147500D01*
G01*
X282510000Y-54597500D01*
G75*
G02*
X282362500Y-54745000I-147500J0D01*
G01*
X282017500Y-54745000D01*
G75*
G02*
X281870000Y-54597500I0J147500D01*
G01*
X281870000Y-54302500D01*
G75*
G02*
X282017500Y-54155000I147500J0D01*
G01*
G37*
G36*
G01*
X282017500Y-53185000D02*
X282362500Y-53185000D01*
G75*
G02*
X282510000Y-53332500I0J-147500D01*
G01*
X282510000Y-53627500D01*
G75*
G02*
X282362500Y-53775000I-147500J0D01*
G01*
X282017500Y-53775000D01*
G75*
G02*
X281870000Y-53627500I0J147500D01*
G01*
X281870000Y-53332500D01*
G75*
G02*
X282017500Y-53185000I147500J0D01*
G01*
G37*
D18*
X257260000Y-47959000D03*
D19*
X256760000Y-45159000D03*
X257760000Y-45159000D03*
G36*
G01*
X276570000Y-50610000D02*
X276570000Y-50010000D01*
G75*
G02*
X276645000Y-49935000I75000J0D01*
G01*
X276795000Y-49935000D01*
G75*
G02*
X276870000Y-50010000I0J-75000D01*
G01*
X276870000Y-50610000D01*
G75*
G02*
X276795000Y-50685000I-75000J0D01*
G01*
X276645000Y-50685000D01*
G75*
G02*
X276570000Y-50610000I0J75000D01*
G01*
G37*
G36*
G01*
X276570000Y-48310000D02*
X276570000Y-47710000D01*
G75*
G02*
X276645000Y-47635000I75000J0D01*
G01*
X276795000Y-47635000D01*
G75*
G02*
X276870000Y-47710000I0J-75000D01*
G01*
X276870000Y-48310000D01*
G75*
G02*
X276795000Y-48385000I-75000J0D01*
G01*
X276645000Y-48385000D01*
G75*
G02*
X276570000Y-48310000I0J75000D01*
G01*
G37*
G36*
G01*
X277832500Y-50035000D02*
X277207500Y-50035000D01*
G75*
G02*
X277145000Y-49972500I0J62500D01*
G01*
X277145000Y-49847500D01*
G75*
G02*
X277207500Y-49785000I62500J0D01*
G01*
X277832500Y-49785000D01*
G75*
G02*
X277895000Y-49847500I0J-62500D01*
G01*
X277895000Y-49972500D01*
G75*
G02*
X277832500Y-50035000I-62500J0D01*
G01*
G37*
G36*
G01*
X277832500Y-49535000D02*
X277207500Y-49535000D01*
G75*
G02*
X277145000Y-49472500I0J62500D01*
G01*
X277145000Y-49347500D01*
G75*
G02*
X277207500Y-49285000I62500J0D01*
G01*
X277832500Y-49285000D01*
G75*
G02*
X277895000Y-49347500I0J-62500D01*
G01*
X277895000Y-49472500D01*
G75*
G02*
X277832500Y-49535000I-62500J0D01*
G01*
G37*
G36*
G01*
X277832500Y-49035000D02*
X277207500Y-49035000D01*
G75*
G02*
X277145000Y-48972500I0J62500D01*
G01*
X277145000Y-48847500D01*
G75*
G02*
X277207500Y-48785000I62500J0D01*
G01*
X277832500Y-48785000D01*
G75*
G02*
X277895000Y-48847500I0J-62500D01*
G01*
X277895000Y-48972500D01*
G75*
G02*
X277832500Y-49035000I-62500J0D01*
G01*
G37*
G36*
G01*
X277832500Y-48535000D02*
X277207500Y-48535000D01*
G75*
G02*
X277145000Y-48472500I0J62500D01*
G01*
X277145000Y-48347500D01*
G75*
G02*
X277207500Y-48285000I62500J0D01*
G01*
X277832500Y-48285000D01*
G75*
G02*
X277895000Y-48347500I0J-62500D01*
G01*
X277895000Y-48472500D01*
G75*
G02*
X277832500Y-48535000I-62500J0D01*
G01*
G37*
G36*
G01*
X276232500Y-50035000D02*
X275607500Y-50035000D01*
G75*
G02*
X275545000Y-49972500I0J62500D01*
G01*
X275545000Y-49847500D01*
G75*
G02*
X275607500Y-49785000I62500J0D01*
G01*
X276232500Y-49785000D01*
G75*
G02*
X276295000Y-49847500I0J-62500D01*
G01*
X276295000Y-49972500D01*
G75*
G02*
X276232500Y-50035000I-62500J0D01*
G01*
G37*
G36*
G01*
X276232500Y-49535000D02*
X275607500Y-49535000D01*
G75*
G02*
X275545000Y-49472500I0J62500D01*
G01*
X275545000Y-49347500D01*
G75*
G02*
X275607500Y-49285000I62500J0D01*
G01*
X276232500Y-49285000D01*
G75*
G02*
X276295000Y-49347500I0J-62500D01*
G01*
X276295000Y-49472500D01*
G75*
G02*
X276232500Y-49535000I-62500J0D01*
G01*
G37*
G36*
G01*
X276232500Y-49035000D02*
X275607500Y-49035000D01*
G75*
G02*
X275545000Y-48972500I0J62500D01*
G01*
X275545000Y-48847500D01*
G75*
G02*
X275607500Y-48785000I62500J0D01*
G01*
X276232500Y-48785000D01*
G75*
G02*
X276295000Y-48847500I0J-62500D01*
G01*
X276295000Y-48972500D01*
G75*
G02*
X276232500Y-49035000I-62500J0D01*
G01*
G37*
G36*
G01*
X276232500Y-48535000D02*
X275607500Y-48535000D01*
G75*
G02*
X275545000Y-48472500I0J62500D01*
G01*
X275545000Y-48347500D01*
G75*
G02*
X275607500Y-48285000I62500J0D01*
G01*
X276232500Y-48285000D01*
G75*
G02*
X276295000Y-48347500I0J-62500D01*
G01*
X276295000Y-48472500D01*
G75*
G02*
X276232500Y-48535000I-62500J0D01*
G01*
G37*
G36*
G01*
X278710000Y-60990000D02*
X278860000Y-60990000D01*
G75*
G02*
X278935000Y-61065000I0J-75000D01*
G01*
X278935000Y-61515000D01*
G75*
G02*
X278860000Y-61590000I-75000J0D01*
G01*
X278710000Y-61590000D01*
G75*
G02*
X278635000Y-61515000I0J75000D01*
G01*
X278635000Y-61065000D01*
G75*
G02*
X278710000Y-60990000I75000J0D01*
G01*
G37*
G36*
G01*
X279185000Y-61202500D02*
X279185000Y-61077500D01*
G75*
G02*
X279247500Y-61015000I62500J0D01*
G01*
X279672500Y-61015000D01*
G75*
G02*
X279735000Y-61077500I0J-62500D01*
G01*
X279735000Y-61202500D01*
G75*
G02*
X279672500Y-61265000I-62500J0D01*
G01*
X279247500Y-61265000D01*
G75*
G02*
X279185000Y-61202500I0J62500D01*
G01*
G37*
G36*
G01*
X279185000Y-60702500D02*
X279185000Y-60577500D01*
G75*
G02*
X279247500Y-60515000I62500J0D01*
G01*
X279672500Y-60515000D01*
G75*
G02*
X279735000Y-60577500I0J-62500D01*
G01*
X279735000Y-60702500D01*
G75*
G02*
X279672500Y-60765000I-62500J0D01*
G01*
X279247500Y-60765000D01*
G75*
G02*
X279185000Y-60702500I0J62500D01*
G01*
G37*
G36*
G01*
X279185000Y-60202500D02*
X279185000Y-60077500D01*
G75*
G02*
X279247500Y-60015000I62500J0D01*
G01*
X279672500Y-60015000D01*
G75*
G02*
X279735000Y-60077500I0J-62500D01*
G01*
X279735000Y-60202500D01*
G75*
G02*
X279672500Y-60265000I-62500J0D01*
G01*
X279247500Y-60265000D01*
G75*
G02*
X279185000Y-60202500I0J62500D01*
G01*
G37*
G36*
G01*
X279185000Y-59702500D02*
X279185000Y-59577500D01*
G75*
G02*
X279247500Y-59515000I62500J0D01*
G01*
X279672500Y-59515000D01*
G75*
G02*
X279735000Y-59577500I0J-62500D01*
G01*
X279735000Y-59702500D01*
G75*
G02*
X279672500Y-59765000I-62500J0D01*
G01*
X279247500Y-59765000D01*
G75*
G02*
X279185000Y-59702500I0J62500D01*
G01*
G37*
G36*
G01*
X278710000Y-59190000D02*
X278860000Y-59190000D01*
G75*
G02*
X278935000Y-59265000I0J-75000D01*
G01*
X278935000Y-59715000D01*
G75*
G02*
X278860000Y-59790000I-75000J0D01*
G01*
X278710000Y-59790000D01*
G75*
G02*
X278635000Y-59715000I0J75000D01*
G01*
X278635000Y-59265000D01*
G75*
G02*
X278710000Y-59190000I75000J0D01*
G01*
G37*
G36*
G01*
X277835000Y-59702500D02*
X277835000Y-59577500D01*
G75*
G02*
X277897500Y-59515000I62500J0D01*
G01*
X278322500Y-59515000D01*
G75*
G02*
X278385000Y-59577500I0J-62500D01*
G01*
X278385000Y-59702500D01*
G75*
G02*
X278322500Y-59765000I-62500J0D01*
G01*
X277897500Y-59765000D01*
G75*
G02*
X277835000Y-59702500I0J62500D01*
G01*
G37*
G36*
G01*
X277835000Y-60202500D02*
X277835000Y-60077500D01*
G75*
G02*
X277897500Y-60015000I62500J0D01*
G01*
X278322500Y-60015000D01*
G75*
G02*
X278385000Y-60077500I0J-62500D01*
G01*
X278385000Y-60202500D01*
G75*
G02*
X278322500Y-60265000I-62500J0D01*
G01*
X277897500Y-60265000D01*
G75*
G02*
X277835000Y-60202500I0J62500D01*
G01*
G37*
G36*
G01*
X277835000Y-60702500D02*
X277835000Y-60577500D01*
G75*
G02*
X277897500Y-60515000I62500J0D01*
G01*
X278322500Y-60515000D01*
G75*
G02*
X278385000Y-60577500I0J-62500D01*
G01*
X278385000Y-60702500D01*
G75*
G02*
X278322500Y-60765000I-62500J0D01*
G01*
X277897500Y-60765000D01*
G75*
G02*
X277835000Y-60702500I0J62500D01*
G01*
G37*
G36*
G01*
X277835000Y-61202500D02*
X277835000Y-61077500D01*
G75*
G02*
X277897500Y-61015000I62500J0D01*
G01*
X278322500Y-61015000D01*
G75*
G02*
X278385000Y-61077500I0J-62500D01*
G01*
X278385000Y-61202500D01*
G75*
G02*
X278322500Y-61265000I-62500J0D01*
G01*
X277897500Y-61265000D01*
G75*
G02*
X277835000Y-61202500I0J62500D01*
G01*
G37*
G36*
G01*
X281072500Y-60935000D02*
X280727500Y-60935000D01*
G75*
G02*
X280580000Y-60787500I0J147500D01*
G01*
X280580000Y-60492500D01*
G75*
G02*
X280727500Y-60345000I147500J0D01*
G01*
X281072500Y-60345000D01*
G75*
G02*
X281220000Y-60492500I0J-147500D01*
G01*
X281220000Y-60787500D01*
G75*
G02*
X281072500Y-60935000I-147500J0D01*
G01*
G37*
G36*
G01*
X281072500Y-61905000D02*
X280727500Y-61905000D01*
G75*
G02*
X280580000Y-61757500I0J147500D01*
G01*
X280580000Y-61462500D01*
G75*
G02*
X280727500Y-61315000I147500J0D01*
G01*
X281072500Y-61315000D01*
G75*
G02*
X281220000Y-61462500I0J-147500D01*
G01*
X281220000Y-61757500D01*
G75*
G02*
X281072500Y-61905000I-147500J0D01*
G01*
G37*
G36*
G01*
X278962500Y-57320000D02*
X278617500Y-57320000D01*
G75*
G02*
X278470000Y-57172500I0J147500D01*
G01*
X278470000Y-56877500D01*
G75*
G02*
X278617500Y-56730000I147500J0D01*
G01*
X278962500Y-56730000D01*
G75*
G02*
X279110000Y-56877500I0J-147500D01*
G01*
X279110000Y-57172500D01*
G75*
G02*
X278962500Y-57320000I-147500J0D01*
G01*
G37*
G36*
G01*
X278962500Y-58290000D02*
X278617500Y-58290000D01*
G75*
G02*
X278470000Y-58142500I0J147500D01*
G01*
X278470000Y-57847500D01*
G75*
G02*
X278617500Y-57700000I147500J0D01*
G01*
X278962500Y-57700000D01*
G75*
G02*
X279110000Y-57847500I0J-147500D01*
G01*
X279110000Y-58142500D01*
G75*
G02*
X278962500Y-58290000I-147500J0D01*
G01*
G37*
G36*
G01*
X283471000Y-40689000D02*
X283126000Y-40689000D01*
G75*
G02*
X282978500Y-40541500I0J147500D01*
G01*
X282978500Y-40246500D01*
G75*
G02*
X283126000Y-40099000I147500J0D01*
G01*
X283471000Y-40099000D01*
G75*
G02*
X283618500Y-40246500I0J-147500D01*
G01*
X283618500Y-40541500D01*
G75*
G02*
X283471000Y-40689000I-147500J0D01*
G01*
G37*
G36*
G01*
X283471000Y-41659000D02*
X283126000Y-41659000D01*
G75*
G02*
X282978500Y-41511500I0J147500D01*
G01*
X282978500Y-41216500D01*
G75*
G02*
X283126000Y-41069000I147500J0D01*
G01*
X283471000Y-41069000D01*
G75*
G02*
X283618500Y-41216500I0J-147500D01*
G01*
X283618500Y-41511500D01*
G75*
G02*
X283471000Y-41659000I-147500J0D01*
G01*
G37*
G36*
G01*
X279066000Y-41069000D02*
X279411000Y-41069000D01*
G75*
G02*
X279558500Y-41216500I0J-147500D01*
G01*
X279558500Y-41511500D01*
G75*
G02*
X279411000Y-41659000I-147500J0D01*
G01*
X279066000Y-41659000D01*
G75*
G02*
X278918500Y-41511500I0J147500D01*
G01*
X278918500Y-41216500D01*
G75*
G02*
X279066000Y-41069000I147500J0D01*
G01*
G37*
G36*
G01*
X279066000Y-40099000D02*
X279411000Y-40099000D01*
G75*
G02*
X279558500Y-40246500I0J-147500D01*
G01*
X279558500Y-40541500D01*
G75*
G02*
X279411000Y-40689000I-147500J0D01*
G01*
X279066000Y-40689000D01*
G75*
G02*
X278918500Y-40541500I0J147500D01*
G01*
X278918500Y-40246500D01*
G75*
G02*
X279066000Y-40099000I147500J0D01*
G01*
G37*
G36*
G01*
X287851000Y-49429000D02*
X287506000Y-49429000D01*
G75*
G02*
X287358500Y-49281500I0J147500D01*
G01*
X287358500Y-48986500D01*
G75*
G02*
X287506000Y-48839000I147500J0D01*
G01*
X287851000Y-48839000D01*
G75*
G02*
X287998500Y-48986500I0J-147500D01*
G01*
X287998500Y-49281500D01*
G75*
G02*
X287851000Y-49429000I-147500J0D01*
G01*
G37*
G36*
G01*
X287851000Y-50399000D02*
X287506000Y-50399000D01*
G75*
G02*
X287358500Y-50251500I0J147500D01*
G01*
X287358500Y-49956500D01*
G75*
G02*
X287506000Y-49809000I147500J0D01*
G01*
X287851000Y-49809000D01*
G75*
G02*
X287998500Y-49956500I0J-147500D01*
G01*
X287998500Y-50251500D01*
G75*
G02*
X287851000Y-50399000I-147500J0D01*
G01*
G37*
G36*
G01*
X257053000Y-50204000D02*
X257398000Y-50204000D01*
G75*
G02*
X257545500Y-50351500I0J-147500D01*
G01*
X257545500Y-50646500D01*
G75*
G02*
X257398000Y-50794000I-147500J0D01*
G01*
X257053000Y-50794000D01*
G75*
G02*
X256905500Y-50646500I0J147500D01*
G01*
X256905500Y-50351500D01*
G75*
G02*
X257053000Y-50204000I147500J0D01*
G01*
G37*
G36*
G01*
X257053000Y-49234000D02*
X257398000Y-49234000D01*
G75*
G02*
X257545500Y-49381500I0J-147500D01*
G01*
X257545500Y-49676500D01*
G75*
G02*
X257398000Y-49824000I-147500J0D01*
G01*
X257053000Y-49824000D01*
G75*
G02*
X256905500Y-49676500I0J147500D01*
G01*
X256905500Y-49381500D01*
G75*
G02*
X257053000Y-49234000I147500J0D01*
G01*
G37*
G36*
G01*
X287176000Y-41084000D02*
X287521000Y-41084000D01*
G75*
G02*
X287668500Y-41231500I0J-147500D01*
G01*
X287668500Y-41526500D01*
G75*
G02*
X287521000Y-41674000I-147500J0D01*
G01*
X287176000Y-41674000D01*
G75*
G02*
X287028500Y-41526500I0J147500D01*
G01*
X287028500Y-41231500D01*
G75*
G02*
X287176000Y-41084000I147500J0D01*
G01*
G37*
G36*
G01*
X287176000Y-40114000D02*
X287521000Y-40114000D01*
G75*
G02*
X287668500Y-40261500I0J-147500D01*
G01*
X287668500Y-40556500D01*
G75*
G02*
X287521000Y-40704000I-147500J0D01*
G01*
X287176000Y-40704000D01*
G75*
G02*
X287028500Y-40556500I0J147500D01*
G01*
X287028500Y-40261500D01*
G75*
G02*
X287176000Y-40114000I147500J0D01*
G01*
G37*
G36*
G01*
X286166000Y-41074000D02*
X286511000Y-41074000D01*
G75*
G02*
X286658500Y-41221500I0J-147500D01*
G01*
X286658500Y-41516500D01*
G75*
G02*
X286511000Y-41664000I-147500J0D01*
G01*
X286166000Y-41664000D01*
G75*
G02*
X286018500Y-41516500I0J147500D01*
G01*
X286018500Y-41221500D01*
G75*
G02*
X286166000Y-41074000I147500J0D01*
G01*
G37*
G36*
G01*
X286166000Y-40104000D02*
X286511000Y-40104000D01*
G75*
G02*
X286658500Y-40251500I0J-147500D01*
G01*
X286658500Y-40546500D01*
G75*
G02*
X286511000Y-40694000I-147500J0D01*
G01*
X286166000Y-40694000D01*
G75*
G02*
X286018500Y-40546500I0J147500D01*
G01*
X286018500Y-40251500D01*
G75*
G02*
X286166000Y-40104000I147500J0D01*
G01*
G37*
G36*
G01*
X258737500Y-64695000D02*
X259082500Y-64695000D01*
G75*
G02*
X259230000Y-64842500I0J-147500D01*
G01*
X259230000Y-65137500D01*
G75*
G02*
X259082500Y-65285000I-147500J0D01*
G01*
X258737500Y-65285000D01*
G75*
G02*
X258590000Y-65137500I0J147500D01*
G01*
X258590000Y-64842500D01*
G75*
G02*
X258737500Y-64695000I147500J0D01*
G01*
G37*
G36*
G01*
X258737500Y-63725000D02*
X259082500Y-63725000D01*
G75*
G02*
X259230000Y-63872500I0J-147500D01*
G01*
X259230000Y-64167500D01*
G75*
G02*
X259082500Y-64315000I-147500J0D01*
G01*
X258737500Y-64315000D01*
G75*
G02*
X258590000Y-64167500I0J147500D01*
G01*
X258590000Y-63872500D01*
G75*
G02*
X258737500Y-63725000I147500J0D01*
G01*
G37*
G36*
G01*
X258737500Y-66725000D02*
X259082500Y-66725000D01*
G75*
G02*
X259230000Y-66872500I0J-147500D01*
G01*
X259230000Y-67167500D01*
G75*
G02*
X259082500Y-67315000I-147500J0D01*
G01*
X258737500Y-67315000D01*
G75*
G02*
X258590000Y-67167500I0J147500D01*
G01*
X258590000Y-66872500D01*
G75*
G02*
X258737500Y-66725000I147500J0D01*
G01*
G37*
G36*
G01*
X258737500Y-65755000D02*
X259082500Y-65755000D01*
G75*
G02*
X259230000Y-65902500I0J-147500D01*
G01*
X259230000Y-66197500D01*
G75*
G02*
X259082500Y-66345000I-147500J0D01*
G01*
X258737500Y-66345000D01*
G75*
G02*
X258590000Y-66197500I0J147500D01*
G01*
X258590000Y-65902500D01*
G75*
G02*
X258737500Y-65755000I147500J0D01*
G01*
G37*
D20*
X282200000Y-55740000D03*
X280800000Y-55740000D03*
X280800000Y-56840000D03*
X282200000Y-56840000D03*
G36*
G01*
X268062500Y-76505000D02*
X267717500Y-76505000D01*
G75*
G02*
X267570000Y-76357500I0J147500D01*
G01*
X267570000Y-76062500D01*
G75*
G02*
X267717500Y-75915000I147500J0D01*
G01*
X268062500Y-75915000D01*
G75*
G02*
X268210000Y-76062500I0J-147500D01*
G01*
X268210000Y-76357500D01*
G75*
G02*
X268062500Y-76505000I-147500J0D01*
G01*
G37*
G36*
G01*
X268062500Y-77475000D02*
X267717500Y-77475000D01*
G75*
G02*
X267570000Y-77327500I0J147500D01*
G01*
X267570000Y-77032500D01*
G75*
G02*
X267717500Y-76885000I147500J0D01*
G01*
X268062500Y-76885000D01*
G75*
G02*
X268210000Y-77032500I0J-147500D01*
G01*
X268210000Y-77327500D01*
G75*
G02*
X268062500Y-77475000I-147500J0D01*
G01*
G37*
G36*
G01*
X280421000Y-41659000D02*
X280076000Y-41659000D01*
G75*
G02*
X279928500Y-41511500I0J147500D01*
G01*
X279928500Y-41216500D01*
G75*
G02*
X280076000Y-41069000I147500J0D01*
G01*
X280421000Y-41069000D01*
G75*
G02*
X280568500Y-41216500I0J-147500D01*
G01*
X280568500Y-41511500D01*
G75*
G02*
X280421000Y-41659000I-147500J0D01*
G01*
G37*
G36*
G01*
X280421000Y-40689000D02*
X280076000Y-40689000D01*
G75*
G02*
X279928500Y-40541500I0J147500D01*
G01*
X279928500Y-40246500D01*
G75*
G02*
X280076000Y-40099000I147500J0D01*
G01*
X280421000Y-40099000D01*
G75*
G02*
X280568500Y-40246500I0J-147500D01*
G01*
X280568500Y-40541500D01*
G75*
G02*
X280421000Y-40689000I-147500J0D01*
G01*
G37*
G36*
G01*
X270102500Y-77460000D02*
X269757500Y-77460000D01*
G75*
G02*
X269610000Y-77312500I0J147500D01*
G01*
X269610000Y-77017500D01*
G75*
G02*
X269757500Y-76870000I147500J0D01*
G01*
X270102500Y-76870000D01*
G75*
G02*
X270250000Y-77017500I0J-147500D01*
G01*
X270250000Y-77312500D01*
G75*
G02*
X270102500Y-77460000I-147500J0D01*
G01*
G37*
G36*
G01*
X270102500Y-76490000D02*
X269757500Y-76490000D01*
G75*
G02*
X269610000Y-76342500I0J147500D01*
G01*
X269610000Y-76047500D01*
G75*
G02*
X269757500Y-75900000I147500J0D01*
G01*
X270102500Y-75900000D01*
G75*
G02*
X270250000Y-76047500I0J-147500D01*
G01*
X270250000Y-76342500D01*
G75*
G02*
X270102500Y-76490000I-147500J0D01*
G01*
G37*
G36*
G01*
X268717500Y-70500000D02*
X269062500Y-70500000D01*
G75*
G02*
X269210000Y-70647500I0J-147500D01*
G01*
X269210000Y-70942500D01*
G75*
G02*
X269062500Y-71090000I-147500J0D01*
G01*
X268717500Y-71090000D01*
G75*
G02*
X268570000Y-70942500I0J147500D01*
G01*
X268570000Y-70647500D01*
G75*
G02*
X268717500Y-70500000I147500J0D01*
G01*
G37*
G36*
G01*
X268717500Y-69530000D02*
X269062500Y-69530000D01*
G75*
G02*
X269210000Y-69677500I0J-147500D01*
G01*
X269210000Y-69972500D01*
G75*
G02*
X269062500Y-70120000I-147500J0D01*
G01*
X268717500Y-70120000D01*
G75*
G02*
X268570000Y-69972500I0J147500D01*
G01*
X268570000Y-69677500D01*
G75*
G02*
X268717500Y-69530000I147500J0D01*
G01*
G37*
G36*
G01*
X267707500Y-70510000D02*
X268052500Y-70510000D01*
G75*
G02*
X268200000Y-70657500I0J-147500D01*
G01*
X268200000Y-70952500D01*
G75*
G02*
X268052500Y-71100000I-147500J0D01*
G01*
X267707500Y-71100000D01*
G75*
G02*
X267560000Y-70952500I0J147500D01*
G01*
X267560000Y-70657500D01*
G75*
G02*
X267707500Y-70510000I147500J0D01*
G01*
G37*
G36*
G01*
X267707500Y-69540000D02*
X268052500Y-69540000D01*
G75*
G02*
X268200000Y-69687500I0J-147500D01*
G01*
X268200000Y-69982500D01*
G75*
G02*
X268052500Y-70130000I-147500J0D01*
G01*
X267707500Y-70130000D01*
G75*
G02*
X267560000Y-69982500I0J147500D01*
G01*
X267560000Y-69687500D01*
G75*
G02*
X267707500Y-69540000I147500J0D01*
G01*
G37*
G36*
G01*
X269092500Y-77470000D02*
X268747500Y-77470000D01*
G75*
G02*
X268600000Y-77322500I0J147500D01*
G01*
X268600000Y-77027500D01*
G75*
G02*
X268747500Y-76880000I147500J0D01*
G01*
X269092500Y-76880000D01*
G75*
G02*
X269240000Y-77027500I0J-147500D01*
G01*
X269240000Y-77322500D01*
G75*
G02*
X269092500Y-77470000I-147500J0D01*
G01*
G37*
G36*
G01*
X269092500Y-76500000D02*
X268747500Y-76500000D01*
G75*
G02*
X268600000Y-76352500I0J147500D01*
G01*
X268600000Y-76057500D01*
G75*
G02*
X268747500Y-75910000I147500J0D01*
G01*
X269092500Y-75910000D01*
G75*
G02*
X269240000Y-76057500I0J-147500D01*
G01*
X269240000Y-76352500D01*
G75*
G02*
X269092500Y-76500000I-147500J0D01*
G01*
G37*
G36*
G01*
X281431000Y-40689000D02*
X281086000Y-40689000D01*
G75*
G02*
X280938500Y-40541500I0J147500D01*
G01*
X280938500Y-40246500D01*
G75*
G02*
X281086000Y-40099000I147500J0D01*
G01*
X281431000Y-40099000D01*
G75*
G02*
X281578500Y-40246500I0J-147500D01*
G01*
X281578500Y-40541500D01*
G75*
G02*
X281431000Y-40689000I-147500J0D01*
G01*
G37*
G36*
G01*
X281431000Y-41659000D02*
X281086000Y-41659000D01*
G75*
G02*
X280938500Y-41511500I0J147500D01*
G01*
X280938500Y-41216500D01*
G75*
G02*
X281086000Y-41069000I147500J0D01*
G01*
X281431000Y-41069000D01*
G75*
G02*
X281578500Y-41216500I0J-147500D01*
G01*
X281578500Y-41511500D01*
G75*
G02*
X281431000Y-41659000I-147500J0D01*
G01*
G37*
G36*
G01*
X282451000Y-41664000D02*
X282106000Y-41664000D01*
G75*
G02*
X281958500Y-41516500I0J147500D01*
G01*
X281958500Y-41221500D01*
G75*
G02*
X282106000Y-41074000I147500J0D01*
G01*
X282451000Y-41074000D01*
G75*
G02*
X282598500Y-41221500I0J-147500D01*
G01*
X282598500Y-41516500D01*
G75*
G02*
X282451000Y-41664000I-147500J0D01*
G01*
G37*
G36*
G01*
X282451000Y-40694000D02*
X282106000Y-40694000D01*
G75*
G02*
X281958500Y-40546500I0J147500D01*
G01*
X281958500Y-40251500D01*
G75*
G02*
X282106000Y-40104000I147500J0D01*
G01*
X282451000Y-40104000D01*
G75*
G02*
X282598500Y-40251500I0J-147500D01*
G01*
X282598500Y-40546500D01*
G75*
G02*
X282451000Y-40694000I-147500J0D01*
G01*
G37*
G36*
G01*
X285156000Y-41069000D02*
X285501000Y-41069000D01*
G75*
G02*
X285648500Y-41216500I0J-147500D01*
G01*
X285648500Y-41511500D01*
G75*
G02*
X285501000Y-41659000I-147500J0D01*
G01*
X285156000Y-41659000D01*
G75*
G02*
X285008500Y-41511500I0J147500D01*
G01*
X285008500Y-41216500D01*
G75*
G02*
X285156000Y-41069000I147500J0D01*
G01*
G37*
G36*
G01*
X285156000Y-40099000D02*
X285501000Y-40099000D01*
G75*
G02*
X285648500Y-40246500I0J-147500D01*
G01*
X285648500Y-40541500D01*
G75*
G02*
X285501000Y-40689000I-147500J0D01*
G01*
X285156000Y-40689000D01*
G75*
G02*
X285008500Y-40541500I0J147500D01*
G01*
X285008500Y-40246500D01*
G75*
G02*
X285156000Y-40099000I147500J0D01*
G01*
G37*
G36*
G01*
X265652500Y-41635000D02*
X265307500Y-41635000D01*
G75*
G02*
X265160000Y-41487500I0J147500D01*
G01*
X265160000Y-41192500D01*
G75*
G02*
X265307500Y-41045000I147500J0D01*
G01*
X265652500Y-41045000D01*
G75*
G02*
X265800000Y-41192500I0J-147500D01*
G01*
X265800000Y-41487500D01*
G75*
G02*
X265652500Y-41635000I-147500J0D01*
G01*
G37*
G36*
G01*
X265652500Y-40665000D02*
X265307500Y-40665000D01*
G75*
G02*
X265160000Y-40517500I0J147500D01*
G01*
X265160000Y-40222500D01*
G75*
G02*
X265307500Y-40075000I147500J0D01*
G01*
X265652500Y-40075000D01*
G75*
G02*
X265800000Y-40222500I0J-147500D01*
G01*
X265800000Y-40517500D01*
G75*
G02*
X265652500Y-40665000I-147500J0D01*
G01*
G37*
G36*
G01*
X263780000Y-40197500D02*
X263780000Y-40542500D01*
G75*
G02*
X263632500Y-40690000I-147500J0D01*
G01*
X263337500Y-40690000D01*
G75*
G02*
X263190000Y-40542500I0J147500D01*
G01*
X263190000Y-40197500D01*
G75*
G02*
X263337500Y-40050000I147500J0D01*
G01*
X263632500Y-40050000D01*
G75*
G02*
X263780000Y-40197500I0J-147500D01*
G01*
G37*
G36*
G01*
X264750000Y-40197500D02*
X264750000Y-40542500D01*
G75*
G02*
X264602500Y-40690000I-147500J0D01*
G01*
X264307500Y-40690000D01*
G75*
G02*
X264160000Y-40542500I0J147500D01*
G01*
X264160000Y-40197500D01*
G75*
G02*
X264307500Y-40050000I147500J0D01*
G01*
X264602500Y-40050000D01*
G75*
G02*
X264750000Y-40197500I0J-147500D01*
G01*
G37*
D21*
X267880000Y-72220000D03*
X268380000Y-72220000D03*
X268880000Y-72220000D03*
X269380000Y-72220000D03*
X269380000Y-74620000D03*
X268880000Y-74620000D03*
X268380000Y-74620000D03*
X267880000Y-74620000D03*
D22*
G36*
X267830000Y-73520000D02*
G01*
X267830000Y-73420000D01*
X267930000Y-73320000D01*
X269430000Y-73320000D01*
X269430000Y-73520000D01*
X267830000Y-73520000D01*
G37*
G36*
G01*
X279810000Y-54710000D02*
X279470000Y-54710000D01*
G75*
G02*
X279330000Y-54570000I0J140000D01*
G01*
X279330000Y-54290000D01*
G75*
G02*
X279470000Y-54150000I140000J0D01*
G01*
X279810000Y-54150000D01*
G75*
G02*
X279950000Y-54290000I0J-140000D01*
G01*
X279950000Y-54570000D01*
G75*
G02*
X279810000Y-54710000I-140000J0D01*
G01*
G37*
G36*
G01*
X279810000Y-53750000D02*
X279470000Y-53750000D01*
G75*
G02*
X279330000Y-53610000I0J140000D01*
G01*
X279330000Y-53330000D01*
G75*
G02*
X279470000Y-53190000I140000J0D01*
G01*
X279810000Y-53190000D01*
G75*
G02*
X279950000Y-53330000I0J-140000D01*
G01*
X279950000Y-53610000D01*
G75*
G02*
X279810000Y-53750000I-140000J0D01*
G01*
G37*
G36*
G01*
X283350000Y-53750000D02*
X283010000Y-53750000D01*
G75*
G02*
X282870000Y-53610000I0J140000D01*
G01*
X282870000Y-53330000D01*
G75*
G02*
X283010000Y-53190000I140000J0D01*
G01*
X283350000Y-53190000D01*
G75*
G02*
X283490000Y-53330000I0J-140000D01*
G01*
X283490000Y-53610000D01*
G75*
G02*
X283350000Y-53750000I-140000J0D01*
G01*
G37*
G36*
G01*
X283350000Y-54710000D02*
X283010000Y-54710000D01*
G75*
G02*
X282870000Y-54570000I0J140000D01*
G01*
X282870000Y-54290000D01*
G75*
G02*
X283010000Y-54150000I140000J0D01*
G01*
X283350000Y-54150000D01*
G75*
G02*
X283490000Y-54290000I0J-140000D01*
G01*
X283490000Y-54570000D01*
G75*
G02*
X283350000Y-54710000I-140000J0D01*
G01*
G37*
D23*
X275240000Y-54180000D03*
X277140000Y-54180000D03*
X276190000Y-56180000D03*
G36*
G01*
X275510000Y-52635000D02*
X275510000Y-53005000D01*
G75*
G02*
X275375000Y-53140000I-135000J0D01*
G01*
X275105000Y-53140000D01*
G75*
G02*
X274970000Y-53005000I0J135000D01*
G01*
X274970000Y-52635000D01*
G75*
G02*
X275105000Y-52500000I135000J0D01*
G01*
X275375000Y-52500000D01*
G75*
G02*
X275510000Y-52635000I0J-135000D01*
G01*
G37*
G36*
G01*
X276530000Y-52635000D02*
X276530000Y-53005000D01*
G75*
G02*
X276395000Y-53140000I-135000J0D01*
G01*
X276125000Y-53140000D01*
G75*
G02*
X275990000Y-53005000I0J135000D01*
G01*
X275990000Y-52635000D01*
G75*
G02*
X276125000Y-52500000I135000J0D01*
G01*
X276395000Y-52500000D01*
G75*
G02*
X276530000Y-52635000I0J-135000D01*
G01*
G37*
G36*
G01*
X273696500Y-32458997D02*
X273696500Y-35359003D01*
G75*
G02*
X273446503Y-35609000I-249997J0D01*
G01*
X272821497Y-35609000D01*
G75*
G02*
X272571500Y-35359003I0J249997D01*
G01*
X272571500Y-32458997D01*
G75*
G02*
X272821497Y-32209000I249997J0D01*
G01*
X273446503Y-32209000D01*
G75*
G02*
X273696500Y-32458997I0J-249997D01*
G01*
G37*
G36*
G01*
X269421500Y-32458997D02*
X269421500Y-35359003D01*
G75*
G02*
X269171503Y-35609000I-249997J0D01*
G01*
X268546497Y-35609000D01*
G75*
G02*
X268296500Y-35359003I0J249997D01*
G01*
X268296500Y-32458997D01*
G75*
G02*
X268546497Y-32209000I249997J0D01*
G01*
X269171503Y-32209000D01*
G75*
G02*
X269421500Y-32458997I0J-249997D01*
G01*
G37*
D24*
X278300000Y-34030000D03*
X275000000Y-34030000D03*
G36*
G01*
X275721500Y-44095500D02*
X275721500Y-44296500D01*
G75*
G02*
X275642000Y-44376000I-79500J0D01*
G01*
X275483000Y-44376000D01*
G75*
G02*
X275403500Y-44296500I0J79500D01*
G01*
X275403500Y-44095500D01*
G75*
G02*
X275483000Y-44016000I79500J0D01*
G01*
X275642000Y-44016000D01*
G75*
G02*
X275721500Y-44095500I0J-79500D01*
G01*
G37*
G36*
G01*
X276411500Y-44095500D02*
X276411500Y-44296500D01*
G75*
G02*
X276332000Y-44376000I-79500J0D01*
G01*
X276173000Y-44376000D01*
G75*
G02*
X276093500Y-44296500I0J79500D01*
G01*
X276093500Y-44095500D01*
G75*
G02*
X276173000Y-44016000I79500J0D01*
G01*
X276332000Y-44016000D01*
G75*
G02*
X276411500Y-44095500I0J-79500D01*
G01*
G37*
G36*
G01*
X264954160Y-44304280D02*
X264753160Y-44304280D01*
G75*
G02*
X264673660Y-44224780I0J79500D01*
G01*
X264673660Y-44065780D01*
G75*
G02*
X264753160Y-43986280I79500J0D01*
G01*
X264954160Y-43986280D01*
G75*
G02*
X265033660Y-44065780I0J-79500D01*
G01*
X265033660Y-44224780D01*
G75*
G02*
X264954160Y-44304280I-79500J0D01*
G01*
G37*
G36*
G01*
X264954160Y-43614280D02*
X264753160Y-43614280D01*
G75*
G02*
X264673660Y-43534780I0J79500D01*
G01*
X264673660Y-43375780D01*
G75*
G02*
X264753160Y-43296280I79500J0D01*
G01*
X264954160Y-43296280D01*
G75*
G02*
X265033660Y-43375780I0J-79500D01*
G01*
X265033660Y-43534780D01*
G75*
G02*
X264954160Y-43614280I-79500J0D01*
G01*
G37*
G36*
G01*
X264991500Y-38896500D02*
X265192500Y-38896500D01*
G75*
G02*
X265272000Y-38976000I0J-79500D01*
G01*
X265272000Y-39135000D01*
G75*
G02*
X265192500Y-39214500I-79500J0D01*
G01*
X264991500Y-39214500D01*
G75*
G02*
X264912000Y-39135000I0J79500D01*
G01*
X264912000Y-38976000D01*
G75*
G02*
X264991500Y-38896500I79500J0D01*
G01*
G37*
G36*
G01*
X264991500Y-38206500D02*
X265192500Y-38206500D01*
G75*
G02*
X265272000Y-38286000I0J-79500D01*
G01*
X265272000Y-38445000D01*
G75*
G02*
X265192500Y-38524500I-79500J0D01*
G01*
X264991500Y-38524500D01*
G75*
G02*
X264912000Y-38445000I0J79500D01*
G01*
X264912000Y-38286000D01*
G75*
G02*
X264991500Y-38206500I79500J0D01*
G01*
G37*
G36*
G01*
X262664160Y-44294280D02*
X262463160Y-44294280D01*
G75*
G02*
X262383660Y-44214780I0J79500D01*
G01*
X262383660Y-44055780D01*
G75*
G02*
X262463160Y-43976280I79500J0D01*
G01*
X262664160Y-43976280D01*
G75*
G02*
X262743660Y-44055780I0J-79500D01*
G01*
X262743660Y-44214780D01*
G75*
G02*
X262664160Y-44294280I-79500J0D01*
G01*
G37*
G36*
G01*
X262664160Y-43604280D02*
X262463160Y-43604280D01*
G75*
G02*
X262383660Y-43524780I0J79500D01*
G01*
X262383660Y-43365780D01*
G75*
G02*
X262463160Y-43286280I79500J0D01*
G01*
X262664160Y-43286280D01*
G75*
G02*
X262743660Y-43365780I0J-79500D01*
G01*
X262743660Y-43524780D01*
G75*
G02*
X262664160Y-43604280I-79500J0D01*
G01*
G37*
G36*
G01*
X262705500Y-38896500D02*
X262906500Y-38896500D01*
G75*
G02*
X262986000Y-38976000I0J-79500D01*
G01*
X262986000Y-39135000D01*
G75*
G02*
X262906500Y-39214500I-79500J0D01*
G01*
X262705500Y-39214500D01*
G75*
G02*
X262626000Y-39135000I0J79500D01*
G01*
X262626000Y-38976000D01*
G75*
G02*
X262705500Y-38896500I79500J0D01*
G01*
G37*
G36*
G01*
X262705500Y-38206500D02*
X262906500Y-38206500D01*
G75*
G02*
X262986000Y-38286000I0J-79500D01*
G01*
X262986000Y-38445000D01*
G75*
G02*
X262906500Y-38524500I-79500J0D01*
G01*
X262705500Y-38524500D01*
G75*
G02*
X262626000Y-38445000I0J79500D01*
G01*
X262626000Y-38286000D01*
G75*
G02*
X262705500Y-38206500I79500J0D01*
G01*
G37*
G36*
G01*
X275458000Y-41086000D02*
X275659000Y-41086000D01*
G75*
G02*
X275738500Y-41165500I0J-79500D01*
G01*
X275738500Y-41324500D01*
G75*
G02*
X275659000Y-41404000I-79500J0D01*
G01*
X275458000Y-41404000D01*
G75*
G02*
X275378500Y-41324500I0J79500D01*
G01*
X275378500Y-41165500D01*
G75*
G02*
X275458000Y-41086000I79500J0D01*
G01*
G37*
G36*
G01*
X275458000Y-41776000D02*
X275659000Y-41776000D01*
G75*
G02*
X275738500Y-41855500I0J-79500D01*
G01*
X275738500Y-42014500D01*
G75*
G02*
X275659000Y-42094000I-79500J0D01*
G01*
X275458000Y-42094000D01*
G75*
G02*
X275378500Y-42014500I0J79500D01*
G01*
X275378500Y-41855500D01*
G75*
G02*
X275458000Y-41776000I79500J0D01*
G01*
G37*
G36*
G01*
X265835160Y-43317280D02*
X265835160Y-43518280D01*
G75*
G02*
X265755660Y-43597780I-79500J0D01*
G01*
X265596660Y-43597780D01*
G75*
G02*
X265517160Y-43518280I0J79500D01*
G01*
X265517160Y-43317280D01*
G75*
G02*
X265596660Y-43237780I79500J0D01*
G01*
X265755660Y-43237780D01*
G75*
G02*
X265835160Y-43317280I0J-79500D01*
G01*
G37*
G36*
G01*
X266525160Y-43317280D02*
X266525160Y-43518280D01*
G75*
G02*
X266445660Y-43597780I-79500J0D01*
G01*
X266286660Y-43597780D01*
G75*
G02*
X266207160Y-43518280I0J79500D01*
G01*
X266207160Y-43317280D01*
G75*
G02*
X266286660Y-43237780I79500J0D01*
G01*
X266445660Y-43237780D01*
G75*
G02*
X266525160Y-43317280I0J-79500D01*
G01*
G37*
G36*
G01*
X266744000Y-38249500D02*
X266744000Y-38450500D01*
G75*
G02*
X266664500Y-38530000I-79500J0D01*
G01*
X266505500Y-38530000D01*
G75*
G02*
X266426000Y-38450500I0J79500D01*
G01*
X266426000Y-38249500D01*
G75*
G02*
X266505500Y-38170000I79500J0D01*
G01*
X266664500Y-38170000D01*
G75*
G02*
X266744000Y-38249500I0J-79500D01*
G01*
G37*
G36*
G01*
X266054000Y-38249500D02*
X266054000Y-38450500D01*
G75*
G02*
X265974500Y-38530000I-79500J0D01*
G01*
X265815500Y-38530000D01*
G75*
G02*
X265736000Y-38450500I0J79500D01*
G01*
X265736000Y-38249500D01*
G75*
G02*
X265815500Y-38170000I79500J0D01*
G01*
X265974500Y-38170000D01*
G75*
G02*
X266054000Y-38249500I0J-79500D01*
G01*
G37*
G36*
G01*
X267292840Y-44267860D02*
X267091840Y-44267860D01*
G75*
G02*
X267012340Y-44188360I0J79500D01*
G01*
X267012340Y-44029360D01*
G75*
G02*
X267091840Y-43949860I79500J0D01*
G01*
X267292840Y-43949860D01*
G75*
G02*
X267372340Y-44029360I0J-79500D01*
G01*
X267372340Y-44188360D01*
G75*
G02*
X267292840Y-44267860I-79500J0D01*
G01*
G37*
G36*
G01*
X267292840Y-43577860D02*
X267091840Y-43577860D01*
G75*
G02*
X267012340Y-43498360I0J79500D01*
G01*
X267012340Y-43339360D01*
G75*
G02*
X267091840Y-43259860I79500J0D01*
G01*
X267292840Y-43259860D01*
G75*
G02*
X267372340Y-43339360I0J-79500D01*
G01*
X267372340Y-43498360D01*
G75*
G02*
X267292840Y-43577860I-79500J0D01*
G01*
G37*
G36*
G01*
X275612500Y-40353500D02*
X275612500Y-40554500D01*
G75*
G02*
X275533000Y-40634000I-79500J0D01*
G01*
X275374000Y-40634000D01*
G75*
G02*
X275294500Y-40554500I0J79500D01*
G01*
X275294500Y-40353500D01*
G75*
G02*
X275374000Y-40274000I79500J0D01*
G01*
X275533000Y-40274000D01*
G75*
G02*
X275612500Y-40353500I0J-79500D01*
G01*
G37*
G36*
G01*
X274922500Y-40353500D02*
X274922500Y-40554500D01*
G75*
G02*
X274843000Y-40634000I-79500J0D01*
G01*
X274684000Y-40634000D01*
G75*
G02*
X274604500Y-40554500I0J79500D01*
G01*
X274604500Y-40353500D01*
G75*
G02*
X274684000Y-40274000I79500J0D01*
G01*
X274843000Y-40274000D01*
G75*
G02*
X274922500Y-40353500I0J-79500D01*
G01*
G37*
G36*
G01*
X273979500Y-45496000D02*
X274180500Y-45496000D01*
G75*
G02*
X274260000Y-45575500I0J-79500D01*
G01*
X274260000Y-45734500D01*
G75*
G02*
X274180500Y-45814000I-79500J0D01*
G01*
X273979500Y-45814000D01*
G75*
G02*
X273900000Y-45734500I0J79500D01*
G01*
X273900000Y-45575500D01*
G75*
G02*
X273979500Y-45496000I79500J0D01*
G01*
G37*
G36*
G01*
X273979500Y-44806000D02*
X274180500Y-44806000D01*
G75*
G02*
X274260000Y-44885500I0J-79500D01*
G01*
X274260000Y-45044500D01*
G75*
G02*
X274180500Y-45124000I-79500J0D01*
G01*
X273979500Y-45124000D01*
G75*
G02*
X273900000Y-45044500I0J79500D01*
G01*
X273900000Y-44885500D01*
G75*
G02*
X273979500Y-44806000I79500J0D01*
G01*
G37*
G36*
G01*
X275690500Y-39813000D02*
X275489500Y-39813000D01*
G75*
G02*
X275410000Y-39733500I0J79500D01*
G01*
X275410000Y-39574500D01*
G75*
G02*
X275489500Y-39495000I79500J0D01*
G01*
X275690500Y-39495000D01*
G75*
G02*
X275770000Y-39574500I0J-79500D01*
G01*
X275770000Y-39733500D01*
G75*
G02*
X275690500Y-39813000I-79500J0D01*
G01*
G37*
G36*
G01*
X275690500Y-39123000D02*
X275489500Y-39123000D01*
G75*
G02*
X275410000Y-39043500I0J79500D01*
G01*
X275410000Y-38884500D01*
G75*
G02*
X275489500Y-38805000I79500J0D01*
G01*
X275690500Y-38805000D01*
G75*
G02*
X275770000Y-38884500I0J-79500D01*
G01*
X275770000Y-39043500D01*
G75*
G02*
X275690500Y-39123000I-79500J0D01*
G01*
G37*
G36*
G01*
X273306000Y-48520500D02*
X273306000Y-48319500D01*
G75*
G02*
X273385500Y-48240000I79500J0D01*
G01*
X273544500Y-48240000D01*
G75*
G02*
X273624000Y-48319500I0J-79500D01*
G01*
X273624000Y-48520500D01*
G75*
G02*
X273544500Y-48600000I-79500J0D01*
G01*
X273385500Y-48600000D01*
G75*
G02*
X273306000Y-48520500I0J79500D01*
G01*
G37*
G36*
G01*
X273996000Y-48520500D02*
X273996000Y-48319500D01*
G75*
G02*
X274075500Y-48240000I79500J0D01*
G01*
X274234500Y-48240000D01*
G75*
G02*
X274314000Y-48319500I0J-79500D01*
G01*
X274314000Y-48520500D01*
G75*
G02*
X274234500Y-48600000I-79500J0D01*
G01*
X274075500Y-48600000D01*
G75*
G02*
X273996000Y-48520500I0J79500D01*
G01*
G37*
G36*
G01*
X273199500Y-44726000D02*
X273400500Y-44726000D01*
G75*
G02*
X273480000Y-44805500I0J-79500D01*
G01*
X273480000Y-44964500D01*
G75*
G02*
X273400500Y-45044000I-79500J0D01*
G01*
X273199500Y-45044000D01*
G75*
G02*
X273120000Y-44964500I0J79500D01*
G01*
X273120000Y-44805500D01*
G75*
G02*
X273199500Y-44726000I79500J0D01*
G01*
G37*
G36*
G01*
X273199500Y-44036000D02*
X273400500Y-44036000D01*
G75*
G02*
X273480000Y-44115500I0J-79500D01*
G01*
X273480000Y-44274500D01*
G75*
G02*
X273400500Y-44354000I-79500J0D01*
G01*
X273199500Y-44354000D01*
G75*
G02*
X273120000Y-44274500I0J79500D01*
G01*
X273120000Y-44115500D01*
G75*
G02*
X273199500Y-44036000I79500J0D01*
G01*
G37*
G36*
G01*
X273908000Y-41770000D02*
X274109000Y-41770000D01*
G75*
G02*
X274188500Y-41849500I0J-79500D01*
G01*
X274188500Y-42008500D01*
G75*
G02*
X274109000Y-42088000I-79500J0D01*
G01*
X273908000Y-42088000D01*
G75*
G02*
X273828500Y-42008500I0J79500D01*
G01*
X273828500Y-41849500D01*
G75*
G02*
X273908000Y-41770000I79500J0D01*
G01*
G37*
G36*
G01*
X273908000Y-41080000D02*
X274109000Y-41080000D01*
G75*
G02*
X274188500Y-41159500I0J-79500D01*
G01*
X274188500Y-41318500D01*
G75*
G02*
X274109000Y-41398000I-79500J0D01*
G01*
X273908000Y-41398000D01*
G75*
G02*
X273828500Y-41318500I0J79500D01*
G01*
X273828500Y-41159500D01*
G75*
G02*
X273908000Y-41080000I79500J0D01*
G01*
G37*
G36*
G01*
X263201160Y-43548280D02*
X263201160Y-43347280D01*
G75*
G02*
X263280660Y-43267780I79500J0D01*
G01*
X263439660Y-43267780D01*
G75*
G02*
X263519160Y-43347280I0J-79500D01*
G01*
X263519160Y-43548280D01*
G75*
G02*
X263439660Y-43627780I-79500J0D01*
G01*
X263280660Y-43627780D01*
G75*
G02*
X263201160Y-43548280I0J79500D01*
G01*
G37*
G36*
G01*
X263891160Y-43548280D02*
X263891160Y-43347280D01*
G75*
G02*
X263970660Y-43267780I79500J0D01*
G01*
X264129660Y-43267780D01*
G75*
G02*
X264209160Y-43347280I0J-79500D01*
G01*
X264209160Y-43548280D01*
G75*
G02*
X264129660Y-43627780I-79500J0D01*
G01*
X263970660Y-43627780D01*
G75*
G02*
X263891160Y-43548280I0J79500D01*
G01*
G37*
G36*
G01*
X264141000Y-38450500D02*
X264141000Y-38249500D01*
G75*
G02*
X264220500Y-38170000I79500J0D01*
G01*
X264379500Y-38170000D01*
G75*
G02*
X264459000Y-38249500I0J-79500D01*
G01*
X264459000Y-38450500D01*
G75*
G02*
X264379500Y-38530000I-79500J0D01*
G01*
X264220500Y-38530000D01*
G75*
G02*
X264141000Y-38450500I0J79500D01*
G01*
G37*
G36*
G01*
X263451000Y-38450500D02*
X263451000Y-38249500D01*
G75*
G02*
X263530500Y-38170000I79500J0D01*
G01*
X263689500Y-38170000D01*
G75*
G02*
X263769000Y-38249500I0J-79500D01*
G01*
X263769000Y-38450500D01*
G75*
G02*
X263689500Y-38530000I-79500J0D01*
G01*
X263530500Y-38530000D01*
G75*
G02*
X263451000Y-38450500I0J79500D01*
G01*
G37*
G36*
G01*
X275032500Y-44853500D02*
X275032500Y-45054500D01*
G75*
G02*
X274953000Y-45134000I-79500J0D01*
G01*
X274794000Y-45134000D01*
G75*
G02*
X274714500Y-45054500I0J79500D01*
G01*
X274714500Y-44853500D01*
G75*
G02*
X274794000Y-44774000I79500J0D01*
G01*
X274953000Y-44774000D01*
G75*
G02*
X275032500Y-44853500I0J-79500D01*
G01*
G37*
G36*
G01*
X275722500Y-44853500D02*
X275722500Y-45054500D01*
G75*
G02*
X275643000Y-45134000I-79500J0D01*
G01*
X275484000Y-45134000D01*
G75*
G02*
X275404500Y-45054500I0J79500D01*
G01*
X275404500Y-44853500D01*
G75*
G02*
X275484000Y-44774000I79500J0D01*
G01*
X275643000Y-44774000D01*
G75*
G02*
X275722500Y-44853500I0J-79500D01*
G01*
G37*
G36*
G01*
X276279500Y-39636000D02*
X276480500Y-39636000D01*
G75*
G02*
X276560000Y-39715500I0J-79500D01*
G01*
X276560000Y-39874500D01*
G75*
G02*
X276480500Y-39954000I-79500J0D01*
G01*
X276279500Y-39954000D01*
G75*
G02*
X276200000Y-39874500I0J79500D01*
G01*
X276200000Y-39715500D01*
G75*
G02*
X276279500Y-39636000I79500J0D01*
G01*
G37*
G36*
G01*
X276279500Y-40326000D02*
X276480500Y-40326000D01*
G75*
G02*
X276560000Y-40405500I0J-79500D01*
G01*
X276560000Y-40564500D01*
G75*
G02*
X276480500Y-40644000I-79500J0D01*
G01*
X276279500Y-40644000D01*
G75*
G02*
X276200000Y-40564500I0J79500D01*
G01*
X276200000Y-40405500D01*
G75*
G02*
X276279500Y-40326000I79500J0D01*
G01*
G37*
G36*
G01*
X276061500Y-45561468D02*
X276203628Y-45419340D01*
G75*
G02*
X276316058Y-45419340I56215J-56215D01*
G01*
X276428488Y-45531770D01*
G75*
G02*
X276428488Y-45644200I-56215J-56215D01*
G01*
X276286360Y-45786328D01*
G75*
G02*
X276173930Y-45786328I-56215J56215D01*
G01*
X276061500Y-45673898D01*
G75*
G02*
X276061500Y-45561468I56215J56215D01*
G01*
G37*
G36*
G01*
X276549404Y-46049372D02*
X276691532Y-45907244D01*
G75*
G02*
X276803962Y-45907244I56215J-56215D01*
G01*
X276916392Y-46019674D01*
G75*
G02*
X276916392Y-46132104I-56215J-56215D01*
G01*
X276774264Y-46274232D01*
G75*
G02*
X276661834Y-46274232I-56215J56215D01*
G01*
X276549404Y-46161802D01*
G75*
G02*
X276549404Y-46049372I56215J56215D01*
G01*
G37*
G36*
G01*
X275458000Y-43250000D02*
X275659000Y-43250000D01*
G75*
G02*
X275738500Y-43329500I0J-79500D01*
G01*
X275738500Y-43488500D01*
G75*
G02*
X275659000Y-43568000I-79500J0D01*
G01*
X275458000Y-43568000D01*
G75*
G02*
X275378500Y-43488500I0J79500D01*
G01*
X275378500Y-43329500D01*
G75*
G02*
X275458000Y-43250000I79500J0D01*
G01*
G37*
G36*
G01*
X275458000Y-42560000D02*
X275659000Y-42560000D01*
G75*
G02*
X275738500Y-42639500I0J-79500D01*
G01*
X275738500Y-42798500D01*
G75*
G02*
X275659000Y-42878000I-79500J0D01*
G01*
X275458000Y-42878000D01*
G75*
G02*
X275378500Y-42798500I0J79500D01*
G01*
X275378500Y-42639500D01*
G75*
G02*
X275458000Y-42560000I79500J0D01*
G01*
G37*
G36*
G01*
X274688000Y-41080000D02*
X274889000Y-41080000D01*
G75*
G02*
X274968500Y-41159500I0J-79500D01*
G01*
X274968500Y-41318500D01*
G75*
G02*
X274889000Y-41398000I-79500J0D01*
G01*
X274688000Y-41398000D01*
G75*
G02*
X274608500Y-41318500I0J79500D01*
G01*
X274608500Y-41159500D01*
G75*
G02*
X274688000Y-41080000I79500J0D01*
G01*
G37*
G36*
G01*
X274688000Y-41770000D02*
X274889000Y-41770000D01*
G75*
G02*
X274968500Y-41849500I0J-79500D01*
G01*
X274968500Y-42008500D01*
G75*
G02*
X274889000Y-42088000I-79500J0D01*
G01*
X274688000Y-42088000D01*
G75*
G02*
X274608500Y-42008500I0J79500D01*
G01*
X274608500Y-41849500D01*
G75*
G02*
X274688000Y-41770000I79500J0D01*
G01*
G37*
G36*
G01*
X265590700Y-43266600D02*
X265791700Y-43266600D01*
G75*
G02*
X265871200Y-43346100I0J-79500D01*
G01*
X265871200Y-43505100D01*
G75*
G02*
X265791700Y-43584600I-79500J0D01*
G01*
X265590700Y-43584600D01*
G75*
G02*
X265511200Y-43505100I0J79500D01*
G01*
X265511200Y-43346100D01*
G75*
G02*
X265590700Y-43266600I79500J0D01*
G01*
G37*
G36*
G01*
X265590700Y-42576600D02*
X265791700Y-42576600D01*
G75*
G02*
X265871200Y-42656100I0J-79500D01*
G01*
X265871200Y-42815100D01*
G75*
G02*
X265791700Y-42894600I-79500J0D01*
G01*
X265590700Y-42894600D01*
G75*
G02*
X265511200Y-42815100I0J79500D01*
G01*
X265511200Y-42656100D01*
G75*
G02*
X265590700Y-42576600I79500J0D01*
G01*
G37*
G36*
G01*
X274688000Y-38810000D02*
X274889000Y-38810000D01*
G75*
G02*
X274968500Y-38889500I0J-79500D01*
G01*
X274968500Y-39048500D01*
G75*
G02*
X274889000Y-39128000I-79500J0D01*
G01*
X274688000Y-39128000D01*
G75*
G02*
X274608500Y-39048500I0J79500D01*
G01*
X274608500Y-38889500D01*
G75*
G02*
X274688000Y-38810000I79500J0D01*
G01*
G37*
G36*
G01*
X274688000Y-39500000D02*
X274889000Y-39500000D01*
G75*
G02*
X274968500Y-39579500I0J-79500D01*
G01*
X274968500Y-39738500D01*
G75*
G02*
X274889000Y-39818000I-79500J0D01*
G01*
X274688000Y-39818000D01*
G75*
G02*
X274608500Y-39738500I0J79500D01*
G01*
X274608500Y-39579500D01*
G75*
G02*
X274688000Y-39500000I79500J0D01*
G01*
G37*
D25*
X268700001Y-38385300D03*
X269100000Y-38385300D03*
X269500000Y-38385300D03*
X269899999Y-38385300D03*
X269899999Y-39934700D03*
X269500000Y-39934700D03*
X269100000Y-39934700D03*
X268700001Y-39934700D03*
D26*
X269300000Y-39160000D03*
G36*
G01*
X274170500Y-47104000D02*
X273969500Y-47104000D01*
G75*
G02*
X273890000Y-47024500I0J79500D01*
G01*
X273890000Y-46865500D01*
G75*
G02*
X273969500Y-46786000I79500J0D01*
G01*
X274170500Y-46786000D01*
G75*
G02*
X274250000Y-46865500I0J-79500D01*
G01*
X274250000Y-47024500D01*
G75*
G02*
X274170500Y-47104000I-79500J0D01*
G01*
G37*
G36*
G01*
X274170500Y-47794000D02*
X273969500Y-47794000D01*
G75*
G02*
X273890000Y-47714500I0J79500D01*
G01*
X273890000Y-47555500D01*
G75*
G02*
X273969500Y-47476000I79500J0D01*
G01*
X274170500Y-47476000D01*
G75*
G02*
X274250000Y-47555500I0J-79500D01*
G01*
X274250000Y-47714500D01*
G75*
G02*
X274170500Y-47794000I-79500J0D01*
G01*
G37*
G36*
G01*
X274880500Y-43564000D02*
X274679500Y-43564000D01*
G75*
G02*
X274600000Y-43484500I0J79500D01*
G01*
X274600000Y-43325500D01*
G75*
G02*
X274679500Y-43246000I79500J0D01*
G01*
X274880500Y-43246000D01*
G75*
G02*
X274960000Y-43325500I0J-79500D01*
G01*
X274960000Y-43484500D01*
G75*
G02*
X274880500Y-43564000I-79500J0D01*
G01*
G37*
G36*
G01*
X274880500Y-42874000D02*
X274679500Y-42874000D01*
G75*
G02*
X274600000Y-42794500I0J79500D01*
G01*
X274600000Y-42635500D01*
G75*
G02*
X274679500Y-42556000I79500J0D01*
G01*
X274880500Y-42556000D01*
G75*
G02*
X274960000Y-42635500I0J-79500D01*
G01*
X274960000Y-42794500D01*
G75*
G02*
X274880500Y-42874000I-79500J0D01*
G01*
G37*
G36*
G01*
X280470000Y-53190000D02*
X280810000Y-53190000D01*
G75*
G02*
X280950000Y-53330000I0J-140000D01*
G01*
X280950000Y-53610000D01*
G75*
G02*
X280810000Y-53750000I-140000J0D01*
G01*
X280470000Y-53750000D01*
G75*
G02*
X280330000Y-53610000I0J140000D01*
G01*
X280330000Y-53330000D01*
G75*
G02*
X280470000Y-53190000I140000J0D01*
G01*
G37*
G36*
G01*
X280470000Y-54150000D02*
X280810000Y-54150000D01*
G75*
G02*
X280950000Y-54290000I0J-140000D01*
G01*
X280950000Y-54570000D01*
G75*
G02*
X280810000Y-54710000I-140000J0D01*
G01*
X280470000Y-54710000D01*
G75*
G02*
X280330000Y-54570000I0J140000D01*
G01*
X280330000Y-54290000D01*
G75*
G02*
X280470000Y-54150000I140000J0D01*
G01*
G37*
G36*
G01*
X273063780Y-38454120D02*
X273063780Y-38253120D01*
G75*
G02*
X273143280Y-38173620I79500J0D01*
G01*
X273302280Y-38173620D01*
G75*
G02*
X273381780Y-38253120I0J-79500D01*
G01*
X273381780Y-38454120D01*
G75*
G02*
X273302280Y-38533620I-79500J0D01*
G01*
X273143280Y-38533620D01*
G75*
G02*
X273063780Y-38454120I0J79500D01*
G01*
G37*
G36*
G01*
X273753780Y-38454120D02*
X273753780Y-38253120D01*
G75*
G02*
X273833280Y-38173620I79500J0D01*
G01*
X273992280Y-38173620D01*
G75*
G02*
X274071780Y-38253120I0J-79500D01*
G01*
X274071780Y-38454120D01*
G75*
G02*
X273992280Y-38533620I-79500J0D01*
G01*
X273833280Y-38533620D01*
G75*
G02*
X273753780Y-38454120I0J79500D01*
G01*
G37*
G36*
G01*
X276010458Y-46592586D02*
X276152586Y-46450458D01*
G75*
G02*
X276265016Y-46450458I56215J-56215D01*
G01*
X276377446Y-46562888D01*
G75*
G02*
X276377446Y-46675318I-56215J-56215D01*
G01*
X276235318Y-46817446D01*
G75*
G02*
X276122888Y-46817446I-56215J56215D01*
G01*
X276010458Y-46705016D01*
G75*
G02*
X276010458Y-46592586I56215J56215D01*
G01*
G37*
G36*
G01*
X275522554Y-46104682D02*
X275664682Y-45962554D01*
G75*
G02*
X275777112Y-45962554I56215J-56215D01*
G01*
X275889542Y-46074984D01*
G75*
G02*
X275889542Y-46187414I-56215J-56215D01*
G01*
X275747414Y-46329542D01*
G75*
G02*
X275634984Y-46329542I-56215J56215D01*
G01*
X275522554Y-46217112D01*
G75*
G02*
X275522554Y-46104682I56215J56215D01*
G01*
G37*
G36*
G01*
X274934000Y-44089500D02*
X274934000Y-44290500D01*
G75*
G02*
X274854500Y-44370000I-79500J0D01*
G01*
X274695500Y-44370000D01*
G75*
G02*
X274616000Y-44290500I0J79500D01*
G01*
X274616000Y-44089500D01*
G75*
G02*
X274695500Y-44010000I79500J0D01*
G01*
X274854500Y-44010000D01*
G75*
G02*
X274934000Y-44089500I0J-79500D01*
G01*
G37*
G36*
G01*
X274244000Y-44089500D02*
X274244000Y-44290500D01*
G75*
G02*
X274164500Y-44370000I-79500J0D01*
G01*
X274005500Y-44370000D01*
G75*
G02*
X273926000Y-44290500I0J79500D01*
G01*
X273926000Y-44089500D01*
G75*
G02*
X274005500Y-44010000I79500J0D01*
G01*
X274164500Y-44010000D01*
G75*
G02*
X274244000Y-44089500I0J-79500D01*
G01*
G37*
D27*
X261270000Y-48000000D03*
D28*
X288770000Y-44190000D03*
D29*
X267270000Y-51940000D03*
X267400000Y-36440000D03*
X282770000Y-36440000D03*
M02*
