M48
; DRILL file {KiCad (5.1.10)-1} date 09/23/21 13:55:09
; FORMAT={-:-/ absolute / inch / decimal}
; #@! TF.CreationDate,2021-09-23T13:55:09+08:00
; #@! TF.GenerationSoftware,Kicad,Pcbnew,(5.1.10)-1
; #@! TF.FileFunction,Plated,1,4,PTH
FMAT,2
INCH
T1C0.0079
T2C0.0098
T3C0.0157
T4C0.0236
T5C0.0866
%
G90
G05
T1
X11.3969Y-1.452
X11.4283Y-1.452
T2
X10.1073Y-2.4604
X10.115Y-1.67
X10.1185Y-2.69
X10.1185Y-1.6224
X10.12Y-2.035
X10.1217Y-3.0032
X10.1291Y-1.4039
X10.1307Y-2.3276
X10.17Y-2.035
X10.185Y-1.66
X10.1862Y-1.3941
X10.1862Y-1.6189
X10.1937Y-2.2724
X10.1972Y-3.0559
X10.2Y-1.07
X10.2094Y-2.4287
X10.2161Y-2.6004
X10.22Y-2.035
X10.2307Y-2.2724
X10.2339Y-2.523
X10.25Y-1.615
X10.25Y-1.66
X10.25Y-2.215
X10.2531Y-2.5071
X10.2559Y-1.4004
X10.2602Y-1.9563
X10.265Y-1.76
X10.265Y-1.825
X10.2654Y-1.9055
X10.2673Y-1.4597
X10.2709Y-2.3909
X10.2723Y-1.5597
X10.2874Y-2.3028
X10.295Y-2.195
X10.2957Y-1.7362
X10.3Y-1.685
X10.3047Y-1.4787
X10.31Y-1.615
X10.3118Y-1.8165
X10.3121Y-2.3032
X10.3123Y-1.5397
X10.3126Y-1.9846
X10.3169Y-1.5811
X10.33Y-3.04
X10.335Y-1.77
X10.3398Y-1.8701
X10.3402Y-1.3953
X10.3441Y-1.9157
X10.3441Y-2.0744
X10.345Y-1.68
X10.3472Y-2.2185
X10.3575Y-1.478
X10.36Y-1.82
X10.3622Y-1.9878
X10.3744Y-1.5417
X10.375Y-1.745
X10.3791Y-1.6295
X10.3894Y-1.7811
X10.3921Y-2.5075
X10.3945Y-1.9193
X10.402Y-2.188
X10.4047Y-1.8701
X10.413Y-1.3685
X10.415Y-1.48
X10.4157Y-2.4083
X10.4169Y-1.5429
X10.4185Y-1.8236
X10.4193Y-2.211
X10.4233Y-1.6697
X10.4245Y-2.9096
X10.4248Y-1.7701
X10.4256Y-3.1287
X10.4299Y-1.9862
X10.4516Y-2.8575
X10.4563Y-2.5646
X10.471Y-1.3706
X10.472Y-1.5457
X10.4728Y-2.665
X10.474Y-2.6197
X10.4752Y-1.9906
X10.4806Y-1.6275
X10.4819Y-1.5894
X10.4831Y-1.7472
X10.4852Y-2.1728
X10.4866Y-1.8102
X10.4878Y-2.2706
X10.489Y-2.765
X10.489Y-1.8669
X10.489Y-2.2433
X10.489Y-2.8067
X10.4923Y-2.1047
X10.4969Y-1.4764
X10.5023Y-1.5597
X10.5094Y-2.9458
X10.5094Y-2.4004
X10.5123Y-1.6747
X10.5134Y-2.3469
X10.5138Y-2.8453
X10.52Y-1.035
X10.52Y-3.08
X10.5205Y-2.5004
X10.5228Y-2.8846
X10.5273Y-1.6147
X10.5291Y-1.765
X10.5307Y-1.8
X10.5327Y-1.8437
X10.5335Y-1.9
X10.5343Y-1.5367
X10.5449Y-1.478
X10.545Y-2.01
X10.5453Y-1.9594
X10.5465Y-2.7272
X10.5524Y-1.3941
X10.5524Y-3.1614
X10.5571Y-2.1374
X10.5573Y-1.6747
X10.5573Y-2.0797
X10.5602Y-2.2528
X10.561Y-2.6843
X10.5661Y-2.8173
X10.5704Y-2.3824
X10.5707Y-2.3425
X10.574Y-2.1204
X10.585Y-2.3626
X10.5858Y-2.2528
X10.5888Y-1.5417
X10.595Y-1.67
X10.595Y-1.72
X10.595Y-1.77
X10.595Y-1.82
X10.595Y-1.865
X10.595Y-1.91
X10.5966Y-1.6285
X10.5976Y-2.8744
X10.6055Y-2.8154
X10.6081Y-1.6067
X10.6083Y-2.2949
X10.6096Y-1.2492
X10.6102Y-1.4783
X10.611Y-2.1575
X10.611Y-2.2531
X10.6122Y-1.5413
X10.6209Y-2.7146
X10.6213Y-1.9921
X10.63Y-2.93
X10.6386Y-1.928
X10.6466Y-2.2515
X10.6476Y-1.365
X10.6492Y-3.1358
X10.65Y-2.95
X10.6514Y-1.2544
X10.6523Y-1.5547
X10.6535Y-1.724
X10.6535Y-1.7744
X10.6539Y-1.6209
X10.6543Y-1.8177
X10.6543Y-1.6752
X10.67Y-2.35
X10.6724Y-2.4154
X10.674Y-2.7594
X10.68Y-2.51
X10.6835Y-2.474
X10.6924Y-1.2264
X10.705Y-1.395
X10.7051Y-1.3744
X10.7075Y-1.7602
X10.7083Y-1.7028
X10.7083Y-1.813
X10.7094Y-1.5984
X10.7094Y-1.9945
X10.71Y-2.35
X10.7102Y-1.8693
X10.7109Y-1.1459
X10.7114Y-1.6429
X10.7126Y-1.5394
X10.7126Y-2.6817
X10.7134Y-1.4819
X10.7161Y-1.9335
X10.72Y-2.5
X10.725Y-1.01
X10.7386Y-2.622
X10.7484Y-2.35
X10.7551Y-1.9941
X10.7567Y-1.4819
X10.7579Y-1.2268
X10.7583Y-2.6398
X10.76Y-2.51
X10.7606Y-2.1504
X10.761Y-2.0626
X10.7618Y-1.7969
X10.7622Y-2.0984
X10.7638Y-1.8563
X10.7756Y-1.689
X10.7761Y-2.2731
X10.778Y-2.6042
X10.7803Y-1.5839
X10.7824Y-2.6576
X10.787Y-2.7236
X10.7874Y-1.8272
X10.79Y-2.39
X10.7917Y-1.7217
X10.7972Y-1.2268
X10.7972Y-2.3465
X10.8Y-2.51
X10.8Y-2.2468
X10.8031Y-2.4327
X10.81Y-2.47
X10.8126Y-2.0161
X10.8149Y-1.9358
X10.815Y-1.8425
X10.8157Y-1.8181
X10.8162Y-1.88
X10.8185Y-1.9953
X10.8209Y-2.3906
X10.8268Y-1.3839
X10.8357Y-1.4759
X10.845Y-1.015
X10.8567Y-2.0295
X10.8575Y-1.5024
X10.863Y-1.6106
X10.8634Y-1.1459
X10.8645Y-2.1257
X10.8705Y-2.1496
X10.875Y-2.25
X10.8811Y-1.5469
X10.8817Y-1.2287
X10.887Y-1.3618
X10.8878Y-2.1079
X10.8906Y-1.6284
X10.8937Y-2.7476
X10.894Y-1.5033
X10.8955Y-2.283
X10.898Y-3.1346
X10.906Y-1.7202
X10.9091Y-2.6527
X10.9114Y-2.4807
X10.9115Y-2.4424
X10.9116Y-2.3842
X10.9134Y-1.5465
X10.9161Y-2.2652
X10.9164Y-2.3196
X10.9169Y-1.4744
X10.923Y-1.268
X10.9239Y-2.5233
X10.9278Y-2.3656
X10.9288Y-2.3409
X10.9289Y-2.4249
X10.9303Y-2.976
X10.9354Y-1.69
X10.9365Y-2.6803
X10.9374Y-2.7913
X10.9429Y-2.2406
X10.9436Y-2.9331
X10.9462Y-1.7256
X10.95Y-2.535
X10.9535Y-1.7962
X10.9535Y-1.821
X10.9579Y-1.7474
X10.9585Y-1.7721
X10.959Y-1.8458
X10.9603Y-2.0047
X10.9614Y-2.9571
X10.974Y-2.6661
X10.9792Y-2.9153
X10.9803Y-2.2193
X10.9815Y-2.7454
X10.9861Y-2.9565
X10.9874Y-2.1286
X10.9902Y-2.1587
X10.9938Y-2.6125
X11.0008Y-1.389
X11.0031Y-2.2201
X11.0063Y-1.6618
X11.0074Y-2.0799
X11.0292Y-2.3198
X11.0323Y-2.5453
X11.0325Y-2.41
X11.0329Y-2.2906
X11.0338Y-1.661
X11.0358Y-2.4757
X11.039Y-2.6417
X11.0398Y-1.3862
X11.0503Y-2.3499
X11.0591Y-2.4469
X11.06Y-1.175
X11.07Y-1.035
X11.074Y-1.262
X11.0748Y-1.3268
X11.0748Y-3.126
X11.075Y-2.3499
X11.076Y-2.7346
X11.0795Y-2.2841
X11.0806Y-1.5478
X11.0811Y-1.4733
X11.0817Y-2.6443
X11.0878Y-2.8461
X11.0884Y-1.5713
X11.0894Y-1.8079
X11.0894Y-1.9138
X11.0917Y-1.7764
X11.0937Y-1.861
X11.094Y-1.5271
X11.0984Y-1.3071
X11.0996Y-1.4897
X11.1019Y-1.8348
X11.1035Y-2.7753
X11.1039Y-1.8927
X11.1077Y-2.5587
X11.109Y-1.9317
X11.1102Y-2.9055
X11.1106Y-2.0669
X11.1123Y-2.0367
X11.1134Y-2.8673
X11.1163Y-1.5163
X11.1244Y-1.8154
X11.1275Y-1.77
X11.1275Y-1.8588
X11.1291Y-2.1296
X11.1329Y-2.7057
X11.1346Y-1.8898
X11.1484Y-1.7941
X11.1555Y-1.8498
X11.1555Y-2.2358
X11.1563Y-2.6924
X11.1626Y-1.398
X11.163Y-2.0319
X11.1657Y-1.8205
X11.1657Y-1.8969
X11.1665Y-2.0584
X11.1689Y-2.1296
X11.1708Y-1.7706
X11.1717Y-3.1039
X11.1732Y-2.592
X11.185Y-1.463
X11.195Y-1.6728
X11.1952Y-1.5155
X11.1992Y-2.722
X11.2008Y-1.7709
X11.2085Y-2.7995
X11.2102Y-1.6533
X11.2242Y-2.5987
X11.2267Y-2.4543
X11.2311Y-1.4929
X11.2322Y-1.6643
X11.2665Y-1.7037
X11.2685Y-1.4894
X11.2688Y-1.7283
X11.2732Y-2.3323
X11.2732Y-2.4902
X11.2841Y-2.4193
X11.2846Y-1.6624
X11.2906Y-1.489
X11.2909Y-1.707
X11.2929Y-1.6051
X11.2935Y-1.5626
X11.2976Y-3.1039
X11.2995Y-1.7679
X11.3024Y-1.8073
X11.3027Y-1.8466
X11.3031Y-1.886
X11.314Y-1.9085
X11.3157Y-1.7865
X11.3157Y-1.7492
X11.3177Y-1.8269
X11.3178Y-1.8661
X11.322Y-2.9969
X11.3249Y-2.1114
X11.3252Y-2.0846
X11.3252Y-2.1724
X11.3252Y-2.5996
X11.3287Y-1.3764
X11.3492Y-1.9343
X11.3524Y-1.548
X11.365Y-1.085
X11.3791Y-2.7524
X11.3835Y-1.289
X11.3846Y-2.8614
X11.3874Y-1.3937
X11.3874Y-1.5091
X11.3878Y-2.1587
X11.3925Y-2.3213
X11.3937Y-1.8661
X11.3976Y-2.4768
X11.4028Y-2.9886
X11.413Y-2.9248
X11.415Y-1.18
X11.4185Y-2.6457
X11.4331Y-1.9941
X11.4343Y-1.2921
X11.4382Y-1.5102
X11.4392Y-1.386
X11.4423Y-2.0197
X11.4429Y-1.7012
X11.4433Y-2.1736
X11.4437Y-1.8591
X11.4498Y-2.7757
X11.4505Y-2.7275
X11.4555Y-2.7516
T3
X10.2752Y-1.2181
X10.2942Y-1.1722
X10.2942Y-1.264
X10.3402Y-1.1531
X10.3402Y-1.2831
X10.3861Y-1.1722
X10.3861Y-1.264
X10.4051Y-1.2181
X10.722Y-2.8504
X10.7411Y-2.8045
X10.7411Y-2.8963
X10.787Y-2.7854
X10.787Y-2.9154
X10.8329Y-2.8045
X10.8329Y-2.8963
X10.852Y-2.8504
X11.1736Y-1.2165
X11.1926Y-1.1706
X11.1926Y-1.2625
X11.2386Y-1.1516
X11.2386Y-1.2815
X11.2845Y-1.1706
X11.2845Y-1.2625
X11.3035Y-1.2165
T5
X10.3402Y-1.2181
X10.787Y-2.8504
X11.2386Y-1.2165
T4
G00X10.6173Y-0.9913
M15
G01X10.6173Y-1.0228
M16
G05
G00X10.6173Y-1.1496
M15
G01X10.6173Y-1.1929
M16
G05
G00X10.9575Y-0.9913
M15
G01X10.9575Y-1.0228
M16
G05
G00X10.9575Y-1.1496
M15
G01X10.9575Y-1.1929
M16
G05
T0
M30
