G04 #@! TF.GenerationSoftware,KiCad,Pcbnew,5.1.3-ffb9f22~84~ubuntu19.04.1*
G04 #@! TF.CreationDate,2019-08-02T10:13:28-05:00*
G04 #@! TF.ProjectId,LeashPCB,4c656173-6850-4434-922e-6b696361645f,rev?*
G04 #@! TF.SameCoordinates,Original*
G04 #@! TF.FileFunction,Legend,Bot*
G04 #@! TF.FilePolarity,Positive*
%FSLAX46Y46*%
G04 Gerber Fmt 4.6, Leading zero omitted, Abs format (unit mm)*
G04 Created by KiCad (PCBNEW 5.1.3-ffb9f22~84~ubuntu19.04.1) date 2019-08-02 10:13:28*
%MOMM*%
%LPD*%
G04 APERTURE LIST*
%ADD10C,0.300000*%
%ADD11C,0.120000*%
G04 APERTURE END LIST*
D10*
X155950000Y-40928571D02*
X155950000Y-42000000D01*
X156021428Y-42214285D01*
X156164285Y-42357142D01*
X156378571Y-42428571D01*
X156521428Y-42428571D01*
X154521428Y-42428571D02*
X155235714Y-42428571D01*
X155235714Y-40928571D01*
X153164285Y-42285714D02*
X153235714Y-42357142D01*
X153450000Y-42428571D01*
X153592857Y-42428571D01*
X153807142Y-42357142D01*
X153950000Y-42214285D01*
X154021428Y-42071428D01*
X154092857Y-41785714D01*
X154092857Y-41571428D01*
X154021428Y-41285714D01*
X153950000Y-41142857D01*
X153807142Y-41000000D01*
X153592857Y-40928571D01*
X153450000Y-40928571D01*
X153235714Y-41000000D01*
X153164285Y-41071428D01*
X152092857Y-40928571D02*
X152092857Y-42000000D01*
X152164285Y-42214285D01*
X152307142Y-42357142D01*
X152521428Y-42428571D01*
X152664285Y-42428571D01*
X150664285Y-42428571D02*
X151378571Y-42428571D01*
X151378571Y-40928571D01*
X149307142Y-42285714D02*
X149378571Y-42357142D01*
X149592857Y-42428571D01*
X149735714Y-42428571D01*
X149950000Y-42357142D01*
X150092857Y-42214285D01*
X150164285Y-42071428D01*
X150235714Y-41785714D01*
X150235714Y-41571428D01*
X150164285Y-41285714D01*
X150092857Y-41142857D01*
X149950000Y-41000000D01*
X149735714Y-40928571D01*
X149592857Y-40928571D01*
X149378571Y-41000000D01*
X149307142Y-41071428D01*
X148235714Y-40928571D02*
X148235714Y-42000000D01*
X148307142Y-42214285D01*
X148450000Y-42357142D01*
X148664285Y-42428571D01*
X148807142Y-42428571D01*
X146807142Y-42428571D02*
X147521428Y-42428571D01*
X147521428Y-40928571D01*
X145450000Y-42285714D02*
X145521428Y-42357142D01*
X145735714Y-42428571D01*
X145878571Y-42428571D01*
X146092857Y-42357142D01*
X146235714Y-42214285D01*
X146307142Y-42071428D01*
X146378571Y-41785714D01*
X146378571Y-41571428D01*
X146307142Y-41285714D01*
X146235714Y-41142857D01*
X146092857Y-41000000D01*
X145878571Y-40928571D01*
X145735714Y-40928571D01*
X145521428Y-41000000D01*
X145450000Y-41071428D01*
D11*
X135715000Y-69830000D02*
X135715000Y-69765000D01*
X132185000Y-69830000D02*
X132185000Y-69765000D01*
X135715000Y-76235000D02*
X135715000Y-76170000D01*
X132185000Y-76235000D02*
X132185000Y-76170000D01*
X130860000Y-76170000D02*
X132185000Y-76170000D01*
X132185000Y-69765000D02*
X135715000Y-69765000D01*
X132185000Y-76235000D02*
X135715000Y-76235000D01*
X151350000Y-69500000D02*
X149950000Y-69500000D01*
X149250000Y-70200000D02*
X149250000Y-70800000D01*
X149950000Y-71500000D02*
X151350000Y-71500000D01*
X152050000Y-70800000D02*
X152050000Y-70200000D01*
X152050000Y-70200000D02*
G75*
G03X151350000Y-69500000I-700000J0D01*
G01*
X151350000Y-71500000D02*
G75*
G03X152050000Y-70800000I0J700000D01*
G01*
X149250000Y-70800000D02*
G75*
G03X149950000Y-71500000I700000J0D01*
G01*
X149950000Y-69500000D02*
G75*
G03X149250000Y-70200000I0J-700000D01*
G01*
X151350000Y-66900000D02*
X149950000Y-66900000D01*
X149250000Y-67600000D02*
X149250000Y-68200000D01*
X149950000Y-68900000D02*
X151350000Y-68900000D01*
X152050000Y-68200000D02*
X152050000Y-67600000D01*
X152050000Y-67600000D02*
G75*
G03X151350000Y-66900000I-700000J0D01*
G01*
X151350000Y-68900000D02*
G75*
G03X152050000Y-68200000I0J700000D01*
G01*
X149250000Y-68200000D02*
G75*
G03X149950000Y-68900000I700000J0D01*
G01*
X149950000Y-66900000D02*
G75*
G03X149250000Y-67600000I0J-700000D01*
G01*
X135900000Y-59300000D02*
X137300000Y-59300000D01*
X138000000Y-58600000D02*
X138000000Y-58000000D01*
X137300000Y-57300000D02*
X135900000Y-57300000D01*
X135200000Y-58000000D02*
X135200000Y-58600000D01*
X135200000Y-58600000D02*
G75*
G03X135900000Y-59300000I700000J0D01*
G01*
X135900000Y-57300000D02*
G75*
G03X135200000Y-58000000I0J-700000D01*
G01*
X138000000Y-58000000D02*
G75*
G03X137300000Y-57300000I-700000J0D01*
G01*
X137300000Y-59300000D02*
G75*
G03X138000000Y-58600000I0J700000D01*
G01*
X142900000Y-63600000D02*
X141500000Y-63600000D01*
X140800000Y-64300000D02*
X140800000Y-64900000D01*
X141500000Y-65600000D02*
X142900000Y-65600000D01*
X143600000Y-64900000D02*
X143600000Y-64300000D01*
X143600000Y-64300000D02*
G75*
G03X142900000Y-63600000I-700000J0D01*
G01*
X142900000Y-65600000D02*
G75*
G03X143600000Y-64900000I0J700000D01*
G01*
X140800000Y-64900000D02*
G75*
G03X141500000Y-65600000I700000J0D01*
G01*
X141500000Y-63600000D02*
G75*
G03X140800000Y-64300000I0J-700000D01*
G01*
X142200000Y-58300000D02*
X140800000Y-58300000D01*
X140100000Y-59000000D02*
X140100000Y-59600000D01*
X140800000Y-60300000D02*
X142200000Y-60300000D01*
X142900000Y-59600000D02*
X142900000Y-59000000D01*
X142900000Y-59000000D02*
G75*
G03X142200000Y-58300000I-700000J0D01*
G01*
X142200000Y-60300000D02*
G75*
G03X142900000Y-59600000I0J700000D01*
G01*
X140100000Y-59600000D02*
G75*
G03X140800000Y-60300000I700000J0D01*
G01*
X140800000Y-58300000D02*
G75*
G03X140100000Y-59000000I0J-700000D01*
G01*
M02*
