M48
; DRILL file {KiCad 5.1.3-ffb9f22~84~ubuntu19.04.1} date Fri 02 Aug 2019 10:12:29 AM CDT
; FORMAT={-:-/ absolute / inch / decimal}
; #@! TF.CreationDate,2019-08-02T10:12:29-05:00
; #@! TF.GenerationSoftware,Kicad,Pcbnew,5.1.3-ffb9f22~84~ubuntu19.04.1
FMAT,2
INCH
T1C0.0098
T2C0.0118
T3C0.0472
T4C0.0354
T5C0.0390
%
G90
G05
T1
X3.6929Y-1.5984
X3.6929Y-1.6575
X3.6929Y-1.7067
X3.7008Y-2.9331
X3.7008Y-2.9823
X3.7008Y-3.0413
X3.7008Y-3.0906
X3.7421Y-1.5492
X3.7421Y-1.5984
X3.7421Y-1.6575
X3.7421Y-1.7067
X3.75Y-2.9331
X3.75Y-2.9823
X3.75Y-3.0413
X3.75Y-3.0906
X3.7953Y-1.5492
X3.7953Y-1.5984
X3.7953Y-1.6575
X3.7953Y-1.7067
X3.7992Y-2.9331
X3.7992Y-2.9823
X3.7992Y-3.0413
X3.7992Y-3.0906
X3.8445Y-1.5492
X3.8445Y-1.5984
X3.8445Y-1.6575
X3.8445Y-1.7067
X3.8484Y-2.9331
X3.8976Y-1.5492
X3.8976Y-1.5984
X3.8976Y-1.6575
X3.9091Y-2.9866
X3.924Y-3.002
X3.9283Y-2.9504
X3.939Y-3.0154
X3.9469Y-1.5492
X3.9469Y-1.5984
X3.9469Y-1.6575
X3.948Y-2.9323
X3.9705Y-2.9193
X3.9862Y-2.9965
X3.9902Y-2.9035
X3.9984Y-2.9776
X4.0Y-1.5492
X4.0Y-1.5984
X4.0Y-1.6575
X4.0035Y-2.8831
X4.0059Y-2.4409
X4.0059Y-2.5492
X4.0059Y-2.5984
X4.0059Y-2.6476
X4.0059Y-2.6969
X4.0059Y-2.7461
X4.0059Y-2.7953
X4.0059Y-2.8445
X4.0059Y-2.9587
X4.0059Y-3.0413
X4.0059Y-3.0906
X4.0091Y-2.339
X4.0157Y-1.998
X4.0157Y-2.0472
X4.0157Y-2.1063
X4.0157Y-2.1555
X4.0157Y-2.2047
X4.0157Y-2.2539
X4.0177Y-2.9429
X4.0197Y-2.8665
X4.0346Y-2.3902
X4.035Y-2.9335
X4.0366Y-2.8504
X4.0492Y-1.5492
X4.0492Y-1.5984
X4.0492Y-1.6575
X4.0492Y-1.7067
X4.0492Y-1.7618
X4.0492Y-1.811
X4.0492Y-1.8701
X4.0492Y-1.9193
X4.0528Y-2.9173
X4.0551Y-2.5984
X4.0551Y-2.6476
X4.0551Y-2.6969
X4.0551Y-2.7461
X4.0551Y-2.7953
X4.0551Y-2.9528
X4.0551Y-2.9921
X4.0551Y-3.0413
X4.0551Y-3.0906
X4.0563Y-2.3898
X4.065Y-1.998
X4.065Y-2.0472
X4.065Y-2.1063
X4.065Y-2.1555
X4.065Y-2.2047
X4.065Y-2.2539
X4.0685Y-2.9012
X4.0772Y-2.3335
X4.0772Y-2.3902
X4.0791Y-2.8087
X4.0854Y-2.8866
X4.0937Y-2.7925
X4.0945Y-2.9134
X4.0945Y-2.9528
X4.0945Y-2.9921
X4.0984Y-2.3894
X4.1024Y-1.5492
X4.1024Y-1.5984
X4.1024Y-1.6575
X4.1024Y-1.9193
X4.1024Y-1.9685
X4.1028Y-2.3335
X4.1031Y-2.872
X4.1043Y-2.5984
X4.1043Y-2.6476
X4.1043Y-2.6969
X4.1043Y-3.0413
X4.1043Y-3.0906
X4.1106Y-2.7787
X4.1142Y-2.1555
X4.1142Y-2.2047
X4.1142Y-2.2539
X4.1197Y-2.3902
X4.1217Y-2.8591
X4.1228Y-2.7157
X4.126Y-2.7654
X4.1339Y-2.8937
X4.1382Y-2.0043
X4.1382Y-2.8402
X4.1394Y-2.3906
X4.1409Y-2.4894
X4.1417Y-2.4673
X4.1417Y-2.513
X4.1516Y-1.5492
X4.1516Y-1.5984
X4.1516Y-1.6575
X4.1516Y-1.9193
X4.1516Y-1.9685
X4.1535Y-2.5984
X4.1535Y-2.6476
X4.1535Y-3.0413
X4.1535Y-3.0906
X4.1536Y-2.6884
X4.1551Y-2.8563
X4.1606Y-2.3913
X4.1634Y-2.1555
X4.1634Y-2.2047
X4.1634Y-2.2539
X4.1673Y-2.3327
X4.1685Y-2.9646
X4.1693Y-2.6693
X4.1728Y-2.8728
X4.178Y-2.4559
X4.1815Y-2.3913
X4.1831Y-2.9134
X4.1866Y-2.5264
X4.1909Y-2.3327
X4.1965Y-2.4445
X4.1969Y-1.9193
X4.1969Y-1.9685
X4.1969Y-2.0335
X4.1969Y-2.0787
X4.1969Y-2.124
X4.1984Y-2.4031
X4.1992Y-2.4236
X4.2028Y-2.5689
X4.2028Y-2.5984
X4.2028Y-2.9528
X4.2028Y-3.0413
X4.2028Y-3.0906
X4.2047Y-1.5492
X4.2047Y-1.5984
X4.2047Y-1.6575
X4.2126Y-2.2539
X4.2126Y-2.2933
X4.2126Y-2.5228
X4.2126Y-2.6417
X4.2142Y-2.5004
X4.2189Y-2.4799
X4.2217Y-2.8201
X4.224Y-2.6783
X4.2264Y-2.8429
X4.235Y-2.4646
X4.2374Y-2.8079
X4.2417Y-2.6602
X4.2421Y-2.5591
X4.2441Y-2.6142
X4.2461Y-1.9193
X4.2461Y-1.9685
X4.2461Y-2.0335
X4.2461Y-2.0787
X4.2461Y-2.124
X4.252Y-2.8543
X4.252Y-2.9035
X4.252Y-2.9528
X4.252Y-3.0413
X4.2539Y-1.5492
X4.2539Y-1.5984
X4.2539Y-1.6575
X4.2547Y-2.7909
X4.2551Y-2.4291
X4.2555Y-2.4512
X4.2555Y-2.6433
X4.2559Y-2.4083
X4.2583Y-2.3319
X4.2618Y-2.2539
X4.2618Y-2.2933
X4.2618Y-2.4902
X4.2618Y-2.5295
X4.2681Y-2.3909
X4.2697Y-2.6252
X4.2787Y-2.3319
X4.2795Y-3.0882
X4.2835Y-2.189
X4.2874Y-2.6063
X4.2902Y-2.3898
X4.2917Y-2.7457
X4.2951Y-1.9372
X4.3004Y-2.3319
X4.3012Y-2.8445
X4.3012Y-2.9035
X4.3012Y-2.9528
X4.3012Y-3.0413
X4.3031Y-2.5866
X4.3051Y-1.5492
X4.3051Y-1.5984
X4.3051Y-1.6575
X4.3051Y-1.7067
X4.3051Y-1.7618
X4.3051Y-1.811
X4.3051Y-1.8701
X4.3075Y-2.7291
X4.311Y-2.2539
X4.311Y-2.2933
X4.311Y-2.4508
X4.311Y-2.4902
X4.311Y-2.5295
X4.311Y-2.7953
X4.3126Y-2.3906
X4.3189Y-2.5748
X4.3209Y-2.3323
X4.3244Y-2.7126
X4.3386Y-2.5709
X4.3394Y-2.6957
X4.3417Y-2.3331
X4.3504Y-2.7559
X4.3504Y-2.8051
X4.3504Y-2.8543
X4.3504Y-2.9035
X4.3543Y-2.6776
X4.3583Y-2.5709
X4.3602Y-2.2539
X4.3602Y-2.2933
X4.3602Y-2.4508
X4.3602Y-2.4902
X4.3602Y-2.5295
X4.3602Y-2.7165
X4.3618Y-2.339
X4.3697Y-2.661
X4.3701Y-1.5354
X4.3701Y-3.1299
X4.3709Y-2.3902
X4.376Y-2.063
X4.378Y-2.5709
X4.3799Y-1.9461
X4.3815Y-2.3374
X4.3874Y-2.6421
X4.3878Y-2.4055
X4.3878Y-2.9547
X4.3953Y-2.4453
X4.3976Y-2.5709
X4.3996Y-2.7067
X4.3996Y-2.7559
X4.3996Y-2.8051
X4.4031Y-2.4236
X4.4035Y-2.3402
X4.4094Y-1.9882
X4.4094Y-2.2539
X4.4094Y-2.2933
X4.4094Y-2.5295
X4.4094Y-2.6343
X4.4118Y-2.4618
X4.4173Y-2.5709
X4.4181Y-2.3543
X4.4272Y-2.4783
X4.4291Y-2.6673
X4.4331Y-2.6339
X4.4335Y-2.3689
X4.437Y-2.5709
X4.4378Y-3.0417
X4.4409Y-1.5512
X4.4441Y-2.4949
X4.4488Y-2.7165
X4.4516Y-2.3815
X4.4528Y-2.6339
X4.4567Y-2.5709
X4.4587Y-2.2539
X4.4587Y-2.2933
X4.4587Y-2.3327
X4.4685Y-2.6673
X4.4724Y-2.6339
X4.4764Y-2.5709
X4.4874Y-2.535
X4.4921Y-2.6339
X4.4961Y-2.5709
X4.497Y-2.9088
X4.498Y-2.687
X4.5012Y-1.9937
X4.5079Y-2.2539
X4.5079Y-2.2933
X4.5079Y-2.3327
X4.5118Y-2.6339
X4.5122Y-2.3669
X4.5187Y-3.1211
X4.5197Y-2.7638
X4.5268Y-2.5484
X4.5276Y-2.6575
X4.5303Y-2.3854
X4.5315Y-2.6339
X4.5449Y-2.5657
X4.5501Y-2.4055
X4.5528Y-2.6339
X4.5571Y-2.2539
X4.5571Y-2.2933
X4.5589Y-2.758
X4.5594Y-2.4614
X4.5598Y-2.9197
X4.5629Y-2.8634
X4.5634Y-2.4307
X4.5669Y-2.4835
X4.5669Y-3.1299
X4.5685Y-3.0777
X4.574Y-2.0571
X4.5795Y-2.6328
X4.5798Y-2.4123
X4.58Y-2.6981
X4.5906Y-3.0929
X4.6063Y-1.5354
X4.6063Y-2.4946
X4.613Y-2.2996
X4.6138Y-2.8169
X4.6165Y-2.5333
X4.6388Y-2.491
X4.6436Y-2.4641
X4.6508Y-2.9382
X4.6519Y-2.8256
X4.6575Y-1.5551
X4.6575Y-2.5748
X4.6575Y-2.6063
X4.6575Y-2.6378
X4.6575Y-2.6693
X4.6575Y-2.7047
X4.6575Y-2.7402
X4.6655Y-2.8465
X4.6707Y-2.1488
X4.6772Y-2.0906
X4.6772Y-2.3544
X4.6772Y-3.0709
X4.6794Y-2.3994
X4.694Y-2.8245
X4.6989Y-3.0409
X4.7002Y-2.8484
X4.714Y-2.4879
X4.7158Y-2.8676
X4.7163Y-2.2362
X4.7208Y-2.3315
X4.7244Y-3.1299
X4.7362Y-3.0591
X4.7402Y-2.4921
X4.7441Y-2.6378
X4.7441Y-2.6693
X4.7441Y-2.7047
X4.7441Y-2.7402
X4.7461Y-2.5748
X4.7461Y-2.6063
X4.752Y-2.8882
X4.7565Y-2.8425
X4.763Y-3.0073
X4.7648Y-3.1308
X4.772Y-2.3921
X4.7756Y-2.1063
X4.7785Y-2.9338
X4.7836Y-2.9684
X4.7849Y-2.0693
X4.7992Y-1.5551
X4.8011Y-2.4947
X4.8012Y-1.5276
X4.811Y-2.8252
X4.8182Y-2.4386
X4.8204Y-2.4678
X4.8228Y-2.0472
X4.8228Y-2.6378
X4.8228Y-2.6693
X4.8228Y-2.7047
X4.8228Y-2.7402
X4.8244Y-2.3425
X4.8248Y-2.5748
X4.8248Y-2.6063
X4.8252Y-2.0968
X4.8311Y-1.6264
X4.8425Y-1.5551
X4.8449Y-3.0181
X4.8633Y-1.5787
X4.868Y-2.5239
X4.8685Y-2.817
X4.8741Y-2.4953
X4.8759Y-2.9666
X4.8777Y-2.7941
X4.8858Y-2.2047
X4.8898Y-2.0236
X4.9028Y-3.0181
X4.9055Y-2.815
X4.9094Y-2.1575
X4.9129Y-2.4336
X4.9134Y-2.5584
X4.9134Y-2.9727
X4.9173Y-2.5276
X4.9252Y-2.0118
X4.9318Y-2.5769
X4.9331Y-2.7835
X4.9331Y-2.811
X4.9336Y-2.7201
X4.9372Y-2.9322
X4.9409Y-2.752
X4.9568Y-2.9172
X4.9621Y-2.7055
X4.9685Y-2.0299
X4.9685Y-3.063
X4.9693Y-2.7394
X4.9705Y-2.2677
X4.9724Y-3.0157
X4.9829Y-3.1251
X4.994Y-2.3899
X4.9952Y-2.6904
X4.9969Y-2.9493
X4.9982Y-2.8946
X5.0Y-1.5354
X5.0Y-1.9291
X5.002Y-2.8083
X5.0027Y-2.6623
X5.0035Y-1.789
X5.0039Y-2.7362
X5.0052Y-2.0081
X5.0118Y-2.7087
X5.0146Y-2.4724
X5.0197Y-3.1299
X5.0236Y-2.8752
X5.0315Y-1.5551
X5.0354Y-3.0118
X5.0591Y-2.9646
X5.076Y-2.5157
X5.0779Y-2.9406
X5.0815Y-2.6476
X5.0827Y-2.2579
X5.0878Y-2.4197
X5.0966Y-3.0472
X5.1102Y-2.2638
X5.122Y-2.811
X5.138Y-2.8979
X5.1693Y-3.0669
X5.1772Y-2.6654
X5.1811Y-2.4724
X5.1862Y-3.0019
X5.189Y-2.537
X5.1921Y-2.6921
X5.1929Y-2.8976
X5.1969Y-1.5354
X5.1969Y-3.1276
X5.2087Y-2.3898
X5.2283Y-2.5031
X5.2346Y-2.7432
X5.2362Y-1.5354
X5.2463Y-2.357
X5.248Y-2.6654
X5.248Y-2.7205
X5.2547Y-2.799
X5.2667Y-2.3938
X5.2732Y-2.6366
X5.2756Y-2.6913
X5.2808Y-2.4423
X5.2893Y-2.7904
X5.315Y-2.063
X5.315Y-3.0551
X5.3307Y-2.6504
X5.3346Y-2.5787
X5.3476Y-2.6324
X5.3543Y-2.248
X5.374Y-2.0118
X5.3749Y-2.5424
X5.3937Y-1.5354
X5.3937Y-3.1299
X5.3976Y-2.4055
X5.3996Y-2.5424
X5.4043Y-2.6623
X5.4082Y-2.8357
X5.4134Y-2.1614
X5.4134Y-2.2402
X5.4134Y-2.6024
X5.4173Y-2.9449
X5.418Y-2.8062
X5.4213Y-2.9114
X5.4272Y-2.9862
X5.4331Y-1.5354
X5.4331Y-3.0709
X5.4402Y-2.185
X5.4563Y-2.6412
X5.4615Y-2.84
X5.4642Y-2.4197
X5.4921Y-2.9016
X5.5007Y-2.4321
X5.5118Y-2.5413
X5.5139Y-2.6112
X5.5197Y-2.3661
X5.5306Y-2.81
X5.5531Y-2.5118
X5.5622Y-2.6053
X5.5709Y-3.1299
X5.5768Y-3.0748
X5.5827Y-2.1142
X5.5866Y-2.2638
X5.5886Y-2.7382
X5.5906Y-1.5354
X5.6024Y-2.9086
X5.6059Y-2.7165
X5.6063Y-2.2874
X5.6285Y-2.3046
X5.6299Y-1.5354
X5.6398Y-2.9173
X5.6427Y-3.0929
X5.6535Y-2.5039
X5.6693Y-2.5354
X5.6701Y-2.3468
X5.6752Y-2.1378
X5.6929Y-1.9891
X5.6929Y-2.4783
X5.7016Y-1.9461
X5.7126Y-2.9055
X5.7134Y-2.3413
X5.7598Y-2.5236
X5.7677Y-3.1299
X5.7681Y-2.8307
X5.7681Y-2.8914
X5.7874Y-1.5354
X5.7992Y-2.4087
X5.8051Y-2.3602
X5.8051Y-2.8504
X5.815Y-2.248
X5.815Y-2.0827
X5.8157Y-2.9465
X5.8216Y-2.382
X5.824Y-2.5324
X5.8268Y-1.5433
X5.8307Y-2.7579
X5.8317Y-2.1919
X5.837Y-2.8574
X5.8425Y-2.4488
X5.8661Y-2.4134
X5.872Y-2.2489
X5.874Y-1.9508
X5.8858Y-2.5039
X5.9055Y-2.8189
X5.9089Y-2.2445
X5.9094Y-2.9567
X5.9114Y-2.874
X5.9146Y-2.5324
X5.9449Y-2.8268
X5.9469Y-2.878
X5.9567Y-2.6339
X5.9685Y-1.9587
X5.9745Y-2.4179
X5.9803Y-2.2579
X5.9803Y-3.0177
X5.9843Y-1.5354
X5.9843Y-3.1299
X5.9941Y-2.2933
X5.9942Y-2.3898
X6.0157Y-2.0669
X6.0157Y-2.5591
X6.0217Y-2.0138
X6.0335Y-3.1004
X6.061Y-2.0157
X6.063Y-1.5354
X6.0678Y-2.3732
X6.0678Y-2.3997
X6.0689Y-2.2717
X6.0787Y-1.5748
X6.0981Y-2.5277
X6.0999Y-2.4621
X6.1017Y-2.2484
X6.1017Y-2.2776
X6.1102Y-1.7913
X6.1191Y-2.1939
X6.122Y-3.1299
X6.128Y-2.5818
X6.1339Y-2.8543
X6.1417Y-1.5354
X6.1417Y-2.0512
X6.1457Y-2.0118
X6.1732Y-2.1192
X6.2205Y-3.1299
X6.2244Y-2.126
X6.2598Y-1.5354
X6.2874Y-2.5394
X6.3189Y-1.6142
X6.3189Y-1.7126
X6.3189Y-1.811
X6.3189Y-1.9685
X6.3189Y-2.0866
X6.3189Y-2.2441
X6.3189Y-2.3622
X6.3189Y-2.4803
X6.3189Y-2.6378
X6.3189Y-2.7559
X6.3189Y-2.9134
X6.3189Y-3.0512
T2
X4.729Y-2.4043
X4.7691Y-2.4666
X5.4781Y-2.6669
X5.4781Y-2.7346
X5.497Y-2.7008
X5.5159Y-2.6669
X5.5159Y-2.7346
X5.5736Y-2.4091
X5.5736Y-2.4768
X5.5925Y-2.4429
X5.6114Y-2.4091
X5.6114Y-2.4768
T4
X6.2677Y-1.9921
X6.2677Y-2.1102
T5
X5.082Y-2.7236
X5.122Y-2.4236
X5.162Y-2.7236
T3
G00X6.2402Y-2.2435
M15
G01X6.2402Y-2.2407
M16
G05
G00X6.2402Y-2.5033
M15
G01X6.2402Y-2.5006
M16
G05
T0
M30
