G04 #@! TF.GenerationSoftware,KiCad,Pcbnew,5.1.3-ffb9f22~84~ubuntu19.04.1*
G04 #@! TF.CreationDate,2019-08-01T13:20:31-05:00*
G04 #@! TF.ProjectId,LeashPCB,4c656173-6850-4434-922e-6b696361645f,rev?*
G04 #@! TF.SameCoordinates,Original*
G04 #@! TF.FileFunction,Legend,Top*
G04 #@! TF.FilePolarity,Positive*
%FSLAX46Y46*%
G04 Gerber Fmt 4.6, Leading zero omitted, Abs format (unit mm)*
G04 Created by KiCad (PCBNEW 5.1.3-ffb9f22~84~ubuntu19.04.1) date 2019-08-01 13:20:31*
%MOMM*%
%LPD*%
G04 APERTURE LIST*
%ADD10C,0.150000*%
%ADD11C,0.300000*%
%ADD12C,0.120000*%
%ADD13C,0.100000*%
%ADD14C,0.080000*%
%ADD15C,0.050000*%
G04 APERTURE END LIST*
D10*
X133738095Y-76138095D02*
X134004761Y-76519047D01*
X134195238Y-76138095D02*
X134195238Y-76938095D01*
X133890476Y-76938095D01*
X133814285Y-76900000D01*
X133776190Y-76861904D01*
X133738095Y-76785714D01*
X133738095Y-76671428D01*
X133776190Y-76595238D01*
X133814285Y-76557142D01*
X133890476Y-76519047D01*
X134195238Y-76519047D01*
X133433333Y-76176190D02*
X133319047Y-76138095D01*
X133128571Y-76138095D01*
X133052380Y-76176190D01*
X133014285Y-76214285D01*
X132976190Y-76290476D01*
X132976190Y-76366666D01*
X133014285Y-76442857D01*
X133052380Y-76480952D01*
X133128571Y-76519047D01*
X133280952Y-76557142D01*
X133357142Y-76595238D01*
X133395238Y-76633333D01*
X133433333Y-76709523D01*
X133433333Y-76785714D01*
X133395238Y-76861904D01*
X133357142Y-76900000D01*
X133280952Y-76938095D01*
X133090476Y-76938095D01*
X132976190Y-76900000D01*
X132747619Y-76938095D02*
X132290476Y-76938095D01*
X132519047Y-76138095D02*
X132519047Y-76938095D01*
X129171428Y-76938095D02*
X129171428Y-76290476D01*
X129133333Y-76214285D01*
X129095238Y-76176190D01*
X129019047Y-76138095D01*
X128866666Y-76138095D01*
X128790476Y-76176190D01*
X128752380Y-76214285D01*
X128714285Y-76290476D01*
X128714285Y-76938095D01*
X128371428Y-76176190D02*
X128257142Y-76138095D01*
X128066666Y-76138095D01*
X127990476Y-76176190D01*
X127952380Y-76214285D01*
X127914285Y-76290476D01*
X127914285Y-76366666D01*
X127952380Y-76442857D01*
X127990476Y-76480952D01*
X128066666Y-76519047D01*
X128219047Y-76557142D01*
X128295238Y-76595238D01*
X128333333Y-76633333D01*
X128371428Y-76709523D01*
X128371428Y-76785714D01*
X128333333Y-76861904D01*
X128295238Y-76900000D01*
X128219047Y-76938095D01*
X128028571Y-76938095D01*
X127914285Y-76900000D01*
X127571428Y-76557142D02*
X127304761Y-76557142D01*
X127190476Y-76138095D02*
X127571428Y-76138095D01*
X127571428Y-76938095D01*
X127190476Y-76938095D01*
X126390476Y-76138095D02*
X126657142Y-76519047D01*
X126847619Y-76138095D02*
X126847619Y-76938095D01*
X126542857Y-76938095D01*
X126466666Y-76900000D01*
X126428571Y-76861904D01*
X126390476Y-76785714D01*
X126390476Y-76671428D01*
X126428571Y-76595238D01*
X126466666Y-76557142D01*
X126542857Y-76519047D01*
X126847619Y-76519047D01*
X134510000Y-39674285D02*
X134548095Y-39636190D01*
X134662380Y-39598095D01*
X134738571Y-39598095D01*
X134852857Y-39636190D01*
X134929047Y-39712380D01*
X134967142Y-39788571D01*
X135005238Y-39940952D01*
X135005238Y-40055238D01*
X134967142Y-40207619D01*
X134929047Y-40283809D01*
X134852857Y-40360000D01*
X134738571Y-40398095D01*
X134662380Y-40398095D01*
X134548095Y-40360000D01*
X134510000Y-40321904D01*
X134052857Y-39598095D02*
X134129047Y-39636190D01*
X134167142Y-39712380D01*
X134167142Y-40398095D01*
X133748095Y-39598095D02*
X133748095Y-40131428D01*
X133748095Y-40398095D02*
X133786190Y-40360000D01*
X133748095Y-40321904D01*
X133710000Y-40360000D01*
X133748095Y-40398095D01*
X133748095Y-40321904D01*
X133024285Y-39636190D02*
X133100476Y-39598095D01*
X133252857Y-39598095D01*
X133329047Y-39636190D01*
X133367142Y-39674285D01*
X133405238Y-39750476D01*
X133405238Y-39979047D01*
X133367142Y-40055238D01*
X133329047Y-40093333D01*
X133252857Y-40131428D01*
X133100476Y-40131428D01*
X133024285Y-40093333D01*
X132681428Y-39598095D02*
X132681428Y-40398095D01*
X132605238Y-39902857D02*
X132376666Y-39598095D01*
X132376666Y-40131428D02*
X132681428Y-39826666D01*
X132071904Y-40321904D02*
X132033809Y-40360000D01*
X131957619Y-40398095D01*
X131767142Y-40398095D01*
X131690952Y-40360000D01*
X131652857Y-40321904D01*
X131614761Y-40245714D01*
X131614761Y-40169523D01*
X131652857Y-40055238D01*
X132110000Y-39598095D01*
X131614761Y-39598095D01*
X149806666Y-40188095D02*
X149540000Y-39388095D01*
X149273333Y-40188095D01*
X149006666Y-40188095D02*
X149006666Y-39540476D01*
X148968571Y-39464285D01*
X148930476Y-39426190D01*
X148854285Y-39388095D01*
X148701904Y-39388095D01*
X148625714Y-39426190D01*
X148587619Y-39464285D01*
X148549523Y-39540476D01*
X148549523Y-40188095D01*
X148206666Y-39426190D02*
X148092380Y-39388095D01*
X147901904Y-39388095D01*
X147825714Y-39426190D01*
X147787619Y-39464285D01*
X147749523Y-39540476D01*
X147749523Y-39616666D01*
X147787619Y-39692857D01*
X147825714Y-39730952D01*
X147901904Y-39769047D01*
X148054285Y-39807142D01*
X148130476Y-39845238D01*
X148168571Y-39883333D01*
X148206666Y-39959523D01*
X148206666Y-40035714D01*
X148168571Y-40111904D01*
X148130476Y-40150000D01*
X148054285Y-40188095D01*
X147863809Y-40188095D01*
X147749523Y-40150000D01*
X147140000Y-39807142D02*
X147025714Y-39769047D01*
X146987619Y-39730952D01*
X146949523Y-39654761D01*
X146949523Y-39540476D01*
X146987619Y-39464285D01*
X147025714Y-39426190D01*
X147101904Y-39388095D01*
X147406666Y-39388095D01*
X147406666Y-40188095D01*
X147140000Y-40188095D01*
X147063809Y-40150000D01*
X147025714Y-40111904D01*
X146987619Y-40035714D01*
X146987619Y-39959523D01*
X147025714Y-39883333D01*
X147063809Y-39845238D01*
X147140000Y-39807142D01*
X147406666Y-39807142D01*
X138453333Y-39328095D02*
X138720000Y-39709047D01*
X138910476Y-39328095D02*
X138910476Y-40128095D01*
X138605714Y-40128095D01*
X138529523Y-40090000D01*
X138491428Y-40051904D01*
X138453333Y-39975714D01*
X138453333Y-39861428D01*
X138491428Y-39785238D01*
X138529523Y-39747142D01*
X138605714Y-39709047D01*
X138910476Y-39709047D01*
X138186666Y-40128095D02*
X137653333Y-39328095D01*
X137653333Y-40128095D02*
X138186666Y-39328095D01*
X144609523Y-40438095D02*
X144152380Y-40438095D01*
X144380952Y-39638095D02*
X144380952Y-40438095D01*
X143961904Y-40438095D02*
X143428571Y-39638095D01*
X143428571Y-40438095D02*
X143961904Y-39638095D01*
X129490000Y-40341904D02*
X129451904Y-40380000D01*
X129375714Y-40418095D01*
X129185238Y-40418095D01*
X129109047Y-40380000D01*
X129070952Y-40341904D01*
X129032857Y-40265714D01*
X129032857Y-40189523D01*
X129070952Y-40075238D01*
X129528095Y-39618095D01*
X129032857Y-39618095D01*
X128690000Y-39694285D02*
X128651904Y-39656190D01*
X128690000Y-39618095D01*
X128728095Y-39656190D01*
X128690000Y-39694285D01*
X128690000Y-39618095D01*
X127966190Y-40151428D02*
X127966190Y-39618095D01*
X128156666Y-40456190D02*
X128347142Y-39884761D01*
X127851904Y-39884761D01*
X127128095Y-40380000D02*
X127204285Y-40418095D01*
X127318571Y-40418095D01*
X127432857Y-40380000D01*
X127509047Y-40303809D01*
X127547142Y-40227619D01*
X127585238Y-40075238D01*
X127585238Y-39960952D01*
X127547142Y-39808571D01*
X127509047Y-39732380D01*
X127432857Y-39656190D01*
X127318571Y-39618095D01*
X127242380Y-39618095D01*
X127128095Y-39656190D01*
X127090000Y-39694285D01*
X127090000Y-39960952D01*
X127242380Y-39960952D01*
X124781428Y-39598095D02*
X124629047Y-39598095D01*
X124552857Y-39636190D01*
X124514761Y-39674285D01*
X124438571Y-39788571D01*
X124400476Y-39940952D01*
X124400476Y-40245714D01*
X124438571Y-40321904D01*
X124476666Y-40360000D01*
X124552857Y-40398095D01*
X124705238Y-40398095D01*
X124781428Y-40360000D01*
X124819523Y-40321904D01*
X124857619Y-40245714D01*
X124857619Y-40055238D01*
X124819523Y-39979047D01*
X124781428Y-39940952D01*
X124705238Y-39902857D01*
X124552857Y-39902857D01*
X124476666Y-39940952D01*
X124438571Y-39979047D01*
X124400476Y-40055238D01*
X123905238Y-40398095D02*
X123829047Y-40398095D01*
X123752857Y-40360000D01*
X123714761Y-40321904D01*
X123676666Y-40245714D01*
X123638571Y-40093333D01*
X123638571Y-39902857D01*
X123676666Y-39750476D01*
X123714761Y-39674285D01*
X123752857Y-39636190D01*
X123829047Y-39598095D01*
X123905238Y-39598095D01*
X123981428Y-39636190D01*
X124019523Y-39674285D01*
X124057619Y-39750476D01*
X124095714Y-39902857D01*
X124095714Y-40093333D01*
X124057619Y-40245714D01*
X124019523Y-40321904D01*
X123981428Y-40360000D01*
X123905238Y-40398095D01*
X123143333Y-40398095D02*
X123067142Y-40398095D01*
X122990952Y-40360000D01*
X122952857Y-40321904D01*
X122914761Y-40245714D01*
X122876666Y-40093333D01*
X122876666Y-39902857D01*
X122914761Y-39750476D01*
X122952857Y-39674285D01*
X122990952Y-39636190D01*
X123067142Y-39598095D01*
X123143333Y-39598095D01*
X123219523Y-39636190D01*
X123257619Y-39674285D01*
X123295714Y-39750476D01*
X123333809Y-39902857D01*
X123333809Y-40093333D01*
X123295714Y-40245714D01*
X123257619Y-40321904D01*
X123219523Y-40360000D01*
X123143333Y-40398095D01*
X122533809Y-39598095D02*
X122533809Y-40398095D01*
X122267142Y-39826666D01*
X122000476Y-40398095D01*
X122000476Y-39598095D01*
X119566666Y-39638095D02*
X119566666Y-40438095D01*
X119261904Y-40438095D01*
X119185714Y-40400000D01*
X119147619Y-40361904D01*
X119109523Y-40285714D01*
X119109523Y-40171428D01*
X119147619Y-40095238D01*
X119185714Y-40057142D01*
X119261904Y-40019047D01*
X119566666Y-40019047D01*
X118842857Y-40438095D02*
X118652380Y-39638095D01*
X118500000Y-40209523D01*
X118347619Y-39638095D01*
X118157142Y-40438095D01*
X117395238Y-39638095D02*
X117661904Y-40019047D01*
X117852380Y-39638095D02*
X117852380Y-40438095D01*
X117547619Y-40438095D01*
X117471428Y-40400000D01*
X117433333Y-40361904D01*
X117395238Y-40285714D01*
X117395238Y-40171428D01*
X117433333Y-40095238D01*
X117471428Y-40057142D01*
X117547619Y-40019047D01*
X117852380Y-40019047D01*
X114700000Y-39714285D02*
X114738095Y-39676190D01*
X114852380Y-39638095D01*
X114928571Y-39638095D01*
X115042857Y-39676190D01*
X115119047Y-39752380D01*
X115157142Y-39828571D01*
X115195238Y-39980952D01*
X115195238Y-40095238D01*
X115157142Y-40247619D01*
X115119047Y-40323809D01*
X115042857Y-40400000D01*
X114928571Y-40438095D01*
X114852380Y-40438095D01*
X114738095Y-40400000D01*
X114700000Y-40361904D01*
X114242857Y-39638095D02*
X114319047Y-39676190D01*
X114357142Y-39752380D01*
X114357142Y-40438095D01*
X113938095Y-39638095D02*
X113938095Y-40171428D01*
X113938095Y-40438095D02*
X113976190Y-40400000D01*
X113938095Y-40361904D01*
X113900000Y-40400000D01*
X113938095Y-40438095D01*
X113938095Y-40361904D01*
X113214285Y-39676190D02*
X113290476Y-39638095D01*
X113442857Y-39638095D01*
X113519047Y-39676190D01*
X113557142Y-39714285D01*
X113595238Y-39790476D01*
X113595238Y-40019047D01*
X113557142Y-40095238D01*
X113519047Y-40133333D01*
X113442857Y-40171428D01*
X113290476Y-40171428D01*
X113214285Y-40133333D01*
X112871428Y-39638095D02*
X112871428Y-40438095D01*
X112795238Y-39942857D02*
X112566666Y-39638095D01*
X112566666Y-40171428D02*
X112871428Y-39866666D01*
X111804761Y-39638095D02*
X112261904Y-39638095D01*
X112033333Y-39638095D02*
X112033333Y-40438095D01*
X112109523Y-40323809D01*
X112185714Y-40247619D01*
X112261904Y-40209523D01*
D11*
X145400000Y-44700000D02*
X145400000Y-46700000D01*
X145400000Y-46700000D02*
G75*
G02X144900000Y-47200000I-500000J0D01*
G01*
X144900000Y-44200000D02*
G75*
G02X145400000Y-44700000I0J-500000D01*
G01*
X143900000Y-41700000D02*
X113400000Y-41700000D01*
X143900000Y-44200000D02*
X143900000Y-41700000D01*
X144900000Y-44200000D02*
X143900000Y-44200000D01*
X143900000Y-47200000D02*
X144900000Y-47200000D01*
X143900000Y-49700000D02*
X143900000Y-47200000D01*
X113400000Y-49700000D02*
X143900000Y-49700000D01*
X113400000Y-41700000D02*
X113400000Y-49700000D01*
D12*
X105870000Y-75599999D02*
X109430000Y-75599999D01*
X103680000Y-75599999D02*
X104350000Y-75599999D01*
X123650000Y-78259999D02*
X124320000Y-78259999D01*
X104350000Y-75599999D02*
X104350000Y-74389999D01*
X118570000Y-78259999D02*
X122130000Y-78259999D01*
X108410000Y-78259999D02*
X111970000Y-78259999D01*
X103680000Y-78259999D02*
X103680000Y-75599999D01*
X121110000Y-75599999D02*
X124320000Y-75599999D01*
X116030000Y-75599999D02*
X119590000Y-75599999D01*
X103680000Y-78259999D02*
X106890000Y-78259999D01*
X113490000Y-78259999D02*
X117050000Y-78259999D01*
X124320000Y-78259999D02*
X124320000Y-75599999D01*
X110950000Y-75599999D02*
X114510000Y-75599999D01*
X103680000Y-55399999D02*
X103680000Y-52739999D01*
X103680000Y-52739999D02*
X104350000Y-52739999D01*
X105870000Y-52739999D02*
X109430000Y-52739999D01*
X110950000Y-52739999D02*
X114510000Y-52739999D01*
X116030000Y-52739999D02*
X119590000Y-52739999D01*
X121110000Y-52739999D02*
X124320000Y-52739999D01*
X124320000Y-55399999D02*
X124320000Y-52739999D01*
X103680000Y-55399999D02*
X106890000Y-55399999D01*
X108410000Y-55399999D02*
X111970000Y-55399999D01*
X113490000Y-55399999D02*
X117050000Y-55399999D01*
X118570000Y-55399999D02*
X122130000Y-55399999D01*
X123650000Y-55399999D02*
X124320000Y-55399999D01*
X104350000Y-52739999D02*
X104350000Y-51529999D01*
X157800000Y-49600000D02*
X157800000Y-54600000D01*
X160600000Y-49600000D02*
X157800000Y-49600000D01*
X160600000Y-54600000D02*
X160600000Y-49600000D01*
X157800000Y-54600000D02*
X160600000Y-54600000D01*
X125290000Y-65441422D02*
X125290000Y-65958578D01*
X126710000Y-65441422D02*
X126710000Y-65958578D01*
X153624856Y-55474182D02*
X150064856Y-55474182D01*
X155814856Y-55474182D02*
X155144856Y-55474182D01*
X135844856Y-52814182D02*
X135174856Y-52814182D01*
X155144856Y-55474182D02*
X155144856Y-56684182D01*
X140924856Y-52814182D02*
X137364856Y-52814182D01*
X151084856Y-52814182D02*
X147524856Y-52814182D01*
X155814856Y-52814182D02*
X155814856Y-55474182D01*
X138384856Y-55474182D02*
X135174856Y-55474182D01*
X143464856Y-55474182D02*
X139904856Y-55474182D01*
X155814856Y-52814182D02*
X152604856Y-52814182D01*
X146004856Y-52814182D02*
X142444856Y-52814182D01*
X135174856Y-52814182D02*
X135174856Y-55474182D01*
X148544856Y-55474182D02*
X144984856Y-55474182D01*
X155814856Y-75674182D02*
X155814856Y-78334182D01*
X155814856Y-78334182D02*
X155144856Y-78334182D01*
X153624856Y-78334182D02*
X150064856Y-78334182D01*
X148544856Y-78334182D02*
X144984856Y-78334182D01*
X143464856Y-78334182D02*
X139904856Y-78334182D01*
X138384856Y-78334182D02*
X135174856Y-78334182D01*
X135174856Y-75674182D02*
X135174856Y-78334182D01*
X155814856Y-75674182D02*
X152604856Y-75674182D01*
X151084856Y-75674182D02*
X147524856Y-75674182D01*
X146004856Y-75674182D02*
X142444856Y-75674182D01*
X140924856Y-75674182D02*
X137364856Y-75674182D01*
X135844856Y-75674182D02*
X135174856Y-75674182D01*
X155144856Y-78334182D02*
X155144856Y-79544182D01*
X155750000Y-42750000D02*
X159750000Y-42750000D01*
X155750000Y-43250000D02*
X155750000Y-42750000D01*
X153250000Y-43250000D02*
X155750000Y-43250000D01*
X153250000Y-42750000D02*
X153250000Y-43250000D01*
X149250000Y-42750000D02*
X153250000Y-42750000D01*
X149250000Y-48250000D02*
X149250000Y-42750000D01*
X155750000Y-47750000D02*
X155750000Y-48250000D01*
X153250000Y-47750000D02*
X155750000Y-47750000D01*
X153250000Y-48250000D02*
X153250000Y-47750000D01*
X149250000Y-48250000D02*
X153250000Y-48250000D01*
X159750000Y-48250000D02*
X155750000Y-48250000D01*
X159750000Y-42750000D02*
X159750000Y-48250000D01*
X143650000Y-63550000D02*
X144050000Y-63550000D01*
X140450000Y-60450000D02*
X140450000Y-60550000D01*
X141250000Y-60450000D02*
X140450000Y-60450000D01*
X143650000Y-60450000D02*
X142850000Y-60450000D01*
X143650000Y-60550000D02*
X143650000Y-60450000D01*
X140450000Y-63650000D02*
X140450000Y-63550000D01*
X141250000Y-63650000D02*
X140450000Y-63650000D01*
X143650000Y-63650000D02*
X143650000Y-63550000D01*
X142850000Y-63650000D02*
X143650000Y-63650000D01*
X138825000Y-67000000D02*
X138025000Y-67000000D01*
X138025000Y-67000000D02*
X138025000Y-67100000D01*
X140425000Y-67000000D02*
X141225000Y-67000000D01*
X141225000Y-67000000D02*
X141225000Y-67100000D01*
X138025000Y-70100000D02*
X138025000Y-70200000D01*
X138025000Y-70200000D02*
X138825000Y-70200000D01*
X140425000Y-70200000D02*
X141225000Y-70200000D01*
X141225000Y-70200000D02*
X141225000Y-70100000D01*
X138025000Y-67100000D02*
X137625000Y-67100000D01*
X160110000Y-71590000D02*
X160110000Y-66910000D01*
X153890000Y-66210000D02*
X153890000Y-67490000D01*
X152290000Y-66210000D02*
X153890000Y-66210000D01*
X152290000Y-65190000D02*
X152290000Y-66210000D01*
X156540000Y-65190000D02*
X152290000Y-65190000D01*
X153890000Y-71010000D02*
X151000000Y-71010000D01*
X153890000Y-72290000D02*
X153890000Y-71010000D01*
X152290000Y-72290000D02*
X153890000Y-72290000D01*
X152290000Y-73310000D02*
X152290000Y-72290000D01*
X156540000Y-73310000D02*
X152290000Y-73310000D01*
D13*
X114490000Y-38650000D02*
G75*
G03X114490000Y-38650000I-50000J0D01*
G01*
X134405000Y-38650000D02*
G75*
G03X134405000Y-38650000I-50000J0D01*
G01*
X119640000Y-38650000D02*
G75*
G03X119640000Y-38650000I-50000J0D01*
G01*
X124640000Y-38650000D02*
G75*
G03X124640000Y-38650000I-50000J0D01*
G01*
X129390000Y-38650000D02*
G75*
G03X129390000Y-38650000I-50000J0D01*
G01*
X149640000Y-38650000D02*
G75*
G03X149640000Y-38650000I-50000J0D01*
G01*
X139425000Y-38640000D02*
G75*
G03X139425000Y-38640000I-50000J0D01*
G01*
X144490000Y-38650000D02*
G75*
G03X144490000Y-38650000I-50000J0D01*
G01*
D12*
X131300000Y-57240000D02*
X126100000Y-57240000D01*
X131700000Y-51640000D02*
X125100000Y-51640000D01*
X125100000Y-51640000D02*
X125100000Y-52040000D01*
X128450000Y-57630000D02*
X125450000Y-57630000D01*
X129450000Y-60870000D02*
X127450000Y-60870000D01*
X148900000Y-58000000D02*
X151900000Y-58000000D01*
X151900000Y-58000000D02*
X151900000Y-61000000D01*
X151900000Y-61000000D02*
X148900000Y-61000000D01*
X148900000Y-61000000D02*
X148900000Y-58000000D01*
X148600000Y-57700000D02*
G75*
G03X148600000Y-57700000I-100000J0D01*
G01*
D10*
X160030000Y-59250000D02*
X160030000Y-61250000D01*
X160030000Y-61260000D02*
X160030000Y-62860000D01*
X160030000Y-57640000D02*
X160030000Y-59240000D01*
D12*
X125290000Y-62337221D02*
X125290000Y-62662779D01*
X126310000Y-62337221D02*
X126310000Y-62662779D01*
X133991421Y-59650000D02*
G75*
G03X133991421Y-59650000I-141421J0D01*
G01*
X135350000Y-59150000D02*
X134650000Y-59850000D01*
X139450000Y-59150000D02*
X135350000Y-59150000D01*
X139450000Y-63950000D02*
X139450000Y-59150000D01*
X134650000Y-63950000D02*
X139450000Y-63950000D01*
X134650000Y-59850000D02*
X134650000Y-63950000D01*
X147991421Y-70650000D02*
G75*
G03X147991421Y-70650000I-141421J0D01*
G01*
X146350000Y-71150000D02*
X147050000Y-70450000D01*
X142250000Y-71150000D02*
X146350000Y-71150000D01*
X142250000Y-66350000D02*
X142250000Y-71150000D01*
X147050000Y-66350000D02*
X142250000Y-66350000D01*
X147050000Y-70450000D02*
X147050000Y-66350000D01*
X130262779Y-75190000D02*
X129937221Y-75190000D01*
X130262779Y-76210000D02*
X129937221Y-76210000D01*
D14*
X132250000Y-71000000D02*
X130750000Y-71000000D01*
X132250000Y-73000000D02*
X132250000Y-71000000D01*
X130750000Y-73000000D02*
X132250000Y-73000000D01*
X130750000Y-71000000D02*
X130750000Y-73000000D01*
D15*
X119070711Y-58950000D02*
G75*
G03X119070711Y-58950000I-70711J0D01*
G01*
X119150000Y-61150000D02*
X119150000Y-59150000D01*
X122150000Y-61150000D02*
X119150000Y-61150000D01*
X122150000Y-59150000D02*
X122150000Y-61150000D01*
X119150000Y-59150000D02*
X122150000Y-59150000D01*
D10*
X103090000Y-64775000D02*
X103090000Y-61775000D01*
X106090000Y-64775000D02*
X103090000Y-64775000D01*
X106090000Y-61775000D02*
X106090000Y-64775000D01*
X103090000Y-61775000D02*
X106090000Y-61775000D01*
X104840000Y-63275000D02*
G75*
G03X104840000Y-63275000I-250000J0D01*
G01*
X105380569Y-63275000D02*
G75*
G03X105380569Y-63275000I-790569J0D01*
G01*
X99330000Y-78761320D02*
X97208680Y-76640000D01*
X101451320Y-76640000D02*
X99330000Y-78761320D01*
X99330000Y-74518680D02*
X101451320Y-76640000D01*
X97208680Y-76640000D02*
X99330000Y-74518680D01*
X99580000Y-76640000D02*
G75*
G03X99580000Y-76640000I-250000J0D01*
G01*
X100120569Y-76640000D02*
G75*
G03X100120569Y-76640000I-790569J0D01*
G01*
D12*
X134110000Y-53812779D02*
X134110000Y-53487221D01*
X133090000Y-53812779D02*
X133090000Y-53487221D01*
D15*
X127820000Y-80750000D02*
X127820000Y-80100000D01*
X126120000Y-80750000D02*
X127820000Y-80750000D01*
X126120000Y-80100000D02*
X126120000Y-80750000D01*
X125220000Y-80100000D02*
X125220000Y-77200000D01*
X128720000Y-80100000D02*
X125220000Y-80100000D01*
X128720000Y-77200000D02*
X128720000Y-80100000D01*
X125220000Y-77200000D02*
X128720000Y-77200000D01*
X133180000Y-80710000D02*
X133180000Y-80060000D01*
X131480000Y-80710000D02*
X133180000Y-80710000D01*
X131480000Y-80060000D02*
X131480000Y-80710000D01*
X130580000Y-80060000D02*
X130580000Y-77160000D01*
X134080000Y-80060000D02*
X130580000Y-80060000D01*
X134080000Y-77160000D02*
X134080000Y-80060000D01*
X130580000Y-77160000D02*
X134080000Y-77160000D01*
D12*
X117415000Y-63990000D02*
X116940000Y-63990000D01*
X124160000Y-71210000D02*
X124160000Y-70735000D01*
X123685000Y-71210000D02*
X124160000Y-71210000D01*
X116940000Y-71210000D02*
X116940000Y-70735000D01*
X117415000Y-71210000D02*
X116940000Y-71210000D01*
X124160000Y-63990000D02*
X124160000Y-64465000D01*
X123685000Y-63990000D02*
X124160000Y-63990000D01*
X109000000Y-45000000D02*
X108750000Y-45000000D01*
X109000000Y-46200000D02*
X109000000Y-45000000D01*
X108750000Y-46200000D02*
X109000000Y-46200000D01*
X108750000Y-48250000D02*
X108000000Y-48250000D01*
X108000000Y-42750000D02*
X108750000Y-42750000D01*
X108750000Y-42750000D02*
X108750000Y-48250000D01*
X104000000Y-48250000D02*
X104000000Y-42750000D01*
X104000000Y-42750000D02*
X108000000Y-42750000D01*
X108000000Y-42750000D02*
X108000000Y-48250000D01*
X108000000Y-48250000D02*
X104000000Y-48250000D01*
X103000000Y-45000000D02*
X102750000Y-45000000D01*
X103000000Y-46200000D02*
X103000000Y-45000000D01*
X102750000Y-46200000D02*
X103000000Y-46200000D01*
X102750000Y-48250000D02*
X102000000Y-48250000D01*
X102000000Y-42750000D02*
X102750000Y-42750000D01*
X102750000Y-42750000D02*
X102750000Y-48250000D01*
X98000000Y-48250000D02*
X98000000Y-42750000D01*
X98000000Y-42750000D02*
X102000000Y-42750000D01*
X102000000Y-42750000D02*
X102000000Y-48250000D01*
X102000000Y-48250000D02*
X98000000Y-48250000D01*
X147900000Y-71650000D02*
X147900000Y-67750000D01*
X149900000Y-71650000D02*
X149900000Y-67750000D01*
X147900000Y-71650000D02*
X149900000Y-71650000D01*
X143750000Y-57430000D02*
X147650000Y-57430000D01*
X143750000Y-59430000D02*
X147650000Y-59430000D01*
X143750000Y-57430000D02*
X143750000Y-59430000D01*
X127180000Y-65537221D02*
X127180000Y-65862779D01*
X128200000Y-65537221D02*
X128200000Y-65862779D01*
X117960000Y-58530000D02*
X115260000Y-58530000D01*
X117960000Y-60830000D02*
X117960000Y-58530000D01*
X112350000Y-69870000D02*
X112350000Y-72270000D01*
X113950000Y-69870000D02*
X112350000Y-69870000D01*
X113950000Y-72270000D02*
X113950000Y-69870000D01*
D13*
X155850000Y-48410000D02*
G75*
G03X155850000Y-48410000I-50000J0D01*
G01*
D12*
X132890000Y-72941422D02*
X132890000Y-73458578D01*
X134310000Y-72941422D02*
X134310000Y-73458578D01*
M02*
