G04 #@! TF.GenerationSoftware,KiCad,Pcbnew,5.1.3-ffb9f22~84~ubuntu19.04.1*
G04 #@! TF.CreationDate,2019-08-02T10:13:28-05:00*
G04 #@! TF.ProjectId,LeashPCB,4c656173-6850-4434-922e-6b696361645f,rev?*
G04 #@! TF.SameCoordinates,Original*
G04 #@! TF.FileFunction,Paste,Bot*
G04 #@! TF.FilePolarity,Positive*
%FSLAX46Y46*%
G04 Gerber Fmt 4.6, Leading zero omitted, Abs format (unit mm)*
G04 Created by KiCad (PCBNEW 5.1.3-ffb9f22~84~ubuntu19.04.1) date 2019-08-02 10:13:28*
%MOMM*%
%LPD*%
G04 APERTURE LIST*
%ADD10C,0.100000*%
%ADD11C,0.590000*%
%ADD12R,2.400000X0.740000*%
G04 APERTURE END LIST*
D10*
G36*
X132186958Y-77890710D02*
G01*
X132201276Y-77892834D01*
X132215317Y-77896351D01*
X132228946Y-77901228D01*
X132242031Y-77907417D01*
X132254447Y-77914858D01*
X132266073Y-77923481D01*
X132276798Y-77933202D01*
X132286519Y-77943927D01*
X132295142Y-77955553D01*
X132302583Y-77967969D01*
X132308772Y-77981054D01*
X132313649Y-77994683D01*
X132317166Y-78008724D01*
X132319290Y-78023042D01*
X132320000Y-78037500D01*
X132320000Y-78332500D01*
X132319290Y-78346958D01*
X132317166Y-78361276D01*
X132313649Y-78375317D01*
X132308772Y-78388946D01*
X132302583Y-78402031D01*
X132295142Y-78414447D01*
X132286519Y-78426073D01*
X132276798Y-78436798D01*
X132266073Y-78446519D01*
X132254447Y-78455142D01*
X132242031Y-78462583D01*
X132228946Y-78468772D01*
X132215317Y-78473649D01*
X132201276Y-78477166D01*
X132186958Y-78479290D01*
X132172500Y-78480000D01*
X131827500Y-78480000D01*
X131813042Y-78479290D01*
X131798724Y-78477166D01*
X131784683Y-78473649D01*
X131771054Y-78468772D01*
X131757969Y-78462583D01*
X131745553Y-78455142D01*
X131733927Y-78446519D01*
X131723202Y-78436798D01*
X131713481Y-78426073D01*
X131704858Y-78414447D01*
X131697417Y-78402031D01*
X131691228Y-78388946D01*
X131686351Y-78375317D01*
X131682834Y-78361276D01*
X131680710Y-78346958D01*
X131680000Y-78332500D01*
X131680000Y-78037500D01*
X131680710Y-78023042D01*
X131682834Y-78008724D01*
X131686351Y-77994683D01*
X131691228Y-77981054D01*
X131697417Y-77967969D01*
X131704858Y-77955553D01*
X131713481Y-77943927D01*
X131723202Y-77933202D01*
X131733927Y-77923481D01*
X131745553Y-77914858D01*
X131757969Y-77907417D01*
X131771054Y-77901228D01*
X131784683Y-77896351D01*
X131798724Y-77892834D01*
X131813042Y-77890710D01*
X131827500Y-77890000D01*
X132172500Y-77890000D01*
X132186958Y-77890710D01*
X132186958Y-77890710D01*
G37*
D11*
X132000000Y-78185000D03*
D10*
G36*
X132186958Y-76920710D02*
G01*
X132201276Y-76922834D01*
X132215317Y-76926351D01*
X132228946Y-76931228D01*
X132242031Y-76937417D01*
X132254447Y-76944858D01*
X132266073Y-76953481D01*
X132276798Y-76963202D01*
X132286519Y-76973927D01*
X132295142Y-76985553D01*
X132302583Y-76997969D01*
X132308772Y-77011054D01*
X132313649Y-77024683D01*
X132317166Y-77038724D01*
X132319290Y-77053042D01*
X132320000Y-77067500D01*
X132320000Y-77362500D01*
X132319290Y-77376958D01*
X132317166Y-77391276D01*
X132313649Y-77405317D01*
X132308772Y-77418946D01*
X132302583Y-77432031D01*
X132295142Y-77444447D01*
X132286519Y-77456073D01*
X132276798Y-77466798D01*
X132266073Y-77476519D01*
X132254447Y-77485142D01*
X132242031Y-77492583D01*
X132228946Y-77498772D01*
X132215317Y-77503649D01*
X132201276Y-77507166D01*
X132186958Y-77509290D01*
X132172500Y-77510000D01*
X131827500Y-77510000D01*
X131813042Y-77509290D01*
X131798724Y-77507166D01*
X131784683Y-77503649D01*
X131771054Y-77498772D01*
X131757969Y-77492583D01*
X131745553Y-77485142D01*
X131733927Y-77476519D01*
X131723202Y-77466798D01*
X131713481Y-77456073D01*
X131704858Y-77444447D01*
X131697417Y-77432031D01*
X131691228Y-77418946D01*
X131686351Y-77405317D01*
X131682834Y-77391276D01*
X131680710Y-77376958D01*
X131680000Y-77362500D01*
X131680000Y-77067500D01*
X131680710Y-77053042D01*
X131682834Y-77038724D01*
X131686351Y-77024683D01*
X131691228Y-77011054D01*
X131697417Y-76997969D01*
X131704858Y-76985553D01*
X131713481Y-76973927D01*
X131723202Y-76963202D01*
X131733927Y-76953481D01*
X131745553Y-76944858D01*
X131757969Y-76937417D01*
X131771054Y-76931228D01*
X131784683Y-76926351D01*
X131798724Y-76922834D01*
X131813042Y-76920710D01*
X131827500Y-76920000D01*
X132172500Y-76920000D01*
X132186958Y-76920710D01*
X132186958Y-76920710D01*
G37*
D11*
X132000000Y-77215000D03*
D12*
X135900000Y-70460000D03*
X132000000Y-70460000D03*
X135900000Y-71730000D03*
X132000000Y-71730000D03*
X135900000Y-73000000D03*
X132000000Y-73000000D03*
X135900000Y-74270000D03*
X132000000Y-74270000D03*
X135900000Y-75540000D03*
X132000000Y-75540000D03*
M02*
