M48
INCH,TZ
T01C.01
T02C.03937
T03C.09449
T04C.10827
;LEADER: 12 
;HEADER: 
;CODE  : ASCII 
;FILE  : BeagleDust Rev A0_20180905-1-2.drl for board D:/Work/PFprojects/CapeForBBB/DigitalDust/PCB/#Taaaaan16696.tmp ... layers TOP and BOTTOM
;T01 Holesize 1. = 10.000000 Tolerance = +0.000000/-0.000000 PLATED MILS Quantity = 569
;T02 Holesize 2. = 39.370000 Tolerance = +0.000000/-0.000000 NON_PLATED MILS Quantity = 3
;T03 Holesize 3. = 94.490000 Tolerance = +0.000000/-0.000000 NON_PLATED MILS Quantity = 4
;T04 Holesize 4. = 108.270000 Tolerance = +0.000000/-0.000000 NON_PLATED MILS Quantity = 4
%
G90
T01
X-25000Y-5000
R02Y5000
X-20661Y9161
X-25500Y13000
Y18000
Y23500
X-21500Y26000
X-25500Y29000
X-22500Y34000
X-26000Y62000
X-21000Y65000
X-26000Y69500
X-21500Y74500
X-26000Y76500
X-21500Y80000
X-26000Y83000
X-24500Y90000
X-26500Y94500
Y105000
X-22500Y107500
X-26500Y112500
Y119000
X-23500Y123000
X-12000Y120000
X-20000Y119000
X-15000Y116000
X-13500Y112500
X-20000
X-10500Y90000
X-18000Y85000
X-11000Y84500
X-11500Y74500
X-12500Y65500
X-16500Y62000
X-13000Y36500
Y33000
X-11000Y29000
X-20000Y28500
X-11000Y26000
X-15671Y22829
X-12000Y4500
X-19500
X-15500Y0
X-13000Y-5000
X-4500Y-13500
X-5671Y-8671
X-500Y-7500
X-1000Y-1500
X-3339Y9161
X-1500Y24000
X-5500Y27500
Y31000
X-4000Y34000
X-1000Y62000
X-9000Y68500
X-5400Y69400
X-500Y87000
X-4000Y97000
X-10000Y97500
X-6500Y103000
X-9500Y107500
X-3000
X-7500Y112500
X-500
X-9000Y116000
X-3000
X-7000Y120000
X-2500
X-8000Y127000
X-3000
X8500
X4500
X1000
X6500Y125500
X8500Y124000
X6500Y122500
X8500Y121000
X1500Y120000
X6500Y119500
X8500Y118000
X6500Y116500
X2000Y116000
X8500Y115000
X6500Y113500
X5000Y110500
X8500Y107000
Y104500
Y102000
X8000Y95500
X1500Y93000
X9500Y88000
X2500Y84500
X8600Y73500
X5500Y64500
Y60000
R02Y-4500
Y42000
Y33000
Y28500
Y24000
X8000Y3500
X9000Y-1500
X4000Y-3000
X8000Y-7500
X4000Y-13500
X8500Y-17500
X0
X7500Y-25000
X16000
X12000Y-21000
X11000Y-13000
X19500
X14500Y-7500
X19500Y-4000
X14500Y7000
X19500Y9000
X14500Y10500
X15157Y13657
X14500Y17500
X15000Y26000
X19000Y87500
X10000Y93000
X16000Y100000
X15500Y103000
X18000Y104500
X15500Y106000
Y109000
Y111500
Y115000
R04Y3000
X28500Y105000
X20500Y103000
X26000Y96000
X27500Y93500
Y89648
X24000Y87500
X29500Y81500
X25500Y73500
X29500Y60000
X27500Y29000
X28500Y19500
X25500
X28500Y16000
Y13000
Y8000
X23000Y4500
X21000Y-8000
X27000Y-20000
X20500Y-21000
X29500Y-22500
X23000Y-23500
X35000Y-22500
X31500Y-20000
Y-10000
X30500Y10500
X35500
X37500Y25000
X32500Y27000
X37500Y35500
X32500Y37500
X37500Y42500
Y45000
Y48000
X39500Y52500
X37500Y59000
X31500Y64500
X37500
Y67500
Y71000
X32000Y79500
X38500Y83500
X30000Y87000
X38500
X39500Y93500
X30500Y96500
X34000Y97000
X39000Y97500
X32500Y102000
X38000
X31500Y105000
X34500
X37500
X49000
X40500
X49500Y93500
X45000
X41000Y89648
X49500Y89000
X45500Y88000
X49500Y85500
X43000Y83500
X48000Y71000
X41500Y70000
X49500Y65000
X41500
X42000Y62000
X45000Y58500
Y52500
X48500Y47500
X44500Y44000
X47500Y42000
X49500Y35000
X44500
X41500Y31000
X46000Y19500
X40500Y18500
Y14500
Y9000
X43500Y-3000
X40000
X40500Y-9500
X58500Y-22500
X53547Y-13547
X57500Y-13500
X50500Y-2500
X58000
X55500Y8000
X50500Y11000
X55900Y18000
X50500Y19500
X52500Y22000
X51000Y25500
X55000Y35000
X58000Y40000
X54000Y42000
X51000Y44000
X58000
X54000Y47500
X51500Y52500
X59000
X51500Y58500
X58000
X56000Y65000
X53500Y71000
X58500
X50000Y96500
X55000
X59500
X50500Y102500
X56500
X52000Y105000
R02X3000
X67000
R02X-3000
X66000Y102500
X62500
X69900Y102400
X61500Y92500
X66000Y90500
X61500Y89000
X66000Y55500
X62500Y46500
Y39500
X62000Y35000
Y25000
R02Y-4000
X66000Y8000
X62000
X61000Y-2500
X63000Y-13500
X66000Y-16500
Y-19500
X67000Y-22500
X73000
X79500Y-13502
X70500Y-12500
X74000Y-12102
X79500Y0
Y5500
X76500Y10500
X72000Y12500
Y16500
X76500Y37500
Y41500
Y46000
Y49500
Y56000
X74000Y61000
X76500Y63500
X74000Y71500
X76500Y85500
X74000Y87500
X79000
X76500Y91500
X74500Y94000
X76500Y97500
X74500Y102000
X78000
X70000Y105000
R03X3000
X88000
R02X-3000
X86500Y101500
X82000Y101000
X87000Y97500
Y92500
X82000Y88500
X87500Y87500
X84000Y85500
X88500Y51000
X89000Y20000
X87000Y16000
Y13500
X82000Y10000
X86500Y5500
X83000Y2000
X86500Y-1000
X81500Y-22500
X87500Y-25500
X90000Y-21500
X97500Y-20000
X94000Y-19000
X99200Y-16800
X91000Y-16500
X95500Y-15000
X94000Y-11200
X98500Y-7000
X91500Y-4000
X91000Y8500
X94500
Y13000
X91500Y15000
X94500Y18000
X97700Y33000
X98500Y39500
Y54000
X99000Y59000
X98500Y68000
X90000Y85500
X92000Y87500
X91000Y91500
X96500Y93500
X91000Y96000
X99000Y96500
X90500Y101500
X95500Y102000
X91000Y105000
X95000
X108000Y109000
X105500Y106500
X103000Y104500
X107500Y103500
X103000Y102000
X104500Y98500
X109000Y97000
X102000Y93500
X108500Y68000
X103500
Y63500
X108500Y59000
X104000
X106500Y54000
X102500
X100000Y51000
X104000Y50000
X107500Y49500
X101500Y47000
X104500Y46000
X107500Y45000
X101500Y44000
X107500Y42000
X105000Y25000
X102000
X103500Y18000
X104000Y14500
Y11000
Y8000
X106500Y-7000
X109000Y-18500
X103500Y-20000
Y-25500
X112000
X116500
X112500Y-20500
Y-17000
X116500Y-11500
X112500Y-7000
X110000Y20500
X111500Y25500
X114500
X116500Y36500
X119500
X118000Y39500
X116500Y46000
Y54500
Y63500
Y68000
X111000Y75500
X116500
X114000Y77500
X119500Y86000
X113500Y87500
X117000Y90500
Y95500
X113000Y98500
X114500Y103500
X111000Y106500
X114000Y109500
X110500Y111500
X117000Y112500
X113000Y114000
X115500Y116500
X118000Y119000
X126000Y121000
X123000
X120000
X123000Y118000
X120000Y115500
X125500Y114000
Y110500
X121000
X125500Y106000
X129500Y102000
X124500Y96500
X124000Y88000
Y84000
Y75500
X129500Y68000
X121500
X125500Y63500
X121500Y58000
X125500Y53500
X121000Y50500
X126000Y45000
X121000Y43000
X124500Y40000
X120500Y-7000
X127000Y-11000
X125000Y-18500
X121000Y-21000
X125000Y-25500
X135000
X133000Y-10500
X138000Y-10000
X130000Y-7500
X135500
X130500Y40000
X136000
X135500Y45000
X130000Y51000
X135000Y53000
X139000Y57500
X130000Y58000
X134500Y63500
X139000Y68000
X134500Y75500
Y80000
X139500Y84500
X134000Y89000
X133000Y96500
X134000Y105500
X148000Y121000
X145500Y118500
Y114000
Y110500
X145000Y105500
X148500Y101500
X145000Y97500
X144000Y89000
X144500Y82500
Y76000
X147000Y72000
X147500Y68000
X142500Y63500
X147000Y57500
X143000Y51500
X146500Y49500
X143000Y45500
X146500Y41000
X142000Y40000
X147500Y9500
X147937Y-9937
X143500Y-10000
X148000Y-14000
X145000Y-19000
X148000Y-22500
X143500Y-25500
X153000
Y-21000
Y-17000
Y-12500
X158500Y-8500
X153500Y-5000
Y-500
X158500Y0
X153500Y3500
X152500Y22000
X152000Y36000
X158500
X154500Y40000
X152000Y44500
X158500
X151500Y51500
X156000Y57000
X151500Y63500
X156500Y68000
X154500Y72500
Y79000
X156500Y89000
Y94500
X152500Y97500
Y105500
X150000Y112000
X156500
X150000Y117500
X154500
X158500
X151500Y121000
X155000
X158500
X169000
R02X-3500
X167000Y117500
X163000
X169500Y112000
X163500
X169500Y101000
X164500Y96000
Y89500
X160000Y85500
X164500Y83000
X164000Y68500
X167000Y63500
X160500
X164000Y57000
X161000Y51500
X164000Y44500
X164500Y38000
X167000Y30500
X165500Y19500
X165000Y12500
X167000Y8500
X164000Y4500
X165000Y-1000
X162000Y-4000
Y-12500
X174000Y-1000
X171500Y8500
Y17000
X176000Y30500
X178000Y79000
X175000Y95500
Y107000
X171500Y117500
X172500Y121000
X181000Y111500
X181500Y101000
Y95500
X182000Y84000
Y73500
Y50000
Y42000
Y32500
Y17000
Y8500
Y1500
Y-7000
T02
X-9000Y34500
X-17000
X-13000Y54500
T03
X-23000Y42000
Y54500
X-3000
Y42000
T04
X-18406Y-17748
Y135406
X174119
Y-17748
M30
