G04 ================== begin FILE IDENTIFICATION RECORD ==================*
G04 Layout Name:  BeagleDust Rev A0_20180905.brd*
G04 Film Name:    paste_top*
G04 File Format:  Gerber RS274X*
G04 File Origin:  Cadence Allegro 16.6-2015-S100*
G04 Origin Date:  Thu Sep 06 16:59:25 2018*
G04 *
G04 Layer:  PIN/PASTEMASK_TOP*
G04 Layer:  PACKAGE GEOMETRY/PASTEMASK_TOP*
G04 Layer:  BOARD GEOMETRY/OUTLINE*
G04 *
G04 Offset:    (0.00 0.00)*
G04 Mirror:    No*
G04 Mode:      Positive*
G04 Rotation:  0*
G04 FullContactRelief:  No*
G04 UndefLineWidth:     5.00*
G04 ================== end FILE IDENTIFICATION RECORD ====================*
%FSLAX25Y25*MOIN*%
%IR0*IPPOS*OFA0.00000B0.00000*MIA0B0*SFA1.00000B1.00000*%
%ADD28R,.04X.138*%
%ADD12C,.04*%
%ADD25R,.058X.134*%
%ADD17C,.0315*%
%ADD11R,.10236X.04016*%
%ADD27R,.032X.032*%
%ADD18R,.07087X.16732*%
%ADD15R,.022X.02*%
%ADD16R,.02X.022*%
%ADD10R,.05X.04*%
%ADD19R,.035X.03*%
%ADD24R,.024X.032*%
%ADD23R,.079X.034*%
%ADD21O,.01181X.03346*%
%ADD22R,.04134X.02362*%
%ADD20O,.01181X.02953*%
%ADD26R,.14764X.12598*%
%ADD14R,.06299X.02953*%
%ADD13R,.02953X.06299*%
%ADD29C,.005*%
%ADD30C,.008*%
G75*
%LPD*%
G75*
G54D10*
X-20661Y12850D03*
Y19150D03*
X-3339D03*
Y12850D03*
G54D20*
X95531Y5264D03*
X97500D03*
X99469D03*
Y736D03*
X97500D03*
G54D11*
X-17693Y70000D03*
Y90000D03*
X-4307Y80000D03*
G54D30*
G01X15167Y-45000D02*
Y-35000D01*
X19167D01*
X20500Y-35500D01*
X21500Y-36667D01*
X21833Y-38000D01*
X21500Y-39333D01*
X20667Y-40333D01*
X19167Y-40834D01*
X15167D01*
G01X25333Y-45000D02*
X29500Y-35000D01*
X33667Y-45000D01*
G01X32167Y-41500D02*
X26833D01*
G01X37000Y-43667D02*
X38333Y-44500D01*
X39833Y-45000D01*
X41167D01*
X42500Y-44500D01*
X43500Y-43667D01*
X44000Y-42500D01*
X43667Y-41334D01*
X42833Y-40333D01*
X41333Y-39667D01*
X39333Y-39333D01*
X38167Y-38667D01*
X37667Y-37500D01*
X38000Y-36333D01*
X38833Y-35500D01*
X40000Y-35000D01*
X41167D01*
X42333Y-35333D01*
X43333Y-36167D01*
G01X51500Y-35000D02*
Y-45000D01*
G01X47667Y-35000D02*
X55333D01*
G01X65833Y-45000D02*
X59167D01*
Y-35000D01*
X65833D01*
G01X63167Y-39833D02*
X59167D01*
G01X69167Y-45000D02*
Y-35000D01*
X73500Y-43333D01*
X77833Y-35000D01*
Y-45000D01*
G01X80333D02*
X84500Y-35000D01*
X88667Y-45000D01*
G01X87167Y-41500D02*
X81833D01*
G01X92000Y-43667D02*
X93333Y-44500D01*
X94833Y-45000D01*
X96167D01*
X97500Y-44500D01*
X98500Y-43667D01*
X99000Y-42500D01*
X98667Y-41334D01*
X97833Y-40333D01*
X96333Y-39667D01*
X94333Y-39333D01*
X93167Y-38667D01*
X92667Y-37500D01*
X93000Y-36333D01*
X93833Y-35500D01*
X95000Y-35000D01*
X96167D01*
X97333Y-35333D01*
X98333Y-36167D01*
G01X102833Y-45000D02*
Y-35000D01*
G01X109167D02*
X102833Y-41167D01*
G01X110167Y-45000D02*
X105667Y-38334D01*
G01X128500Y-35000D02*
Y-45000D01*
G01X124667Y-35000D02*
X132333D01*
G01X139500Y-45000D02*
X138166Y-44833D01*
X137000Y-44167D01*
X136000Y-43167D01*
X135333Y-42000D01*
X135000Y-40667D01*
Y-39333D01*
X135333Y-38000D01*
X136000Y-36833D01*
X137000Y-35833D01*
X138166Y-35167D01*
X139500Y-35000D01*
X140833Y-35167D01*
X142000Y-35833D01*
X143000Y-36833D01*
X143667Y-38000D01*
X144000Y-39333D01*
Y-40667D01*
X143667Y-42000D01*
X143000Y-43167D01*
X142000Y-44167D01*
X140833Y-44833D01*
X139500Y-45000D01*
G01X147167D02*
Y-35000D01*
X151167D01*
X152500Y-35500D01*
X153500Y-36667D01*
X153833Y-38000D01*
X153500Y-39333D01*
X152667Y-40333D01*
X151167Y-40834D01*
X147167D01*
G54D21*
X95531Y933D03*
G54D12*
X1000Y-23500D03*
X177500Y13000D03*
Y117400D03*
G54D13*
X58165Y2909D03*
X53165D03*
X48165D03*
X43165D03*
X38165D03*
X33165D03*
X28165D03*
X73165D03*
X68165D03*
X63165D03*
G54D22*
X108028Y14500D03*
X98972Y10760D03*
Y18240D03*
G54D14*
X20094Y13657D03*
Y18657D03*
Y23657D03*
Y28657D03*
Y33657D03*
Y38657D03*
Y43657D03*
Y48657D03*
Y53657D03*
Y58657D03*
Y63657D03*
Y68657D03*
Y73657D03*
Y78657D03*
Y92516D03*
Y97516D03*
X81906Y38657D03*
Y33657D03*
Y28657D03*
Y23657D03*
Y18657D03*
Y13657D03*
Y97516D03*
Y92516D03*
Y78657D03*
Y73657D03*
Y68657D03*
Y63657D03*
Y58657D03*
Y53657D03*
Y48657D03*
Y43657D03*
G54D23*
X116000Y-748D03*
Y5748D03*
G54D24*
X124500Y7446D03*
Y-2446D03*
G54D15*
X40500Y-13100D03*
Y-16900D03*
X27000Y-13100D03*
Y-16900D03*
X36000Y-13100D03*
Y-16900D03*
X31500Y-13100D03*
Y-16900D03*
X22500Y-13100D03*
Y-16900D03*
X-2000Y69400D03*
Y65600D03*
X11900Y102600D03*
Y106400D03*
X74000Y-9900D03*
Y-6100D03*
X104000Y4900D03*
Y1100D03*
X108500D03*
Y4900D03*
X85000Y-6100D03*
Y-9900D03*
G54D16*
X12400Y33000D03*
X8600D03*
X12400Y24000D03*
X8600D03*
X12400Y28500D03*
X8600D03*
X12400Y37500D03*
X8600D03*
X8100Y98700D03*
X11900D03*
X8100Y110300D03*
X11900D03*
X12400Y51000D03*
X8600D03*
X12400Y60000D03*
X8600D03*
X12400Y64500D03*
X8600D03*
X12400Y69000D03*
X8600D03*
X12400Y55500D03*
X8600D03*
X12400Y46500D03*
X8600D03*
X12400Y42000D03*
X8600D03*
X100100Y28500D03*
X103900D03*
X95400Y37500D03*
X91600D03*
X95400Y24000D03*
X91600D03*
X95400Y28500D03*
X91600D03*
X100100Y33000D03*
X103900D03*
X95400D03*
X91600D03*
X95400Y52000D03*
X91600D03*
X95400Y42000D03*
X91600D03*
X95400Y56500D03*
X91600D03*
G54D25*
X130024Y-22517D03*
X157976D03*
G54D26*
X135500Y30469D03*
Y114169D03*
G54D17*
X-10500Y39500D03*
Y44500D03*
Y49500D03*
X-15500Y39500D03*
Y44500D03*
Y49500D03*
G54D18*
X25884Y137900D03*
X73916D03*
G54D27*
X97953Y47000D03*
X92047D03*
G54D19*
X91000Y5300D03*
Y-300D03*
X114000Y21800D03*
Y16200D03*
X79500Y-10800D03*
Y-5200D03*
G54D28*
X147937Y-683D03*
X140063D03*
G54D29*
G01X-22406Y147406D02*
X178119D01*
G02X186119Y139406I0J-8000D01*
G01Y-21748D01*
G02X178119Y-29748I-8000J0D01*
G01X-22406D01*
G02X-30406Y-21748I0J8000D01*
G01Y139406D01*
G02X-22406Y147406I8000J0D01*
M02*
