G75*
%MOIN*%
%OFA0B0*%
%FSLAX24Y24*%
%IPPOS*%
%LPD*%
%AMOC8*
5,1,8,0,0,1.08239X$1,22.5*
%
%ADD10OC8,0.0820*%
%ADD11OC8,0.0760*%
%ADD12R,0.0760X0.0760*%
%ADD13C,0.1410*%
D10*
X011433Y001521D03*
X011433Y003490D03*
X021433Y003490D03*
X021433Y001521D03*
X013402Y017490D03*
X011432Y017490D03*
X009402Y017490D03*
X007432Y017490D03*
D11*
X007433Y014490D03*
X007433Y013490D03*
X007433Y012490D03*
X007433Y011490D03*
X007433Y010490D03*
X007433Y009490D03*
X007433Y008490D03*
X007433Y007490D03*
X007433Y006490D03*
X007433Y005490D03*
X008433Y005490D03*
X008433Y006490D03*
X008433Y007490D03*
X008433Y008490D03*
X008433Y009490D03*
X008433Y010490D03*
X008433Y011490D03*
X008433Y012490D03*
X008433Y013490D03*
X016433Y018490D03*
X016433Y019490D03*
X017433Y019490D03*
X018433Y019490D03*
X018433Y018490D03*
X017433Y018490D03*
X019433Y018500D03*
X020433Y018490D03*
X020433Y019490D03*
X019433Y019500D03*
X021433Y019490D03*
X022433Y019490D03*
X022433Y018490D03*
X021433Y018490D03*
X023433Y018490D03*
X024433Y018490D03*
X024433Y019490D03*
X023433Y019490D03*
X025433Y019490D03*
X025433Y018490D03*
X024433Y014490D03*
X024433Y013490D03*
X024433Y012490D03*
X024433Y011490D03*
X024433Y010490D03*
X024433Y009490D03*
X024433Y008490D03*
X024433Y007490D03*
X024433Y006490D03*
X024433Y005490D03*
X025433Y005490D03*
X025433Y006490D03*
X025433Y007490D03*
X025433Y008490D03*
X025433Y009490D03*
X025433Y010490D03*
X025433Y011490D03*
X025433Y012490D03*
X025433Y013490D03*
X025433Y003490D03*
X025433Y002490D03*
X025433Y001490D03*
X016433Y001490D03*
X016433Y002490D03*
X007433Y002490D03*
X007433Y001490D03*
X007433Y003490D03*
X019433Y028490D03*
X020433Y028490D03*
X021433Y028490D03*
X022433Y028490D03*
X023433Y028490D03*
X024433Y028490D03*
X025433Y028490D03*
D12*
X025433Y014490D03*
X008433Y014490D03*
D13*
X005933Y001490D03*
X026933Y001490D03*
X026933Y028490D03*
X005933Y028490D03*
M02*
