G75*
%MOIN*%
%OFA0B0*%
%FSLAX24Y24*%
%IPPOS*%
%LPD*%
%AMOC8*
5,1,8,0,0,1.08239X$1,22.5*
%
%ADD10C,0.0120*%
%ADD11C,0.0000*%
D10*
X004933Y000490D02*
X027933Y000490D01*
X027933Y029490D01*
X004933Y029490D01*
X004933Y000490D01*
D11*
X005308Y001490D02*
X005310Y001540D01*
X005316Y001589D01*
X005326Y001638D01*
X005339Y001685D01*
X005357Y001732D01*
X005378Y001777D01*
X005402Y001820D01*
X005430Y001861D01*
X005461Y001900D01*
X005495Y001936D01*
X005532Y001970D01*
X005572Y002000D01*
X005613Y002027D01*
X005657Y002051D01*
X005702Y002071D01*
X005749Y002087D01*
X005797Y002100D01*
X005846Y002109D01*
X005896Y002114D01*
X005945Y002115D01*
X005995Y002112D01*
X006044Y002105D01*
X006093Y002094D01*
X006140Y002080D01*
X006186Y002061D01*
X006231Y002039D01*
X006274Y002014D01*
X006314Y001985D01*
X006352Y001953D01*
X006388Y001919D01*
X006421Y001881D01*
X006450Y001841D01*
X006476Y001799D01*
X006499Y001755D01*
X006518Y001709D01*
X006534Y001662D01*
X006546Y001613D01*
X006554Y001564D01*
X006558Y001515D01*
X006558Y001465D01*
X006554Y001416D01*
X006546Y001367D01*
X006534Y001318D01*
X006518Y001271D01*
X006499Y001225D01*
X006476Y001181D01*
X006450Y001139D01*
X006421Y001099D01*
X006388Y001061D01*
X006352Y001027D01*
X006314Y000995D01*
X006274Y000966D01*
X006231Y000941D01*
X006186Y000919D01*
X006140Y000900D01*
X006093Y000886D01*
X006044Y000875D01*
X005995Y000868D01*
X005945Y000865D01*
X005896Y000866D01*
X005846Y000871D01*
X005797Y000880D01*
X005749Y000893D01*
X005702Y000909D01*
X005657Y000929D01*
X005613Y000953D01*
X005572Y000980D01*
X005532Y001010D01*
X005495Y001044D01*
X005461Y001080D01*
X005430Y001119D01*
X005402Y001160D01*
X005378Y001203D01*
X005357Y001248D01*
X005339Y001295D01*
X005326Y001342D01*
X005316Y001391D01*
X005310Y001440D01*
X005308Y001490D01*
X026308Y001490D02*
X026310Y001540D01*
X026316Y001589D01*
X026326Y001638D01*
X026339Y001685D01*
X026357Y001732D01*
X026378Y001777D01*
X026402Y001820D01*
X026430Y001861D01*
X026461Y001900D01*
X026495Y001936D01*
X026532Y001970D01*
X026572Y002000D01*
X026613Y002027D01*
X026657Y002051D01*
X026702Y002071D01*
X026749Y002087D01*
X026797Y002100D01*
X026846Y002109D01*
X026896Y002114D01*
X026945Y002115D01*
X026995Y002112D01*
X027044Y002105D01*
X027093Y002094D01*
X027140Y002080D01*
X027186Y002061D01*
X027231Y002039D01*
X027274Y002014D01*
X027314Y001985D01*
X027352Y001953D01*
X027388Y001919D01*
X027421Y001881D01*
X027450Y001841D01*
X027476Y001799D01*
X027499Y001755D01*
X027518Y001709D01*
X027534Y001662D01*
X027546Y001613D01*
X027554Y001564D01*
X027558Y001515D01*
X027558Y001465D01*
X027554Y001416D01*
X027546Y001367D01*
X027534Y001318D01*
X027518Y001271D01*
X027499Y001225D01*
X027476Y001181D01*
X027450Y001139D01*
X027421Y001099D01*
X027388Y001061D01*
X027352Y001027D01*
X027314Y000995D01*
X027274Y000966D01*
X027231Y000941D01*
X027186Y000919D01*
X027140Y000900D01*
X027093Y000886D01*
X027044Y000875D01*
X026995Y000868D01*
X026945Y000865D01*
X026896Y000866D01*
X026846Y000871D01*
X026797Y000880D01*
X026749Y000893D01*
X026702Y000909D01*
X026657Y000929D01*
X026613Y000953D01*
X026572Y000980D01*
X026532Y001010D01*
X026495Y001044D01*
X026461Y001080D01*
X026430Y001119D01*
X026402Y001160D01*
X026378Y001203D01*
X026357Y001248D01*
X026339Y001295D01*
X026326Y001342D01*
X026316Y001391D01*
X026310Y001440D01*
X026308Y001490D01*
X026308Y028490D02*
X026310Y028540D01*
X026316Y028589D01*
X026326Y028638D01*
X026339Y028685D01*
X026357Y028732D01*
X026378Y028777D01*
X026402Y028820D01*
X026430Y028861D01*
X026461Y028900D01*
X026495Y028936D01*
X026532Y028970D01*
X026572Y029000D01*
X026613Y029027D01*
X026657Y029051D01*
X026702Y029071D01*
X026749Y029087D01*
X026797Y029100D01*
X026846Y029109D01*
X026896Y029114D01*
X026945Y029115D01*
X026995Y029112D01*
X027044Y029105D01*
X027093Y029094D01*
X027140Y029080D01*
X027186Y029061D01*
X027231Y029039D01*
X027274Y029014D01*
X027314Y028985D01*
X027352Y028953D01*
X027388Y028919D01*
X027421Y028881D01*
X027450Y028841D01*
X027476Y028799D01*
X027499Y028755D01*
X027518Y028709D01*
X027534Y028662D01*
X027546Y028613D01*
X027554Y028564D01*
X027558Y028515D01*
X027558Y028465D01*
X027554Y028416D01*
X027546Y028367D01*
X027534Y028318D01*
X027518Y028271D01*
X027499Y028225D01*
X027476Y028181D01*
X027450Y028139D01*
X027421Y028099D01*
X027388Y028061D01*
X027352Y028027D01*
X027314Y027995D01*
X027274Y027966D01*
X027231Y027941D01*
X027186Y027919D01*
X027140Y027900D01*
X027093Y027886D01*
X027044Y027875D01*
X026995Y027868D01*
X026945Y027865D01*
X026896Y027866D01*
X026846Y027871D01*
X026797Y027880D01*
X026749Y027893D01*
X026702Y027909D01*
X026657Y027929D01*
X026613Y027953D01*
X026572Y027980D01*
X026532Y028010D01*
X026495Y028044D01*
X026461Y028080D01*
X026430Y028119D01*
X026402Y028160D01*
X026378Y028203D01*
X026357Y028248D01*
X026339Y028295D01*
X026326Y028342D01*
X026316Y028391D01*
X026310Y028440D01*
X026308Y028490D01*
X010697Y029491D02*
X007429Y029491D01*
X005308Y028490D02*
X005310Y028540D01*
X005316Y028589D01*
X005326Y028638D01*
X005339Y028685D01*
X005357Y028732D01*
X005378Y028777D01*
X005402Y028820D01*
X005430Y028861D01*
X005461Y028900D01*
X005495Y028936D01*
X005532Y028970D01*
X005572Y029000D01*
X005613Y029027D01*
X005657Y029051D01*
X005702Y029071D01*
X005749Y029087D01*
X005797Y029100D01*
X005846Y029109D01*
X005896Y029114D01*
X005945Y029115D01*
X005995Y029112D01*
X006044Y029105D01*
X006093Y029094D01*
X006140Y029080D01*
X006186Y029061D01*
X006231Y029039D01*
X006274Y029014D01*
X006314Y028985D01*
X006352Y028953D01*
X006388Y028919D01*
X006421Y028881D01*
X006450Y028841D01*
X006476Y028799D01*
X006499Y028755D01*
X006518Y028709D01*
X006534Y028662D01*
X006546Y028613D01*
X006554Y028564D01*
X006558Y028515D01*
X006558Y028465D01*
X006554Y028416D01*
X006546Y028367D01*
X006534Y028318D01*
X006518Y028271D01*
X006499Y028225D01*
X006476Y028181D01*
X006450Y028139D01*
X006421Y028099D01*
X006388Y028061D01*
X006352Y028027D01*
X006314Y027995D01*
X006274Y027966D01*
X006231Y027941D01*
X006186Y027919D01*
X006140Y027900D01*
X006093Y027886D01*
X006044Y027875D01*
X005995Y027868D01*
X005945Y027865D01*
X005896Y027866D01*
X005846Y027871D01*
X005797Y027880D01*
X005749Y027893D01*
X005702Y027909D01*
X005657Y027929D01*
X005613Y027953D01*
X005572Y027980D01*
X005532Y028010D01*
X005495Y028044D01*
X005461Y028080D01*
X005430Y028119D01*
X005402Y028160D01*
X005378Y028203D01*
X005357Y028248D01*
X005339Y028295D01*
X005326Y028342D01*
X005316Y028391D01*
X005310Y028440D01*
X005308Y028490D01*
M02*
